<?xml version="1.0" standalone="no"?>
<!DOCTYPE svg PUBLIC "-//W3C//DTD SVG 20010904//EN"
 "http://www.w3.org/TR/2001/REC-SVG-20010904/DTD/svg10.dtd">
<svg version="1.0" xmlns="http://www.w3.org/2000/svg"
 width="156.000000pt" height="251.000000pt" viewBox="0 0 156.000000 251.000000"
 preserveAspectRatio="xMidYMid meet">
<metadata>
Created by potrace 1.16, written by Peter Selinger 2001-2019
</metadata>
<g transform="translate(0.000000,251.000000) scale(0.100000,-0.100000)"
fill="#000000" stroke="none">
<path d="M817 2184 c-2 -2 -27 -8 -57 -14 -53 -10 -79 -30 -80 -61 0 -9 -16
-24 -36 -34 -28 -13 -35 -21 -31 -37 4 -12 -1 -21 -11 -25 -9 -4 -30 -16 -45
-27 -25 -18 -28 -26 -23 -58 5 -33 3 -39 -26 -61 -41 -31 -137 -49 -184 -34
-24 7 -49 7 -89 -2 l-55 -12 0 -160 0 -161 41 35 c22 20 52 50 65 69 14 18 32
32 40 30 12 -2 14 2 9 17 -5 16 3 26 35 48 23 15 74 56 114 91 41 34 77 62 80
62 4 0 22 11 39 24 18 13 46 30 62 38 53 27 79 42 115 68 38 27 88 49 133 57
15 3 34 15 42 26 18 26 147 52 177 36 10 -6 24 -7 30 -3 22 14 60 13 93 0 30
-13 68 -6 53 9 -15 15 -259 67 -333 71 -44 3 -97 6 -117 8 -20 2 -38 2 -41 0z"/>
<path d="M1340 2100 c0 -5 5 -10 10 -10 6 0 10 5 10 10 0 6 -4 10 -10 10 -5 0
-10 -4 -10 -10z"/>
<path d="M470 1930 c0 -5 5 -10 11 -10 5 0 7 5 4 10 -3 6 -8 10 -11 10 -2 0
-4 -4 -4 -10z"/>
</g>
</svg>
