<?xml version="1.0" standalone="no"?>
<!DOCTYPE svg PUBLIC "-//W3C//DTD SVG 20010904//EN"
 "http://www.w3.org/TR/2001/REC-SVG-20010904/DTD/svg10.dtd">
<svg version="1.0" xmlns="http://www.w3.org/2000/svg"
 width="304.000000pt" height="379.000000pt" viewBox="0 0 304.000000 379.000000"
 preserveAspectRatio="xMidYMid meet">
<metadata>
Created by potrace 1.16, written by Peter Selinger 2001-2019
</metadata>
<g transform="translate(0.000000,379.000000) scale(0.100000,-0.100000)"
fill="#000000" stroke="none">
<path d="M1188 2983 c-29 -33 -46 -78 -57 -153 -14 -87 -30 -384 -31 -547 0
-130 2 -128 -101 -97 -62 19 -205 20 -278 2 -78 -19 -148 -54 -156 -78 -9 -29
6 -42 57 -50 39 -6 46 -3 76 24 30 29 40 31 116 34 l82 4 10 -39 9 -38 65 1
c36 1 74 3 85 5 20 4 20 -3 26 -381 7 -412 19 -525 67 -632 25 -58 58 -68 48
-16 -3 18 -13 98 -21 178 -21 190 -18 817 4 843 10 13 31 17 92 17 44 0 124 7
180 15 86 13 106 20 140 47 47 38 47 62 1 66 -31 3 -55 -1 -157 -27 -33 -8
-43 -7 -58 7 -18 16 -86 20 -177 10 l-25 -3 3 170 c2 148 18 389 38 593 6 51
4 62 -8 62 -8 0 -22 -8 -30 -17z"/>
<path d="M2495 2649 c-67 -25 -129 -109 -179 -242 -39 -106 -45 -166 -25 -272
12 -67 43 -116 121 -192 49 -49 175 -140 277 -201 25 -15 73 -51 108 -80 l63
-53 0 45 c0 42 -3 46 -67 98 -38 30 -121 90 -186 133 -67 44 -137 99 -162 129
-107 121 -111 257 -15 445 42 83 85 120 147 128 106 12 171 -24 217 -120 13
-29 34 -61 45 -71 l21 -19 0 74 0 75 -47 46 c-70 67 -104 81 -203 85 -47 1
-98 -2 -115 -8z"/>
<path d="M720 2050 c0 -5 7 -10 16 -10 8 0 12 5 9 10 -3 6 -10 10 -16 10 -5 0
-9 -4 -9 -10z"/>
<path d="M2830 1260 c-75 -55 -271 -99 -477 -107 -197 -8 -559 20 -693 53 -30
8 -58 10 -63 5 -10 -10 29 -36 68 -44 17 -3 73 -15 125 -26 108 -22 136 -26
357 -46 204 -19 301 -19 432 1 127 20 270 60 277 78 3 8 4 34 2 59 l-3 46 -25
-19z"/>
</g>
</svg>
