<?xml version="1.0" standalone="no"?>
<!DOCTYPE svg PUBLIC "-//W3C//DTD SVG 20010904//EN"
 "http://www.w3.org/TR/2001/REC-SVG-20010904/DTD/svg10.dtd">
<svg version="1.0" xmlns="http://www.w3.org/2000/svg"
 width="302.000000pt" height="251.000000pt" viewBox="0 0 302.000000 251.000000"
 preserveAspectRatio="xMidYMid meet">
<metadata>
Created by potrace 1.16, written by Peter Selinger 2001-2019
</metadata>
<g transform="translate(0.000000,251.000000) scale(0.100000,-0.100000)"
fill="#000000" stroke="none">
<path d="M330 2140 c0 -16 5 -30 10 -30 6 0 10 14 10 30 0 17 -4 30 -10 30 -5
0 -10 -13 -10 -30z"/>
<path d="M330 2020 c0 -33 4 -60 10 -60 6 0 10 27 10 60 0 33 -4 60 -10 60 -6
0 -10 -27 -10 -60z"/>
<path d="M330 1900 c0 -5 5 -10 10 -10 6 0 10 5 10 10 0 6 -4 10 -10 10 -5 0
-10 -4 -10 -10z"/>
<path d="M330 1840 c0 -11 5 -20 10 -20 6 0 10 9 10 20 0 11 -4 20 -10 20 -5
0 -10 -9 -10 -20z"/>
<path d="M2020 1491 c-19 -10 -76 -56 -127 -102 -76 -69 -96 -93 -109 -132
-29 -86 4 -99 46 -18 17 34 148 154 211 195 37 23 59 15 59 -23 0 -42 -82
-197 -141 -265 -27 -32 -49 -63 -49 -69 0 -13 -40 -74 -87 -133 -18 -23 -33
-44 -33 -48 0 -3 -21 -32 -46 -64 -25 -31 -71 -90 -102 -131 -31 -40 -73 -88
-92 -107 -36 -36 -36 -54 3 -78 24 -15 124 21 234 85 84 48 90 50 126 39 21
-6 40 -16 42 -23 2 -7 9 -86 15 -177 12 -179 31 -260 62 -260 14 0 16 4 9 23
-9 24 -18 100 -26 227 -3 41 -8 100 -11 131 -6 52 -4 58 17 73 38 24 133 45
258 56 63 5 119 14 125 20 37 37 -113 50 -273 25 -61 -10 -114 -15 -118 -11
-4 3 9 22 27 41 25 26 31 38 23 46 -8 8 -19 6 -42 -7 -22 -13 -34 -15 -41 -8
-7 7 -12 67 -13 145 l-2 135 74 109 c41 61 83 132 94 160 24 64 17 126 -18
149 -31 20 -52 20 -95 -3z m-100 -622 c5 -46 10 -91 10 -101 0 -14 -108 -82
-262 -164 -26 -14 -58 -19 -58 -9 0 3 34 49 75 102 42 54 105 138 142 186 37
48 70 84 75 79 5 -5 13 -46 18 -93z"/>
<path d="M310 855 c0 -25 5 -45 10 -45 6 0 10 20 10 45 0 25 -4 45 -10 45 -5
0 -10 -20 -10 -45z"/>
<path d="M300 500 c0 -11 5 -20 10 -20 6 0 10 9 10 20 0 11 -4 20 -10 20 -5 0
-10 -9 -10 -20z"/>
<path d="M300 375 c0 -37 4 -65 10 -65 6 0 10 28 10 65 0 37 -4 65 -10 65 -6
0 -10 -28 -10 -65z"/>
</g>
</svg>
