<?xml version="1.0" standalone="no"?>
<!DOCTYPE svg PUBLIC "-//W3C//DTD SVG 20010904//EN"
 "http://www.w3.org/TR/2001/REC-SVG-20010904/DTD/svg10.dtd">
<svg version="1.0" xmlns="http://www.w3.org/2000/svg"
 width="325.000000pt" height="287.000000pt" viewBox="0 0 325.000000 287.000000"
 preserveAspectRatio="xMidYMid meet">
<metadata>
Created by potrace 1.16, written by Peter Selinger 2001-2019
</metadata>
<g transform="translate(0.000000,287.000000) scale(0.100000,-0.100000)"
fill="#000000" stroke="none">
<path d="M570 2676 c0 -24 16 -27 35 -6 18 19 17 20 -8 20 -17 0 -27 -5 -27
-14z"/>
<path d="M752 2672 c-35 -27 -27 -66 14 -70 34 -3 59 18 69 61 7 25 5 27 -26
27 -19 0 -45 -9 -57 -18z"/>
<path d="M1610 2644 c0 -59 26 -147 49 -168 10 -9 35 -19 55 -23 29 -5 37 -2
41 13 4 11 17 42 30 71 14 29 20 55 15 58 -5 3 -25 -11 -45 -31 -34 -34 -38
-35 -53 -20 -10 10 -18 39 -20 81 l-4 65 -34 0 c-34 0 -34 0 -34 -46z"/>
<path d="M2089 2638 c-8 -381 2 -690 22 -714 8 -10 16 -11 22 -5 10 10 17 164
23 481 1 102 5 209 9 238 l5 52 -40 0 -40 0 -1 -52z"/>
<path d="M2861 1786 c-6 -8 -10 -20 -9 -27 2 -9 -7 -12 -29 -10 -28 2 -34 -2
-51 -36 -11 -21 -29 -47 -41 -57 -12 -11 -31 -36 -43 -55 -44 -73 -58 -83
-110 -76 -46 7 -48 6 -58 -22 -6 -15 -20 -46 -31 -69 -10 -22 -19 -46 -19 -52
0 -11 50 -42 67 -42 4 0 51 47 103 105 52 58 99 105 106 105 7 0 13 -44 17
-137 6 -149 49 -444 72 -499 8 -19 19 -34 26 -34 12 0 11 48 -11 265 -36 365
-36 444 0 514 22 44 45 51 106 32 16 -5 48 -12 72 -15 41 -6 42 -6 42 23 0 27
-6 31 -90 65 -102 41 -103 41 -119 22z"/>
<path d="M183 1295 c0 -27 2 -38 4 -22 2 15 2 37 0 50 -2 12 -4 0 -4 -28z"/>
<path d="M710 1312 c-15 -5 -25 -15 -25 -27 0 -31 71 -45 305 -60 294 -18 393
-14 374 16 -12 20 -59 30 -188 39 -72 6 -169 14 -216 19 -158 17 -225 20 -250
13z"/>
</g>
</svg>
