<?xml version="1.0" standalone="no"?>
<!DOCTYPE svg PUBLIC "-//W3C//DTD SVG 20010904//EN"
 "http://www.w3.org/TR/2001/REC-SVG-20010904/DTD/svg10.dtd">
<svg version="1.0" xmlns="http://www.w3.org/2000/svg"
 width="299.000000pt" height="378.000000pt" viewBox="0 0 299.000000 378.000000"
 preserveAspectRatio="xMidYMid meet">
<metadata>
Created by potrace 1.16, written by Peter Selinger 2001-2019
</metadata>
<g transform="translate(0.000000,378.000000) scale(0.100000,-0.100000)"
fill="#000000" stroke="none">
<path d="M632 2903 c-23 -43 -63 -190 -77 -285 -27 -180 -64 -461 -70 -533 -8
-99 -26 -195 -35 -195 -5 0 -16 24 -24 54 -21 73 -51 96 -123 96 -29 0 -69 -7
-88 -14 -34 -15 -35 -17 -35 -71 l0 -56 33 25 c18 14 50 33 71 41 50 21 57 14
85 -91 31 -118 28 -184 -10 -252 -32 -57 -118 -151 -156 -171 -18 -9 -23 -20
-23 -52 l0 -39 62 32 c48 26 74 49 116 105 30 40 59 70 63 67 5 -3 9 -49 9
-103 0 -174 32 -271 89 -271 48 0 53 19 15 55 l-34 32 0 154 c1 85 7 199 15
254 8 55 21 159 30 230 9 72 22 162 30 200 8 39 22 135 30 215 20 194 42 357
54 400 39 142 40 183 4 188 -13 2 -25 -4 -31 -15z"/>
<path d="M1382 2735 c-12 -14 -26 -51 -32 -81 -6 -30 -29 -107 -51 -172 -22
-64 -48 -157 -58 -207 -11 -49 -35 -151 -54 -225 -46 -177 -61 -300 -53 -421
9 -132 31 -185 91 -226 39 -27 57 -33 101 -33 93 0 267 70 241 97 -4 4 -40 -1
-80 -10 -133 -30 -166 -31 -209 -1 -48 34 -60 74 -63 219 -1 77 3 131 15 180
10 39 20 87 24 108 7 36 6 38 -13 32 -24 -7 -26 -2 -11 25 6 11 16 17 24 14 7
-3 16 2 19 10 11 27 45 180 52 231 4 28 23 97 42 155 49 151 66 218 67 275 1
59 -20 71 -52 30z m-152 -784 c0 -20 -13 -35 -23 -25 -7 8 4 44 14 44 5 0 9
-9 9 -19z"/>
<path d="M903 1984 c-47 -23 -168 -154 -199 -216 -36 -71 -54 -141 -54 -214 0
-201 137 -293 251 -167 44 48 99 132 90 137 -4 3 -23 -11 -42 -30 -52 -55
-114 -94 -148 -94 -64 0 -88 58 -76 185 7 81 23 107 51 84 26 -22 114 -15 176
13 40 19 70 43 108 89 51 61 52 64 46 112 -3 27 -13 59 -23 69 -44 48 -120 62
-180 32z m130 -62 c32 -28 21 -64 -36 -120 -70 -69 -159 -100 -201 -69 -17 13
-17 15 1 48 19 35 137 152 163 162 20 7 51 -2 73 -21z"/>
<path d="M2294 1283 c4 -16 10 -40 13 -55 6 -33 37 -62 58 -55 24 10 18 43
-17 91 -38 52 -64 61 -54 19z"/>
</g>
</svg>
