<?xml version="1.0" standalone="no"?>
<!DOCTYPE svg PUBLIC "-//W3C//DTD SVG 20010904//EN"
 "http://www.w3.org/TR/2001/REC-SVG-20010904/DTD/svg10.dtd">
<svg version="1.0" xmlns="http://www.w3.org/2000/svg"
 width="327.000000pt" height="381.000000pt" viewBox="0 0 327.000000 381.000000"
 preserveAspectRatio="xMidYMid meet">
<metadata>
Created by potrace 1.16, written by Peter Selinger 2001-2019
</metadata>
<g transform="translate(0.000000,381.000000) scale(0.100000,-0.100000)"
fill="#000000" stroke="none">
<path d="M2156 2437 c-11 -7 -43 -26 -70 -43 -28 -17 -62 -35 -76 -39 -38 -12
-98 -52 -110 -74 -18 -35 -11 -60 23 -81 39 -24 48 -22 66 16 18 39 49 72 75
80 12 4 35 18 53 31 20 16 34 20 38 13 4 -6 0 -54 -9 -108 -15 -95 -27 -209
-47 -482 -5 -74 -11 -140 -14 -147 -2 -7 -7 -97 -10 -200 -9 -283 -13 -326
-32 -340 -9 -7 -25 -13 -35 -13 -10 0 -34 -7 -53 -14 -40 -17 -47 -49 -15 -66
29 -16 151 -4 245 24 44 13 98 28 119 32 45 10 68 36 48 56 -9 9 -33 9 -112
-1 -55 -6 -105 -9 -111 -6 -5 4 -8 19 -5 33 3 15 10 92 16 172 5 80 15 210 20
290 20 276 51 635 60 700 23 157 3 208 -64 167z"/>
<path d="M2953 1824 c-3 -8 3 -28 14 -42 16 -22 29 -28 72 -30 l51 -3 0 39 c0
38 -2 40 -37 46 -63 10 -93 7 -100 -10z"/>
<path d="M240 1710 c-8 -5 -25 -10 -37 -10 -20 0 -23 -5 -23 -40 0 -30 3 -38
14 -34 25 9 27 -14 6 -58 -11 -23 -20 -62 -20 -86 l0 -45 28 39 c41 60 61 98
83 161 18 55 19 59 2 70 -20 15 -33 16 -53 3z"/>
<path d="M2538 1570 c-21 -13 -90 -219 -92 -272 0 -31 5 -44 23 -59 51 -41 71
-11 71 105 0 43 6 89 15 110 27 64 61 40 89 -64 40 -145 40 -145 61 -145 26 0
31 50 15 144 -18 108 -66 174 -135 186 -16 3 -38 1 -47 -5z"/>
</g>
</svg>
