<?xml version="1.0" standalone="no"?>
<!DOCTYPE svg PUBLIC "-//W3C//DTD SVG 20010904//EN"
 "http://www.w3.org/TR/2001/REC-SVG-20010904/DTD/svg10.dtd">
<svg version="1.0" xmlns="http://www.w3.org/2000/svg"
 width="229.000000pt" height="287.000000pt" viewBox="0 0 229.000000 287.000000"
 preserveAspectRatio="xMidYMid meet">
<metadata>
Created by potrace 1.16, written by Peter Selinger 2001-2019
</metadata>
<g transform="translate(0.000000,287.000000) scale(0.100000,-0.100000)"
fill="#000000" stroke="none">
<path d="M597 2683 c-3 -5 -26 -48 -52 -97 -25 -50 -61 -107 -80 -127 -18 -21
-42 -50 -51 -66 -27 -41 -100 -129 -171 -205 -62 -65 -63 -67 -63 -123 l0 -57
72 78 c171 185 222 246 252 299 9 17 25 41 36 55 23 29 90 200 90 230 0 19
-24 28 -33 13z"/>
<path d="M965 2668 c34 -112 114 -168 241 -168 62 0 70 3 135 46 38 26 91 68
117 93 l47 46 -68 3 c-60 3 -71 0 -110 -26 -74 -51 -103 -62 -164 -62 -56 0
-61 2 -103 45 -32 33 -52 45 -73 45 -25 0 -27 -3 -22 -22z"/>
<path d="M927 1900 c-47 -41 -98 -142 -145 -290 -68 -210 -65 -259 19 -341
l39 -38 43 46 c23 25 54 54 69 63 48 29 99 110 111 178 6 29 4 32 -17 32 -19
0 -29 -12 -52 -57 -27 -57 -110 -155 -147 -175 -43 -22 -67 54 -48 155 13 72
83 259 119 317 33 54 64 60 95 18 18 -24 20 -41 19 -117 -2 -68 1 -91 13 -101
61 -50 82 179 24 262 -60 88 -87 97 -142 48z"/>
<path d="M2015 1901 c-75 -47 -150 -155 -191 -274 l-23 -69 20 -36 c28 -49 15
-87 -33 -100 -28 -8 -33 -13 -31 -37 2 -29 -50 -131 -107 -210 -55 -74 -64
-150 -18 -143 15 2 25 14 32 39 6 20 26 54 43 75 32 37 34 38 48 20 15 -19 32
-64 55 -143 14 -46 129 -194 178 -230 41 -30 58 -29 93 6 24 25 29 37 29 81 0
58 -10 58 -40 -1 -13 -25 -27 -39 -40 -39 -33 0 -85 63 -140 171 -29 57 -68
125 -86 152 -51 74 -52 87 -13 119 18 15 39 28 46 28 7 0 17 8 22 18 5 9 33
26 61 37 103 39 190 149 190 239 l0 40 -31 -30 c-17 -16 -35 -39 -39 -50 -7
-17 -15 -20 -37 -17 -63 10 -63 10 60 149 50 57 55 69 34 77 -45 17 -128 -54
-170 -145 -18 -41 -43 -53 -31 -15 21 70 64 137 131 206 40 41 72 80 70 86 -6
18 -51 16 -82 -4z m-25 -431 c0 -15 -40 -32 -58 -25 -15 6 -15 8 2 21 23 16
56 19 56 4z"/>
<path d="M2056 1377 c-27 -31 -56 -75 -64 -98 -12 -37 -12 -43 4 -60 20 -23
102 -27 110 -6 2 7 3 60 2 117 l-3 105 -49 -58z"/>
<path d="M2014 1125 c-8 -20 38 -69 74 -80 20 -6 22 -3 22 33 0 33 -4 41 -22
45 -13 3 -33 9 -45 12 -17 5 -25 3 -29 -10z"/>
<path d="M699 840 c-28 -17 -71 -80 -65 -97 6 -14 9 -13 32 2 66 43 155 36
288 -24 40 -18 73 -28 78 -23 12 12 -46 55 -148 108 -86 45 -148 56 -185 34z"/>
<path d="M329 797 c-46 -31 -48 -71 -4 -74 17 -1 47 -5 67 -9 34 -6 39 -4 48
21 14 36 13 42 -10 65 -26 26 -59 25 -101 -3z"/>
</g>
</svg>
