<?xml version="1.0" standalone="no"?>
<!DOCTYPE svg PUBLIC "-//W3C//DTD SVG 20010904//EN"
 "http://www.w3.org/TR/2001/REC-SVG-20010904/DTD/svg10.dtd">
<svg version="1.0" xmlns="http://www.w3.org/2000/svg"
 width="301.000000pt" height="401.000000pt" viewBox="0 0 301.000000 401.000000"
 preserveAspectRatio="xMidYMid meet">
<metadata>
Created by potrace 1.16, written by Peter Selinger 2001-2019
</metadata>
<g transform="translate(0.000000,401.000000) scale(0.100000,-0.100000)"
fill="#000000" stroke="none">
<path d="M744 2946 c-7 -18 -5 -48 19 -256 9 -74 23 -207 32 -295 9 -88 22
-209 30 -270 22 -164 36 -350 40 -535 6 -213 23 -490 35 -561 6 -30 10 -70 10
-88 0 -38 27 -94 41 -86 6 4 8 63 4 158 -3 84 -7 307 -10 497 -3 221 -11 388
-20 465 -9 66 -20 165 -25 220 -27 298 -74 594 -109 693 -22 64 -37 83 -47 58z"/>
<path d="M2620 2875 c-6 -7 -6 -24 0 -46 6 -19 13 -87 17 -151 6 -110 5 -118
-13 -124 -57 -18 -75 -28 -89 -51 -22 -33 -8 -47 33 -32 43 15 65 0 77 -53 13
-51 36 -60 71 -27 18 17 23 30 19 44 -6 17 -23 268 -28 400 -2 38 -4 40 -40
46 -23 4 -41 2 -47 -6z"/>
<path d="M180 2771 c0 -23 4 -41 9 -41 18 0 70 -51 73 -72 2 -12 9 -23 16 -26
15 -5 17 54 2 63 -5 3 -10 16 -10 28 0 13 -14 33 -33 48 -56 44 -57 44 -57 0z"/>
<path d="M2275 2250 c-18 -20 -18 -21 6 -44 27 -25 110 -63 178 -80 25 -6 46
-16 48 -23 3 -7 -30 -29 -76 -53 -82 -40 -97 -60 -69 -88 18 -18 49 -15 87 9
42 25 51 17 27 -24 -11 -18 -35 -61 -55 -97 -22 -42 -65 -95 -121 -150 -68
-67 -90 -96 -104 -135 -16 -48 -16 -51 2 -75 11 -14 28 -25 39 -25 20 0 114
105 183 205 73 106 158 170 225 170 44 0 119 -48 153 -97 l32 -48 0 61 c0 68
-11 84 -85 123 -57 30 -93 34 -150 17 -28 -9 -53 -12 -58 -7 -14 14 71 157
111 189 20 16 57 40 82 52 79 40 100 59 100 91 0 34 -3 35 -38 10 -15 -10 -65
-37 -112 -60 l-85 -41 -40 20 c-21 11 -44 20 -51 20 -18 0 -115 48 -153 75
-41 30 -53 31 -76 5z"/>
<path d="M180 2152 c0 -38 5 -53 24 -71 13 -12 34 -54 46 -92 19 -59 22 -83
17 -153 -7 -83 -33 -180 -68 -249 -15 -29 -19 -54 -17 -110 l3 -72 32 50 c47
75 102 207 120 288 25 120 -1 287 -58 369 -24 34 -79 87 -91 88 -5 0 -8 -22
-8 -48z"/>
<path d="M2822 1995 c0 -16 2 -22 5 -12 2 9 2 23 0 30 -3 6 -5 -1 -5 -18z"/>
</g>
</svg>
