<?xml version="1.0" standalone="no"?>
<!DOCTYPE svg PUBLIC "-//W3C//DTD SVG 20010904//EN"
 "http://www.w3.org/TR/2001/REC-SVG-20010904/DTD/svg10.dtd">
<svg version="1.0" xmlns="http://www.w3.org/2000/svg"
 width="219.000000pt" height="376.000000pt" viewBox="0 0 219.000000 376.000000"
 preserveAspectRatio="xMidYMid meet">
<metadata>
Created by potrace 1.16, written by Peter Selinger 2001-2019
</metadata>
<g transform="translate(0.000000,376.000000) scale(0.100000,-0.100000)"
fill="#000000" stroke="none">
<path d="M433 2155 c-12 -33 16 -289 40 -358 26 -77 62 -122 73 -94 3 9 -1 54
-10 100 -9 45 -18 138 -21 207 -5 111 -8 127 -26 143 -26 21 -48 22 -56 2z"/>
<path d="M1102 1904 c-44 -23 -127 -117 -157 -179 -14 -27 -36 -88 -50 -134
-73 -247 32 -501 207 -501 49 0 83 18 129 67 81 87 72 103 -21 38 -87 -61
-127 -62 -182 -5 -43 46 -61 84 -77 162 -25 118 36 316 130 421 46 52 54 57
92 57 36 0 50 -7 102 -53 120 -105 153 -110 111 -15 -17 39 -41 70 -81 104
-51 43 -62 48 -113 51 -39 3 -67 -2 -90 -13z"/>
<path d="M1519 1839 c-17 -17 -20 -28 -15 -58 3 -20 9 -108 13 -196 6 -158 6
-161 -21 -225 -15 -36 -30 -92 -33 -125 -4 -51 -2 -64 17 -87 42 -54 78 -28
105 76 8 31 15 79 15 106 0 94 47 242 106 331 64 96 110 135 172 144 28 4 64
4 81 0 36 -8 47 7 22 29 -23 21 -130 25 -184 7 -38 -13 -141 -116 -169 -169
-25 -47 -38 -31 -38 42 0 61 -19 128 -39 141 -6 3 -20 -4 -32 -16z"/>
<path d="M405 1769 c-13 -24 -19 -28 -30 -19 -19 15 -30 8 -120 -78 -75 -72
-76 -73 -73 -119 4 -64 29 -79 63 -38 13 17 34 49 46 72 22 45 34 58 42 46 3
-5 -6 -55 -18 -113 -26 -116 -31 -231 -13 -292 17 -56 66 -88 135 -88 46 0 58
4 91 35 30 27 43 49 56 99 10 35 16 75 14 87 -5 40 -31 27 -53 -28 -46 -114
-56 -97 -60 100 -6 320 -32 430 -80 336z m8 -326 c5 -70 3 -91 -8 -103 -25
-24 -38 1 -31 62 3 29 6 64 6 78 1 32 7 50 18 50 5 0 12 -39 15 -87z"/>
<path d="M1991 1438 c-10 -58 0 -233 14 -247 3 -2 5 66 5 152 0 87 -2 157 -4
157 -2 0 -9 -28 -15 -62z"/>
</g>
</svg>
