<?xml version="1.0" standalone="no"?>
<!DOCTYPE svg PUBLIC "-//W3C//DTD SVG 20010904//EN"
 "http://www.w3.org/TR/2001/REC-SVG-20010904/DTD/svg10.dtd">
<svg version="1.0" xmlns="http://www.w3.org/2000/svg"
 width="240.000000pt" height="373.000000pt" viewBox="0 0 240.000000 373.000000"
 preserveAspectRatio="xMidYMid meet">
<metadata>
Created by potrace 1.16, written by Peter Selinger 2001-2019
</metadata>
<g transform="translate(0.000000,373.000000) scale(0.100000,-0.100000)"
fill="#000000" stroke="none">
<path d="M236 2691 c-3 -4 6 -21 19 -37 38 -44 55 -118 55 -236 0 -121 23
-301 44 -351 20 -48 59 -73 91 -59 18 8 29 28 45 80 11 38 27 75 35 82 13 11
17 8 28 -19 6 -17 14 -31 18 -31 4 0 9 53 13 118 3 64 9 158 12 208 7 99 -3
134 -36 134 -27 0 -32 -13 -41 -99 -4 -42 -10 -101 -14 -131 -11 -95 -68 -255
-90 -255 -16 0 -31 94 -39 245 -10 204 -27 281 -74 333 -25 27 -56 35 -66 18z"/>
<path d="M822 2554 c-36 -25 -25 -34 43 -34 71 0 88 17 40 38 -35 16 -56 15
-83 -4z"/>
<path d="M955 2521 c-8 -14 52 -59 111 -85 68 -29 76 -35 70 -54 -5 -16 -37
-294 -56 -487 -10 -98 -33 -251 -86 -585 -29 -180 -66 -325 -109 -425 -24 -55
-49 -119 -56 -143 -11 -40 -11 -45 8 -64 30 -29 83 -26 173 11 102 43 165 86
206 139 40 52 44 91 14 140 -29 47 -44 42 -35 -14 6 -45 5 -48 -37 -91 -39
-40 -171 -117 -235 -137 -28 -9 -31 12 -8 47 8 13 21 43 29 68 8 24 21 62 30
85 23 62 81 354 96 484 4 36 13 108 20 160 7 52 13 118 15 145 2 28 8 93 15
145 6 52 17 186 24 298 8 116 18 208 25 215 8 8 25 7 62 -1 62 -15 83 -15 132
-1 55 15 98 57 100 98 3 53 -24 63 -65 24 -18 -17 -43 -36 -55 -42 -39 -20
-109 -12 -205 22 -168 61 -174 62 -183 48z"/>
</g>
</svg>
