<?xml version="1.0" standalone="no"?>
<!DOCTYPE svg PUBLIC "-//W3C//DTD SVG 20010904//EN"
 "http://www.w3.org/TR/2001/REC-SVG-20010904/DTD/svg10.dtd">
<svg version="1.0" xmlns="http://www.w3.org/2000/svg"
 width="234.000000pt" height="401.000000pt" viewBox="0 0 234.000000 401.000000"
 preserveAspectRatio="xMidYMid meet">
<metadata>
Created by potrace 1.16, written by Peter Selinger 2001-2019
</metadata>
<g transform="translate(0.000000,401.000000) scale(0.100000,-0.100000)"
fill="#000000" stroke="none">
<path d="M1764 2946 c-7 -18 -5 -48 19 -256 9 -74 23 -207 32 -295 9 -88 22
-209 30 -270 22 -164 36 -350 40 -535 6 -213 23 -490 35 -561 6 -30 10 -70 10
-88 0 -38 27 -94 41 -86 6 4 8 63 4 158 -3 84 -7 307 -10 497 -3 221 -11 388
-20 465 -9 66 -20 165 -25 220 -27 298 -74 594 -109 693 -22 64 -37 83 -47 58z"/>
<path d="M1036 2795 c-54 -26 -120 -86 -143 -128 -26 -51 -44 -158 -32 -197
38 -124 111 -212 244 -294 102 -64 138 -104 166 -189 39 -121 14 -269 -74
-442 -49 -97 -81 -139 -125 -166 -38 -25 -48 -21 -126 56 -61 59 -78 49 -44
-27 33 -72 91 -113 145 -103 60 11 130 62 175 127 54 81 116 223 134 311 35
165 -19 365 -118 435 -73 50 -105 72 -154 101 -68 39 -120 102 -141 168 -14
46 -15 61 -4 101 17 66 54 117 109 152 39 24 58 30 109 30 51 0 66 -4 92 -25
16 -14 31 -35 33 -47 2 -12 9 -23 16 -26 15 -5 17 54 2 63 -5 3 -10 16 -10 28
0 13 -14 33 -36 50 -65 53 -140 60 -218 22z"/>
</g>
</svg>
