<?xml version="1.0" standalone="no"?>
<!DOCTYPE svg PUBLIC "-//W3C//DTD SVG 20010904//EN"
 "http://www.w3.org/TR/2001/REC-SVG-20010904/DTD/svg10.dtd">
<svg version="1.0" xmlns="http://www.w3.org/2000/svg"
 width="244.000000pt" height="390.000000pt" viewBox="0 0 244.000000 390.000000"
 preserveAspectRatio="xMidYMid meet">
<metadata>
Created by potrace 1.16, written by Peter Selinger 2001-2019
</metadata>
<g transform="translate(0.000000,390.000000) scale(0.100000,-0.100000)"
fill="#000000" stroke="none">
<path d="M180 3675 l0 -45 88 -2 c48 -1 146 -2 217 -3 176 -3 522 -14 790 -26
121 -5 328 -12 460 -14 132 -2 304 -7 383 -11 l142 -7 0 77 0 76 -1040 0
-1040 0 0 -45z"/>
<path d="M454 2676 c-22 -25 -49 -58 -61 -73 -21 -29 -21 -29 -117 -25 l-96 4
0 -31 c0 -28 2 -30 28 -25 35 7 111 -12 118 -30 3 -7 -5 -37 -16 -67 -27 -67
-21 -110 20 -139 36 -26 55 -21 111 26 23 19 49 34 58 32 26 -5 24 -42 -4 -68
-14 -13 -25 -29 -25 -35 0 -32 -215 -183 -245 -171 -25 9 -45 -5 -45 -30 0
-31 26 -32 75 -3 35 21 65 20 65 -2 0 -6 -16 -26 -35 -43 -27 -25 -32 -35 -23
-44 7 -7 20 -12 29 -12 19 0 79 63 126 131 22 32 49 55 88 74 31 16 58 33 61
37 3 4 0 23 -7 41 -9 26 -8 39 5 71 25 60 21 94 -11 107 -35 13 -59 7 -114
-31 -51 -34 -79 -38 -79 -12 0 30 36 125 62 168 14 21 28 52 32 68 4 16 20 48
36 71 26 38 29 55 10 55 -4 0 -25 -20 -46 -44z"/>
<path d="M1575 2560 c-62 -14 -171 -28 -278 -38 -102 -10 -124 -19 -113 -48 6
-15 17 -16 99 -10 50 3 135 13 187 22 112 18 228 12 261 -15 26 -21 58 -153
58 -241 0 -79 -20 -190 -74 -400 -23 -94 -74 -217 -102 -251 -24 -28 -28 -29
-116 -29 -122 0 -212 -17 -245 -45 -37 -32 -20 -50 40 -41 23 4 125 10 225 14
189 7 220 15 193 47 -7 8 -18 15 -25 15 -7 0 -18 6 -24 14 -10 11 -8 17 9 29
30 21 66 93 86 170 26 105 32 104 117 -25 95 -144 97 -148 97 -202 0 -89 -28
-118 -128 -129 -37 -4 -65 -2 -91 9 -28 11 -44 12 -64 5 -34 -13 -35 -41 -3
-78 22 -26 30 -28 93 -27 85 0 187 27 229 59 85 65 66 194 -52 357 -84 115
-124 183 -124 209 1 41 35 102 91 161 44 46 65 60 111 73 55 16 58 15 108 -6
56 -24 73 -20 44 12 -30 33 -54 43 -129 50 -80 8 -101 0 -154 -55 -19 -20 -39
-36 -43 -36 -4 0 -8 47 -8 105 0 131 -14 198 -54 253 -45 64 -130 91 -221 72z"/>
<path d="M630 2219 c0 -5 13 -27 30 -47 16 -20 36 -54 45 -74 18 -44 42 -49
51 -13 10 38 -14 83 -62 115 -45 31 -64 37 -64 19z"/>
<path d="M1539 2017 c-20 -15 -106 -42 -184 -57 -118 -24 -150 -39 -127 -62
14 -14 206 5 272 25 25 8 63 19 85 23 46 10 57 35 29 65 -19 22 -51 24 -75 6z"/>
<path d="M520 1959 c-41 -22 -131 -59 -144 -59 -8 0 -17 -4 -20 -9 -3 -4 -29
-11 -58 -15 -115 -15 -118 -16 -118 -47 0 -28 2 -29 44 -29 60 0 213 45 258
77 54 36 87 109 38 82z"/>
<path d="M746 1875 c-19 -29 -53 -32 -116 -10 -24 8 -46 12 -49 9 -3 -3 11
-20 32 -37 43 -37 46 -55 13 -86 l-24 -23 -12 24 c-40 76 -70 67 -69 -21 1
-126 45 -167 96 -90 15 23 38 61 50 85 24 47 42 54 64 27 17 -20 77 -46 89
-38 19 12 9 38 -27 71 l-37 34 17 35 c21 43 21 45 3 45 -7 0 -21 -11 -30 -25z"/>
<path d="M218 1626 c-35 -19 -38 -25 -38 -63 0 -52 16 -55 36 -8 16 39 26 42
69 19 17 -9 48 -22 70 -29 69 -21 60 -40 -65 -134 -107 -81 -110 -85 -110
-122 0 -22 3 -39 6 -39 6 0 307 280 312 290 1 4 -5 13 -15 21 -22 19 -194 89
-213 88 -8 -1 -32 -11 -52 -23z"/>
</g>
</svg>
