<?xml version="1.0" standalone="no"?>
<!DOCTYPE svg PUBLIC "-//W3C//DTD SVG 20010904//EN"
 "http://www.w3.org/TR/2001/REC-SVG-20010904/DTD/svg10.dtd">
<svg version="1.0" xmlns="http://www.w3.org/2000/svg"
 width="94.000000pt" height="85.000000pt" viewBox="0 0 94.000000 85.000000"
 preserveAspectRatio="xMidYMid meet">
<metadata>
Created by potrace 1.16, written by Peter Selinger 2001-2019
</metadata>
<g transform="translate(0.000000,85.000000) scale(0.100000,-0.100000)"
fill="#000000" stroke="none">
<path d="M556 660 c5 -5 25 -12 44 -16 33 -5 34 -5 16 10 -22 17 -77 23 -60 6z"/>
<path d="M330 650 c0 -6 19 -19 43 -30 23 -10 58 -28 77 -39 78 -43 122 -62
118 -49 -3 10 -220 128 -235 128 -1 0 -3 -5 -3 -10z"/>
<path d="M680 613 c0 -8 64 -53 75 -53 3 0 5 5 5 10 0 6 -6 10 -14 10 -7 0
-25 9 -40 21 -14 11 -26 17 -26 12z"/>
<path d="M320 252 c0 -14 79 -54 91 -46 6 3 -7 16 -31 30 -44 25 -60 29 -60
16z"/>
</g>
</svg>
