<?xml version="1.0" standalone="no"?>
<!DOCTYPE svg PUBLIC "-//W3C//DTD SVG 20010904//EN"
 "http://www.w3.org/TR/2001/REC-SVG-20010904/DTD/svg10.dtd">
<svg version="1.0" xmlns="http://www.w3.org/2000/svg"
 width="201.000000pt" height="281.000000pt" viewBox="0 0 201.000000 281.000000"
 preserveAspectRatio="xMidYMid meet">
<metadata>
Created by potrace 1.16, written by Peter Selinger 2001-2019
</metadata>
<g transform="translate(0.000000,281.000000) scale(0.100000,-0.100000)"
fill="#000000" stroke="none">
<path d="M656 2383 c-72 -92 -159 -213 -198 -278 -99 -163 -163 -348 -137
-396 17 -32 132 -107 191 -124 62 -18 139 -17 145 1 6 18 -54 49 -129 69 -89
23 -158 68 -158 102 0 32 67 191 127 301 40 75 66 116 184 296 66 99 48 120
-25 29z"/>
<path d="M727 2033 c-29 -8 -14 -25 34 -39 44 -14 159 -105 296 -235 59 -57
93 -73 93 -46 0 25 -57 94 -117 140 -32 25 -74 59 -93 75 -30 25 -184 114
-192 111 -2 -1 -11 -3 -21 -6z"/>
<path d="M1176 1648 c3 -13 23 -59 44 -103 41 -87 52 -117 82 -215 24 -77 39
-293 27 -390 -13 -113 -77 -456 -93 -504 -9 -26 -16 -56 -16 -68 0 -11 -16
-35 -36 -53 -38 -35 -38 -55 0 -55 28 0 49 22 70 75 53 127 126 530 126 694 0
125 -23 308 -46 366 -28 71 -105 223 -125 249 -25 32 -43 34 -33 4z"/>
</g>
</svg>
