<?xml version="1.0" standalone="no"?>
<!DOCTYPE svg PUBLIC "-//W3C//DTD SVG 20010904//EN"
 "http://www.w3.org/TR/2001/REC-SVG-20010904/DTD/svg10.dtd">
<svg version="1.0" xmlns="http://www.w3.org/2000/svg"
 width="213.000000pt" height="374.000000pt" viewBox="0 0 213.000000 374.000000"
 preserveAspectRatio="xMidYMid meet">
<metadata>
Created by potrace 1.16, written by Peter Selinger 2001-2019
</metadata>
<g transform="translate(0.000000,374.000000) scale(0.100000,-0.100000)"
fill="#000000" stroke="none">
<path d="M1155 2836 c-16 -7 -37 -22 -46 -32 -54 -64 -91 -292 -107 -649 l-7
-150 -105 -23 c-58 -13 -159 -40 -225 -61 -105 -34 -123 -43 -143 -72 -12 -18
-21 -37 -19 -43 6 -17 53 -19 79 -3 50 31 313 106 388 110 l24 2 1 -565 c0
-527 -1 -565 -17 -568 -10 -2 -33 8 -51 22 -67 52 -94 16 -33 -43 46 -45 120
-55 151 -21 19 21 20 38 22 587 1 310 3 570 6 576 2 7 38 29 78 50 69 35 83
38 194 46 l120 8 58 -34 c32 -18 63 -31 68 -28 29 18 -12 60 -101 106 -40 20
-58 22 -164 21 -92 -1 -131 -6 -177 -22 -32 -12 -63 -18 -69 -15 -13 8 -12
155 2 280 6 55 10 116 10 135 -1 19 7 77 18 129 29 145 88 202 157 152 15 -11
46 -21 68 -23 34 -3 40 0 43 18 2 15 -11 32 -50 61 -89 68 -114 75 -173 49z"/>
<path d="M1416 2603 c8 -34 19 -47 33 -39 6 4 4 17 -7 36 -21 37 -34 39 -26 3z"/>
<path d="M1635 1870 c-3 -5 0 -18 7 -30 10 -16 10 -24 1 -40 -14 -21 -3 -33
20 -24 8 3 18 0 22 -6 4 -6 9 -109 12 -228 5 -196 4 -223 -14 -282 -21 -72
-22 -126 -1 -181 17 -45 36 -69 54 -69 17 0 37 47 31 70 -2 9 4 71 13 139 16
111 21 128 65 204 25 45 60 94 76 109 25 24 29 35 29 80 l0 52 -41 -39 c-23
-22 -59 -66 -80 -97 -22 -32 -44 -58 -49 -58 -6 0 -10 54 -10 133 0 72 -5 150
-11 172 -18 63 -103 129 -124 95z"/>
<path d="M181 959 c-1 -69 15 -99 52 -99 27 0 28 16 2 46 -14 16 -31 49 -39
74 l-14 45 -1 -66z"/>
</g>
</svg>
