<?xml version="1.0" standalone="no"?>
<!DOCTYPE svg PUBLIC "-//W3C//DTD SVG 20010904//EN"
 "http://www.w3.org/TR/2001/REC-SVG-20010904/DTD/svg10.dtd">
<svg version="1.0" xmlns="http://www.w3.org/2000/svg"
 width="254.000000pt" height="405.000000pt" viewBox="0 0 254.000000 405.000000"
 preserveAspectRatio="xMidYMid meet">
<metadata>
Created by potrace 1.16, written by Peter Selinger 2001-2019
</metadata>
<g transform="translate(0.000000,405.000000) scale(0.100000,-0.100000)"
fill="#000000" stroke="none">
<path d="M1716 2923 c-8 -16 -19 -48 -26 -73 -6 -25 -29 -86 -50 -135 -61
-146 -134 -444 -171 -707 -13 -92 -21 -114 -37 -104 -7 4 -9 93 -5 264 7 376
-15 564 -70 594 -18 9 -25 6 -49 -23 -16 -19 -35 -54 -42 -79 -7 -25 -21 -63
-31 -85 -24 -56 -62 -218 -85 -360 -11 -66 -20 -123 -20 -127 0 -5 -4 -8 -8
-8 -5 0 -14 64 -21 143 -28 331 -75 557 -115 557 -22 0 -25 -11 -15 -60 4 -25
18 -130 29 -235 11 -104 25 -217 31 -250 5 -33 12 -170 15 -305 6 -306 9 -341
23 -369 17 -31 52 -24 62 11 4 15 10 72 13 125 16 254 26 339 68 558 38 204
88 345 122 345 21 0 26 -74 25 -410 0 -330 8 -508 24 -527 15 -20 45 -15 57 8
20 37 57 186 101 404 16 83 41 193 55 245 15 52 32 122 40 155 14 63 69 201
128 323 41 82 42 93 20 127 -21 33 -50 32 -68 -2z"/>
<path d="M452 2695 c-30 -27 -43 -49 -56 -99 -10 -35 -16 -75 -14 -87 5 -40
31 -27 52 26 47 113 57 97 61 -96 6 -322 32 -432 80 -338 13 24 19 28 30 19
19 -16 32 -7 130 89 57 55 85 90 85 105 0 23 -37 66 -57 66 -12 0 -83 -99 -83
-116 0 -15 -27 -37 -33 -27 -3 4 6 55 18 113 26 116 31 231 13 292 -17 56 -66
88 -135 88 -46 0 -58 -4 -91 -35z m151 -221 c-3 -98 -7 -127 -19 -131 -16 -5
-27 166 -12 184 22 26 33 7 31 -53z"/>
<path d="M434 2167 c-3 -9 1 -54 10 -100 9 -45 18 -138 21 -207 5 -111 8 -127
26 -142 26 -22 48 -23 56 -3 12 33 -16 289 -40 358 -26 77 -62 122 -73 94z"/>
</g>
</svg>
