<?xml version="1.0" standalone="no"?>
<!DOCTYPE svg PUBLIC "-//W3C//DTD SVG 20010904//EN"
 "http://www.w3.org/TR/2001/REC-SVG-20010904/DTD/svg10.dtd">
<svg version="1.0" xmlns="http://www.w3.org/2000/svg"
 width="223.000000pt" height="376.000000pt" viewBox="0 0 223.000000 376.000000"
 preserveAspectRatio="xMidYMid meet">
<metadata>
Created by potrace 1.16, written by Peter Selinger 2001-2019
</metadata>
<g transform="translate(0.000000,376.000000) scale(0.100000,-0.100000)"
fill="#000000" stroke="none">
<path d="M2006 1888 c-46 -148 -54 -228 -31 -299 16 -47 59 -129 69 -129 2 0
4 122 4 270 1 149 -1 270 -3 270 -2 0 -20 -51 -39 -112z"/>
<path d="M1745 1811 c-110 -27 -145 -80 -166 -249 -12 -91 -11 -105 4 -137 18
-38 69 -75 103 -75 11 0 33 14 49 30 35 37 52 38 67 5 15 -33 34 -32 53 5 18
35 21 255 5 340 -16 84 -38 99 -115 81z m38 -79 c12 -19 14 -154 4 -216 -12
-66 -14 -70 -47 -82 -83 -30 -116 -6 -105 78 13 103 32 153 75 192 39 35 64
44 73 28z"/>
<path d="M1078 1781 c-69 -54 -148 -300 -148 -458 0 -140 60 -306 87 -238 3 9
-2 24 -12 35 -14 16 -15 23 -6 34 7 8 10 23 7 33 -3 10 -6 70 -6 133 -1 92 4
133 23 207 27 101 54 156 80 161 30 6 35 -63 22 -275 -8 -139 -3 -163 35 -163
31 0 39 24 50 146 15 175 30 251 57 276 49 46 78 -10 88 -168 14 -236 31 -305
69 -291 13 5 14 29 10 174 -3 92 -9 191 -14 220 -18 101 -68 163 -132 163 -14
0 -36 -15 -56 -37 -31 -36 -33 -37 -45 -19 -20 32 -69 86 -77 86 -4 0 -18 -9
-32 -19z"/>
</g>
</svg>
