<?xml version="1.0" standalone="no"?>
<!DOCTYPE svg PUBLIC "-//W3C//DTD SVG 20010904//EN"
 "http://www.w3.org/TR/2001/REC-SVG-20010904/DTD/svg10.dtd">
<svg version="1.0" xmlns="http://www.w3.org/2000/svg"
 width="292.000000pt" height="428.000000pt" viewBox="0 0 292.000000 428.000000"
 preserveAspectRatio="xMidYMid meet">
<metadata>
Created by potrace 1.16, written by Peter Selinger 2001-2019
</metadata>
<g transform="translate(0.000000,428.000000) scale(0.100000,-0.100000)"
fill="#000000" stroke="none">
<path d="M1774 3085 c-7 -19 -14 -62 -14 -95 0 -33 -10 -104 -21 -158 -12 -53
-32 -155 -45 -227 -12 -71 -29 -164 -38 -205 -28 -146 -47 -307 -58 -495 -5
-104 -13 -193 -17 -197 -4 -5 -23 14 -43 41 -92 122 -150 289 -231 656 -36
160 -67 324 -70 365 -6 71 -20 100 -49 100 -21 0 -45 -66 -64 -179 -67 -394
-96 -566 -110 -651 -25 -146 -26 -153 -100 -415 -7 -27 -28 -109 -45 -181 -28
-119 -30 -137 -20 -186 12 -57 45 -99 88 -112 36 -11 39 15 4 43 -23 19 -31
34 -31 56 1 41 23 156 47 240 11 39 41 144 67 235 26 91 51 197 56 235 5 39
16 101 24 140 9 38 16 83 16 99 0 17 4 55 10 85 31 177 52 277 60 285 11 11
28 -29 36 -87 3 -23 13 -68 21 -100 7 -32 22 -98 33 -145 25 -116 122 -397
170 -491 37 -74 62 -104 127 -149 39 -27 45 -27 68 -2 15 16 20 55 31 237 13
211 25 328 44 443 24 148 102 557 125 655 29 128 30 143 9 173 -24 35 -62 29
-80 -13z"/>
<path d="M2168 2080 c-45 -24 -87 -74 -124 -148 -23 -46 -29 -74 -32 -141 -6
-123 11 -197 56 -243 40 -42 62 -46 119 -23 44 18 82 63 102 120 7 22 18 46
24 53 21 27 55 151 62 227 8 102 -2 130 -57 155 -54 25 -103 24 -150 0z m110
-63 c6 -6 12 -66 13 -132 3 -111 2 -122 -20 -155 -12 -19 -36 -56 -52 -83 -33
-54 -74 -77 -97 -54 -8 8 -23 45 -33 83 -21 76 -18 119 14 207 37 98 139 177
175 134z"/>
</g>
</svg>
