<?xml version="1.0" standalone="no"?>
<!DOCTYPE svg PUBLIC "-//W3C//DTD SVG 20010904//EN"
 "http://www.w3.org/TR/2001/REC-SVG-20010904/DTD/svg10.dtd">
<svg version="1.0" xmlns="http://www.w3.org/2000/svg"
 width="305.000000pt" height="379.000000pt" viewBox="0 0 305.000000 379.000000"
 preserveAspectRatio="xMidYMid meet">
<metadata>
Created by potrace 1.16, written by Peter Selinger 2001-2019
</metadata>
<g transform="translate(0.000000,379.000000) scale(0.100000,-0.100000)"
fill="#000000" stroke="none">
<path d="M1807 2393 c-9 -15 -17 -70 -22 -158 -15 -247 -25 -332 -67 -550 -38
-204 -88 -345 -122 -345 -21 0 -26 74 -25 410 0 330 -8 508 -24 528 -15 19
-45 14 -57 -9 -20 -37 -57 -186 -101 -404 -16 -82 -41 -193 -55 -245 -15 -52
-32 -122 -40 -155 -14 -63 -69 -201 -128 -323 -41 -82 -42 -93 -20 -127 33
-51 68 -23 94 75 6 25 29 86 50 135 61 146 134 444 171 707 13 92 21 114 37
104 7 -4 9 -93 5 -264 -7 -376 15 -564 70 -594 18 -9 25 -6 49 23 16 19 35 54
42 79 7 25 21 63 31 85 24 56 62 218 85 360 11 66 20 123 20 128 0 4 4 7 8 7
5 0 14 -64 21 -142 28 -332 75 -558 115 -558 22 0 25 11 15 60 -4 25 -18 131
-29 235 -11 105 -25 217 -31 250 -5 33 -12 170 -15 305 -6 305 -9 341 -23 368
-11 21 -45 30 -54 15z"/>
<path d="M2383 2225 c-12 -33 16 -289 40 -358 26 -77 62 -122 73 -94 3 9 -1
54 -10 100 -9 45 -18 138 -21 207 -5 111 -8 127 -26 143 -26 21 -48 22 -56 2z"/>
<path d="M180 1835 c0 -38 15 -44 64 -25 33 12 33 38 0 50 -49 19 -64 13 -64
-25z"/>
<path d="M2355 1839 c-13 -24 -19 -28 -30 -19 -19 16 -32 7 -130 -89 -57 -55
-85 -90 -85 -105 0 -23 37 -66 57 -66 12 0 83 99 83 116 0 15 27 37 33 27 3
-4 -6 -55 -18 -113 -26 -116 -31 -231 -13 -292 17 -56 66 -88 135 -88 46 0 58
4 91 35 30 27 43 49 56 99 10 35 16 75 14 87 -5 40 -31 27 -53 -28 -46 -114
-56 -97 -60 100 -6 320 -32 430 -80 336z m8 -326 c5 -70 3 -91 -8 -103 -25
-24 -38 1 -31 62 3 29 6 64 6 78 1 32 7 50 18 50 5 0 12 -39 15 -87z"/>
<path d="M2843 1653 c-15 -50 -23 -106 -23 -152 0 -48 8 -98 23 -144 l22 -72
3 113 c1 61 1 162 0 223 l-3 110 -22 -78z"/>
</g>
</svg>
