<?xml version="1.0" standalone="no"?>
<!DOCTYPE svg PUBLIC "-//W3C//DTD SVG 20010904//EN"
 "http://www.w3.org/TR/2001/REC-SVG-20010904/DTD/svg10.dtd">
<svg version="1.0" xmlns="http://www.w3.org/2000/svg"
 width="355.000000pt" height="406.000000pt" viewBox="0 0 355.000000 406.000000"
 preserveAspectRatio="xMidYMid meet">
<metadata>
Created by potrace 1.16, written by Peter Selinger 2001-2019
</metadata>
<g transform="translate(0.000000,406.000000) scale(0.100000,-0.100000)"
fill="#000000" stroke="none">
<path d="M1460 2761 c-5 -11 -10 -28 -10 -38 -1 -10 -8 -36 -16 -58 -8 -22
-24 -74 -34 -116 -11 -42 -27 -94 -36 -115 -9 -22 -28 -66 -42 -99 -33 -78
-62 -141 -166 -362 -47 -100 -86 -184 -86 -187 0 -6 -92 -191 -150 -301 -56
-106 -200 -393 -200 -399 0 -2 -26 -60 -59 -127 -70 -149 -76 -165 -60 -175
16 -10 30 12 93 144 28 59 61 123 73 142 11 19 49 89 83 155 34 66 81 151 103
190 143 247 377 732 476 988 40 102 101 303 101 333 0 22 -25 44 -49 44 -6 0
-15 -9 -21 -19z"/>
<path d="M264 2682 c-53 -62 -84 -124 -84 -169 l0 -36 21 19 c30 27 95 115
103 140 4 12 15 29 26 39 19 17 19 19 4 37 -10 10 -20 18 -23 18 -3 -1 -24
-22 -47 -48z"/>
<path d="M379 2542 c-62 -55 -100 -73 -158 -75 -40 -2 -41 -3 -41 -39 0 -43 2
-44 34 -22 29 19 46 2 23 -24 -8 -9 -25 -37 -37 -61 l-22 -45 26 -21 c32 -26
33 -35 1 -65 -24 -22 -36 -80 -17 -80 8 0 48 32 166 132 21 18 49 40 61 48 12
8 55 45 94 83 62 59 70 70 61 87 -20 38 -50 26 -225 -93 -31 -22 -59 -36 -63
-32 -7 7 24 37 152 152 69 61 70 62 51 83 -27 30 -45 25 -106 -28z"/>
<path d="M575 2310 c-60 -37 -150 -94 -200 -125 -49 -32 -114 -70 -142 -86
-51 -28 -53 -31 -53 -71 0 -38 1 -40 18 -26 9 8 55 36 102 63 47 26 102 63
123 81 20 19 44 34 52 34 9 0 41 19 72 43 30 23 63 47 72 52 48 29 93 75 88
89 -4 9 -10 16 -14 15 -4 0 -57 -31 -118 -69z"/>
<path d="M3345 2166 c-11 -19 -40 -69 -65 -112 -25 -43 -64 -99 -87 -124 -46
-50 -52 -70 -28 -90 18 -15 15 -16 128 84 68 62 77 74 77 105 l0 34 -25 -23
c-38 -36 -41 -17 -5 34 25 37 30 55 28 86 l-3 40 -20 -34z"/>
<path d="M410 2066 c-66 -35 -140 -117 -140 -156 0 -48 26 -80 66 -80 42 0 48
-11 27 -48 -14 -25 -15 -32 -4 -46 18 -21 79 -21 111 0 56 37 120 110 151 170
28 57 30 67 20 93 -7 16 -26 41 -42 57 -41 40 -125 44 -189 10z m140 -52 c36
-31 35 -45 -5 -115 -41 -73 -72 -106 -86 -92 -9 9 -5 22 20 59 17 26 31 55 31
65 0 36 -20 29 -52 -17 -60 -84 -57 -82 -64 -56 -4 13 -14 22 -25 22 -30 0
-34 28 -10 77 16 33 32 49 64 63 57 27 90 25 127 -6z"/>
<path d="M3242 1722 c-67 -64 -122 -124 -122 -133 0 -35 88 -83 168 -92 l53
-6 -22 32 c-12 18 -31 42 -43 55 l-20 23 24 47 c14 26 40 68 58 94 21 30 32
57 30 72 -3 23 -14 15 -126 -92z"/>
<path d="M258 1621 c-13 -11 -37 -37 -52 -59 -21 -31 -27 -49 -24 -83 l3 -43
58 86 c70 105 77 147 15 99z"/>
<path d="M473 1545 c-12 -8 -39 -44 -62 -79 l-41 -65 -57 -3 c-77 -4 -77 -25
-1 -52 51 -18 63 -19 124 -9 57 10 73 18 108 51 59 57 136 92 136 62 0 -21
-30 -80 -69 -138 -73 -108 -61 -160 15 -61 21 28 55 70 75 92 50 58 69 98 72
154 l2 48 -42 3 c-30 2 -56 -4 -94 -23 l-52 -27 -24 31 c-27 34 -57 39 -90 16z"/>
<path d="M2533 614 c-15 -24 -18 -54 -21 -208 -2 -99 -1 -190 3 -203 5 -21 10
-23 80 -23 64 0 76 3 85 20 6 11 17 20 24 20 7 0 32 23 56 51 41 49 43 52 25
65 -10 8 -23 14 -29 14 -5 0 -43 -34 -84 -76 -49 -51 -77 -73 -84 -66 -5 5
-10 96 -11 217 -2 220 -8 244 -44 189z"/>
<path d="M1013 594 c-3 -9 2 -38 12 -63 10 -25 41 -115 69 -198 l51 -153 33 0
c17 0 32 4 32 10 0 31 -115 385 -133 408 -14 18 -57 15 -64 -4z"/>
<path d="M1405 510 c-3 -5 11 -27 33 -47 27 -27 48 -63 71 -123 62 -163 60
-160 97 -160 28 0 32 3 27 18 -3 9 -9 22 -14 27 -4 6 -17 38 -28 72 -11 33
-25 72 -30 85 -5 12 -12 35 -15 50 -3 14 -18 40 -32 57 -21 25 -34 31 -64 31
-21 0 -42 -4 -45 -10z"/>
<path d="M2374 485 c-4 -10 -1 -21 7 -26 20 -12 34 -5 34 17 0 24 -33 31 -41
9z"/>
<path d="M2319 437 c-40 -33 -93 -117 -82 -128 11 -11 136 128 127 142 -8 14
-16 11 -45 -14z"/>
</g>
</svg>
