<?xml version="1.0" standalone="no"?>
<!DOCTYPE svg PUBLIC "-//W3C//DTD SVG 20010904//EN"
 "http://www.w3.org/TR/2001/REC-SVG-20010904/DTD/svg10.dtd">
<svg version="1.0" xmlns="http://www.w3.org/2000/svg"
 width="334.000000pt" height="385.000000pt" viewBox="0 0 334.000000 385.000000"
 preserveAspectRatio="xMidYMid meet">
<metadata>
Created by potrace 1.16, written by Peter Selinger 2001-2019
</metadata>
<g transform="translate(0.000000,385.000000) scale(0.100000,-0.100000)"
fill="#000000" stroke="none">
<path d="M3090 2019 c-25 -4 -66 -11 -92 -14 -26 -3 -57 -15 -70 -25 -22 -18
-22 -20 -8 -47 20 -36 58 -41 120 -14 27 12 65 21 84 21 36 0 36 0 36 45 0 49
2 48 -70 34z"/>
<path d="M973 1880 c-128 -54 -293 -477 -269 -689 11 -95 33 -146 74 -175 44
-30 66 -32 113 -9 44 22 125 105 150 155 11 22 36 62 56 89 28 40 38 47 49 38
8 -6 14 -16 14 -22 0 -6 8 -20 19 -31 10 -12 23 -46 29 -77 32 -169 116 -232
255 -196 85 22 254 133 234 153 -3 3 -32 -10 -64 -30 -113 -69 -245 -88 -300
-42 -39 33 -51 75 -68 245 -13 123 -18 147 -38 171 -20 23 -26 47 -35 135 -12
119 -45 206 -100 258 -31 30 -84 42 -119 27z m99 -107 c13 -21 29 -51 35 -68
29 -76 43 -258 24 -309 -6 -13 -52 -80 -103 -148 -51 -68 -101 -135 -111 -150
-20 -32 -59 -45 -91 -30 -21 9 -30 34 -52 150 -11 56 59 329 111 432 35 70
117 160 145 160 10 0 28 -17 42 -37z"/>
<path d="M680 1735 c-14 -7 -45 -37 -70 -67 -25 -29 -86 -96 -136 -148 -50
-52 -105 -116 -123 -142 -18 -27 -36 -48 -41 -48 -6 0 -10 55 -10 133 0 158
-10 200 -58 244 -51 47 -62 44 -62 -22 0 -42 3 -53 14 -49 8 3 17 0 21 -6 4
-6 9 -109 12 -228 5 -196 4 -223 -14 -282 -21 -72 -22 -126 -1 -181 17 -45 36
-69 54 -69 17 0 37 47 31 70 -2 9 4 71 13 139 16 112 21 128 65 204 26 45 73
107 104 138 31 31 76 85 100 120 24 35 62 90 83 121 22 32 44 60 49 64 11 6
12 24 2 24 -5 -1 -19 -7 -33 -15z"/>
</g>
</svg>
