<?xml version="1.0" standalone="no"?>
<!DOCTYPE svg PUBLIC "-//W3C//DTD SVG 20010904//EN"
 "http://www.w3.org/TR/2001/REC-SVG-20010904/DTD/svg10.dtd">
<svg version="1.0" xmlns="http://www.w3.org/2000/svg"
 width="142.000000pt" height="88.000000pt" viewBox="0 0 142.000000 88.000000"
 preserveAspectRatio="xMidYMid meet">
<metadata>
Created by potrace 1.16, written by Peter Selinger 2001-2019
</metadata>
<g transform="translate(0.000000,88.000000) scale(0.100000,-0.100000)"
fill="#000000" stroke="none">
<path d="M180 686 c0 -8 4 -18 10 -21 5 -3 14 -24 21 -47 9 -35 7 -51 -11
-108 -12 -38 -20 -83 -18 -106 l4 -39 42 86 c49 101 55 162 22 217 -21 34 -70
47 -70 18z"/>
<path d="M775 584 c-50 -7 -138 -26 -167 -36 -36 -13 -71 -52 -66 -75 5 -24
28 -21 108 13 54 23 82 29 170 32 94 3 109 1 149 -20 58 -30 69 -62 70 -205
l1 -113 39 0 c36 0 40 3 46 31 8 35 -2 154 -17 214 -24 96 -101 151 -223 158
-44 3 -93 3 -110 1z"/>
</g>
</svg>
