<?xml version="1.0" standalone="no"?>
<!DOCTYPE svg PUBLIC "-//W3C//DTD SVG 20010904//EN"
 "http://www.w3.org/TR/2001/REC-SVG-20010904/DTD/svg10.dtd">
<svg version="1.0" xmlns="http://www.w3.org/2000/svg"
 width="272.000000pt" height="380.000000pt" viewBox="0 0 272.000000 380.000000"
 preserveAspectRatio="xMidYMid meet">
<metadata>
Created by potrace 1.16, written by Peter Selinger 2001-2019
</metadata>
<g transform="translate(0.000000,380.000000) scale(0.100000,-0.100000)"
fill="#000000" stroke="none">
<path d="M1595 3091 c-139 -50 -211 -94 -261 -159 -40 -52 -44 -91 -14 -139
29 -48 44 -43 35 13 -6 45 -5 48 37 91 39 40 171 117 236 137 27 9 30 -12 7
-47 -8 -13 -21 -43 -29 -68 -8 -24 -21 -62 -30 -85 -23 -62 -81 -354 -96 -484
-4 -36 -13 -108 -20 -160 -7 -52 -13 -117 -15 -145 -2 -27 -8 -93 -15 -145 -6
-52 -17 -186 -24 -298 -8 -116 -18 -208 -25 -215 -8 -8 -25 -7 -62 1 -62 15
-83 15 -132 1 -55 -15 -98 -57 -100 -98 -3 -53 24 -63 65 -24 18 17 43 36 55
42 39 20 109 12 205 -22 154 -56 169 -60 180 -49 13 13 -44 58 -108 86 -68 29
-76 35 -70 54 5 16 37 294 56 487 10 98 33 251 86 585 29 180 66 325 109 425
24 55 49 119 56 143 11 39 11 45 -7 61 -29 28 -64 32 -119 12z"/>
<path d="M2098 1749 c-10 -5 -27 -40 -38 -78 -11 -38 -27 -74 -35 -81 -13 -11
-17 -8 -28 19 -6 17 -14 31 -18 31 -4 0 -9 -53 -13 -117 -3 -65 -9 -159 -12
-209 -7 -99 3 -134 36 -134 27 0 32 13 41 99 4 42 10 101 14 131 11 95 67 254
90 255 16 0 31 -94 39 -245 10 -204 27 -281 74 -332 45 -49 89 -31 47 18 -38
44 -55 118 -55 236 0 121 -22 301 -43 350 -14 34 -51 68 -72 68 -5 0 -18 -5
-27 -11z"/>
<path d="M1620 1227 c0 -15 41 -37 68 -37 21 0 62 27 62 41 0 5 -29 9 -65 9
-48 0 -65 -4 -65 -13z"/>
<path d="M2520 190 c-13 -8 -12 -10 3 -10 9 0 17 5 17 10 0 12 -1 12 -20 0z"/>
</g>
</svg>
