<?xml version="1.0" standalone="no"?>
<!DOCTYPE svg PUBLIC "-//W3C//DTD SVG 20010904//EN"
 "http://www.w3.org/TR/2001/REC-SVG-20010904/DTD/svg10.dtd">
<svg version="1.0" xmlns="http://www.w3.org/2000/svg"
 width="292.000000pt" height="428.000000pt" viewBox="0 0 292.000000 428.000000"
 preserveAspectRatio="xMidYMid meet">
<metadata>
Created by potrace 1.16, written by Peter Selinger 2001-2019
</metadata>
<g transform="translate(0.000000,428.000000) scale(0.100000,-0.100000)"
fill="#000000" stroke="none">
<path d="M2608 3373 c-27 -31 -45 -76 -57 -143 -7 -36 -20 -92 -31 -125 -10
-33 -37 -127 -60 -210 -23 -82 -74 -251 -115 -375 -142 -433 -176 -549 -187
-634 -17 -129 9 -133 42 -7 11 40 30 98 44 129 56 129 180 495 252 742 15 52
48 167 74 255 27 88 54 187 61 220 10 44 22 69 46 93 18 18 33 36 33 40 0 33
-77 44 -102 15z"/>
<path d="M414 3085 c-7 -19 -14 -62 -14 -95 0 -33 -10 -104 -21 -158 -12 -53
-32 -155 -45 -227 -12 -71 -29 -164 -38 -205 -28 -145 -47 -307 -57 -490 -12
-218 -13 -224 -39 -190 l-20 25 1 -65 c0 -63 1 -66 35 -87 43 -28 46 -28 69
-3 15 16 20 55 31 237 13 211 25 328 44 443 24 148 102 557 125 655 29 128 30
143 9 173 -24 35 -62 29 -80 -13z"/>
<path d="M808 2080 c-45 -24 -87 -74 -124 -148 -23 -46 -29 -74 -32 -141 -6
-123 11 -197 56 -243 40 -42 62 -46 119 -23 44 18 82 63 102 120 7 22 18 46
24 53 21 27 55 151 62 227 8 102 -2 130 -57 155 -54 25 -103 24 -150 0z m110
-63 c6 -6 12 -66 13 -132 3 -111 2 -122 -20 -155 -12 -19 -36 -56 -52 -83 -33
-54 -74 -77 -97 -54 -8 8 -23 45 -33 83 -21 76 -18 119 14 207 37 98 139 177
175 134z"/>
<path d="M2298 1393 c-106 -109 -117 -128 -90 -156 31 -31 48 -18 117 92 6 9
27 38 48 65 36 48 44 75 22 83 -6 2 -49 -36 -97 -84z"/>
</g>
</svg>
