<?xml version="1.0" standalone="no"?>
<!DOCTYPE svg PUBLIC "-//W3C//DTD SVG 20010904//EN"
 "http://www.w3.org/TR/2001/REC-SVG-20010904/DTD/svg10.dtd">
<svg version="1.0" xmlns="http://www.w3.org/2000/svg"
 width="243.000000pt" height="376.000000pt" viewBox="0 0 243.000000 376.000000"
 preserveAspectRatio="xMidYMid meet">
<metadata>
Created by potrace 1.16, written by Peter Selinger 2001-2019
</metadata>
<g transform="translate(0.000000,376.000000) scale(0.100000,-0.100000)"
fill="#000000" stroke="none">
<path d="M423 2970 c-82 -29 -154 -64 -200 -99 -41 -30 -43 -34 -43 -83 l0
-52 48 46 c42 41 167 113 230 132 27 9 30 -12 7 -47 -8 -13 -21 -43 -29 -68
-8 -24 -21 -62 -30 -85 -23 -62 -81 -354 -96 -484 -4 -36 -13 -108 -20 -160
-7 -52 -13 -115 -15 -140 -1 -25 -10 -112 -18 -195 -9 -82 -19 -202 -22 -265
-9 -175 -13 -201 -36 -207 -16 -5 -19 -13 -17 -41 3 -34 5 -36 78 -62 133 -48
151 -53 162 -42 13 13 -44 58 -108 86 -68 29 -76 35 -70 54 5 16 37 294 56
487 10 98 33 251 86 585 29 180 66 325 109 425 24 55 49 119 56 143 11 39 11
45 -7 61 -29 28 -64 32 -121 11z"/>
<path d="M2045 2916 c-16 -7 -37 -22 -46 -32 -54 -64 -91 -292 -107 -649 l-7
-150 -105 -23 c-58 -13 -159 -40 -225 -61 -105 -34 -123 -43 -143 -72 -12 -18
-21 -37 -19 -43 6 -17 53 -19 79 -3 50 31 313 106 388 110 l24 2 1 -565 c0
-527 -1 -565 -17 -568 -10 -2 -33 8 -51 22 -67 52 -94 16 -33 -43 46 -45 120
-55 151 -21 19 21 20 37 21 409 1 212 2 470 3 573 l1 186 67 38 c50 28 85 39
145 47 l78 11 0 36 0 37 -77 -4 c-43 -3 -104 -14 -135 -25 -32 -10 -62 -16
-68 -13 -13 8 -12 155 2 280 6 55 10 116 10 135 -1 19 7 77 18 129 29 145 88
201 157 153 15 -11 43 -23 61 -26 30 -5 32 -4 32 26 0 33 -7 41 -79 89 -49 32
-80 35 -126 15z"/>
<path d="M182 2665 c0 -16 2 -22 5 -12 2 9 2 23 0 30 -3 6 -5 -1 -5 -18z"/>
<path d="M928 1629 c-10 -5 -27 -40 -38 -78 -11 -38 -27 -74 -35 -81 -13 -11
-17 -8 -28 19 -6 17 -14 31 -18 31 -4 0 -9 -53 -13 -117 -3 -65 -9 -159 -12
-209 -7 -99 3 -134 36 -134 27 0 32 13 41 99 4 42 10 101 14 131 11 95 67 254
90 255 16 0 31 -94 39 -245 10 -204 27 -281 74 -332 45 -49 89 -31 47 18 -38
44 -55 118 -55 236 0 121 -22 301 -43 350 -14 34 -51 68 -72 68 -5 0 -18 -5
-27 -11z"/>
<path d="M450 1107 c0 -15 41 -37 68 -37 21 0 62 27 62 41 0 5 -29 9 -65 9
-48 0 -65 -4 -65 -13z"/>
<path d="M1865 249 c-64 -8 -265 -56 -274 -65 -2 -2 134 -4 302 -4 299 0 307
1 307 20 0 11 -10 26 -22 34 -29 18 -219 27 -313 15z"/>
</g>
</svg>
