<?xml version="1.0" standalone="no"?>
<!DOCTYPE svg PUBLIC "-//W3C//DTD SVG 20010904//EN"
 "http://www.w3.org/TR/2001/REC-SVG-20010904/DTD/svg10.dtd">
<svg version="1.0" xmlns="http://www.w3.org/2000/svg"
 width="282.000000pt" height="376.000000pt" viewBox="0 0 282.000000 376.000000"
 preserveAspectRatio="xMidYMid meet">
<metadata>
Created by potrace 1.16, written by Peter Selinger 2001-2019
</metadata>
<g transform="translate(0.000000,376.000000) scale(0.100000,-0.100000)"
fill="#000000" stroke="none">
<path d="M1055 3573 c22 -1 139 -10 260 -18 280 -19 566 -43 676 -55 47 -6
184 -17 305 -25 120 -8 247 -18 282 -21 l62 -7 0 67 0 66 -812 -2 c-447 -1
-795 -3 -773 -5z"/>
<path d="M1785 2501 c-45 -27 -59 -47 -103 -141 -48 -104 -62 -165 -62 -278 0
-98 -5 -109 -92 -217 -53 -67 -65 -70 -99 -29 -8 10 -38 33 -68 53 -29 20 -68
46 -87 58 -18 12 -36 33 -39 45 -4 13 -13 30 -20 38 -16 20 -24 50 -35 145 -6
44 -13 91 -16 105 -3 14 1 33 9 44 13 18 18 19 58 7 53 -15 158 -121 190 -191
11 -25 25 -54 32 -65 6 -11 17 -32 24 -46 17 -34 39 -53 47 -40 3 5 -5 29 -19
53 -14 23 -25 50 -25 58 0 23 -59 160 -85 198 -49 72 -143 107 -219 82 -64
-21 -71 -42 -56 -183 10 -102 17 -133 46 -193 28 -59 42 -76 86 -106 30 -19
63 -38 74 -42 32 -10 108 -92 101 -110 -9 -23 -84 -69 -125 -75 -25 -4 -38
-12 -40 -24 -5 -25 26 -57 53 -57 24 0 87 46 122 88 12 15 31 27 43 27 18 0
23 6 25 31 2 29 63 132 107 180 l19 22 46 -44 c40 -39 50 -44 92 -44 92 0 147
67 178 216 17 85 9 120 -35 154 -41 33 -86 26 -135 -19 -30 -28 -39 -43 -31
-50 7 -8 19 -2 39 19 35 36 75 39 105 8 24 -26 25 -57 4 -123 -35 -109 -49
-130 -92 -143 -55 -17 -79 -15 -101 7 -28 28 -43 93 -43 183 1 65 7 92 38 170
39 97 95 184 126 194 11 3 38 2 61 -1 33 -6 52 -18 90 -59 27 -28 57 -68 67
-88 18 -34 44 -193 36 -221 -3 -6 -10 -93 -16 -192 -18 -268 -75 -534 -135
-624 -13 -20 -50 -56 -81 -81 -62 -49 -66 -66 -18 -64 62 2 82 14 127 73 94
126 145 333 178 736 25 302 -10 422 -156 529 -54 40 -69 46 -111 46 -30 0 -61
-7 -79 -19z"/>
<path d="M180 2161 c0 -86 33 -278 55 -322 24 -47 65 -89 87 -89 36 0 78 29
78 54 0 31 -26 54 -42 38 -7 -7 -20 -12 -31 -12 -23 0 -40 40 -62 144 -29 144
-65 256 -80 256 -3 0 -5 -31 -5 -69z"/>
<path d="M245 1628 c-23 -58 -71 -591 -63 -686 l3 -34 23 18 c28 24 38 115 58
555 5 106 4 148 -5 153 -6 4 -13 1 -16 -6z"/>
<path d="M1253 553 c-49 -77 -62 -108 -69 -165 -5 -44 -3 -56 11 -68 15 -13
19 -12 31 5 8 10 14 30 14 44 0 26 26 116 51 178 9 23 10 36 3 43 -7 7 -20 -4
-41 -37z"/>
<path d="M2415 380 c-11 -4 -31 -19 -44 -34 -21 -22 -22 -26 -7 -32 9 -3 27 1
41 10 49 32 133 14 200 -45 l35 -31 0 39 c0 45 -16 64 -73 88 -39 16 -119 19
-152 5z"/>
<path d="M755 271 c-4 -7 -4 -30 0 -51 5 -29 12 -40 25 -40 16 0 17 4 8 43
-12 48 -23 64 -33 48z"/>
<path d="M405 233 c8 -46 12 -53 31 -53 11 0 13 7 8 28 -16 67 -51 90 -39 25z"/>
</g>
</svg>
