<?xml version="1.0" standalone="no"?>
<!DOCTYPE svg PUBLIC "-//W3C//DTD SVG 20010904//EN"
 "http://www.w3.org/TR/2001/REC-SVG-20010904/DTD/svg10.dtd">
<svg version="1.0" xmlns="http://www.w3.org/2000/svg"
 width="203.000000pt" height="238.000000pt" viewBox="0 0 203.000000 238.000000"
 preserveAspectRatio="xMidYMid meet">
<metadata>
Created by potrace 1.16, written by Peter Selinger 2001-2019
</metadata>
<g transform="translate(0.000000,238.000000) scale(0.100000,-0.100000)"
fill="#000000" stroke="none">
<path d="M180 1680 c0 -44 3 -50 36 -69 20 -12 40 -34 45 -51 6 -16 15 -30 19
-30 15 0 20 51 9 93 -13 49 -40 82 -80 96 l-29 10 0 -49z"/>
<path d="M780 1673 c-24 -10 -99 -69 -119 -95 -62 -78 -91 -171 -101 -318 -14
-202 46 -418 134 -481 42 -32 92 -45 131 -35 33 8 113 91 132 136 8 19 30 49
49 65 33 29 35 33 49 150 25 203 22 253 -24 351 -47 100 -80 145 -144 196 -46
36 -73 44 -107 31z m74 -83 c45 -22 107 -98 138 -170 11 -25 22 -78 25 -118 5
-60 3 -75 -12 -92 -9 -10 -30 -68 -45 -127 -44 -169 -105 -273 -162 -273 -30
0 -75 27 -98 60 -43 61 -104 329 -85 378 3 9 9 49 12 87 3 39 11 77 19 86 8 8
14 25 14 36 0 11 9 28 20 38 11 10 20 23 20 30 0 22 73 79 109 84 3 1 23 -8
45 -19z"/>
<path d="M183 1025 c2 -27 10 -64 17 -82 12 -28 12 -34 -4 -51 -12 -15 -16
-33 -14 -68 l3 -47 48 57 c65 80 64 111 -4 186 l-50 55 4 -50z"/>
</g>
</svg>
