<?xml version="1.0" standalone="no"?>
<!DOCTYPE svg PUBLIC "-//W3C//DTD SVG 20010904//EN"
 "http://www.w3.org/TR/2001/REC-SVG-20010904/DTD/svg10.dtd">
<svg version="1.0" xmlns="http://www.w3.org/2000/svg"
 width="218.000000pt" height="376.000000pt" viewBox="0 0 218.000000 376.000000"
 preserveAspectRatio="xMidYMid meet">
<metadata>
Created by potrace 1.16, written by Peter Selinger 2001-2019
</metadata>
<g transform="translate(0.000000,376.000000) scale(0.100000,-0.100000)"
fill="#000000" stroke="none">
<path d="M397 2343 c-9 -15 -17 -70 -22 -158 -7 -111 -23 -296 -31 -350 -16
-112 -68 -366 -85 -413 -26 -72 -57 -132 -69 -132 -6 0 -10 -37 -10 -87 l1
-88 30 35 c16 19 36 55 43 80 7 25 21 63 31 85 24 56 62 218 85 360 11 66 20
123 20 128 0 4 4 7 8 7 5 0 14 -64 21 -142 28 -332 75 -558 115 -558 22 0 25
11 15 60 -4 25 -18 131 -29 235 -11 105 -25 217 -31 250 -5 33 -12 170 -15
305 -6 305 -9 341 -23 368 -11 21 -45 30 -54 15z"/>
<path d="M973 2175 c-12 -33 16 -289 40 -358 26 -77 62 -122 73 -94 3 9 -1 54
-10 100 -9 45 -18 138 -21 207 -5 111 -8 127 -26 143 -26 21 -48 22 -56 2z"/>
<path d="M1642 1924 c-44 -23 -127 -117 -157 -179 -14 -27 -36 -88 -50 -134
-73 -247 32 -501 207 -501 49 0 83 18 129 67 81 87 72 103 -21 38 -87 -61
-127 -62 -182 -5 -43 46 -61 84 -77 162 -25 118 36 316 130 421 46 52 54 57
92 57 36 0 50 -7 102 -53 120 -105 153 -110 111 -15 -17 39 -41 70 -81 104
-51 43 -62 48 -113 51 -39 3 -67 -2 -90 -13z"/>
<path d="M945 1789 c-13 -24 -19 -28 -30 -19 -19 16 -32 7 -130 -89 -57 -55
-85 -90 -85 -105 0 -23 37 -66 57 -66 12 0 83 99 83 116 0 15 27 37 33 27 3
-4 -6 -55 -18 -113 -26 -116 -31 -231 -13 -292 17 -56 66 -88 135 -88 46 0 58
4 91 35 30 27 43 49 56 99 10 35 16 75 14 87 -5 40 -31 27 -53 -28 -46 -114
-56 -97 -60 100 -6 320 -32 430 -80 336z m8 -326 c5 -70 3 -91 -8 -103 -25
-24 -38 1 -31 62 3 29 6 64 6 78 1 32 7 50 18 50 5 0 12 -39 15 -87z"/>
</g>
</svg>
