<?xml version="1.0" standalone="no"?>
<!DOCTYPE svg PUBLIC "-//W3C//DTD SVG 20010904//EN"
 "http://www.w3.org/TR/2001/REC-SVG-20010904/DTD/svg10.dtd">
<svg version="1.0" xmlns="http://www.w3.org/2000/svg"
 width="242.000000pt" height="376.000000pt" viewBox="0 0 242.000000 376.000000"
 preserveAspectRatio="xMidYMid meet">
<metadata>
Created by potrace 1.16, written by Peter Selinger 2001-2019
</metadata>
<g transform="translate(0.000000,376.000000) scale(0.100000,-0.100000)"
fill="#000000" stroke="none">
<path d="M570 2779 c-55 -22 -79 -63 -106 -176 -21 -90 -43 -305 -51 -491 -3
-89 -9 -164 -12 -167 -4 -2 -55 -14 -114 -27 l-107 -23 0 -42 c0 -24 2 -43 4
-43 3 0 42 9 88 21 46 12 94 22 108 23 l24 1 1 -565 c0 -527 -1 -565 -17 -568
-10 -2 -33 8 -51 22 -67 52 -94 16 -33 -43 46 -45 120 -55 151 -21 19 21 20
38 22 587 1 310 3 570 6 576 2 7 38 29 78 50 69 35 83 38 194 46 l120 8 58
-34 c32 -18 63 -31 68 -28 29 18 -12 60 -101 106 -40 20 -58 22 -164 21 -92
-1 -131 -6 -177 -22 -32 -12 -63 -18 -69 -15 -13 8 -12 155 2 280 6 55 10 116
10 135 -1 19 7 77 18 129 29 145 88 202 157 152 15 -11 46 -21 68 -23 34 -3
40 0 43 18 2 15 -11 32 -50 61 -86 66 -112 74 -168 52z"/>
<path d="M826 2543 c8 -34 19 -47 33 -39 6 4 4 17 -7 36 -21 37 -34 39 -26 3z"/>
<path d="M1853 1960 c-128 -54 -293 -477 -269 -689 11 -95 33 -146 74 -175 44
-30 66 -32 113 -9 44 22 125 105 150 155 11 22 36 62 56 89 28 40 38 47 49 38
8 -6 14 -16 14 -22 0 -6 8 -20 19 -31 10 -12 23 -46 29 -77 21 -107 82 -199
133 -199 31 0 25 56 -9 85 -38 32 -50 75 -67 244 -13 123 -18 147 -38 171 -20
23 -26 47 -35 135 -12 119 -45 206 -100 258 -31 30 -84 42 -119 27z m99 -107
c13 -21 29 -51 35 -68 29 -76 43 -258 24 -309 -6 -13 -52 -80 -103 -148 -51
-68 -101 -135 -111 -150 -20 -32 -59 -45 -91 -30 -21 9 -30 34 -52 150 -11 56
59 329 111 432 35 70 117 160 145 160 10 0 28 -17 42 -37z"/>
<path d="M1560 1815 c-14 -7 -45 -37 -70 -67 -25 -29 -86 -96 -136 -148 -50
-52 -105 -116 -123 -142 -18 -27 -36 -48 -41 -48 -6 0 -10 55 -10 133 0 158
-10 200 -58 244 -51 46 -100 42 -70 -7 10 -16 10 -24 1 -40 -14 -21 -3 -33 20
-24 8 3 18 0 22 -6 4 -6 9 -109 12 -228 5 -196 4 -223 -14 -282 -21 -72 -22
-126 -1 -181 17 -45 36 -69 54 -69 17 0 37 47 31 70 -2 9 4 71 13 139 16 112
21 128 65 204 26 45 73 107 104 138 31 31 76 85 100 120 24 35 62 90 83 121
22 32 44 60 49 64 11 6 12 24 2 24 -5 -1 -19 -7 -33 -15z"/>
</g>
</svg>
