<?xml version="1.0" standalone="no"?>
<!DOCTYPE svg PUBLIC "-//W3C//DTD SVG 20010904//EN"
 "http://www.w3.org/TR/2001/REC-SVG-20010904/DTD/svg10.dtd">
<svg version="1.0" xmlns="http://www.w3.org/2000/svg"
 width="272.000000pt" height="379.000000pt" viewBox="0 0 272.000000 379.000000"
 preserveAspectRatio="xMidYMid meet">
<metadata>
Created by potrace 1.16, written by Peter Selinger 2001-2019
</metadata>
<g transform="translate(0.000000,379.000000) scale(0.100000,-0.100000)"
fill="#000000" stroke="none">
<path d="M2106 2871 c-4 -5 -2 -40 4 -78 5 -37 10 -107 10 -154 0 -70 -3 -89
-17 -101 -19 -15 -68 -38 -83 -38 -9 0 -24 36 -25 60 0 10 -10 15 -30 15 -44
0 -44 -28 -1 -55 20 -12 36 -26 36 -30 0 -5 -11 -26 -25 -46 -45 -66 -8 -73
78 -14 32 22 62 38 66 36 13 -9 31 -145 34 -256 l2 -105 -63 -6 c-49 -5 -71
-12 -100 -36 -20 -16 -59 -46 -87 -67 -98 -74 -125 -124 -85 -161 18 -17 21
-17 45 -1 27 18 32 35 13 54 -17 17 1 33 107 87 57 30 104 47 130 48 l40 2 -1
-210 c-1 -127 -6 -228 -14 -255 -23 -87 -23 -99 -5 -107 13 -4 25 2 40 21 29
36 36 99 49 436 l7 165 35 32 c35 31 95 50 140 45 20 -2 27 8 32 43 5 37 -142
14 -188 -30 -16 -15 -30 -22 -34 -17 -3 6 -7 82 -9 169 -3 193 1 201 94 227
59 17 63 17 95 0 27 -15 37 -16 59 -6 l26 12 -27 36 c-27 34 -30 35 -78 31
-28 -3 -78 -12 -111 -21 -33 -8 -64 -11 -68 -7 -5 5 -11 28 -13 52 -11 109
-28 196 -41 217 -14 23 -28 28 -37 13z"/>
<path d="M1560 2439 c-6 -11 -10 -24 -8 -30 4 -13 48 19 48 37 0 21 -28 17
-40 -7z"/>
<path d="M1413 2420 c-12 -5 -24 -18 -28 -29 -3 -12 -10 -21 -15 -21 -5 0 -15
-3 -24 -6 -12 -4 -16 0 -16 15 0 30 -28 27 -40 -4 -12 -33 -36 -42 -58 -22
-16 15 -27 15 -122 1 -123 -19 -144 -28 -217 -99 l-56 -54 5 -60 c4 -55 9 -66
64 -136 32 -42 76 -105 97 -141 22 -35 54 -76 73 -90 23 -18 34 -35 34 -52 0
-14 18 -57 41 -96 49 -85 58 -126 35 -161 -38 -58 -271 -175 -348 -175 -11 0
-23 11 -28 26 -12 32 -34 27 -38 -9 -5 -39 29 -67 81 -67 52 0 181 44 276 94
114 60 151 120 137 222 -7 56 -32 105 -94 186 -27 35 -52 79 -56 99 -5 26 -29
59 -97 129 -102 105 -118 138 -91 183 35 60 191 121 245 96 12 -5 37 -21 56
-34 l35 -25 33 32 c18 17 33 36 33 42 0 5 9 20 21 32 11 12 22 30 23 40 4 27
30 24 34 -3 4 -28 13 -29 43 -3 20 16 21 19 7 20 -20 0 -24 20 -8 36 17 17
-11 44 -37 34z"/>
<path d="M2531 2204 c0 -11 3 -14 6 -6 3 7 2 16 -1 19 -3 4 -6 -2 -5 -13z"/>
<path d="M2475 1854 c-81 -61 -135 -115 -135 -135 0 -9 12 -29 26 -44 24 -26
29 -27 85 -21 33 3 59 2 59 -3 0 -5 -33 -34 -74 -65 -112 -85 -145 -152 -81
-167 85 -19 113 -28 148 -43 l38 -17 -3 33 c-3 33 -4 33 -63 38 -33 3 -66 9
-72 13 -18 12 -16 37 4 44 9 4 43 33 75 66 58 59 58 60 58 119 0 57 -1 59 -22
52 -35 -12 -91 -10 -95 3 -2 6 8 18 24 26 42 22 95 93 91 122 -3 23 -4 23 -63
-21z"/>
</g>
</svg>
