<?xml version="1.0" standalone="no"?>
<!DOCTYPE svg PUBLIC "-//W3C//DTD SVG 20010904//EN"
 "http://www.w3.org/TR/2001/REC-SVG-20010904/DTD/svg10.dtd">
<svg version="1.0" xmlns="http://www.w3.org/2000/svg"
 width="135.000000pt" height="259.000000pt" viewBox="0 0 135.000000 259.000000"
 preserveAspectRatio="xMidYMid meet">
<metadata>
Created by potrace 1.16, written by Peter Selinger 2001-2019
</metadata>
<g transform="translate(0.000000,259.000000) scale(0.100000,-0.100000)"
fill="#000000" stroke="none">
<path d="M570 1826 c0 -8 -22 -34 -50 -58 -49 -43 -89 -98 -136 -187 -29 -54
-30 -67 -3 -81 28 -16 41 -3 86 88 20 43 47 91 59 107 12 17 25 47 29 67 4 21
13 42 21 49 16 13 18 29 4 29 -5 0 -10 -6 -10 -14z"/>
<path d="M780 1698 c0 -12 -6 -29 -14 -37 -24 -27 -66 -130 -55 -137 13 -8 32
9 74 66 36 49 42 77 25 111 -14 25 -30 24 -30 -3z"/>
<path d="M1145 374 c-9 -92 -29 -119 -117 -163 l-61 -31 62 0 c48 0 70 5 101
25 l40 25 0 110 c0 61 -4 110 -9 110 -5 0 -12 -34 -16 -76z"/>
</g>
</svg>
