<?xml version="1.0" standalone="no"?>
<!DOCTYPE svg PUBLIC "-//W3C//DTD SVG 20010904//EN"
 "http://www.w3.org/TR/2001/REC-SVG-20010904/DTD/svg10.dtd">
<svg version="1.0" xmlns="http://www.w3.org/2000/svg"
 width="225.000000pt" height="364.000000pt" viewBox="0 0 225.000000 364.000000"
 preserveAspectRatio="xMidYMid meet">
<metadata>
Created by potrace 1.16, written by Peter Selinger 2001-2019
</metadata>
<g transform="translate(0.000000,364.000000) scale(0.100000,-0.100000)"
fill="#000000" stroke="none">
<path d="M2056 2688 c-8 -31 -6 -113 3 -168 7 -35 9 -20 10 73 0 64 -1 117 -3
117 -2 0 -6 -10 -10 -22z"/>
<path d="M2050 2160 c-8 -5 -51 -21 -95 -36 -97 -32 -197 -78 -218 -102 -21
-24 -31 -68 -17 -77 6 -4 21 2 33 13 31 28 108 64 220 103 l97 33 0 38 c0 21
-1 38 -2 38 -2 0 -10 -5 -18 -10z"/>
<path d="M2029 1921 c-100 -130 -202 -321 -219 -411 -9 -50 4 -146 28 -210 23
-58 107 -110 180 -110 l52 0 0 33 c0 31 -2 33 -32 30 -73 -8 -118 50 -145 186
l-15 77 31 79 c18 44 49 109 70 145 86 146 92 160 89 194 l-3 33 -36 -46z"/>
<path d="M702 1427 c-68 -14 -69 -39 -2 -47 25 -3 54 -11 66 -17 44 -25 109
-42 118 -33 6 6 20 10 33 10 23 0 48 33 38 50 -3 6 -19 10 -34 10 -16 0 -57 9
-91 20 -34 11 -65 19 -69 18 -3 0 -30 -6 -59 -11z"/>
</g>
</svg>
