<?xml version="1.0" standalone="no"?>
<!DOCTYPE svg PUBLIC "-//W3C//DTD SVG 20010904//EN"
 "http://www.w3.org/TR/2001/REC-SVG-20010904/DTD/svg10.dtd">
<svg version="1.0" xmlns="http://www.w3.org/2000/svg"
 width="199.000000pt" height="385.000000pt" viewBox="0 0 199.000000 385.000000"
 preserveAspectRatio="xMidYMid meet">
<metadata>
Created by potrace 1.16, written by Peter Selinger 2001-2019
</metadata>
<g transform="translate(0.000000,385.000000) scale(0.100000,-0.100000)"
fill="#000000" stroke="none">
<path d="M1607 3618 c-3 -29 -4 -69 -4 -88 1 -19 -2 -222 -7 -450 -7 -401 -14
-578 -35 -970 -27 -475 -32 -593 -37 -927 -3 -197 -9 -396 -13 -443 -9 -96
-42 -178 -79 -196 -12 -6 -33 -20 -45 -31 -12 -11 -34 -27 -48 -36 -15 -9 -53
-40 -85 -69 -33 -30 -84 -71 -114 -91 -30 -20 -68 -48 -85 -63 l-30 -26 35 6
c37 7 144 58 173 84 9 8 17 25 17 38 0 27 17 41 32 26 7 -7 22 2 48 29 20 21
42 39 48 39 18 0 15 -108 -5 -163 -20 -54 -44 -72 -128 -92 -43 -11 -8 -13
257 -14 l308 -1 0 1745 0 1745 -99 0 -100 0 -4 -52z"/>
<path d="M180 2273 c0 -35 3 -44 10 -33 13 20 13 67 0 75 -6 4 -10 -12 -10
-42z"/>
<path d="M921 1719 c-119 -35 -192 -156 -142 -237 48 -76 144 -95 206 -41 19
17 35 35 35 40 0 16 -26 10 -45 -11 -26 -29 -86 -27 -123 5 -41 34 -49 75 -24
123 38 74 122 104 175 62 28 -22 44 -12 28 18 -11 20 -54 53 -68 51 -4 0 -23
-5 -42 -10z"/>
<path d="M530 1330 c-15 -28 21 -97 55 -106 28 -7 55 10 55 33 0 15 -77 92
-92 93 -4 0 -12 -9 -18 -20z"/>
<path d="M1128 183 c12 -2 32 -2 45 0 12 2 2 4 -23 4 -25 0 -35 -2 -22 -4z"/>
</g>
</svg>
