<?xml version="1.0" standalone="no"?>
<!DOCTYPE svg PUBLIC "-//W3C//DTD SVG 20010904//EN"
 "http://www.w3.org/TR/2001/REC-SVG-20010904/DTD/svg10.dtd">
<svg version="1.0" xmlns="http://www.w3.org/2000/svg"
 width="189.000000pt" height="376.000000pt" viewBox="0 0 189.000000 376.000000"
 preserveAspectRatio="xMidYMid meet">
<metadata>
Created by potrace 1.16, written by Peter Selinger 2001-2019
</metadata>
<g transform="translate(0.000000,376.000000) scale(0.100000,-0.100000)"
fill="#000000" stroke="none">
<path d="M576 2698 c-9 -12 -16 -29 -16 -36 0 -8 -11 -36 -24 -62 -22 -43 -24
-57 -18 -117 l7 -68 34 0 34 0 2 125 c1 69 6 137 10 153 9 33 -7 36 -29 5z"/>
<path d="M1590 2591 c-29 -8 -24 -12 50 -40 70 -27 70 -27 70 8 0 21 -6 30
-22 35 -28 7 -65 6 -98 -3z"/>
<path d="M1696 2239 c-8 -44 -6 -140 4 -164 6 -13 9 18 9 88 1 59 -1 107 -3
107 -2 0 -6 -14 -10 -31z"/>
<path d="M1023 2108 c-86 -132 -123 -246 -123 -379 0 -114 17 -173 61 -219 50
-51 86 -57 202 -33 l92 19 3 37 c4 43 -9 47 -56 20 -60 -35 -92 6 -92 119 0
47 48 181 110 303 50 100 49 135 -1 74 -30 -37 -126 -208 -153 -274 -17 -41
-24 -164 -12 -203 12 -38 -4 -46 -35 -16 -41 39 -53 85 -53 204 0 120 14 178
75 307 21 45 39 87 39 93 0 23 -19 6 -57 -52z"/>
<path d="M1702 1050 c0 -14 2 -19 5 -12 2 6 2 18 0 25 -3 6 -5 1 -5 -13z"/>
</g>
</svg>
