<?xml version="1.0" standalone="no"?>
<!DOCTYPE svg PUBLIC "-//W3C//DTD SVG 20010904//EN"
 "http://www.w3.org/TR/2001/REC-SVG-20010904/DTD/svg10.dtd">
<svg version="1.0" xmlns="http://www.w3.org/2000/svg"
 width="292.000000pt" height="373.000000pt" viewBox="0 0 292.000000 373.000000"
 preserveAspectRatio="xMidYMid meet">
<metadata>
Created by potrace 1.16, written by Peter Selinger 2001-2019
</metadata>
<g transform="translate(0.000000,373.000000) scale(0.100000,-0.100000)"
fill="#000000" stroke="none">
<path d="M1034 2727 c-7 -20 69 -188 123 -270 44 -67 91 -104 119 -93 8 3 14
10 14 15 0 12 -35 69 -80 129 -20 26 -46 66 -58 89 -56 109 -105 163 -118 130z"/>
<path d="M1592 2663 c-6 -32 -18 -98 -26 -148 -9 -49 -25 -130 -36 -180 -12
-49 -28 -128 -35 -175 -30 -180 -38 -225 -45 -235 -6 -9 -20 -112 -36 -272 -7
-72 7 -113 32 -92 30 24 42 66 54 184 6 66 20 165 30 220 45 243 64 357 74
459 9 87 15 111 29 120 15 9 22 6 43 -19 33 -41 79 -163 101 -265 21 -100 24
-362 5 -555 -6 -66 -16 -181 -23 -255 -8 -90 -18 -153 -33 -189 l-21 -53 24
-20 c32 -26 63 -19 80 16 8 17 18 82 22 145 5 64 13 161 18 216 19 195 25 477
11 581 -24 189 -63 313 -132 417 -33 48 -43 57 -68 57 -27 0 -30 3 -30 34 0
82 -23 87 -38 9z"/>
<path d="M2529 2693 c-10 -27 -5 -95 21 -258 5 -33 17 -118 26 -190 9 -71 22
-179 30 -240 23 -176 36 -347 30 -391 -6 -45 6 -64 40 -64 31 0 61 47 45 72
-6 10 -11 44 -11 76 0 31 -14 163 -31 292 -16 129 -35 270 -40 313 -5 43 -18
130 -28 194 -23 144 -15 151 70 67 l59 -58 0 47 c0 40 -5 53 -36 87 -36 40
-109 80 -146 80 -11 0 -23 -11 -29 -27z"/>
<path d="M296 2401 c-4 -6 -11 -48 -16 -94 -5 -45 -16 -127 -24 -182 -48 -314
-61 -445 -61 -610 0 -150 2 -175 20 -209 23 -46 49 -66 65 -50 7 7 6 39 -5
105 -19 118 -19 263 -1 427 42 371 56 596 38 614 -6 6 -12 6 -16 -1z"/>
<path d="M447 1963 c-2 -5 -3 -98 -2 -208 2 -183 5 -206 26 -264 25 -68 50
-94 70 -74 8 8 6 29 -6 81 -18 72 -17 103 5 180 12 39 11 45 -9 66 -16 17 -24
45 -32 112 -7 49 -16 95 -22 102 -11 14 -24 16 -30 5z"/>
<path d="M1583 1849 c-15 -20 -25 -57 -18 -69 4 -7 14 -6 28 2 12 6 37 12 56
12 38 1 63 28 44 47 -18 18 -97 23 -110 8z"/>
<path d="M2507 1362 c-20 -21 -37 -45 -37 -54 0 -45 81 -59 206 -36 l64 11 0
39 c0 22 -3 37 -8 34 -13 -8 -164 -26 -173 -21 -5 4 -2 16 6 29 15 23 11 36
-10 36 -6 0 -28 -17 -48 -38z"/>
</g>
</svg>
