<?xml version="1.0" standalone="no"?>
<!DOCTYPE svg PUBLIC "-//W3C//DTD SVG 20010904//EN"
 "http://www.w3.org/TR/2001/REC-SVG-20010904/DTD/svg10.dtd">
<svg version="1.0" xmlns="http://www.w3.org/2000/svg"
 width="209.000000pt" height="251.000000pt" viewBox="0 0 209.000000 251.000000"
 preserveAspectRatio="xMidYMid meet">
<metadata>
Created by potrace 1.16, written by Peter Selinger 2001-2019
</metadata>
<g transform="translate(0.000000,251.000000) scale(0.100000,-0.100000)"
fill="#000000" stroke="none">
<path d="M763 1455 c-29 -8 -69 -22 -90 -31 -21 -9 -74 -20 -117 -23 -86 -7
-112 -23 -90 -58 25 -40 53 -38 185 15 126 50 212 72 222 55 3 -5 -10 -29 -29
-52 -19 -24 -34 -48 -34 -53 0 -4 -9 -28 -20 -53 -11 -25 -29 -66 -41 -91 -33
-74 -59 -193 -59 -271 0 -40 7 -148 15 -242 9 -93 15 -200 13 -238 l-3 -68
-65 0 c-36 0 -71 -4 -77 -8 -37 -24 4 -50 126 -79 82 -19 86 -7 81 212 -4 133
-6 169 -20 252 -19 116 -9 310 18 370 12 26 22 51 22 55 1 4 9 26 20 48 11 22
19 45 20 50 0 6 23 50 50 99 47 84 49 90 33 108 -20 22 -84 23 -160 3z"/>
<path d="M1832 208 c-21 -21 -13 -28 36 -28 l47 0 -25 20 c-29 23 -41 25 -58
8z"/>
</g>
</svg>
