<?xml version="1.0" standalone="no"?>
<!DOCTYPE svg PUBLIC "-//W3C//DTD SVG 20010904//EN"
 "http://www.w3.org/TR/2001/REC-SVG-20010904/DTD/svg10.dtd">
<svg version="1.0" xmlns="http://www.w3.org/2000/svg"
 width="292.000000pt" height="342.000000pt" viewBox="0 0 292.000000 342.000000"
 preserveAspectRatio="xMidYMid meet">
<metadata>
Created by potrace 1.16, written by Peter Selinger 2001-2019
</metadata>
<g transform="translate(0.000000,342.000000) scale(0.100000,-0.100000)"
fill="#000000" stroke="none">
<path d="M1114 2612 c-23 -19 -42 -54 -68 -126 -20 -54 -58 -148 -85 -210 -26
-61 -67 -172 -90 -246 -23 -74 -58 -180 -77 -235 -44 -129 -63 -204 -53 -210
10 -7 10 -6 59 105 47 107 140 364 140 387 0 8 22 60 48 116 64 135 79 170
108 246 13 35 38 88 55 118 25 43 29 57 19 68 -16 20 -20 19 -56 -13z"/>
<path d="M2164 2113 c-24 -57 -16 -275 11 -323 17 -28 28 -36 57 -38 44 -4 91
19 114 53 12 19 25 25 50 25 24 0 37 6 41 18 8 20 55 84 97 130 23 25 27 35
18 44 -9 9 -23 0 -62 -41 -39 -41 -50 -49 -50 -33 0 11 -6 25 -14 31 -23 20
-56 -4 -56 -39 0 -42 -17 -81 -53 -117 -38 -40 -69 -42 -97 -5 -21 25 -22 34
-16 127 3 55 9 124 12 153 6 49 5 52 -15 52 -16 0 -26 -10 -37 -37z"/>
<path d="M1500 2122 c-55 -37 -122 -92 -146 -122 l-27 -31 23 -24 c28 -30 40
-32 40 -7 0 10 31 49 70 86 73 71 103 81 108 36 6 -54 52 -277 63 -309 11 -32
10 -36 -11 -50 -13 -9 -56 -47 -97 -86 -131 -123 -166 -241 -99 -330 34 -44
73 -64 136 -72 58 -7 89 10 164 86 48 49 49 50 49 118 1 59 -4 79 -36 147 -20
43 -37 87 -37 97 0 10 11 27 25 38 33 25 219 121 237 121 16 0 65 37 58 43 -8
7 -201 -58 -259 -87 -29 -15 -59 -25 -66 -22 -12 4 -43 124 -76 295 -11 58
-15 65 -45 77 -41 17 -43 17 -74 -4z m166 -528 c7 -21 21 -61 33 -87 37 -86
23 -151 -43 -202 -47 -36 -96 -42 -136 -19 -56 33 -75 113 -43 182 32 69 139
176 168 168 5 -1 15 -20 21 -42z"/>
<path d="M2733 1990 c0 -25 2 -35 4 -22 2 12 2 32 0 45 -2 12 -4 2 -4 -23z"/>
<path d="M2645 1940 c-15 -16 -16 -31 -11 -97 6 -71 4 -85 -23 -161 -33 -88
-94 -217 -115 -242 -27 -32 -57 -94 -52 -106 8 -20 55 -17 62 4 4 9 26 58 49
107 24 50 53 124 65 165 32 105 34 105 51 14 6 -32 23 -79 37 -104 l27 -45 3
57 c2 35 -2 68 -11 85 -20 38 -35 120 -42 235 -4 54 -10 100 -15 103 -4 2 -15
-4 -25 -15z"/>
<path d="M923 1805 c-7 -21 3 -85 26 -160 99 -320 128 -393 174 -443 32 -34
40 -11 13 39 -13 24 -31 69 -40 99 -38 130 -88 319 -96 361 -9 49 -46 119 -61
119 -5 0 -12 -7 -16 -15z"/>
<path d="M180 1550 c0 -24 29 -33 90 -28 61 4 63 25 3 33 -26 3 -58 8 -70 11
-18 3 -23 0 -23 -16z"/>
</g>
</svg>
