<?xml version="1.0" standalone="no"?>
<!DOCTYPE svg PUBLIC "-//W3C//DTD SVG 20010904//EN"
 "http://www.w3.org/TR/2001/REC-SVG-20010904/DTD/svg10.dtd">
<svg version="1.0" xmlns="http://www.w3.org/2000/svg"
 width="225.000000pt" height="389.000000pt" viewBox="0 0 225.000000 389.000000"
 preserveAspectRatio="xMidYMid meet">
<metadata>
Created by potrace 1.16, written by Peter Selinger 2001-2019
</metadata>
<g transform="translate(0.000000,389.000000) scale(0.100000,-0.100000)"
fill="#000000" stroke="none">
<path d="M1340 3685 c0 -19 -8 -28 -34 -39 -57 -24 -82 -93 -102 -276 -5 -48
16 -105 48 -124 20 -12 58 17 58 44 0 10 9 38 20 63 11 25 25 72 31 104 12 62
24 93 39 93 4 0 42 -42 83 -92 91 -114 205 -222 279 -266 78 -47 179 -62 254
-38 45 14 54 21 54 41 0 23 0 23 -41 7 -61 -24 -164 -6 -244 41 -67 39 -187
153 -244 231 -21 28 -64 78 -95 111 -52 54 -57 62 -51 92 6 31 4 33 -25 33
-25 0 -30 -4 -30 -25z m-29 -216 c-23 -117 -27 -129 -41 -129 -15 0 -21 54
-14 128 5 58 12 80 32 103 42 50 48 24 23 -102z"/>
<path d="M1798 3698 c35 -35 -7 -141 -69 -173 -16 -9 -27 -20 -24 -25 11 -18
57 -10 87 15 17 14 36 24 42 22 6 -2 16 -37 21 -78 10 -69 12 -74 35 -74 23 0
25 4 28 50 2 28 7 54 11 58 4 4 34 -22 65 -58 32 -36 62 -65 67 -65 5 0 9 13
9 30 0 21 -18 51 -66 111 -51 63 -64 86 -59 103 27 85 17 96 -83 96 -59 0 -73
-3 -64 -12z"/>
<path d="M1224 2419 c-3 -6 -3 -40 1 -76 6 -54 4 -68 -11 -84 -17 -19 -17 -22
5 -63 28 -51 22 -66 -24 -66 -31 0 -37 -5 -60 -49 -41 -82 -67 -188 -70 -291
-3 -92 -4 -95 -34 -121 -34 -28 -36 -36 -19 -74 9 -20 18 -26 35 -22 29 5 36
-5 52 -71 24 -98 86 -247 136 -326 104 -164 251 -256 390 -244 52 4 45 20 -15
34 -26 6 -82 27 -125 47 -110 53 -188 133 -248 258 -26 53 -47 100 -47 104 0
5 -11 37 -25 71 -31 78 -41 165 -26 222 9 32 22 50 52 70 22 15 56 40 76 55
72 54 76 43 93 -248 12 -187 20 -232 42 -219 10 7 7 202 -8 432 -5 64 -3 96 5
106 7 8 45 22 85 32 71 16 75 16 111 -2 65 -32 80 -63 80 -157 -1 -84 -20
-142 -50 -153 -17 -7 -97 58 -116 92 -15 29 -39 31 -39 4 0 -33 36 -94 75
-128 88 -78 175 -11 191 147 21 196 -113 307 -295 246 -64 -22 -85 -13 -89 36
-2 19 -12 61 -22 94 -11 33 -24 105 -30 160 -14 148 -21 176 -47 186 -14 5
-25 4 -29 -2z m36 -370 c0 -27 -7 -66 -15 -86 -19 -44 -12 -53 25 -31 32 18
40 15 40 -18 0 -17 -14 -31 -57 -55 -32 -18 -74 -48 -95 -67 -21 -19 -39 -30
-39 -26 -9 64 17 188 58 268 17 34 64 77 75 69 5 -2 8 -27 8 -54z"/>
<path d="M180 2096 c0 -8 7 -43 16 -77 20 -77 22 -215 5 -247 -17 -32 -4 -42
19 -15 35 44 34 227 -3 316 -16 37 -37 50 -37 23z"/>
<path d="M943 2038 c-46 -71 -192 -434 -193 -478 0 -14 -9 -59 -20 -99 -13
-50 -17 -78 -10 -85 6 -6 16 4 27 32 10 23 21 42 26 42 4 0 7 -86 7 -191 0
-198 12 -282 47 -336 19 -28 41 -16 25 13 -20 38 -29 163 -26 349 4 241 10
264 85 337 33 32 59 62 59 67 0 20 -31 33 -65 27 -28 -6 -35 -4 -35 8 0 32 81
189 120 233 45 51 49 74 20 103 -28 28 -36 26 -67 -22z"/>
<path d="M1940 1820 c-57 -62 -101 -196 -70 -215 19 -11 10 -34 -17 -47 -21
-10 -29 -22 -31 -47 -7 -70 31 -118 117 -144 91 -29 131 -21 131 24 0 26 -2
28 -19 19 -43 -23 -102 -10 -148 33 -28 25 -29 50 -2 93 16 27 27 34 52 34 18
0 51 9 75 20 36 17 42 23 42 51 0 21 -4 30 -12 27 -112 -40 -118 -42 -130 -30
-10 10 -7 22 12 58 26 48 62 74 105 74 22 0 25 4 25 33 0 26 -6 36 -25 45 -44
20 -66 14 -105 -28z"/>
<path d="M181 1470 c1 -167 1 -173 16 -140 21 46 38 185 29 232 -4 20 -15 47
-26 60 -19 23 -19 22 -19 -152z"/>
<path d="M180 1232 c0 -21 47 -67 154 -151 78 -60 106 -73 106 -48 0 16 -233
216 -252 217 -5 0 -8 -8 -8 -18z"/>
</g>
</svg>
