<?xml version="1.0" standalone="no"?>
<!DOCTYPE svg PUBLIC "-//W3C//DTD SVG 20010904//EN"
 "http://www.w3.org/TR/2001/REC-SVG-20010904/DTD/svg10.dtd">
<svg version="1.0" xmlns="http://www.w3.org/2000/svg"
 width="259.000000pt" height="385.000000pt" viewBox="0 0 259.000000 385.000000"
 preserveAspectRatio="xMidYMid meet">
<metadata>
Created by potrace 1.16, written by Peter Selinger 2001-2019
</metadata>
<g transform="translate(0.000000,385.000000) scale(0.100000,-0.100000)"
fill="#000000" stroke="none">
<path d="M1191 2554 c-24 -20 -38 -49 -65 -132 -19 -59 -39 -143 -45 -187 -6
-44 -15 -83 -19 -86 -4 -4 -25 -12 -46 -18 -46 -12 -66 -2 -66 35 0 29 -11 31
-33 6 -45 -50 -7 -81 106 -85 76 -3 87 -2 87 13 0 19 22 41 65 63 37 20 135
111 135 126 0 14 -63 -23 -123 -72 -68 -56 -76 -43 -47 75 21 88 74 240 93
265 17 24 -12 22 -42 -3z"/>
<path d="M1379 2333 c-14 -16 -31 -40 -38 -55 -7 -14 -57 -75 -110 -135 -92
-103 -100 -109 -176 -139 -183 -73 -239 -112 -199 -141 45 -33 149 -4 224 63
54 47 232 120 320 131 49 6 50 5 50 -21 0 -15 -5 -36 -11 -48 -6 -11 -8 -22
-5 -26 9 -9 34 29 48 72 11 36 10 40 -11 57 -28 23 -92 25 -151 4 -99 -35 -93
-13 26 105 93 92 130 141 117 154 -16 16 -61 4 -84 -21z"/>
<path d="M2398 2325 c-4 -22 -13 -91 -19 -153 -14 -136 -15 -137 -144 -148
-54 -4 -104 -14 -125 -25 -19 -10 -48 -23 -63 -28 -42 -16 -23 -31 20 -16 24
8 83 12 158 11 113 -1 120 -2 118 -21 -1 -11 -9 -65 -17 -120 -31 -208 -46
-375 -46 -520 0 -82 3 -160 6 -173 9 -33 29 -21 30 19 2 105 36 454 54 544 31
166 41 288 38 475 -2 119 -6 179 -10 155z"/>
<path d="M980 2210 c0 -5 11 -10 25 -10 14 0 25 5 25 10 0 6 -11 10 -25 10
-14 0 -25 -4 -25 -10z"/>
<path d="M1186 1725 c-51 -18 -58 -27 -50 -59 8 -32 21 -34 26 -3 2 18 11 23
51 28 27 3 50 2 52 -2 10 -16 -38 -59 -73 -65 -20 -4 -45 -13 -54 -22 -13 -11
-30 -13 -63 -9 -39 6 -45 4 -45 -12 0 -22 24 -45 70 -63 38 -16 129 -10 183
11 31 12 47 7 47 -13 0 -13 -66 -59 -136 -94 -76 -39 -62 -89 22 -76 67 10 65
-10 -9 -81 -64 -61 -89 -103 -57 -97 8 2 51 16 95 33 44 16 91 30 105 32 24 2
24 1 22 -73 -2 -41 -13 -110 -24 -153 -14 -55 -17 -82 -10 -89 37 -37 82 72
91 222 l6 105 39 20 c21 11 37 25 35 30 -4 11 -10 10 -46 -1 -29 -8 -29 4 -4
82 11 32 18 60 15 63 -10 10 -46 -37 -73 -94 -27 -56 -33 -63 -67 -69 -51 -10
-61 5 -29 42 14 17 27 44 28 59 2 26 -1 28 -30 27 -18 -1 -33 1 -33 5 0 3 23
26 50 51 62 56 77 104 38 119 -15 5 -41 6 -61 1 -20 -4 -39 -5 -42 -2 -3 4 19
30 49 58 60 55 71 88 34 98 -38 10 -111 6 -152 -9z"/>
<path d="M2090 1575 c-82 -8 -105 -13 -105 -25 0 -22 78 -25 153 -5 59 16 82
29 65 37 -5 2 -55 -1 -113 -7z"/>
</g>
</svg>
