<?xml version="1.0" standalone="no"?>
<!DOCTYPE svg PUBLIC "-//W3C//DTD SVG 20010904//EN"
 "http://www.w3.org/TR/2001/REC-SVG-20010904/DTD/svg10.dtd">
<svg version="1.0" xmlns="http://www.w3.org/2000/svg"
 width="251.000000pt" height="267.000000pt" viewBox="0 0 251.000000 267.000000"
 preserveAspectRatio="xMidYMid meet">
<metadata>
Created by potrace 1.16, written by Peter Selinger 2001-2019
</metadata>
<g transform="translate(0.000000,267.000000) scale(0.100000,-0.100000)"
fill="#000000" stroke="none">
<path d="M1076 2444 c-3 -26 -6 -86 -6 -133 0 -55 -5 -93 -12 -103 -13 -16
-68 -34 -198 -65 -36 -8 -72 -22 -80 -30 -13 -13 -13 -16 5 -29 26 -20 80 -13
181 22 42 14 80 22 84 17 4 -4 6 -43 3 -86 -6 -76 -7 -78 -37 -91 -17 -8 -46
-26 -65 -40 -32 -24 -36 -24 -52 -10 -16 14 -18 13 -33 -17 -14 -29 -14 -34
-1 -49 21 -23 19 -33 -10 -60 -69 -65 3 -97 119 -54 47 18 58 10 54 -42 l-3
-38 -69 -17 c-76 -19 -90 -28 -84 -55 3 -15 12 -19 43 -18 22 0 51 3 65 5 23
4 25 1 24 -36 -2 -43 3 -37 -123 -137 -30 -24 -56 -48 -58 -55 -2 -6 7 -19 20
-28 23 -15 27 -14 76 11 29 14 54 24 57 22 17 -18 -7 -418 -28 -468 -20 -46
-54 -76 -103 -89 -70 -19 -118 -14 -166 19 -46 30 -65 24 -33 -12 53 -58 145
-78 226 -50 127 45 161 101 173 282 3 52 9 129 12 170 3 41 6 97 5 123 -3 73
33 133 109 179 14 9 62 51 108 94 87 82 125 141 134 212 8 66 -19 52 -43 -23
-17 -53 -55 -109 -85 -125 -29 -15 -94 -5 -102 16 -3 8 2 23 11 33 9 10 16 25
16 34 0 16 -52 75 -83 92 -34 19 -16 118 31 168 30 32 28 39 -10 35 l-33 -3 3
65 c4 75 24 116 67 139 17 9 44 27 60 39 24 19 27 25 15 32 -21 14 -25 13 -57
-14 -16 -13 -38 -26 -48 -28 -19 -3 -20 3 -19 120 l1 122 -27 0 c-25 0 -28 -4
-34 -46z m-36 -620 c0 -7 -21 -24 -47 -36 -27 -12 -51 -23 -55 -25 -4 -2 -9 1
-12 6 -7 11 94 82 106 75 4 -3 8 -12 8 -20z m120 -87 c13 -24 13 -30 0 -54
-11 -19 -24 -28 -40 -28 -22 0 -25 4 -23 32 4 46 21 85 36 81 6 -3 19 -17 27
-31z m-80 -22 c0 -8 -4 -15 -10 -15 -5 0 -10 7 -10 15 0 8 5 15 10 15 6 0 10
-7 10 -15z m55 -145 c0 -16 -41 -44 -49 -32 -7 12 24 54 37 49 7 -2 12 -9 12
-17z"/>
<path d="M180 2100 c0 -24 4 -31 15 -27 25 10 27 -12 6 -54 -24 -45 -30 -119
-8 -101 6 6 27 39 45 75 28 54 32 70 25 98 -8 30 -13 34 -46 37 -36 3 -37 2
-37 -28z"/>
<path d="M2239 1183 c0 -81 -17 -136 -42 -141 -26 -5 -66 35 -60 59 6 22 -16
26 -35 7 -19 -19 -14 -48 13 -84 32 -41 56 -49 93 -30 58 30 91 154 62 230
-17 46 -30 29 -31 -41z"/>
<path d="M180 1130 c0 -18 7 -20 89 -20 53 0 93 4 96 11 4 6 5 12 4 13 -2 2
-46 6 -96 9 -88 6 -93 6 -93 -13z"/>
</g>
</svg>
