<?xml version="1.0" standalone="no"?>
<!DOCTYPE svg PUBLIC "-//W3C//DTD SVG 20010904//EN"
 "http://www.w3.org/TR/2001/REC-SVG-20010904/DTD/svg10.dtd">
<svg version="1.0" xmlns="http://www.w3.org/2000/svg"
 width="207.000000pt" height="251.000000pt" viewBox="0 0 207.000000 251.000000"
 preserveAspectRatio="xMidYMid meet">
<metadata>
Created by potrace 1.16, written by Peter Selinger 2001-2019
</metadata>
<g transform="translate(0.000000,251.000000) scale(0.100000,-0.100000)"
fill="#000000" stroke="none">
<path d="M716 1588 c-9 -12 -16 -30 -16 -39 0 -36 -109 -215 -266 -434 -19
-27 -60 -93 -91 -145 -31 -52 -64 -107 -74 -122 -23 -33 -26 -88 -4 -88 8 0
15 6 15 13 0 7 9 28 19 47 11 19 31 58 46 85 14 28 63 98 108 157 129 170 173
230 198 273 12 22 35 55 51 73 15 18 28 40 28 49 0 9 11 31 25 49 27 36 31 55
15 85 -14 25 -35 24 -54 -3z"/>
<path d="M1326 1561 c-4 -5 -2 -12 3 -15 5 -4 12 -2 15 3 4 5 2 12 -3 15 -5 4
-12 2 -15 -3z"/>
<path d="M920 1407 c-49 -24 -71 -59 -108 -172 -33 -98 -35 -117 -14 -166 32
-75 32 -75 192 -57 24 3 25 1 25 -51 l0 -54 -55 -18 c-30 -10 -65 -18 -77 -18
-31 -1 -29 -29 3 -43 18 -9 39 -9 77 -1 29 6 55 9 60 6 4 -2 7 -34 8 -71 0
-96 27 -225 44 -220 6 2 9 65 6 173 l-3 170 61 44 c57 41 70 59 55 74 -3 3
-27 -8 -52 -24 -54 -34 -67 -28 -65 32 3 66 20 102 73 154 45 45 65 85 41 85
-5 0 -31 -20 -57 -45 -30 -27 -52 -41 -58 -35 -5 5 -3 41 7 92 20 106 25 164
12 161 -6 -1 -23 -21 -40 -44 -28 -38 -30 -48 -35 -152 l-5 -111 -34 -23 c-46
-31 -77 -38 -108 -24 -25 11 -25 14 -21 79 5 74 26 119 96 212 55 73 49 85
-28 47z"/>
<path d="M1871 1130 c-12 -41 -8 -80 10 -80 5 0 9 27 9 60 0 33 -2 60 -3 60
-2 0 -9 -18 -16 -40z"/>
<path d="M447 943 c-4 -5 -2 -25 4 -44 5 -19 14 -65 19 -104 32 -254 47 -325
70 -325 13 0 5 225 -11 332 -10 64 -18 86 -44 115 -18 21 -34 32 -38 26z"/>
</g>
</svg>
