<?xml version="1.0" standalone="no"?>
<!DOCTYPE svg PUBLIC "-//W3C//DTD SVG 20010904//EN"
 "http://www.w3.org/TR/2001/REC-SVG-20010904/DTD/svg10.dtd">
<svg version="1.0" xmlns="http://www.w3.org/2000/svg"
 width="258.000000pt" height="389.000000pt" viewBox="0 0 258.000000 389.000000"
 preserveAspectRatio="xMidYMid meet">
<metadata>
Created by potrace 1.16, written by Peter Selinger 2001-2019
</metadata>
<g transform="translate(0.000000,389.000000) scale(0.100000,-0.100000)"
fill="#000000" stroke="none">
<path d="M2296 3163 c-14 -21 -35 -69 -47 -107 -12 -38 -43 -114 -69 -170 -62
-132 -116 -287 -107 -309 11 -30 45 -20 71 21 38 60 67 75 119 61 23 -7 57
-23 75 -36 28 -21 32 -30 32 -70 0 -69 -60 -158 -124 -184 -71 -29 -216 -159
-236 -213 -9 -24 -8 -32 4 -44 13 -13 24 -5 98 69 86 87 223 177 253 165 11
-4 15 -21 15 -60 0 -48 -8 -70 -61 -173 -54 -103 -62 -127 -67 -188 -3 -42
-11 -80 -22 -95 -9 -14 -30 -50 -47 -80 -16 -30 -35 -64 -41 -75 -14 -24 -74
-154 -96 -209 -11 -27 -13 -43 -6 -50 14 -14 22 -3 62 74 29 57 37 65 65 68
32 3 124 -39 191 -87 38 -26 42 -26 42 2 0 12 -12 30 -27 41 -46 34 -165 96
-184 96 -21 0 -34 16 -19 25 6 4 38 63 72 132 57 119 60 129 49 159 -14 38
-10 48 65 168 l44 70 0 120 c0 101 -3 121 -17 131 -17 13 -17 14 0 33 15 16
17 35 15 118 l-3 99 -58 29 c-36 18 -77 30 -110 32 -28 1 -53 7 -55 12 -3 10
8 33 132 275 82 160 88 187 41 187 -18 0 -32 -11 -49 -37z"/>
<path d="M866 2823 c-13 -31 -15 -60 -12 -149 3 -60 1 -149 -3 -197 -9 -92
-11 -97 -129 -261 -84 -117 -89 -139 -33 -144 33 -3 44 6 242 210 l208 213 31
-37 c54 -65 148 -75 204 -23 15 14 26 35 26 50 0 31 -5 31 -41 0 -42 -34 -94
-43 -120 -19 -18 16 -20 26 -14 69 3 27 10 54 15 60 9 11 54 151 65 202 6 29
3 34 -19 44 -20 9 -29 9 -41 -1 -29 -24 -54 -86 -73 -179 l-18 -90 -123 -126
c-67 -69 -127 -125 -132 -125 -13 0 -11 14 3 28 8 8 8 15 -1 26 -11 13 -4 27
45 86 89 105 105 128 96 134 -22 13 -55 -11 -88 -65 -19 -33 -39 -57 -43 -55
-4 3 -5 91 -3 196 4 163 3 190 -10 190 -8 0 -22 -17 -32 -37z m14 -531 c0 -13
-139 -146 -146 -139 -8 8 64 114 91 133 21 15 55 19 55 6z"/>
<path d="M1744 2735 c-21 -14 -73 -36 -114 -49 -69 -23 -124 -46 -190 -79 -42
-22 -32 -42 20 -39 102 7 375 159 332 186 -5 3 -26 -6 -48 -19z"/>
<path d="M208 2433 c-20 -10 -28 -22 -28 -40 0 -19 4 -24 16 -19 9 3 27 9 40
12 26 7 32 35 12 51 -9 6 -23 5 -40 -4z"/>
<path d="M650 2345 c0 -11 -11 -15 -39 -15 -33 0 -45 -7 -85 -50 -42 -44 -56
-70 -40 -70 3 0 27 18 52 41 39 34 52 40 78 36 18 -3 37 0 43 6 14 14 15 67 1
67 -5 0 -10 -7 -10 -15z"/>
<path d="M183 1890 c0 -114 0 -120 9 -67 7 37 7 80 1 125 -10 65 -10 63 -10
-58z"/>
<path d="M1008 1875 c-54 -46 -50 -60 23 -74 l61 -12 56 38 c30 21 57 44 60
50 7 24 -30 26 -74 4 -58 -28 -88 -28 -81 -1 8 32 -5 30 -45 -5z"/>
<path d="M1385 1595 c-102 -50 -219 -80 -416 -108 -227 -33 -258 -37 -264 -28
-2 4 11 23 30 41 42 41 44 54 8 45 -36 -8 -147 -121 -139 -141 7 -19 151 -19
249 0 40 8 106 20 147 26 150 22 308 74 411 137 60 37 85 64 57 62 -7 0 -44
-16 -83 -34z"/>
<path d="M1725 430 c-9 -14 4 -149 17 -174 15 -28 25 -7 33 69 6 66 5 71 -18
93 -17 16 -27 20 -32 12z"/>
<path d="M607 223 c-14 -7 -27 -19 -31 -28 -4 -12 4 -15 44 -15 39 0 52 4 64
22 9 12 16 26 16 29 0 12 -67 6 -93 -8z"/>
</g>
</svg>
