<?xml version="1.0" standalone="no"?>
<!DOCTYPE svg PUBLIC "-//W3C//DTD SVG 20010904//EN"
 "http://www.w3.org/TR/2001/REC-SVG-20010904/DTD/svg10.dtd">
<svg version="1.0" xmlns="http://www.w3.org/2000/svg"
 width="361.000000pt" height="428.000000pt" viewBox="0 0 361.000000 428.000000"
 preserveAspectRatio="xMidYMid meet">
<metadata>
Created by potrace 1.16, written by Peter Selinger 2001-2019
</metadata>
<g transform="translate(0.000000,428.000000) scale(0.100000,-0.100000)"
fill="#000000" stroke="none">
<path d="M180 4075 c0 -19 10 -30 42 -46 75 -38 150 -59 213 -59 135 0 322 55
369 108 l19 22 -66 0 c-41 0 -84 -7 -114 -19 -27 -10 -83 -24 -126 -31 -85
-13 -135 -6 -226 30 -28 11 -65 20 -81 20 -25 0 -30 -4 -30 -25z"/>
<path d="M3055 3109 c-95 -28 -104 -37 -100 -107 3 -68 17 -73 48 -17 19 34
30 42 72 53 85 21 158 25 178 10 18 -13 16 -21 -37 -148 -43 -102 -64 -171
-86 -280 -27 -132 -29 -159 -25 -300 4 -137 6 -155 21 -155 28 0 47 85 48 225
2 129 18 265 41 335 8 22 35 90 60 150 67 158 69 165 47 195 -43 58 -149 74
-267 39z"/>
<path d="M402 2778 c-19 -19 -14 -29 8 -16 20 13 27 28 12 28 -4 0 -13 -5 -20
-12z"/>
<path d="M1223 2588 c-16 -20 -30 -72 -53 -193 -23 -122 -134 -511 -201 -703
-33 -97 -40 -125 -30 -135 10 -9 17 -7 32 12 10 13 19 29 19 36 0 7 25 63 55
123 30 61 55 114 55 119 0 5 19 64 41 133 92 277 115 387 115 524 -1 88 -11
112 -33 84z"/>
<path d="M180 1872 c0 -37 4 -44 38 -65 20 -13 54 -32 75 -42 20 -9 40 -21 43
-26 11 -18 -10 -52 -82 -137 l-74 -86 0 -87 0 -87 35 -31 c53 -46 88 -42 145
17 67 70 92 130 98 233 4 74 1 91 -18 129 -18 35 -20 47 -11 67 11 24 10 24
-18 18 -17 -4 -32 -2 -36 5 -4 6 -34 24 -68 41 -34 16 -76 44 -94 61 l-33 32
0 -42z m208 -262 c4 -52 -38 -195 -69 -233 -28 -37 -47 -34 -66 10 -18 45 -11
117 15 147 10 12 26 35 36 51 27 44 58 76 70 72 6 -2 12 -23 14 -47z"/>
<path d="M1154 1875 c-14 -37 110 -226 236 -358 59 -62 70 -69 113 -74 28 -3
47 -2 47 4 0 6 -27 34 -60 62 -33 29 -68 68 -78 87 -31 60 -225 294 -244 294
-5 0 -11 -7 -14 -15z"/>
<path d="M3130 1634 c-13 -34 -13 -37 11 -68 25 -32 68 -35 95 -5 19 21 18 21
-6 40 -14 10 -37 27 -52 39 -33 26 -36 25 -48 -6z"/>
</g>
</svg>
