<?xml version="1.0" standalone="no"?>
<!DOCTYPE svg PUBLIC "-//W3C//DTD SVG 20010904//EN"
 "http://www.w3.org/TR/2001/REC-SVG-20010904/DTD/svg10.dtd">
<svg version="1.0" xmlns="http://www.w3.org/2000/svg"
 width="364.000000pt" height="398.000000pt" viewBox="0 0 364.000000 398.000000"
 preserveAspectRatio="xMidYMid meet">
<metadata>
Created by potrace 1.16, written by Peter Selinger 2001-2019
</metadata>
<g transform="translate(0.000000,398.000000) scale(0.100000,-0.100000)"
fill="#000000" stroke="none">
<path d="M896 3204 c-13 -34 25 -75 138 -148 139 -91 285 -162 391 -190 52
-14 81 -27 83 -37 1 -9 -26 -53 -60 -99 -59 -78 -84 -114 -164 -235 -48 -73
-98 -169 -137 -260 -19 -44 -43 -100 -55 -125 -27 -60 -61 -166 -69 -214 -10
-65 18 -39 47 45 31 86 135 301 180 374 170 271 202 315 333 452 38 40 67 78
65 85 -3 7 -21 16 -42 19 -20 3 -47 11 -59 16 -76 35 -129 55 -182 69 -33 8
-82 26 -110 39 -64 31 -239 148 -288 191 -41 37 -62 42 -71 18z"/>
<path d="M3345 2892 c-16 -11 -75 -62 -130 -114 -87 -83 -137 -146 -211 -263
-57 -91 -74 -170 -50 -227 17 -41 36 -48 57 -22 10 13 10 20 0 36 -7 12 -10
32 -5 50 25 117 206 350 336 434 71 46 104 84 94 109 -8 21 -55 19 -91 -3z"/>
<path d="M1989 2734 c-24 -29 -16 -150 16 -233 23 -62 27 -82 21 -134 -6 -65
3 -87 36 -87 13 0 26 -15 42 -52 26 -59 60 -88 151 -131 91 -43 95 -49 95
-131 0 -85 -23 -224 -44 -264 -8 -16 -39 -55 -67 -86 -59 -65 -57 -87 5 -66
103 34 184 231 173 423 -5 105 -9 110 -121 168 -115 59 -156 102 -156 163 0
26 68 80 175 140 50 29 115 83 115 97 0 14 -54 -8 -188 -76 -74 -37 -137 -63
-142 -59 -12 13 -41 121 -50 184 -6 43 -4 61 8 83 16 27 16 28 -13 52 -36 29
-39 30 -56 9z"/>
<path d="M3180 2495 c-10 -12 -10 -16 1 -18 8 -3 37 -12 64 -21 49 -16 168
-22 199 -10 10 4 16 18 16 35 l0 29 -134 0 c-106 0 -136 -3 -146 -15z"/>
<path d="M2010 2235 c0 -8 5 -15 10 -15 6 0 10 7 10 15 0 8 -4 15 -10 15 -5 0
-10 -7 -10 -15z"/>
<path d="M3288 2019 c-68 -24 -111 -60 -106 -92 4 -28 56 -35 91 -12 36 23
127 55 159 55 25 0 28 3 28 35 l0 35 -57 -1 c-32 0 -83 -9 -115 -20z"/>
<path d="M1615 1927 c-42 -56 -112 -171 -167 -272 -35 -66 -74 -136 -85 -155
-11 -19 -33 -57 -49 -85 -51 -86 -95 -213 -88 -251 7 -36 37 -70 53 -60 6 4
15 26 21 49 28 109 63 212 89 255 62 106 251 503 251 528 0 9 -16 3 -25 -9z"/>
<path d="M3423 1630 c-37 -77 -51 -201 -33 -288 20 -91 50 -78 50 22 0 33 5
87 11 120 5 34 9 95 7 136 l-3 75 -32 -65z"/>
<path d="M180 310 l0 -130 378 0 c416 1 417 1 237 55 -148 44 -207 62 -260 80
-92 32 -209 76 -255 95 -25 10 -57 21 -72 25 l-28 5 0 -130z"/>
</g>
</svg>
