<?xml version="1.0" standalone="no"?>
<!DOCTYPE svg PUBLIC "-//W3C//DTD SVG 20010904//EN"
 "http://www.w3.org/TR/2001/REC-SVG-20010904/DTD/svg10.dtd">
<svg version="1.0" xmlns="http://www.w3.org/2000/svg"
 width="226.000000pt" height="365.000000pt" viewBox="0 0 226.000000 365.000000"
 preserveAspectRatio="xMidYMid meet">
<metadata>
Created by potrace 1.16, written by Peter Selinger 2001-2019
</metadata>
<g transform="translate(0.000000,365.000000) scale(0.100000,-0.100000)"
fill="#000000" stroke="none">
<path d="M1125 2231 c-45 -17 -145 -62 -280 -127 -27 -14 -62 -39 -77 -56 -22
-25 -30 -29 -42 -19 -10 8 -16 9 -21 1 -3 -5 1 -13 9 -16 22 -9 20 -31 -4 -44
-11 -6 -18 -15 -15 -21 12 -19 41 -8 84 31 46 42 336 194 352 184 5 -3 9 -12
9 -19 0 -25 -84 -176 -151 -272 -35 -50 -93 -133 -129 -184 -156 -223 -232
-390 -183 -406 14 -5 43 47 43 77 0 11 10 40 21 63 29 57 126 206 154 237 22
24 67 88 213 305 68 99 122 209 122 245 0 18 -28 41 -47 39 -4 0 -30 -9 -58
-18z"/>
<path d="M2017 2000 c-48 -45 -59 -62 -63 -95 -3 -23 1 -49 8 -61 7 -12 23
-40 36 -64 34 -62 48 -41 31 45 l-13 67 33 27 c30 25 32 30 29 81 l-3 55 -58
-55z"/>
<path d="M1287 1693 c-4 -3 -7 -33 -7 -65 0 -49 4 -63 25 -83 13 -14 29 -25
34 -25 19 0 22 20 7 42 -9 12 -19 44 -22 70 -6 46 -24 75 -37 61z"/>
<path d="M2061 1676 c-11 -13 -11 -20 -3 -28 15 -15 24 -5 20 23 -3 21 -4 21
-17 5z"/>
<path d="M825 1500 c-3 -5 5 -20 18 -32 41 -39 51 -94 67 -376 13 -231 46
-369 79 -337 7 7 6 25 -3 57 -8 25 -17 115 -21 199 -3 85 -8 199 -10 254 -5
113 -23 186 -56 221 -23 25 -63 32 -74 14z"/>
<path d="M2038 969 c-46 -92 -47 -117 -9 -153 34 -32 45 -23 35 29 -3 20 -1
55 6 78 6 24 10 61 8 82 l-3 40 -37 -76z"/>
</g>
</svg>
