<?xml version="1.0" standalone="no"?>
<!DOCTYPE svg PUBLIC "-//W3C//DTD SVG 20010904//EN"
 "http://www.w3.org/TR/2001/REC-SVG-20010904/DTD/svg10.dtd">
<svg version="1.0" xmlns="http://www.w3.org/2000/svg"
 width="227.000000pt" height="377.000000pt" viewBox="0 0 227.000000 377.000000"
 preserveAspectRatio="xMidYMid meet">
<metadata>
Created by potrace 1.16, written by Peter Selinger 2001-2019
</metadata>
<g transform="translate(0.000000,377.000000) scale(0.100000,-0.100000)"
fill="#000000" stroke="none">
<path d="M1988 2568 c-8 -7 -56 -60 -106 -118 -49 -58 -118 -132 -152 -165
-114 -111 -139 -146 -161 -232 -11 -43 -25 -131 -31 -196 -9 -100 -8 -133 7
-215 42 -243 70 -306 130 -300 44 4 47 48 7 86 -33 31 -47 80 -64 237 -20 171
-9 319 22 300 18 -11 21 17 4 30 -17 13 -18 15 -3 30 14 14 29 15 117 7 118
-11 138 -21 187 -95 50 -77 61 -171 44 -391 -13 -170 -10 -201 22 -201 9 0 19
32 32 105 46 264 36 425 -31 523 -68 97 -145 137 -269 137 -60 0 -75 3 -80 17
-4 11 0 20 12 27 11 6 52 44 92 84 41 39 77 72 81 72 4 0 61 51 126 113 109
104 118 115 107 135 -13 25 -67 31 -93 10z"/>
<path d="M365 2337 c-16 -7 -65 -21 -107 -32 l-78 -18 0 -42 0 -42 93 32 c148
52 189 72 185 92 -4 23 -52 27 -93 10z"/>
<path d="M891 2292 c-27 -42 -36 -105 -36 -247 0 -82 3 -100 15 -100 10 0 15
11 16 35 0 19 13 90 28 158 22 95 25 126 16 137 -6 8 -9 23 -5 35 10 32 -8 23
-34 -18z"/>
<path d="M225 2100 c-28 -29 -30 -36 -36 -148 -4 -64 -8 -191 -8 -282 0 -185
6 -186 44 -7 27 129 41 148 133 177 70 23 107 44 159 93 25 23 30 34 22 44
-17 19 -25 17 -124 -32 -49 -25 -105 -48 -124 -52 l-34 -6 7 89 c3 49 7 102 8
118 4 40 -13 42 -47 6z"/>
<path d="M847 1863 c-15 -14 -6 -44 22 -75 70 -81 85 -152 55 -256 -27 -91
-53 -118 -131 -132 -122 -23 -171 -100 -100 -154 19 -15 39 -26 44 -26 18 0
121 48 128 60 4 6 18 15 31 20 37 14 97 -13 177 -80 64 -53 186 -132 257 -167
66 -33 163 -54 378 -84 83 -12 104 -11 180 4 48 10 112 30 142 46 47 24 55 33
58 59 l3 31 -59 -30 c-75 -39 -174 -52 -280 -38 -176 24 -211 29 -290 49 -45
11 -97 27 -115 36 -49 25 -222 141 -237 159 -8 9 -47 40 -87 68 -40 28 -73 56
-73 62 0 6 7 20 15 33 20 27 47 193 39 230 -8 34 -52 112 -63 112 -5 0 -20 18
-35 40 -25 38 -44 49 -59 33z"/>
<path d="M444 1765 c-37 -57 12 -225 66 -225 24 0 24 7 4 77 -10 33 -13 68 -9
90 4 24 1 42 -10 59 -20 31 -30 30 -51 -1z"/>
<path d="M1778 1654 c-45 -24 -61 -74 -23 -74 7 0 36 11 64 26 35 17 51 31 51
45 0 15 -7 19 -32 19 -18 -1 -45 -7 -60 -16z"/>
<path d="M1705 1530 c-9 -15 49 -65 93 -81 44 -15 124 -17 129 -3 4 12 -138
81 -186 90 -17 4 -32 1 -36 -6z"/>
<path d="M562 1450 c-42 -35 -125 -57 -254 -70 l-128 -13 0 -39 c0 -22 4 -37
8 -34 4 2 56 7 116 11 147 8 239 45 291 115 36 49 14 69 -33 30z"/>
</g>
</svg>
