<?xml version="1.0" standalone="no"?>
<!DOCTYPE svg PUBLIC "-//W3C//DTD SVG 20010904//EN"
 "http://www.w3.org/TR/2001/REC-SVG-20010904/DTD/svg10.dtd">
<svg version="1.0" xmlns="http://www.w3.org/2000/svg"
 width="305.000000pt" height="287.000000pt" viewBox="0 0 305.000000 287.000000"
 preserveAspectRatio="xMidYMid meet">
<metadata>
Created by potrace 1.16, written by Peter Selinger 2001-2019
</metadata>
<g transform="translate(0.000000,287.000000) scale(0.100000,-0.100000)"
fill="#000000" stroke="none">
<path d="M1196 2244 c-27 -33 -91 -168 -145 -309 l-28 -70 -94 -47 c-52 -25
-109 -47 -127 -47 -40 -1 -51 -24 -26 -52 21 -23 55 -21 129 11 42 18 65 13
50 -10 -10 -17 -44 -166 -51 -223 -5 -45 -3 -55 16 -72 13 -12 42 -22 73 -25
l52 -5 0 -55 c0 -46 -3 -55 -20 -60 -11 -3 -50 -22 -87 -43 -58 -32 -75 -49
-124 -122 -56 -84 -64 -115 -27 -115 10 0 43 30 73 65 41 49 61 65 81 65 34 0
40 7 27 36 -16 34 13 76 50 72 25 -3 27 -6 24 -42 -2 -21 -9 -48 -16 -60 -8
-11 -19 -43 -25 -70 -7 -27 -19 -62 -27 -78 -11 -21 -12 -33 -4 -48 25 -47 60
-13 88 85 20 67 35 113 54 164 7 20 13 22 41 17 67 -13 234 -19 241 -8 11 18
-28 32 -116 41 -46 5 -101 15 -123 22 -40 14 -40 15 -43 69 -5 94 14 127 102
187 105 70 191 147 182 161 -12 20 -36 14 -86 -23 -26 -19 -52 -35 -58 -35 -6
0 -29 -16 -52 -35 -42 -35 -80 -46 -80 -22 0 13 26 98 41 132 5 11 19 32 31
48 14 17 18 31 12 36 -5 6 -29 -12 -61 -49 -53 -58 -83 -131 -83 -201 0 -32
-19 -49 -56 -52 -22 -2 -29 3 -35 25 -10 37 11 117 50 198 54 110 97 159 143
160 9 0 29 11 45 23 15 13 52 36 80 52 74 39 89 58 74 91 l-11 26 -29 -31
c-16 -17 -34 -31 -39 -31 -6 0 -43 -20 -83 -45 -39 -24 -76 -42 -80 -39 -14 8
-10 37 7 62 8 12 23 46 33 75 10 29 39 84 65 121 49 71 53 85 34 104 -18 18
-30 14 -62 -24z"/>
<path d="M2504 2157 c-10 -27 13 -161 42 -244 50 -143 73 -392 55 -583 -14
-154 -64 -429 -96 -530 -26 -80 -22 -102 14 -73 42 35 109 292 152 582 13 90
7 352 -10 426 -5 22 -20 90 -34 150 -23 107 -75 246 -103 274 -11 13 -14 12
-20 -2z"/>
<path d="M1976 1980 c-61 -35 -100 -50 -125 -50 -20 0 -54 -9 -76 -20 -22 -11
-47 -20 -56 -20 -26 0 -41 -26 -34 -59 5 -24 2 -32 -15 -41 -16 -9 -20 -19
-18 -43 2 -26 8 -32 34 -38 56 -11 57 -14 50 -102 -10 -116 -16 -125 -122
-172 -53 -23 -106 -55 -128 -77 -37 -36 -38 -37 -31 -95 8 -68 41 -125 85
-148 16 -9 30 -17 30 -19 0 -2 -9 -23 -20 -47 -11 -24 -20 -59 -20 -77 0 -27
-6 -36 -32 -50 -57 -30 -108 -86 -108 -119 0 -31 26 -63 52 -63 8 0 32 11 52
25 56 38 145 86 180 97 17 5 76 13 131 18 221 18 295 40 381 111 58 47 66 68
33 76 -19 5 -17 10 25 52 53 54 61 74 76 178 8 64 8 92 -4 142 -24 102 -64
142 -153 156 -49 7 -64 26 -40 53 8 9 18 33 22 52 9 45 22 60 50 60 12 0 28 7
35 15 19 23 -8 74 -57 108 -32 22 -44 25 -68 18 -36 -10 -120 0 -120 14 0 6
21 15 46 21 58 15 89 31 89 48 0 15 -32 46 -46 46 -5 -1 -49 -23 -98 -50z m90
-160 c41 0 44 -2 43 -27 0 -16 -12 -64 -27 -108 -22 -63 -34 -84 -60 -101 -32
-22 -148 -61 -211 -72 l-34 -5 6 64 c14 137 24 172 59 202 18 15 41 27 53 27
11 0 31 7 45 15 14 7 38 12 54 9 16 -2 48 -4 72 -4z m161 -344 c33 -36 34 -38
27 -99 -12 -114 -31 -187 -55 -214 -39 -41 -137 -104 -173 -110 -54 -8 -55 16
-6 94 13 20 12 25 -6 45 -12 13 -27 43 -34 68 -26 97 -26 99 36 184 l58 78 59
-4 c54 -4 63 -8 94 -42z m-270 -40 c-8 -19 -37 -21 -37 -3 0 7 5 18 12 25 15
15 33 -1 25 -22z m-129 -45 c5 -33 -14 -50 -31 -27 -11 15 -17 17 -35 7 -51
-27 -34 -98 22 -87 19 4 38 0 55 -11 14 -9 39 -19 55 -23 24 -4 32 -13 39 -40
18 -68 -17 -140 -62 -125 -29 9 -47 -28 -32 -63 10 -20 9 -28 -1 -38 -20 -20
-116 -40 -188 -39 l-65 1 1 34 c1 19 10 56 20 83 21 53 15 73 -28 94 -18 9
-33 32 -48 72 -22 60 -20 87 6 77 9 -4 18 4 24 19 12 31 35 42 54 26 10 -8 16
-9 21 -1 13 21 88 52 117 48 16 -3 33 1 40 9 15 19 32 11 36 -16z m-258 -527
c0 -12 -34 -33 -52 -34 -27 0 -21 17 10 28 33 13 42 14 42 6z"/>
<path d="M1570 1260 c0 -5 5 -10 10 -10 6 0 10 5 10 10 0 6 -4 10 -10 10 -5 0
-10 -4 -10 -10z"/>
<path d="M1665 1230 c-25 -27 -10 -39 16 -13 12 11 17 23 11 27 -5 3 -17 -3
-27 -14z"/>
<path d="M180 1761 l0 -49 38 -5 c20 -3 88 -13 150 -23 89 -14 115 -15 125 -5
9 10 8 15 -7 27 -11 8 -28 14 -39 14 -10 0 -70 20 -134 45 -63 25 -119 45
-124 45 -5 0 -9 -22 -9 -49z"/>
</g>
</svg>
