<?xml version="1.0" standalone="no"?>
<!DOCTYPE svg PUBLIC "-//W3C//DTD SVG 20010904//EN"
 "http://www.w3.org/TR/2001/REC-SVG-20010904/DTD/svg10.dtd">
<svg version="1.0" xmlns="http://www.w3.org/2000/svg"
 width="275.000000pt" height="346.000000pt" viewBox="0 0 275.000000 346.000000"
 preserveAspectRatio="xMidYMid meet">
<metadata>
Created by potrace 1.16, written by Peter Selinger 2001-2019
</metadata>
<g transform="translate(0.000000,346.000000) scale(0.100000,-0.100000)"
fill="#000000" stroke="none">
<path d="M1025 2672 c-41 -26 -79 -83 -127 -194 -54 -125 -58 -158 -25 -206
42 -59 78 -76 151 -68 33 4 102 21 151 37 173 58 271 69 313 36 14 -11 15 -84
2 -147 -21 -96 -174 -381 -342 -636 -47 -71 -101 -154 -120 -184 -19 -30 -72
-110 -117 -178 -44 -68 -81 -126 -81 -129 0 -4 -23 -33 -51 -65 -87 -100 -30
-98 68 4 54 56 60 64 209 286 53 78 100 144 104 147 16 10 119 173 205 325 48
85 97 171 109 190 72 115 117 291 97 379 -13 58 -26 69 -98 82 -49 9 -71 8
-114 -5 -323 -91 -361 -96 -412 -56 -22 18 -25 26 -20 58 7 40 60 159 92 207
11 16 44 41 73 55 28 14 54 30 56 37 4 13 -48 43 -75 43 -10 0 -31 -8 -48 -18z"/>
<path d="M1360 1404 c-25 -13 -46 -28 -48 -33 -2 -5 28 -12 65 -16 92 -9 171
-54 243 -136 77 -88 180 -187 212 -204 37 -20 43 -5 23 56 -13 38 -26 56 -55
74 -21 13 -52 44 -68 68 -49 70 -136 150 -195 181 -76 38 -121 40 -177 10z"/>
</g>
</svg>
