<?xml version="1.0" standalone="no"?>
<!DOCTYPE svg PUBLIC "-//W3C//DTD SVG 20010904//EN"
 "http://www.w3.org/TR/2001/REC-SVG-20010904/DTD/svg10.dtd">
<svg version="1.0" xmlns="http://www.w3.org/2000/svg"
 width="261.000000pt" height="390.000000pt" viewBox="0 0 261.000000 390.000000"
 preserveAspectRatio="xMidYMid meet">
<metadata>
Created by potrace 1.16, written by Peter Selinger 2001-2019
</metadata>
<g transform="translate(0.000000,390.000000) scale(0.100000,-0.100000)"
fill="#000000" stroke="none">
<path d="M180 3693 c0 -22 2 -25 10 -13 13 20 13 40 0 40 -5 0 -10 -12 -10
-27z"/>
<path d="M1807 3661 c-92 -32 -172 -62 -178 -68 -20 -20 1 -34 39 -27 78 13
442 137 442 150 0 2 -30 4 -67 3 -55 -1 -100 -12 -236 -58z"/>
<path d="M2320 3375 c-58 -13 -133 -23 -168 -24 -35 -1 -73 -6 -84 -12 -21
-11 -21 -12 -3 -25 23 -17 199 -10 298 13 64 14 67 17 67 44 0 16 -1 28 -2 28
-2 -1 -50 -12 -108 -24z"/>
<path d="M2219 2421 c-20 -22 -40 -55 -44 -73 -4 -18 -46 -107 -92 -198 -141
-275 -223 -495 -194 -523 16 -15 37 11 51 65 37 134 224 499 249 484 13 -8 20
-163 10 -200 -6 -21 -24 -46 -46 -63 -68 -51 -93 -81 -93 -108 0 -42 26 -41
80 4 74 62 75 61 86 -81 l6 -93 -78 -72 c-44 -39 -104 -91 -134 -115 -62 -50
-72 -81 -28 -86 33 -4 113 52 181 128 26 29 53 50 60 47 9 -3 17 -49 26 -148
12 -138 31 -293 50 -427 10 -64 32 -112 52 -112 7 0 9 14 6 38 -4 20 -11 107
-17 192 -6 85 -15 211 -20 279 -6 68 -10 170 -10 227 0 56 -5 115 -10 129 -17
46 -1 181 27 222 34 50 28 78 -17 78 l-35 1 -6 69 c-4 39 -7 105 -8 148 -1 74
1 80 28 105 45 42 49 70 15 98 -40 32 -51 30 -95 -15z"/>
<path d="M1070 2413 c-8 -3 -23 -13 -33 -21 -18 -16 -60 -138 -72 -212 l-7
-45 22 20 c12 11 36 47 52 80 18 36 50 78 81 106 l51 46 -31 17 c-34 17 -39
18 -63 9z"/>
<path d="M208 2328 c-26 -9 -28 -13 -28 -71 l1 -62 29 35 c39 46 58 112 32
109 -4 0 -19 -5 -34 -11z"/>
<path d="M1200 2065 c-98 -53 -199 -94 -285 -115 -49 -12 -100 -28 -112 -36
-26 -17 -30 -46 -8 -64 45 -37 313 69 493 195 63 45 -11 62 -88 20z"/>
<path d="M348 2004 c-21 -15 -63 -30 -102 -37 l-66 -11 0 -34 0 -34 46 7 c95
14 174 67 174 116 0 24 -7 23 -52 -7z"/>
<path d="M1382 1993 c-19 -9 -61 -44 -96 -78 -81 -81 -174 -128 -232 -119 -48
7 -84 -8 -84 -35 0 -36 26 -46 89 -33 31 7 73 12 93 12 19 0 46 8 59 18 13 9
42 26 64 37 22 11 68 48 102 83 53 53 63 69 63 98 0 39 -9 41 -58 17z"/>
<path d="M1321 1728 c-105 -51 -223 -91 -330 -114 -65 -14 -86 -23 -99 -42
-22 -33 -5 -57 39 -57 28 0 34 -4 32 -20 -27 -246 -28 -400 -3 -516 12 -52 23
-109 27 -126 3 -18 12 -38 19 -44 27 -22 32 30 18 186 -14 150 -6 369 16 468
15 71 61 115 143 138 112 30 257 119 257 156 0 21 -30 14 -119 -29z"/>
<path d="M2005 1710 c-10 -11 -15 -23 -12 -27 8 -7 47 25 47 39 0 14 -16 9
-35 -12z"/>
<path d="M180 1555 c0 -35 6 -54 25 -76 51 -62 70 -207 61 -479 -4 -107 -8
-206 -9 -220 -1 -19 3 -26 21 -28 51 -7 70 124 61 418 -8 258 -35 343 -129
410 l-30 21 0 -46z"/>
</g>
</svg>
