<?xml version="1.0" standalone="no"?>
<!DOCTYPE svg PUBLIC "-//W3C//DTD SVG 20010904//EN"
 "http://www.w3.org/TR/2001/REC-SVG-20010904/DTD/svg10.dtd">
<svg version="1.0" xmlns="http://www.w3.org/2000/svg"
 width="194.000000pt" height="310.000000pt" viewBox="0 0 194.000000 310.000000"
 preserveAspectRatio="xMidYMid meet">
<metadata>
Created by potrace 1.16, written by Peter Selinger 2001-2019
</metadata>
<g transform="translate(0.000000,310.000000) scale(0.100000,-0.100000)"
fill="#000000" stroke="none">
<path d="M660 2155 c-14 -16 -11 -38 15 -135 15 -56 17 -93 12 -265 -3 -110
-13 -256 -21 -325 -19 -147 -21 -326 -5 -336 23 -14 31 18 48 182 10 93 21
177 26 187 10 24 86 67 119 67 30 0 111 34 122 51 3 6 0 17 -7 25 -12 11 -22
11 -63 -1 -27 -8 -73 -15 -103 -15 -61 0 -58 -11 -43 139 5 59 5 150 -1 239
-8 120 -13 150 -30 173 -22 32 -50 37 -69 14z"/>
<path d="M1703 1884 c-5 -15 32 -64 49 -64 4 0 8 18 8 40 0 36 -2 40 -25 40
-14 0 -28 -7 -32 -16z"/>
<path d="M1670 1559 c-14 -6 -44 -8 -67 -4 -56 8 -85 -8 -81 -43 3 -25 7 -27
53 -30 28 -1 79 3 115 11 63 12 65 14 68 45 3 30 2 32 -30 31 -18 0 -44 -5
-58 -10z"/>
<path d="M1728 1220 c-37 -114 -48 -165 -48 -225 0 -66 14 -122 37 -154 44
-58 53 -29 31 98 -9 54 -9 80 1 122 7 30 11 96 9 149 l-3 95 -27 -85z"/>
<path d="M1175 968 c-102 -23 -391 -48 -556 -48 -140 0 -179 -3 -195 -15 -19
-15 -19 -15 4 -34 14 -12 46 -22 86 -26 83 -9 344 0 427 15 146 26 339 85 346
106 4 12 -60 14 -112 2z"/>
</g>
</svg>
