<?xml version="1.0" standalone="no"?>
<!DOCTYPE svg PUBLIC "-//W3C//DTD SVG 20010904//EN"
 "http://www.w3.org/TR/2001/REC-SVG-20010904/DTD/svg10.dtd">
<svg version="1.0" xmlns="http://www.w3.org/2000/svg"
 width="250.000000pt" height="350.000000pt" viewBox="0 0 250.000000 350.000000"
 preserveAspectRatio="xMidYMid meet">
<metadata>
Created by potrace 1.16, written by Peter Selinger 2001-2019
</metadata>
<g transform="translate(0.000000,350.000000) scale(0.100000,-0.100000)"
fill="#000000" stroke="none">
<path d="M1170 2583 c-14 -2 -35 -14 -46 -25 -25 -22 -25 -65 -4 -263 11 -105
18 -142 56 -300 9 -38 23 -108 31 -155 8 -47 17 -97 20 -112 4 -21 -1 -30 -23
-44 -16 -9 -45 -27 -64 -40 -19 -12 -47 -26 -63 -30 -15 -3 -32 -14 -37 -24
-20 -38 19 -40 107 -4 36 14 72 24 81 22 26 -5 23 -60 -4 -73 -41 -20 -184
-157 -184 -176 0 -10 9 -23 20 -29 16 -9 27 -6 55 15 41 32 135 69 146 58 4
-4 9 -26 11 -47 5 -60 21 -53 43 20 11 36 24 69 30 74 6 5 32 15 58 22 57 15
76 4 55 -34 -24 -43 -181 -183 -272 -242 -86 -55 -88 -57 -71 -76 23 -26 36
-25 80 3 65 40 116 86 222 200 58 61 112 113 119 115 9 2 14 -5 14 -22 0 -13
14 -78 30 -142 35 -136 62 -180 116 -190 46 -8 60 5 124 118 50 87 56 118 26
118 -17 0 -46 -37 -46 -58 0 -21 -73 -112 -90 -112 -22 0 -64 89 -87 183 -13
54 -21 103 -17 108 15 25 195 -19 236 -58 23 -22 32 -25 46 -17 9 6 18 22 20
36 6 46 -146 128 -238 128 -21 0 -42 -4 -45 -10 -11 -17 -61 -11 -80 10 -26
29 -92 27 -151 -5 -51 -27 -64 -25 -64 8 0 17 29 41 128 107 70 47 147 93 171
102 25 10 52 25 60 33 15 15 14 18 -3 31 -38 28 -104 13 -329 -76 l-48 -19 -9
25 c-6 14 -10 32 -10 40 0 8 -9 52 -19 97 -19 81 -50 241 -70 367 -6 36 -12
112 -13 170 l-3 105 65 -3 c36 -2 86 -10 112 -17 32 -9 50 -10 54 -3 9 14 -27
60 -61 77 -30 15 -142 23 -185 14z m184 -942 c9 -15 -23 -36 -36 -23 -5 5 -7
15 -4 21 9 13 33 14 40 2z"/>
<path d="M2285 2541 c-88 -57 -94 -82 -12 -53 41 15 47 21 47 44 0 16 -1 28
-2 28 -2 0 -16 -9 -33 -19z"/>
<path d="M550 2364 c-6 -14 -10 -32 -10 -40 0 -9 -5 -25 -11 -36 -7 -12 -17
-47 -24 -77 -15 -68 -64 -238 -76 -266 -5 -11 -23 -87 -39 -170 -39 -193 -33
-179 -69 -160 -42 21 -66 19 -84 -7 -14 -23 -15 -23 -36 -4 l-21 19 0 -163 0
-164 34 56 c18 31 36 68 40 83 8 33 66 105 84 105 9 0 12 -25 12 -94 0 -51 3
-107 6 -123 5 -27 1 -32 -85 -88 l-90 -60 0 -83 -1 -83 28 15 c15 8 47 21 72
28 27 8 44 19 42 27 -4 20 15 38 87 81 36 22 90 62 120 89 l55 49 -18 27 c-24
36 -41 40 -86 20 -21 -9 -43 -14 -49 -11 -13 8 -14 198 -2 266 5 25 14 79 21
120 7 41 23 116 36 165 13 50 24 104 24 120 0 17 11 64 24 105 31 96 60 245
53 264 -9 24 -26 19 -37 -10z"/>
<path d="M238 2267 l-53 -43 -3 -96 -3 -95 63 -28 c94 -43 178 -34 178 17 0
16 -5 19 -20 14 -11 -3 -28 -8 -37 -11 -21 -6 -132 52 -146 76 -15 23 8 74 56
127 44 47 74 53 102 22 17 -19 35 -19 35 1 0 5 -11 21 -25 34 -39 39 -83 34
-147 -18z"/>
<path d="M565 1716 c-65 -29 -111 -118 -86 -165 22 -40 59 -50 180 -47 62 2
116 7 120 12 5 5 11 27 14 49 5 30 2 49 -13 72 -42 70 -150 109 -215 79z m116
-79 c23 -16 34 -31 34 -47 0 -24 -4 -25 -70 -32 -38 -4 -76 -5 -82 -3 -7 2
-13 20 -13 39 0 64 67 86 131 43z"/>
</g>
</svg>
