<?xml version="1.0" standalone="no"?>
<!DOCTYPE svg PUBLIC "-//W3C//DTD SVG 20010904//EN"
 "http://www.w3.org/TR/2001/REC-SVG-20010904/DTD/svg10.dtd">
<svg version="1.0" xmlns="http://www.w3.org/2000/svg"
 width="276.000000pt" height="377.000000pt" viewBox="0 0 276.000000 377.000000"
 preserveAspectRatio="xMidYMid meet">
<metadata>
Created by potrace 1.16, written by Peter Selinger 2001-2019
</metadata>
<g transform="translate(0.000000,377.000000) scale(0.100000,-0.100000)"
fill="#000000" stroke="none">
<path d="M180 3036 l0 -36 58 0 c31 0 98 -5 147 -10 50 -6 203 -19 340 -30
138 -11 297 -25 355 -30 58 -6 182 -15 275 -20 94 -5 217 -14 275 -20 58 -5
193 -14 300 -20 107 -6 242 -15 300 -20 58 -5 160 -12 228 -15 l122 -6 0 26
c0 14 -6 27 -12 29 -7 2 -78 9 -158 15 -80 6 -203 16 -275 22 -71 5 -184 14
-250 20 -66 5 -203 14 -305 19 -182 10 -435 29 -660 50 -63 6 -180 15 -260 21
-80 5 -183 13 -230 18 -47 5 -122 12 -167 16 l-83 8 0 -37z"/>
<path d="M965 2470 c-3 -5 -1 -27 4 -47 6 -21 15 -76 21 -122 6 -46 16 -95 21
-108 8 -22 11 -23 26 -12 14 12 15 31 10 142 -3 76 -10 134 -18 143 -13 16
-55 19 -64 4z"/>
<path d="M2031 2271 c-36 -46 -66 -110 -75 -163 -6 -33 -3 -42 30 -77 48 -54
88 -61 161 -31 30 12 57 20 60 17 3 -3 -8 -28 -23 -54 -16 -26 -49 -88 -74
-137 l-44 -89 23 -18 c13 -11 34 -19 47 -19 34 0 45 -29 38 -99 -4 -34 -4 -61
0 -61 17 0 46 89 46 142 0 50 -3 59 -27 76 l-27 20 19 41 c10 23 25 47 33 54
23 18 82 148 82 179 0 47 -27 51 -119 18 -65 -24 -89 -28 -114 -22 -30 8 -32
11 -31 55 0 51 20 86 67 121 21 15 30 17 39 8 7 -7 16 -12 20 -12 16 0 7 20
-23 55 -41 47 -69 46 -108 -4z"/>
<path d="M2510 2162 c-36 -47 -88 -111 -117 -143 -61 -68 -77 -95 -69 -115 8
-22 20 -17 74 31 50 45 69 52 100 36 9 -4 32 -11 50 -14 32 -6 32 -6 32 33 0
32 -4 40 -19 40 -10 0 -24 7 -31 15 -11 13 -8 21 19 49 30 31 32 37 29 93 l-3
60 -65 -85z"/>
<path d="M1205 2186 c-140 -35 -221 -65 -250 -92 -34 -31 -30 -64 9 -77 24 -8
32 -6 45 10 21 26 75 63 93 63 7 0 26 7 42 15 16 9 31 13 34 10 3 -2 -40 -48
-94 -102 -55 -54 -112 -115 -128 -136 -28 -37 -28 -38 -10 -58 32 -35 50 -40
86 -25 60 26 213 83 241 90 40 9 44 -13 13 -78 -14 -30 -26 -57 -26 -60 0 -3
-17 -34 -38 -68 -21 -35 -43 -75 -50 -90 -6 -16 -17 -28 -24 -28 -6 0 -36 17
-65 37 -44 30 -65 38 -114 41 -79 6 -99 -12 -128 -116 -18 -62 -20 -83 -12
-106 16 -40 35 -20 51 54 16 75 45 105 93 97 42 -7 129 -67 123 -84 -6 -15
-113 -147 -174 -214 -24 -26 -53 -49 -65 -51 -14 -2 -23 -11 -25 -26 -4 -29
19 -37 55 -18 36 19 178 158 223 219 19 26 39 47 45 47 5 0 50 -49 99 -108
114 -135 269 -290 301 -298 54 -13 45 9 -32 90 -44 44 -99 108 -123 141 -24
33 -76 97 -117 141 -40 45 -73 89 -73 98 0 9 15 40 33 69 73 116 104 176 128
244 21 62 14 98 -23 126 -24 18 -31 18 -80 7 -29 -7 -87 -28 -128 -46 -41 -18
-78 -30 -82 -28 -16 10 38 86 80 112 23 15 83 61 133 102 67 55 89 79 87 95
-4 28 -44 29 -153 1z"/>
<path d="M278 2087 c-88 -51 -98 -63 -98 -119 0 -28 5 -48 11 -48 6 0 30 20
54 44 52 54 112 86 160 86 46 0 60 -30 45 -95 -17 -76 -179 -385 -239 -457
-29 -34 -31 -42 -31 -113 0 -63 4 -82 25 -115 14 -22 25 -43 25 -48 0 -4 24
-49 54 -100 59 -99 133 -192 154 -192 27 0 23 31 -10 77 -37 51 -38 53 -144
266 l-68 139 46 41 c47 43 52 51 174 276 108 200 128 310 67 367 -22 21 -36
24 -97 24 -62 -1 -79 -5 -128 -33z"/>
<path d="M2387 1683 c-24 -38 -52 -81 -61 -98 -10 -16 -41 -64 -71 -105 -29
-41 -79 -112 -110 -158 -32 -47 -68 -87 -81 -93 -28 -10 -67 -89 -62 -127 2
-14 11 -30 21 -36 16 -9 24 -5 53 29 19 22 51 72 72 111 51 98 106 191 141
239 16 22 44 70 62 107 40 85 59 104 89 88 22 -12 63 -7 113 12 23 9 27 16 27
50 0 21 -3 37 -7 35 -72 -37 -143 -53 -143 -32 0 7 5 17 10 20 13 8 13 25 1
25 -5 0 -30 -30 -54 -67z"/>
<path d="M2564 1529 c-16 -19 -34 -87 -34 -128 0 -19 10 -64 23 -100 l22 -66
3 78 c5 135 -1 232 -14 216z"/>
</g>
</svg>
