<?xml version="1.0" standalone="no"?>
<!DOCTYPE svg PUBLIC "-//W3C//DTD SVG 20010904//EN"
 "http://www.w3.org/TR/2001/REC-SVG-20010904/DTD/svg10.dtd">
<svg version="1.0" xmlns="http://www.w3.org/2000/svg"
 width="278.000000pt" height="329.000000pt" viewBox="0 0 278.000000 329.000000"
 preserveAspectRatio="xMidYMid meet">
<metadata>
Created by potrace 1.16, written by Peter Selinger 2001-2019
</metadata>
<g transform="translate(0.000000,329.000000) scale(0.100000,-0.100000)"
fill="#000000" stroke="none">
<path d="M2464 2998 c4 -62 9 -198 11 -303 11 -413 16 -486 47 -602 6 -24 15
-43 20 -43 5 0 16 17 24 38 8 20 19 45 24 54 14 24 12 49 -3 67 -11 12 -17 98
-26 351 -6 184 -14 383 -18 443 l-6 107 -39 0 -40 0 6 -112z"/>
<path d="M2378 2659 c-36 -20 -65 -92 -76 -184 -11 -101 -4 -178 29 -318 12
-51 32 -139 46 -196 42 -178 78 -202 84 -53 1 26 -49 272 -70 342 -17 55 -13
252 6 331 17 73 12 96 -19 78z"/>
<path d="M183 2374 c4 -93 10 -230 16 -304 7 -112 7 -138 -5 -151 -8 -8 -14
-31 -14 -51 0 -29 3 -34 22 -34 21 1 23 -5 30 -77 8 -85 25 -132 48 -132 20 0
30 90 18 173 -4 35 -6 67 -3 72 9 15 159 81 172 76 16 -7 17 -113 2 -171 -6
-22 -14 -71 -17 -109 l-7 -69 -47 -26 c-215 -120 -218 -122 -218 -157 0 -19 2
-34 3 -34 2 0 78 36 169 79 91 44 178 83 194 86 72 16 96 28 104 51 5 13 16
24 25 24 28 0 15 19 -19 29 -26 6 -46 5 -77 -5 -60 -21 -66 -11 -50 79 7 39
15 112 18 160 3 48 10 90 16 94 10 6 50 17 146 38 43 10 68 11 76 5 8 -7 24
-5 48 5 20 8 48 12 64 9 39 -8 60 17 47 54 -15 42 -51 49 -146 28 -46 -9 -99
-19 -118 -22 -19 -3 -49 -13 -66 -21 -46 -24 -64 -12 -64 40 0 63 -37 197 -61
223 -28 30 -68 39 -87 20 -13 -12 -10 -22 23 -76 28 -46 39 -78 46 -129 11
-90 2 -122 -42 -143 -48 -24 -129 -42 -139 -32 -5 5 -14 70 -20 144 -15 174
-35 303 -55 362 -32 90 -38 69 -32 -108z"/>
<path d="M1385 2363 c-41 -5 -122 -32 -167 -55 -26 -12 -38 -25 -38 -39 0 -17
4 -20 23 -15 12 4 74 18 137 31 119 25 185 23 185 -5 0 -8 -25 -34 -55 -59
-30 -24 -65 -59 -78 -78 -12 -18 -31 -33 -40 -33 -26 0 -76 -55 -69 -74 8 -20
46 -20 71 -1 25 19 55 19 62 0 11 -28 114 8 114 41 0 8 -11 26 -25 38 l-26 24
76 74 c82 82 90 105 49 137 -23 18 -39 21 -108 20 -44 -1 -94 -4 -111 -6z"/>
<path d="M1580 1975 c-25 -7 -72 -20 -104 -29 -33 -9 -64 -20 -70 -26 -5 -5
-20 -10 -32 -10 -21 0 -84 -60 -84 -80 0 -15 19 -12 110 20 50 18 126 35 183
42 88 10 100 13 109 34 9 19 8 28 -7 44 -20 22 -40 23 -105 5z"/>
<path d="M1566 1791 c-21 -30 -30 -62 -44 -157 -10 -65 -23 -129 -30 -141 -17
-30 -15 -62 4 -70 10 -4 30 8 56 34 l40 40 9 124 c4 68 11 143 15 167 9 55
-13 57 -50 3z"/>
<path d="M1540 1104 c-61 -19 -127 -33 -157 -33 -29 -1 -85 -7 -125 -15 -99
-20 -230 -34 -368 -41 -251 -13 -340 -23 -340 -39 0 -37 353 -40 640 -6 246
30 249 30 335 52 148 36 163 39 202 36 35 -3 38 -5 36 -31 -2 -31 -91 -135
-168 -197 -208 -167 -301 -240 -342 -268 -26 -18 -64 -43 -83 -57 -19 -13 -45
-29 -57 -34 -13 -6 -23 -14 -23 -19 0 -5 -26 -26 -57 -46 -32 -20 -85 -57
-118 -82 -33 -24 -74 -54 -92 -65 -33 -21 -49 -51 -38 -69 9 -15 155 -12 211
5 51 15 85 45 210 182 60 67 99 85 207 98 48 6 70 26 50 46 -5 5 -36 12 -70
15 -53 6 -64 4 -91 -16 -16 -12 -36 -20 -43 -18 -7 2 22 28 66 58 180 120 351
252 409 318 58 64 70 58 62 -33 -4 -42 -9 -82 -12 -90 -5 -12 -38 -36 -106
-79 -29 -17 -37 -36 -15 -36 7 0 29 9 50 19 20 10 39 15 42 11 3 -4 -4 -34
-15 -66 -11 -33 -20 -65 -20 -73 0 -26 -98 -219 -145 -285 l-46 -66 34 0 c41
0 59 18 120 127 51 89 83 168 126 306 15 49 34 93 42 98 42 26 207 -3 355 -64
119 -49 129 -61 94 -109 -11 -16 -27 -48 -35 -71 -8 -23 -23 -69 -35 -102 -11
-33 -22 -87 -23 -120 l-2 -60 44 -3 c37 -3 43 -1 37 13 -8 22 24 151 67 275
l34 95 34 -1 c50 -2 151 -22 161 -32 12 -12 -113 -258 -158 -310 l-36 -42 41
0 c44 0 57 13 104 106 52 103 67 156 67 235 l0 77 -76 18 c-83 19 -95 32 -72
73 9 14 30 53 48 86 18 33 41 72 51 87 24 33 24 38 1 38 -24 0 -47 -26 -117
-135 -33 -49 -62 -94 -66 -98 -4 -5 -44 9 -90 31 -77 37 -108 47 -249 82 -25
6 -74 9 -110 8 l-65 -3 -8 105 c-5 69 -4 120 3 148 13 51 4 67 -47 89 -54 22
-147 14 -263 -23z m-344 -664 c-20 -22 -36 -45 -36 -51 0 -22 -87 -112 -130
-134 -51 -26 -110 -41 -110 -28 0 24 274 253 302 253 6 0 -6 -18 -26 -40z"/>
</g>
</svg>
