<?xml version="1.0" standalone="no"?>
<!DOCTYPE svg PUBLIC "-//W3C//DTD SVG 20010904//EN"
 "http://www.w3.org/TR/2001/REC-SVG-20010904/DTD/svg10.dtd">
<svg version="1.0" xmlns="http://www.w3.org/2000/svg"
 width="264.000000pt" height="299.000000pt" viewBox="0 0 264.000000 299.000000"
 preserveAspectRatio="xMidYMid meet">
<metadata>
Created by potrace 1.16, written by Peter Selinger 2001-2019
</metadata>
<g transform="translate(0.000000,299.000000) scale(0.100000,-0.100000)"
fill="#000000" stroke="none">
<path d="M845 2541 c-30 -13 -72 -62 -89 -103 -17 -39 -21 -98 -8 -98 4 0 20
25 36 56 27 51 65 84 98 84 8 0 46 -15 85 -34 141 -68 176 -165 190 -533 7
-168 2 -183 -55 -198 -32 -8 -142 -73 -159 -94 -7 -8 -13 -36 -13 -62 0 -26
-9 -88 -21 -139 -11 -50 -18 -98 -14 -108 5 -15 10 -13 35 15 35 39 60 118 60
189 0 29 3 59 6 68 13 34 148 94 161 72 4 -6 11 -94 15 -196 11 -258 19 -351
29 -344 5 3 9 29 9 57 1 29 7 79 15 112 10 41 15 117 15 238 l0 177 40 16 c22
9 45 25 51 35 5 11 16 19 23 19 16 0 41 28 33 36 -3 3 -12 2 -19 -2 -7 -5 -29
-10 -48 -11 -19 -1 -44 -3 -55 -5 -24 -4 -33 39 -35 152 0 41 -5 107 -11 145
-5 39 -14 103 -19 143 -12 92 -37 148 -92 208 -66 72 -208 129 -263 105z"/>
<path d="M1886 2448 c-7 -23 -68 -341 -75 -388 -11 -85 -6 -183 12 -215 9 -16
22 -42 29 -57 7 -16 15 -28 18 -28 3 0 6 75 8 168 1 105 9 197 19 247 20 99
24 276 6 282 -7 3 -15 -1 -17 -9z"/>
<path d="M181 2344 c0 -11 3 -14 6 -6 3 7 2 16 -1 19 -3 4 -6 -2 -5 -13z"/>
<path d="M2079 1768 c-52 -68 -107 -141 -122 -164 -15 -22 -46 -64 -70 -92
-100 -121 -222 -318 -233 -379 -5 -27 -1 -40 21 -69 25 -33 31 -36 67 -31 41
6 81 33 75 51 -2 6 -19 13 -38 16 -54 8 -49 35 25 160 36 60 66 112 66 116 0
3 14 23 30 44 84 106 246 349 272 407 13 29 16 49 10 55 -6 6 -43 -34 -103
-114z"/>
<path d="M449 1642 c-103 -111 -199 -229 -234 -287 -32 -54 -35 -66 -35 -134
l0 -76 23 40 c13 22 31 59 40 83 20 50 113 188 169 250 50 55 119 162 112 173
-10 17 -22 9 -75 -49z"/>
</g>
</svg>
