<?xml version="1.0" standalone="no"?>
<!DOCTYPE svg PUBLIC "-//W3C//DTD SVG 20010904//EN"
 "http://www.w3.org/TR/2001/REC-SVG-20010904/DTD/svg10.dtd">
<svg version="1.0" xmlns="http://www.w3.org/2000/svg"
 width="269.000000pt" height="408.000000pt" viewBox="0 0 269.000000 408.000000"
 preserveAspectRatio="xMidYMid meet">
<metadata>
Created by potrace 1.16, written by Peter Selinger 2001-2019
</metadata>
<g transform="translate(0.000000,408.000000) scale(0.100000,-0.100000)"
fill="#000000" stroke="none">
<path d="M2424 2539 c-17 -19 -66 -164 -144 -431 -16 -53 -33 -105 -39 -116
-5 -10 -28 -89 -50 -176 -32 -121 -39 -162 -31 -177 15 -27 27 -16 33 28 5 40
72 244 114 350 13 33 28 87 32 117 4 31 13 62 19 68 7 7 12 18 12 26 0 8 6 28
14 45 40 88 74 196 72 234 -1 52 -8 59 -32 32z"/>
<path d="M1372 2247 c-21 -24 -36 -193 -35 -385 l1 -193 -36 -19 c-20 -11 -66
-33 -102 -51 -80 -38 -100 -55 -100 -86 0 -36 29 -41 54 -10 12 15 27 27 34
27 6 0 36 12 67 27 41 20 58 24 66 16 8 -8 13 -88 15 -250 4 -238 7 -283 23
-283 10 0 21 209 21 421 0 207 -7 196 150 230 71 15 91 32 60 49 -28 15 -109
7 -153 -15 -56 -28 -59 -15 -52 260 4 132 8 245 10 252 6 18 -11 25 -23 10z"/>
<path d="M2488 2078 c-10 -15 -18 -30 -18 -33 0 -3 -17 -41 -39 -83 -107 -216
-244 -629 -221 -672 18 -33 136 -40 236 -13 63 17 64 18 64 51 0 23 -4 33 -12
29 -59 -21 -168 -39 -194 -30 -43 14 -41 49 6 188 23 66 46 138 52 160 6 22
17 47 24 56 8 8 14 27 14 41 0 14 9 33 20 43 11 10 20 24 20 32 0 7 16 44 36
83 29 58 35 78 32 122 l-3 52 -17 -26z"/>
<path d="M1047 2043 c-3 -4 -10 -33 -16 -63 -14 -70 -75 -296 -90 -333 -6 -15
-22 -60 -35 -100 -14 -40 -38 -108 -55 -151 -35 -91 -46 -136 -34 -136 17 1
136 277 158 366 7 28 17 60 24 72 6 11 11 35 11 52 0 18 9 45 21 61 11 16 24
53 28 82 4 29 14 62 21 74 10 16 12 29 5 49 -10 28 -29 41 -38 27z"/>
<path d="M960 1316 c0 -35 4 -86 9 -113 6 -28 13 -114 17 -191 7 -136 14 -175
31 -159 11 11 8 304 -4 409 -10 82 -23 118 -44 118 -5 0 -9 -29 -9 -64z"/>
<path d="M780 1209 c0 -5 5 -7 10 -4 6 3 10 8 10 11 0 2 -4 4 -10 4 -5 0 -10
-5 -10 -11z"/>
</g>
</svg>
