<?xml version="1.0" standalone="no"?>
<!DOCTYPE svg PUBLIC "-//W3C//DTD SVG 20010904//EN"
 "http://www.w3.org/TR/2001/REC-SVG-20010904/DTD/svg10.dtd">
<svg version="1.0" xmlns="http://www.w3.org/2000/svg"
 width="321.000000pt" height="303.000000pt" viewBox="0 0 321.000000 303.000000"
 preserveAspectRatio="xMidYMid meet">
<metadata>
Created by potrace 1.16, written by Peter Selinger 2001-2019
</metadata>
<g transform="translate(0.000000,303.000000) scale(0.100000,-0.100000)"
fill="#000000" stroke="none">
<path d="M1017 2413 c-3 -5 -1 -26 3 -48 17 -73 34 -282 45 -525 3 -74 10
-178 15 -230 5 -52 12 -151 15 -220 7 -133 18 -188 42 -207 9 -7 12 -19 9 -31
-4 -11 -2 -23 4 -27 17 -11 42 16 36 39 -5 21 -25 280 -47 586 -28 404 -58
610 -94 649 -13 12 -25 19 -28 14z"/>
<path d="M1716 2298 c-22 -31 -20 -47 8 -58 16 -6 26 -20 31 -42 3 -18 12 -53
20 -78 7 -25 20 -79 29 -120 26 -119 38 -152 73 -204 47 -70 58 -75 139 -76
62 0 76 4 117 31 47 31 58 54 35 77 -19 19 -58 14 -90 -13 -37 -31 -69 -40
-105 -28 -40 14 -67 60 -87 149 -9 44 -25 113 -36 154 -10 41 -22 95 -25 120
-12 94 -72 142 -109 88z"/>
<path d="M355 2248 c-2 -7 -11 -38 -20 -68 -10 -30 -27 -71 -39 -90 -12 -19
-29 -51 -36 -70 -8 -19 -29 -60 -48 -90 -39 -66 -40 -105 -2 -105 20 0 31 11
52 50 15 28 37 75 48 105 12 30 27 69 35 85 22 50 49 161 42 178 -8 20 -26 22
-32 5z"/>
<path d="M626 2207 c-15 -19 -26 -40 -26 -48 0 -8 -6 -26 -14 -40 -7 -14 -19
-49 -26 -78 -6 -28 -23 -68 -37 -87 -13 -20 -22 -43 -19 -50 12 -30 41 4 92
110 30 61 65 131 79 155 19 33 22 47 14 58 -18 21 -36 15 -63 -20z"/>
<path d="M1280 1837 c0 -13 -4 -27 -9 -32 -5 -6 -12 -87 -15 -182 -7 -165 -6
-173 13 -192 12 -12 28 -21 36 -21 13 0 14 27 10 193 -3 105 -8 207 -11 225
-6 37 -24 44 -24 9z"/>
<path d="M1350 1751 c-15 -29 -12 -50 10 -78 21 -27 27 -96 10 -123 -5 -8 -5
-19 -1 -25 5 -5 11 -43 14 -84 7 -84 18 -104 45 -78 15 16 17 36 14 173 -3
160 -15 215 -47 228 -26 10 -34 7 -45 -13z"/>
<path d="M180 1635 c0 -38 3 -44 23 -47 19 -3 22 -10 25 -48 2 -38 -1 -50 -23
-70 -33 -31 -36 -90 -4 -90 16 0 20 -4 14 -17 -25 -67 -35 -140 -35 -266 0
-128 1 -139 18 -132 9 3 44 15 77 26 33 11 80 32 104 46 l44 26 27 -33 c30
-37 57 -36 84 5 32 48 63 16 36 -36 -15 -28 12 -104 36 -104 14 0 20 11 26 42
4 23 11 50 16 60 16 30 0 168 -22 192 -11 12 -25 21 -33 21 -27 0 -6 114 49
272 26 74 15 101 -40 96 -34 -3 -39 -8 -80 -82 -50 -90 -50 -120 -1 -85 43 30
57 12 26 -34 -13 -19 -30 -64 -37 -99 -21 -110 -40 -133 -140 -167 -36 -13
-85 -34 -109 -47 -25 -14 -48 -21 -53 -16 -4 4 -2 30 6 58 7 27 24 94 36 149
37 171 37 172 74 193 19 11 60 26 93 32 68 14 83 24 83 56 0 39 -76 74 -95 44
-10 -16 -85 -51 -95 -45 -6 3 -10 17 -10 30 0 57 -25 86 -91 105 -29 9 -29 8
-29 -35z"/>
<path d="M1964 1423 c-56 -146 -65 -172 -74 -216 -4 -21 -13 -44 -19 -50 -15
-15 -14 -60 1 -75 16 -16 53 -15 67 2 7 8 9 25 5 41 -4 15 2 57 14 103 58 212
74 302 54 302 -4 0 -26 -48 -48 -107z"/>
</g>
</svg>
