<?xml version="1.0" standalone="no"?>
<!DOCTYPE svg PUBLIC "-//W3C//DTD SVG 20010904//EN"
 "http://www.w3.org/TR/2001/REC-SVG-20010904/DTD/svg10.dtd">
<svg version="1.0" xmlns="http://www.w3.org/2000/svg"
 width="293.000000pt" height="428.000000pt" viewBox="0 0 293.000000 428.000000"
 preserveAspectRatio="xMidYMid meet">
<metadata>
Created by potrace 1.16, written by Peter Selinger 2001-2019
</metadata>
<g transform="translate(0.000000,428.000000) scale(0.100000,-0.100000)"
fill="#000000" stroke="none">
<path d="M2723 3985 c-29 -44 -30 -81 -2 -95 11 -7 23 -10 25 -7 3 3 4 34 2
70 l-3 66 -22 -34z"/>
<path d="M1643 3913 c-26 -56 -10 -109 73 -238 85 -133 172 -174 102 -48 -61
109 -148 286 -148 300 0 22 -14 15 -27 -14z"/>
<path d="M1102 2343 c-86 -124 -240 -471 -225 -510 6 -16 33 -17 33 -2 0 21
81 202 113 253 18 28 37 62 43 76 6 14 39 58 73 99 34 41 61 81 59 90 -2 10
-16 17 -40 19 -30 3 -39 -2 -56 -25z"/>
<path d="M2647 2195 c-38 -13 -81 -30 -95 -38 -165 -83 -183 -97 -162 -122 20
-24 46 -18 115 24 36 21 91 48 122 61 32 12 66 26 75 31 26 13 28 12 28 -21 0
-28 -10 -57 -82 -240 -34 -88 -69 -220 -62 -232 8 -12 32 9 40 35 4 12 33 77
65 145 l59 123 0 130 c0 149 6 143 -103 104z"/>
<path d="M794 2049 c-3 -6 -27 -21 -53 -32 -43 -20 -60 -22 -279 -19 -231 3
-272 -2 -272 -32 0 -7 8 -20 18 -29 15 -14 47 -16 237 -14 217 3 221 3 280 30
56 26 118 83 108 100 -6 11 -31 9 -39 -4z"/>
<path d="M1140 1973 c0 -5 5 -14 11 -20 8 -8 5 -25 -14 -65 -13 -29 -30 -69
-36 -88 -22 -70 -38 -258 -36 -425 2 -151 5 -180 28 -254 25 -81 49 -122 63
-108 4 4 -1 49 -10 100 -21 107 -25 431 -7 557 13 89 42 222 51 233 3 4 28 0
56 -8 95 -29 162 -15 152 32 -3 13 -12 17 -35 16 -18 -2 -63 4 -100 13 -109
25 -123 27 -123 17z"/>
<path d="M2257 1743 c-48 -68 -58 -102 -68 -226 -12 -147 1 -276 38 -392 35
-108 67 -154 133 -190 48 -26 64 -29 128 -27 66 1 144 16 230 43 29 10 32 14
32 50 0 37 -1 38 -25 29 -14 -5 -69 -21 -122 -36 -162 -43 -230 -25 -286 79
-42 75 -63 175 -72 342 -5 100 -3 135 13 208 13 55 28 97 41 111 26 27 27 46
3 46 -10 0 -31 -17 -45 -37z"/>
<path d="M2370 1595 c-11 -28 -6 -47 22 -87 21 -30 64 -38 86 -15 7 6 39 26
70 42 31 17 57 37 57 45 0 22 -43 24 -80 4 -33 -17 -33 -17 -65 9 -41 35 -77
35 -90 2z"/>
</g>
</svg>
