<?xml version="1.0" standalone="no"?>
<!DOCTYPE svg PUBLIC "-//W3C//DTD SVG 20010904//EN"
 "http://www.w3.org/TR/2001/REC-SVG-20010904/DTD/svg10.dtd">
<svg version="1.0" xmlns="http://www.w3.org/2000/svg"
 width="222.000000pt" height="310.000000pt" viewBox="0 0 222.000000 310.000000"
 preserveAspectRatio="xMidYMid meet">
<metadata>
Created by potrace 1.16, written by Peter Selinger 2001-2019
</metadata>
<g transform="translate(0.000000,310.000000) scale(0.100000,-0.100000)"
fill="#000000" stroke="none">
<path d="M1055 2274 c-151 -136 -302 -259 -391 -319 -46 -31 -84 -61 -84 -66
0 -5 10 -14 23 -20 19 -9 31 -5 75 25 57 38 153 118 214 179 35 35 93 66 104
55 2 -3 -3 -25 -12 -49 -20 -58 -40 -428 -40 -734 1 -244 6 -275 47 -275 18 0
20 4 12 33 -10 41 -6 522 7 740 14 228 30 293 98 390 56 78 20 106 -53 41z"/>
<path d="M1994 1996 c-41 -18 -50 -34 -31 -53 10 -11 24 -13 46 -8 27 6 31 11
31 41 0 38 -2 39 -46 20z"/>
<path d="M1953 1870 c-29 -12 -32 -26 -34 -170 -1 -123 -25 -304 -68 -510 -24
-117 -29 -172 -16 -176 11 -4 46 115 69 231 8 39 21 90 30 114 9 24 16 56 16
72 0 15 5 40 10 54 9 24 20 164 24 290 1 23 9 52 18 67 24 37 3 49 -49 28z"/>
<path d="M2022 1748 c-16 -16 -15 -33 3 -48 13 -11 15 -7 15 24 0 40 -1 41
-18 24z"/>
<path d="M1124 1625 c-14 -36 31 -115 66 -115 29 0 33 18 11 46 -12 15 -21 32
-21 39 0 12 -31 45 -44 45 -3 0 -9 -7 -12 -15z"/>
<path d="M1995 1358 c-51 -38 -50 -35 -35 -53 16 -19 54 -19 69 -1 7 8 11 30
9 49 l-3 34 -40 -29z"/>
</g>
</svg>
