<?xml version="1.0" standalone="no"?>
<!DOCTYPE svg PUBLIC "-//W3C//DTD SVG 20010904//EN"
 "http://www.w3.org/TR/2001/REC-SVG-20010904/DTD/svg10.dtd">
<svg version="1.0" xmlns="http://www.w3.org/2000/svg"
 width="235.000000pt" height="408.000000pt" viewBox="0 0 235.000000 408.000000"
 preserveAspectRatio="xMidYMid meet">
<metadata>
Created by potrace 1.16, written by Peter Selinger 2001-2019
</metadata>
<g transform="translate(0.000000,408.000000) scale(0.100000,-0.100000)"
fill="#000000" stroke="none">
<path d="M1873 2590 c-99 -15 -103 -17 -103 -53 0 -47 15 -59 54 -42 17 7 57
21 89 31 56 17 59 17 104 -2 69 -28 88 -67 86 -170 0 -49 -9 -108 -23 -153
-14 -49 -18 -77 -12 -83 15 -15 34 1 27 22 -4 12 3 23 21 34 16 11 23 23 20
33 -4 9 -1 22 6 31 9 10 13 52 13 131 0 103 -3 120 -23 152 -12 21 -34 45 -49
54 -31 21 -131 28 -210 15z"/>
<path d="M1054 2539 c-17 -19 -66 -164 -144 -431 -16 -53 -33 -105 -39 -116
-5 -10 -28 -89 -50 -176 -32 -121 -39 -162 -31 -177 15 -27 27 -16 33 28 5 40
72 244 114 350 13 33 28 87 32 117 4 31 13 62 19 68 7 7 12 18 12 26 0 8 6 28
14 45 40 88 74 196 72 234 -1 52 -8 59 -32 32z"/>
<path d="M1907 2393 c-36 -6 -65 -47 -47 -68 7 -8 23 -15 37 -15 28 0 88 24
97 38 7 12 -32 53 -48 51 -6 -1 -23 -4 -39 -6z"/>
<path d="M1657 2362 c-21 -23 -22 -78 -1 -148 19 -66 47 -104 64 -87 8 7 9 17
4 25 -5 7 -13 60 -19 117 -5 58 -15 106 -21 108 -6 2 -18 -5 -27 -15z"/>
<path d="M1917 2166 c-6 -16 2 -28 14 -20 12 7 11 34 0 34 -5 0 -11 -6 -14
-14z"/>
<path d="M1822 2138 c-34 -17 -20 -33 29 -33 38 0 44 3 47 23 3 18 -1 22 -25
21 -15 0 -38 -5 -51 -11z"/>
<path d="M1116 2075 c-9 -13 -16 -27 -16 -30 0 -3 -17 -41 -39 -83 -107 -216
-244 -629 -221 -672 19 -35 134 -39 253 -9 93 24 109 34 105 63 -4 25 -15 25
-141 -6 -110 -26 -150 -19 -155 27 -2 17 16 84 38 150 23 66 46 138 52 160 6
22 17 47 24 56 8 8 14 27 14 41 0 14 9 33 20 43 11 10 20 24 20 32 0 7 16 44
35 82 19 37 35 75 35 82 0 8 7 25 16 37 17 25 13 52 -10 52 -7 0 -21 -11 -30
-25z"/>
<path d="M2025 2036 c-22 -7 -55 -20 -73 -30 -45 -24 -197 -66 -257 -73 -99
-10 -130 -36 -81 -69 23 -14 31 -14 105 1 43 9 97 25 120 35 63 31 111 21 80
-16 -7 -9 -16 -41 -20 -72 -4 -32 -13 -95 -20 -142 -15 -107 -7 -225 17 -251
27 -29 35 -9 26 60 -5 34 -5 79 -1 99 5 20 17 108 28 195 21 175 28 191 89
202 38 7 95 51 86 67 -7 11 -52 9 -99 -6z"/>
<path d="M180 1725 c0 -28 29 -35 49 -11 10 12 8 17 -8 25 -31 17 -41 13 -41
-14z"/>
<path d="M2100 1700 c-14 -5 -40 -13 -59 -17 -43 -10 -60 -35 -41 -58 35 -42
165 8 158 60 -3 22 -21 27 -58 15z"/>
<path d="M1706 1660 c-14 -17 -26 -44 -26 -59 0 -15 -4 -31 -8 -36 -5 -6 -17
-39 -27 -74 -25 -84 -28 -276 -5 -276 11 0 18 20 25 77 6 42 13 80 18 84 4 4
17 -2 30 -13 61 -57 382 -203 446 -203 19 0 13 60 -6 66 -61 19 -204 78 -233
96 -72 44 -138 77 -179 88 -51 14 -58 28 -37 83 9 24 16 50 16 58 0 9 11 33
26 54 45 68 11 115 -40 55z"/>
<path d="M1234 1505 c-13 -32 3 -180 23 -226 26 -56 59 -87 76 -70 9 9 8 22
-7 59 -10 26 -21 70 -26 98 -4 28 -13 61 -19 72 -6 11 -11 29 -11 40 0 11 -7
25 -15 32 -12 10 -16 9 -21 -5z"/>
</g>
</svg>
