<?xml version="1.0" standalone="no"?>
<!DOCTYPE svg PUBLIC "-//W3C//DTD SVG 20010904//EN"
 "http://www.w3.org/TR/2001/REC-SVG-20010904/DTD/svg10.dtd">
<svg version="1.0" xmlns="http://www.w3.org/2000/svg"
 width="156.000000pt" height="251.000000pt" viewBox="0 0 156.000000 251.000000"
 preserveAspectRatio="xMidYMid meet">
<metadata>
Created by potrace 1.16, written by Peter Selinger 2001-2019
</metadata>
<g transform="translate(0.000000,251.000000) scale(0.100000,-0.100000)"
fill="#000000" stroke="none">
<path d="M480 2172 c0 -6 20 -25 45 -42 43 -30 151 -148 209 -228 33 -46 46
-46 46 2 0 56 -84 167 -180 239 -38 28 -120 48 -120 29z"/>
<path d="M963 1936 c-2 -58 -28 -158 -58 -223 -23 -51 -26 -53 -63 -53 -44 0
-83 -22 -62 -35 7 -5 27 -11 44 -15 28 -6 31 -10 28 -39 -1 -17 -18 -61 -38
-97 -42 -76 -36 -99 16 -68 35 21 53 49 69 111 7 24 22 55 35 69 20 24 25 25
45 15 28 -15 22 -50 -15 -94 -13 -16 -24 -33 -24 -38 0 -19 -93 -118 -121
-129 -29 -12 -63 -64 -126 -192 -40 -82 -42 -110 -6 -138 22 -17 35 -20 72
-14 56 7 168 42 196 61 11 7 37 13 58 13 45 0 58 21 31 51 -15 17 -26 20 -57
15 -21 -4 -50 -14 -65 -24 -42 -27 -93 -44 -149 -49 -61 -6 -76 10 -49 52 9
13 28 46 42 72 50 91 69 114 115 138 59 31 63 36 136 184 57 118 60 127 45
144 -12 13 -28 17 -57 15 -48 -3 -47 -17 -15 197 11 76 7 115 -13 115 -7 0
-13 -17 -14 -44z"/>
<path d="M186 1698 c-3 -13 -6 -38 -6 -57 l0 -34 20 26 c23 29 27 87 6 87 -7
0 -16 -10 -20 -22z"/>
<path d="M530 939 c0 -5 12 -9 28 -10 26 0 219 -16 272 -22 14 -2 32 -6 40 -9
8 -4 29 -9 45 -13 17 -4 37 -12 45 -19 8 -8 48 -16 88 -19 41 -3 80 -11 88
-18 10 -8 21 -9 37 -2 27 12 67 0 67 -21 0 -10 6 -13 16 -9 10 4 22 0 28 -9 6
-8 22 -17 36 -20 14 -3 33 -9 43 -13 14 -6 17 -2 17 29 0 25 -4 36 -15 36 -8
0 -19 9 -25 19 -12 23 -73 45 -103 37 -11 -3 -35 1 -51 8 -17 7 -65 24 -106
36 -68 22 -95 24 -312 26 -134 1 -238 -2 -238 -7z"/>
</g>
</svg>
