<?xml version="1.0" standalone="no"?>
<!DOCTYPE svg PUBLIC "-//W3C//DTD SVG 20010904//EN"
 "http://www.w3.org/TR/2001/REC-SVG-20010904/DTD/svg10.dtd">
<svg version="1.0" xmlns="http://www.w3.org/2000/svg"
 width="283.000000pt" height="368.000000pt" viewBox="0 0 283.000000 368.000000"
 preserveAspectRatio="xMidYMid meet">
<metadata>
Created by potrace 1.16, written by Peter Selinger 2001-2019
</metadata>
<g transform="translate(0.000000,368.000000) scale(0.100000,-0.100000)"
fill="#000000" stroke="none">
<path d="M193 2653 c-7 -2 -13 -18 -13 -34 0 -26 2 -28 19 -19 36 19 70 11
109 -24 36 -34 37 -36 36 -108 0 -41 -6 -84 -14 -98 -23 -43 -83 -110 -117
-131 -22 -14 -33 -28 -33 -44 0 -22 2 -23 31 -12 40 15 146 128 170 181 25 56
25 138 -2 193 -36 73 -127 121 -186 96z"/>
<path d="M1353 2571 c-33 -15 -53 -36 -87 -88 -67 -105 -88 -152 -96 -219 -12
-93 2 -153 45 -189 l35 -30 2 -234 c2 -162 6 -235 14 -238 16 -5 21 29 34 237
12 192 25 250 57 250 23 0 135 99 127 111 -3 6 -24 -1 -48 -15 -23 -14 -55
-26 -72 -28 -27 -3 -29 -1 -28 33 1 20 11 50 23 67 22 32 28 86 10 98 -31 19
-99 -100 -99 -173 0 -32 -28 -30 -41 4 -13 35 -2 103 29 183 34 87 77 146 137
188 28 19 50 39 50 45 0 20 -47 18 -92 -2z"/>
<path d="M2515 2498 c-2 -7 -9 -57 -15 -111 -12 -113 -24 -174 -45 -224 -9
-20 -34 -104 -56 -187 -23 -83 -50 -173 -60 -201 -27 -76 -51 -205 -47 -266 3
-58 21 -74 26 -24 6 66 44 213 68 265 14 30 41 109 61 175 19 66 48 154 63
195 56 144 80 290 61 360 -7 27 -48 41 -56 18z"/>
<path d="M919 2441 c-104 -73 -233 -207 -276 -287 -40 -76 -75 -177 -71 -206
2 -13 10 -24 19 -26 13 -2 18 8 23 46 3 27 19 68 34 93 15 24 34 57 42 72 8
16 55 69 104 119 85 84 175 148 261 184 19 8 35 19 35 24 0 11 -53 40 -73 40
-7 0 -52 -27 -98 -59z"/>
<path d="M211 2076 c-21 -22 -31 -41 -29 -55 3 -18 8 -14 40 29 43 58 36 74
-11 26z"/>
<path d="M192 1945 c-7 -14 -12 -61 -11 -103 l1 -77 13 51 c15 64 24 154 15
154 -4 0 -12 -11 -18 -25z"/>
<path d="M894 1925 c-90 -217 -57 -535 57 -535 42 0 44 18 5 34 -45 19 -51 47
-51 236 1 112 5 156 18 194 18 49 15 106 -4 106 -6 0 -17 -16 -25 -35z"/>
<path d="M2500 1678 c1 -19 48 -77 103 -127 l47 -44 0 40 c0 43 -20 67 -97
116 -48 31 -53 32 -53 15z"/>
<path d="M435 1601 c-118 -67 -147 -86 -165 -108 -25 -32 -26 -52 -2 -31 9 9
46 29 82 46 78 37 139 86 125 100 -7 7 -20 4 -40 -7z"/>
<path d="M180 1348 c0 -16 4 -28 9 -28 18 0 20 17 6 36 -14 18 -14 18 -15 -8z"/>
<path d="M1093 1333 c-16 -42 72 -58 239 -43 167 14 210 22 216 38 4 12 1 12
-332 16 -84 1 -120 -2 -123 -11z"/>
<path d="M290 1270 c-30 -11 -67 -19 -82 -19 -23 -1 -28 -6 -28 -26 0 -32 14
-32 98 1 75 30 94 42 86 55 -6 11 -7 11 -74 -11z"/>
<path d="M892 284 c-29 -20 -28 -35 7 -68 25 -24 33 -26 62 -19 46 12 50 42 9
77 -37 30 -47 32 -78 10z"/>
<path d="M1121 224 c-29 -37 -26 -44 13 -44 38 0 52 20 36 51 -14 26 -25 24
-49 -7z"/>
<path d="M2035 190 c-4 -6 7 -10 25 -10 18 0 29 4 25 10 -3 6 -15 10 -25 10
-10 0 -22 -4 -25 -10z"/>
</g>
</svg>
