<?xml version="1.0" standalone="no"?>
<!DOCTYPE svg PUBLIC "-//W3C//DTD SVG 20010904//EN"
 "http://www.w3.org/TR/2001/REC-SVG-20010904/DTD/svg10.dtd">
<svg version="1.0" xmlns="http://www.w3.org/2000/svg"
 width="817.000000pt" height="251.000000pt" viewBox="0 0 817.000000 251.000000"
 preserveAspectRatio="xMidYMid meet">
<metadata>
Created by potrace 1.16, written by Peter Selinger 2001-2019
</metadata>
<g transform="translate(0.000000,251.000000) scale(0.100000,-0.100000)"
fill="#000000" stroke="none">
<path d="M2951 2263 c-6 -38 -15 -124 -21 -193 -5 -69 -16 -174 -25 -235 -8
-60 -30 -234 -50 -385 -20 -151 -40 -306 -45 -345 -6 -38 -14 -115 -19 -170
-18 -184 -41 -376 -51 -418 -5 -23 -10 -57 -10 -76 0 -19 -5 -50 -12 -68 -10
-28 -10 -36 4 -49 14 -14 20 -13 66 10 60 30 60 30 68 92 7 63 7 69 -1 132 -9
59 8 176 32 231 8 18 19 65 24 104 5 39 15 77 23 86 24 28 83 116 101 152 16
31 47 71 196 257 93 117 179 252 179 282 0 19 5 30 14 30 39 0 27 47 -12 52
-37 4 -43 45 -11 69 l22 16 -20 34 c-37 61 -17 149 27 121 11 -6 33 -12 49
-12 16 0 42 -7 57 -15 33 -17 74 -20 74 -5 0 6 -5 10 -11 10 -16 0 -91 48
-155 99 -40 32 -54 50 -52 65 2 15 -2 20 -14 18 -12 -2 -18 6 -20 29 -4 40
-44 72 -54 44 -5 -12 0 -23 16 -35 18 -13 20 -21 13 -35 -10 -17 -12 -16 -27
7 -17 26 -38 37 -114 57 -24 7 -46 19 -49 27 -7 19 33 51 80 64 20 6 37 13 37
15 0 3 -67 5 -149 5 l-149 0 -11 -67z m327 -184 c5 -32 21 -50 41 -47 30 5 22
-17 -9 -23 -17 -4 -37 -14 -43 -23 -10 -14 -18 -15 -39 -7 -21 8 -25 15 -21
33 3 13 10 28 15 35 5 6 8 17 7 25 -1 7 -1 24 0 37 1 22 2 23 24 9 12 -9 24
-26 25 -39z m14 -139 c-4 -34 -18 -46 -35 -31 -12 9 -12 17 -3 36 14 32 42 28
38 -5z"/>
<path d="M3327 2314 c-14 -14 -7 -35 11 -32 9 2 17 10 17 17 0 16 -18 25 -28
15z"/>
<path d="M3806 2311 c-4 -5 -2 -12 3 -15 5 -4 12 -2 15 3 4 5 2 12 -3 15 -5 4
-12 2 -15 -3z"/>
<path d="M3410 2264 c0 -9 5 -14 12 -12 18 6 21 28 4 28 -9 0 -16 -7 -16 -16z"/>
<path d="M3220 2240 c0 -5 5 -10 11 -10 5 0 7 5 4 10 -3 6 -8 10 -11 10 -2 0
-4 -4 -4 -10z"/>
<path d="M855 1678 c-52 -28 -175 -172 -235 -273 -45 -77 -63 -92 -258 -208
-74 -43 -109 -57 -147 -57 -33 0 -35 -2 -35 -35 0 -41 2 -41 89 -15 48 14 76
30 101 55 19 20 58 49 86 65 28 16 59 39 69 50 23 26 41 25 48 -1 6 -20 10
-21 64 -15 109 14 108 15 107 -19 -1 -16 -7 -42 -13 -57 -9 -25 -16 -28 -56
-28 -56 0 -131 -18 -145 -35 -7 -8 -4 -17 10 -30 16 -14 24 -15 51 -6 44 15
69 14 69 -4 0 -19 -37 -38 -62 -32 -12 3 -18 1 -15 -6 2 -7 21 -13 42 -15 32
-3 43 2 77 35 l39 38 106 0 c66 0 108 4 110 11 2 5 -29 18 -69 29 -93 23 -101
30 -93 74 15 84 12 105 -18 119 -22 11 -39 11 -79 2 -63 -13 -76 -4 -53 39 25
49 185 218 250 263 53 38 56 42 39 55 -22 16 -52 16 -79 1z"/>
<path d="M7951 1199 c-27 -16 -44 -19 -81 -14 -44 6 -50 4 -80 -25 -23 -22
-39 -30 -54 -26 -12 3 -28 1 -36 -4 -13 -9 -13 -11 0 -20 8 -5 26 -10 40 -11
14 -1 34 -3 45 -3 11 -1 34 6 52 15 24 13 47 17 92 13 l61 -4 0 50 c0 27 -1
50 -2 49 -2 0 -18 -9 -37 -20z"/>
<path d="M7600 1100 c0 -5 5 -10 10 -10 6 0 10 5 10 10 0 6 -4 10 -10 10 -5 0
-10 -4 -10 -10z"/>
<path d="M7430 1073 c-58 -8 -117 -21 -132 -29 -14 -8 -53 -14 -88 -14 -52 0
-67 -4 -92 -25 -26 -22 -37 -24 -100 -22 -53 2 -72 7 -79 20 -6 9 -21 17 -35
17 -14 0 -38 9 -53 21 -27 20 -30 20 -55 4 -14 -10 -26 -25 -26 -35 0 -10 -21
-37 -46 -59 -26 -23 -58 -56 -71 -74 -13 -17 -31 -31 -39 -29 -12 2 -14 -2 -9
-17 5 -16 -3 -26 -35 -48 -23 -15 -74 -56 -114 -90 -41 -35 -77 -63 -80 -63
-4 0 -22 -11 -39 -24 -18 -13 -45 -30 -62 -38 -53 -27 -79 -42 -115 -68 -38
-27 -88 -49 -133 -57 -15 -3 -34 -15 -42 -26 -18 -26 -147 -52 -177 -36 -10 6
-24 7 -30 3 -22 -14 -60 -13 -93 0 -30 13 -68 6 -53 -9 7 -7 215 -58 278 -68
62 -11 213 -9 269 2 54 11 80 31 81 62 0 9 16 24 36 34 28 13 35 21 31 37 -4
12 1 21 11 25 9 4 30 16 45 27 25 18 28 26 23 58 -5 33 -3 39 26 61 41 31 137
49 184 34 45 -14 140 7 154 34 6 10 17 19 24 19 7 0 21 9 30 19 27 29 63 34
94 13 15 -10 51 -26 80 -36 l53 -18 27 25 c26 24 45 29 140 43 23 4 45 10 47
14 6 10 87 1 100 -11 5 -5 31 -9 59 -9 40 0 55 5 77 26 15 15 25 33 22 40 -6
16 -65 19 -93 4 -13 -7 -22 -6 -32 4 -20 19 -55 29 -63 16 -13 -20 -45 -9 -71
25 l-27 36 24 27 c34 38 42 43 62 38 9 -2 30 1 46 7 25 9 29 15 25 37 -5 23
-1 27 51 45 32 10 72 19 91 19 36 0 45 10 18 20 -9 3 -16 5 -17 5 -1 -1 -49
-8 -107 -16z m-280 -158 c16 -30 11 -36 -28 -40 -16 -1 -34 -5 -40 -9 -8 -4
-16 3 -22 19 -12 32 -4 48 21 42 10 -3 22 -1 25 4 10 17 30 9 44 -16z m70 -3
c0 -13 -12 -22 -22 -16 -10 6 -1 24 13 24 5 0 9 -4 9 -8z m-190 -53 c0 -5 -4
-9 -10 -9 -5 0 -10 7 -10 16 0 8 5 12 10 9 6 -3 10 -10 10 -16z"/>
<path d="M7590 1070 c0 -5 5 -10 10 -10 6 0 10 5 10 10 0 6 -4 10 -10 10 -5 0
-10 -4 -10 -10z"/>
<path d="M7540 1030 c0 -5 9 -10 20 -10 11 0 20 5 20 10 0 6 -9 10 -20 10 -11
0 -20 -4 -20 -10z"/>
<path d="M7657 1026 c-5 -11 -14 -14 -36 -10 -24 5 -30 2 -36 -16 -9 -28 -2
-34 24 -20 15 8 27 8 42 0 11 -7 27 -9 35 -6 8 3 25 1 39 -4 15 -6 26 -6 30 0
4 6 -6 15 -22 21 -15 6 -38 19 -49 30 -18 17 -22 18 -27 5z"/>
<path d="M919 917 c-71 -57 -183 -126 -239 -148 -31 -12 -45 -23 -45 -35 0
-45 102 -11 192 62 23 19 44 31 46 27 3 -5 -26 -71 -64 -148 -53 -107 -79
-148 -111 -175 -88 -75 -118 -108 -118 -130 0 -27 45 -90 64 -90 13 0 56 41
56 54 0 4 6 22 14 39 7 18 19 46 26 64 15 39 37 54 120 81 98 30 157 43 175
36 18 -7 95 15 95 27 0 13 -24 16 -105 12 -44 -1 -111 -12 -149 -23 -38 -11
-72 -17 -74 -15 -9 9 22 88 44 114 35 44 113 190 120 227 3 19 10 37 15 40 12
7 12 24 0 24 -5 0 -33 -19 -62 -43z m-248 -543 c-9 -20 -15 -24 -23 -16 -9 9
-8 18 1 38 9 20 15 24 23 16 9 -9 8 -18 -1 -38z"/>
<path d="M7450 950 c-8 -5 -24 -11 -35 -15 -19 -6 -18 -8 10 -31 37 -29 67
-34 42 -6 -22 24 -21 32 2 32 10 0 21 -7 25 -15 6 -17 36 -21 36 -4 0 6 -9 13
-20 16 -11 3 -20 12 -20 19 0 16 -17 17 -40 4z"/>
<path d="M7550 911 c0 -13 40 -24 71 -19 42 5 26 23 -23 26 -29 2 -48 -1 -48
-7z"/>
<path d="M7710 890 c0 -5 11 -10 25 -10 14 0 25 5 25 10 0 6 -11 10 -25 10
-14 0 -25 -4 -25 -10z"/>
<path d="M6455 550 c3 -5 8 -10 11 -10 2 0 4 5 4 10 0 6 -5 10 -11 10 -5 0 -7
-4 -4 -10z"/>
<path d="M5580 380 c0 -5 5 -10 10 -10 6 0 10 5 10 10 0 6 -4 10 -10 10 -5 0
-10 -4 -10 -10z"/>
</g>
</svg>
