<?xml version="1.0" standalone="no"?>
<!DOCTYPE svg PUBLIC "-//W3C//DTD SVG 20010904//EN"
 "http://www.w3.org/TR/2001/REC-SVG-20010904/DTD/svg10.dtd">
<svg version="1.0" xmlns="http://www.w3.org/2000/svg"
 width="292.000000pt" height="342.000000pt" viewBox="0 0 292.000000 342.000000"
 preserveAspectRatio="xMidYMid meet">
<metadata>
Created by potrace 1.16, written by Peter Selinger 2001-2019
</metadata>
<g transform="translate(0.000000,342.000000) scale(0.100000,-0.100000)"
fill="#000000" stroke="none">
<path d="M2643 2439 c-34 -11 -95 -38 -135 -61 -74 -42 -288 -203 -288 -217 0
-14 24 -31 45 -31 12 0 32 11 45 25 31 33 37 32 54 -9 35 -85 149 -224 235
-287 l33 -25 -51 -103 c-29 -57 -68 -125 -89 -150 -43 -54 -109 -115 -135
-124 -10 -4 -15 -11 -12 -17 32 -51 186 94 277 260 55 101 60 107 78 85 7 -8
19 -15 26 -15 20 0 18 60 -3 75 -16 12 -16 16 0 65 10 32 17 84 17 134 l-1 81
-20 -55 c-11 -30 -27 -75 -35 -100 -26 -75 -34 -78 -90 -30 -55 49 -114 120
-139 170 -9 19 -28 49 -41 67 -13 17 -24 36 -24 41 0 15 117 100 174 127 98
45 128 55 153 49 23 -6 24 -4 21 27 -4 42 -15 44 -95 18z"/>
<path d="M925 2166 c-16 -8 -50 -38 -75 -67 -42 -50 -120 -163 -120 -175 0 -3
-13 -25 -30 -48 -36 -54 -109 -234 -117 -291 -7 -57 4 -115 22 -115 11 0 15
12 15 46 0 63 87 265 158 369 75 109 167 218 203 239 63 37 15 74 -56 42z"/>
<path d="M180 1967 c1 -39 2 -41 15 -23 19 25 19 52 0 60 -12 4 -15 -3 -15
-37z"/>
<path d="M1074 1856 c-35 -16 -104 -95 -104 -120 0 -23 53 -53 111 -60 27 -4
49 -11 49 -15 0 -5 -16 -28 -35 -51 l-35 -42 0 -121 c0 -166 23 -247 93 -323
38 -42 56 -54 78 -54 38 0 38 24 -1 40 -47 19 -86 93 -106 200 -20 111 -14
200 21 280 13 30 26 63 29 72 5 15 18 17 107 16 89 -2 103 0 115 17 8 11 13
24 11 30 -2 6 -66 9 -185 8 -211 -3 -213 -1 -127 72 30 26 55 51 55 56 0 13
-40 10 -76 -5z"/>
<path d="M325 1649 c-16 -5 -55 -14 -85 -21 -49 -12 -55 -16 -58 -40 l-3 -27
63 19 c90 26 140 49 136 62 -6 16 -18 17 -53 7z"/>
<path d="M671 1532 c-24 -46 -3 -189 44 -302 42 -101 144 -217 169 -193 3 3
-12 26 -33 52 -52 63 -86 131 -110 224 -28 102 -28 173 -1 189 25 16 26 38 3
38 -10 0 -28 3 -40 6 -15 4 -24 0 -32 -14z"/>
<path d="M860 1465 c0 -8 5 -15 10 -15 6 0 10 7 10 15 0 8 -4 15 -10 15 -5 0
-10 -7 -10 -15z"/>
<path d="M1345 1471 c-3 -5 -1 -29 5 -53 6 -24 19 -83 31 -133 41 -179 95
-332 123 -350 22 -13 27 -3 16 31 -29 87 -63 207 -75 264 -29 145 -49 226 -58
238 -11 14 -33 16 -42 3z"/>
<path d="M842 1395 c-22 -34 -52 -131 -52 -167 0 -24 21 -23 64 3 34 20 41 47
10 35 -25 -9 -27 22 -5 59 20 35 29 105 14 105 -5 0 -18 -16 -31 -35z"/>
<path d="M1903 738 c12 -71 28 -133 37 -142 16 -16 32 45 25 99 -8 57 -19 75
-47 75 -17 0 -19 -5 -15 -32z"/>
</g>
</svg>
