<?xml version="1.0" standalone="no"?>
<!DOCTYPE svg PUBLIC "-//W3C//DTD SVG 20010904//EN"
 "http://www.w3.org/TR/2001/REC-SVG-20010904/DTD/svg10.dtd">
<svg version="1.0" xmlns="http://www.w3.org/2000/svg"
 width="323.000000pt" height="389.000000pt" viewBox="0 0 323.000000 389.000000"
 preserveAspectRatio="xMidYMid meet">
<metadata>
Created by potrace 1.16, written by Peter Selinger 2001-2019
</metadata>
<g transform="translate(0.000000,389.000000) scale(0.100000,-0.100000)"
fill="#000000" stroke="none">
<path d="M348 3658 c-4 -46 -30 -115 -81 -218 -18 -36 -54 -38 -67 -4 -9 22
-5 44 16 111 20 62 24 87 16 95 -9 9 -17 7 -32 -7 -19 -17 -20 -28 -18 -164
l3 -146 26 -3 c21 -3 31 6 65 60 62 99 116 221 128 291 7 36 6 37 -22 37 -28
0 -30 -2 -34 -52z"/>
<path d="M700 3692 c0 -34 31 -107 59 -140 29 -34 29 -34 61 -17 35 18 35 38
-1 43 -36 6 -44 17 -59 77 -11 47 -16 55 -37 55 -16 0 -23 -6 -23 -18z"/>
<path d="M1280 3648 c-27 -140 -33 -153 -65 -153 -37 -1 -43 -22 -15 -58 13
-17 31 -27 47 -27 14 0 53 -7 86 -16 71 -18 164 -12 135 10 -9 6 -49 22 -89
35 -100 32 -107 40 -85 88 19 43 46 139 46 166 0 11 -8 17 -24 17 -21 0 -25
-7 -36 -62z"/>
<path d="M2459 3563 c-1 -4 0 -51 1 -103 1 -52 -4 -117 -10 -143 -7 -26 -9
-51 -5 -55 9 -9 45 35 45 55 0 8 11 37 24 63 22 43 24 57 18 117 -7 68 -7 68
-39 71 -18 2 -34 0 -34 -5z"/>
<path d="M2898 2439 c-10 -5 -18 -13 -18 -18 0 -4 27 -29 59 -56 l59 -49 -2
-101 c-3 -101 11 -172 38 -194 10 -8 13 33 14 191 1 156 -1 199 -10 190 -17
-17 -21 -16 -63 18 -41 32 -51 35 -77 19z"/>
<path d="M1875 2203 c-22 -8 -67 -15 -100 -17 -33 -2 -74 -10 -92 -19 -22 -12
-57 -17 -108 -17 -69 0 -75 -2 -75 -20 0 -13 13 -28 35 -41 39 -23 42 -31 20
-49 -22 -19 -18 -46 10 -64 33 -22 48 -13 33 20 -11 23 -9 28 18 49 41 34 112
67 138 63 27 -4 32 -44 15 -107 -39 -143 -101 -216 -198 -235 -78 -14 -159 38
-147 96 7 37 -13 47 -37 17 -54 -67 43 -179 155 -179 52 0 134 39 176 84 17
19 44 74 69 141 32 88 39 119 36 157 -5 45 -3 48 24 58 36 14 103 60 103 71 0
12 -28 9 -75 -8z"/>
<path d="M1093 2059 c-32 -50 -101 -157 -153 -237 -158 -242 -208 -325 -244
-403 -46 -100 -52 -133 -31 -165 21 -33 30 -24 30 31 0 29 9 55 26 81 14 22
45 71 69 109 49 78 183 280 218 329 12 17 33 47 46 66 13 19 37 52 54 73 17
21 34 48 38 60 4 12 17 35 30 50 13 16 24 36 24 46 0 17 -29 51 -43 51 -3 0
-32 -41 -64 -91z"/>
<path d="M2818 2003 c-9 -10 -29 -43 -44 -73 -25 -48 -29 -69 -33 -159 -2 -57
2 -136 8 -175 13 -79 12 -83 -39 -259 -23 -78 -29 -112 -21 -120 7 -7 12 -6
15 4 2 8 19 57 39 109 l34 95 39 -3 c22 -2 57 -13 79 -25 33 -19 44 -34 70
-95 17 -41 42 -86 55 -100 l25 -27 3 37 c3 31 -4 47 -37 91 -23 30 -41 57 -41
60 0 4 18 7 40 7 38 0 40 1 40 31 0 24 -3 30 -16 25 -69 -26 -122 -17 -175 31
-45 41 -47 57 -19 132 20 51 20 54 3 66 -11 8 -24 10 -34 4 -25 -13 -29 -2
-28 75 1 118 13 172 47 222 18 24 32 49 32 54 0 16 -26 11 -42 -7z"/>
<path d="M1014 1585 c-5 -13 5 -77 47 -301 7 -38 17 -56 39 -72 52 -39 92 -19
47 22 -26 24 -32 43 -42 141 -17 154 -68 272 -91 210z"/>
<path d="M1845 1426 c-178 -59 -218 -68 -303 -74 -92 -5 -108 -17 -76 -54 30
-33 142 -21 269 30 154 62 255 110 255 121 0 18 -40 12 -145 -23z"/>
</g>
</svg>
