<?xml version="1.0" standalone="no"?>
<!DOCTYPE svg PUBLIC "-//W3C//DTD SVG 20010904//EN"
 "http://www.w3.org/TR/2001/REC-SVG-20010904/DTD/svg10.dtd">
<svg version="1.0" xmlns="http://www.w3.org/2000/svg"
 width="255.000000pt" height="292.000000pt" viewBox="0 0 255.000000 292.000000"
 preserveAspectRatio="xMidYMid meet">
<metadata>
Created by potrace 1.16, written by Peter Selinger 2001-2019
</metadata>
<g transform="translate(0.000000,292.000000) scale(0.100000,-0.100000)"
fill="#000000" stroke="none">
<path d="M383 1941 c-122 -45 -156 -102 -168 -281 -3 -52 -8 -129 -12 -170
-12 -159 -14 -190 -19 -352 -3 -114 -2 -168 6 -168 5 0 10 -7 10 -15 0 -8 -4
-15 -10 -15 -7 0 -9 -123 -8 -352 1 -205 4 -306 7 -241 3 62 11 116 16 122 10
10 85 32 195 58 36 8 72 22 80 30 13 13 13 16 -5 29 -26 20 -80 13 -181 -22
-42 -14 -80 -22 -84 -17 -4 4 -6 43 -3 86 6 76 7 78 37 91 17 8 46 26 65 40
32 24 36 24 52 10 16 -14 18 -13 33 17 14 29 14 34 1 49 -21 23 -19 33 10 60
69 65 -3 97 -119 54 -47 -18 -58 -10 -54 42 l3 38 69 17 c76 19 90 28 84 55
-3 15 -12 19 -43 18 -22 0 -51 -3 -65 -5 -23 -4 -25 -1 -24 36 2 43 -3 37 123
137 30 24 56 48 58 55 2 6 -7 19 -20 28 -23 15 -27 14 -76 -11 -29 -14 -54
-24 -57 -22 -17 18 7 418 28 468 20 46 54 76 103 89 70 19 118 14 166 -19 46
-30 65 -24 33 12 -53 58 -151 79 -231 49z m-48 -1040 c6 -11 -95 -82 -107 -75
-21 13 -3 36 45 59 62 29 55 27 62 16z"/>
<path d="M2330 1605 c-65 -53 -129 -118 -124 -127 8 -12 43 9 94 57 25 23 52
44 59 46 7 3 11 15 9 28 l-3 24 -35 -28z"/>
<path d="M895 1550 c-4 -6 -5 -13 -3 -15 2 -2 68 -5 147 -7 102 -2 145 0 148
8 2 7 -6 13 -19 13 -189 11 -267 11 -273 1z"/>
<path d="M1514 1519 c-4 -7 -20 -9 -40 -6 -31 5 -34 3 -63 -48 -17 -30 -45
-69 -63 -88 -121 -125 -140 -152 -121 -170 6 -7 64 24 98 53 36 31 75 34 102
8 l25 -23 19 24 c10 13 19 29 19 36 0 20 -27 37 -62 41 -18 1 -34 3 -35 3 -1
1 3 15 9 31 11 34 109 106 132 97 20 -8 25 -55 25 -229 0 -139 3 -162 21 -197
11 -22 20 -47 20 -56 0 -28 55 -75 89 -75 16 0 32 -3 34 -8 3 -4 -46 -54 -109
-111 -63 -57 -114 -110 -114 -117 0 -7 10 -18 21 -25 30 -15 62 3 103 60 18
25 57 73 87 106 133 146 144 191 39 164 -45 -11 -51 -11 -70 6 -39 35 -57 129
-64 347 -5 118 -9 142 -34 171 -17 19 -57 23 -68 6z"/>
<path d="M1270 1085 c-7 -8 -18 -15 -26 -15 -7 0 -20 -10 -28 -22 -9 -13 -31
-29 -49 -38 -35 -17 -43 -46 -15 -64 13 -8 34 -1 98 32 119 63 179 83 202 71
33 -18 35 1 4 28 -24 20 -37 24 -64 19 -19 -3 -42 -12 -52 -21 -23 -21 -40
-19 -40 5 0 24 -13 26 -30 5z"/>
<path d="M1145 816 c-42 -19 -88 -71 -125 -142 -27 -51 -30 -66 -23 -95 9 -32
12 -34 54 -37 40 -2 48 2 89 41 54 51 180 203 180 217 0 13 -13 13 -27 -1 -9
-9 -19 -6 -39 10 -30 24 -66 26 -109 7z m104 -50 c9 -10 -3 -26 -56 -73 -141
-124 -189 -128 -116 -10 46 73 141 120 172 83z"/>
</g>
</svg>
