<?xml version="1.0" standalone="no"?>
<!DOCTYPE svg PUBLIC "-//W3C//DTD SVG 20010904//EN"
 "http://www.w3.org/TR/2001/REC-SVG-20010904/DTD/svg10.dtd">
<svg version="1.0" xmlns="http://www.w3.org/2000/svg"
 width="281.000000pt" height="286.000000pt" viewBox="0 0 281.000000 286.000000"
 preserveAspectRatio="xMidYMid meet">
<metadata>
Created by potrace 1.16, written by Peter Selinger 2001-2019
</metadata>
<g transform="translate(0.000000,286.000000) scale(0.100000,-0.100000)"
fill="#000000" stroke="none">
<path d="M2469 2676 c-2 -2 -3 -260 -2 -573 2 -509 -5 -1022 -23 -1695 l-6
-228 96 0 96 0 0 1250 0 1250 -78 0 c-43 0 -81 -2 -83 -4z"/>
<path d="M180 2246 l0 -36 73 1 c166 2 157 42 -15 63 l-58 7 0 -35z"/>
<path d="M1215 2170 c-13 -14 -19 -37 -19 -74 -1 -52 -2 -54 -60 -102 -113
-94 -136 -120 -136 -152 0 -21 8 -35 25 -46 24 -16 26 -16 35 9 20 52 91 128
106 112 2 -2 -5 -30 -16 -62 -17 -49 -32 -70 -91 -123 -39 -36 -80 -85 -94
-111 -13 -26 -31 -53 -39 -60 -9 -8 -16 -21 -16 -30 0 -43 57 -54 100 -21 14
11 30 20 36 20 6 0 23 9 38 21 20 15 27 17 30 7 3 -7 6 -99 8 -205 3 -187 4
-192 27 -217 36 -38 56 -35 45 7 -5 17 -8 115 -8 217 2 186 3 193 45 297 12
29 11 34 -5 46 -16 12 -17 18 -7 50 6 20 16 53 22 72 7 26 7 44 -2 68 -10 30
-8 40 30 120 22 47 41 93 41 101 0 19 -48 76 -64 76 -7 0 -21 -9 -31 -20z
m-80 -495 c0 -23 -83 -71 -97 -57 -14 14 -3 28 40 57 42 27 57 27 57 0z"/>
<path d="M1356 2091 c-4 -5 -10 -65 -16 -133 -5 -67 -15 -171 -21 -230 -11
-96 -11 -109 5 -132 9 -14 23 -26 31 -26 21 0 33 -32 44 -119 7 -53 18 -86 38
-116 84 -128 106 -157 119 -162 23 -8 97 42 157 107 l56 60 58 0 c127 1 183
30 197 104 8 40 6 54 -12 91 -24 50 -59 64 -48 20 4 -14 9 -45 13 -70 5 -42 4
-45 -23 -56 -16 -7 -49 -12 -74 -13 l-45 -1 -3 52 c-3 50 -1 55 47 113 28 34
51 67 51 74 0 7 14 33 31 56 48 66 80 145 86 208 4 48 2 60 -14 75 -26 23 -54
13 -115 -41 -26 -22 -67 -49 -92 -62 -25 -12 -48 -26 -52 -31 -8 -13 -64 -11
-64 3 0 6 10 22 21 34 24 26 19 54 -9 54 -24 0 -82 -77 -82 -110 0 -90 158
-73 282 31 67 56 85 51 52 -14 -9 -18 -48 -87 -87 -155 l-71 -123 -45 6 c-94
13 -86 20 -89 -74 -2 -51 2 -97 9 -114 12 -28 11 -32 -17 -56 -16 -14 -38 -38
-47 -53 -11 -17 -26 -28 -40 -28 -26 0 -87 58 -87 82 0 10 -7 43 -15 75 -9 34
-15 102 -15 166 0 101 2 111 26 143 17 22 35 34 50 34 33 0 30 12 -7 29 -44
19 -91 -4 -119 -59 -22 -43 -31 -48 -48 -27 -8 10 -7 28 3 67 24 92 41 275 27
304 -11 26 -36 34 -46 17z m409 -621 c-5 -8 -11 -8 -17 -2 -6 6 -7 16 -3 22 5
8 11 8 17 2 6 -6 7 -16 3 -22z"/>
<path d="M920 1996 c-56 -40 -152 -145 -187 -204 -73 -123 -102 -251 -67 -300
20 -29 30 -28 64 10 22 24 33 29 41 21 6 -6 16 -72 23 -147 12 -134 12 -136
46 -171 19 -19 40 -35 48 -35 35 0 81 42 110 103 35 72 62 136 62 148 0 25
-23 0 -79 -87 -68 -105 -87 -115 -108 -54 -7 19 -12 61 -12 92 -1 97 -30 203
-63 235 -25 24 -31 26 -50 14 -34 -21 -47 2 -24 42 11 18 28 49 39 71 11 21
53 71 93 110 73 72 133 161 117 177 -4 4 -28 -7 -53 -25z m-206 -433 c8 -19
-8 -38 -23 -29 -16 10 -13 46 3 46 8 0 17 -8 20 -17z"/>
<path d="M196 1751 c-12 -13 -16 -32 -14 -62 l3 -44 23 36 c35 57 25 111 -12
70z"/>
<path d="M203 1539 c-21 -7 -23 -15 -22 -71 0 -35 3 -56 6 -48 3 8 17 28 29
43 23 28 32 71 17 80 -5 3 -18 1 -30 -4z"/>
<path d="M255 1309 c-11 -6 -32 -23 -47 -37 l-28 -26 0 -194 c0 -181 1 -194
17 -187 10 3 40 11 68 17 55 11 96 43 119 92 8 18 29 49 46 70 33 43 39 97 17
170 -23 75 -133 129 -192 95z m106 -85 c19 -17 21 -27 17 -106 -4 -81 -7 -90
-34 -119 -36 -39 -70 -56 -114 -61 -35 -3 -35 -3 -34 37 1 22 11 73 22 114 12
41 18 87 15 102 -10 51 1 62 57 57 30 -3 59 -13 71 -24z"/>
<path d="M1723 913 c-58 -104 -96 -184 -113 -235 -12 -39 -81 -139 -118 -172
-24 -21 -30 -88 -11 -116 9 -13 12 -13 22 3 35 54 35 54 58 25 11 -16 25 -28
31 -28 5 0 29 16 52 35 46 37 83 45 92 20 7 -16 -26 -70 -88 -146 -21 -26 -38
-50 -38 -55 0 -4 -12 -21 -27 -36 l-27 -28 31 0 c30 0 58 29 126 130 9 14 33
49 53 77 29 42 34 58 29 82 -8 38 -25 52 -73 58 -33 4 -44 1 -75 -27 -20 -17
-41 -28 -48 -25 -13 9 -4 48 19 84 10 14 22 34 27 43 6 9 33 49 60 90 97 140
139 260 103 296 -23 23 -37 11 -85 -75z"/>
<path d="M667 763 c-28 -27 -77 -197 -77 -263 0 -58 43 -65 88 -14 37 41 65
42 70 2 4 -38 -43 -144 -92 -208 -24 -30 -46 -65 -50 -77 -7 -21 -4 -23 28
-23 29 0 38 5 51 30 16 30 83 80 108 80 24 0 80 -67 74 -89 -4 -18 -1 -21 32
-21 l37 0 -1 58 c0 35 8 78 21 112 31 79 64 182 64 200 0 20 100 140 117 140
7 0 15 -12 19 -27 16 -74 41 -148 49 -148 15 0 18 154 4 187 -13 33 -45 58
-72 58 -25 0 -93 -75 -126 -140 -44 -85 -89 -201 -96 -247 -10 -61 -22 -66
-84 -37 l-53 26 6 41 c16 111 18 168 6 182 -18 21 -64 19 -85 -5 -23 -26 -45
-26 -45 0 0 36 32 115 53 132 18 14 20 21 11 35 -12 19 -45 29 -57 16z"/>
<path d="M241 633 c-50 -80 -61 -105 -61 -140 0 -24 2 -43 5 -43 17 0 107 148
128 213 4 9 13 17 22 17 18 0 20 21 3 38 -23 23 -37 11 -97 -85z"/>
<path d="M1405 620 c-19 -21 -34 -143 -21 -176 12 -32 35 6 51 84 11 53 12 78
5 92 -13 24 -13 24 -35 0z"/>
<path d="M1053 413 c-67 -72 -78 -105 -35 -111 27 -4 28 -21 2 -72 -11 -22
-20 -42 -20 -45 0 -3 38 -5 84 -5 l83 0 22 56 c11 31 21 63 21 72 0 8 5 31 12
49 10 28 10 36 -4 50 -14 13 -20 14 -32 3 -9 -7 -16 -18 -16 -25 0 -24 -70
-166 -79 -161 -12 8 35 195 55 217 9 10 13 23 9 28 -14 24 -42 8 -102 -56z"/>
<path d="M340 443 c-40 -26 -80 -64 -121 -116 -33 -42 -39 -56 -39 -98 l0 -49
100 0 c97 0 100 1 90 19 -15 29 -26 33 -55 19 -20 -9 -28 -9 -38 1 -9 10 -7
17 14 34 15 12 29 33 32 47 4 14 22 44 42 67 37 44 42 62 23 81 -16 16 -19 15
-48 -5z"/>
<path d="M1397 394 c-2 -5 0 -32 6 -60 9 -47 8 -54 -11 -79 -30 -38 -29 -75 2
-75 21 0 24 6 31 58 3 31 13 68 22 81 14 22 13 25 -15 53 -16 17 -32 26 -35
22z"/>
<path d="M755 190 c-3 -5 3 -10 15 -10 12 0 18 5 15 10 -3 6 -10 10 -15 10 -5
0 -12 -4 -15 -10z"/>
</g>
</svg>
