<?xml version="1.0" standalone="no"?>
<!DOCTYPE svg PUBLIC "-//W3C//DTD SVG 20010904//EN"
 "http://www.w3.org/TR/2001/REC-SVG-20010904/DTD/svg10.dtd">
<svg version="1.0" xmlns="http://www.w3.org/2000/svg"
 width="258.000000pt" height="378.000000pt" viewBox="0 0 258.000000 378.000000"
 preserveAspectRatio="xMidYMid meet">
<metadata>
Created by potrace 1.16, written by Peter Selinger 2001-2019
</metadata>
<g transform="translate(0.000000,378.000000) scale(0.100000,-0.100000)"
fill="#000000" stroke="none">
<path d="M2352 2533 c-12 -5 -74 -85 -178 -235 -77 -110 -139 -232 -127 -252
8 -15 13 -12 39 21 33 43 40 54 73 114 40 74 173 225 219 248 18 10 22 20 22
61 0 51 -9 59 -48 43z"/>
<path d="M1245 2397 c-9 -14 -30 -29 -46 -32 -33 -8 -74 -56 -85 -100 -4 -16
-11 -36 -17 -42 -22 -30 -67 -137 -67 -163 0 -36 32 -60 81 -60 41 0 259 90
273 113 5 8 6 22 2 32 -8 21 -32 16 -139 -31 -85 -37 -151 -52 -161 -36 -10
17 20 74 88 165 36 49 66 94 66 100 0 6 10 21 22 34 16 17 19 26 11 34 -8 8
-16 4 -28 -14z"/>
<path d="M180 2279 c0 -18 2 -19 15 -9 15 12 12 30 -6 30 -5 0 -9 -10 -9 -21z"/>
<path d="M2220 2189 c-38 -30 -50 -45 -44 -57 4 -9 9 -29 12 -44 2 -16 6 -28
8 -28 2 0 26 23 52 50 46 47 51 50 100 50 l52 0 0 35 0 35 -64 0 c-60 0 -68
-3 -116 -41z"/>
<path d="M873 2070 c-25 -10 -60 -61 -69 -100 -3 -14 -23 -61 -44 -105 -59
-124 -144 -410 -138 -464 4 -35 30 -33 39 2 4 16 12 34 17 40 5 7 13 31 17 54
4 24 11 45 15 48 5 3 16 29 24 59 9 29 22 59 31 66 8 6 17 28 21 49 3 20 15
52 26 71 11 19 27 53 35 75 7 22 34 72 59 113 25 40 43 79 40 87 -6 17 -39 19
-73 5z"/>
<path d="M2331 2060 c-64 -15 -115 -67 -92 -94 18 -22 43 -20 74 4 14 11 39
20 56 20 29 0 31 2 31 40 0 44 -4 45 -69 30z"/>
<path d="M2180 2015 c0 -8 5 -15 10 -15 6 0 10 7 10 15 0 8 -4 15 -10 15 -5 0
-10 -7 -10 -15z"/>
<path d="M265 1946 c-5 -3 -27 -7 -47 -11 -36 -6 -38 -8 -38 -42 l0 -36 48 8
c84 14 161 10 179 -8 15 -15 16 -21 4 -50 -7 -17 -16 -51 -21 -75 -4 -24 -12
-48 -18 -54 -7 -7 -12 -25 -12 -41 0 -27 -2 -29 -27 -22 -57 14 -99 16 -125 6
-24 -9 -28 -16 -28 -47 0 -28 3 -34 13 -27 6 6 31 13 55 16 62 8 72 -11 72
-143 0 -124 -8 -180 -26 -187 -8 -3 -35 13 -61 36 l-48 41 -3 -43 c-3 -39 -1
-45 44 -84 l47 -42 -12 -43 c-7 -24 -28 -76 -47 -117 -19 -41 -34 -88 -34
-105 l1 -31 20 25 c36 44 109 164 109 180 0 9 5 21 12 28 9 9 28 -4 80 -53 82
-78 191 -152 236 -161 43 -9 41 7 -5 39 -21 15 -44 36 -51 47 -7 11 -39 40
-71 64 -33 24 -85 70 -115 103 l-55 60 20 53 c29 77 42 253 23 309 -14 43 -14
43 22 92 51 70 76 176 55 231 -16 43 -70 77 -132 82 -29 3 -58 4 -64 2z"/>
<path d="M2345 1875 c-21 -13 -52 -27 -67 -30 -35 -8 -43 -21 -27 -42 10 -11
24 -14 57 -9 60 8 91 33 92 74 0 38 -3 39 -55 7z"/>
<path d="M1348 1885 c-13 -13 -124 -35 -237 -47 -125 -13 -147 -22 -121 -52
31 -39 190 -29 340 21 89 29 95 34 81 62 -11 19 -50 29 -63 16z"/>
<path d="M2057 1814 c-5 -5 -3 -32 9 -111 4 -24 13 -37 35 -48 26 -14 30 -14
35 0 4 8 -1 26 -9 38 -8 13 -21 42 -28 65 -12 42 -31 67 -42 56z"/>
<path d="M1470 1783 c-41 -14 -95 -33 -120 -44 -25 -10 -74 -28 -110 -39 -209
-64 -215 -66 -215 -86 0 -17 7 -19 65 -16 72 3 165 29 285 78 218 88 220 89
195 119 -15 18 -8 19 -100 -12z"/>
<path d="M2185 1801 c-3 -5 -1 -12 5 -16 12 -7 30 2 30 16 0 12 -27 12 -35 0z"/>
<path d="M2174 1688 c-3 -4 0 -17 6 -28 15 -29 109 -53 171 -45 49 7 49 7 49
43 l0 37 -111 0 c-61 0 -113 -3 -115 -7z"/>
<path d="M854 1556 c-6 -17 11 -46 28 -46 14 0 5 53 -9 58 -7 2 -16 -4 -19
-12z"/>
<path d="M1410 1511 c-48 -15 -105 -49 -142 -85 -20 -20 -39 -36 -42 -36 -3 0
-6 17 -8 38 -5 65 -23 40 -26 -38 -4 -91 18 -188 64 -286 50 -107 89 -147 109
-114 4 6 -14 58 -40 116 -41 91 -46 109 -36 130 6 14 11 42 11 62 0 52 63 114
143 141 128 44 155 -15 125 -269 -6 -52 -12 -117 -13 -145 -1 -48 -3 -50 -31
-53 -80 -7 -98 -29 -44 -57 43 -22 67 -19 122 16 52 34 58 54 15 54 -38 0 -40
8 -21 72 25 86 35 146 40 258 6 118 -9 159 -66 187 -36 19 -115 23 -160 9z
m-130 -217 c0 -30 -16 -31 -24 -1 -11 40 -8 51 9 37 8 -7 15 -23 15 -36z"/>
<path d="M885 1448 c3 -24 13 -68 22 -98 9 -30 22 -80 29 -110 42 -180 61
-228 102 -261 33 -26 51 -11 32 28 -7 16 -16 42 -20 58 -84 324 -109 398 -141
415 -29 16 -31 12 -24 -32z"/>
<path d="M2361 1390 c-18 -25 -43 -67 -56 -95 -50 -108 -52 -148 -12 -192 26
-29 17 -38 -36 -34 -47 3 -68 13 -111 48 -20 17 -32 21 -39 14 -14 -14 62 -93
109 -116 18 -8 66 -18 108 -22 l76 -6 0 71 c0 65 -1 70 -20 65 -66 -17 -68
117 -3 204 18 23 23 42 21 70 l-3 38 -34 -45z"/>
<path d="M1992 1370 c-10 -16 -34 -40 -53 -52 -62 -41 -98 -153 -69 -209 7
-13 21 -19 45 -19 41 0 53 15 31 39 -22 24 -20 37 14 101 17 30 30 62 30 69 0
8 12 27 26 42 16 17 24 34 21 43 -10 24 -25 19 -45 -14z"/>
</g>
</svg>
