<?xml version="1.0" standalone="no"?>
<!DOCTYPE svg PUBLIC "-//W3C//DTD SVG 20010904//EN"
 "http://www.w3.org/TR/2001/REC-SVG-20010904/DTD/svg10.dtd">
<svg version="1.0" xmlns="http://www.w3.org/2000/svg"
 width="297.000000pt" height="411.000000pt" viewBox="0 0 297.000000 411.000000"
 preserveAspectRatio="xMidYMid meet">
<metadata>
Created by potrace 1.16, written by Peter Selinger 2001-2019
</metadata>
<g transform="translate(0.000000,411.000000) scale(0.100000,-0.100000)"
fill="#000000" stroke="none">
<path d="M182 3899 c3 -27 10 -33 72 -59 38 -16 92 -37 120 -46 28 -9 96 -33
151 -54 184 -71 310 -117 364 -135 77 -25 178 -90 185 -121 4 -16 13 -24 27
-24 12 0 34 -11 51 -25 25 -21 40 -25 96 -25 39 -1 77 -7 92 -15 14 -8 39 -14
55 -15 31 0 219 -82 490 -215 435 -212 692 -344 731 -374 15 -12 30 -21 34
-21 4 0 34 -16 66 -35 32 -19 61 -35 66 -35 4 0 8 16 8 35 0 33 -3 36 -72 71
-40 20 -84 44 -98 54 -14 10 -117 65 -230 122 -113 58 -217 112 -230 120 -14
9 -119 59 -235 113 -115 53 -219 102 -230 108 -40 22 -216 107 -222 107 -4 0
-36 20 -72 44 -127 84 -204 118 -273 121 -48 2 -90 14 -178 50 -63 26 -160 64
-215 85 -55 20 -161 60 -235 88 -74 28 -167 64 -207 81 -95 41 -115 41 -111 0z"/>
<path d="M1542 3033 c-15 -13 -25 -43 -36 -103 -29 -159 -37 -191 -57 -223
-11 -20 -19 -50 -19 -79 0 -55 -30 -247 -66 -428 -38 -184 -53 -292 -60 -415
-7 -125 2 -180 31 -180 17 0 19 10 21 115 4 185 101 684 148 752 21 31 25 33
81 33 55 0 60 -2 63 -23 2 -13 -4 -41 -12 -63 -18 -45 -21 -79 -6 -79 6 0 10
6 10 14 0 36 123 116 194 127 40 7 57 15 78 41 20 25 34 32 60 33 29 0 33 4
36 29 4 29 -29 76 -54 76 -7 0 -56 -21 -109 -46 l-97 -46 -86 7 c-112 10 -132
17 -132 51 0 25 35 67 74 89 9 6 18 19 19 30 2 14 -6 21 -28 25 -41 7 -43 32
-11 131 31 95 32 111 8 132 -23 21 -25 21 -50 0z"/>
<path d="M197 2872 c-15 -16 -17 -47 -16 -273 1 -238 2 -250 15 -189 22 109
43 280 46 380 3 79 0 95 -13 98 -8 1 -23 -6 -32 -16z"/>
<path d="M1133 2668 c-6 -7 -29 -51 -53 -98 -23 -47 -55 -103 -70 -125 -45
-67 -128 -253 -205 -461 -12 -34 -25 -65 -27 -70 -3 -5 -13 -52 -22 -105 -12
-71 -14 -104 -6 -124 17 -44 32 -24 51 66 10 46 32 122 49 169 17 47 39 110
49 140 37 111 194 407 263 493 43 55 47 78 18 107 -23 23 -34 25 -47 8z"/>
<path d="M1600 2288 c-22 -37 -28 -58 -40 -159 -10 -90 -4 -536 11 -708 22
-265 82 -405 140 -330 25 33 23 49 -5 49 -13 0 -29 6 -35 14 -12 14 -29 176
-32 306 -1 41 -5 140 -10 220 -16 284 -18 362 -8 443 22 187 22 197 10 197 -6
0 -20 -14 -31 -32z"/>
<path d="M1772 2172 c-46 -43 -65 -97 -50 -138 13 -37 23 -41 54 -20 26 19 76
129 72 159 -5 33 -40 33 -76 -1z"/>
<path d="M180 2032 c0 -34 0 -34 122 -47 51 -6 62 -11 104 -53 114 -115 128
-269 56 -602 -18 -85 -40 -136 -71 -164 -43 -39 -14 -83 34 -52 58 38 127 240
144 426 11 114 11 134 -7 221 -20 98 -54 163 -112 216 -34 31 -147 73 -214 80
l-56 6 0 -31z"/>
<path d="M1057 1923 c-60 -179 -90 -347 -85 -483 4 -136 13 -157 89 -195 l51
-26 41 34 c44 36 75 82 64 93 -4 4 -25 -5 -47 -20 -52 -34 -98 -32 -118 4 -19
35 -9 230 18 350 44 199 54 271 42 290 -6 10 -8 27 -5 39 3 11 1 21 -4 21 -5
0 -26 -48 -46 -107z"/>
<path d="M2070 1915 c-69 -71 -96 -85 -162 -85 -70 0 -145 29 -178 70 -18 23
-32 31 -44 27 -25 -10 -19 -44 16 -88 36 -45 68 -61 154 -79 33 -7 69 -17 82
-23 18 -9 27 -7 50 11 15 12 52 40 83 61 64 46 91 81 93 125 2 52 -31 45 -94
-19z"/>
<path d="M2104 1788 c-17 -13 -74 -67 -127 -120 -53 -54 -103 -98 -113 -98
-18 0 -84 -64 -84 -82 0 -6 6 -6 15 2 12 10 34 10 103 1 48 -6 132 -10 186 -9
83 2 103 5 119 21 30 30 8 40 -98 43 -53 2 -100 6 -105 9 -8 5 49 89 140 207
38 50 17 65 -36 26z"/>
<path d="M1715 1648 c9 -40 22 -57 30 -36 7 19 -11 68 -26 68 -7 0 -8 -11 -4
-32z"/>
</g>
</svg>
