<?xml version="1.0" standalone="no"?>
<!DOCTYPE svg PUBLIC "-//W3C//DTD SVG 20010904//EN"
 "http://www.w3.org/TR/2001/REC-SVG-20010904/DTD/svg10.dtd">
<svg version="1.0" xmlns="http://www.w3.org/2000/svg"
 width="259.000000pt" height="386.000000pt" viewBox="0 0 259.000000 386.000000"
 preserveAspectRatio="xMidYMid meet">
<metadata>
Created by potrace 1.16, written by Peter Selinger 2001-2019
</metadata>
<g transform="translate(0.000000,386.000000) scale(0.100000,-0.100000)"
fill="#000000" stroke="none">
<path d="M624 3654 c82 -25 136 -31 136 -15 0 16 -98 41 -157 40 l-58 0 79
-25z"/>
<path d="M1260 3675 c0 -15 31 -63 57 -86 41 -38 67 -50 140 -60 58 -8 71 -7
131 17 76 30 96 44 85 55 -5 5 -38 -1 -73 -12 -109 -34 -201 -14 -257 56 -20
25 -36 35 -55 35 -16 0 -28 -2 -28 -5z"/>
<path d="M1470 3671 c0 -14 28 -33 39 -27 16 10 1 36 -20 36 -10 0 -19 -4 -19
-9z"/>
<path d="M2401 3644 c0 -11 3 -14 6 -6 3 7 2 16 -1 19 -3 4 -6 -2 -5 -13z"/>
<path d="M181 2618 l1 -63 15 47 c16 46 13 78 -7 78 -6 0 -10 -26 -9 -62z"/>
<path d="M2202 2604 c-29 -20 -28 -35 7 -68 25 -24 33 -26 62 -19 46 12 50 42
9 77 -37 30 -47 32 -78 10z"/>
<path d="M883 2508 c-8 -10 -33 -111 -33 -135 0 -12 -17 1 -25 19 -14 30 -41
46 -55 32 -8 -8 -8 -36 0 -97 11 -93 10 -102 -26 -221 -21 -66 -34 -89 -80
-139 -50 -54 -55 -63 -49 -91 4 -17 8 -58 9 -91 1 -78 21 -80 49 -5 11 30 28
66 38 80 9 14 21 40 26 58 4 18 12 33 18 35 22 5 39 -90 71 -401 4 -40 14 -64
41 -99 19 -25 50 -70 69 -98 35 -56 87 -105 109 -105 25 0 25 17 -1 41 -76 72
-134 248 -154 474 -10 114 -28 211 -47 253 -11 25 -13 51 -8 95 6 61 31 153
45 172 16 20 62 183 58 206 -3 27 -38 38 -55 17z"/>
<path d="M2393 2470 c-6 -19 -32 -84 -57 -145 -46 -110 -88 -164 -127 -165 -9
0 -22 -7 -29 -16 -11 -12 -11 -18 2 -30 13 -14 26 -14 86 -5 39 6 87 11 106
11 32 0 36 3 36 26 0 25 -2 25 -40 19 -27 -5 -46 -3 -56 6 -13 11 -11 16 16
40 16 15 30 35 30 43 0 9 10 34 22 58 21 40 35 133 26 174 -3 14 -7 11 -15
-16z"/>
<path d="M1213 2475 c-24 -17 -115 -237 -136 -331 -7 -32 -11 -83 -9 -112 3
-45 8 -55 28 -62 28 -11 28 -13 10 -71 -40 -130 -42 -304 -5 -410 22 -61 72
-129 95 -129 19 0 18 4 -12 49 -35 53 -53 138 -53 246 -1 98 7 144 41 249 21
62 28 71 73 101 71 45 186 79 258 77 75 -3 73 17 -2 37 -49 13 -59 13 -164
-14 -95 -23 -118 -33 -149 -62 -25 -24 -42 -34 -54 -29 -50 19 46 317 132 407
29 30 30 45 5 59 -26 13 -33 13 -58 -5z"/>
<path d="M208 2459 c-30 -22 -40 -79 -15 -79 25 0 98 60 95 78 -5 25 -48 25
-80 1z"/>
<path d="M2014 2276 c-18 -14 -18 -15 -1 -33 17 -17 19 -17 37 7 29 38 5 55
-36 26z"/>
<path d="M228 2107 c-37 -17 -48 -27 -48 -45 l0 -23 52 28 c29 15 54 36 56 46
4 21 -1 21 -60 -6z"/>
<path d="M2395 1896 c-6 -21 -22 -47 -35 -58 -21 -15 -150 -51 -305 -84 -48
-11 -53 -33 -10 -47 33 -11 152 5 208 28 66 26 77 28 77 8 0 -10 -25 -67 -55
-128 -31 -63 -51 -113 -46 -118 12 -12 27 -2 44 31 39 74 120 218 128 229 6 6
9 49 7 95 -3 78 -4 80 -13 44z"/>
<path d="M1345 1714 c-66 -88 -94 -281 -64 -453 10 -53 19 -72 50 -105 38 -41
65 -43 39 -3 -33 52 -41 81 -47 159 -7 97 16 253 53 361 13 39 24 74 24 79 0
20 -22 5 -55 -38z"/>
<path d="M2398 1608 c-2 -29 0 -75 3 -103 5 -38 7 -26 8 53 1 108 -5 137 -11
50z"/>
<path d="M180 201 l0 -21 313 2 c171 1 285 3 252 5 -369 18 -486 25 -522 30
-39 5 -43 4 -43 -16z"/>
</g>
</svg>
