<?xml version="1.0" standalone="no"?>
<!DOCTYPE svg PUBLIC "-//W3C//DTD SVG 20010904//EN"
 "http://www.w3.org/TR/2001/REC-SVG-20010904/DTD/svg10.dtd">
<svg version="1.0" xmlns="http://www.w3.org/2000/svg"
 width="185.000000pt" height="346.000000pt" viewBox="0 0 185.000000 346.000000"
 preserveAspectRatio="xMidYMid meet">
<metadata>
Created by potrace 1.16, written by Peter Selinger 2001-2019
</metadata>
<g transform="translate(0.000000,346.000000) scale(0.100000,-0.100000)"
fill="#000000" stroke="none">
<path d="M1598 2039 c-26 -15 -22 -38 10 -50 15 -6 35 -15 45 -20 15 -8 17 -4
17 36 0 43 -2 45 -27 45 -16 0 -36 -5 -45 -11z"/>
<path d="M1312 2028 c-19 -19 -14 -59 9 -84 17 -19 23 -42 30 -131 11 -147 23
-183 56 -183 30 0 -10 353 -45 393 -18 20 -33 22 -50 5z"/>
<path d="M1000 1951 c-20 -5 -26 -14 -28 -41 -2 -19 -12 -44 -21 -55 -25 -28
-84 -124 -100 -161 -22 -54 -39 -191 -30 -239 11 -57 21 -77 58 -107 38 -33
160 -45 239 -24 106 28 144 68 135 139 -6 41 -20 50 -25 15 -2 -17 -22 -33
-78 -60 -64 -33 -85 -38 -142 -38 -56 0 -71 4 -95 24 -27 24 -28 27 -27 123 2
110 20 173 80 280 44 80 62 89 140 72 105 -23 213 -10 201 24 -4 13 -123 38
-142 31 -8 -3 -29 -1 -47 4 -51 16 -91 20 -118 13z"/>
<path d="M183 1680 c0 -25 2 -35 4 -22 2 12 2 32 0 45 -2 12 -4 2 -4 -23z"/>
<path d="M1420 1545 c0 -8 5 -15 10 -15 6 0 10 7 10 15 0 8 -4 15 -10 15 -5 0
-10 -7 -10 -15z"/>
<path d="M1513 1407 c-97 -123 -220 -249 -261 -266 -46 -19 -155 -8 -234 23
-36 14 -74 26 -85 26 -11 0 -39 -20 -62 -45 -40 -43 -41 -47 -43 -117 -3 -114
-2 -130 12 -183 16 -56 45 -95 71 -95 27 0 31 16 14 50 -9 17 -15 46 -13 63 3
30 6 33 53 41 70 12 215 56 248 75 26 15 28 14 43 -7 10 -15 24 -22 37 -20 20
3 22 8 19 69 l-4 66 49 44 c27 24 74 80 105 124 31 44 79 106 107 138 53 60
55 65 45 91 -11 29 -28 16 -101 -77z m-478 -320 c27 -8 54 -21 59 -30 14 -22
-11 -50 -39 -43 -12 3 -45 -3 -73 -13 -32 -12 -54 -15 -58 -9 -6 10 4 96 13
111 5 9 13 8 98 -16z m119 -58 c-3 -5 -10 -7 -15 -3 -5 3 -7 10 -3 15 3 5 10
7 15 3 5 -3 7 -10 3 -15z"/>
<path d="M203 1330 c-18 -7 -23 -17 -23 -45 0 -19 4 -35 8 -35 18 0 93 62 89
73 -5 15 -45 19 -74 7z"/>
<path d="M1012 838 c-7 -7 -12 -46 -12 -97 -1 -48 -7 -115 -15 -151 -22 -100
-20 -136 10 -156 23 -15 26 -15 55 6 34 24 36 29 15 56 -11 15 -14 54 -15 175
0 117 -3 159 -13 168 -10 8 -17 7 -25 -1z"/>
</g>
</svg>
