<?xml version="1.0" standalone="no"?>
<!DOCTYPE svg PUBLIC "-//W3C//DTD SVG 20010904//EN"
 "http://www.w3.org/TR/2001/REC-SVG-20010904/DTD/svg10.dtd">
<svg version="1.0" xmlns="http://www.w3.org/2000/svg"
 width="223.000000pt" height="310.000000pt" viewBox="0 0 223.000000 310.000000"
 preserveAspectRatio="xMidYMid meet">
<metadata>
Created by potrace 1.16, written by Peter Selinger 2001-2019
</metadata>
<g transform="translate(0.000000,310.000000) scale(0.100000,-0.100000)"
fill="#000000" stroke="none">
<path d="M806 2380 c-20 -22 -36 -48 -36 -58 0 -10 -4 -22 -9 -27 -5 -6 -23
-61 -40 -124 -26 -99 -36 -120 -68 -154 -45 -46 -209 -157 -233 -157 -36 0
-53 -49 -28 -83 12 -15 16 -15 49 6 62 38 122 80 171 120 38 31 49 36 54 24 3
-9 0 -25 -6 -37 -15 -29 -28 -198 -24 -326 3 -81 8 -113 25 -146 49 -98 92
-112 151 -50 45 45 95 149 80 164 -7 7 -16 1 -28 -18 -38 -62 -86 -114 -104
-114 -13 0 -27 14 -40 40 -23 45 -26 137 -10 335 16 196 26 236 77 302 44 57
93 142 93 163 0 22 -20 8 -47 -32 -30 -45 -53 -59 -53 -34 0 28 39 128 65 168
27 41 33 78 11 78 -7 0 -30 -18 -50 -40z"/>
<path d="M1101 2254 c-24 -17 -71 -111 -71 -143 0 -10 -8 -29 -18 -42 -22 -28
-52 -112 -52 -145 0 -24 61 -84 85 -84 14 0 83 81 120 142 13 21 29 33 43 33
12 0 27 6 33 12 15 15 -6 53 -31 53 -22 0 -85 -62 -107 -105 -20 -39 -64 -86
-75 -79 -4 3 -8 27 -8 54 0 38 10 67 45 137 26 48 58 100 73 116 21 22 24 31
16 44 -15 24 -26 25 -53 7z"/>
<path d="M183 2200 c0 -36 2 -50 4 -32 2 17 2 47 0 65 -2 17 -4 3 -4 -33z"/>
<path d="M2016 2080 c-16 -25 -37 -65 -45 -89 -19 -53 -47 -75 -132 -105 -76
-28 -106 -63 -77 -92 17 -18 19 -17 86 21 50 28 58 20 43 -43 -9 -42 -2 -99
21 -155 16 -41 55 -67 99 -67 37 0 39 2 39 30 0 28 -3 30 -34 30 -40 0 -44 4
-62 73 -12 47 -12 58 7 120 18 59 25 70 55 84 38 19 45 48 17 69 -17 12 -17
14 0 47 12 22 17 49 15 78 l-3 44 -29 -45z"/>
<path d="M1233 1805 c-18 -13 -26 -13 -42 -4 -16 11 -23 8 -45 -17 -26 -30
-34 -78 -15 -90 6 -3 23 6 38 20 27 26 51 34 51 16 0 -5 -20 -34 -44 -64 -96
-118 -118 -201 -68 -257 51 -57 167 -50 246 15 48 39 24 48 -54 20 -64 -23
-72 -24 -104 -10 -64 27 -80 86 -32 125 9 7 16 19 16 26 0 6 23 36 50 66 52
56 87 127 77 154 -8 19 -46 19 -74 0z"/>
<path d="M181 1225 c0 -78 3 -125 8 -120 6 6 6 59 2 130 l-8 120 -2 -130z"/>
</g>
</svg>
