<?xml version="1.0" standalone="no"?>
<!DOCTYPE svg PUBLIC "-//W3C//DTD SVG 20010904//EN"
 "http://www.w3.org/TR/2001/REC-SVG-20010904/DTD/svg10.dtd">
<svg version="1.0" xmlns="http://www.w3.org/2000/svg"
 width="276.000000pt" height="325.000000pt" viewBox="0 0 276.000000 325.000000"
 preserveAspectRatio="xMidYMid meet">
<metadata>
Created by potrace 1.16, written by Peter Selinger 2001-2019
</metadata>
<g transform="translate(0.000000,325.000000) scale(0.100000,-0.100000)"
fill="#000000" stroke="none">
<path d="M2404 2435 c-37 -18 -63 -42 -97 -89 -83 -117 -113 -189 -172 -430
-63 -259 -75 -369 -81 -750 -4 -307 -3 -341 12 -357 10 -11 24 -19 33 -19 15
0 17 30 18 292 3 385 23 570 88 818 70 262 123 386 185 428 18 12 59 32 91 43
77 28 87 41 53 68 -35 28 -69 27 -130 -4z"/>
<path d="M1166 2407 c-32 -32 -40 -99 -27 -238 5 -63 11 -181 13 -263 l3 -149
-65 -22 c-54 -18 -68 -27 -82 -56 -29 -59 -18 -98 17 -59 10 11 23 20 29 20 6
0 29 9 50 21 21 11 44 18 50 16 9 -4 14 -35 15 -94 2 -48 3 -101 4 -118 2 -26
-2 -30 -26 -33 -48 -6 -234 -217 -244 -276 -4 -26 -2 -36 7 -36 17 0 103 79
113 103 6 15 13 18 35 12 15 -4 50 -10 77 -14 l50 -6 0 -197 c0 -200 5 -228
38 -215 13 5 22 86 40 392 2 25 7 30 41 37 60 13 154 67 187 109 16 21 25 40
20 43 -5 4 -13 1 -17 -5 -12 -20 -134 -70 -185 -76 -60 -7 -60 -6 -62 119 -2
87 -1 93 18 92 11 -1 67 -7 123 -14 119 -14 137 -8 99 36 -27 31 -59 35 -182
24 l-50 -4 -7 64 c-4 36 -6 71 -3 78 2 6 21 12 42 12 36 0 115 25 173 55 28
14 56 70 41 80 -5 2 -32 -8 -62 -22 -42 -21 -68 -27 -123 -27 -70 -1 -71 -1
-77 29 -4 17 -7 73 -8 125 0 52 -8 159 -16 238 -9 85 -12 150 -7 160 5 9 12
32 15 50 6 27 4 32 -14 32 -11 0 -30 -11 -43 -23z m9 -1087 c0 -18 -33 -26
-47 -12 -6 6 -7 15 -3 22 10 16 50 8 50 -10z"/>
<path d="M870 1953 c-78 -65 -307 -486 -298 -548 5 -37 23 -21 68 67 25 47 53
95 63 105 9 11 17 25 17 31 0 6 13 26 29 44 16 18 46 66 66 106 21 40 54 89
75 110 44 44 64 78 56 98 -8 22 -41 17 -76 -13z"/>
<path d="M525 1791 c-22 -10 -60 -33 -85 -52 -25 -19 -72 -52 -105 -74 -33
-22 -77 -54 -98 -72 -20 -18 -42 -33 -47 -33 -6 0 -10 -16 -10 -36 l0 -36 42
36 c62 54 70 43 10 -14 -46 -44 -52 -54 -52 -91 l0 -41 42 31 c44 33 186 158
323 285 80 74 80 74 61 95 -23 25 -30 26 -81 2z"/>
<path d="M2440 1740 c-60 -31 -128 -113 -171 -208 -23 -48 -50 -105 -60 -128
-10 -23 -19 -56 -19 -74 0 -17 -9 -43 -20 -57 -30 -39 -27 -54 10 -41 38 13
179 -17 187 -40 4 -8 -1 -26 -9 -41 -9 -14 -30 -53 -48 -86 -18 -33 -41 -72
-51 -87 -24 -33 -24 -38 0 -38 24 0 50 31 125 148 33 51 63 92 66 92 4 0 31
-13 61 -30 30 -16 57 -30 62 -30 4 0 7 19 7 43 0 41 -2 43 -42 58 -50 19 -58
40 -29 79 47 65 64 137 68 292 l4 147 -38 10 c-51 14 -62 13 -103 -9z m82 -85
c9 -35 -16 -143 -65 -285 l-34 -95 -34 1 c-50 2 -151 22 -161 32 -5 5 19 66
59 143 80 158 151 243 199 237 21 -2 30 -10 36 -33z"/>
<path d="M744 1528 c11 -95 17 -200 25 -438 7 -232 16 -287 44 -277 7 2 11 13
10 23 -1 10 2 98 8 194 13 239 -5 434 -45 503 -37 62 -49 60 -42 -5z"/>
<path d="M961 606 c-10 -12 -10 -24 3 -58 9 -25 17 -82 18 -138 l3 -95 -85
-20 c-78 -19 -85 -23 -88 -47 -4 -37 26 -52 76 -39 20 6 100 22 177 36 120 21
187 41 255 75 8 4 15 18 15 31 0 30 -28 30 -100 1 -66 -27 -156 -43 -172 -30
-8 7 -11 48 -10 138 1 76 -2 133 -8 138 -20 19 -71 24 -84 8z"/>
<path d="M180 454 c1 -45 2 -48 15 -30 19 25 19 50 0 66 -13 11 -15 6 -15 -36z"/>
<path d="M1783 428 c-11 -13 -36 -48 -56 -78 -20 -30 -56 -69 -79 -86 -30 -22
-43 -38 -43 -55 0 -21 5 -24 46 -27 32 -2 50 2 59 13 7 8 17 15 23 15 6 0 18
6 26 14 9 7 27 17 40 21 22 7 23 5 19 -29 -4 -37 -4 -37 31 -34 l36 3 8 63 c9
61 8 65 -17 91 l-26 27 22 22 c21 21 21 22 3 42 -24 27 -66 26 -92 -2z"/>
<path d="M1232 223 c-7 -2 -17 -13 -22 -24 -10 -18 -7 -19 40 -19 38 0 50 4
50 15 0 12 -42 39 -53 34 -1 0 -8 -3 -15 -6z"/>
</g>
</svg>
