<?xml version="1.0" standalone="no"?>
<!DOCTYPE svg PUBLIC "-//W3C//DTD SVG 20010904//EN"
 "http://www.w3.org/TR/2001/REC-SVG-20010904/DTD/svg10.dtd">
<svg version="1.0" xmlns="http://www.w3.org/2000/svg"
 width="250.000000pt" height="282.000000pt" viewBox="0 0 250.000000 282.000000"
 preserveAspectRatio="xMidYMid meet">
<metadata>
Created by potrace 1.16, written by Peter Selinger 2001-2019
</metadata>
<g transform="translate(0.000000,282.000000) scale(0.100000,-0.100000)"
fill="#000000" stroke="none">
<path d="M1418 1681 c-16 -19 -28 -48 -32 -82 -10 -75 -29 -139 -76 -264 -54
-139 -109 -286 -149 -394 -18 -46 -40 -125 -49 -175 -16 -83 -23 -98 -74 -167
-71 -96 -103 -111 -133 -66 -16 26 -48 201 -64 357 -16 161 -63 250 -132 250
-58 0 -48 27 56 145 83 95 126 158 197 287 62 115 65 140 11 113 -43 -22 -60
-44 -83 -109 -25 -73 -60 -131 -161 -262 -126 -166 -170 -273 -110 -266 14 1
32 9 41 17 22 20 57 19 68 -2 19 -35 52 -188 52 -237 0 -104 52 -311 88 -348
44 -47 81 -39 147 29 30 32 68 72 84 88 16 17 34 49 41 73 20 78 87 276 108
322 33 72 72 169 104 255 73 198 89 244 104 302 17 67 16 154 -2 160 -6 2 -23
-9 -36 -26z"/>
<path d="M2299 1392 c-9 -15 -35 -57 -58 -94 -46 -74 -47 -78 -27 -78 7 0 34
25 60 56 39 48 46 63 46 100 0 24 -1 44 -2 44 -2 0 -10 -12 -19 -28z"/>
<path d="M2255 1160 c-25 -28 -13 -50 30 -50 33 0 35 2 35 35 0 30 -3 35 -23
35 -13 0 -32 -9 -42 -20z"/>
<path d="M1415 999 c-11 -17 4 -76 35 -143 108 -231 113 -241 188 -331 65 -79
123 -123 166 -127 46 -5 41 17 -12 50 -73 44 -159 175 -255 382 -48 106 -92
180 -107 180 -5 0 -12 -5 -15 -11z"/>
</g>
</svg>
