<?xml version="1.0" standalone="no"?>
<!DOCTYPE svg PUBLIC "-//W3C//DTD SVG 20010904//EN"
 "http://www.w3.org/TR/2001/REC-SVG-20010904/DTD/svg10.dtd">
<svg version="1.0" xmlns="http://www.w3.org/2000/svg"
 width="251.000000pt" height="269.000000pt" viewBox="0 0 251.000000 269.000000"
 preserveAspectRatio="xMidYMid meet">
<metadata>
Created by potrace 1.16, written by Peter Selinger 2001-2019
</metadata>
<g transform="translate(0.000000,269.000000) scale(0.100000,-0.100000)"
fill="#000000" stroke="none">
<path d="M2286 2464 c-3 -26 -6 -86 -6 -133 0 -55 -5 -93 -12 -103 -13 -16
-68 -34 -198 -65 -36 -8 -72 -22 -80 -30 -13 -13 -13 -16 5 -29 26 -20 80 -13
181 22 42 14 80 22 84 17 4 -4 6 -43 3 -86 -6 -76 -7 -78 -37 -91 -17 -8 -46
-26 -65 -40 -32 -24 -36 -24 -52 -10 -16 14 -18 13 -33 -17 -14 -29 -14 -34
-1 -49 21 -23 19 -33 -10 -60 -69 -65 3 -97 119 -54 47 18 58 10 54 -42 l-3
-38 -69 -17 c-76 -19 -90 -28 -84 -55 3 -15 12 -19 43 -18 22 0 51 3 65 5 23
4 25 1 24 -36 -2 -43 3 -37 -123 -137 -30 -24 -56 -48 -58 -55 -2 -6 7 -19 20
-28 23 -15 27 -14 76 11 29 14 54 24 57 22 17 -18 -7 -418 -28 -468 -20 -46
-54 -76 -103 -89 -70 -19 -118 -14 -166 19 -46 30 -65 24 -33 -12 53 -58 145
-78 226 -50 127 45 161 101 173 282 3 52 9 129 12 170 3 41 6 97 5 123 -2 46
24 117 48 132 5 3 10 29 10 57 0 40 -3 49 -15 45 -24 -10 -26 9 -5 36 24 30
26 66 4 82 -15 10 -15 16 1 73 14 49 15 70 7 104 -6 24 -7 48 -2 58 5 9 9 148
10 308 0 279 0 292 -18 292 -15 0 -21 -10 -26 -46z m-36 -620 c0 -7 -21 -24
-47 -36 -27 -12 -51 -23 -55 -25 -4 -2 -9 1 -12 6 -7 11 94 82 106 75 4 -3 8
-12 8 -20z m40 -109 c0 -8 -4 -15 -10 -15 -5 0 -10 7 -10 15 0 8 5 15 10 15 6
0 10 -7 10 -15z"/>
<path d="M1330 2107 c-54 -51 -180 -203 -180 -217 0 -13 13 -13 27 1 9 9 19 6
39 -10 68 -54 164 1 234 135 27 51 30 66 23 95 -9 32 -12 34 -54 37 -40 2 -48
-2 -89 -41z m94 -40 c-32 -100 -162 -192 -203 -143 -9 11 3 25 56 72 108 96
163 122 147 71z"/>
<path d="M880 2008 c-41 -45 -147 -169 -192 -226 -60 -76 -49 -102 32 -81 45
11 51 11 70 -6 39 -35 57 -129 64 -347 5 -118 9 -142 34 -170 17 -20 57 -24
68 -7 4 7 20 9 40 6 31 -5 34 -3 63 48 17 30 45 69 63 88 121 125 140 152 121
170 -6 7 -64 -24 -98 -53 -36 -31 -75 -34 -102 -8 l-25 23 -19 -24 c-10 -13
-19 -29 -19 -36 0 -20 27 -37 62 -41 18 -1 34 -3 35 -3 1 -1 -3 -15 -9 -31
-11 -34 -109 -106 -132 -97 -20 8 -25 55 -25 229 0 139 -3 162 -21 197 -11 22
-20 47 -20 56 0 28 -55 75 -89 75 -16 0 -32 3 -34 8 -3 4 46 54 109 111 63 57
114 110 114 117 0 13 -30 34 -49 34 -6 0 -24 -15 -41 -32z"/>
<path d="M1223 1714 c-112 -60 -182 -85 -205 -73 -33 18 -35 -1 -4 -28 24 -20
37 -24 64 -19 19 3 42 12 52 21 23 21 40 19 40 -5 0 -24 13 -26 30 -5 7 8 19
15 26 15 7 0 21 11 29 24 9 14 30 29 46 35 34 12 46 35 29 56 -18 22 -31 19
-107 -21z"/>
<path d="M221 1199 c-34 -20 -45 -38 -39 -64 2 -12 14 -5 46 28 48 49 44 67
-7 36z"/>
<path d="M1288 1164 c-14 -13 -9 -22 15 -23 181 -11 261 -11 270 -2 6 6 9 13
6 15 -8 8 -284 18 -291 10z"/>
</g>
</svg>
