<?xml version="1.0" standalone="no"?>
<!DOCTYPE svg PUBLIC "-//W3C//DTD SVG 20010904//EN"
 "http://www.w3.org/TR/2001/REC-SVG-20010904/DTD/svg10.dtd">
<svg version="1.0" xmlns="http://www.w3.org/2000/svg"
 width="230.000000pt" height="291.000000pt" viewBox="0 0 230.000000 291.000000"
 preserveAspectRatio="xMidYMid meet">
<metadata>
Created by potrace 1.16, written by Peter Selinger 2001-2019
</metadata>
<g transform="translate(0.000000,291.000000) scale(0.100000,-0.100000)"
fill="#000000" stroke="none">
<path d="M1369 2333 c-20 -27 -41 -57 -47 -68 -15 -30 -51 -184 -58 -254 -4
-34 -13 -66 -20 -72 -16 -13 -69 2 -132 38 -33 18 -47 22 -55 14 -19 -19 15
-63 68 -89 52 -26 50 -40 -8 -62 -77 -29 -201 -96 -227 -121 -31 -31 -44 -89
-31 -136 5 -17 5 -50 1 -74 -13 -77 -10 -326 4 -338 10 -8 16 -8 24 2 13 16
32 169 25 197 -3 11 -3 27 1 35 5 13 10 14 27 5 18 -10 25 -8 48 18 14 16 44
36 66 45 22 9 71 27 108 42 122 47 353 59 425 21 27 -14 32 -22 32 -51 0 -75
-59 -181 -122 -218 -124 -74 -218 -111 -314 -123 -62 -7 -90 -24 -81 -48 9
-22 119 -22 183 0 25 8 49 13 52 10 3 -4 -9 -25 -26 -49 -112 -147 -231 -379
-255 -493 -12 -60 -9 -67 41 -80 30 -8 69 28 128 119 42 65 91 107 126 107 24
0 26 -7 37 -116 13 -131 28 -196 54 -235 43 -63 84 -66 54 -5 -8 19 -21 81
-27 138 -23 219 -39 260 -100 266 -69 7 -133 -39 -214 -153 -26 -37 -27 -9 0
51 104 240 197 381 364 553 142 146 175 203 168 282 -11 108 -60 133 -263 133
-142 0 -253 -17 -314 -49 -15 -7 -56 -23 -91 -35 -36 -12 -74 -30 -86 -41 -30
-28 -44 -7 -44 63 0 91 18 121 91 159 82 41 217 89 251 89 16 0 31 8 37 19 6
10 54 40 107 67 101 51 149 87 139 104 -11 18 -65 11 -117 -16 -28 -14 -54
-22 -59 -17 -7 8 9 86 51 238 22 81 34 175 22 175 -4 0 -24 -21 -43 -47z"/>
<path d="M737 2053 c-4 -3 -7 -14 -7 -23 0 -16 -93 -234 -109 -254 -4 -6 -15
-30 -25 -54 -19 -49 -112 -187 -168 -250 -60 -66 -120 -164 -108 -176 13 -13
46 19 168 162 133 155 208 276 272 436 21 55 28 84 23 108 -9 47 -28 69 -46
51z"/>
<path d="M1395 1454 c-16 -8 -43 -24 -60 -34 -33 -20 -101 -46 -215 -81 -41
-12 -81 -28 -89 -35 -23 -21 -5 -44 34 -44 47 0 213 57 305 106 67 35 75 42
75 68 0 36 -11 40 -50 20z"/>
<path d="M663 1444 c-8 -20 4 -169 17 -214 15 -52 12 -202 -9 -407 -23 -225
-15 -291 35 -281 16 3 19 12 17 53 -1 28 9 129 23 227 23 161 24 188 15 312
-6 75 -15 145 -21 156 -5 10 -10 28 -10 39 0 29 -40 131 -51 131 -5 0 -12 -7
-16 -16z"/>
<path d="M2056 451 c-9 -16 -16 -35 -16 -40 0 -15 62 -101 72 -101 5 0 8 37 6
83 -3 76 -5 82 -25 85 -16 2 -26 -5 -37 -27z"/>
</g>
</svg>
