<?xml version="1.0" standalone="no"?>
<!DOCTYPE svg PUBLIC "-//W3C//DTD SVG 20010904//EN"
 "http://www.w3.org/TR/2001/REC-SVG-20010904/DTD/svg10.dtd">
<svg version="1.0" xmlns="http://www.w3.org/2000/svg"
 width="223.000000pt" height="310.000000pt" viewBox="0 0 223.000000 310.000000"
 preserveAspectRatio="xMidYMid meet">
<metadata>
Created by potrace 1.16, written by Peter Selinger 2001-2019
</metadata>
<g transform="translate(0.000000,310.000000) scale(0.100000,-0.100000)"
fill="#000000" stroke="none">
<path d="M871 2514 c-45 -45 -44 -44 -145 -254 -46 -98 -89 -174 -140 -251
-52 -78 -72 -112 -115 -193 -35 -67 -40 -81 -28 -93 11 -11 25 5 87 104 41 65
91 141 112 169 21 28 38 54 38 58 0 4 22 40 49 80 27 40 66 108 88 152 46 92
98 182 121 207 14 15 13 19 -3 37 -10 11 -21 20 -24 19 -3 0 -21 -16 -40 -35z"/>
<path d="M1150 2273 c-8 -3 -73 -35 -145 -70 -71 -36 -157 -76 -190 -90 -81
-34 -115 -60 -115 -87 0 -39 18 -47 59 -24 20 11 41 25 48 30 19 16 34 0 23
-25 -5 -12 -18 -56 -29 -98 -22 -89 -16 -153 19 -181 38 -31 58 -22 134 59 91
96 106 95 106 -7 0 -42 -6 -82 -14 -99 -15 -29 -170 -174 -218 -204 -30 -19
-36 -48 -14 -66 18 -15 62 1 70 27 3 10 22 33 41 52 l35 34 0 -27 c0 -15 -7
-44 -16 -65 -25 -55 -25 -278 -1 -315 27 -42 67 -36 117 15 22 23 40 46 40 52
0 5 6 17 14 25 18 20 76 136 76 152 0 21 -51 -33 -81 -87 -44 -76 -92 -129
-112 -121 -38 14 -12 307 33 368 10 15 22 39 26 53 3 14 12 30 20 37 8 6 14
21 14 32 0 11 10 39 22 63 20 41 21 50 11 115 -18 112 -56 136 -126 78 -21
-17 -46 -48 -57 -70 -22 -42 -75 -78 -92 -61 -6 6 -12 30 -15 54 -6 59 25 131
66 153 38 19 41 52 6 65 -14 5 -25 14 -25 19 0 5 53 36 118 69 191 99 222 116
222 128 0 20 -38 29 -70 17z"/>
<path d="M1592 2231 c-12 -22 -21 -53 -20 -68 2 -48 -13 -417 -17 -439 -3 -11
2 -126 10 -255 19 -298 19 -319 1 -319 -8 0 -26 24 -41 54 -31 64 -52 76 -65
40 -16 -40 6 -103 49 -142 30 -29 41 -33 70 -28 19 3 43 13 52 23 17 17 17 30
3 258 -18 281 -19 337 -8 590 11 270 11 318 -2 322 -6 2 -21 -14 -32 -36z"/>
<path d="M1365 1954 c-9 -22 -17 -57 -17 -79 -1 -61 19 -186 30 -197 15 -15
40 -3 53 25 9 20 8 30 -6 51 -14 20 -18 50 -19 121 -1 112 -16 139 -41 79z"/>
<path d="M1966 1913 c-44 -29 -87 -53 -96 -53 -37 0 -53 -49 -27 -83 13 -18
18 -16 141 66 63 42 69 51 64 94 l-3 28 -79 -52z"/>
<path d="M619 1888 c-18 -43 -18 -525 0 -648 14 -90 53 -211 76 -230 21 -17
29 6 17 53 -35 143 -51 366 -46 637 3 145 -5 220 -26 220 -4 0 -14 -15 -21
-32z"/>
</g>
</svg>
