<?xml version="1.0" standalone="no"?>
<!DOCTYPE svg PUBLIC "-//W3C//DTD SVG 20010904//EN"
 "http://www.w3.org/TR/2001/REC-SVG-20010904/DTD/svg10.dtd">
<svg version="1.0" xmlns="http://www.w3.org/2000/svg"
 width="235.000000pt" height="299.000000pt" viewBox="0 0 235.000000 299.000000"
 preserveAspectRatio="xMidYMid meet">
<metadata>
Created by potrace 1.16, written by Peter Selinger 2001-2019
</metadata>
<g transform="translate(0.000000,299.000000) scale(0.100000,-0.100000)"
fill="#000000" stroke="none">
<path d="M205 2668 c-9 -32 -17 -76 -18 -108 -2 -31 1 -35 32 -44 29 -8 36 -7
48 10 27 37 26 60 -8 108 -34 47 -47 55 -54 34z"/>
<path d="M820 2670 c0 -6 6 -23 14 -39 8 -15 20 -74 26 -132 23 -220 39 -261
100 -267 69 -7 133 39 214 153 26 37 27 9 0 -51 -104 -240 -197 -381 -364
-553 -142 -146 -175 -203 -168 -282 11 -108 60 -133 263 -133 142 0 253 17
314 49 15 7 56 23 91 35 36 12 74 30 86 41 30 28 44 7 44 -63 0 -91 -18 -121
-91 -159 -82 -41 -217 -89 -251 -89 -16 0 -31 -8 -37 -19 -6 -10 -54 -40 -107
-67 -101 -51 -149 -87 -139 -104 11 -18 65 -11 117 16 28 14 54 22 59 17 7 -8
-9 -86 -51 -238 -22 -81 -34 -175 -22 -175 8 0 71 80 90 115 15 30 51 184 58
254 4 34 13 66 20 72 16 13 69 -2 132 -38 33 -18 47 -22 55 -14 19 19 -15 63
-68 89 -52 26 -50 40 8 62 77 29 201 96 227 121 31 31 44 89 31 136 -5 17 -5
50 -1 74 13 77 10 326 -4 338 -10 8 -16 8 -24 -2 -13 -16 -32 -169 -25 -197 3
-11 3 -27 -1 -35 -5 -13 -10 -14 -27 -5 -18 10 -25 8 -48 -18 -14 -16 -44 -36
-66 -45 -22 -9 -71 -27 -108 -42 -122 -47 -353 -59 -424 -21 -28 14 -33 22
-33 51 0 75 59 181 122 218 124 74 218 111 314 123 62 7 90 24 81 48 -9 22
-119 22 -183 0 -25 -8 -49 -13 -52 -10 -3 4 9 25 26 49 112 147 231 379 255
493 12 60 9 67 -41 80 -30 8 -69 -28 -128 -119 -45 -69 -94 -109 -129 -105
-17 3 -21 14 -28 68 -24 207 -39 264 -79 307 -22 24 -48 31 -48 13z"/>
<path d="M1604 2435 c-4 -8 -3 -31 0 -50 4 -20 -4 -110 -19 -214 -24 -165 -25
-190 -16 -313 6 -73 15 -146 20 -163 5 -16 17 -55 25 -85 20 -68 30 -85 46
-75 15 9 8 165 -10 225 -15 52 -12 202 9 407 17 168 16 240 -3 271 -10 17 -46
15 -52 -3z"/>
<path d="M1130 1696 c-52 -18 -129 -50 -170 -72 -68 -36 -75 -42 -75 -69 0
-25 4 -30 22 -28 12 2 44 16 70 32 50 31 107 53 233 92 83 25 106 40 97 63
-10 25 -71 19 -177 -18z"/>
<path d="M1939 1642 c-198 -214 -292 -354 -368 -546 -31 -77 -33 -134 -5 -157
16 -13 34 -3 34 20 0 16 93 234 109 255 4 6 15 30 25 54 19 49 112 187 168
250 50 55 119 162 112 173 -10 17 -22 9 -75 -49z"/>
</g>
</svg>
