<?xml version="1.0" standalone="no"?>
<!DOCTYPE svg PUBLIC "-//W3C//DTD SVG 20010904//EN"
 "http://www.w3.org/TR/2001/REC-SVG-20010904/DTD/svg10.dtd">
<svg version="1.0" xmlns="http://www.w3.org/2000/svg"
 width="253.000000pt" height="347.000000pt" viewBox="0 0 253.000000 347.000000"
 preserveAspectRatio="xMidYMid meet">
<metadata>
Created by potrace 1.16, written by Peter Selinger 2001-2019
</metadata>
<g transform="translate(0.000000,347.000000) scale(0.100000,-0.100000)"
fill="#000000" stroke="none">
<path d="M275 2321 c-3 -6 -17 -11 -30 -11 -25 0 -51 -33 -40 -50 3 -6 19 -10
34 -10 16 0 56 -9 89 -19 53 -17 68 -18 121 -8 76 14 81 39 11 47 -25 3 -56
12 -69 19 -13 7 -36 17 -50 21 -14 4 -33 11 -42 15 -10 3 -20 2 -24 -4z"/>
<path d="M1657 2293 c-4 -3 -7 -17 -7 -29 0 -13 -6 -38 -14 -56 -8 -18 -24
-59 -36 -91 -22 -55 -22 -58 -5 -77 37 -41 63 -15 102 103 29 89 30 133 4 147
-23 12 -35 13 -44 3z"/>
<path d="M1084 2233 c-12 -2 -32 -15 -45 -29 -22 -23 -22 -27 -10 -72 15 -60
34 -80 55 -62 9 7 16 26 16 42 0 34 17 43 65 34 75 -14 128 -89 145 -204 12
-90 24 -120 63 -159 43 -45 69 -42 148 16 62 45 67 52 74 96 8 59 -4 74 -32
37 -28 -38 -131 -108 -141 -96 -8 9 -39 112 -63 209 -18 72 -102 159 -174 180
-53 15 -62 16 -101 8z"/>
<path d="M1743 1758 c-4 -7 -8 -47 -8 -88 0 -71 -1 -75 -23 -78 -13 -2 -39
-14 -58 -27 -19 -13 -60 -31 -92 -40 -31 -9 -70 -20 -87 -25 -16 -5 -59 -16
-95 -25 -36 -9 -70 -21 -77 -27 -7 -5 -49 -10 -95 -11 -83 -2 -83 -2 -80 23 1
14 15 43 31 65 41 58 62 103 52 109 -14 9 -69 -42 -118 -107 -52 -71 -56 -111
-17 -148 23 -22 33 -24 112 -23 68 1 109 9 187 34 55 17 138 42 185 54 47 13
100 30 117 39 40 21 52 21 73 2 16 -15 20 -13 45 16 25 31 27 38 23 108 -6
104 -49 189 -75 149z"/>
<path d="M1473 1303 c-20 -42 8 -35 -241 -62 -104 -11 -142 -29 -142 -66 0
-33 10 -36 62 -20 50 15 257 23 276 11 18 -11 14 -51 -5 -69 -10 -8 -31 -19
-48 -23 -16 -4 -58 -20 -92 -36 -34 -16 -85 -37 -115 -47 -58 -20 -68 -40 -27
-55 21 -7 48 -2 120 23 52 18 106 34 120 37 l25 6 -4 -142 c-3 -93 0 -162 8
-199 20 -90 18 -87 42 -64 19 19 21 38 28 209 5 104 13 201 19 216 7 18 19 28
43 32 69 14 174 38 213 49 37 11 40 15 45 52 5 37 7 40 39 41 34 2 65 27 58
48 -2 5 -14 18 -28 27 -22 16 -35 17 -144 7 -206 -18 -199 -19 -205 21 -7 48
-26 49 -47 4z m262 -112 c-6 -4 -55 -20 -109 -35 -69 -19 -102 -24 -110 -16
-19 19 17 39 89 49 95 12 141 13 130 2z"/>
</g>
</svg>
