<?xml version="1.0" standalone="no"?>
<!DOCTYPE svg PUBLIC "-//W3C//DTD SVG 20010904//EN"
 "http://www.w3.org/TR/2001/REC-SVG-20010904/DTD/svg10.dtd">
<svg version="1.0" xmlns="http://www.w3.org/2000/svg"
 width="232.000000pt" height="332.000000pt" viewBox="0 0 232.000000 332.000000"
 preserveAspectRatio="xMidYMid meet">
<metadata>
Created by potrace 1.16, written by Peter Selinger 2001-2019
</metadata>
<g transform="translate(0.000000,332.000000) scale(0.100000,-0.100000)"
fill="#000000" stroke="none">
<path d="M180 2305 c0 -31 2 -33 93 -69 51 -20 108 -46 127 -58 72 -44 138
-77 179 -88 51 -14 58 -28 37 -83 -9 -24 -16 -50 -16 -58 0 -9 -11 -33 -25
-53 -29 -43 -32 -74 -8 -83 23 -9 73 49 73 85 0 15 4 32 8 37 5 6 17 39 27 74
25 84 28 276 5 276 -11 0 -18 -20 -25 -77 -5 -42 -13 -80 -18 -84 -4 -4 -17 2
-30 13 -36 34 -307 170 -369 186 l-58 15 0 -33z"/>
<path d="M983 2284 c-3 -9 4 -39 16 -68 11 -28 21 -63 21 -76 0 -24 24 -108
40 -140 16 -32 25 -1 25 80 -1 95 -15 146 -52 190 -28 34 -41 37 -50 14z"/>
<path d="M1216 2217 c-79 -22 -104 -41 -93 -70 6 -17 3 -17 135 14 115 27 155
20 160 -26 2 -17 -16 -84 -38 -150 -23 -66 -46 -138 -52 -160 -6 -22 -17 -47
-24 -56 -8 -8 -14 -27 -14 -41 0 -14 -9 -33 -20 -43 -11 -10 -20 -24 -20 -32
0 -7 -16 -44 -35 -82 -19 -37 -35 -74 -35 -81 0 -6 -8 -25 -17 -41 -13 -22
-14 -32 -6 -40 18 -18 38 -5 58 38 9 21 32 67 50 103 103 207 237 619 215 660
-19 36 -145 39 -264 7z"/>
<path d="M396 2092 c-3 -6 -2 -38 2 -72 5 -34 5 -78 1 -98 -5 -20 -17 -108
-28 -195 -21 -176 -28 -191 -91 -202 -42 -7 -100 -58 -80 -70 19 -11 91 4 150
31 70 33 211 74 275 81 99 10 130 36 81 69 -23 14 -31 14 -105 -1 -43 -9 -97
-25 -120 -35 -63 -31 -111 -21 -80 16 7 9 16 41 20 72 4 32 13 95 20 142 15
112 7 226 -19 253 -12 11 -22 15 -26 9z"/>
<path d="M210 1877 c-19 -9 -26 -22 -28 -51 -3 -34 -1 -38 15 -31 10 4 38 11
63 16 55 11 79 32 64 57 -14 21 -80 27 -114 9z"/>
<path d="M1505 1868 c-2 -7 -6 -26 -9 -43 -5 -35 -78 -252 -113 -342 -13 -33
-28 -87 -32 -117 -4 -31 -13 -62 -19 -68 -7 -7 -12 -18 -12 -26 0 -8 -6 -28
-14 -45 -58 -127 -89 -258 -65 -281 22 -23 63 84 169 446 16 53 33 105 39 116
5 10 28 89 50 176 31 120 39 162 31 177 -12 22 -19 24 -25 7z"/>
<path d="M2091 1786 c-10 -12 -8 -17 8 -25 31 -17 41 -13 41 14 0 28 -29 35
-49 11z"/>
<path d="M427 1394 c-4 -4 -7 -16 -7 -26 0 -12 7 -18 25 -18 32 0 76 21 72 34
-4 13 -79 21 -90 10z"/>
<path d="M226 1381 c-4 -5 -4 -16 -1 -24 4 -8 -4 -21 -18 -30 -24 -16 -25 -18
-26 -181 l-2 -164 35 -36 c45 -44 95 -53 216 -37 116 15 120 17 120 55 0 46
-15 58 -54 41 -17 -7 -57 -21 -89 -31 -56 -17 -59 -17 -104 2 -69 28 -88 67
-86 170 0 49 9 108 23 152 11 40 18 77 15 82 -8 12 -22 13 -29 1z"/>
<path d="M595 1370 c-4 -6 -2 -16 3 -23 5 -7 13 -58 17 -115 4 -56 11 -105 17
-108 5 -3 18 2 29 12 23 21 25 78 4 148 -24 78 -53 114 -70 86z"/>
<path d="M386 1353 c-9 -9 -7 -33 3 -33 12 0 22 28 12 34 -5 3 -11 3 -15 -1z"/>
<path d="M364 1176 c-18 -8 -34 -19 -38 -24 -10 -17 36 -54 59 -48 11 3 28 6
37 6 10 0 25 11 34 25 31 48 -22 71 -92 41z"/>
</g>
</svg>
