<?xml version="1.0" standalone="no"?>
<!DOCTYPE svg PUBLIC "-//W3C//DTD SVG 20010904//EN"
 "http://www.w3.org/TR/2001/REC-SVG-20010904/DTD/svg10.dtd">
<svg version="1.0" xmlns="http://www.w3.org/2000/svg"
 width="229.000000pt" height="315.000000pt" viewBox="0 0 229.000000 315.000000"
 preserveAspectRatio="xMidYMid meet">
<metadata>
Created by potrace 1.16, written by Peter Selinger 2001-2019
</metadata>
<g transform="translate(0.000000,315.000000) scale(0.100000,-0.100000)"
fill="#000000" stroke="none">
<path d="M1175 2356 c-65 -28 -195 -207 -210 -289 -7 -33 -5 -37 32 -57 21
-11 66 -40 99 -64 34 -24 92 -54 129 -66 59 -20 69 -21 82 -8 13 13 6 19 -59
51 -40 20 -95 54 -122 76 -26 23 -58 41 -70 41 -12 0 -30 6 -40 13 -16 12 -14
17 23 72 37 55 72 93 159 174 51 47 36 83 -23 57z"/>
<path d="M629 1893 c-20 -52 2 -203 30 -203 16 0 22 52 10 87 -8 26 -8 40 0
57 6 11 13 34 14 51 2 24 -2 31 -20 33 -17 3 -26 -4 -34 -25z"/>
<path d="M2103 1735 c0 -33 2 -45 4 -27 2 18 2 45 0 60 -2 15 -4 0 -4 -33z"/>
<path d="M1035 1741 c-3 -11 -17 -36 -31 -57 -25 -36 -25 -37 -6 -56 15 -16
34 -19 95 -20 41 0 89 3 106 7 26 5 31 4 31 -12 0 -10 -13 -34 -30 -53 -29
-35 -38 -60 -21 -60 18 0 119 100 131 130 17 41 7 50 -66 57 -50 5 -65 11 -96
40 -20 20 -41 32 -47 29 -15 -9 -14 -39 1 -54 17 -17 -3 -35 -33 -30 -25 3
-27 14 -13 71 7 31 -11 38 -21 8z"/>
<path d="M769 1653 c-83 -112 -117 -205 -85 -232 13 -11 17 -11 20 0 2 8 12
39 22 69 21 69 50 127 80 163 22 26 24 47 6 47 -4 0 -24 -21 -43 -47z"/>
<path d="M1050 1320 c-15 -28 -5 -41 80 -115 118 -102 254 -175 328 -175 33 0
27 26 -10 41 -54 22 -177 107 -276 190 -51 44 -97 79 -102 79 -5 0 -14 -9 -20
-20z"/>
<path d="M2042 719 c2 -7 10 -15 17 -17 8 -3 12 1 9 9 -2 7 -10 15 -17 17 -8
3 -12 -1 -9 -9z"/>
</g>
</svg>
