<?xml version="1.0" standalone="no"?>
<!DOCTYPE svg PUBLIC "-//W3C//DTD SVG 20010904//EN"
 "http://www.w3.org/TR/2001/REC-SVG-20010904/DTD/svg10.dtd">
<svg version="1.0" xmlns="http://www.w3.org/2000/svg"
 width="223.000000pt" height="310.000000pt" viewBox="0 0 223.000000 310.000000"
 preserveAspectRatio="xMidYMid meet">
<metadata>
Created by potrace 1.16, written by Peter Selinger 2001-2019
</metadata>
<g transform="translate(0.000000,310.000000) scale(0.100000,-0.100000)"
fill="#000000" stroke="none">
<path d="M855 2352 c-19 -29 -26 -56 -31 -117 -3 -44 -12 -105 -20 -135 -19
-80 -39 -308 -38 -440 3 -243 58 -366 188 -415 44 -17 50 -17 133 1 95 19 263
96 303 139 21 23 22 26 10 112 -13 97 -28 138 -50 138 -12 0 -15 -19 -15 -104
l0 -104 -59 -32 c-32 -18 -102 -48 -155 -66 -91 -31 -100 -32 -143 -20 -61 17
-89 51 -119 141 -22 69 -24 89 -22 260 1 148 7 228 32 398 17 117 35 222 41
233 9 15 8 24 -1 35 -18 21 -26 17 -54 -24z"/>
<path d="M605 2217 c-12 -19 -12 -30 -3 -62 15 -52 15 -254 -1 -330 -7 -33
-20 -87 -30 -120 -32 -105 -55 -214 -47 -222 16 -16 44 38 86 164 50 151 57
178 69 262 11 69 -1 260 -19 305 -12 32 -35 33 -55 3z"/>
<path d="M2000 2180 c-19 -10 -76 -39 -125 -64 -50 -24 -97 -51 -104 -60 -8
-9 -33 -25 -56 -35 -53 -24 -61 -36 -41 -66 20 -31 47 -32 72 -4 25 27 112 85
144 94 13 4 46 23 73 41 26 18 56 36 67 39 15 5 20 15 20 41 0 40 -4 41 -50
14z"/>
<path d="M2010 1862 c-135 -72 -160 -93 -140 -117 19 -23 43 -18 99 20 28 19
57 35 66 35 11 0 15 11 15 40 0 22 -1 40 -3 40 -1 0 -18 -8 -37 -18z"/>
<path d="M2013 1548 c-51 -85 -123 -244 -123 -270 0 -14 8 -32 18 -41 51 -46
142 12 142 88 -1 35 -2 37 -12 20 -15 -28 -38 -45 -61 -45 -24 0 -18 19 34
123 34 65 40 86 37 128 l-3 51 -32 -54z"/>
</g>
</svg>
