<?xml version="1.0" standalone="no"?>
<!DOCTYPE svg PUBLIC "-//W3C//DTD SVG 20010904//EN"
 "http://www.w3.org/TR/2001/REC-SVG-20010904/DTD/svg10.dtd">
<svg version="1.0" xmlns="http://www.w3.org/2000/svg"
 width="249.000000pt" height="346.000000pt" viewBox="0 0 249.000000 346.000000"
 preserveAspectRatio="xMidYMid meet">
<metadata>
Created by potrace 1.16, written by Peter Selinger 2001-2019
</metadata>
<g transform="translate(0.000000,346.000000) scale(0.100000,-0.100000)"
fill="#000000" stroke="none">
<path d="M933 2938 c-4 -7 -15 -31 -23 -53 -9 -22 -26 -45 -38 -51 -13 -6 -36
-23 -51 -38 -21 -20 -36 -26 -62 -24 l-34 3 -6 -110 c-4 -72 -16 -143 -33
-205 -61 -218 -77 -288 -83 -351 -6 -74 6 -95 33 -54 20 30 37 32 55 5 13 -19
19 -20 68 -10 70 13 118 13 127 -1 3 -6 -9 -27 -28 -47 -34 -37 -53 -72 -146
-277 -54 -119 -57 -128 -72 -233 -10 -75 -1 -127 23 -119 6 2 19 37 28 78 24
115 56 202 132 354 38 77 80 167 92 200 l23 60 58 2 c77 3 214 23 237 35 12 6
17 18 15 36 -2 22 -8 27 -28 25 -14 -1 -82 -7 -151 -14 -69 -7 -134 -9 -144
-6 -15 6 -16 16 -10 70 8 77 32 176 46 194 7 7 30 13 53 13 72 1 178 26 193
46 22 29 13 129 -11 121 -6 -2 -13 -17 -17 -34 -9 -44 -17 -53 -50 -53 -16 0
-64 -7 -105 -16 -42 -8 -77 -14 -79 -12 -2 2 1 55 5 118 15 204 16 353 3 357
-6 2 -15 -2 -20 -9z m-53 -322 c0 -139 -7 -161 -53 -170 -43 -8 -76 -43 -84
-90 -7 -44 -1 -45 35 -7 16 18 39 31 57 33 l30 3 3 -85 c1 -47 -1 -103 -6
-125 l-8 -40 -85 0 c-46 0 -89 -3 -96 -8 -24 -15 -21 12 12 114 90 278 105
329 115 389 5 36 10 69 10 73 0 8 37 25 58 26 9 1 12 -28 12 -113z"/>
<path d="M2177 2534 c-3 -4 -3 -34 0 -68 l6 -62 -50 -44 c-27 -25 -74 -81
-105 -125 -31 -44 -79 -106 -107 -138 -53 -60 -55 -65 -45 -91 11 -29 28 -16
101 77 90 115 219 248 256 265 15 6 39 12 52 12 25 0 25 1 25 86 l0 85 -30
-18 c-29 -17 -30 -17 -46 5 -14 21 -44 29 -57 16z"/>
<path d="M2266 2118 c-26 -23 -30 -38 -28 -95 2 -34 22 -47 22 -14 0 10 11 26
25 35 20 13 25 25 25 56 0 46 -9 49 -44 18z"/>
<path d="M2050 1945 c0 -8 5 -15 10 -15 6 0 10 7 10 15 0 8 -4 15 -10 15 -5 0
-10 -7 -10 -15z"/>
<path d="M916 1858 c-3 -18 -18 -49 -32 -69 -18 -27 -26 -54 -31 -105 -4 -60
-1 -79 26 -154 17 -46 42 -100 55 -120 34 -51 123 -116 185 -134 60 -17 186
-21 241 -6 153 39 254 75 392 139 36 17 79 31 95 31 64 0 84 52 26 66 -15 4
-35 13 -44 21 -9 7 -23 11 -32 7 -25 -9 -56 60 -39 86 16 25 15 30 -3 30 -8 0
-15 -4 -15 -10 0 -14 -37 -13 -46 1 -10 17 -44 -31 -44 -63 0 -16 12 -41 30
-61 17 -19 30 -40 30 -46 0 -15 -105 -62 -243 -108 -101 -34 -122 -38 -212
-37 -78 0 -110 5 -146 21 -95 43 -153 122 -178 243 -12 56 -9 207 4 268 5 19
4 32 -2 32 -6 0 -13 -15 -17 -32z"/>
<path d="M2075 1758 c9 -146 33 -274 57 -295 44 -39 79 38 38 82 -19 20 -24
41 -31 132 -11 147 -23 183 -56 183 -12 0 -14 -16 -8 -102z"/>
<path d="M2233 1623 c-33 -4 -59 -26 -49 -41 3 -5 25 -12 49 -15 23 -3 51 -9
60 -13 14 -5 17 0 17 35 0 45 2 44 -77 34z"/>
</g>
</svg>
