<?xml version="1.0" standalone="no"?>
<!DOCTYPE svg PUBLIC "-//W3C//DTD SVG 20010904//EN"
 "http://www.w3.org/TR/2001/REC-SVG-20010904/DTD/svg10.dtd">
<svg version="1.0" xmlns="http://www.w3.org/2000/svg"
 width="279.000000pt" height="372.000000pt" viewBox="0 0 279.000000 372.000000"
 preserveAspectRatio="xMidYMid meet">
<metadata>
Created by potrace 1.16, written by Peter Selinger 2001-2019
</metadata>
<g transform="translate(0.000000,372.000000) scale(0.100000,-0.100000)"
fill="#000000" stroke="none">
<path d="M180 3493 l0 -46 24 22 c14 13 46 34 73 47 l48 23 -72 1 -73 0 0 -47z"/>
<path d="M333 3504 c-38 -41 -42 -69 -13 -84 l21 -11 -21 -34 c-22 -36 -14
-53 19 -36 27 15 71 70 71 89 0 9 23 37 52 64 l52 48 -74 0 c-73 -1 -76 -1
-107 -36z"/>
<path d="M1840 3478 c-63 -33 -143 -77 -178 -99 -35 -21 -67 -39 -71 -39 -4 0
-16 -9 -27 -21 -19 -21 -19 -21 11 -45 41 -33 62 -30 87 12 15 26 37 44 74 60
28 12 77 39 109 59 32 21 103 59 159 85 l101 48 -75 0 c-71 -1 -80 -4 -190
-60z"/>
<path d="M2286 3528 c-19 -61 -13 -148 10 -148 8 0 15 21 20 58 4 31 10 67 15
80 7 19 5 22 -17 22 -13 0 -26 -6 -28 -12z"/>
<path d="M460 3280 c0 -37 4 -43 47 -70 53 -34 120 -40 176 -16 55 22 116 106
78 106 -4 0 -28 -13 -52 -30 -62 -41 -112 -46 -169 -18 -25 13 -49 33 -55 46
-15 34 -25 27 -25 -18z"/>
<path d="M2540 2074 c-85 -43 -129 -56 -220 -63 -68 -5 -75 -8 -78 -28 -5 -32
37 -46 121 -40 55 3 84 13 153 48 91 46 97 53 92 91 l-3 24 -65 -32z"/>
<path d="M1045 1919 c-22 -12 -51 -31 -65 -43 -14 -12 -37 -30 -52 -39 -21
-13 -28 -25 -28 -50 0 -18 -4 -47 -9 -65 -7 -23 -6 -41 1 -58 11 -24 28 -33
28 -14 0 6 7 10 16 10 14 0 15 -23 10 -202 -5 -190 -16 -347 -32 -447 -6 -39
-5 -43 12 -39 15 2 23 23 40 102 26 117 47 311 45 419 -1 42 3 86 9 97 8 15 7
34 -5 72 -32 110 -12 174 70 212 45 22 67 10 90 -46 14 -34 19 -92 26 -278 4
-129 12 -258 18 -285 12 -62 60 -166 100 -215 59 -73 237 -160 329 -160 64 0
148 27 186 61 46 40 88 189 53 189 -7 0 -19 -21 -26 -46 -21 -72 -63 -108
-146 -127 -60 -13 -79 -14 -130 -3 -113 24 -198 86 -259 190 -49 81 -57 136
-65 410 -6 225 -8 244 -30 289 -40 83 -108 107 -186 66z"/>
<path d="M2577 1837 c-20 -16 -31 -37 -40 -82 -7 -33 -15 -65 -20 -72 -4 -6
-54 -34 -112 -62 -58 -28 -105 -55 -105 -59 0 -17 25 -32 52 -32 31 0 70 15
110 43 40 26 48 15 33 -46 -7 -28 -23 -135 -36 -236 -20 -161 -21 -193 -11
-264 20 -138 43 -127 49 22 4 105 24 257 48 366 9 39 20 96 26 128 5 32 16 75
25 96 10 26 14 65 12 129 l-3 92 -28 -23z"/>
<path d="M890 1590 c0 -5 5 -10 10 -10 6 0 10 5 10 10 0 6 -4 10 -10 10 -5 0
-10 -4 -10 -10z"/>
<path d="M2570 1289 c0 -17 9 -42 20 -56 l20 -26 0 51 c0 36 -4 52 -16 56 -23
9 -24 8 -24 -25z"/>
</g>
</svg>
