<?xml version="1.0" standalone="no"?>
<!DOCTYPE svg PUBLIC "-//W3C//DTD SVG 20010904//EN"
 "http://www.w3.org/TR/2001/REC-SVG-20010904/DTD/svg10.dtd">
<svg version="1.0" xmlns="http://www.w3.org/2000/svg"
 width="265.000000pt" height="341.000000pt" viewBox="0 0 265.000000 341.000000"
 preserveAspectRatio="xMidYMid meet">
<metadata>
Created by potrace 1.16, written by Peter Selinger 2001-2019
</metadata>
<g transform="translate(0.000000,341.000000) scale(0.100000,-0.100000)"
fill="#000000" stroke="none">
<path d="M2265 2638 c-3 -7 -9 -76 -15 -153 -5 -77 -14 -187 -20 -244 l-11
-104 -90 -89 c-50 -50 -88 -95 -86 -101 2 -7 13 -16 26 -22 18 -8 21 -16 17
-37 -10 -50 21 -35 146 68 92 76 116 90 124 70 8 -21 -41 -105 -87 -148 -42
-40 -48 -58 -24 -78 18 -15 38 -3 116 66 28 25 56 43 62 41 15 -5 11 -76 -9
-172 -32 -150 -26 -341 10 -391 13 -17 14 -17 24 2 5 10 13 52 17 92 6 58 4
72 -6 70 -21 -5 -22 33 -5 150 16 109 22 372 9 372 -5 0 -20 -14 -35 -32 -14
-18 -30 -30 -33 -26 -11 10 25 100 52 129 14 15 23 38 23 56 0 27 -4 32 -33
37 -31 6 -125 -22 -154 -45 -30 -26 -28 44 8 245 10 60 19 129 19 152 0 24 5
46 11 49 7 5 2 16 -12 31 -25 27 -37 30 -44 12z m55 -536 c0 -8 -73 -60 -122
-88 -10 -6 -32 -24 -49 -40 -16 -15 -32 -24 -36 -21 -8 9 104 117 121 117 8 0
24 9 37 20 25 20 49 26 49 12z"/>
<path d="M1384 2412 c-34 -29 -58 -90 -70 -177 -3 -27 -11 -58 -16 -69 -6 -10
-48 -36 -94 -57 -67 -31 -84 -43 -84 -60 0 -19 4 -21 30 -16 16 4 49 16 72 27
58 28 65 18 49 -77 -16 -98 -20 -105 -76 -138 -56 -33 -54 -50 8 -69 21 -7 22
0 -19 -224 -24 -131 -28 -207 -15 -267 9 -43 26 -28 27 25 1 79 74 421 96 447
11 14 26 17 182 33 159 16 264 47 296 85 20 24 -4 44 -27 23 -19 -16 -222 -45
-358 -50 -93 -4 -98 14 -18 73 132 97 273 261 273 318 0 41 -35 45 -128 16
-48 -15 -92 -31 -99 -37 -7 -5 -17 -7 -23 -3 -16 10 -5 69 27 137 23 51 26 88
6 88 -4 0 -22 -13 -39 -28z m180 -211 c3 -5 -1 -15 -10 -22 -8 -7 -24 -30 -35
-51 -25 -49 -141 -168 -164 -168 -15 0 -16 7 -10 57 11 90 34 126 97 152 29
12 62 26 73 31 26 12 43 12 49 1z"/>
<path d="M844 1916 c-3 -8 1 -25 9 -38 8 -13 20 -45 26 -72 l12 -49 -62 -90
c-46 -67 -62 -100 -63 -126 -2 -57 26 -52 55 11 13 29 40 73 59 98 51 67 110
179 98 186 -5 3 -15 1 -21 -5 -6 -6 -14 -11 -18 -11 -9 0 -27 48 -31 80 -2 19
-10 26 -31 28 -17 2 -29 -2 -33 -12z"/>
<path d="M2010 1835 c-9 -11 -11 -38 -8 -91 5 -82 17 -105 43 -84 16 13 19 75
7 144 -8 44 -22 55 -42 31z"/>
<path d="M2235 1440 c-42 -43 -47 -123 -12 -182 14 -24 33 -51 43 -60 30 -27
116 -65 162 -73 42 -7 42 -7 42 24 0 18 -6 33 -12 35 -7 2 -33 9 -58 16 -31 8
-60 27 -92 60 -41 40 -48 53 -48 87 0 22 5 55 11 72 17 47 -1 58 -36 21z"/>
<path d="M1456 1422 c-8 -13 189 -167 324 -255 63 -40 203 -78 222 -59 13 13
-27 32 -65 32 -24 0 -85 38 -162 100 -197 159 -298 216 -319 182z"/>
</g>
</svg>
