<?xml version="1.0" standalone="no"?>
<!DOCTYPE svg PUBLIC "-//W3C//DTD SVG 20010904//EN"
 "http://www.w3.org/TR/2001/REC-SVG-20010904/DTD/svg10.dtd">
<svg version="1.0" xmlns="http://www.w3.org/2000/svg"
 width="249.000000pt" height="347.000000pt" viewBox="0 0 249.000000 347.000000"
 preserveAspectRatio="xMidYMid meet">
<metadata>
Created by potrace 1.16, written by Peter Selinger 2001-2019
</metadata>
<g transform="translate(0.000000,347.000000) scale(0.100000,-0.100000)"
fill="#000000" stroke="none">
<path d="M1271 2705 c-51 -7 -134 -25 -185 -39 -50 -14 -129 -35 -176 -46 -92
-23 -106 -31 -97 -54 9 -24 47 -20 192 19 337 92 462 96 481 19 15 -60 -20
-224 -57 -273 -11 -13 -19 -33 -19 -44 0 -20 1 -19 26 4 71 64 127 287 91 359
-15 31 -91 70 -132 69 -16 -1 -72 -7 -124 -14z"/>
<path d="M651 2420 l-44 -38 6 -87 c7 -95 22 -125 63 -125 33 0 39 18 15 44
-26 28 -28 88 -5 176 8 34 14 63 12 65 -2 2 -23 -14 -47 -35z"/>
<path d="M929 2415 c-47 -26 -60 -94 -34 -181 30 -101 243 -270 401 -318 11
-3 32 -18 45 -32 23 -25 24 -31 23 -162 -1 -156 -13 -229 -55 -312 -23 -48
-35 -61 -64 -70 -42 -14 -45 -43 -4 -48 19 -2 39 9 76 42 43 39 54 57 78 128
25 76 27 97 29 243 1 182 -9 215 -74 247 -19 9 -79 38 -133 63 -81 38 -111 59
-164 113 -103 106 -121 157 -82 233 16 32 18 44 8 55 -14 17 -17 17 -50 -1z"/>
<path d="M1004 2335 c-11 -27 3 -40 62 -58 33 -10 72 -22 87 -27 44 -14 79 4
75 37 -3 26 -6 27 -48 25 -29 -2 -63 4 -94 17 -57 25 -75 26 -82 6z"/>
<path d="M2250 1822 c-64 -32 -36 -79 31 -52 23 10 29 19 29 41 0 34 -11 36
-60 11z"/>
<path d="M945 1501 l-160 -16 -9 -28 c-8 -23 -6 -31 12 -49 20 -20 23 -21 34
-6 8 9 54 25 114 37 114 24 184 50 184 69 0 6 -3 11 -7 11 -5 -1 -80 -9 -168
-18z"/>
</g>
</svg>
