<?xml version="1.0" standalone="no"?>
<!DOCTYPE svg PUBLIC "-//W3C//DTD SVG 20010904//EN"
 "http://www.w3.org/TR/2001/REC-SVG-20010904/DTD/svg10.dtd">
<svg version="1.0" xmlns="http://www.w3.org/2000/svg"
 width="469.000000pt" height="413.000000pt" viewBox="0 0 469.000000 413.000000"
 preserveAspectRatio="xMidYMid meet">
<metadata>
Created by potrace 1.16, written by Peter Selinger 2001-2019
</metadata>
<g transform="translate(0.000000,413.000000) scale(0.100000,-0.100000)"
fill="#000000" stroke="none">
<path d="M3011 3201 c-14 -4 -39 -28 -59 -56 -86 -125 -201 -274 -246 -318
-45 -45 -48 -50 -33 -65 15 -14 24 -14 82 -3 36 7 72 11 80 7 20 -7 19 -36 -3
-63 -19 -24 -108 -93 -120 -93 -5 0 -21 -14 -38 -31 -16 -17 -42 -37 -57 -45
-34 -18 -28 -31 19 -40 33 -6 39 -3 90 50 58 60 101 92 110 83 3 -3 -15 -26
-41 -52 -25 -26 -45 -55 -43 -63 8 -38 68 -41 68 -4 0 11 7 25 15 32 12 10 17
8 26 -14 16 -33 -1 -59 -83 -127 -35 -28 -67 -60 -72 -70 -12 -25 0 -49 24
-49 28 0 60 -18 60 -33 0 -7 -39 -43 -87 -82 -155 -125 -183 -154 -183 -190 0
-18 6 -38 14 -44 24 -20 109 23 153 78 21 25 93 100 159 166 132 131 206 179
300 193 87 14 172 101 108 110 -12 2 -66 -18 -120 -44 -107 -50 -183 -84 -190
-84 -13 0 0 30 22 51 38 35 107 169 102 197 -6 34 -40 25 -89 -24 -60 -59 -75
-52 -58 27 10 47 72 180 101 216 17 21 -2 36 -38 30 -46 -8 -43 7 8 53 37 33
41 39 29 54 -20 24 -36 20 -78 -17 -74 -65 -113 -91 -124 -80 -8 8 6 31 45 77
31 36 56 68 56 72 0 3 23 31 51 62 83 91 100 148 40 133z m-151 -848 c0 -19
-41 -83 -52 -83 -16 0 -7 53 13 81 21 30 39 31 39 2z"/>
<path d="M4078 3138 c-32 -42 -68 -113 -68 -133 0 -37 35 -5 69 63 16 31 27
42 45 42 33 0 53 25 36 45 -21 25 -56 18 -82 -17z"/>
<path d="M2775 3054 c-64 -38 -103 -46 -142 -28 -63 31 -85 -5 -31 -51 26 -22
39 -26 66 -21 52 8 178 98 166 118 -7 11 -13 9 -59 -18z"/>
<path d="M4235 2991 c-13 -21 -180 -100 -308 -146 -54 -19 -68 -39 -43 -63 14
-14 20 -15 49 -3 17 7 47 17 65 22 18 6 57 23 85 38 232 125 217 114 192 141
-20 22 -31 25 -40 11z"/>
<path d="M1281 2867 c-6 -6 -11 -29 -11 -50 0 -54 -25 -144 -60 -219 -36 -76
-37 -88 -7 -116 21 -20 117 -43 163 -39 18 2 19 -9 26 -168 11 -274 13 -290
22 -290 20 0 32 95 35 263 1 96 6 183 10 194 6 16 28 26 97 44 49 12 92 20 96
16 4 -4 8 -29 10 -57 2 -27 7 -50 13 -50 23 0 52 91 59 185 8 114 28 177 64
207 32 27 21 44 -29 46 -31 2 -34 -1 -52 -48 -10 -27 -21 -83 -24 -123 -3 -39
-11 -78 -17 -86 -15 -18 -215 -51 -228 -38 -7 7 -7 39 -2 93 9 80 10 84 44
107 19 13 36 27 38 32 2 4 -25 8 -58 8 -57 0 -62 -2 -72 -26 -5 -15 -11 -71
-12 -125 -1 -108 -6 -117 -63 -117 -46 0 -63 9 -63 36 0 25 26 89 47 115 8 9
16 47 20 85 4 54 11 75 30 95 14 15 21 29 16 32 -15 9 -81 5 -92 -6z"/>
<path d="M4165 2864 c-44 -22 -144 -124 -161 -163 -8 -18 -26 -48 -41 -67 -16
-18 -41 -50 -56 -71 -126 -170 -132 -183 -96 -206 18 -11 36 -2 190 101 48 31
108 71 134 87 180 117 257 170 266 187 21 39 -20 28 -117 -30 -55 -32 -128
-76 -164 -96 -36 -20 -91 -55 -123 -78 -38 -26 -62 -37 -68 -31 -6 6 -4 14 6
23 8 7 15 19 15 27 0 8 66 79 147 158 127 124 145 146 134 159 -17 20 -28 20
-66 0z"/>
<path d="M2200 2717 c-41 -18 -95 -38 -120 -46 -104 -31 -122 -50 -77 -83 15
-11 27 -29 27 -40 0 -11 16 -38 35 -61 42 -49 57 -106 30 -122 -43 -25 -115
-88 -115 -100 0 -7 6 -18 14 -25 12 -9 26 -4 75 29 33 23 64 41 70 41 18 0 31
-74 31 -181 0 -155 -19 -199 -87 -199 -22 0 -33 -5 -33 -15 0 -19 31 -35 67
-35 34 0 83 47 101 95 18 51 23 167 12 265 -11 86 -10 95 7 119 11 14 36 34
56 44 23 12 39 28 43 43 9 37 0 39 -49 10 -44 -26 -60 -26 -50 0 10 27 -22 13
-40 -17 -9 -17 -22 -29 -29 -27 -7 3 -23 31 -35 63 -13 32 -34 70 -48 85 -19
20 -22 29 -13 38 7 7 17 12 23 12 5 1 28 9 50 20 22 11 45 19 51 20 6 0 19 9
29 20 11 12 31 20 52 20 37 0 53 21 33 45 -17 21 -24 19 -110 -18z"/>
<path d="M4188 2500 c-88 -47 -146 -186 -102 -248 8 -12 26 -22 38 -22 13 0
41 -14 62 -30 50 -41 83 -37 106 10 27 58 43 131 43 203 0 60 -3 71 -24 88
-30 24 -76 24 -123 -1z m86 -85 c-1 -48 -19 -154 -29 -163 -2 -2 -11 -2 -20 1
-24 10 -19 74 10 124 24 39 24 44 9 50 -13 5 -28 -5 -54 -35 -19 -23 -39 -42
-43 -42 -17 0 -4 22 43 70 64 66 85 64 84 -5z m-124 -95 c0 -5 -4 -10 -10 -10
-5 0 -10 5 -10 10 0 6 5 10 10 10 6 0 10 -4 10 -10z"/>
<path d="M1153 2220 c-37 -22 -60 -85 -69 -190 -5 -55 -2 -72 18 -110 20 -39
31 -48 83 -69 87 -35 192 -39 274 -11 72 24 95 39 187 124 49 45 65 55 70 43
3 -8 -1 -26 -10 -39 -15 -24 -36 -128 -36 -185 0 -22 5 -33 14 -33 19 0 24 9
36 62 5 24 14 63 20 88 6 27 7 66 3 100 -11 78 -36 80 -111 8 -31 -30 -84 -70
-117 -89 -58 -33 -63 -34 -170 -34 -94 0 -116 3 -151 22 -23 12 -44 29 -48 38
-20 54 7 228 39 255 16 13 20 40 8 40 -5 0 -22 -9 -40 -20z"/>
<path d="M2969 2150 c-54 -29 -119 -104 -119 -139 0 -16 -3 -36 -6 -45 -10
-26 22 -19 40 9 18 27 36 33 36 12 0 -7 -9 -30 -20 -51 -30 -60 -46 -142 -30
-161 20 -25 37 -18 69 31 36 53 40 84 11 91 -12 3 -19 8 -17 12 1 3 13 28 25
55 13 27 36 64 52 83 32 36 40 89 18 111 -15 15 -16 15 -59 -8z"/>
<path d="M4020 2025 c-13 -14 -30 -25 -38 -25 -21 0 -97 -87 -123 -141 -40
-87 6 -110 52 -26 14 26 43 65 64 87 47 48 71 46 130 -11 75 -70 217 -105 310
-74 97 31 95 29 95 116 0 58 -4 78 -15 82 -23 9 -27 -9 -8 -41 15 -26 15 -32
3 -48 -20 -24 -85 -51 -143 -59 -54 -8 -148 20 -204 62 -17 12 -41 23 -53 23
-12 0 -30 5 -42 11 l-20 11 21 22 c12 12 18 26 14 29 -11 11 -18 8 -43 -18z"/>
<path d="M4273 1985 c-3 -10 2 -25 14 -36 17 -17 23 -18 46 -8 32 14 36 39 6
39 -11 0 -29 5 -40 10 -15 9 -21 7 -26 -5z"/>
<path d="M2821 1908 c-6 -7 -24 -13 -39 -13 -26 0 -27 -2 -24 -45 2 -25 10
-52 18 -60 14 -13 17 -13 30 5 8 11 19 37 25 58 5 21 13 45 16 53 6 17 -9 18
-26 2z"/>
<path d="M3888 763 c-9 -10 -23 -45 -31 -78 -37 -152 -91 -345 -112 -400 -41
-107 -41 -105 -2 -105 l35 0 36 102 c19 57 49 155 66 219 16 64 41 141 56 172
31 69 29 101 -7 105 -15 2 -32 -4 -41 -15z"/>
<path d="M824 695 c-12 -8 -30 -38 -41 -67 -49 -132 -73 -212 -65 -220 13 -13
23 5 76 132 26 63 57 124 67 136 30 32 2 47 -37 19z"/>
<path d="M2391 601 c-35 -20 -80 -51 -100 -67 -57 -47 -128 -94 -144 -94 -25
0 -53 -39 -41 -57 6 -9 15 -18 20 -20 10 -3 85 45 189 122 59 43 85 54 85 36
0 -11 -90 -214 -126 -284 -13 -26 -24 -50 -24 -53 0 -12 53 2 61 16 142 267
204 402 195 427 -9 22 -48 13 -115 -26z"/>
<path d="M1860 471 c-147 -111 -205 -164 -197 -185 12 -30 49 -17 108 37 91
81 146 127 153 127 14 0 4 -30 -36 -111 -23 -46 -50 -101 -59 -121 l-18 -38
33 0 c29 0 33 4 50 50 10 27 27 61 37 75 31 39 100 195 97 219 -2 15 -11 22
-33 23 -24 2 -52 -15 -135 -76z"/>
<path d="M535 408 c-16 -39 -19 -76 -17 -165 2 -55 5 -63 21 -63 17 0 20 10
26 78 3 42 11 89 16 104 26 65 -19 110 -46 46z"/>
<path d="M874 269 c-23 -5 -52 -21 -64 -35 -22 -23 -23 -26 -7 -41 14 -14 21
-15 43 -4 19 8 30 9 38 1 17 -17 58 -11 82 11 24 22 47 18 37 -6 -4 -12 6 -15
57 -15 l62 0 -24 29 c-13 16 -34 35 -48 44 -33 19 -125 28 -176 16z"/>
</g>
</svg>
