<?xml version="1.0" standalone="no"?>
<!DOCTYPE svg PUBLIC "-//W3C//DTD SVG 20010904//EN"
 "http://www.w3.org/TR/2001/REC-SVG-20010904/DTD/svg10.dtd">
<svg version="1.0" xmlns="http://www.w3.org/2000/svg"
 width="199.000000pt" height="315.000000pt" viewBox="0 0 199.000000 315.000000"
 preserveAspectRatio="xMidYMid meet">
<metadata>
Created by potrace 1.16, written by Peter Selinger 2001-2019
</metadata>
<g transform="translate(0.000000,315.000000) scale(0.100000,-0.100000)"
fill="#000000" stroke="none">
<path d="M1143 2249 c-80 -12 -113 -25 -113 -44 0 -24 27 -29 104 -18 58 8 74
8 88 -4 15 -13 18 -12 34 12 18 27 17 28 -5 46 -13 11 -28 18 -35 18 -6 -1
-39 -5 -73 -10z"/>
<path d="M1137 2123 c-13 -21 -16 -72 -7 -102 19 -65 32 -234 21 -264 -20 -52
-42 -30 -89 88 -53 135 -56 140 -73 140 -30 0 -43 -58 -50 -235 -4 -96 -13
-211 -18 -255 -6 -44 -11 -124 -12 -177 -1 -79 2 -103 18 -130 10 -18 23 -31
29 -28 5 3 8 43 6 90 -2 47 1 117 7 155 18 123 32 283 32 371 1 100 14 105 42
20 24 -71 84 -139 119 -134 36 5 52 64 51 188 0 139 -50 317 -76 273z"/>
<path d="M713 2003 c-13 -2 -30 -14 -38 -26 -17 -24 -20 -87 -5 -87 6 0 10 8
10 19 0 26 24 43 57 39 26 -3 28 -6 27 -49 -1 -82 -56 -133 -116 -108 -45 19
-58 7 -58 -54 0 -41 5 -58 20 -72 19 -17 21 -17 41 1 15 13 19 26 15 45 -5 25
-2 27 36 32 48 6 88 41 114 98 17 38 17 42 0 95 -13 41 -24 57 -42 65 -14 5
-28 8 -32 8 -4 -1 -17 -4 -29 -6z"/>
<path d="M1802 1645 c-1 -11 -9 -39 -17 -63 -14 -39 -14 -45 2 -70 l18 -26 3
41 c3 43 -3 154 -6 118z"/>
<path d="M532 719 c2 -7 10 -15 17 -17 8 -3 12 1 9 9 -2 7 -10 15 -17 17 -8 3
-12 -1 -9 -9z"/>
<path d="M610 690 c0 -5 5 -10 10 -10 6 0 10 5 10 10 0 6 -4 10 -10 10 -5 0
-10 -4 -10 -10z"/>
</g>
</svg>
