<?xml version="1.0" standalone="no"?>
<!DOCTYPE svg PUBLIC "-//W3C//DTD SVG 20010904//EN"
 "http://www.w3.org/TR/2001/REC-SVG-20010904/DTD/svg10.dtd">
<svg version="1.0" xmlns="http://www.w3.org/2000/svg"
 width="156.000000pt" height="251.000000pt" viewBox="0 0 156.000000 251.000000"
 preserveAspectRatio="xMidYMid meet">
<metadata>
Created by potrace 1.16, written by Peter Selinger 2001-2019
</metadata>
<g transform="translate(0.000000,251.000000) scale(0.100000,-0.100000)"
fill="#000000" stroke="none">
<path d="M180 1666 c0 -42 2 -45 36 -56 19 -7 45 -9 57 -6 11 3 35 -1 51 -8
17 -7 65 -24 106 -36 68 -22 95 -24 312 -26 134 -1 238 2 238 7 0 5 -12 9 -27
10 -27 0 -220 16 -273 22 -14 2 -32 6 -40 9 -8 4 -28 9 -45 13 -16 4 -37 12
-45 19 -8 8 -48 16 -88 19 -41 3 -80 11 -88 18 -10 8 -21 9 -37 2 -26 -12 -67
0 -67 21 0 9 -7 12 -20 9 -12 -3 -22 1 -26 11 -3 9 -15 16 -25 16 -16 0 -19
-7 -19 -44z"/>
<path d="M725 1480 c-53 -9 -145 -40 -170 -57 -11 -7 -37 -13 -58 -13 -45 0
-58 -21 -31 -51 15 -17 26 -20 57 -15 21 4 50 14 65 24 42 27 93 44 149 49 61
6 76 -10 49 -52 -9 -13 -28 -46 -42 -72 -50 -91 -69 -114 -115 -138 -59 -31
-63 -36 -136 -184 -57 -118 -60 -127 -45 -144 12 -13 28 -17 57 -15 48 3 47
17 15 -197 -11 -76 -7 -115 13 -115 7 0 13 17 14 44 2 58 28 158 58 224 23 50
26 52 63 52 44 0 83 22 62 35 -7 5 -27 11 -44 15 -28 6 -31 10 -28 39 1 17 18
61 38 97 42 76 36 99 -16 68 -35 -21 -53 -49 -69 -111 -7 -24 -22 -55 -35 -69
-20 -24 -25 -25 -45 -15 -28 15 -22 50 15 94 13 16 24 33 24 38 0 19 93 118
121 129 29 12 63 64 126 192 40 82 42 110 7 137 -28 22 -35 23 -99 11z"/>
<path d="M1341 900 c-18 -32 -36 -62 -41 -65 -6 -4 -10 -22 -10 -41 0 -42 25
-47 35 -7 3 15 16 40 27 56 18 26 38 117 26 117 -3 0 -20 -27 -37 -60z"/>
<path d="M737 613 c-17 -16 -5 -72 24 -118 61 -96 161 -180 227 -191 55 -9 55
6 -3 46 -41 28 -184 181 -185 198 -1 14 -57 72 -63 65z"/>
</g>
</svg>
