<?xml version="1.0" standalone="no"?>
<!DOCTYPE svg PUBLIC "-//W3C//DTD SVG 20010904//EN"
 "http://www.w3.org/TR/2001/REC-SVG-20010904/DTD/svg10.dtd">
<svg version="1.0" xmlns="http://www.w3.org/2000/svg"
 width="209.000000pt" height="251.000000pt" viewBox="0 0 209.000000 251.000000"
 preserveAspectRatio="xMidYMid meet">
<metadata>
Created by potrace 1.16, written by Peter Selinger 2001-2019
</metadata>
<g transform="translate(0.000000,251.000000) scale(0.100000,-0.100000)"
fill="#000000" stroke="none">
<path d="M1290 1470 c-36 -10 -90 -27 -120 -38 -170 -61 -212 -75 -284 -92
-96 -23 -108 -33 -79 -61 19 -20 25 -20 79 -9 33 6 82 19 110 27 77 24 85 17
83 -69 -1 -40 -5 -80 -8 -89 -3 -8 -44 -48 -91 -88 -51 -44 -92 -88 -102 -110
-25 -54 -14 -103 29 -141 39 -35 55 -32 47 9 -6 27 4 41 31 48 6 1 21 5 34 9
23 7 24 6 16 -42 -4 -27 -9 -52 -10 -55 -2 -3 -32 -14 -67 -23 -35 -10 -84
-25 -111 -33 -26 -8 -52 -13 -59 -11 -15 5 -11 122 6 207 13 63 5 92 -14 49
-6 -13 -22 -39 -36 -58 -24 -33 -26 -41 -22 -128 l3 -94 -48 -18 c-27 -10 -55
-24 -64 -31 -13 -12 -13 -15 7 -31 26 -21 52 -23 79 -6 31 19 45 4 76 -76 29
-75 64 -124 83 -112 9 5 -5 61 -27 104 -18 36 -32 92 -25 103 14 23 99 51 160
54 48 1 72 8 101 27 21 14 70 35 110 46 40 12 75 27 78 32 9 15 45 12 45 -4 0
-33 -31 -280 -42 -329 -17 -81 -16 -111 4 -115 29 -6 47 55 77 269 11 70 16
138 14 153 -8 37 16 60 111 106 79 38 136 79 136 99 0 24 -26 18 -126 -29 -59
-27 -108 -49 -110 -47 -1 1 -4 34 -7 74 -3 54 -11 83 -31 117 -34 58 -62 76
-128 85 l-53 6 -3 72 c-2 56 1 79 17 109 24 44 37 54 73 54 15 0 42 9 60 20
18 11 45 20 60 20 28 0 55 31 43 50 -8 13 -28 11 -105 -10z m-41 -405 c32 -28
46 -62 56 -141 5 -40 3 -53 -10 -64 -21 -17 -202 -80 -209 -72 -12 11 -6 68
10 90 11 16 25 22 52 22 50 0 70 13 53 34 -8 9 -23 16 -35 16 -12 0 -30 6 -40
13 -17 12 -17 17 -5 53 25 75 74 94 128 49z m-210 -112 c0 -5 -3 -9 -9 -11 -5
-2 -10 4 -10 13 0 16 16 14 19 -2z"/>
<path d="M1850 1160 c-30 -11 -65 -20 -77 -20 -28 0 -40 -24 -23 -45 16 -19
77 -19 124 0 32 13 36 20 36 50 0 19 -1 35 -2 35 -2 -1 -28 -10 -58 -20z"/>
</g>
</svg>
