<?xml version="1.0" standalone="no"?>
<!DOCTYPE svg PUBLIC "-//W3C//DTD SVG 20010904//EN"
 "http://www.w3.org/TR/2001/REC-SVG-20010904/DTD/svg10.dtd">
<svg version="1.0" xmlns="http://www.w3.org/2000/svg"
 width="298.000000pt" height="398.000000pt" viewBox="0 0 298.000000 398.000000"
 preserveAspectRatio="xMidYMid meet">
<metadata>
Created by potrace 1.16, written by Peter Selinger 2001-2019
</metadata>
<g transform="translate(0.000000,398.000000) scale(0.100000,-0.100000)"
fill="#000000" stroke="none">
<path d="M1025 2892 c-16 -11 -75 -62 -130 -114 -87 -83 -137 -146 -211 -263
-57 -91 -74 -170 -50 -227 17 -41 36 -48 57 -22 10 13 10 20 0 36 -7 12 -10
32 -5 50 25 117 206 350 336 434 71 46 104 84 94 109 -8 21 -55 19 -91 -3z"/>
<path d="M2491 2727 c-47 -58 -341 -774 -341 -833 0 -44 38 22 135 236 26 58
72 156 101 218 30 62 54 115 54 117 0 3 19 45 41 93 70 147 71 152 58 168 -14
18 -33 18 -48 1z"/>
<path d="M1008 2513 c-104 -3 -139 -7 -148 -18 -10 -12 -9 -16 1 -18 8 -3 37
-12 64 -21 93 -30 235 -17 283 27 32 30 28 37 -20 35 -24 -1 -104 -4 -180 -5z"/>
<path d="M2578 2087 c-32 -12 -64 -29 -72 -37 -17 -18 -10 -70 9 -70 16 0 165
77 188 98 9 8 17 19 17 24 0 16 -85 7 -142 -15z"/>
<path d="M968 2019 c-68 -24 -111 -60 -106 -92 4 -28 56 -35 91 -12 37 24 128
55 160 55 40 0 92 -27 122 -62 l25 -30 -38 -43 c-21 -23 -63 -94 -94 -156 -52
-104 -57 -121 -63 -199 -3 -50 -1 -108 5 -138 20 -92 50 -78 50 24 0 94 16
161 59 249 36 72 84 135 95 124 2 -2 7 -90 10 -194 5 -212 13 -275 31 -275 35
0 40 28 38 244 -2 228 -7 282 -30 366 -17 61 -64 114 -125 143 -49 23 -157 21
-230 -4z"/>
<path d="M2504 1825 c-4 -10 3 -26 20 -44 21 -22 36 -28 72 -29 63 0 74 -13
49 -60 -17 -30 -33 -42 -93 -67 -126 -52 -175 -108 -137 -159 13 -18 15 -18
42 2 15 11 44 36 62 56 19 20 40 36 47 36 7 0 22 12 34 28 12 15 24 27 28 27
3 0 7 -54 8 -119 4 -124 27 -383 45 -494 11 -71 54 -172 93 -217 l25 -30 1 38
c0 21 -9 59 -19 85 -42 101 -76 389 -76 648 0 147 1 151 26 185 61 81 61 110
-1 78 l-40 -21 -63 30 c-87 42 -115 48 -123 27z"/>
</g>
</svg>
