<?xml version="1.0" standalone="no"?>
<!DOCTYPE svg PUBLIC "-//W3C//DTD SVG 20010904//EN"
 "http://www.w3.org/TR/2001/REC-SVG-20010904/DTD/svg10.dtd">
<svg version="1.0" xmlns="http://www.w3.org/2000/svg"
 width="281.000000pt" height="347.000000pt" viewBox="0 0 281.000000 347.000000"
 preserveAspectRatio="xMidYMid meet">
<metadata>
Created by potrace 1.16, written by Peter Selinger 2001-2019
</metadata>
<g transform="translate(0.000000,347.000000) scale(0.100000,-0.100000)"
fill="#000000" stroke="none">
<path d="M1660 2903 c0 -32 7 -89 15 -128 49 -226 57 -297 50 -430 -4 -71 -11
-137 -16 -146 -5 -11 -28 -18 -74 -22 -51 -5 -84 -16 -156 -54 -108 -57 -163
-102 -189 -154 -36 -69 11 -59 108 25 62 53 149 99 227 120 50 13 57 13 62 -1
14 -37 -101 -315 -206 -498 -143 -250 -202 -364 -208 -401 -9 -57 8 -38 113
121 121 185 273 463 324 595 66 169 59 156 78 137 12 -13 16 -34 15 -84 -2
-89 -31 -194 -88 -321 -37 -80 -45 -106 -35 -115 17 -17 61 38 111 135 51 101
79 205 79 294 0 66 -3 76 -37 125 l-36 54 -2 210 c-1 217 -10 280 -55 425 -26
84 -63 170 -72 170 -5 0 -8 -26 -8 -57z"/>
<path d="M1054 2740 c-6 -6 -32 -16 -60 -24 -27 -8 -71 -22 -99 -33 -44 -17
-50 -22 -50 -48 0 -38 21 -43 77 -17 69 32 98 42 117 42 10 0 26 9 35 19 28
31 9 90 -20 61z"/>
<path d="M2605 2380 c-7 -12 2 -30 16 -30 5 0 9 9 9 20 0 21 -15 27 -25 10z"/>
<path d="M945 2357 c-11 -7 -47 -28 -81 -48 -33 -20 -89 -46 -125 -58 -79 -26
-140 -73 -122 -92 10 -10 23 -10 65 0 65 16 169 63 187 85 7 9 17 16 22 16 18
0 104 73 104 89 0 19 -23 23 -50 8z"/>
<path d="M2588 2259 c-26 -15 -46 -95 -40 -165 2 -35 -1 -78 -8 -99 -11 -34
-10 -39 9 -59 l22 -21 30 33 c31 35 43 107 15 96 -19 -7 -46 39 -46 81 0 34
27 75 50 75 6 0 10 16 10 35 0 36 -11 43 -42 24z"/>
<path d="M866 2162 c-13 -20 -31 -44 -40 -52 -58 -47 -111 -168 -122 -274 -6
-61 -6 -63 26 -89 17 -15 40 -27 49 -27 21 0 84 44 125 89 22 23 39 31 64 31
42 0 39 21 -6 34 -28 8 -39 4 -101 -39 -41 -28 -74 -44 -81 -40 -32 20 16 175
111 357 22 42 23 48 9 48 -5 0 -20 -17 -34 -38z"/>
<path d="M1010 1804 c0 -14 -7 -50 -16 -80 -18 -64 -16 -128 6 -132 12 -2 20
16 34 70 27 106 30 136 16 153 -20 24 -40 18 -40 -11z"/>
</g>
</svg>
