<?xml version="1.0" standalone="no"?>
<!DOCTYPE svg PUBLIC "-//W3C//DTD SVG 20010904//EN"
 "http://www.w3.org/TR/2001/REC-SVG-20010904/DTD/svg10.dtd">
<svg version="1.0" xmlns="http://www.w3.org/2000/svg"
 width="286.000000pt" height="324.000000pt" viewBox="0 0 286.000000 324.000000"
 preserveAspectRatio="xMidYMid meet">
<metadata>
Created by potrace 1.16, written by Peter Selinger 2001-2019
</metadata>
<g transform="translate(0.000000,324.000000) scale(0.100000,-0.100000)"
fill="#000000" stroke="none">
<path d="M916 3008 c-13 -29 -43 -98 -68 -153 -25 -55 -59 -143 -77 -195 -45
-137 -72 -200 -104 -242 -36 -47 -33 -74 8 -71 58 4 101 75 173 288 42 124 80
222 109 285 17 36 38 82 46 103 l16 37 -40 0 c-38 0 -40 -2 -63 -52z"/>
<path d="M1525 3024 c-8 -20 -21 -57 -29 -83 -34 -114 -109 -288 -137 -316
-48 -51 -36 -82 27 -70 33 6 38 12 85 113 66 139 65 134 89 226 12 43 30 98
40 122 l19 44 -39 0 c-36 0 -41 -3 -55 -36z"/>
<path d="M2090 2998 c-12 -35 -30 -76 -39 -93 -29 -52 -44 -111 -37 -148 12
-66 76 -90 76 -29 0 16 13 63 29 103 31 80 71 202 71 219 0 5 -17 10 -39 10
-38 0 -38 0 -61 -62z"/>
<path d="M1235 2206 c-47 -71 -113 -556 -101 -738 10 -161 49 -223 139 -222
124 2 256 127 331 313 41 103 45 148 17 182 -18 22 -21 23 -36 8 -9 -8 -27
-59 -40 -113 -25 -103 -66 -184 -112 -227 -32 -29 -109 -82 -136 -92 -27 -10
-31 17 -8 60 29 54 88 242 111 353 44 215 65 469 40 485 -15 9 -37 -51 -44
-120 -21 -198 -123 -619 -163 -674 -33 -45 -40 53 -19 270 10 96 31 249 48
341 17 92 28 175 24 183 -8 22 -33 18 -51 -9z"/>
<path d="M1782 2186 c-36 -13 -80 -52 -70 -62 4 -3 15 -1 26 5 33 18 70 13 83
-10 46 -87 82 -287 72 -407 -9 -119 -15 -126 -140 -176 -34 -13 -78 -37 -98
-53 -37 -29 -102 -120 -92 -129 3 -3 25 10 49 28 71 54 237 133 250 120 8 -8
5 -47 -11 -147 -26 -160 -40 -203 -87 -272 -42 -61 -40 -89 4 -78 15 3 44 23
64 43 44 44 55 82 88 292 12 80 25 154 30 166 6 16 24 23 81 34 101 18 119 26
119 50 0 33 -41 46 -107 32 -31 -6 -59 -10 -63 -7 -4 2 -10 66 -13 142 -6 146
-26 259 -56 327 -18 42 -77 117 -90 115 -3 -1 -21 -7 -39 -13z"/>
<path d="M459 2155 c-48 -26 -154 -198 -178 -290 -31 -114 6 -257 83 -319 67
-56 105 -56 165 -2 34 31 88 118 96 157 4 19 16 55 26 80 11 29 20 89 25 156
6 97 4 114 -14 155 -13 31 -30 51 -52 62 -40 20 -116 20 -151 1z m126 -76 c19
-17 35 -40 35 -50 0 -10 -18 -42 -40 -71 -22 -29 -40 -56 -40 -60 0 -4 14 -5
31 -1 l32 6 -7 -49 c-17 -119 -86 -244 -142 -258 -31 -8 -45 2 -85 61 -64 92
-52 194 36 328 54 81 97 125 125 125 11 0 35 -14 55 -31z"/>
<path d="M806 1898 c-50 -62 -97 -130 -119 -171 -11 -23 -31 -55 -42 -72 -12
-16 -29 -43 -37 -60 -18 -36 -57 -107 -108 -195 -154 -268 -152 -266 -145
-321 5 -38 12 -52 29 -59 11 -5 30 -12 41 -16 11 -5 43 -8 71 -9 28 0 58 -6
68 -14 19 -16 21 -64 5 -110 -8 -22 -8 -36 -2 -42 17 -17 64 33 82 86 13 40
27 58 69 89 28 21 52 45 52 53 0 30 -21 53 -48 53 -16 0 -33 5 -40 12 -15 15
-15 97 -1 169 13 63 -2 139 -26 139 -8 0 -15 -8 -15 -18 0 -10 -20 -34 -44
-55 -49 -40 -56 -43 -56 -24 0 15 85 192 109 226 10 14 42 69 71 121 29 52 72
125 97 162 40 61 47 88 23 88 -4 0 -20 -15 -34 -32z m-193 -690 c-2 -55 -21
-110 -44 -123 -6 -4 -23 5 -38 19 -32 31 -61 33 -86 6 -18 -20 -45 -27 -45
-12 0 4 28 35 63 68 128 124 153 131 150 42z"/>
<path d="M2601 1820 c-24 -11 -51 -20 -61 -20 -36 0 -122 -95 -103 -114 3 -3
30 8 58 24 29 17 81 36 116 43 64 13 64 13 67 50 4 44 -10 47 -77 17z"/>
<path d="M2280 348 c0 -7 5 -48 12 -90 10 -71 14 -78 34 -78 22 0 23 3 17 53
-3 28 -13 68 -22 86 -16 36 -41 53 -41 29z"/>
</g>
</svg>
