<?xml version="1.0" standalone="no"?>
<!DOCTYPE svg PUBLIC "-//W3C//DTD SVG 20010904//EN"
 "http://www.w3.org/TR/2001/REC-SVG-20010904/DTD/svg10.dtd">
<svg version="1.0" xmlns="http://www.w3.org/2000/svg"
 width="273.000000pt" height="379.000000pt" viewBox="0 0 273.000000 379.000000"
 preserveAspectRatio="xMidYMid meet">
<metadata>
Created by potrace 1.16, written by Peter Selinger 2001-2019
</metadata>
<g transform="translate(0.000000,379.000000) scale(0.100000,-0.100000)"
fill="#000000" stroke="none">
<path d="M2127 2786 c-7 -18 9 -623 24 -942 6 -129 8 -313 5 -415 -7 -186 -3
-218 27 -206 11 4 17 25 21 69 3 35 10 113 15 173 11 120 10 209 -9 624 l-12
274 44 39 c24 21 54 44 68 52 25 13 135 41 203 51 35 6 37 8 37 40 0 30 -3 35
-22 35 -39 0 -201 -38 -258 -59 -37 -14 -58 -17 -65 -10 -5 5 -11 43 -11 84
-2 88 -10 139 -30 177 -16 31 -29 36 -37 14z"/>
<path d="M1180 2603 c-25 -8 -74 -26 -110 -40 -156 -61 -192 -73 -215 -73 -38
0 -85 -46 -85 -85 0 -48 22 -62 57 -37 15 11 37 29 47 41 11 12 45 29 75 37
31 9 88 32 126 51 126 62 200 77 253 49 70 -37 112 -122 134 -272 10 -67 9
-120 -5 -295 -9 -118 -22 -241 -27 -274 -6 -33 -17 -112 -24 -175 -19 -150
-48 -259 -89 -334 -41 -75 -64 -82 -113 -35 -31 30 -36 32 -50 18 -14 -14 -13
-19 7 -53 51 -87 127 -75 208 32 21 29 44 74 51 100 7 26 21 71 31 100 11 29
19 70 19 91 0 21 4 62 10 90 22 116 51 455 51 596 0 223 -31 344 -108 421 -63
63 -145 79 -243 47z"/>
<path d="M1987 2251 c-44 -49 -117 -199 -117 -240 0 -48 25 -38 63 27 19 31
55 90 81 130 36 55 46 79 42 98 -9 34 -28 30 -69 -15z"/>
<path d="M2423 2125 c-3 -9 2 -23 10 -33 8 -9 18 -29 22 -44 4 -14 16 -35 26
-44 26 -24 53 -8 57 33 3 26 -4 37 -41 67 -48 39 -65 44 -74 21z"/>
<path d="M1051 1941 c-8 -14 -8 -34 -2 -61 12 -52 -1 -148 -33 -244 -13 -39
-26 -95 -29 -125 -4 -30 -13 -61 -20 -70 -24 -27 -47 -79 -47 -106 0 -33 17
-65 34 -65 25 0 148 271 131 288 -3 3 -15 0 -27 -7 -19 -12 -20 -11 -14 16 4
15 21 55 39 88 29 55 32 68 32 150 0 61 -5 100 -15 119 -19 37 -36 43 -49 17z"/>
<path d="M2436 1557 c-13 -10 -21 -37 -28 -103 -8 -67 -20 -110 -50 -177 -22
-49 -42 -111 -45 -141 -5 -46 -2 -56 20 -82 24 -27 27 -28 43 -12 16 16 17 19
1 36 -26 28 -5 81 59 154 50 57 54 66 49 99 -5 29 0 44 29 87 27 38 36 62 36
92 0 38 -1 40 -21 29 -17 -9 -25 -7 -43 10 -26 25 -27 25 -50 8z"/>
<path d="M180 1379 c0 -39 5 -50 38 -80 48 -46 167 -131 222 -159 31 -16 45
-19 54 -10 8 8 2 18 -24 38 -34 26 -190 163 -257 226 l-33 30 0 -45z"/>
</g>
</svg>
