<?xml version="1.0" standalone="no"?>
<!DOCTYPE svg PUBLIC "-//W3C//DTD SVG 20010904//EN"
 "http://www.w3.org/TR/2001/REC-SVG-20010904/DTD/svg10.dtd">
<svg version="1.0" xmlns="http://www.w3.org/2000/svg"
 width="287.000000pt" height="333.000000pt" viewBox="0 0 287.000000 333.000000"
 preserveAspectRatio="xMidYMid meet">
<metadata>
Created by potrace 1.16, written by Peter Selinger 2001-2019
</metadata>
<g transform="translate(0.000000,333.000000) scale(0.100000,-0.100000)"
fill="#000000" stroke="none">
<path d="M1487 2193 c-18 -17 11 -317 51 -523 41 -211 62 -388 66 -552 5 -175
2 -186 -36 -151 -23 21 -37 9 -44 -39 -6 -32 -3 -38 41 -73 59 -49 77 -41 88
36 4 30 12 68 18 86 20 66 9 320 -21 478 -5 28 -19 102 -30 165 -12 63 -30
156 -40 205 -10 50 -24 146 -31 215 -6 69 -15 133 -21 143 -9 17 -29 23 -41
10z"/>
<path d="M1080 2120 c-112 -59 -210 -91 -323 -106 -121 -16 -141 -25 -115 -50
34 -34 173 -27 251 13 16 8 35 12 42 9 9 -3 -27 -45 -100 -119 -121 -120 -143
-159 -109 -184 13 -9 31 -12 53 -8 39 7 126 49 136 65 11 18 76 40 115 40 76
0 100 -73 59 -179 -27 -72 -19 -94 21 -56 17 16 30 37 30 47 0 10 6 34 14 52
7 18 17 51 20 73 7 36 4 43 -31 83 -36 39 -44 43 -95 48 -67 5 -120 -11 -168
-49 -40 -34 -62 -24 -36 15 9 15 20 26 24 26 4 0 30 21 57 48 27 26 57 52 65
57 52 32 84 56 145 112 59 53 67 64 55 77 -18 22 -47 18 -110 -14z"/>
<path d="M2260 1833 c-28 -23 -31 -31 -27 -61 11 -62 47 -78 107 -47 51 26 49
71 -6 114 -34 27 -36 26 -74 -6z"/>
<path d="M2560 1674 c-209 -43 -330 -91 -330 -129 0 -7 8 -23 19 -36 l18 -23
35 21 c45 26 266 103 298 103 13 0 39 5 57 12 28 10 33 17 33 45 0 18 -3 32
-7 32 -5 -1 -60 -12 -123 -25z"/>
<path d="M196 1661 c-10 -11 -16 -31 -14 -48 l3 -28 23 38 c12 21 22 42 22 48
0 15 -16 10 -34 -10z"/>
<path d="M1300 1630 c-6 -11 -10 -55 -8 -98 3 -72 4 -77 27 -80 35 -5 46 11
31 48 -10 23 -10 34 -1 43 16 16 14 59 -5 85 -19 27 -30 28 -44 2z"/>
<path d="M926 1506 c-26 -36 -63 -74 -83 -86 -41 -24 -41 -49 0 -68 27 -13 27
-14 27 -109 0 -115 21 -192 66 -240 40 -43 71 -43 112 0 31 32 58 95 46 106
-3 3 -23 -13 -43 -36 -20 -24 -45 -43 -54 -43 -24 0 -54 70 -63 142 -9 76 12
228 36 253 10 11 21 31 25 45 4 14 14 35 22 48 19 30 10 52 -20 52 -18 0 -36
-17 -71 -64z"/>
<path d="M182 1298 c2 -62 6 -78 19 -81 13 -3 17 -23 23 -93 3 -49 9 -108 12
-131 6 -39 4 -42 -25 -57 -25 -13 -31 -23 -31 -48 0 -31 0 -31 20 -13 30 27
44 7 46 -65 2 -69 18 -100 42 -76 12 12 13 22 4 57 -8 30 -8 48 0 62 15 29 4
288 -17 367 -12 46 -28 78 -55 110 l-40 45 2 -77z"/>
</g>
</svg>
