<?xml version="1.0" standalone="no"?>
<!DOCTYPE svg PUBLIC "-//W3C//DTD SVG 20010904//EN"
 "http://www.w3.org/TR/2001/REC-SVG-20010904/DTD/svg10.dtd">
<svg version="1.0" xmlns="http://www.w3.org/2000/svg"
 width="259.000000pt" height="251.000000pt" viewBox="0 0 259.000000 251.000000"
 preserveAspectRatio="xMidYMid meet">
<metadata>
Created by potrace 1.16, written by Peter Selinger 2001-2019
</metadata>
<g transform="translate(0.000000,251.000000) scale(0.100000,-0.100000)"
fill="#000000" stroke="none">
<path d="M552 1702 c-65 -43 -138 -138 -193 -250 -43 -88 -50 -113 -55 -180
-5 -70 -3 -79 18 -105 21 -26 30 -29 93 -30 l70 -2 -2 -35 c-1 -19 -5 -89 -9
-155 l-7 -120 -32 -27 c-18 -16 -43 -48 -54 -72 -18 -37 -21 -55 -16 -112 6
-66 49 -183 68 -184 12 0 46 62 62 115 9 28 18 89 22 138 3 49 10 87 16 87 20
0 132 -33 141 -41 6 -5 1 -18 -12 -32 -53 -56 -8 -49 47 7 37 38 41 46 32 65
-7 11 -22 23 -34 25 -12 3 -58 14 -102 24 l-80 20 -1 78 c-1 69 2 84 24 117
29 43 49 44 72 5 11 -21 12 -30 3 -39 -9 -9 -16 -9 -28 1 -8 7 -18 11 -21 8
-6 -7 18 -98 26 -98 4 0 17 11 30 25 19 21 29 23 65 19 38 -6 44 -3 68 26 31
36 27 58 -6 35 -25 -17 -53 -20 -62 -5 -4 6 5 30 18 54 26 47 26 86 0 107 -21
18 -41 -4 -23 -26 10 -12 9 -19 -4 -40 -20 -30 -41 -32 -56 -6 -5 11 -22 21
-37 23 -49 5 -41 35 30 102 42 39 68 72 72 91 l6 30 -34 -34 c-36 -34 -63 -34
-52 0 11 34 -10 21 -67 -41 l-56 -61 -68 3 -69 3 -3 34 c-2 18 1 38 7 44 6 6
11 21 11 33 0 65 109 234 190 295 46 34 60 40 88 35 41 -6 52 13 28 49 -23 34
-71 33 -124 -3z m-88 -1039 c-3 -54 -9 -101 -11 -105 -9 -16 -23 -7 -23 15 0
13 -5 28 -11 34 -12 12 4 118 22 139 25 30 30 12 23 -83z"/>
<path d="M1216 1558 c-54 -95 -79 -278 -96 -697 -6 -148 -17 -290 -25 -323
-17 -75 -40 -112 -66 -105 -28 7 -34 -12 -11 -35 27 -28 52 -17 91 38 52 74
68 164 75 414 11 366 30 563 66 665 31 91 10 118 -34 43z"/>
<path d="M1077 1459 c-30 -29 -38 -46 -50 -109 -13 -65 -13 -78 -1 -97 18 -28
38 -29 64 -3 25 25 25 40 1 40 -28 0 -35 17 -17 42 9 12 16 32 16 44 0 12 6
27 14 33 19 16 30 61 18 73 -7 7 -23 -2 -45 -23z"/>
<path d="M2360 1159 c-42 -23 -114 -25 -154 -4 -57 30 -78 12 -47 -39 34 -54
71 -59 182 -26 68 21 69 21 69 55 0 39 -2 40 -50 14z"/>
<path d="M245 1037 l-60 -22 -3 -99 -3 -98 41 48 c23 27 61 73 86 102 72 84
49 110 -61 69z"/>
<path d="M262 861 c-15 -15 -39 -36 -54 -46 -19 -12 -28 -26 -28 -43 0 -25 3
-23 56 28 30 30 60 63 65 73 16 28 -9 21 -39 -12z"/>
</g>
</svg>
