<?xml version="1.0" standalone="no"?>
<!DOCTYPE svg PUBLIC "-//W3C//DTD SVG 20010904//EN"
 "http://www.w3.org/TR/2001/REC-SVG-20010904/DTD/svg10.dtd">
<svg version="1.0" xmlns="http://www.w3.org/2000/svg"
 width="213.000000pt" height="385.000000pt" viewBox="0 0 213.000000 385.000000"
 preserveAspectRatio="xMidYMid meet">
<metadata>
Created by potrace 1.16, written by Peter Selinger 2001-2019
</metadata>
<g transform="translate(0.000000,385.000000) scale(0.100000,-0.100000)"
fill="#000000" stroke="none">
<path d="M1625 2878 l-28 -22 6 -148 c5 -113 3 -150 -6 -152 -63 -17 -72 -22
-72 -46 0 -22 4 -25 39 -25 l39 0 19 -68 c11 -38 17 -75 14 -83 -4 -11 -28
-14 -99 -14 -107 0 -128 -10 -100 -49 13 -19 21 -22 54 -17 122 19 122 19 117
5 -3 -8 -46 -32 -96 -54 -99 -43 -118 -57 -107 -75 12 -20 114 2 193 42 49 25
51 -39 2 -97 -30 -36 -73 -133 -66 -150 12 -32 56 -14 82 34 31 59 116 145
166 167 36 16 43 16 66 3 15 -8 32 -26 39 -39 28 -55 6 -195 -48 -301 -16 -34
-28 -63 -25 -66 22 -23 84 73 116 178 12 40 20 95 20 139 0 68 -2 74 -33 105
-44 44 -106 54 -177 29 -125 -45 -44 59 113 144 44 24 52 39 27 54 -11 7 -30
2 -68 -21 -62 -36 -85 -38 -113 -10 -40 40 1 64 58 34 18 -10 36 -15 40 -11
11 11 -32 60 -73 81 -29 15 -39 26 -39 45 0 21 7 27 45 38 123 37 169 67 142
94 -10 10 -30 6 -98 -16 -65 -21 -89 -25 -98 -16 -7 7 -11 60 -11 155 0 79 -3
146 -6 149 -3 4 -19 -4 -34 -16z"/>
<path d="M635 2778 c-16 -6 -50 -27 -75 -47 -51 -41 -354 -321 -358 -331 -1
-3 5 -13 15 -21 22 -19 193 -89 213 -88 8 0 35 14 60 29 25 16 59 37 75 46 51
28 165 106 165 113 0 15 -25 31 -49 31 -24 0 -68 -23 -154 -78 -19 -13 -40
-36 -46 -53 -11 -33 -24 -36 -66 -13 -16 9 -48 22 -70 29 -72 22 -62 40 92
153 76 56 153 112 172 124 67 46 105 84 98 101 -7 19 -28 20 -72 5z"/>
<path d="M1058 2684 c-87 -27 -176 -172 -166 -268 3 -24 20 -75 38 -115 27
-57 47 -84 111 -141 42 -39 89 -90 102 -115 92 -163 66 -503 -40 -530 -37 -9
-84 23 -111 75 -45 87 -18 227 64 336 24 31 31 54 16 54 -22 0 -114 -112 -142
-172 -70 -149 -43 -276 71 -333 101 -52 171 -22 224 96 58 131 57 305 -5 452
-26 63 -48 94 -119 170 -92 98 -143 186 -121 212 27 33 180 49 292 30 40 -6
49 -5 54 9 11 30 -19 46 -112 60 -74 11 -98 11 -142 0 -131 -34 -136 -7 -23
121 21 24 47 42 65 45 36 6 48 30 14 29 -12 -1 -44 -8 -70 -15z"/>
<path d="M340 2114 c-102 -30 -160 -66 -160 -100 0 -30 13 -30 75 1 28 13 57
25 66 25 8 0 19 4 25 9 17 16 163 32 185 21 37 -20 10 -150 -32 -150 -10 0
-34 -9 -54 -21 -35 -21 -65 -20 -65 2 0 6 16 26 35 43 27 25 32 35 23 44 -7 7
-20 12 -29 12 -19 0 -79 -63 -126 -130 -17 -25 -47 -55 -67 -65 l-36 -20 0
-74 0 -74 25 23 c14 13 25 29 25 35 0 35 214 181 250 170 24 -8 107 65 126
112 58 138 -59 198 -266 137z"/>
<path d="M1648 1723 c-31 -35 -119 -194 -135 -248 -15 -48 -16 -75 -4 -75 9 0
102 167 159 284 28 57 17 78 -20 39z"/>
<path d="M305 1658 c-11 -6 -35 -24 -54 -40 -21 -18 -41 -28 -52 -25 -16 4
-19 -1 -19 -29 0 -19 2 -34 5 -34 11 0 70 33 94 51 31 25 61 25 61 1 0 -30
-36 -125 -62 -168 -14 -21 -28 -52 -32 -68 -4 -16 -20 -48 -37 -72 -20 -30
-26 -45 -17 -50 10 -7 62 44 114 113 21 27 24 27 119 28 79 0 100 3 108 16 6
9 7 24 4 33 -6 14 -11 15 -28 5 -25 -13 -98 -4 -124 15 -18 13 -18 16 4 74 27
73 22 113 -19 142 -32 23 -38 24 -65 8z"/>
<path d="M1720 1492 c0 -14 86 -92 102 -92 24 0 68 39 68 60 0 27 -18 35 -39
16 -24 -22 -63 -20 -94 4 -27 21 -37 25 -37 12z"/>
<path d="M1878 364 c-4 -3 -57 -7 -120 -10 -62 -2 -131 -6 -153 -9 -22 -3 -94
-7 -160 -9 -66 -3 -149 -7 -185 -10 -176 -16 -344 -18 -977 -12 l-103 1 0 -67
0 -68 885 0 885 0 0 95 0 95 -33 0 c-19 0 -36 -3 -39 -6z"/>
</g>
</svg>
