<?xml version="1.0" standalone="no"?>
<!DOCTYPE svg PUBLIC "-//W3C//DTD SVG 20010904//EN"
 "http://www.w3.org/TR/2001/REC-SVG-20010904/DTD/svg10.dtd">
<svg version="1.0" xmlns="http://www.w3.org/2000/svg"
 width="257.000000pt" height="378.000000pt" viewBox="0 0 257.000000 378.000000"
 preserveAspectRatio="xMidYMid meet">
<metadata>
Created by potrace 1.16, written by Peter Selinger 2001-2019
</metadata>
<g transform="translate(0.000000,378.000000) scale(0.100000,-0.100000)"
fill="#000000" stroke="none">
<path d="M2340 2706 c-25 -14 -65 -31 -90 -38 -27 -8 -44 -19 -42 -27 4 -20
-15 -38 -87 -81 -36 -22 -90 -62 -120 -89 l-55 -49 18 -27 c24 -36 41 -40 86
-20 21 9 43 14 49 11 13 -8 14 -198 2 -266 -5 -25 -14 -79 -21 -120 -7 -41
-23 -115 -36 -165 -13 -49 -24 -103 -24 -120 0 -16 -11 -64 -25 -106 -36 -114
-61 -257 -48 -270 17 -17 31 -2 39 39 4 20 11 46 17 56 5 11 15 45 22 75 15
68 64 238 76 266 5 11 23 88 39 170 39 193 33 179 69 160 41 -21 66 -19 84 8
l16 22 39 -41 40 -41 1 226 1 226 -44 -82 c-23 -45 -47 -88 -53 -95 -6 -7 -13
-26 -17 -42 -8 -33 -65 -106 -83 -106 -10 0 -13 25 -13 94 0 51 -3 107 -6 122
-5 27 0 33 78 86 46 31 95 62 111 69 26 12 27 14 27 96 0 45 -1 83 -2 83 -2 0
-23 -11 -48 -24z"/>
<path d="M773 2618 c-34 -39 -115 -189 -109 -204 3 -8 12 -14 20 -14 17 0 46
37 46 58 0 21 73 112 90 112 22 0 64 -89 87 -183 13 -54 21 -103 17 -108 -15
-25 -195 19 -236 58 -23 22 -32 25 -46 17 -9 -6 -18 -22 -20 -36 -6 -46 146
-128 238 -128 21 0 42 5 45 10 11 17 61 11 80 -10 26 -29 92 -27 151 5 51 27
64 25 64 -8 0 -17 -29 -41 -127 -107 -71 -47 -148 -93 -172 -102 -25 -10 -52
-25 -60 -33 -15 -15 -14 -18 3 -31 38 -28 104 -13 329 76 l48 19 9 -25 c6 -14
10 -32 10 -40 0 -8 9 -52 19 -97 19 -81 50 -241 70 -367 6 -36 12 -112 13
-170 l3 -105 -65 3 c-36 2 -86 10 -112 17 -57 16 -70 5 -41 -33 33 -44 69 -57
165 -57 77 0 89 3 111 23 22 21 24 30 22 90 -5 105 -25 281 -40 347 -8 33 -21
92 -31 130 -9 39 -23 108 -31 155 -8 47 -17 97 -20 112 -4 21 1 30 23 44 16 9
45 27 64 40 19 12 47 26 63 30 15 3 32 14 37 24 20 38 -19 40 -107 4 -36 -14
-72 -24 -81 -22 -26 5 -23 60 4 73 41 20 184 157 184 176 0 10 -9 23 -20 29
-16 9 -27 6 -55 -15 -41 -32 -135 -69 -146 -58 -4 4 -9 26 -11 47 -5 60 -21
53 -43 -20 -11 -36 -24 -69 -30 -74 -6 -5 -32 -15 -58 -22 -57 -15 -76 -4 -55
34 24 43 181 183 272 242 86 55 88 57 71 76 -23 26 -36 25 -80 -2 -65 -41
-116 -87 -222 -201 -58 -61 -112 -113 -119 -115 -9 -2 -14 5 -14 22 0 45 -60
258 -81 288 -36 51 -93 62 -126 26z m443 -519 c9 -16 -12 -33 -31 -25 -14 5
-15 9 -5 21 15 18 26 19 36 4z"/>
<path d="M1755 2205 c-7 -5 -15 -27 -18 -49 -8 -50 12 -88 64 -125 76 -56 162
-50 218 14 52 59 51 127 -2 157 -27 16 -244 18 -262 3z m223 -77 c5 -65 -63
-89 -129 -45 -23 16 -34 31 -34 47 0 23 5 26 55 31 98 11 105 9 108 -33z"/>
<path d="M2377 1733 c-5 -18 -13 -36 -18 -39 -6 -3 -38 6 -72 22 -93 42 -177
33 -177 -18 0 -16 5 -19 20 -14 11 3 28 8 38 11 20 6 131 -52 145 -76 15 -23
-8 -74 -56 -126 -44 -48 -74 -54 -102 -23 -10 11 -22 17 -26 14 -30 -18 27
-74 75 -74 42 0 124 61 161 121 24 37 25 48 23 137 -2 75 -5 90 -11 65z"/>
<path d="M250 1232 c-25 -8 -51 -16 -57 -18 -12 -3 -19 -64 -8 -64 26 0 137
79 129 92 -6 10 -8 9 -64 -10z"/>
</g>
</svg>
