<?xml version="1.0" standalone="no"?>
<!DOCTYPE svg PUBLIC "-//W3C//DTD SVG 20010904//EN"
 "http://www.w3.org/TR/2001/REC-SVG-20010904/DTD/svg10.dtd">
<svg version="1.0" xmlns="http://www.w3.org/2000/svg"
 width="259.000000pt" height="386.000000pt" viewBox="0 0 259.000000 386.000000"
 preserveAspectRatio="xMidYMid meet">
<metadata>
Created by potrace 1.16, written by Peter Selinger 2001-2019
</metadata>
<g transform="translate(0.000000,386.000000) scale(0.100000,-0.100000)"
fill="#000000" stroke="none">
<path d="M972 2598 c-26 -29 -38 -61 -67 -178 -22 -89 -21 -121 3 -106 6 4 18
32 27 64 34 122 48 157 75 191 16 19 27 38 24 43 -10 15 -40 8 -62 -14z"/>
<path d="M2361 2472 c-35 -12 -56 -13 -100 -4 -65 12 -81 3 -58 -32 20 -29 85
-50 127 -41 38 8 43 -4 23 -59 -9 -25 -13 -49 -9 -53 5 -4 11 -2 13 5 3 7 16
26 29 42 22 25 25 37 22 93 l-3 64 -44 -15z"/>
<path d="M1114 2433 c6 -38 14 -53 39 -73 17 -14 63 -54 101 -88 92 -84 114
-98 128 -84 9 9 6 20 -12 44 -50 69 -136 158 -162 169 -16 6 -41 27 -58 45
-16 19 -32 34 -36 34 -3 0 -3 -21 0 -47z"/>
<path d="M1796 2216 c-74 -79 -96 -113 -105 -160 -5 -25 -14 -52 -20 -60 -7
-8 -8 -17 -3 -20 6 -3 18 7 28 22 28 42 167 202 176 202 18 0 20 -35 9 -118
-18 -128 -93 -426 -111 -437 -4 -3 -34 23 -67 58 -65 69 -136 122 -152 112
-19 -11 13 -56 103 -145 47 -46 86 -93 86 -103 0 -10 -9 -30 -20 -44 -21 -27
-26 -53 -10 -53 5 0 22 16 37 35 15 19 32 35 36 35 4 0 29 -19 55 -43 67 -61
122 -102 162 -121 19 -9 46 -23 60 -31 27 -16 74 -20 68 -6 -1 5 -34 30 -73
56 -82 56 -129 93 -197 155 -55 49 -55 47 -20 155 22 67 53 174 72 250 7 28
19 73 27 100 7 28 14 74 15 102 2 67 -26 103 -80 103 -28 0 -42 -8 -76 -44z"/>
<path d="M1130 2122 c-14 -15 -49 -48 -79 -74 -39 -34 -52 -51 -47 -63 9 -25
65 -12 94 23 40 47 72 101 72 122 0 27 -11 25 -40 -8z"/>
<path d="M2380 2084 c-27 -31 -48 -36 -86 -18 -35 17 -36 17 -61 -8 -14 -14
-22 -31 -19 -37 4 -6 36 -11 73 -11 81 0 123 21 123 62 0 31 -11 36 -30 12z"/>
<path d="M1215 2003 c-3 -16 -10 -55 -14 -88 -4 -33 -16 -78 -27 -100 -22 -47
-108 -133 -141 -141 -38 -10 -20 -29 26 -28 53 1 89 27 119 87 22 45 35 56 46
39 11 -18 110 -351 114 -384 3 -30 0 -39 -20 -52 -21 -13 -29 -13 -81 1 -65
19 -80 37 -90 111 -5 42 -4 45 46 92 29 27 48 52 44 56 -12 12 -55 -13 -107
-62 -47 -44 -50 -50 -50 -96 0 -75 21 -105 98 -140 86 -39 142 -36 184 11 15
17 28 42 28 56 0 47 -30 162 -76 290 -42 117 -48 142 -54 250 -4 66 -8 121 -9
123 0 1 -7 2 -15 2 -7 0 -17 -12 -21 -27z"/>
<path d="M2381 1936 c-21 -23 -24 -56 -4 -56 22 1 34 20 31 49 l-3 33 -24 -26z"/>
<path d="M2390 1805 c-13 -16 -7 -45 10 -45 5 0 10 14 10 30 0 34 -3 36 -20
15z"/>
<path d="M2169 1511 c-22 -18 -23 -21 -8 -36 27 -27 135 -40 194 -24 46 13 50
17 53 48 3 31 2 33 -20 26 -45 -14 -139 -18 -151 -6 -16 16 -42 13 -68 -8z"/>
<path d="M181 1290 c1 -103 4 -165 9 -150 12 36 12 292 0 310 -6 10 -9 -44 -9
-160z"/>
<path d="M667 1423 c-4 -3 -7 -14 -7 -24 0 -10 -9 -23 -20 -29 -24 -13 -27
-58 -4 -67 9 -3 28 7 49 27 38 36 60 35 75 -5 10 -27 37 -34 46 -11 3 8 -1 34
-9 58 -12 34 -21 44 -43 49 -41 9 -80 10 -87 2z"/>
</g>
</svg>
