<?xml version="1.0" standalone="no"?>
<!DOCTYPE svg PUBLIC "-//W3C//DTD SVG 20010904//EN"
 "http://www.w3.org/TR/2001/REC-SVG-20010904/DTD/svg10.dtd">
<svg version="1.0" xmlns="http://www.w3.org/2000/svg"
 width="158.000000pt" height="272.000000pt" viewBox="0 0 158.000000 272.000000"
 preserveAspectRatio="xMidYMid meet">
<metadata>
Created by potrace 1.16, written by Peter Selinger 2001-2019
</metadata>
<g transform="translate(0.000000,272.000000) scale(0.100000,-0.100000)"
fill="#000000" stroke="none">
<path d="M1351 2458 c-15 -68 -19 -115 -32 -388 -16 -349 -26 -762 -19 -790 5
-18 13 -25 30 -25 27 0 24 -13 35 165 5 94 10 114 25 105 5 -3 10 3 10 13 0
15 -5 19 -19 15 -26 -7 -34 11 -22 50 10 34 27 348 37 700 6 201 6 207 -13
207 -15 0 -22 -11 -32 -52z"/>
<path d="M648 2263 c-19 -27 -71 -87 -115 -135 -57 -61 -92 -110 -121 -170
-50 -101 -55 -149 -17 -174 23 -15 31 -15 68 -4 23 8 58 22 77 31 19 10 77 31
129 48 93 29 118 47 107 78 -5 11 -15 14 -41 9 -79 -15 -203 -60 -236 -86 -20
-16 -44 -30 -55 -32 -30 -5 -22 55 18 118 42 68 209 248 259 280 22 13 39 31
39 40 0 12 -53 44 -74 44 -2 0 -20 -21 -38 -47z"/>
<path d="M586 1736 c-20 -27 -26 -46 -26 -85 0 -64 -15 -73 -124 -75 -79 -1
-81 -2 -81 -26 0 -41 41 -56 117 -43 34 6 66 8 71 6 4 -2 7 -113 7 -246 -1
-133 4 -277 10 -320 13 -87 41 -164 65 -173 24 -10 27 0 10 33 -24 47 -34 238
-26 480 5 155 12 227 20 237 7 9 37 28 66 42 69 35 130 87 121 102 -10 16 -41
15 -55 -2 -18 -21 -121 -60 -131 -50 -5 5 -5 35 0 73 13 92 0 105 -44 47z"/>
</g>
</svg>
