<?xml version="1.0" standalone="no"?>
<!DOCTYPE svg PUBLIC "-//W3C//DTD SVG 20010904//EN"
 "http://www.w3.org/TR/2001/REC-SVG-20010904/DTD/svg10.dtd">
<svg version="1.0" xmlns="http://www.w3.org/2000/svg"
 width="182.000000pt" height="251.000000pt" viewBox="0 0 182.000000 251.000000"
 preserveAspectRatio="xMidYMid meet">
<metadata>
Created by potrace 1.16, written by Peter Selinger 2001-2019
</metadata>
<g transform="translate(0.000000,251.000000) scale(0.100000,-0.100000)"
fill="#000000" stroke="none">
<path d="M665 1493 c-49 -25 -75 -54 -116 -128 -22 -38 -44 -77 -49 -85 -5 -8
-11 -23 -14 -32 -3 -11 -15 -18 -30 -18 -35 0 -44 -21 -18 -38 12 -8 22 -20
22 -27 0 -18 68 -28 108 -16 97 29 144 79 197 210 l26 62 -20 44 c-17 38 -24
45 -48 45 -15 -1 -41 -8 -58 -17z m55 -71 c0 -70 -108 -232 -155 -232 -13 0
-27 5 -30 11 -8 13 32 117 55 144 10 11 25 35 34 52 11 22 27 35 49 41 37 11
47 7 47 -16z"/>
<path d="M1621 1374 c-6 -15 -14 -61 -17 -103 -4 -66 -2 -79 15 -101 l21 -25
0 128 c0 70 -2 127 -3 127 -2 0 -9 -12 -16 -26z"/>
<path d="M1555 1040 c-84 -30 -145 -59 -145 -68 0 -5 11 -19 25 -32 25 -24 33
-58 16 -75 -18 -20 -51 -86 -51 -104 0 -32 25 -44 57 -28 32 17 158 145 150
153 -7 8 -47 -15 -47 -26 0 -12 -78 -65 -85 -58 -4 4 13 26 126 160 23 28 39
57 39 72 0 31 -14 32 -85 6z"/>
<path d="M465 850 c-4 -6 -24 -21 -44 -35 -21 -13 -46 -40 -55 -60 -24 -50
-24 -139 -1 -165 26 -28 33 -16 38 66 5 79 5 81 55 142 23 29 31 47 24 54 -6
6 -12 6 -17 -2z"/>
<path d="M582 769 c-28 -11 -20 -29 13 -29 28 0 73 -53 104 -125 30 -69 97
-155 121 -155 22 0 35 16 20 25 -14 9 -55 74 -64 103 -4 12 -25 52 -46 89 -29
49 -49 71 -77 84 -44 21 -41 21 -71 8z"/>
</g>
</svg>
