<?xml version="1.0" standalone="no"?>
<!DOCTYPE svg PUBLIC "-//W3C//DTD SVG 20010904//EN"
 "http://www.w3.org/TR/2001/REC-SVG-20010904/DTD/svg10.dtd">
<svg version="1.0" xmlns="http://www.w3.org/2000/svg"
 width="290.000000pt" height="371.000000pt" viewBox="0 0 290.000000 371.000000"
 preserveAspectRatio="xMidYMid meet">
<metadata>
Created by potrace 1.16, written by Peter Selinger 2001-2019
</metadata>
<g transform="translate(0.000000,371.000000) scale(0.100000,-0.100000)"
fill="#000000" stroke="none">
<path d="M2343 2578 c-19 -25 -25 -55 -34 -168 -5 -63 -13 -160 -18 -215 -19
-195 -25 -477 -11 -581 24 -189 63 -313 132 -416 33 -49 43 -58 68 -58 27 0
30 -3 30 -34 0 -38 8 -66 20 -66 7 0 18 49 44 205 9 50 25 131 36 180 12 50
28 128 35 175 30 181 38 225 45 235 24 34 38 370 15 370 -5 0 -19 -14 -31 -32
-16 -24 -24 -60 -33 -155 -7 -67 -21 -168 -31 -223 -45 -240 -64 -357 -74
-459 -9 -87 -15 -111 -29 -120 -15 -9 -22 -6 -43 19 -33 41 -79 163 -101 265
-21 100 -24 362 -5 555 6 66 16 181 23 255 8 90 18 153 33 189 l21 53 -24 19
c-27 22 -54 24 -68 7z"/>
<path d="M1460 2489 c-25 -5 -101 -21 -170 -34 -69 -14 -168 -34 -220 -45 -52
-11 -106 -21 -120 -22 -35 -4 -39 -42 -7 -63 22 -14 30 -14 83 -1 199 50 537
111 555 101 5 -4 2 -17 -7 -30 -15 -23 -15 -25 1 -31 20 -8 95 61 95 87 0 45
-93 61 -210 38z"/>
<path d="M1425 2183 c-14 -21 -15 -30 -6 -45 6 -10 11 -44 11 -76 0 -31 14
-163 31 -292 16 -129 35 -270 40 -313 5 -43 18 -130 28 -194 23 -145 15 -151
-74 -63 -35 35 -68 59 -74 56 -40 -25 54 -160 138 -197 107 -47 115 -17 71
266 -5 33 -17 119 -26 190 -9 72 -22 180 -30 240 -23 176 -36 347 -30 391 3
24 1 45 -6 52 -21 21 -55 13 -73 -15z"/>
<path d="M1055 2023 c-11 -3 -32 -17 -46 -31 -15 -15 -37 -34 -50 -43 -22 -15
-24 -24 -27 -115 -3 -97 9 -149 33 -149 6 0 13 27 17 60 8 74 24 149 38 174
14 27 113 40 149 20 32 -18 39 -49 32 -134 -6 -64 -9 -71 -38 -91 -17 -11 -54
-24 -82 -27 -86 -10 -120 -44 -67 -68 19 -9 39 -7 94 10 39 11 77 21 85 21 35
0 77 119 77 219 0 53 -25 99 -72 134 -27 20 -104 31 -143 20z"/>
<path d="M2545 1977 c-11 -6 -35 -11 -54 -12 -21 0 -38 -7 -45 -17 -15 -25 3
-39 56 -45 48 -6 62 4 73 48 8 32 -3 41 -30 26z"/>
</g>
</svg>
