<?xml version="1.0" standalone="no"?>
<!DOCTYPE svg PUBLIC "-//W3C//DTD SVG 20010904//EN"
 "http://www.w3.org/TR/2001/REC-SVG-20010904/DTD/svg10.dtd">
<svg version="1.0" xmlns="http://www.w3.org/2000/svg"
 width="156.000000pt" height="251.000000pt" viewBox="0 0 156.000000 251.000000"
 preserveAspectRatio="xMidYMid meet">
<metadata>
Created by potrace 1.16, written by Peter Selinger 2001-2019
</metadata>
<g transform="translate(0.000000,251.000000) scale(0.100000,-0.100000)"
fill="#000000" stroke="none">
<path d="M682 1537 c-32 -33 -73 -137 -87 -220 -4 -23 -15 -43 -29 -52 -32
-22 -334 -125 -363 -125 -21 0 -24 -4 -21 -27 6 -53 84 -41 275 41 47 20 85
31 88 25 4 -5 1 -43 -6 -85 -12 -66 -17 -79 -44 -99 -16 -13 -39 -40 -49 -60
-19 -35 -19 -36 0 -55 29 -29 72 -36 80 -14 4 11 14 37 24 59 9 22 22 53 28
68 13 32 38 45 54 29 17 -17 -8 -140 -48 -240 -46 -114 -94 -267 -104 -327
-17 -105 37 -185 115 -171 37 7 98 67 130 128 25 49 45 49 45 1 1 -45 13 -108
37 -180 16 -50 19 -53 50 -53 l33 0 -19 48 c-11 27 -24 92 -29 144 -9 93 -31
156 -58 165 -6 2 -47 -39 -92 -91 -45 -52 -92 -98 -104 -102 -29 -9 -58 27
-58 73 0 36 23 126 45 178 40 92 96 284 104 357 12 101 1 128 -54 128 -18 0
-36 4 -39 8 -7 12 24 114 41 134 9 10 32 22 52 29 53 17 161 76 200 109 51 43
18 49 -58 11 -84 -43 -161 -72 -171 -66 -5 3 3 31 17 63 28 62 63 159 66 181
4 26 -19 21 -51 -12z"/>
<path d="M1345 1138 c-34 -18 -45 -40 -45 -89 0 -42 4 -51 38 -80 37 -33 37
-33 40 -9 2 12 -2 33 -8 45 -9 17 -9 28 -1 43 12 23 15 102 4 102 -5 0 -17 -6
-28 -12z"/>
</g>
</svg>
