<?xml version="1.0" standalone="no"?>
<!DOCTYPE svg PUBLIC "-//W3C//DTD SVG 20010904//EN"
 "http://www.w3.org/TR/2001/REC-SVG-20010904/DTD/svg10.dtd">
<svg version="1.0" xmlns="http://www.w3.org/2000/svg"
 width="423.000000pt" height="394.000000pt" viewBox="0 0 423.000000 394.000000"
 preserveAspectRatio="xMidYMid meet">
<metadata>
Created by potrace 1.16, written by Peter Selinger 2001-2019
</metadata>
<g transform="translate(0.000000,394.000000) scale(0.100000,-0.100000)"
fill="#000000" stroke="none">
<path d="M1432 2968 c-17 -17 -15 -43 7 -86 44 -87 53 -170 58 -502 2 -173 0
-351 -4 -394 -8 -78 -9 -80 -38 -86 -68 -16 -413 -76 -487 -85 -26 -3 -57 -15
-70 -25 -22 -18 -22 -20 -8 -47 20 -36 58 -41 120 -14 27 12 60 21 74 21 14 0
50 6 80 14 30 8 88 18 128 22 40 4 84 12 98 19 14 7 39 15 55 16 l30 4 -1 -75
c0 -41 -6 -208 -13 -370 -16 -376 -2 -552 43 -537 8 3 10 68 8 218 -2 138 2
272 12 379 8 91 18 204 21 252 4 53 14 99 24 120 17 30 24 34 82 41 35 5 122
10 193 10 125 2 129 3 140 26 8 19 7 26 -9 38 -20 15 -57 15 -359 0 l-38 -2
-2 370 c-2 341 -4 378 -24 478 -25 120 -37 151 -66 185 -22 25 -36 28 -54 10z"/>
<path d="M3633 2548 c-20 -22 -103 -174 -166 -301 -15 -33 -27 -66 -25 -75 7
-36 34 -13 81 68 28 47 77 129 109 184 58 97 69 138 38 144 -9 1 -25 -8 -37
-20z"/>
<path d="M3827 2408 c-30 -71 -259 -400 -359 -516 -35 -41 -28 -59 14 -35 39
24 219 227 289 328 58 82 119 192 119 211 0 11 -32 44 -43 44 -4 0 -13 -15
-20 -32z"/>
<path d="M4034 1960 c-57 -321 -62 -380 -35 -380 29 0 53 151 49 310 l-3 135
-11 -65z"/>
<path d="M3685 1949 c-4 -5 0 -53 9 -107 8 -53 20 -171 25 -262 11 -163 21
-203 50 -186 15 9 15 342 0 421 -17 93 -64 167 -84 134z"/>
</g>
</svg>
