<?xml version="1.0" standalone="no"?>
<!DOCTYPE svg PUBLIC "-//W3C//DTD SVG 20010904//EN"
 "http://www.w3.org/TR/2001/REC-SVG-20010904/DTD/svg10.dtd">
<svg version="1.0" xmlns="http://www.w3.org/2000/svg"
 width="199.000000pt" height="315.000000pt" viewBox="0 0 199.000000 315.000000"
 preserveAspectRatio="xMidYMid meet">
<metadata>
Created by potrace 1.16, written by Peter Selinger 2001-2019
</metadata>
<g transform="translate(0.000000,315.000000) scale(0.100000,-0.100000)"
fill="#000000" stroke="none">
<path d="M1009 2400 c-56 -17 -183 -120 -242 -198 -24 -31 -60 -80 -80 -109
-35 -50 -36 -53 -24 -95 18 -60 40 -57 48 8 11 85 123 221 255 308 31 20 52
27 80 24 36 -3 39 -6 42 -35 2 -17 -4 -64 -13 -105 -9 -40 -20 -102 -25 -138
-9 -59 -32 -141 -95 -335 -12 -38 -29 -71 -36 -73 -13 -2 -47 48 -107 161 -44
84 -79 116 -96 89 -7 -12 92 -204 149 -288 14 -20 25 -45 25 -55 0 -10 -15
-51 -34 -91 -18 -40 -42 -93 -52 -118 -11 -25 -34 -66 -51 -92 -22 -31 -29
-49 -21 -54 14 -9 39 24 85 116 20 41 52 99 71 129 l33 53 26 -23 c14 -13 45
-52 70 -86 60 -84 128 -143 164 -143 29 0 28 1 -29 59 -53 55 -182 233 -197
273 -4 9 2 34 13 55 11 21 32 76 47 123 16 47 34 92 42 101 7 8 13 24 13 35 0
10 7 38 15 62 14 39 29 116 57 295 13 84 0 123 -48 143 -37 15 -47 16 -85 4z"/>
<path d="M1755 2319 c-22 -22 -55 -48 -74 -57 -51 -25 -61 -47 -33 -74 l22
-22 70 69 c53 53 70 76 70 97 0 16 -4 28 -8 28 -4 0 -26 -18 -47 -41z"/>
<path d="M1662 1962 c-16 -32 -18 -46 -11 -97 5 -33 11 -109 14 -170 9 -232
25 -441 34 -474 12 -39 38 -71 58 -71 16 0 16 0 -4 40 -12 25 -17 68 -20 169
-1 75 -7 217 -13 315 -11 224 -8 234 51 144 l34 -53 3 65 c3 59 1 66 -20 80
-13 8 -38 32 -57 53 -19 20 -38 37 -42 37 -4 0 -16 -17 -27 -38z"/>
</g>
</svg>
