<?xml version="1.0" standalone="no"?>
<!DOCTYPE svg PUBLIC "-//W3C//DTD SVG 20010904//EN"
 "http://www.w3.org/TR/2001/REC-SVG-20010904/DTD/svg10.dtd">
<svg version="1.0" xmlns="http://www.w3.org/2000/svg"
 width="234.000000pt" height="333.000000pt" viewBox="0 0 234.000000 333.000000"
 preserveAspectRatio="xMidYMid meet">
<metadata>
Created by potrace 1.16, written by Peter Selinger 2001-2019
</metadata>
<g transform="translate(0.000000,333.000000) scale(0.100000,-0.100000)"
fill="#000000" stroke="none">
<path d="M182 2278 c2 -16 12 -24 37 -29 67 -14 120 -72 128 -141 5 -39 -4
-78 -32 -150 -12 -29 20 -21 41 10 56 83 63 114 43 185 -21 76 -111 146 -187
147 -29 0 -33 -3 -30 -22z"/>
<path d="M900 2193 c0 -6 84 -38 188 -73 242 -81 422 -151 422 -164 0 -6 -20
-40 -45 -75 -24 -35 -50 -80 -56 -100 -19 -58 -59 -121 -88 -135 -61 -32 -195
-191 -189 -225 7 -34 54 -54 127 -53 l71 0 0 -53 c0 -58 55 -246 110 -375 17
-41 42 -106 55 -144 13 -37 26 -71 30 -74 10 -10 25 20 25 51 0 33 -32 152
-52 193 -8 16 -20 47 -26 69 -6 22 -23 78 -37 125 -15 47 -29 115 -32 152 -6
66 -5 68 21 78 31 11 26 27 -11 41 -24 9 -24 11 -18 77 9 89 23 116 59 120 28
3 29 2 23 -31 -3 -20 -3 -38 0 -41 10 -10 73 46 73 66 0 26 -45 66 -78 70 -34
4 -33 15 21 136 44 99 65 121 101 104 82 -40 242 -106 272 -112 45 -10 79 2
87 29 7 28 -10 37 -32 17 -24 -22 -26 -21 -117 24 -43 22 -103 47 -132 56 -30
10 -56 24 -59 31 -6 17 38 66 85 95 33 20 74 21 116 3 31 -13 14 18 -18 33
-39 20 -116 -8 -183 -64 -28 -24 -56 -44 -63 -44 -6 0 -48 17 -93 39 -45 21
-131 53 -192 70 -60 18 -148 44 -195 58 -96 29 -170 40 -170 26z m438 -641
c-6 -20 -13 -57 -17 -82 l-6 -45 -58 -3 c-51 -3 -57 -1 -57 17 0 21 77 121
112 145 30 21 38 12 26 -32z"/>
<path d="M181 1891 c-1 -157 1 -283 3 -280 14 14 38 167 43 274 6 120 -3 196
-31 260 -11 26 -13 -12 -15 -254z"/>
<path d="M2126 2024 c-62 -78 -86 -246 -47 -322 11 -20 33 -50 50 -66 l31 -30
0 41 c0 22 -9 60 -20 84 -26 59 -26 151 1 231 11 33 19 69 17 79 -2 16 -8 13
-32 -17z"/>
<path d="M355 1677 c-112 -81 -175 -146 -175 -178 0 -29 1 -29 88 44 48 41
108 86 134 101 57 33 64 42 48 61 -19 22 -31 19 -95 -28z"/>
<path d="M210 1362 c-17 -5 -26 -16 -28 -32 -3 -24 -1 -25 65 -25 54 -1 79 -7
121 -28 54 -28 59 -36 42 -66 -21 -40 59 -69 83 -30 5 9 7 29 3 44 -20 78
-197 163 -286 137z"/>
<path d="M260 1269 c-32 -13 -61 -39 -54 -50 3 -5 14 -4 25 2 11 5 34 9 52 7
27 -3 32 -7 35 -33 3 -37 -74 -199 -112 -234 -17 -17 -26 -34 -26 -55 l1 -31
39 45 c57 64 131 220 133 277 2 41 -1 48 -28 64 -35 21 -33 20 -65 8z"/>
</g>
</svg>
