<?xml version="1.0" standalone="no"?>
<!DOCTYPE svg PUBLIC "-//W3C//DTD SVG 20010904//EN"
 "http://www.w3.org/TR/2001/REC-SVG-20010904/DTD/svg10.dtd">
<svg version="1.0" xmlns="http://www.w3.org/2000/svg"
 width="259.000000pt" height="386.000000pt" viewBox="0 0 259.000000 386.000000"
 preserveAspectRatio="xMidYMid meet">
<metadata>
Created by potrace 1.16, written by Peter Selinger 2001-2019
</metadata>
<g transform="translate(0.000000,386.000000) scale(0.100000,-0.100000)"
fill="#000000" stroke="none">
<path d="M965 3090 c-9 -14 2 -78 31 -174 13 -44 22 -88 18 -98 -3 -12 1 -20
12 -25 20 -7 107 -190 100 -209 -7 -17 -98 -57 -166 -73 -33 -8 -99 -12 -168
-9 -106 3 -114 4 -132 28 -16 22 -21 23 -45 12 -39 -18 -28 -43 34 -74 50 -26
64 -28 167 -28 90 0 124 4 164 20 28 11 62 20 76 20 14 0 40 11 58 25 18 14
36 25 39 25 3 0 15 -20 26 -45 21 -47 41 -59 41 -25 0 10 -8 36 -17 56 l-18
36 53 45 c29 25 50 49 46 54 -10 17 -38 9 -69 -21 -38 -37 -38 -37 -84 80 -18
47 -39 99 -46 115 -23 55 -46 132 -58 201 -11 58 -17 70 -34 72 -12 2 -24 -2
-28 -8z"/>
<path d="M180 2437 c0 -19 6 -39 13 -44 12 -11 87 -53 146 -85 19 -10 46 -29
61 -43 26 -25 40 -24 40 1 0 20 -76 95 -117 116 -52 26 -80 42 -100 60 -37 31
-43 31 -43 -5z"/>
<path d="M1012 2427 c-74 -76 -144 -400 -99 -455 7 -8 20 -11 36 -7 41 10 47
23 16 35 -28 10 -28 11 -21 78 13 125 43 223 88 286 27 38 36 80 20 90 -5 3
-23 -9 -40 -27z"/>
<path d="M1256 2401 c-3 -5 25 -41 63 -81 69 -71 104 -81 60 -17 -38 56 -113
115 -123 98z"/>
<path d="M1131 2299 c-29 -47 -35 -91 -21 -136 16 -49 28 -63 52 -63 17 0 19
4 12 28 -5 15 -9 64 -9 109 0 45 -3 84 -7 88 -4 4 -16 -8 -27 -26z"/>
<path d="M1431 2306 c-9 -10 -9 -20 -2 -34 8 -15 3 -28 -25 -67 -36 -51 -34
-76 5 -55 33 17 81 90 81 121 0 18 -7 32 -19 39 -25 13 -26 13 -40 -4z"/>
<path d="M228 2238 c-34 -23 -48 -38 -48 -55 0 -13 3 -23 8 -23 13 0 102 86
102 98 0 18 -10 14 -62 -20z"/>
<path d="M720 2230 c0 -5 9 -10 20 -10 11 0 20 5 20 10 0 6 -9 10 -20 10 -11
0 -20 -4 -20 -10z"/>
<path d="M560 2110 c-100 -127 -95 -150 38 -150 77 0 92 3 158 35 41 20 74 40
74 45 0 18 -45 10 -85 -15 -33 -20 -53 -24 -117 -25 -42 0 -80 5 -83 10 -8 12
54 99 96 134 36 31 36 36 1 36 -22 0 -38 -13 -82 -70z"/>
<path d="M980 1882 c-30 -14 -80 -56 -80 -68 0 -23 16 -24 56 -3 49 25 71 22
98 -14 30 -41 29 -174 -3 -275 -13 -39 -27 -74 -31 -77 -5 -3 -48 26 -97 65
-48 39 -98 73 -111 77 -32 8 -50 -11 -31 -33 14 -18 172 -141 204 -159 17 -10
17 -13 -4 -60 -12 -28 -36 -64 -52 -81 -18 -18 -26 -34 -21 -38 15 -9 67 38
97 89 14 25 31 45 37 45 5 0 24 -12 42 -26 57 -47 170 -114 209 -125 45 -12
104 -8 97 6 -3 6 -9 9 -14 7 -23 -8 -127 46 -191 98 -38 31 -80 62 -92 69 -30
15 -29 29 6 136 37 116 46 188 31 258 -18 87 -87 137 -150 109z"/>
<path d="M2211 1709 c-119 -35 -192 -156 -142 -237 48 -76 144 -95 206 -41 19
17 35 35 35 40 0 16 -26 10 -45 -11 -26 -29 -86 -27 -123 5 -41 34 -49 75 -24
123 38 74 122 104 175 62 28 -22 44 -12 28 18 -11 20 -54 53 -68 51 -4 0 -23
-5 -42 -10z"/>
<path d="M182 1386 c2 -16 9 -31 16 -34 17 -5 15 20 -3 44 -15 18 -15 18 -13
-10z"/>
<path d="M1820 1320 c-15 -28 21 -97 55 -106 28 -7 55 10 55 33 0 15 -77 92
-92 93 -4 0 -12 -9 -18 -20z"/>
<path d="M2356 255 c-41 -36 -34 -44 23 -24 23 8 31 17 31 35 0 31 -7 30 -54
-11z"/>
</g>
</svg>
