<?xml version="1.0" standalone="no"?>
<!DOCTYPE svg PUBLIC "-//W3C//DTD SVG 20010904//EN"
 "http://www.w3.org/TR/2001/REC-SVG-20010904/DTD/svg10.dtd">
<svg version="1.0" xmlns="http://www.w3.org/2000/svg"
 width="276.000000pt" height="288.000000pt" viewBox="0 0 276.000000 288.000000"
 preserveAspectRatio="xMidYMid meet">
<metadata>
Created by potrace 1.16, written by Peter Selinger 2001-2019
</metadata>
<g transform="translate(0.000000,288.000000) scale(0.100000,-0.100000)"
fill="#000000" stroke="none">
<path d="M2561 1950 c-8 -19 -34 -78 -59 -130 -24 -52 -48 -105 -53 -117 -12
-32 -115 -180 -161 -231 -60 -66 -120 -164 -108 -176 13 -13 46 19 168 162 94
110 155 196 207 295 23 43 25 57 23 140 -3 90 -3 91 -17 57z"/>
<path d="M925 1950 c-29 -11 -50 -39 -39 -50 5 -4 23 -10 39 -12 49 -5 44 -36
-29 -158 -36 -60 -66 -112 -66 -116 0 -3 -14 -23 -30 -44 -84 -106 -246 -349
-272 -407 -13 -29 -16 -49 -10 -55 9 -9 143 157 225 278 15 22 46 64 70 92
100 121 222 318 233 379 5 26 1 40 -20 68 -28 36 -57 43 -101 25z"/>
<path d="M1498 1874 c-5 -4 -8 -30 -8 -58 -1 -28 -7 -78 -15 -111 -10 -41 -15
-117 -15 -238 l0 -177 -40 -16 c-22 -9 -45 -25 -51 -35 -5 -11 -16 -19 -23
-19 -16 0 -41 -28 -33 -36 3 -3 12 -2 19 2 7 5 29 10 48 11 19 1 44 3 55 5 24
4 33 -39 35 -152 0 -41 5 -106 11 -145 5 -38 14 -103 19 -143 12 -92 37 -148
92 -208 53 -57 152 -106 220 -108 39 -1 52 4 79 29 17 17 40 48 50 70 19 40
26 105 12 105 -5 0 -21 -25 -37 -56 -27 -51 -65 -84 -98 -84 -8 0 -46 15 -85
34 -141 68 -176 165 -190 533 -7 168 -2 183 55 198 32 8 142 73 160 94 6 8 12
36 12 62 0 26 9 88 21 139 11 50 18 98 14 108 -5 15 -10 13 -35 -15 -35 -39
-60 -118 -60 -189 0 -29 -3 -59 -6 -68 -13 -34 -148 -94 -161 -72 -4 6 -11 97
-15 201 -11 235 -21 349 -30 339z"/>
<path d="M2523 1444 c-8 -20 4 -169 17 -214 15 -52 12 -202 -9 -407 -22 -219
-15 -283 30 -283 18 0 19 11 19 420 0 362 -2 425 -16 460 -17 42 -31 50 -41
24z"/>
<path d="M822 1062 c-1 -105 -9 -197 -19 -247 -21 -105 -24 -280 -4 -280 10 0
21 34 37 120 12 66 30 152 39 192 23 102 25 259 3 298 -10 17 -23 42 -30 58
-7 15 -15 27 -18 27 -3 0 -6 -75 -8 -168z"/>
</g>
</svg>
