<?xml version="1.0" standalone="no"?>
<!DOCTYPE svg PUBLIC "-//W3C//DTD SVG 20010904//EN"
 "http://www.w3.org/TR/2001/REC-SVG-20010904/DTD/svg10.dtd">
<svg version="1.0" xmlns="http://www.w3.org/2000/svg"
 width="299.000000pt" height="291.000000pt" viewBox="0 0 299.000000 291.000000"
 preserveAspectRatio="xMidYMid meet">
<metadata>
Created by potrace 1.16, written by Peter Selinger 2001-2019
</metadata>
<g transform="translate(0.000000,291.000000) scale(0.100000,-0.100000)"
fill="#000000" stroke="none">
<path d="M2728 2563 c-9 -2 -23 -15 -32 -27 -19 -29 -78 -185 -96 -251 -18
-70 -41 -92 -101 -97 -29 -3 -58 -13 -67 -22 -16 -16 -15 -19 8 -37 18 -15 35
-20 70 -17 36 2 44 0 41 -12 -2 -8 -6 -43 -8 -78 -6 -63 -14 -79 -33 -67 -8 5
-7 11 1 21 18 21 -9 18 -49 -6 -49 -30 -34 -62 39 -84 14 -4 15 -11 7 -49 -12
-56 -7 -159 8 -164 13 -4 37 54 29 68 -3 4 2 40 11 78 l16 71 73 35 c84 41
165 120 165 162 0 23 -3 22 -57 -25 -70 -60 -141 -98 -156 -83 -7 7 -3 35 13
91 23 80 23 81 111 158 63 55 89 84 89 100 0 16 -4 21 -13 15 -7 -4 -38 -26
-70 -47 -31 -21 -60 -36 -63 -33 -10 10 55 189 82 224 37 48 28 88 -18 76z"/>
<path d="M1434 2220 c-12 -5 -37 -27 -55 -50 -26 -33 -38 -40 -56 -35 -31 7
-67 -29 -58 -58 9 -30 9 -42 -4 -116 -19 -101 4 -125 40 -43 12 26 32 68 45
93 13 26 24 52 24 59 0 18 51 80 66 80 19 0 23 -10 34 -89 12 -83 28 -120 67
-151 39 -30 79 -21 126 31 41 46 44 57 22 65 -9 4 -30 -7 -50 -25 -39 -34 -47
-36 -75 -21 -25 14 -52 106 -55 192 -1 21 -9 46 -20 58 -20 22 -21 22 -51 10z"/>
<path d="M927 2143 c-12 -11 -8 -38 14 -82 38 -79 53 -205 69 -556 9 -212 15
-272 32 -325 22 -71 69 -130 103 -130 33 0 57 23 53 51 -2 20 -8 24 -35 21
-29 -2 -34 2 -52 40 -30 67 -39 114 -45 238 -20 377 -28 493 -43 565 -8 44
-18 95 -20 113 -7 41 -57 85 -76 65z"/>
<path d="M2803 1800 c0 -36 2 -50 4 -32 2 17 2 47 0 65 -2 17 -4 3 -4 -33z"/>
<path d="M1364 1835 c-8 -19 13 -45 35 -45 10 0 27 -10 39 -23 19 -20 22 -35
22 -110 0 -118 -35 -267 -60 -252 -5 3 -25 39 -44 80 -34 71 -55 90 -71 64
-11 -17 15 -100 51 -160 19 -31 34 -61 34 -67 0 -23 -70 -153 -91 -171 -18
-15 -21 -22 -13 -31 21 -21 46 -6 80 45 67 100 56 95 106 45 71 -72 141 -108
226 -116 82 -8 100 8 30 26 -90 24 -115 37 -180 98 -85 80 -96 111 -67 178 52
120 63 167 63 264 0 102 -14 145 -56 174 -29 21 -97 21 -104 1z"/>
<path d="M2773 1238 c-47 -75 -42 -197 10 -262 l24 -29 0 166 c0 92 -2 167 -4
167 -1 0 -15 -19 -30 -42z"/>
<path d="M822 1138 c-31 -34 -162 -231 -162 -245 0 -31 23 -16 85 58 37 44 87
100 111 125 39 39 42 47 32 64 -17 26 -40 25 -66 -2z"/>
</g>
</svg>
