<?xml version="1.0" standalone="no"?>
<!DOCTYPE svg PUBLIC "-//W3C//DTD SVG 20010904//EN"
 "http://www.w3.org/TR/2001/REC-SVG-20010904/DTD/svg10.dtd">
<svg version="1.0" xmlns="http://www.w3.org/2000/svg"
 width="290.000000pt" height="402.000000pt" viewBox="0 0 290.000000 402.000000"
 preserveAspectRatio="xMidYMid meet">
<metadata>
Created by potrace 1.16, written by Peter Selinger 2001-2019
</metadata>
<g transform="translate(0.000000,402.000000) scale(0.100000,-0.100000)"
fill="#000000" stroke="none">
<path d="M716 2940 c-26 -16 -106 -124 -106 -143 0 -4 -11 -25 -25 -46 -13
-22 -41 -72 -61 -113 -20 -40 -50 -93 -66 -117 -16 -24 -47 -79 -68 -122 -22
-43 -78 -142 -125 -221 -83 -139 -85 -143 -85 -206 l0 -65 20 26 c11 14 20 29
20 34 0 9 59 111 105 183 12 19 69 114 125 210 57 96 110 186 118 200 9 14 28
48 42 75 69 129 116 207 152 251 21 26 37 52 35 58 -6 18 -50 16 -81 -4z"/>
<path d="M2338 2804 c-27 -31 -48 -59 -48 -64 0 -18 -72 -128 -105 -160 -42
-40 -44 -66 -9 -82 24 -11 34 -9 85 19 58 32 86 29 56 -5 -8 -9 -25 -37 -37
-61 l-22 -45 26 -21 c42 -33 53 -19 -149 -201 -38 -34 -83 -74 -99 -87 -33
-27 -29 -43 12 -51 19 -5 54 5 121 34 52 22 101 46 110 53 9 8 54 35 101 62
47 26 102 63 123 81 20 19 44 34 52 34 9 0 41 19 72 43 30 23 64 46 74 52 13
6 19 21 19 42 l0 32 -87 -53 c-49 -30 -124 -77 -168 -105 -114 -74 -237 -142
-244 -135 -6 6 16 26 114 104 31 25 75 61 98 81 23 19 52 42 63 50 12 8 54 44
93 82 62 59 70 70 61 87 -20 38 -50 26 -225 -93 -31 -22 -59 -36 -63 -32 -7 7
24 37 152 152 69 61 70 62 51 83 -27 30 -45 25 -106 -28 -54 -48 -87 -65 -146
-77 -52 -10 -59 3 -21 44 45 48 84 101 92 127 3 12 15 29 26 39 19 17 19 19 4
37 -10 10 -20 18 -23 18 -3 0 -27 -26 -53 -56z"/>
<path d="M1238 2635 c-84 -80 -172 -166 -194 -192 -158 -182 -194 -226 -194
-237 0 -8 7 -19 15 -26 12 -10 24 -9 63 5 26 10 53 22 60 28 7 6 41 20 75 31
39 14 63 28 65 39 3 15 -3 16 -45 11 -26 -4 -65 -12 -85 -19 -21 -7 -39 -10
-42 -8 -9 9 127 157 204 222 131 112 292 269 285 280 -19 32 -57 8 -207 -134z"/>
<path d="M1376 2406 c-28 -32 -82 -72 -114 -86 -29 -12 -77 10 -87 40 -7 23
-33 27 -41 5 -11 -28 6 -64 36 -80 60 -31 33 -61 -122 -137 -55 -26 -75 -48
-45 -48 28 0 132 41 181 72 28 17 78 57 111 88 33 30 80 72 105 93 36 31 42
41 34 54 -17 27 -32 26 -58 -1z"/>
<path d="M2490 2196 c-66 -35 -140 -117 -140 -156 0 -48 26 -80 66 -80 42 0
48 -11 27 -48 -23 -40 -6 -62 47 -62 61 0 158 82 205 175 35 70 33 107 -9 152
-30 33 -39 37 -92 40 -47 3 -68 -2 -104 -21z m140 -52 c36 -31 35 -45 -5 -115
-41 -73 -72 -106 -86 -92 -9 9 -5 22 20 59 17 26 31 55 31 65 0 36 -20 29 -52
-17 -60 -84 -57 -82 -64 -56 -4 13 -14 22 -25 22 -30 0 -34 28 -10 77 16 33
32 49 64 63 57 27 90 25 127 -6z"/>
<path d="M1285 2171 c-155 -57 -261 -120 -281 -166 -7 -19 -22 -38 -31 -44
-10 -5 -15 -13 -11 -16 4 -4 24 7 45 24 21 17 42 31 48 31 6 0 37 16 70 35 32
20 70 38 84 42 14 3 50 17 79 30 55 24 97 30 107 14 4 -8 -25 -83 -42 -110 -2
-2 -12 4 -22 13 -14 13 -24 15 -38 8 -10 -5 -32 -12 -49 -15 -17 -3 -65 -31
-105 -61 -41 -31 -77 -56 -80 -56 -3 0 -25 -23 -48 -51 -38 -45 -42 -54 -36
-85 3 -20 21 -52 39 -71 43 -47 68 -41 174 43 88 70 118 78 106 27 -15 -65
-27 -78 -68 -75 -21 2 -44 -2 -52 -9 -13 -10 -12 -14 2 -30 10 -11 23 -19 31
-19 27 0 12 -40 -36 -98 -27 -33 -61 -69 -75 -80 -14 -11 -26 -25 -26 -31 0
-38 101 25 172 108 19 22 42 41 51 41 9 0 50 -22 90 -49 104 -70 233 -112 252
-81 5 9 -63 50 -84 50 -6 0 -43 21 -83 48 -158 105 -150 95 -121 152 9 19 18
55 21 82 6 64 -14 88 -74 88 -44 0 -94 -30 -171 -103 -30 -28 -63 -32 -63 -7
0 17 50 61 111 98 30 17 73 50 94 72 26 27 48 40 66 40 20 0 40 14 78 55 49
55 70 106 57 140 -14 37 -102 45 -181 16z"/>
<path d="M724 2037 c-16 -42 88 -197 132 -197 36 0 39 19 7 53 -16 18 -44 56
-63 85 -36 58 -67 82 -76 59z"/>
<path d="M2342 1755 c-29 -21 -103 -126 -141 -202 -36 -71 -55 -162 -41 -198
16 -43 90 -42 90 1 0 10 -7 13 -24 8 -13 -3 -26 -1 -30 4 -11 18 60 189 104
252 66 93 80 117 80 135 0 19 -10 19 -38 0z"/>
<path d="M2553 1675 c-12 -8 -39 -44 -62 -79 l-41 -65 -57 -3 c-77 -4 -77 -25
-1 -52 50 -18 64 -19 123 -9 57 10 73 17 114 56 26 24 57 48 69 51 17 6 22 15
22 42 0 38 -2 39 -32 23 -18 -10 -24 -7 -45 20 -27 34 -56 39 -90 16z"/>
<path d="M2683 1430 c-18 -27 -35 -60 -39 -74 -9 -39 18 -33 50 9 21 27 26 44
24 74 l-3 40 -32 -49z"/>
<path d="M2692 983 c-17 -41 -20 -59 -12 -67 19 -18 40 22 40 76 0 26 -1 48
-2 48 -2 0 -13 -25 -26 -57z"/>
<path d="M476 229 c-25 -37 -20 -49 20 -49 32 0 35 2 29 23 -4 12 -13 28 -20
35 -10 12 -15 10 -29 -9z"/>
</g>
</svg>
