<?xml version="1.0" standalone="no"?>
<!DOCTYPE svg PUBLIC "-//W3C//DTD SVG 20010904//EN"
 "http://www.w3.org/TR/2001/REC-SVG-20010904/DTD/svg10.dtd">
<svg version="1.0" xmlns="http://www.w3.org/2000/svg"
 width="229.000000pt" height="325.000000pt" viewBox="0 0 229.000000 325.000000"
 preserveAspectRatio="xMidYMid meet">
<metadata>
Created by potrace 1.16, written by Peter Selinger 2001-2019
</metadata>
<g transform="translate(0.000000,325.000000) scale(0.100000,-0.100000)"
fill="#000000" stroke="none">
<path d="M964 2435 c-37 -18 -63 -42 -97 -89 -83 -117 -113 -189 -172 -430
-63 -259 -75 -369 -81 -750 -4 -307 -3 -341 12 -357 10 -11 24 -19 33 -19 15
0 17 30 18 292 3 385 23 570 88 818 70 262 123 386 185 428 18 12 59 32 91 43
77 28 87 41 53 68 -35 28 -69 27 -130 -4z"/>
<path d="M2056 2315 c-157 -108 -277 -241 -335 -373 -41 -94 -41 -126 4 -168
19 -18 44 -36 55 -39 29 -9 25 -32 -13 -79 -79 -97 -148 -243 -206 -429 -15
-49 -34 -93 -42 -98 -42 -26 -207 3 -355 64 -119 49 -129 61 -94 109 11 16 27
48 35 71 8 23 22 67 33 97 28 81 35 143 22 205 -12 59 -23 69 -81 80 -79 15
-184 -78 -250 -223 -23 -48 -50 -105 -60 -128 -10 -23 -19 -56 -19 -74 0 -17
-9 -43 -20 -57 -30 -39 -27 -54 10 -41 38 13 179 -17 187 -40 4 -8 -1 -26 -9
-41 -9 -14 -30 -53 -48 -86 -18 -33 -41 -72 -51 -87 -24 -33 -24 -38 -1 -38
24 0 47 26 117 135 33 50 62 94 66 98 4 5 44 -9 90 -31 77 -37 108 -47 249
-82 25 -6 74 -9 110 -8 l65 3 8 -105 c5 -69 4 -120 -3 -148 -13 -51 -4 -67 47
-89 55 -22 134 -16 259 22 63 19 136 35 162 35 26 0 64 3 85 6 35 6 37 8 37
46 l0 39 -47 -6 c-27 -3 -68 -8 -93 -11 -25 -3 -81 -15 -125 -26 -148 -36
-163 -39 -202 -36 -35 3 -38 5 -36 31 2 31 91 135 168 197 176 141 297 237
316 250 13 10 20 23 17 38 -3 21 -8 19 -88 -35 -178 -120 -326 -236 -384 -300
-58 -65 -70 -59 -62 32 4 42 9 82 12 90 5 12 38 36 107 79 28 17 36 36 14 36
-7 0 -29 -9 -50 -19 -20 -10 -39 -15 -42 -11 -3 4 4 34 15 66 11 33 20 65 20
73 0 26 98 218 146 288 63 91 94 123 119 123 22 0 99 27 158 55 36 18 37 20
37 73 l0 53 -31 -23 c-59 -44 -84 -58 -106 -58 -27 0 -28 8 -7 38 32 46 2 35
-46 -17 -43 -47 -52 -53 -77 -47 -51 12 -78 40 -77 78 1 42 78 172 137 234 54
55 178 154 195 154 8 0 12 16 12 45 0 25 -1 45 -2 44 -2 -1 -25 -16 -52 -34z
m-974 -660 c9 -35 -16 -143 -65 -285 l-34 -95 -34 1 c-50 2 -151 22 -161 32
-5 5 19 66 59 143 80 158 151 243 199 237 21 -2 30 -10 36 -33z"/>
<path d="M2050 1384 c-25 -7 -67 -16 -93 -19 -48 -6 -70 -26 -50 -46 5 -5 36
-12 68 -15 52 -6 65 -3 97 17 28 18 37 31 38 52 0 30 1 30 -60 11z"/>
<path d="M343 428 c-11 -13 -39 -51 -62 -85 -23 -35 -55 -70 -71 -78 -25 -13
-30 -22 -30 -50 0 -34 1 -35 39 -35 22 0 44 6 51 15 7 8 17 15 23 15 6 0 18 6
26 14 9 7 27 17 40 21 22 7 23 5 19 -29 -4 -37 -4 -37 31 -34 l36 3 8 63 c9
61 8 65 -17 91 l-26 27 22 22 c21 21 21 22 3 42 -24 27 -66 26 -92 -2z"/>
<path d="M1816 381 c-36 -37 -38 -42 -43 -120 l-6 -81 41 0 40 0 7 72 c4 40
14 82 22 95 18 27 14 67 -7 71 -9 1 -33 -15 -54 -37z"/>
</g>
</svg>
