<?xml version="1.0" standalone="no"?>
<!DOCTYPE svg PUBLIC "-//W3C//DTD SVG 20010904//EN"
 "http://www.w3.org/TR/2001/REC-SVG-20010904/DTD/svg10.dtd">
<svg version="1.0" xmlns="http://www.w3.org/2000/svg"
 width="261.000000pt" height="403.000000pt" viewBox="0 0 261.000000 403.000000"
 preserveAspectRatio="xMidYMid meet">
<metadata>
Created by potrace 1.16, written by Peter Selinger 2001-2019
</metadata>
<g transform="translate(0.000000,403.000000) scale(0.100000,-0.100000)"
fill="#000000" stroke="none">
<path d="M382 3838 c7 -19 41 -21 79 -4 l34 14 -58 1 c-43 1 -58 -2 -55 -11z"/>
<path d="M554 3823 c8 -15 24 -64 36 -108 28 -103 100 -316 113 -332 14 -19
57 -16 64 3 3 9 -2 38 -12 63 -38 98 -77 210 -103 301 l-28 95 -42 3 -42 3 14
-28z"/>
<path d="M180 3769 c0 -50 14 -110 38 -169 6 -14 13 -37 16 -52 3 -14 18 -40
32 -57 21 -25 34 -31 64 -31 21 0 42 4 45 10 3 5 -11 27 -33 47 -27 27 -48 63
-71 123 -49 128 -63 159 -78 171 -11 9 -13 2 -13 -42z"/>
<path d="M1149 3178 c-8 -13 -37 -70 -64 -128 -27 -58 -56 -116 -66 -130 -9
-14 -48 -86 -87 -160 -38 -74 -87 -164 -108 -200 -138 -239 -374 -729 -473
-983 -41 -103 -101 -303 -101 -333 0 -17 9 -28 26 -36 22 -11 28 -10 40 7 8
10 14 28 14 39 1 12 8 39 16 61 8 22 24 74 34 116 11 42 27 94 36 115 9 22 28
66 42 99 33 78 62 141 166 362 47 100 86 184 86 187 0 6 92 191 150 301 56
106 200 393 200 399 0 2 27 61 60 131 33 69 61 136 63 147 3 29 -18 33 -34 6z"/>
<path d="M1622 2778 c-21 -21 -14 -39 12 -32 13 3 26 1 30 -4 11 -18 -60 -189
-104 -252 -66 -93 -80 -117 -80 -135 0 -68 150 118 203 253 10 24 18 68 20 98
2 45 -2 58 -17 70 -24 17 -48 18 -64 2z"/>
<path d="M1154 2729 c-21 -28 -55 -70 -75 -92 -50 -58 -69 -98 -72 -154 l-2
-48 42 -3 c30 -2 56 4 94 23 l52 27 24 -31 c44 -56 85 -39 149 59 l44 69 58 3
c76 4 76 25 0 52 -51 18 -63 19 -124 9 -57 -10 -73 -18 -108 -51 -59 -57 -136
-92 -136 -62 0 21 30 80 69 138 73 108 61 160 -15 61z"/>
<path d="M2225 2670 c-5 -9 63 -50 84 -50 6 0 35 -16 66 -35 l55 -36 0 34 c0
42 -8 49 -85 76 -64 23 -110 27 -120 11z"/>
<path d="M1310 2244 c-56 -37 -120 -110 -151 -170 -28 -57 -30 -67 -20 -93 36
-86 134 -115 227 -68 69 35 144 117 144 157 0 48 -26 80 -66 80 -42 0 -48 11
-27 48 14 25 15 32 4 46 -18 21 -79 21 -111 0z m15 -74 c4 -6 -7 -31 -24 -57
-53 -80 -33 -125 21 -47 60 84 57 82 64 57 4 -14 14 -23 25 -23 30 0 34 -28
10 -77 -23 -47 -79 -82 -133 -83 -28 0 -88 43 -88 63 0 17 48 105 78 145 26
34 37 39 47 22z"/>
<path d="M1686 2030 c-49 -22 -96 -46 -105 -53 -9 -8 -54 -35 -101 -62 -47
-26 -102 -63 -123 -81 -20 -19 -44 -34 -52 -34 -9 0 -41 -19 -72 -42 -31 -24
-66 -50 -78 -58 -78 -52 -100 -80 -75 -95 9 -5 142 73 315 184 114 74 237 142
244 135 6 -6 -16 -26 -114 -104 -31 -25 -75 -61 -98 -81 -23 -19 -52 -42 -63
-50 -12 -8 -54 -44 -93 -82 -62 -59 -70 -70 -61 -87 20 -38 50 -26 225 93 31
22 59 36 63 32 7 -7 -24 -37 -152 -152 -69 -61 -70 -62 -51 -83 27 -30 45 -25
106 28 54 48 87 65 146 77 52 10 59 -3 21 -44 -43 -46 -88 -107 -88 -120 0 -5
-11 -23 -25 -39 -24 -29 -24 -29 -5 -47 19 -17 21 -17 62 30 24 27 53 67 64
90 35 67 70 118 103 149 38 36 40 63 5 78 -24 11 -34 9 -85 -19 -58 -32 -86
-29 -56 5 8 9 25 37 37 61 l22 45 -26 21 c-42 33 -53 19 149 201 39 34 84 74
100 88 34 28 28 43 -20 50 -21 4 -58 -7 -119 -34z"/>
<path d="M2408 2038 c-22 -44 -23 -81 -3 -98 23 -19 26 -9 23 66 l-3 69 -17
-37z"/>
<path d="M2421 1714 c0 -11 3 -14 6 -6 3 7 2 16 -1 19 -3 4 -6 -2 -5 -13z"/>
<path d="M2414 1359 c-3 -6 -1 -16 5 -22 8 -8 11 -5 11 11 0 24 -5 28 -16 11z"/>
</g>
</svg>
