<?xml version="1.0" standalone="no"?>
<!DOCTYPE svg PUBLIC "-//W3C//DTD SVG 20010904//EN"
 "http://www.w3.org/TR/2001/REC-SVG-20010904/DTD/svg10.dtd">
<svg version="1.0" xmlns="http://www.w3.org/2000/svg"
 width="227.000000pt" height="377.000000pt" viewBox="0 0 227.000000 377.000000"
 preserveAspectRatio="xMidYMid meet">
<metadata>
Created by potrace 1.16, written by Peter Selinger 2001-2019
</metadata>
<g transform="translate(0.000000,377.000000) scale(0.100000,-0.100000)"
fill="#000000" stroke="none">
<path d="M1270 2345 c-19 -7 -87 -26 -150 -40 -163 -38 -185 -47 -185 -78 0
-14 -12 -38 -27 -54 -34 -35 -51 -84 -67 -188 -7 -44 -17 -102 -21 -130 -5
-27 -12 -84 -16 -125 -3 -41 -12 -104 -19 -140 -15 -77 -12 -341 4 -383 23
-60 36 -25 42 119 6 135 34 362 64 514 7 41 17 100 20 130 4 30 16 85 27 123
22 75 48 103 107 113 48 8 192 57 264 89 43 19 58 30 55 43 -4 22 -52 26 -98
7z"/>
<path d="M1801 2302 c-27 -42 -36 -105 -36 -247 0 -82 3 -100 15 -100 10 0 15
11 16 35 0 19 13 90 28 158 22 95 25 126 16 137 -6 8 -9 23 -5 35 10 32 -8 23
-34 -18z"/>
<path d="M1135 2110 c-29 -30 -30 -36 -33 -132 l-4 -100 -33 -14 c-34 -14
-114 -83 -99 -85 5 -1 29 -2 54 -3 l45 -1 3 -49 c2 -27 -4 -94 -13 -149 -13
-72 -14 -102 -6 -110 8 -8 15 -7 25 3 15 17 48 133 67 234 17 91 41 118 126
146 71 23 108 44 160 93 25 23 30 34 22 44 -17 19 -25 17 -124 -32 -49 -25
-105 -48 -124 -52 l-34 -6 7 89 c3 49 7 102 8 118 4 40 -13 42 -47 6z"/>
<path d="M1757 1873 c-15 -14 -6 -44 22 -75 70 -81 85 -152 55 -256 -27 -91
-53 -118 -131 -132 -122 -23 -171 -100 -100 -154 19 -15 39 -26 44 -26 18 0
121 48 128 60 4 6 18 15 31 20 37 15 99 -13 178 -81 105 -90 106 -90 106 -29
0 27 -4 50 -10 50 -5 0 -31 19 -57 43 -27 23 -74 60 -106 81 -31 22 -57 44
-57 50 0 7 7 21 15 34 20 27 47 193 39 230 -8 34 -52 112 -63 112 -5 0 -20 18
-35 40 -25 38 -44 49 -59 33z"/>
<path d="M1354 1775 c-37 -57 12 -225 66 -225 24 0 24 7 4 77 -10 33 -13 68
-9 90 4 24 1 42 -10 59 -20 31 -30 30 -51 -1z"/>
<path d="M1472 1460 c-45 -37 -124 -57 -290 -74 -159 -15 -211 -28 -219 -53
-9 -26 73 -32 251 -20 147 11 240 48 291 117 36 49 14 69 -33 30z"/>
<path d="M181 1200 c1 -127 1 -133 15 -100 23 56 29 64 58 71 41 11 100 -16
142 -65 l36 -41 -7 -92 c-6 -92 2 -120 28 -94 16 16 36 99 37 153 0 62 -11 89
-58 136 -42 42 -129 74 -176 65 -24 -5 -28 0 -50 48 l-25 54 0 -135z"/>
</g>
</svg>
