<?xml version="1.0" standalone="no"?>
<!DOCTYPE svg PUBLIC "-//W3C//DTD SVG 20010904//EN"
 "http://www.w3.org/TR/2001/REC-SVG-20010904/DTD/svg10.dtd">
<svg version="1.0" xmlns="http://www.w3.org/2000/svg"
 width="314.000000pt" height="346.000000pt" viewBox="0 0 314.000000 346.000000"
 preserveAspectRatio="xMidYMid meet">
<metadata>
Created by potrace 1.16, written by Peter Selinger 2001-2019
</metadata>
<g transform="translate(0.000000,346.000000) scale(0.100000,-0.100000)"
fill="#000000" stroke="none">
<path d="M1470 2990 c-44 -16 -214 -60 -233 -60 -10 0 -34 -7 -54 -15 -19 -8
-71 -17 -115 -19 -44 -2 -84 -8 -90 -14 -16 -16 1 -33 27 -26 12 3 36 -1 53
-10 28 -14 38 -14 112 0 45 8 90 19 99 24 26 14 212 61 261 66 58 6 90 -11
115 -61 33 -66 23 -363 -30 -900 -8 -88 -18 -167 -21 -175 -9 -24 -13 -290 -4
-290 12 0 36 81 58 200 34 175 35 184 37 225 1 22 10 128 20 235 10 112 18
297 19 435 1 231 0 242 -22 292 -36 78 -57 93 -138 98 -38 2 -80 0 -94 -5z"/>
<path d="M2905 2840 c-11 -5 -37 -9 -57 -9 -83 -2 -116 -42 -63 -77 24 -16 30
-16 88 1 34 9 68 19 75 21 6 2 12 19 12 39 0 37 -13 43 -55 25z"/>
<path d="M843 2628 c-4 -7 -11 -83 -14 -168 -8 -194 -40 -444 -90 -695 -16
-81 -16 -264 -1 -292 19 -35 32 -27 32 20 0 23 9 105 20 182 19 130 27 174 64
360 8 39 20 115 26 170 6 55 15 133 21 173 13 104 12 235 -3 250 -16 16 -45
15 -55 0z"/>
<path d="M1287 2570 c-9 -13 -25 -28 -37 -34 -13 -6 -29 -31 -39 -61 -18 -55
-39 -71 -113 -83 -34 -6 -43 -12 -43 -27 0 -16 8 -21 35 -23 50 -5 57 -16 35
-55 -33 -62 -22 -68 112 -61 65 4 122 10 126 14 5 4 4 17 -2 29 -10 18 -21 21
-81 21 -38 0 -71 4 -74 9 -3 5 0 24 8 42 11 25 37 49 103 91 102 65 132 93
116 109 -7 7 -27 -2 -63 -26 -63 -42 -80 -36 -62 22 14 44 1 64 -21 33z"/>
<path d="M1140 2027 c-13 -7 -39 -32 -57 -55 -27 -35 -33 -53 -33 -92 0 -43 4
-50 34 -74 44 -33 72 -35 60 -3 -4 12 -7 49 -6 82 1 48 5 63 23 78 49 40 92
15 141 -83 22 -46 32 -80 32 -115 l1 -50 -71 2 c-40 1 -88 9 -107 17 -32 13
-37 13 -49 -1 -11 -13 -10 -18 6 -27 10 -6 34 -23 53 -38 22 -17 48 -28 67
-28 17 0 48 -3 68 -6 32 -6 41 -2 69 25 30 31 31 35 25 88 -8 65 -65 195 -104
236 -51 54 -102 69 -152 44z"/>
<path d="M2864 1529 c-10 -16 6 -26 54 -34 40 -6 42 -6 42 19 0 24 -3 26 -44
26 -25 0 -48 -5 -52 -11z"/>
</g>
</svg>
