<?xml version="1.0" standalone="no"?>
<!DOCTYPE svg PUBLIC "-//W3C//DTD SVG 20010904//EN"
 "http://www.w3.org/TR/2001/REC-SVG-20010904/DTD/svg10.dtd">
<svg version="1.0" xmlns="http://www.w3.org/2000/svg"
 width="292.000000pt" height="342.000000pt" viewBox="0 0 292.000000 342.000000"
 preserveAspectRatio="xMidYMid meet">
<metadata>
Created by potrace 1.16, written by Peter Selinger 2001-2019
</metadata>
<g transform="translate(0.000000,342.000000) scale(0.100000,-0.100000)"
fill="#000000" stroke="none">
<path d="M1194 2350 c-60 -30 -149 -136 -190 -227 -47 -103 -69 -202 -93 -423
-21 -189 -39 -271 -86 -395 -33 -86 -55 -167 -48 -178 7 -11 33 12 33 30 0 8
20 61 45 118 64 153 92 248 105 365 26 239 41 329 65 397 48 137 145 251 203
238 23 -5 32 0 50 24 27 37 27 47 3 61 -28 14 -40 13 -87 -10z"/>
<path d="M180 2285 c0 -22 4 -34 10 -30 6 3 10 17 10 30 0 13 -4 27 -10 30 -6
4 -10 -8 -10 -30z"/>
<path d="M2708 2149 c-10 -5 -18 -19 -18 -30 0 -34 44 -21 48 14 4 29 -3 32
-30 16z"/>
<path d="M2414 1986 c-3 -8 1 -25 9 -38 8 -13 20 -45 26 -72 l12 -49 -62 -90
c-46 -67 -62 -100 -63 -126 -2 -57 26 -52 55 11 13 29 40 73 59 98 51 67 110
179 98 186 -5 3 -15 1 -21 -5 -6 -6 -14 -11 -18 -11 -9 0 -27 48 -31 80 -2 19
-10 26 -31 28 -17 2 -29 -2 -33 -12z"/>
<path d="M2724 1889 c-3 -6 -1 -16 5 -22 8 -8 11 -5 11 11 0 24 -5 28 -16 11z"/>
<path d="M1569 1846 c-3 -3 -74 -7 -157 -9 -92 -2 -157 -8 -164 -15 -6 -6 -8
-21 -5 -34 6 -23 9 -24 94 -22 132 4 367 47 360 67 -4 12 -118 23 -128 13z"/>
<path d="M180 1627 c0 -14 11 -32 29 -44 33 -25 101 -143 101 -177 0 -28 -16
-43 -50 -48 -37 -5 -21 -23 20 -22 43 1 88 29 96 60 9 37 -59 166 -113 214
-52 46 -83 52 -83 17z"/>
<path d="M2733 1445 c0 -38 2 -53 4 -32 2 20 2 52 0 70 -2 17 -4 1 -4 -38z"/>
<path d="M1531 1474 c-36 -17 -51 -28 -44 -35 6 -6 19 -6 37 1 42 16 106 13
113 -5 8 -23 -66 -123 -129 -173 -66 -52 -113 -63 -148 -34 -24 19 -24 20 -13
103 6 46 8 88 4 92 -11 11 -71 -117 -71 -149 0 -66 53 -124 114 -124 104 0
286 178 286 279 0 34 -40 72 -74 70 -11 0 -45 -12 -75 -25z"/>
</g>
</svg>
