<?xml version="1.0" standalone="no"?>
<!DOCTYPE svg PUBLIC "-//W3C//DTD SVG 20010904//EN"
 "http://www.w3.org/TR/2001/REC-SVG-20010904/DTD/svg10.dtd">
<svg version="1.0" xmlns="http://www.w3.org/2000/svg"
 width="198.000000pt" height="315.000000pt" viewBox="0 0 198.000000 315.000000"
 preserveAspectRatio="xMidYMid meet">
<metadata>
Created by potrace 1.16, written by Peter Selinger 2001-2019
</metadata>
<g transform="translate(0.000000,315.000000) scale(0.100000,-0.100000)"
fill="#000000" stroke="none">
<path d="M710 2183 c-31 -32 -73 -87 -94 -123 -22 -36 -49 -76 -61 -90 -36
-40 -117 -191 -111 -206 3 -8 12 -14 21 -14 17 0 113 28 203 59 57 20 73 13
48 -22 -9 -12 -27 -38 -40 -57 -13 -19 -86 -105 -162 -191 -77 -86 -147 -170
-157 -187 -27 -48 -3 -48 35 0 18 24 83 92 143 153 200 200 285 307 285 357 0
34 -45 41 -124 18 -138 -41 -167 -47 -172 -39 -16 26 187 272 243 296 30 12
32 16 31 58 -3 61 -19 58 -88 -12z"/>
<path d="M1786 2033 c-4 -27 -10 -96 -15 -154 -5 -63 -16 -119 -26 -138 -15
-30 -15 -35 0 -57 36 -56 43 -30 51 209 7 180 2 238 -10 140z"/>
<path d="M1696 1798 c-13 -21 -51 -145 -63 -208 -3 -14 -16 -65 -29 -115 -42
-164 -59 -386 -32 -413 18 -18 45 -14 62 10 17 24 12 42 -10 34 -7 -3 -15 -2
-17 2 -5 9 28 281 42 342 17 80 38 163 60 242 11 43 21 86 21 97 0 30 -17 34
-34 9z"/>
<path d="M1792 1640 c0 -14 2 -19 5 -12 2 6 2 18 0 25 -3 6 -5 1 -5 -13z"/>
<path d="M729 1495 c-53 -40 -69 -82 -69 -180 0 -49 4 -60 29 -86 35 -34 66
-37 120 -10 42 22 55 36 65 69 10 32 -14 28 -49 -8 -37 -38 -76 -40 -104 -4
-23 29 -28 83 -11 114 19 36 96 80 139 80 23 0 41 4 41 10 0 9 -84 50 -104 50
-6 0 -32 -16 -57 -35z"/>
<path d="M497 1328 c10 -213 35 -303 94 -333 37 -20 83 -16 87 7 2 11 -6 18
-28 23 -37 8 -61 42 -70 98 -31 184 -59 287 -79 287 -4 0 -6 -37 -4 -82z"/>
</g>
</svg>
