<?xml version="1.0" standalone="no"?>
<!DOCTYPE svg PUBLIC "-//W3C//DTD SVG 20010904//EN"
 "http://www.w3.org/TR/2001/REC-SVG-20010904/DTD/svg10.dtd">
<svg version="1.0" xmlns="http://www.w3.org/2000/svg"
 width="276.000000pt" height="378.000000pt" viewBox="0 0 276.000000 378.000000"
 preserveAspectRatio="xMidYMid meet">
<metadata>
Created by potrace 1.16, written by Peter Selinger 2001-2019
</metadata>
<g transform="translate(0.000000,378.000000) scale(0.100000,-0.100000)"
fill="#000000" stroke="none">
<path d="M180 3586 c0 -18 66 -25 305 -31 105 -3 255 -10 335 -15 80 -5 199
-12 265 -15 220 -11 600 -35 623 -40 12 -3 93 -10 180 -16 326 -20 608 -41
650 -46 l42 -5 0 34 0 35 -112 11 c-62 6 -151 14 -198 17 -47 3 -213 14 -370
25 -784 55 -902 60 -1312 60 -339 0 -408 -2 -408 -14z"/>
<path d="M1118 2659 c-21 -11 -38 -25 -38 -31 0 -6 -14 -29 -30 -52 -112 -152
-162 -240 -164 -290 -2 -57 17 -55 56 6 19 29 46 71 60 93 58 91 151 185 184
185 6 0 14 -9 17 -20 3 -10 22 -27 43 -36 65 -28 217 -103 256 -127 29 -17 40
-19 49 -10 9 9 2 25 -35 67 -53 62 -124 101 -238 131 -38 10 -68 20 -68 23 0
3 7 13 16 23 14 15 12 18 -19 38 -41 25 -42 25 -89 0z"/>
<path d="M1926 2557 c-11 -8 -17 -23 -14 -37 2 -19 11 -26 38 -32 19 -4 64
-14 100 -23 74 -17 277 -22 292 -7 24 24 -73 52 -282 83 -41 6 -82 15 -92 20
-21 11 -21 11 -42 -4z"/>
<path d="M422 2448 c-7 -7 -12 -16 -12 -21 0 -5 -11 -22 -25 -39 -14 -16 -25
-42 -25 -58 0 -69 -34 -193 -130 -473 -44 -131 -46 -137 -27 -137 14 0 77 112
77 135 0 7 7 18 15 25 8 7 15 20 15 29 0 9 6 23 12 29 10 10 16 8 29 -10 15
-19 19 -20 33 -8 23 18 39 1 34 -36 -3 -25 -8 -30 -43 -34 -52 -7 -65 -16 -65
-44 0 -37 23 -49 78 -41 l50 7 5 -94 c4 -87 53 -417 63 -427 2 -2 7 -1 12 3
10 11 6 278 -6 351 -7 42 -7 81 1 130 l12 70 51 16 c83 27 154 78 154 111 0
24 -7 23 -97 -16 -108 -47 -119 -48 -116 -12 3 43 23 57 92 65 71 8 91 22 71
46 -11 13 -30 16 -99 14 l-86 -3 -3 54 c-6 130 -5 258 2 293 8 32 5 41 -14 62
-26 28 -40 31 -58 13z m-2 -358 l0 -70 -30 0 c-16 0 -30 4 -30 8 0 21 43 132
51 132 5 0 9 -31 9 -70z"/>
<path d="M1375 2370 c-87 -40 -163 -65 -310 -100 -71 -18 -138 -36 -147 -41
-22 -12 -23 -42 -3 -59 15 -12 34 -9 170 30 17 5 66 19 110 31 139 38 290 126
270 158 -9 16 -22 13 -90 -19z"/>
<path d="M1672 2355 c-49 -62 -60 -322 -22 -503 14 -70 8 -288 -9 -305 -5 -5
-20 -1 -38 12 -49 36 -79 37 -111 4 -34 -34 -77 -152 -67 -185 15 -47 80 -98
126 -98 21 0 76 51 110 101 l16 23 36 -29 c97 -81 130 -97 242 -122 125 -27
583 -14 620 19 26 23 -25 29 -296 32 -298 3 -334 8 -431 55 -24 11 -67 45 -97
75 l-54 55 18 63 c39 141 25 334 -30 399 -31 38 -31 63 -1 181 14 51 28 116
32 143 3 28 11 56 16 62 15 18 2 43 -21 43 -11 0 -28 -11 -39 -25z m-85 -867
c13 -12 23 -30 23 -40 0 -27 -41 -78 -62 -78 -36 0 -48 89 -17 127 16 18 29
16 56 -9z"/>
<path d="M1907 2253 c-4 -3 -7 -14 -7 -23 0 -37 25 -43 181 -43 84 0 152 -4
155 -9 7 -12 -55 -78 -72 -78 -7 0 -25 -17 -41 -37 -15 -21 -50 -65 -78 -98
-65 -76 -115 -159 -122 -200 -4 -26 0 -36 23 -54 36 -28 72 -23 167 23 37 18
70 30 72 25 3 -4 0 -40 -6 -80 -8 -53 -8 -78 0 -96 14 -31 43 -27 47 7 1 14
14 66 28 115 34 118 34 152 1 167 -21 9 -29 8 -48 -9 -32 -30 -160 -103 -179
-103 -26 0 -30 17 -12 52 22 43 80 127 105 152 30 30 99 123 99 132 0 4 23 28
52 54 82 73 68 83 -145 100 -133 11 -211 12 -220 3z"/>
<path d="M1323 2190 c-33 -21 -65 -51 -71 -65 -15 -31 -67 -55 -122 -55 -51 0
-84 -17 -133 -68 -35 -36 -37 -42 -26 -60 12 -19 10 -24 -11 -47 l-23 -25 23
-25 c43 -46 150 -28 218 37 30 30 32 37 32 98 0 57 3 70 23 88 13 12 33 22 45
22 11 0 23 4 26 9 3 5 18 12 33 16 16 3 38 16 51 28 21 20 23 20 40 4 15 -16
17 -38 16 -180 -2 -183 -10 -223 -42 -220 -16 2 -22 -3 -22 -17 0 -34 75 -56
98 -27 20 24 44 153 47 258 4 146 -6 196 -50 237 -47 43 -78 42 -152 -8z
m-166 -207 c10 -30 -99 -112 -133 -99 -25 10 -15 44 21 73 47 38 104 51 112
26z"/>
<path d="M1255 2010 c-16 -25 -16 -126 -2 -250 9 -74 18 -218 21 -320 2 -102
10 -207 16 -233 12 -47 33 -69 49 -51 7 8 4 226 -11 740 -3 95 -15 124 -49
124 -10 0 -21 -5 -24 -10z"/>
<path d="M537 1223 l-357 -3 0 -39 c0 -22 5 -41 13 -43 25 -8 593 11 662 23
78 13 128 34 122 52 -4 14 18 14 -440 10z"/>
</g>
</svg>
