<?xml version="1.0" standalone="no"?>
<!DOCTYPE svg PUBLIC "-//W3C//DTD SVG 20010904//EN"
 "http://www.w3.org/TR/2001/REC-SVG-20010904/DTD/svg10.dtd">
<svg version="1.0" xmlns="http://www.w3.org/2000/svg"
 width="207.000000pt" height="251.000000pt" viewBox="0 0 207.000000 251.000000"
 preserveAspectRatio="xMidYMid meet">
<metadata>
Created by potrace 1.16, written by Peter Selinger 2001-2019
</metadata>
<g transform="translate(0.000000,251.000000) scale(0.100000,-0.100000)"
fill="#000000" stroke="none">
<path d="M440 1350 c-6 -10 -13 -39 -16 -62 -5 -35 -2 -48 15 -68 l21 -25 6
23 c4 13 12 21 18 19 7 -2 11 -37 12 -95 l1 -91 -36 -28 c-20 -16 -49 -34 -65
-41 -27 -12 -32 -11 -54 11 -31 32 -23 62 24 84 35 17 43 40 22 61 -16 16 -53
15 -87 -3 -34 -17 -41 -33 -41 -90 0 -37 5 -47 35 -74 20 -17 40 -31 46 -31 6
0 8 -11 4 -28 -4 -21 3 -44 25 -88 17 -32 37 -65 45 -73 16 -17 43 -8 51 16
30 90 51 127 86 149 48 30 56 61 29 111 -16 30 -21 60 -23 149 -3 101 -6 114
-31 152 -31 47 -68 57 -87 22z m7 -416 c10 -26 -14 -41 -35 -21 -15 16 -15 19
-2 27 21 14 30 12 37 -6z"/>
<path d="M965 1304 c-143 -49 -270 -115 -270 -141 0 -14 7 -18 35 -16 68 5 79
8 102 29 13 12 61 38 107 58 135 57 165 47 107 -37 -93 -136 -107 -154 -131
-177 l-25 -24 -28 34 c-36 42 -52 33 -52 -28 0 -63 -12 -102 -51 -162 -71
-109 -57 1 22 178 20 45 26 112 9 112 -14 0 -60 -83 -85 -158 -50 -145 -70
-251 -69 -372 0 -108 2 -119 33 -182 40 -84 76 -121 146 -147 70 -26 88 -26
142 0 74 36 158 165 139 214 -10 27 -31 11 -34 -25 -6 -63 -105 -150 -170
-150 -39 0 -98 29 -128 62 -50 54 -66 105 -71 228 -6 121 1 146 33 119 22 -18
47 10 97 106 30 57 70 110 139 184 99 105 178 222 178 260 0 32 -35 61 -72 60
-18 0 -64 -11 -103 -25z"/>
</g>
</svg>
