<?xml version="1.0" standalone="no"?>
<!DOCTYPE svg PUBLIC "-//W3C//DTD SVG 20010904//EN"
 "http://www.w3.org/TR/2001/REC-SVG-20010904/DTD/svg10.dtd">
<svg version="1.0" xmlns="http://www.w3.org/2000/svg"
 width="225.000000pt" height="364.000000pt" viewBox="0 0 225.000000 364.000000"
 preserveAspectRatio="xMidYMid meet">
<metadata>
Created by potrace 1.16, written by Peter Selinger 2001-2019
</metadata>
<g transform="translate(0.000000,364.000000) scale(0.100000,-0.100000)"
fill="#000000" stroke="none">
<path d="M1048 3153 c-6 -15 -18 -35 -26 -44 -7 -9 -41 -77 -76 -151 -34 -74
-78 -161 -98 -194 -180 -299 -258 -447 -258 -487 0 -39 27 -34 45 9 8 20 26
49 40 66 14 16 25 35 25 43 0 7 7 18 15 25 9 7 32 40 51 74 80 136 141 230
157 240 28 18 111 -36 258 -169 88 -79 146 -125 157 -125 6 0 24 -16 40 -36
32 -39 52 -38 52 1 0 27 -53 85 -135 148 -28 21 -75 62 -105 91 -95 92 -194
160 -223 154 -7 -2 -14 -1 -17 2 -2 3 31 74 74 158 58 114 76 161 74 185 -4
43 -33 49 -50 10z"/>
<path d="M2050 2859 c-11 -40 -6 -89 11 -119 5 -9 9 19 9 73 0 48 -2 87 -5 87
-2 0 -9 -18 -15 -41z"/>
<path d="M2040 2522 c-14 -10 -71 -51 -128 -91 -113 -81 -133 -104 -108 -129
14 -14 27 -13 141 14 l125 29 0 33 c0 35 -10 39 -54 22 -44 -16 -39 7 8 42 37
27 45 39 46 66 0 17 -1 32 -2 32 -2 0 -14 -9 -28 -18z"/>
<path d="M1150 2466 c-19 -7 -69 -26 -110 -41 -76 -27 -224 -98 -248 -118 -17
-13 -12 -57 8 -69 11 -7 35 4 91 41 42 27 100 58 130 69 30 10 82 30 116 42
54 21 66 22 87 11 29 -16 46 -8 46 23 0 50 -51 68 -120 42z"/>
<path d="M1991 2184 c-33 -27 -48 -69 -76 -204 -9 -41 -22 -80 -31 -86 -8 -7
-34 -15 -57 -18 -53 -8 -171 -68 -175 -89 -2 -9 7 -23 20 -31 22 -14 29 -13
87 10 34 14 74 26 89 27 l26 2 0 -200 c1 -183 3 -204 23 -247 24 -53 67 -88
86 -69 9 9 9 16 -1 29 -43 59 -47 82 -46 262 1 172 1 177 28 222 19 33 38 51
66 62 36 14 40 19 40 51 0 39 -6 41 -55 21 -20 -9 -37 -11 -40 -6 -9 15 44
202 66 232 41 58 6 80 -50 32z"/>
<path d="M1153 1891 c-80 -58 -153 -233 -132 -318 21 -81 37 -64 70 74 41 174
108 242 123 126 10 -74 -10 -308 -35 -407 -21 -80 -21 -91 -8 -115 27 -48 41
-33 59 64 64 340 70 469 26 554 -14 26 -43 51 -59 51 -2 0 -22 -13 -44 -29z"/>
<path d="M940 1700 c0 -16 5 -30 10 -30 6 0 10 14 10 30 0 17 -4 30 -10 30 -5
0 -10 -13 -10 -30z"/>
<path d="M928 1623 c-6 -16 -13 -68 -16 -117 -7 -150 28 -256 83 -256 27 0 45
26 45 64 0 28 -9 33 -28 14 -28 -28 -37 10 -38 157 -1 79 -5 148 -9 154 -11
19 -25 12 -37 -16z"/>
<path d="M180 1427 c0 -48 -20 -29 221 -207 67 -49 109 -67 128 -55 19 11 -5
42 -62 79 -28 20 -86 65 -127 101 -41 37 -94 80 -117 96 l-43 30 0 -44z"/>
<path d="M1305 1211 c-74 -6 -80 -8 -83 -29 -6 -38 25 -63 67 -56 45 8 81 26
105 52 16 19 15 45 -2 40 -4 -1 -43 -4 -87 -7z"/>
</g>
</svg>
