<?xml version="1.0" standalone="no"?>
<!DOCTYPE svg PUBLIC "-//W3C//DTD SVG 20010904//EN"
 "http://www.w3.org/TR/2001/REC-SVG-20010904/DTD/svg10.dtd">
<svg version="1.0" xmlns="http://www.w3.org/2000/svg"
 width="226.000000pt" height="315.000000pt" viewBox="0 0 226.000000 315.000000"
 preserveAspectRatio="xMidYMid meet">
<metadata>
Created by potrace 1.16, written by Peter Selinger 2001-2019
</metadata>
<g transform="translate(0.000000,315.000000) scale(0.100000,-0.100000)"
fill="#000000" stroke="none">
<path d="M2072 2450 c0 -14 2 -19 5 -12 2 6 2 18 0 25 -3 6 -5 1 -5 -13z"/>
<path d="M987 2373 c-14 -16 -31 -49 -37 -76 -13 -62 -57 -186 -70 -202 -6 -7
-33 -15 -62 -18 -32 -4 -66 -16 -87 -32 -34 -24 -36 -24 -39 -6 -4 24 41 121
75 161 34 41 26 61 -23 50 -20 -5 -42 -14 -49 -22 -7 -7 -30 -69 -51 -138 -29
-94 -39 -142 -39 -195 0 -63 2 -70 19 -70 15 0 23 12 32 49 17 64 63 112 131
133 69 22 78 13 57 -56 -16 -55 -16 -136 1 -136 5 0 12 14 16 30 32 131 43
167 58 174 9 5 70 16 136 25 134 17 209 36 203 51 -3 11 -49 12 -208 5 l-105
-5 2 25 c2 14 28 76 59 138 31 61 54 119 50 127 -9 23 -40 18 -69 -12z"/>
<path d="M2030 1784 c-62 -66 -112 -141 -108 -161 6 -30 26 -25 54 14 15 21
45 56 67 79 33 35 38 47 35 79 l-3 38 -45 -49z"/>
<path d="M998 1712 c-79 -43 -89 -46 -109 -33 -20 12 -24 11 -36 -5 -17 -24
-13 -36 20 -52 21 -10 35 -10 69 -1 24 7 48 16 55 21 33 25 16 -46 -22 -92
-25 -31 -75 -132 -90 -185 -12 -41 -13 -59 -5 -75 12 -23 15 -24 41 -10 13 8
25 7 39 0 13 -7 20 -7 20 -1 0 6 -13 17 -29 26 -17 8 -33 20 -36 25 -7 12 91
193 136 250 40 53 91 151 85 167 -9 23 -49 14 -138 -35z"/>
<path d="M994 1236 c-12 -32 7 -88 46 -130 36 -38 42 -41 90 -39 58 1 103 30
151 96 27 37 39 87 22 87 -4 0 -33 -27 -65 -60 -52 -55 -60 -60 -99 -60 -35 0
-47 6 -75 36 -19 19 -34 41 -34 48 0 8 -7 19 -15 26 -12 10 -16 9 -21 -4z"/>
</g>
</svg>
