<?xml version="1.0" standalone="no"?>
<!DOCTYPE svg PUBLIC "-//W3C//DTD SVG 20010904//EN"
 "http://www.w3.org/TR/2001/REC-SVG-20010904/DTD/svg10.dtd">
<svg version="1.0" xmlns="http://www.w3.org/2000/svg"
 width="262.000000pt" height="332.000000pt" viewBox="0 0 262.000000 332.000000"
 preserveAspectRatio="xMidYMid meet">
<metadata>
Created by potrace 1.16, written by Peter Selinger 2001-2019
</metadata>
<g transform="translate(0.000000,332.000000) scale(0.100000,-0.100000)"
fill="#000000" stroke="none">
<path d="M1054 2401 c-18 -11 -44 -36 -59 -55 -24 -32 -26 -40 -17 -61 7 -14
16 -25 21 -25 5 0 30 20 55 45 47 46 72 55 94 33 19 -19 14 -62 -13 -124 -37
-84 -41 -87 -76 -62 -25 19 -31 20 -46 7 -10 -8 -36 -15 -57 -15 -37 1 -40 4
-49 36 -10 41 -24 60 -43 60 -24 0 -33 -33 -23 -82 12 -53 25 -68 72 -77 25
-5 33 -12 35 -34 2 -15 12 -32 23 -37 16 -9 31 -1 91 44 112 85 156 150 165
248 5 53 4 59 -25 87 -25 25 -39 31 -74 31 -25 0 -56 -8 -74 -19z"/>
<path d="M1273 1859 c-51 -15 -113 -92 -137 -171 -9 -29 -36 -20 -51 16 -18
43 -35 54 -47 32 -8 -15 -13 -13 -39 15 -27 29 -33 31 -77 26 -104 -14 -212
-68 -212 -107 0 -12 -9 -38 -20 -60 -12 -24 -16 -41 -10 -45 6 -3 13 2 17 12
8 25 44 63 58 63 7 0 23 8 36 19 13 10 50 27 82 37 95 30 114 -4 62 -107 -18
-35 -32 -49 -52 -53 -16 -4 -41 -23 -57 -42 -24 -31 -27 -39 -17 -60 21 -46
41 -42 98 20 62 66 97 119 107 159 9 39 28 29 45 -24 26 -85 40 -109 61 -109
24 0 32 19 49 115 17 97 54 163 110 192 29 15 48 20 54 14 6 -6 0 -49 -17
-119 -27 -113 -32 -162 -17 -162 15 0 58 92 71 153 8 32 17 60 22 63 16 10 8
61 -15 95 -25 37 -51 44 -104 28z"/>
<path d="M182 1720 c0 -14 2 -19 5 -12 2 6 2 18 0 25 -3 6 -5 1 -5 -13z"/>
<path d="M335 1660 c-33 -22 -63 -40 -68 -40 -4 0 -25 -11 -47 -25 -36 -23
-40 -29 -40 -67 l0 -42 43 41 c23 22 53 46 67 53 45 24 131 93 127 103 -7 21
-23 16 -82 -23z"/>
<path d="M593 1618 c-6 -7 -14 -42 -18 -78 -19 -175 13 -283 75 -250 24 13 25
18 6 39 -19 22 -43 217 -34 275 4 23 -15 32 -29 14z"/>
<path d="M1387 1453 c-5 -4 -47 -10 -95 -13 -77 -4 -87 -7 -87 -24 0 -28 65
-59 108 -51 46 9 139 63 134 78 -4 14 -49 21 -60 10z"/>
<path d="M2106 1272 c-3 -5 1 -15 9 -22 31 -26 74 -114 68 -142 -3 -15 -2 -36
2 -45 6 -16 8 -16 26 6 10 13 19 32 19 42 0 11 5 27 11 37 15 23 -10 85 -43
105 -30 20 -85 31 -92 19z"/>
</g>
</svg>
