<?xml version="1.0" standalone="no"?>
<!DOCTYPE svg PUBLIC "-//W3C//DTD SVG 20010904//EN"
 "http://www.w3.org/TR/2001/REC-SVG-20010904/DTD/svg10.dtd">
<svg version="1.0" xmlns="http://www.w3.org/2000/svg"
 width="202.000000pt" height="322.000000pt" viewBox="0 0 202.000000 322.000000"
 preserveAspectRatio="xMidYMid meet">
<metadata>
Created by potrace 1.16, written by Peter Selinger 2001-2019
</metadata>
<g transform="translate(0.000000,322.000000) scale(0.100000,-0.100000)"
fill="#000000" stroke="none">
<path d="M1430 2530 c0 -5 5 -10 10 -10 6 0 10 5 10 10 0 6 -4 10 -10 10 -5 0
-10 -4 -10 -10z"/>
<path d="M1502 2509 c2 -7 10 -15 17 -17 8 -3 12 1 9 9 -2 7 -10 15 -17 17 -8
3 -12 -1 -9 -9z"/>
<path d="M1099 2063 c-1 -4 -1 -46 0 -93 1 -47 -2 -116 -8 -155 -18 -123 -32
-283 -32 -371 -1 -100 -14 -105 -42 -20 -24 71 -84 139 -119 134 -57 -8 -72
-221 -25 -378 14 -50 30 -85 38 -85 23 0 29 56 15 130 -21 107 -28 208 -16
239 19 51 41 28 88 -89 53 -135 56 -140 73 -140 30 0 43 58 50 235 4 96 13
211 18 255 17 129 16 266 -3 303 -16 32 -35 49 -37 35z"/>
<path d="M180 1732 c0 -18 7 -30 22 -37 26 -12 41 -57 34 -102 -3 -24 -1 -33
10 -33 8 0 14 8 14 18 0 9 7 36 15 60 15 41 14 45 -6 73 -38 54 -89 67 -89 21z"/>
<path d="M1405 1550 c-11 -12 -15 -27 -11 -43 5 -22 2 -25 -35 -30 -49 -6 -89
-41 -115 -98 -17 -38 -17 -42 0 -95 13 -40 24 -57 42 -64 33 -13 82 -1 99 24
17 23 20 86 5 86 -5 0 -10 -8 -10 -19 0 -26 -24 -43 -57 -39 -26 3 -28 6 -27
49 1 82 56 133 116 108 45 -19 58 -7 58 54 0 40 -5 58 -18 70 -23 21 -25 21
-47 -3z"/>
<path d="M182 1420 c0 -14 2 -19 5 -12 2 6 2 18 0 25 -3 6 -5 1 -5 -13z"/>
<path d="M804 1025 c-18 -27 -17 -28 4 -46 18 -14 33 -17 75 -12 99 11 142 26
142 48 0 25 -40 30 -117 16 -43 -7 -56 -6 -70 6 -15 13 -18 12 -34 -12z"/>
</g>
</svg>
