<?xml version="1.0" standalone="no"?>
<!DOCTYPE svg PUBLIC "-//W3C//DTD SVG 20010904//EN"
 "http://www.w3.org/TR/2001/REC-SVG-20010904/DTD/svg10.dtd">
<svg version="1.0" xmlns="http://www.w3.org/2000/svg"
 width="248.000000pt" height="372.000000pt" viewBox="0 0 248.000000 372.000000"
 preserveAspectRatio="xMidYMid meet">
<metadata>
Created by potrace 1.16, written by Peter Selinger 2001-2019
</metadata>
<g transform="translate(0.000000,372.000000) scale(0.100000,-0.100000)"
fill="#000000" stroke="none">
<path d="M1038 3533 c6 -2 18 -2 25 0 6 3 1 5 -13 5 -14 0 -19 -2 -12 -5z"/>
<path d="M2292 2673 c-1 -6 -16 -33 -32 -60 -20 -32 -33 -69 -38 -108 l-7 -60
-105 -53 c-58 -29 -107 -57 -108 -63 -7 -18 20 -39 49 -39 18 0 47 14 75 35
61 47 77 43 85 -20 8 -66 16 -83 50 -101 22 -11 28 -20 25 -37 -14 -65 -16
-97 -8 -97 16 0 22 28 22 98 0 58 -3 69 -21 80 -20 13 -21 20 -17 83 4 44 11
76 22 88 17 19 22 77 7 83 -6 2 -6 21 0 50 6 25 8 66 6 90 -2 23 -4 38 -5 31z"/>
<path d="M245 2573 c-44 -11 -65 -43 -65 -102 l0 -56 68 68 c64 65 66 69 48
82 -11 8 -22 14 -25 14 -3 -1 -15 -3 -26 -6z"/>
<path d="M1019 2516 c-72 -16 -134 -52 -187 -110 -40 -44 -102 -163 -102 -195
1 -16 23 -51 32 -51 6 0 40 78 62 141 22 61 68 104 146 134 114 45 227 29 292
-41 27 -30 48 -76 99 -224 28 -79 28 -86 12 -97 -9 -7 -24 -13 -33 -13 -9 0
-55 -13 -103 -28 -48 -16 -90 -25 -93 -21 -3 5 5 22 17 38 21 29 23 61 3 68
-21 7 -62 -37 -78 -83 -22 -66 -57 -108 -121 -144 -31 -18 -69 -43 -85 -57
-27 -22 -29 -29 -24 -66 9 -58 20 -66 37 -25 18 43 21 45 71 49 l39 4 -2 -115
c-2 -140 13 -183 66 -188 30 -3 36 1 70 56 21 33 46 74 55 92 41 74 50 -13 18
-172 -13 -63 -17 -105 -12 -110 12 -12 18 -2 36 54 8 24 24 68 35 98 21 54 25
116 12 175 -4 20 -15 33 -34 39 -23 8 -31 6 -58 -20 -17 -16 -47 -55 -66 -86
-36 -59 -58 -72 -70 -41 -4 9 -2 72 4 140 12 131 31 180 83 221 34 26 228 105
244 99 21 -8 46 -261 66 -672 8 -158 14 -214 25 -224 12 -13 15 -12 21 3 6 16
-3 584 -11 716 -11 179 -56 365 -117 488 -33 65 -52 91 -90 119 -82 60 -150
73 -259 49z"/>
<path d="M1090 2158 c-46 -35 -116 -81 -155 -103 -49 -29 -70 -46 -70 -60 0
-60 129 3 246 121 57 58 80 87 73 94 -7 7 -36 -9 -94 -52z"/>
<path d="M735 2090 c-3 -5 -1 -10 4 -10 6 0 11 5 11 10 0 6 -2 10 -4 10 -3 0
-8 -4 -11 -10z"/>
<path d="M180 1949 c1 -140 1 -143 16 -104 8 22 18 78 21 125 5 78 4 87 -16
104 l-21 19 0 -144z"/>
<path d="M670 2025 c-13 -16 -11 -41 13 -150 19 -83 34 -212 47 -390 12 -161
39 -378 51 -396 11 -19 18 -8 20 32 4 82 -17 589 -27 672 -7 54 -48 219 -59
237 -9 15 -31 12 -45 -5z"/>
<path d="M2164 1868 c-13 -25 -15 -47 -10 -101 8 -83 25 -127 61 -155 33 -26
52 -19 32 11 -20 33 -37 125 -35 193 2 89 -18 111 -48 52z"/>
<path d="M181 1379 c1 -145 2 -155 14 -86 14 88 61 -3 59 -118 -1 -125 -11
-155 -50 -155 -20 0 -24 -5 -24 -31 0 -27 3 -30 23 -24 39 12 87 55 92 83 3
15 10 43 15 63 29 109 -24 311 -101 385 l-29 28 1 -145z"/>
<path d="M2212 1261 c-12 -62 -12 -72 4 -96 36 -56 84 -53 84 5 0 20 -5 27
-17 26 -17 -1 -26 22 -38 97 -3 20 -9 37 -13 37 -4 0 -13 -31 -20 -69z"/>
<path d="M1306 1089 c-55 -41 -129 -60 -238 -62 -88 -2 -93 -3 -96 -25 -3 -18
4 -26 34 -38 34 -14 45 -14 113 0 139 28 213 64 232 114 15 39 -2 43 -45 11z"/>
</g>
</svg>
