<?xml version="1.0" standalone="no"?>
<!DOCTYPE svg PUBLIC "-//W3C//DTD SVG 20010904//EN"
 "http://www.w3.org/TR/2001/REC-SVG-20010904/DTD/svg10.dtd">
<svg version="1.0" xmlns="http://www.w3.org/2000/svg"
 width="282.000000pt" height="376.000000pt" viewBox="0 0 282.000000 376.000000"
 preserveAspectRatio="xMidYMid meet">
<metadata>
Created by potrace 1.16, written by Peter Selinger 2001-2019
</metadata>
<g transform="translate(0.000000,376.000000) scale(0.100000,-0.100000)"
fill="#000000" stroke="none">
<path d="M1550 2835 c-128 -28 -203 -66 -220 -111 -16 -41 -2 -46 42 -13 57
41 130 60 240 62 88 2 93 3 96 25 3 18 -4 26 -32 37 -40 17 -50 17 -126 0z"/>
<path d="M2453 2824 c-46 -23 -64 -47 -77 -101 -38 -167 21 -371 129 -444 74
-51 135 -42 135 18 0 33 0 33 -43 27 -33 -5 -47 -2 -67 14 -24 20 -24 21 -5
27 11 3 40 16 65 29 41 21 45 27 47 62 1 21 0 33 -3 26 -9 -19 -105 -65 -116
-54 -5 5 5 64 27 148 41 161 43 201 14 238 -24 30 -58 33 -106 10z m69 -119
c-1 -38 -9 -90 -16 -115 -8 -25 -17 -62 -21 -82 -3 -22 -12 -38 -19 -38 -30 0
-49 140 -35 250 7 52 16 61 57 58 l37 -3 -3 -70z"/>
<path d="M1878 2693 c0 -16 -1 -35 0 -43 1 -8 4 -105 7 -215 11 -385 15 -434
51 -569 26 -101 36 -116 62 -100 21 14 21 62 -1 159 -19 83 -34 211 -47 395
-10 133 -36 348 -46 383 -8 26 -24 20 -26 -10z"/>
<path d="M369 2638 c-39 -54 -53 -88 -40 -101 6 -6 19 6 36 33 38 61 53 48 70
-62 3 -21 9 -38 13 -38 4 0 13 31 20 69 12 62 12 72 -4 96 -15 23 -43 45 -58
45 -3 0 -20 -19 -37 -42z"/>
<path d="M1184 2656 c-6 -16 3 -584 11 -716 11 -179 56 -365 117 -488 35 -69
51 -91 95 -122 74 -53 136 -66 227 -50 88 15 135 39 197 97 48 44 119 172 119
211 -1 16 -22 52 -32 52 -6 0 -40 -78 -62 -141 -22 -61 -68 -104 -146 -134
-114 -45 -227 -29 -292 41 -27 30 -48 76 -99 224 -28 79 -28 86 -12 97 9 7 24
13 33 13 9 0 55 13 103 28 48 16 90 25 93 21 3 -5 -5 -22 -17 -38 -21 -29 -23
-61 -3 -68 21 -7 62 37 78 83 22 66 57 108 121 144 31 18 69 43 85 57 27 22
29 29 24 66 -9 58 -20 66 -37 25 -18 -43 -21 -45 -71 -49 l-39 -4 2 115 c2
140 -13 183 -66 188 -30 3 -36 -1 -70 -56 -21 -33 -46 -74 -55 -92 -41 -74
-50 13 -18 172 13 63 17 105 12 110 -12 12 -18 2 -36 -54 -8 -24 -24 -68 -35
-98 -21 -54 -25 -116 -12 -175 4 -20 15 -33 34 -39 23 -8 31 -6 58 20 17 16
47 55 66 87 36 58 58 71 70 40 4 -9 2 -72 -4 -140 -12 -131 -31 -180 -83 -221
-34 -26 -228 -105 -244 -99 -21 8 -46 261 -66 672 -8 158 -14 214 -25 224 -12
13 -15 12 -21 -3z"/>
<path d="M183 2560 c0 -36 2 -50 4 -32 2 17 2 47 0 65 -2 17 -4 3 -4 -33z"/>
<path d="M427 2203 c-4 -3 -1 -16 6 -27 21 -32 37 -124 35 -194 -2 -72 14
-100 38 -67 8 11 18 31 21 45 10 38 -13 169 -34 198 -23 31 -57 54 -66 45z"/>
<path d="M2604 2158 c-80 -84 -133 -205 -141 -325 -6 -82 -6 -82 27 -120 34
-39 102 -82 133 -83 13 0 17 8 17 35 0 32 -3 35 -28 35 -16 0 -37 9 -47 20
-17 19 -17 21 1 41 10 12 31 27 46 35 21 11 28 22 28 44 0 17 -2 30 -5 30 -2
0 -24 -11 -48 -25 -25 -13 -47 -21 -51 -18 -23 24 26 214 74 281 17 24 30 53
28 64 -3 17 -7 16 -34 -14z"/>
<path d="M203 2153 c-27 -5 -28 -7 -6 -40 16 -24 16 -26 0 -38 -10 -7 -17 -26
-17 -43 0 -24 5 -31 23 -34 20 -3 22 -7 19 -62 -2 -32 -12 -81 -23 -108 -10
-27 -19 -72 -19 -101 l1 -52 23 45 c46 88 69 185 64 267 -3 42 -1 91 5 109 16
53 -5 70 -70 57z"/>
<path d="M2622 2083 c-15 -26 -16 -53 -2 -53 14 0 22 24 18 52 l-3 23 -13 -22z"/>
<path d="M1713 1799 c-72 -37 -234 -192 -217 -209 7 -7 36 9 94 52 46 35 116
81 155 103 49 29 70 46 70 60 0 31 -34 29 -102 -6z"/>
<path d="M362 1648 c-35 -96 -69 -214 -78 -276 -7 -45 -36 -77 -81 -88 -16 -4
-23 -13 -23 -31 0 -22 3 -24 23 -19 48 15 52 13 49 -25 -3 -36 17 -67 36 -55
5 3 15 33 21 66 12 62 28 80 71 80 21 0 21 -16 0 -80 -22 -66 -15 -148 8 -92
4 9 19 38 35 63 17 28 30 69 35 105 l7 59 105 53 c58 29 107 57 108 63 7 18
-20 39 -49 39 -18 0 -47 -14 -75 -35 -61 -47 -77 -43 -85 20 -8 66 -16 83 -50
101 -22 11 -28 20 -25 37 25 122 11 129 -32 15z m48 -103 c9 -11 11 -36 7 -81
-4 -53 -10 -71 -30 -91 -47 -47 -59 -8 -32 101 25 97 29 102 55 71z"/>
<path d="M1930 1709 c0 -5 5 -7 10 -4 6 3 10 8 10 11 0 2 -4 4 -10 4 -5 0 -10
-5 -10 -11z"/>
<path d="M2595 1494 c-22 -27 -82 -93 -134 -147 -89 -93 -94 -100 -77 -113 45
-33 105 13 197 149 50 73 60 95 57 123 l-3 35 -40 -47z"/>
<path d="M2476 236 l-148 -51 103 -3 c79 -2 117 1 157 15 51 17 52 18 52 55 0
21 -3 38 -7 37 -5 -1 -75 -24 -157 -53z"/>
<path d="M1595 250 c-34 -38 6 -95 42 -59 8 8 13 8 17 0 11 -16 66 -14 66 3 0
19 -66 76 -89 76 -10 0 -26 -9 -36 -20z"/>
</g>
</svg>
