<?xml version="1.0" standalone="no"?>
<!DOCTYPE svg PUBLIC "-//W3C//DTD SVG 20010904//EN"
 "http://www.w3.org/TR/2001/REC-SVG-20010904/DTD/svg10.dtd">
<svg version="1.0" xmlns="http://www.w3.org/2000/svg"
 width="284.000000pt" height="376.000000pt" viewBox="0 0 284.000000 376.000000"
 preserveAspectRatio="xMidYMid meet">
<metadata>
Created by potrace 1.16, written by Peter Selinger 2001-2019
</metadata>
<g transform="translate(0.000000,376.000000) scale(0.100000,-0.100000)"
fill="#000000" stroke="none">
<path d="M2575 2929 c-112 -129 -133 -157 -147 -212 -13 -52 -5 -79 26 -85 11
-3 16 4 16 20 0 64 30 113 110 184 l79 69 1 58 c0 31 -1 57 -2 57 -2 0 -39
-41 -83 -91z"/>
<path d="M1430 2623 c-89 -6 -205 -25 -217 -35 -18 -15 -16 -57 3 -65 8 -3 20
-1 27 6 6 6 37 11 68 11 32 0 61 5 64 10 3 6 45 10 94 10 l87 0 41 -42 c32
-33 83 -120 83 -143 0 -1 -24 -16 -52 -31 -155 -82 -162 -82 -152 -2 3 29 13
67 20 83 7 17 15 41 16 55 3 23 0 25 -42 25 l-45 0 -5 -125 -5 -125 -82 0
c-90 0 -112 -10 -94 -43 15 -28 72 -45 121 -37 56 10 61 -11 22 -91 -36 -72
-38 -91 -18 -149 16 -44 36 -58 36 -25 0 19 4 21 25 16 63 -16 75 -25 75 -56
0 -41 27 -51 53 -19 16 20 18 33 13 78 -6 48 -4 55 19 77 14 13 25 31 25 41 0
10 7 29 16 41 14 20 14 24 -6 52 -24 34 -50 43 -111 38 -64 -5 -57 19 14 48
33 13 76 39 98 59 39 35 54 42 63 27 15 -25 62 -820 49 -832 -14 -14 -226 -89
-293 -105 -36 -8 -79 -15 -95 -15 -70 0 -102 -65 -40 -82 21 -5 63 1 149 23
113 29 150 43 239 90 21 11 41 17 46 15 5 -3 12 -46 16 -96 4 -53 12 -94 20
-100 21 -17 24 -1 26 111 1 109 7 128 56 180 29 31 18 44 -27 34 -29 -6 -30
-5 -31 27 -2 166 -27 626 -38 708 -11 78 -38 185 -56 220 -16 30 -101 113
-132 129 -21 11 -45 11 -143 4z m122 -543 c-6 -53 -42 -84 -108 -92 -36 -4
-42 21 -17 72 14 27 26 36 53 41 60 11 75 7 72 -21z"/>
<path d="M2602 2505 c-23 -7 -73 -18 -110 -24 -82 -14 -239 -60 -269 -79 -30
-18 -29 -33 2 -62 22 -21 25 -30 19 -66 -5 -36 -3 -44 15 -53 12 -7 21 -8 22
-4 1 4 2 15 3 23 7 55 20 101 32 111 14 11 134 43 229 59 101 18 115 26 115
71 0 43 1 43 -58 24z"/>
<path d="M1094 2369 c-10 -17 -7 -57 11 -129 8 -30 21 -152 30 -272 14 -197
27 -295 70 -522 14 -76 27 -106 46 -106 15 0 10 93 -16 300 -14 110 -25 216
-24 237 4 102 -10 476 -17 483 -17 17 -91 23 -100 9z"/>
<path d="M2640 2261 c-8 -5 -58 -23 -110 -41 -99 -33 -127 -50 -115 -70 23
-37 91 -32 193 16 50 24 52 26 52 64 0 22 -1 40 -2 40 -2 0 -10 -4 -18 -9z"/>
<path d="M2648 2120 c-4 -14 -12 -92 -18 -175 -6 -82 -13 -177 -15 -210 -6
-69 11 -109 33 -82 9 11 12 77 10 253 -2 132 -6 228 -10 214z"/>
<path d="M2448 1883 c-14 -16 -31 -44 -37 -64 -7 -20 -28 -74 -48 -120 -46
-110 -64 -175 -61 -224 4 -55 32 -60 53 -9 8 20 15 47 15 60 0 12 5 26 10 29
6 3 10 19 10 35 0 16 5 32 10 35 6 3 10 13 10 22 0 9 11 31 25 49 13 17 35 52
48 76 13 23 32 57 42 74 10 17 16 38 12 47 -10 27 -59 21 -89 -10z"/>
<path d="M2436 1641 c-10 -16 11 -57 45 -85 28 -24 159 -96 174 -96 3 0 5 18
5 40 0 38 -3 41 -47 63 -27 13 -66 35 -88 49 -50 31 -81 42 -89 29z"/>
<path d="M412 1366 c-17 -25 -41 -78 -52 -118 -12 -40 -37 -121 -55 -179 -34
-105 -34 -109 -28 -237 3 -76 1 -174 -6 -238 -6 -60 -13 -178 -15 -261 l-3
-153 28 0 c28 0 29 2 30 53 1 90 9 180 19 232 15 74 30 409 20 444 -6 21 -3
47 7 83 62 210 92 289 125 325 11 12 21 36 21 55 2 30 -1 33 -29 36 -28 3 -36
-3 -62 -42z"/>
</g>
</svg>
