<?xml version="1.0" standalone="no"?>
<!DOCTYPE svg PUBLIC "-//W3C//DTD SVG 20010904//EN"
 "http://www.w3.org/TR/2001/REC-SVG-20010904/DTD/svg10.dtd">
<svg version="1.0" xmlns="http://www.w3.org/2000/svg"
 width="345.000000pt" height="345.000000pt" viewBox="0 0 345.000000 345.000000"
 preserveAspectRatio="xMidYMid meet">
<metadata>
Created by potrace 1.16, written by Peter Selinger 2001-2019
</metadata>
<g transform="translate(0.000000,345.000000) scale(0.100000,-0.100000)"
fill="#000000" stroke="none">
<path d="M1644 2352 c-12 -9 -34 -44 -49 -77 -15 -33 -43 -78 -62 -100 -49
-57 -51 -77 -13 -125 49 -62 83 -76 145 -60 54 14 183 74 240 113 33 22 86 82
106 119 20 37 -13 26 -65 -21 -33 -30 -95 -69 -153 -98 -81 -39 -108 -47 -155
-48 -46 0 -62 4 -79 21 -25 25 -19 42 35 102 50 56 127 172 121 183 -10 15
-48 10 -71 -9z"/>
<path d="M1080 2305 c-14 -16 -39 -199 -40 -283 0 -29 -5 -62 -11 -73 -13 -25
-125 -77 -197 -91 -58 -12 -74 -30 -49 -55 14 -14 23 -15 69 -5 29 7 77 24
107 37 30 14 56 24 58 22 2 -2 -1 -66 -7 -143 -5 -76 -10 -188 -10 -249 0 -95
3 -117 24 -161 23 -50 66 -94 92 -94 23 0 72 50 79 81 9 41 2 45 -28 15 -15
-14 -33 -26 -41 -26 -30 0 -49 61 -54 170 -5 122 15 436 30 465 6 11 33 43 59
72 27 28 49 56 49 62 0 24 -24 21 -54 -8 -18 -17 -35 -28 -39 -25 -10 10 -9
79 4 170 14 105 -5 162 -41 119z"/>
<path d="M2915 2260 c-3 -5 7 -17 22 -26 63 -40 67 -67 22 -171 -19 -43 -29
-78 -25 -89 9 -22 17 -14 80 79 60 89 62 124 7 178 -38 39 -91 53 -106 29z"/>
<path d="M1627 1743 c-13 -38 -43 -129 -67 -203 -23 -74 -57 -175 -76 -223
-36 -91 -36 -129 -2 -86 19 25 33 52 88 174 53 116 80 205 86 280 3 38 7 82 9
98 8 50 -12 28 -38 -40z"/>
<path d="M1785 1741 c-94 -92 -134 -170 -44 -86 49 46 53 47 65 30 8 -10 14
-42 14 -69 0 -81 18 -172 46 -230 32 -69 110 -164 153 -189 67 -40 225 -15
351 56 78 44 89 60 76 113 -9 35 -36 31 -36 -6 0 -27 -7 -33 -77 -69 -68 -33
-184 -71 -221 -71 -28 0 -96 55 -137 111 -57 77 -74 135 -84 290 -8 109 -11
125 -31 141 -12 10 -25 18 -29 18 -3 0 -24 -18 -46 -39z"/>
<path d="M186 1630 c9 -156 9 -378 0 -490 l-7 -85 31 35 c44 50 53 96 53 255
0 179 -28 331 -70 390 -13 18 -14 6 -7 -105z"/>
<path d="M3075 1490 c-10 -17 23 -150 48 -194 29 -52 52 -66 73 -45 14 15 14
20 -4 55 -10 22 -27 62 -36 91 -25 77 -64 121 -81 93z"/>
</g>
</svg>
