<?xml version="1.0" standalone="no"?>
<!DOCTYPE svg PUBLIC "-//W3C//DTD SVG 20010904//EN"
 "http://www.w3.org/TR/2001/REC-SVG-20010904/DTD/svg10.dtd">
<svg version="1.0" xmlns="http://www.w3.org/2000/svg"
 width="161.000000pt" height="264.000000pt" viewBox="0 0 161.000000 264.000000"
 preserveAspectRatio="xMidYMid meet">
<metadata>
Created by potrace 1.16, written by Peter Selinger 2001-2019
</metadata>
<g transform="translate(0.000000,264.000000) scale(0.100000,-0.100000)"
fill="#000000" stroke="none">
<path d="M550 2188 c-15 -24 -19 -43 -15 -69 4 -20 2 -88 -4 -150 -6 -63 -15
-157 -20 -209 -11 -116 -4 -199 17 -207 8 -4 20 1 27 10 7 10 18 17 25 17 21
0 80 -41 80 -56 0 -8 -16 -37 -36 -65 -31 -42 -41 -49 -61 -44 -16 4 -25 1
-29 -10 -9 -21 14 -45 42 -45 21 0 24 -5 23 -32 -1 -61 -10 -70 -90 -89 -41
-10 -109 -23 -151 -28 -133 -18 -176 -59 -95 -90 31 -11 45 -12 71 -3 18 7 49
12 70 12 20 0 64 9 98 21 34 11 65 16 70 11 4 -4 2 -45 -6 -93 -8 -46 -17
-124 -21 -174 -3 -49 -8 -123 -11 -162 -4 -61 -2 -73 10 -73 25 0 35 31 61
192 39 237 55 322 63 330 12 11 199 58 250 62 61 5 78 28 41 59 -14 12 -32 38
-39 57 -8 19 -45 67 -82 107 -71 75 -79 92 -52 113 8 8 24 30 34 49 10 20 32
62 48 94 39 72 57 154 42 191 -16 44 -80 66 -159 55 -70 -10 -101 -30 -101
-64 0 -44 41 -58 85 -29 13 8 38 14 57 12 31 -3 33 -5 32 -40 -1 -36 -93 -240
-114 -253 -6 -4 -24 5 -41 19 -17 14 -36 26 -44 26 -7 0 -23 8 -35 18 l-22 18
15 105 c22 139 27 196 32 309 2 76 0 99 -12 113 -22 24 -30 22 -53 -15z m243
-776 c57 -58 68 -81 44 -100 -19 -16 -171 -51 -181 -42 -5 5 -4 26 3 49 6 23
16 60 22 84 13 47 26 67 43 67 6 0 37 -26 69 -58z"/>
<path d="M335 2088 c-9 -30 -12 -245 -4 -315 9 -83 41 -150 82 -172 43 -23 65
10 28 43 -28 25 -33 71 -32 264 l2 172 -26 10 c-35 13 -45 13 -50 -2z"/>
<path d="M1323 1693 c-7 -16 -28 -50 -48 -77 -33 -46 -35 -52 -35 -131 0 -98
11 -135 40 -135 16 0 20 7 20 35 0 60 21 135 40 145 10 6 35 10 54 10 35 0 36
1 36 39 0 40 0 40 -42 43 l-43 3 2 48 c1 53 -7 60 -24 20z"/>
<path d="M1412 1308 c-16 -16 -15 -33 3 -48 13 -11 15 -7 15 24 0 40 -1 41
-18 24z"/>
<path d="M1344 786 c-40 -63 -95 -368 -72 -409 17 -32 32 -12 65 84 48 141 66
242 51 293 -16 57 -23 62 -44 32z"/>
<path d="M435 569 c-117 -11 -117 -11 -113 -56 3 -38 3 -38 43 -35 167 15 253
17 415 10 184 -8 266 -2 297 24 27 22 -6 38 -81 38 -39 0 -118 4 -176 10 -166
15 -288 18 -385 9z"/>
</g>
</svg>
