<?xml version="1.0" standalone="no"?>
<!DOCTYPE svg PUBLIC "-//W3C//DTD SVG 20010904//EN"
 "http://www.w3.org/TR/2001/REC-SVG-20010904/DTD/svg10.dtd">
<svg version="1.0" xmlns="http://www.w3.org/2000/svg"
 width="194.000000pt" height="310.000000pt" viewBox="0 0 194.000000 310.000000"
 preserveAspectRatio="xMidYMid meet">
<metadata>
Created by potrace 1.16, written by Peter Selinger 2001-2019
</metadata>
<g transform="translate(0.000000,310.000000) scale(0.100000,-0.100000)"
fill="#000000" stroke="none">
<path d="M957 2175 c-20 -14 -37 -30 -37 -36 0 -16 29 -22 45 -9 24 20 45 -5
45 -52 0 -29 8 -50 28 -77 16 -20 44 -67 62 -104 28 -59 32 -76 27 -121 -6
-57 -88 -236 -109 -236 -6 0 -33 20 -60 46 -26 25 -53 42 -58 39 -20 -13 -9
-48 30 -93 22 -25 39 -50 37 -56 -6 -18 -43 -18 -75 -2 -41 21 -46 10 -15 -31
25 -33 30 -35 71 -30 41 4 44 3 67 -32 12 -21 36 -61 51 -91 40 -73 115 -116
131 -75 3 10 -9 29 -34 53 -43 40 -113 152 -113 181 0 9 29 68 64 129 51 90
65 125 71 172 11 92 -1 132 -62 217 -48 68 -55 83 -57 130 -2 40 -8 59 -26 78
-29 31 -36 31 -83 0z"/>
<path d="M664 2175 c-55 -24 -112 -102 -153 -207 -13 -33 -44 -54 -124 -83
-74 -27 -104 -63 -75 -91 17 -18 19 -17 86 21 50 28 58 20 43 -43 -15 -68 13
-168 57 -202 60 -48 142 -11 193 85 13 25 27 45 31 45 15 0 7 -36 -18 -84 -36
-68 -104 -251 -104 -281 0 -55 23 -30 79 87 86 182 88 187 108 263 10 39 35
96 56 127 48 75 70 129 58 141 -6 6 -16 -1 -26 -16 -9 -14 -31 -35 -50 -45
-23 -14 -38 -34 -50 -68 -10 -27 -35 -65 -56 -86 -22 -21 -39 -41 -39 -46 0
-5 -16 -25 -37 -45 -29 -30 -44 -37 -74 -37 -43 0 -46 3 -65 73 -12 47 -12 58
7 120 l20 69 96 44 c59 27 93 49 90 57 -5 15 -17 13 -80 -9 -37 -13 -51 -14
-60 -5 -16 16 17 74 66 116 51 44 89 119 58 114 -3 0 -20 -7 -37 -14z"/>
<path d="M1730 947 c0 -18 -47 -77 -62 -77 -20 0 -148 -81 -143 -91 10 -15 36
-10 120 23 107 42 117 51 113 107 -2 24 -9 46 -15 49 -7 2 -13 -3 -13 -11z"/>
</g>
</svg>
