<?xml version="1.0" standalone="no"?>
<!DOCTYPE svg PUBLIC "-//W3C//DTD SVG 20010904//EN"
 "http://www.w3.org/TR/2001/REC-SVG-20010904/DTD/svg10.dtd">
<svg version="1.0" xmlns="http://www.w3.org/2000/svg"
 width="299.000000pt" height="385.000000pt" viewBox="0 0 299.000000 385.000000"
 preserveAspectRatio="xMidYMid meet">
<metadata>
Created by potrace 1.16, written by Peter Selinger 2001-2019
</metadata>
<g transform="translate(0.000000,385.000000) scale(0.100000,-0.100000)"
fill="#000000" stroke="none">
<path d="M180 2677 c0 -11 7 -29 17 -39 15 -17 15 -19 0 -36 -10 -10 -17 -31
-17 -45 0 -25 2 -26 20 -15 34 22 42 0 31 -88 -9 -73 -8 -81 11 -101 24 -26
17 -40 -28 -59 -25 -11 -34 -20 -34 -38 0 -20 4 -23 23 -18 29 7 87 44 111 70
16 19 17 29 9 104 -7 52 -20 104 -37 139 -14 31 -26 63 -26 71 0 22 -36 65
-60 71 -15 4 -20 0 -20 -16z"/>
<path d="M2725 2622 c-38 -37 -108 -102 -154 -145 -76 -71 -83 -80 -68 -94 15
-15 192 -93 212 -93 6 0 29 10 53 22 39 22 42 26 42 65 0 52 -16 55 -36 8 -16
-39 -26 -42 -69 -19 -16 9 -48 22 -70 29 -69 21 -60 40 65 134 107 81 110 85
110 122 0 22 -3 39 -7 39 -5 0 -39 -31 -78 -68z"/>
<path d="M1110 2624 c-133 -30 -175 -70 -175 -167 0 -73 27 -137 101 -239 84
-115 124 -183 124 -209 -1 -41 -35 -102 -91 -161 -44 -46 -65 -60 -111 -73
-55 -16 -58 -15 -108 6 -56 24 -73 20 -44 -12 30 -33 54 -43 129 -50 80 -8
101 0 154 55 19 20 39 36 43 36 4 0 8 -47 8 -105 0 -134 14 -199 56 -256 51
-70 112 -85 259 -61 39 7 124 17 190 23 138 13 168 22 163 47 -3 15 -15 17
-90 16 -47 -1 -134 -10 -193 -19 -123 -19 -232 -14 -266 14 -26 21 -58 153
-58 241 0 79 20 190 74 400 23 94 74 217 102 251 24 28 28 29 116 29 122 0
212 17 245 45 37 32 20 50 -40 41 -23 -4 -125 -10 -225 -14 -189 -7 -220 -15
-193 -47 7 -8 18 -15 25 -15 7 0 18 -6 24 -14 10 -11 8 -17 -9 -29 -30 -21
-66 -93 -86 -170 -26 -105 -32 -104 -117 25 -95 144 -97 148 -97 202 0 89 28
118 128 129 37 4 65 2 91 -9 28 -11 44 -12 64 -5 34 13 35 41 4 77 -19 22 -33
28 -78 30 -30 2 -83 -4 -119 -12z"/>
<path d="M2373 2299 c-15 -23 -38 -61 -50 -85 -24 -47 -42 -54 -64 -27 -17 20
-77 46 -89 38 -19 -12 -9 -38 27 -71 l37 -34 -17 -35 c-21 -43 -21 -45 -3 -45
7 0 21 11 30 25 19 29 53 32 116 10 24 -8 46 -12 49 -9 3 3 -11 20 -32 37 -43
37 -46 55 -13 86 l24 23 12 -24 c40 -76 70 -67 69 21 -1 126 -45 167 -96 90z"/>
<path d="M198 2153 c-12 -3 -18 -14 -18 -34 0 -29 1 -30 35 -23 19 3 58 9 87
13 44 5 53 9 53 26 0 18 -7 20 -70 22 -38 0 -78 -1 -87 -4z"/>
<path d="M2630 2114 c-47 -14 -102 -37 -122 -51 -53 -36 -87 -108 -39 -83 45
24 132 60 145 60 8 0 17 4 20 9 3 4 29 11 58 15 115 15 118 16 118 47 0 28 -2
29 -47 28 -27 0 -86 -11 -133 -25z"/>
<path d="M237 2054 c-4 -4 -7 -14 -7 -22 0 -8 -11 -30 -25 -48 -20 -27 -25
-43 -24 -91 1 -57 1 -58 14 -27 24 53 34 56 109 33 79 -25 160 -20 154 9 -2
11 -14 18 -33 19 -67 6 -176 26 -181 35 -3 4 0 24 7 43 9 24 10 38 3 45 -6 6
-13 7 -17 4z"/>
<path d="M1609 2040 c-36 -4 -90 -15 -120 -23 -30 -9 -70 -20 -89 -24 -40 -10
-50 -35 -24 -64 20 -22 46 -24 77 -5 29 18 107 42 182 56 87 17 130 34 130 50
0 18 -58 22 -156 10z"/>
<path d="M2643 1958 c-21 -24 -53 -64 -70 -89 -22 -32 -49 -55 -88 -74 -31
-16 -58 -33 -61 -37 -3 -4 0 -23 7 -41 9 -26 8 -39 -5 -71 -25 -60 -21 -94 11
-107 35 -13 59 -7 114 31 51 34 79 38 79 12 0 -30 -36 -125 -62 -168 -14 -21
-28 -52 -32 -68 -4 -16 -20 -48 -37 -72 -20 -30 -26 -45 -17 -50 11 -7 64 46
115 113 l21 29 96 -4 96 -4 0 31 c0 28 -2 30 -28 25 -35 -7 -111 12 -118 30
-3 7 5 37 16 67 27 67 21 110 -20 139 -36 26 -55 21 -111 -26 -23 -19 -49 -34
-58 -32 -26 5 -24 42 4 68 14 13 25 29 25 35 0 32 215 183 245 171 25 -9 45 5
45 30 0 31 -26 32 -75 3 -35 -21 -65 -20 -65 2 0 6 16 26 35 43 27 25 32 35
23 44 -21 21 -45 13 -85 -30z"/>
<path d="M2234 1855 c-10 -38 14 -83 62 -115 70 -49 85 -36 34 28 -16 20 -36
54 -45 75 -18 43 -42 48 -51 12z"/>
<path d="M180 1672 c0 -27 8 -35 63 -68 34 -21 117 -82 185 -136 120 -95 191
-133 212 -112 7 7 -10 24 -47 51 -32 22 -89 69 -128 103 -81 72 -124 102 -217
154 l-68 38 0 -30z"/>
<path d="M180 285 l0 -105 1315 0 1315 0 0 65 0 65 -82 2 c-46 1 -146 2 -223
3 -179 3 -497 13 -790 26 -126 6 -327 12 -445 14 -262 5 -894 24 -1007 30
l-83 5 0 -105z"/>
</g>
</svg>
