<?xml version="1.0" standalone="no"?>
<!DOCTYPE svg PUBLIC "-//W3C//DTD SVG 20010904//EN"
 "http://www.w3.org/TR/2001/REC-SVG-20010904/DTD/svg10.dtd">
<svg version="1.0" xmlns="http://www.w3.org/2000/svg"
 width="262.000000pt" height="341.000000pt" viewBox="0 0 262.000000 341.000000"
 preserveAspectRatio="xMidYMid meet">
<metadata>
Created by potrace 1.16, written by Peter Selinger 2001-2019
</metadata>
<g transform="translate(0.000000,341.000000) scale(0.100000,-0.100000)"
fill="#000000" stroke="none">
<path d="M390 3203 c0 -26 17 -163 39 -311 10 -64 32 -112 52 -112 7 0 9 14 5
38 -3 20 -10 116 -16 212 -6 96 -13 181 -15 188 -3 6 -18 12 -35 12 -26 0 -30
-4 -30 -27z"/>
<path d="M2165 2298 c-15 -13 -34 -46 -44 -73 -13 -40 -27 -58 -68 -89 -29
-21 -53 -45 -53 -53 0 -30 21 -53 48 -53 16 0 33 -5 40 -12 15 -15 15 -97 1
-169 -13 -63 2 -139 26 -139 8 0 15 8 15 18 0 10 20 34 44 55 49 40 56 43 56
25 0 -16 -85 -193 -109 -227 -10 -14 -42 -69 -71 -121 -29 -52 -73 -126 -97
-163 -35 -53 -43 -71 -34 -80 10 -9 20 -3 44 25 46 53 95 124 120 172 11 22
31 55 42 71 12 17 29 44 37 60 18 36 57 107 108 195 154 268 152 266 145 321
-5 38 -12 52 -29 59 -11 5 -30 12 -41 16 -11 5 -43 8 -71 9 -28 0 -58 6 -68
14 -19 16 -21 64 -5 110 16 46 -1 59 -36 29z m75 -263 c28 -30 61 -32 85 -5
18 20 45 27 45 11 0 -13 -148 -150 -176 -163 -37 -17 -48 0 -40 64 7 52 37
118 54 118 5 0 19 -11 32 -25z"/>
<path d="M985 2130 c-11 -4 -34 -23 -52 -41 -38 -40 -52 -88 -83 -289 -12 -80
-25 -154 -30 -166 -6 -16 -24 -23 -81 -34 -101 -18 -119 -26 -119 -50 0 -33
41 -46 107 -32 31 6 59 10 63 7 4 -2 10 -66 13 -142 9 -217 46 -350 114 -415
27 -26 30 -27 66 -14 40 13 85 51 75 62 -4 3 -15 1 -26 -5 -33 -18 -70 -13
-83 10 -46 87 -82 287 -72 407 9 119 15 126 140 176 34 13 78 37 98 53 37 29
102 120 92 129 -3 3 -25 -10 -49 -28 -71 -54 -237 -133 -250 -120 -8 8 -5 47
11 147 26 160 40 203 87 272 47 68 38 98 -21 73z"/>
<path d="M1455 1891 c-111 -28 -224 -150 -289 -310 -41 -103 -45 -148 -17
-182 18 -22 21 -23 36 -8 9 8 27 59 40 113 25 103 66 184 112 227 32 29 109
82 136 92 27 10 31 -17 8 -60 -29 -54 -88 -242 -111 -353 -44 -215 -65 -469
-40 -485 15 -9 37 51 44 120 21 198 123 619 163 674 33 45 40 -53 19 -270 -10
-96 -31 -249 -48 -341 -17 -92 -28 -175 -24 -183 8 -22 33 -18 51 9 25 37 71
277 90 465 27 267 10 417 -53 474 -21 19 -78 28 -117 18z"/>
<path d="M2285 1629 c-56 -32 -127 -129 -140 -190 -4 -19 -16 -55 -26 -80 -11
-29 -20 -89 -25 -156 -6 -97 -4 -114 14 -155 23 -54 64 -78 129 -78 59 0 94
20 136 78 59 83 67 105 67 184 l-1 73 -18 -46 c-23 -58 -106 -184 -139 -210
-14 -10 -33 -19 -43 -19 -25 0 -89 58 -89 81 0 10 18 42 40 71 22 29 40 56 40
60 0 4 -14 5 -31 1 l-32 -6 7 49 c10 71 54 181 87 219 16 18 42 36 57 40 23 6
32 1 58 -30 18 -20 39 -50 48 -68 l16 -32 0 77 0 76 -39 31 c-45 36 -87 46
-116 30z"/>
<path d="M253 1421 c-64 -32 -72 -39 -73 -65 0 -22 4 -27 16 -22 9 3 24 6 34
6 36 0 126 100 102 113 -4 2 -39 -12 -79 -32z"/>
<path d="M2074 790 c-48 -19 -87 -92 -152 -285 -44 -128 -83 -230 -102 -267
-27 -53 -26 -58 18 -58 l38 0 44 98 c23 53 60 147 81 207 53 157 70 196 102
237 42 55 27 91 -29 68z"/>
<path d="M1367 583 c-11 -3 -37 -46 -69 -111 -65 -138 -64 -135 -87 -220 l-19
-72 38 0 c35 0 40 3 48 33 27 95 106 275 134 303 48 50 24 86 -45 67z"/>
<path d="M687 443 c-4 -3 -7 -19 -7 -34 0 -15 -13 -60 -30 -100 -16 -39 -32
-85 -35 -101 -6 -27 -6 -28 37 -28 41 0 44 2 62 43 38 83 48 121 42 155 -8 51
-47 88 -69 65z"/>
</g>
</svg>
