<?xml version="1.0" standalone="no"?>
<!DOCTYPE svg PUBLIC "-//W3C//DTD SVG 20010904//EN"
 "http://www.w3.org/TR/2001/REC-SVG-20010904/DTD/svg10.dtd">
<svg version="1.0" xmlns="http://www.w3.org/2000/svg"
 width="251.000000pt" height="319.000000pt" viewBox="0 0 251.000000 319.000000"
 preserveAspectRatio="xMidYMid meet">
<metadata>
Created by potrace 1.16, written by Peter Selinger 2001-2019
</metadata>
<g transform="translate(0.000000,319.000000) scale(0.100000,-0.100000)"
fill="#000000" stroke="none">
<path d="M2291 2126 c-31 -32 -34 -39 -34 -103 -1 -59 4 -78 35 -143 l37 -75
-4 75 c-2 41 -7 92 -10 114 -5 23 -3 53 5 75 6 20 10 49 8 64 l-3 28 -34 -35z"/>
<path d="M1524 2103 c-4 -10 -26 -58 -49 -108 -24 -49 -53 -124 -65 -165 -32
-105 -34 -105 -51 -14 -18 95 -70 167 -138 189 -13 4 -48 10 -79 15 -49 6 -61
4 -92 -15 -48 -31 -61 -47 -109 -144 -105 -208 -137 -346 -108 -476 14 -65 23
-83 64 -130 29 -33 69 -66 101 -82 42 -21 52 -30 48 -45 -3 -10 -9 -27 -12
-38 -12 -37 20 -21 39 20 12 26 36 52 70 74 76 51 157 190 157 270 0 30 -5 38
-31 52 -29 15 -34 15 -64 -2 -57 -30 -68 -16 -62 79 6 109 -8 242 -34 311 -11
31 -18 60 -14 66 3 5 23 10 44 10 55 0 122 -54 154 -124 31 -67 44 -131 52
-258 4 -54 10 -100 15 -103 4 -2 15 4 25 15 15 16 16 31 11 97 -6 71 -4 85 23
161 33 88 94 217 115 242 27 32 57 94 52 106 -8 20 -55 17 -62 -3z m-452 -200
c9 -19 13 -102 13 -259 l0 -230 -42 -81 c-24 -45 -39 -84 -34 -87 5 -3 16 5
25 19 9 14 21 25 26 25 15 0 12 -43 -4 -65 -13 -19 -15 -19 -56 0 -26 12 -53
35 -69 58 -14 22 -34 51 -43 66 -23 34 -24 160 -2 244 9 34 41 113 71 177 84
173 93 183 115 133z m175 -459 c8 -21 -12 -75 -48 -133 -55 -86 -75 -75 -66
36 4 57 9 69 33 89 34 27 72 31 81 8z"/>
<path d="M555 2070 c-4 -7 -2 -17 4 -23 27 -27 1 -134 -48 -196 -29 -38 -75
-151 -64 -160 3 -3 8 0 10 7 3 7 25 34 50 60 78 82 129 230 100 291 -13 28
-41 39 -52 21z"/>
<path d="M180 2008 c0 -29 3 -33 29 -35 17 -1 57 -16 90 -33 75 -38 84 -38 70
-2 -18 47 -58 80 -111 91 -74 16 -78 15 -78 -21z"/>
<path d="M180 1727 c0 -20 5 -37 10 -37 19 0 22 29 6 52 -16 22 -16 22 -16
-15z"/>
<path d="M2311 1747 c-14 -17 -224 -127 -242 -127 -16 0 -66 -37 -59 -43 8 -7
182 51 253 85 63 30 67 34 67 65 0 37 -2 39 -19 20z"/>
<path d="M1723 1671 c-17 -11 -37 -29 -43 -40 -8 -15 -21 -21 -46 -21 -24 0
-37 -5 -41 -17 -8 -21 -55 -85 -97 -131 -23 -25 -27 -35 -18 -44 9 -9 23 0 62
41 39 41 50 49 50 33 0 -11 6 -25 14 -31 23 -20 56 4 56 39 0 42 17 81 53 118
38 39 69 41 97 5 21 -26 22 -35 16 -128 -3 -55 -9 -124 -12 -152 -6 -50 -5
-53 15 -53 40 0 53 56 49 199 -2 105 -6 132 -23 161 -18 29 -27 35 -60 38 -26
2 -51 -4 -72 -17z"/>
<path d="M285 1350 c-10 -11 -28 -20 -39 -20 -46 0 -66 -12 -66 -37 0 -19 4
-24 16 -19 66 25 90 11 73 -45 -5 -19 -14 -58 -19 -88 -5 -29 -23 -74 -40
-100 -16 -26 -30 -53 -30 -59 0 -15 27 -16 35 -1 4 6 14 8 23 4 10 -4 23 4 37
21 32 41 48 24 43 -45 -6 -77 -25 -113 -67 -125 -23 -7 -39 -6 -53 3 -18 11
-19 10 -16 -15 2 -19 14 -34 36 -47 32 -19 36 -19 69 -3 65 31 116 193 82 259
-7 12 -23 35 -35 50 -20 24 -24 40 -24 102 0 41 4 76 9 79 12 8 87 -48 101
-75 7 -12 9 -33 6 -48 -21 -98 -21 -93 10 -85 16 4 35 11 42 17 26 21 5 135
-35 179 -10 11 -39 31 -65 44 -38 19 -48 30 -48 49 0 30 -20 32 -45 5z"/>
</g>
</svg>
