<?xml version="1.0" standalone="no"?>
<!DOCTYPE svg PUBLIC "-//W3C//DTD SVG 20010904//EN"
 "http://www.w3.org/TR/2001/REC-SVG-20010904/DTD/svg10.dtd">
<svg version="1.0" xmlns="http://www.w3.org/2000/svg"
 width="225.000000pt" height="364.000000pt" viewBox="0 0 225.000000 364.000000"
 preserveAspectRatio="xMidYMid meet">
<metadata>
Created by potrace 1.16, written by Peter Selinger 2001-2019
</metadata>
<g transform="translate(0.000000,364.000000) scale(0.100000,-0.100000)"
fill="#000000" stroke="none">
<path d="M1095 3050 c-15 -16 -19 -49 -25 -207 -5 -103 -13 -200 -19 -215 -7
-18 -19 -28 -43 -32 -69 -14 -174 -38 -213 -49 -37 -11 -40 -15 -45 -52 -5
-37 -7 -40 -39 -41 -34 -2 -65 -27 -58 -48 2 -5 14 -18 28 -27 22 -16 35 -17
144 -7 206 18 199 19 205 -22 3 -20 11 -35 19 -35 7 0 21 16 30 35 18 39 -8
32 239 59 104 11 142 29 142 66 0 33 -10 36 -62 20 -50 -15 -257 -23 -276 -11
-18 11 -14 51 6 69 9 8 31 19 47 23 17 4 58 20 92 36 34 16 85 37 115 47 58
20 68 40 27 55 -21 7 -48 2 -120 -23 -52 -18 -105 -34 -119 -37 l-25 -6 0 164
c-1 155 -9 243 -25 253 -4 2 -15 -4 -25 -15z m-59 -541 c13 -22 -23 -38 -106
-48 -154 -20 -159 -10 -17 30 108 32 114 32 123 18z"/>
<path d="M1222 2275 c-51 -14 -114 -34 -140 -44 -26 -10 -74 -24 -107 -31 -33
-7 -77 -21 -97 -31 -45 -23 -56 -24 -78 -4 -16 15 -20 13 -44 -15 -22 -27 -26
-41 -26 -96 0 -35 7 -83 16 -106 39 -100 69 -87 69 30 0 73 1 77 23 80 13 2
39 14 58 27 19 13 60 31 92 40 31 9 71 20 87 25 17 5 59 16 95 25 36 9 70 21
77 27 7 5 49 10 95 11 83 2 83 2 80 -23 -1 -14 -15 -43 -31 -65 -67 -95 -72
-140 -10 -88 56 47 119 141 119 177 0 83 -110 106 -278 61z"/>
<path d="M1029 1851 c-62 -45 -67 -52 -74 -96 -8 -59 4 -74 32 -37 28 38 131
108 141 96 8 -9 39 -112 63 -209 19 -73 102 -159 176 -180 65 -19 113 -12 144
21 22 23 22 27 10 72 -15 60 -34 80 -55 62 -9 -7 -16 -26 -16 -42 0 -34 -17
-43 -65 -34 -75 14 -128 89 -145 204 -12 90 -24 120 -63 160 -43 44 -69 41
-148 -17z"/>
<path d="M894 1604 c-24 -36 -64 -162 -64 -201 0 -22 6 -36 21 -43 28 -16 49
-5 49 24 0 14 6 40 14 58 8 18 24 59 36 91 22 55 22 58 5 77 -24 27 -41 25
-61 -6z"/>
<path d="M2042 1403 c5 -25 28 -28 28 -4 0 12 -6 21 -16 21 -9 0 -14 -7 -12
-17z"/>
</g>
</svg>
