<?xml version="1.0" standalone="no"?>
<!DOCTYPE svg PUBLIC "-//W3C//DTD SVG 20010904//EN"
 "http://www.w3.org/TR/2001/REC-SVG-20010904/DTD/svg10.dtd">
<svg version="1.0" xmlns="http://www.w3.org/2000/svg"
 width="240.000000pt" height="272.000000pt" viewBox="0 0 240.000000 272.000000"
 preserveAspectRatio="xMidYMid meet">
<metadata>
Created by potrace 1.16, written by Peter Selinger 2001-2019
</metadata>
<g transform="translate(0.000000,272.000000) scale(0.100000,-0.100000)"
fill="#000000" stroke="none">
<path d="M725 2236 c-117 -45 -260 -128 -260 -151 0 -21 47 -16 90 9 24 14 51
26 61 26 10 0 26 8 37 18 10 9 56 35 101 57 44 22 81 45 81 50 0 18 -49 14
-110 -9z"/>
<path d="M670 1991 c-22 -6 -25 -13 -25 -51 -1 -25 -5 -76 -9 -113 -10 -78
-22 -91 -96 -103 -55 -9 -110 -31 -110 -44 0 -23 50 -34 111 -24 33 6 62 7 65
2 18 -29 -61 -302 -122 -422 -17 -34 -22 -52 -14 -60 6 -6 13 -6 19 -1 16 17
77 146 105 223 14 40 32 85 40 100 7 15 19 54 26 87 26 125 49 165 97 165 23
0 122 66 130 86 3 9 1 20 -6 27 -8 8 -17 5 -33 -10 -13 -11 -45 -30 -72 -42
-68 -30 -80 -18 -65 64 22 119 18 133 -41 116z"/>
<path d="M754 1505 c-7 -19 -14 -37 -14 -41 0 -12 94 -159 125 -196 18 -21 52
-52 76 -70 57 -41 194 -98 237 -98 47 0 37 21 -19 40 -151 52 -270 168 -354
347 -14 29 -28 53 -31 53 -3 0 -12 -16 -20 -35z"/>
<path d="M2124 1169 c-3 -6 1 -28 11 -48 16 -37 16 -40 -8 -109 -23 -67 -24
-82 -6 -82 8 0 47 60 66 104 20 43 16 103 -7 126 -22 22 -45 26 -56 9z"/>
</g>
</svg>
