<?xml version="1.0" standalone="no"?>
<!DOCTYPE svg PUBLIC "-//W3C//DTD SVG 20010904//EN"
 "http://www.w3.org/TR/2001/REC-SVG-20010904/DTD/svg10.dtd">
<svg version="1.0" xmlns="http://www.w3.org/2000/svg"
 width="224.000000pt" height="376.000000pt" viewBox="0 0 224.000000 376.000000"
 preserveAspectRatio="xMidYMid meet">
<metadata>
Created by potrace 1.16, written by Peter Selinger 2001-2019
</metadata>
<g transform="translate(0.000000,376.000000) scale(0.100000,-0.100000)"
fill="#000000" stroke="none">
<path d="M1211 3100 c-102 -43 -338 -325 -386 -460 -31 -87 -8 -164 55 -184
24 -7 35 -17 35 -30 0 -33 -27 -41 -90 -27 -61 14 -80 35 -50 57 30 22 10 27
-51 12 -73 -17 -87 -37 -54 -74 30 -32 100 -64 140 -64 16 0 31 -4 34 -9 3 -5
-29 -78 -72 -163 -122 -245 -145 -296 -146 -334 -1 -43 22 -59 31 -23 9 32
108 223 142 275 16 22 31 53 35 69 4 16 25 57 47 91 41 63 74 85 146 99 59 12
128 52 176 104 45 48 53 71 24 71 -7 0 -32 -16 -55 -35 -62 -49 -182 -92 -182
-65 0 16 80 69 123 81 59 16 97 47 97 80 0 36 -19 47 -39 22 -36 -45 -76 -31
-51 19 13 24 59 89 98 138 29 36 20 60 -12 33 -11 -11 -33 -24 -47 -30 -29
-13 -48 -35 -123 -148 -44 -66 -58 -81 -82 -83 -40 -4 -67 19 -67 55 0 16 16
63 36 103 66 137 170 257 281 323 l68 40 33 -17 c18 -10 38 -15 44 -12 18 11
13 51 -9 71 -23 21 -95 29 -129 15z"/>
<path d="M1146 2139 c-38 -33 -86 -126 -86 -166 0 -27 24 -41 44 -24 7 6 28
40 45 76 49 100 88 83 137 -60 32 -91 34 -150 13 -347 -9 -86 -9 -122 -1 -130
21 -21 39 0 46 54 3 29 13 73 22 98 20 56 23 257 5 315 -26 81 -66 147 -110
181 -54 42 -71 42 -115 3z"/>
<path d="M875 1990 c3 -5 8 -10 11 -10 2 0 4 5 4 10 0 6 -5 10 -11 10 -5 0 -7
-4 -4 -10z"/>
<path d="M180 1951 c0 -43 10 -51 65 -51 39 0 67 26 44 41 -8 5 -21 9 -29 9
-8 0 -30 9 -47 20 l-33 20 0 -39z"/>
<path d="M897 1918 c-2 -7 -1 -58 4 -113 4 -55 8 -134 9 -175 1 -93 25 -156
66 -166 15 -4 56 -29 91 -55 35 -27 74 -50 86 -50 49 -3 100 4 125 17 15 8 39
14 55 14 17 0 27 5 27 14 0 20 -17 24 -78 18 -68 -6 -155 14 -183 44 -20 21
-20 26 -9 54 7 17 25 48 40 68 15 21 33 55 39 75 7 21 26 47 42 59 50 38 28
72 -31 48 -25 -11 -39 -10 -85 5 -44 13 -59 15 -70 5 -21 -17 -19 -40 7 -67
20 -21 21 -27 9 -59 -10 -28 -10 -38 0 -50 10 -12 8 -19 -10 -37 -22 -22 -22
-22 -37 -3 -9 14 -14 46 -14 100 0 80 -22 212 -41 247 -11 22 -35 25 -42 7z"/>
<path d="M1936 1455 c-3 -8 -3 -43 0 -77 7 -76 -9 -143 -61 -250 -35 -72 -40
-108 -15 -108 11 0 93 108 118 155 15 30 52 165 52 192 0 20 -61 103 -76 103
-6 0 -14 -7 -18 -15z"/>
<path d="M385 1389 c-27 -5 -85 -11 -127 -15 l-78 -6 0 -29 c0 -27 3 -29 36
-29 46 0 227 37 271 55 70 29 11 43 -102 24z"/>
<path d="M200 268 c-11 -18 -20 -45 -20 -60 0 -24 4 -28 29 -28 33 0 45 27 35
79 -9 45 -21 47 -44 9z"/>
</g>
</svg>
