<?xml version="1.0" standalone="no"?>
<!DOCTYPE svg PUBLIC "-//W3C//DTD SVG 20010904//EN"
 "http://www.w3.org/TR/2001/REC-SVG-20010904/DTD/svg10.dtd">
<svg version="1.0" xmlns="http://www.w3.org/2000/svg"
 width="278.000000pt" height="340.000000pt" viewBox="0 0 278.000000 340.000000"
 preserveAspectRatio="xMidYMid meet">
<metadata>
Created by potrace 1.16, written by Peter Selinger 2001-2019
</metadata>
<g transform="translate(0.000000,340.000000) scale(0.100000,-0.100000)"
fill="#000000" stroke="none">
<path d="M180 3184 c0 -31 2 -35 15 -24 20 17 20 -5 0 -40 -16 -27 -21 -161
-6 -145 21 23 90 173 95 208 l5 37 -55 0 -54 0 0 -36z"/>
<path d="M378 3108 c-10 -62 -21 -156 -24 -209 -7 -102 0 -130 37 -149 29 -16
47 2 55 58 4 26 13 64 20 86 9 25 14 87 14 182 l0 144 -43 0 -42 0 -17 -112z"/>
<path d="M557 3148 c-4 -41 -20 -113 -38 -163 -33 -96 -53 -190 -44 -206 20
-31 73 9 101 76 28 70 29 70 106 4 38 -33 75 -58 81 -56 7 2 11 20 9 42 -2 20
4 65 12 99 8 33 18 96 22 139 5 62 12 84 31 108 l25 29 -46 0 c-29 0 -48 -5
-50 -12 -2 -7 -9 -62 -16 -123 -7 -60 -17 -118 -22 -128 -9 -18 -11 -18 -29
-1 -36 33 -32 91 16 245 5 14 1 19 -14 19 -23 0 -46 -37 -56 -93 -8 -40 -21
-55 -36 -40 -5 5 -2 29 6 57 21 70 20 76 -19 76 l-33 0 -6 -72z"/>
<path d="M950 3166 c0 -44 5 -61 24 -83 20 -23 28 -26 43 -17 24 14 28 47 8
64 -9 7 -15 28 -15 51 0 37 -2 39 -30 39 -30 0 -30 -1 -30 -54z"/>
<path d="M1220 3193 c0 -15 5 -41 12 -60 10 -28 9 -38 -12 -79 -17 -34 -20
-51 -13 -63 28 -44 107 1 119 67 4 20 13 45 21 54 11 12 12 21 4 35 -6 12 -6
25 0 34 14 23 10 39 -11 39 -10 0 -24 -9 -30 -20 -6 -11 -15 -20 -21 -20 -6 0
-13 9 -16 20 -3 13 -14 20 -29 20 -19 0 -24 -5 -24 -27z"/>
<path d="M1460 3155 c-47 -105 -52 -134 -32 -175 14 -30 23 -35 55 -38 53 -5
61 22 17 58 -32 26 -32 27 -20 66 7 21 21 56 31 76 25 50 25 78 -1 78 -16 0
-28 -16 -50 -65z"/>
<path d="M2281 2998 c-15 -284 -17 -990 -2 -1173 6 -77 11 -182 11 -234 0 -52
4 -133 10 -180 27 -241 39 -379 45 -501 3 -74 10 -189 15 -255 5 -66 12 -200
16 -297 l6 -178 109 0 109 0 0 1520 0 1520 -153 0 -153 0 -13 -222z"/>
<path d="M1600 2662 c-43 -21 -136 -90 -168 -124 -13 -14 -26 -38 -31 -54 -4
-16 -15 -31 -25 -32 -25 -5 -56 27 -56 58 0 31 -16 50 -43 50 -10 0 -40 -23
-67 -52 -54 -59 -80 -60 -80 -5 0 18 5 38 11 44 15 15 1 37 -14 25 -7 -5 -32
-12 -57 -16 -24 -4 -52 -14 -62 -23 -20 -18 -25 -11 -30 42 -2 22 -9 31 -25
33 -32 5 -53 -33 -53 -98 0 -31 -6 -62 -12 -68 -10 -10 -10 -17 0 -32 6 -11
12 -48 12 -82 1 -36 9 -87 20 -118 25 -72 25 -79 -5 -90 -14 -5 -25 -17 -25
-26 0 -9 -11 -53 -24 -98 -13 -44 -29 -124 -36 -176 -6 -52 -16 -114 -21 -137
-5 -23 -9 -56 -9 -72 0 -21 -5 -31 -15 -31 -13 0 -15 14 -10 87 4 70 2 90 -11
104 -12 14 -15 34 -11 101 15 250 37 397 63 419 8 6 14 17 14 24 0 7 10 24 21
39 22 28 19 41 -9 41 -13 0 -19 14 -24 60 -9 72 -46 165 -66 165 -12 0 -14
-11 -8 -55 3 -30 9 -80 12 -110 8 -65 -15 -152 -51 -193 -19 -22 -26 -25 -37
-14 -10 10 -10 17 0 32 17 28 42 101 42 126 0 60 -68 60 -142 -1 -44 -36 -64
-46 -103 -50 -34 -3 -56 -12 -75 -30 -34 -33 -60 -29 -80 10 -42 81 -97 145
-125 145 -14 0 -2 -66 21 -110 30 -58 29 -94 -3 -98 -33 -5 -33 -67 -2 -75 20
-5 21 -11 16 -69 -3 -40 -11 -66 -21 -74 -11 -8 -16 -27 -16 -63 0 -43 3 -51
18 -51 22 0 52 -30 52 -51 0 -8 -16 -30 -35 -49 l-35 -34 0 -113 0 -113 30 0
c35 0 47 -19 30 -50 -9 -16 -18 -20 -36 -16 -22 6 -24 3 -24 -29 0 -19 3 -35
8 -35 10 0 100 68 157 118 l44 39 -13 110 c-14 112 -23 139 -50 163 -9 7 -16
27 -16 46 0 38 21 54 69 54 20 0 31 5 31 14 0 21 -21 34 -60 38 l-35 3 -3 83
c-3 96 1 103 66 132 51 23 87 25 146 8 59 -17 62 -23 33 -66 -34 -48 -34 -67
-2 -88 25 -16 27 -16 53 7 15 13 34 32 43 43 9 10 24 16 35 14 17 -3 19 -12
16 -93 -2 -50 -7 -128 -13 -175 -12 -117 -11 -372 2 -425 8 -31 24 -56 50 -80
22 -19 43 -35 48 -35 23 0 63 48 71 85 5 22 10 111 10 198 0 134 4 173 25 263
32 130 62 198 92 202 31 5 78 -89 110 -219 l26 -105 -43 -59 c-40 -54 -44 -57
-56 -40 -16 21 -17 74 -5 160 10 67 2 136 -16 142 -7 3 -22 -17 -35 -44 -19
-41 -23 -67 -26 -178 -3 -121 -2 -132 18 -158 15 -18 31 -27 51 -27 31 0 49
22 87 102 9 21 22 38 28 38 13 0 28 -121 28 -240 1 -82 0 -85 -22 -88 -20 -3
-23 -8 -17 -30 9 -38 34 -74 48 -70 29 9 49 80 54 186 8 166 -52 483 -112 603
-14 26 -25 54 -25 61 0 7 37 46 81 87 45 41 97 98 115 127 19 29 38 56 44 59
6 4 31 -3 55 -15 52 -25 65 -21 65 25 0 24 11 48 40 83 73 93 140 127 203 103
22 -9 27 -17 27 -43 0 -68 -91 -203 -157 -235 -43 -20 -58 -8 -49 41 8 42 25
55 41 33 19 -27 25 -20 25 27 0 53 -10 62 -47 42 -46 -23 -62 -49 -69 -109 -6
-51 -4 -60 16 -82 22 -23 22 -25 6 -50 -10 -15 -47 -59 -83 -98 -50 -55 -75
-74 -106 -83 -48 -12 -67 -36 -51 -61 7 -11 22 -17 35 -15 29 3 112 28 159 49
19 9 55 24 80 35 25 11 52 24 60 29 41 25 119 58 155 65 22 4 56 15 75 25 19
10 48 23 63 29 39 14 35 54 -6 58 -33 4 -164 -46 -229 -87 -24 -15 -59 -33
-78 -40 -19 -7 -44 -16 -55 -21 -51 -19 -85 -28 -85 -22 0 19 152 179 224 235
42 32 103 123 124 185 13 40 13 47 -4 84 -19 43 -65 78 -99 78 -11 -1 -36 -8
-55 -18z m-320 -169 c0 -37 -53 -122 -112 -181 -110 -110 -128 -124 -143 -118
-20 7 -19 19 5 41 26 24 26 28 -10 77 -39 53 -40 104 -2 66 9 -9 16 -8 30 5
15 13 25 15 55 6 37 -10 37 -9 99 55 67 69 78 76 78 49z m-632 -139 c1 -10 -7
-34 -18 -52 -17 -28 -23 -32 -35 -22 -21 18 -18 50 7 77 25 26 42 25 46 -3z
m-328 -569 c18 -22 8 -47 -23 -58 -38 -12 -43 -4 -23 38 19 38 27 42 46 20z
m488 -317 c-3 -7 -8 -13 -13 -13 -5 0 -10 6 -12 13 -3 6 3 12 12 12 9 0 15 -6
13 -12z"/>
<path d="M1642 2004 c-40 -47 -47 -49 -83 -22 -21 15 -49 4 -49 -19 0 -10 9
-29 19 -42 16 -21 24 -23 60 -18 48 6 55 -2 66 -74 6 -43 5 -47 -23 -70 -17
-13 -49 -35 -71 -49 -55 -33 -105 -133 -99 -200 6 -62 54 -165 94 -200 69 -60
164 -63 194 -4 18 36 20 185 3 298 -12 80 -5 126 18 126 24 0 115 49 138 74
14 14 29 26 35 26 6 0 27 14 46 30 30 24 32 30 17 35 -24 10 -57 0 -99 -28
-48 -33 -159 -68 -175 -56 -21 18 -32 99 -22 157 8 39 7 57 -2 68 -17 21 -24
18 -67 -32z m48 -376 c18 -83 25 -275 11 -292 -19 -23 -63 -2 -108 52 -46 54
-63 98 -63 157 0 44 29 95 55 95 7 0 23 9 36 20 41 33 56 26 69 -32z"/>
<path d="M455 2016 c-27 -20 -12 -43 34 -51 41 -7 51 -21 30 -42 -13 -13 -4
-33 14 -33 7 0 25 11 42 24 27 22 28 26 17 50 -11 25 -40 42 -98 60 -11 3 -28
0 -39 -8z"/>
<path d="M545 1339 c-97 -74 -241 -151 -317 -170 -46 -11 -48 -13 -48 -45 0
-19 4 -34 9 -34 43 0 257 97 306 138 58 48 158 163 149 171 -5 4 -49 -23 -99
-60z"/>
<path d="M385 1384 c-38 -30 -140 -74 -172 -74 -31 0 -33 -2 -33 -35 0 -32 3
-35 28 -35 35 0 160 61 189 92 40 43 31 85 -12 52z"/>
<path d="M1147 977 c-101 -56 -163 -147 -230 -337 -53 -149 -54 -153 -77 -304
-15 -102 -21 -122 -41 -137 l-24 -19 53 0 52 0 0 34 c0 51 36 254 54 306 9 25
16 51 16 58 0 15 12 44 70 167 70 149 148 210 240 185 71 -19 107 -54 157
-154 60 -120 79 -200 100 -416 l17 -180 34 0 35 0 -7 113 c-14 216 -52 382
-122 525 -52 105 -110 164 -180 181 -65 16 -84 14 -147 -22z"/>
<path d="M1720 935 c0 -4 7 -20 16 -37 13 -25 20 -29 42 -25 14 3 34 0 44 -6
24 -16 47 5 29 27 -18 21 -131 56 -131 41z"/>
<path d="M247 713 c-12 -11 -7 -75 8 -133 20 -72 37 -295 24 -326 -5 -14 -17
-27 -26 -31 -10 -4 -31 -15 -48 -25 l-30 -18 113 0 c106 0 112 1 112 20 0 11
7 23 15 26 13 6 29 -2 81 -41 23 -17 27 3 8 36 -13 23 -31 36 -59 43 l-40 12
0 64 c0 36 6 114 13 174 10 81 10 112 2 120 -17 16 -47 -25 -55 -74 -4 -22
-10 -40 -14 -40 -12 0 -31 72 -31 114 0 49 -50 103 -73 79z"/>
<path d="M1202 633 c-30 -57 -132 -399 -132 -443 0 -6 13 -10 29 -10 24 0 29
5 34 32 14 73 48 182 61 197 8 9 18 36 22 60 4 27 18 57 36 77 22 25 29 41 26
66 -3 29 -7 33 -35 36 -23 2 -34 -2 -41 -15z"/>
</g>
</svg>
