<?xml version="1.0" standalone="no"?>
<!DOCTYPE svg PUBLIC "-//W3C//DTD SVG 20010904//EN"
 "http://www.w3.org/TR/2001/REC-SVG-20010904/DTD/svg10.dtd">
<svg version="1.0" xmlns="http://www.w3.org/2000/svg"
 width="347.000000pt" height="379.000000pt" viewBox="0 0 347.000000 379.000000"
 preserveAspectRatio="xMidYMid meet">
<metadata>
Created by potrace 1.16, written by Peter Selinger 2001-2019
</metadata>
<g transform="translate(0.000000,379.000000) scale(0.100000,-0.100000)"
fill="#000000" stroke="none">
<path d="M783 3073 c-9 -21 -20 -76 -24 -123 -11 -115 -27 -232 -35 -253 -7
-20 12 -47 34 -47 8 0 30 12 49 26 18 14 82 42 141 63 59 21 122 46 139 55 18
9 40 16 50 16 24 0 108 84 99 99 -10 15 -41 14 -55 -3 -7 -8 -24 -17 -39 -21
-14 -3 -44 -15 -67 -25 -22 -10 -91 -35 -153 -56 -153 -51 -153 -51 -92 121
32 91 36 141 15 165 -27 29 -44 24 -62 -17z"/>
<path d="M1058 2554 c-36 -44 -38 -51 -38 -117 0 -69 0 -70 -44 -111 -34 -32
-45 -51 -51 -84 -4 -24 -4 -46 -1 -49 3 -3 22 7 42 23 73 58 69 57 103 40 27
-14 30 -20 25 -49 -9 -44 -31 -77 -53 -77 -10 0 -25 -8 -34 -18 -16 -17 -15
-20 6 -40 32 -30 42 -28 94 18 25 22 50 40 56 40 6 0 7 -19 4 -47 -4 -27 -9
-87 -13 -136 -4 -48 -10 -90 -14 -92 -4 -2 -35 1 -68 7 -115 21 -163 -11 -234
-156 -30 -64 -38 -91 -38 -137 0 -122 56 -103 280 94 48 42 97 77 108 77 10 0
35 -11 55 -24 19 -13 46 -27 58 -31 44 -14 96 -44 161 -92 78 -60 170 -117
356 -222 112 -63 135 -73 199 -83 73 -11 108 3 119 48 12 46 -47 84 -76 49
-28 -34 -147 -4 -228 58 -31 24 -92 65 -136 92 -43 26 -126 80 -185 119 -58
40 -142 87 -186 105 -102 42 -115 54 -115 104 0 54 37 265 55 317 8 23 12 46
9 52 -11 18 -55 28 -75 18 -15 -9 -21 -7 -25 5 -11 27 23 63 68 72 51 10 58
27 19 47 -16 9 -32 24 -36 35 -3 11 -12 25 -21 31 -12 10 -18 9 -34 -5 -11
-10 -20 -24 -20 -31 0 -22 -39 -38 -56 -23 -12 10 -14 27 -8 83 3 39 13 81 21
94 13 21 11 42 -5 42 -4 0 -24 -21 -44 -46z m20 -767 c17 -20 -156 -187 -193
-187 -11 0 6 62 30 110 29 58 52 77 95 83 19 2 40 5 46 5 6 1 16 -4 22 -11z"/>
<path d="M864 2524 c-10 -16 -35 -51 -56 -77 -52 -67 -91 -152 -127 -282 -18
-60 -39 -128 -48 -150 -17 -43 -26 -103 -43 -282 -12 -122 -8 -140 36 -170 23
-15 26 -15 42 0 15 15 14 18 -8 41 -21 23 -22 31 -16 88 15 128 25 184 41 238
10 30 23 82 31 116 7 33 22 89 34 125 11 35 20 73 20 83 0 11 6 27 14 35 8 9
28 52 46 96 17 44 40 95 51 114 26 43 9 66 -17 25z"/>
<path d="M183 1925 c0 -348 3 -458 7 -345 4 91 13 221 19 290 10 96 10 167 1
305 -21 326 -28 266 -27 -250z"/>
<path d="M2885 1318 c-48 -45 -58 -99 -23 -122 33 -21 137 -12 146 13 3 9 14
28 24 43 10 14 18 28 18 31 0 7 -107 67 -120 67 -6 0 -26 -15 -45 -32z"/>
</g>
</svg>
