<?xml version="1.0" standalone="no"?>
<!DOCTYPE svg PUBLIC "-//W3C//DTD SVG 20010904//EN"
 "http://www.w3.org/TR/2001/REC-SVG-20010904/DTD/svg10.dtd">
<svg version="1.0" xmlns="http://www.w3.org/2000/svg"
 width="291.000000pt" height="389.000000pt" viewBox="0 0 291.000000 389.000000"
 preserveAspectRatio="xMidYMid meet">
<metadata>
Created by potrace 1.16, written by Peter Selinger 2001-2019
</metadata>
<g transform="translate(0.000000,389.000000) scale(0.100000,-0.100000)"
fill="#000000" stroke="none">
<path d="M202 3687 c-15 -16 -22 -36 -22 -63 l1 -39 27 33 c36 43 95 54 132
24 24 -20 24 -21 5 -27 -80 -25 -163 -90 -152 -119 8 -20 36 -21 44 -1 8 22
103 69 115 57 5 -5 -5 -64 -27 -148 -41 -162 -43 -201 -13 -239 18 -24 26 -27
60 -22 49 7 106 50 113 85 3 15 10 43 15 63 30 114 -26 319 -107 390 -30 26
-41 29 -102 29 -58 0 -71 -3 -89 -23z m229 -224 c21 -71 16 -230 -8 -254 -6
-6 -26 -9 -44 -7 l-34 3 3 70 c1 39 9 90 16 115 8 25 17 62 21 83 8 51 30 47
46 -10z"/>
<path d="M924 3618 c9 -127 37 -333 47 -349 4 -7 11 -10 15 -6 6 6 6 44 -1
237 -1 25 -2 82 -3 128 l-2 82 -31 0 -32 0 7 -92z"/>
<path d="M1210 3702 c0 -16 25 -32 50 -32 25 0 50 16 50 32 0 4 -22 8 -50 8
-27 0 -50 -4 -50 -8z"/>
<path d="M1396 3629 c-12 -56 -14 -85 -7 -92 7 -7 13 -2 19 14 62 161 62 159
29 159 -21 0 -25 -8 -41 -81z"/>
<path d="M1634 3633 c3 -43 8 -127 12 -188 5 -105 15 -141 35 -129 5 3 9 93 9
200 l0 194 -31 0 -30 0 5 -77z"/>
<path d="M2717 3597 c-5 -27 -15 -67 -23 -89 -20 -56 -19 -147 2 -155 30 -11
35 13 32 153 -2 112 -5 129 -11 91z"/>
<path d="M2402 3441 c-12 -62 -12 -72 4 -96 9 -14 26 -31 37 -37 18 -9 25 -6
49 22 39 47 62 100 50 112 -7 7 -19 -3 -37 -32 -38 -61 -53 -48 -70 63 -3 20
-9 37 -13 37 -4 0 -13 -31 -20 -69z"/>
<path d="M181 3257 c-1 -51 2 -68 12 -64 14 5 12 72 -2 109 -8 18 -10 7 -10
-45z"/>
<path d="M1496 3269 c-55 -41 -129 -60 -238 -62 -88 -2 -93 -3 -96 -25 -3 -18
4 -26 34 -38 34 -14 45 -14 113 0 139 28 213 64 232 114 15 39 -2 43 -45 11z"/>
<path d="M1725 2004 c-11 -9 -57 -34 -103 -56 -75 -35 -104 -60 -90 -74 12
-11 107 19 160 51 62 37 75 33 60 -18 -24 -77 -22 -280 4 -384 5 -18 0 -25
-28 -37 -89 -39 -214 -159 -233 -224 -10 -36 39 -78 104 -87 181 -25 252 47
236 239 -4 56 -3 86 4 91 17 10 13 22 -8 28 -15 4 -21 18 -28 63 -9 69 -9 220
2 315 8 76 -3 109 -38 109 -12 0 -31 -8 -42 -16z m54 -604 c11 -49 6 -99 -11
-133 -28 -55 -208 -65 -208 -11 0 8 8 26 17 40 22 35 173 165 183 159 5 -3 13
-27 19 -55z"/>
<path d="M1054 1843 c-78 -94 -124 -242 -105 -334 6 -27 11 -57 11 -67 0 -9
-52 -66 -115 -128 -116 -112 -132 -138 -100 -164 19 -16 11 -23 123 110 48 57
92 105 98 107 7 2 17 -10 22 -27 6 -17 20 -44 32 -59 11 -16 20 -37 20 -46 0
-24 -69 -145 -101 -177 -33 -33 -55 -35 -85 -7 -32 30 -41 5 -10 -26 54 -54
130 -20 202 93 19 28 36 52 39 52 3 0 17 -7 30 -16 31 -20 75 -11 106 22 17
18 20 27 11 36 -9 9 -16 8 -30 -5 -24 -22 -45 -21 -65 1 -26 28 -21 42 33 106
60 69 73 93 66 113 -5 12 -11 11 -37 -9 -34 -25 -59 -50 -88 -88 -16 -21 -21
-22 -35 -11 -22 19 -46 104 -39 144 3 19 -2 49 -11 71 -18 43 -21 77 -7 91 5
6 16 35 26 65 9 30 27 76 41 101 24 46 32 99 16 99 -5 0 -27 -21 -48 -47z"/>
<path d="M255 1792 c-61 -34 -70 -42 -73 -70 l-3 -31 46 26 c81 45 80 25 -7
-149 -26 -52 -38 -89 -38 -119 l0 -42 50 79 c64 103 87 147 111 214 11 30 24
63 30 73 12 22 -5 57 -29 57 -9 0 -48 -17 -87 -38z"/>
<path d="M2607 1354 c-4 -4 -7 -18 -7 -31 0 -29 -50 -129 -84 -170 -26 -31
-34 -63 -17 -63 18 0 113 107 141 158 21 39 26 59 21 80 -7 26 -38 41 -54 26z"/>
<path d="M315 1295 c-16 -8 -38 -16 -48 -19 -22 -7 -20 -49 3 -53 22 -4 97 63
85 75 -6 6 -21 5 -40 -3z"/>
<path d="M180 822 c0 -23 7 -32 36 -46 77 -36 264 -60 279 -35 11 17 0 21 -77
29 -74 8 -173 38 -215 65 -22 15 -23 14 -23 -13z"/>
</g>
</svg>
