<?xml version="1.0" standalone="no"?>
<!DOCTYPE svg PUBLIC "-//W3C//DTD SVG 20010904//EN"
 "http://www.w3.org/TR/2001/REC-SVG-20010904/DTD/svg10.dtd">
<svg version="1.0" xmlns="http://www.w3.org/2000/svg"
 width="167.000000pt" height="315.000000pt" viewBox="0 0 167.000000 315.000000"
 preserveAspectRatio="xMidYMid meet">
<metadata>
Created by potrace 1.16, written by Peter Selinger 2001-2019
</metadata>
<g transform="translate(0.000000,315.000000) scale(0.100000,-0.100000)"
fill="#000000" stroke="none">
<path d="M777 2427 l-36 -32 -16 -159 c-18 -192 -19 -292 -3 -385 7 -39 10
-73 6 -76 -8 -8 -116 -35 -141 -35 -26 0 -47 -17 -47 -37 0 -22 42 -32 91 -21
105 23 108 23 120 -8 6 -16 14 -49 19 -74 12 -68 59 -192 82 -217 l21 -22 -36
-83 c-45 -107 -61 -162 -53 -184 9 -23 17 -12 51 71 34 83 64 135 76 135 5 0
23 -9 41 -20 41 -25 109 -35 136 -21 18 10 20 17 15 68 -7 68 -28 123 -46 123
-24 0 -25 -9 -6 -67 20 -58 14 -83 -18 -83 -23 0 -93 60 -93 80 0 23 58 148
109 235 44 75 50 102 25 112 -21 8 -60 -31 -77 -80 -81 -228 -84 -233 -116
-189 -11 17 -21 36 -21 44 0 8 -4 18 -9 23 -14 16 -51 136 -51 166 0 34 6 39
110 85 53 23 102 53 130 80 48 47 48 64 0 44 -18 -8 -34 -9 -39 -4 -27 30 -41
205 -21 274 22 76 -20 97 -44 23 -13 -40 -14 -67 -5 -163 5 -63 11 -128 12
-145 2 -27 -3 -32 -56 -57 -84 -41 -99 -40 -110 2 -13 49 -11 389 3 458 7 31
20 72 31 90 20 35 25 67 10 76 -4 3 -24 -9 -44 -27z"/>
<path d="M203 2328 c-17 -8 -23 -20 -23 -45 l0 -33 40 20 c21 11 53 20 70 20
40 0 38 11 -9 33 -43 19 -48 20 -78 5z"/>
<path d="M1455 2101 c-23 -10 -65 -87 -65 -122 0 -12 -12 -35 -26 -50 -14 -15
-23 -32 -20 -38 11 -18 58 -12 101 12 35 19 40 28 43 62 3 37 3 39 -15 24 -58
-51 -79 -21 -24 35 23 23 41 51 41 64 0 24 -4 25 -35 13z"/>
<path d="M1462 1819 c-31 -12 -27 -53 6 -57 19 -3 22 1 22 32 0 20 -1 36 -2
35 -2 0 -13 -4 -26 -10z"/>
<path d="M666 1629 c-40 -32 -85 -102 -92 -146 -5 -35 -3 -42 24 -64 16 -13
38 -29 48 -35 18 -10 18 -13 1 -54 -22 -56 -7 -76 22 -29 12 19 21 39 21 45 0
19 38 47 56 40 32 -12 35 7 5 33 l-31 26 14 46 c17 55 11 128 -12 147 -21 16
-25 16 -56 -9z m34 -108 c0 -35 -18 -55 -37 -40 -17 15 -16 30 3 57 19 27 34
20 34 -17z"/>
<path d="M1445 1513 c-68 -98 -154 -182 -191 -189 -19 -3 -34 -10 -34 -14 0
-17 31 -32 54 -26 32 8 116 85 172 158 36 48 45 66 42 94 l-3 34 -40 -57z"/>
<path d="M702 1208 c-7 -7 -12 -16 -12 -21 0 -5 -29 -53 -65 -108 -44 -67 -78
-107 -106 -124 -45 -29 -49 -58 -9 -63 42 -5 113 87 190 247 29 59 30 97 2 69z"/>
</g>
</svg>
