<?xml version="1.0" standalone="no"?>
<!DOCTYPE svg PUBLIC "-//W3C//DTD SVG 20010904//EN"
 "http://www.w3.org/TR/2001/REC-SVG-20010904/DTD/svg10.dtd">
<svg version="1.0" xmlns="http://www.w3.org/2000/svg"
 width="338.000000pt" height="391.000000pt" viewBox="0 0 338.000000 391.000000"
 preserveAspectRatio="xMidYMid meet">
<metadata>
Created by potrace 1.16, written by Peter Selinger 2001-2019
</metadata>
<g transform="translate(0.000000,391.000000) scale(0.100000,-0.100000)"
fill="#000000" stroke="none">
<path d="M3096 3166 c-26 -25 -45 -49 -41 -55 9 -15 38 2 60 35 14 22 22 25
51 21 31 -5 34 -4 34 19 0 41 -47 32 -104 -20z"/>
<path d="M1906 3141 c-10 -16 99 -106 175 -144 133 -66 315 -84 416 -42 50 21
56 19 48 -12 -9 -38 -114 -247 -157 -314 -48 -74 -67 -88 -128 -98 -30 -5 -59
-16 -65 -24 -18 -25 -36 -404 -25 -517 14 -142 12 -291 -6 -395 -12 -72 -13
-98 -4 -115 9 -17 14 -19 26 -9 8 6 14 22 14 35 0 29 16 40 36 23 9 -7 18 -8
23 -3 20 21 71 223 71 282 0 12 5 22 11 22 7 0 8 -23 3 -69 -4 -46 -2 -75 6
-90 9 -18 9 -26 -3 -39 -9 -9 -19 -29 -22 -44 -10 -41 16 -36 68 10 23 21 68
58 100 81 31 23 57 43 57 46 0 14 -21 55 -28 55 -5 0 -27 -16 -51 -36 -23 -20
-45 -34 -48 -31 -9 10 30 111 53 136 27 29 54 22 54 -13 0 -65 44 -22 56 54 6
40 16 54 95 130 77 75 87 88 82 113 -3 15 -9 30 -14 33 -5 3 -34 -22 -65 -55
-31 -34 -61 -61 -68 -61 -7 0 -12 37 -13 116 -3 128 -16 168 -55 162 -25 -4
-37 -28 -14 -28 26 0 36 -34 31 -111 -7 -123 -16 -172 -42 -217 -22 -39 -73
-82 -98 -82 -6 0 -9 48 -7 129 3 124 3 130 -18 141 -16 9 -25 9 -36 -1 -17
-14 -19 -79 -3 -79 12 0 6 -133 -8 -187 -8 -35 -20 -27 -26 18 -10 74 -57 91
-78 29 -6 -16 -15 -30 -20 -30 -21 0 -3 481 20 543 9 24 58 43 73 29 4 -4 -2
-32 -12 -62 -31 -92 -35 -129 -15 -136 42 -16 194 94 249 180 50 79 83 147 91
187 5 29 2 38 -23 62 -17 16 -32 24 -36 19 -11 -18 -66 -190 -66 -207 0 -21
-131 -158 -141 -148 -11 11 22 116 43 140 8 10 18 31 22 46 4 16 45 109 91
207 47 99 85 182 85 185 0 3 16 29 35 58 34 50 41 79 29 111 -9 24 -20 20 -87
-31 -67 -50 -118 -70 -212 -82 -48 -7 -78 -4 -155 15 -118 30 -158 46 -226 89
-55 36 -78 42 -88 26z m372 -1338 c-8 -99 -34 -203 -52 -203 -5 0 -6 31 -2 77
3 42 6 99 6 128 0 38 6 60 21 79 11 14 24 24 28 22 4 -3 3 -49 -1 -103z"/>
<path d="M222 3088 c-30 -38 -42 -94 -41 -197 1 -107 3 -107 25 -4 8 40 49 57
138 58 59 0 91 -5 118 -19 44 -21 71 -15 66 16 -7 51 -181 95 -244 61 -39 -20
-56 -11 -44 22 20 53 8 94 -18 63z"/>
<path d="M610 2906 c0 -35 -5 -123 -11 -196 -9 -102 -8 -150 1 -205 l12 -71
-31 -46 c-18 -26 -40 -72 -51 -102 -10 -30 -34 -88 -54 -128 -19 -40 -56 -120
-81 -177 -25 -57 -55 -117 -68 -135 -12 -17 -50 -86 -84 -153 l-63 -122 0
-107 c0 -93 2 -105 15 -94 8 7 15 24 15 38 0 41 44 151 130 324 45 90 90 177
100 193 10 17 39 84 64 150 26 66 62 156 80 200 19 44 37 90 40 102 4 11 18
28 31 37 28 19 31 33 12 69 -11 20 -13 73 -9 232 3 178 2 209 -12 230 -26 40
-36 29 -36 -39z"/>
<path d="M453 2765 c-22 -22 -47 -37 -75 -42 -37 -7 -43 -12 -43 -33 0 -24 2
-25 65 -24 44 0 79 7 105 20 36 17 40 23 38 54 -1 33 -24 61 -47 59 -6 0 -25
-16 -43 -34z"/>
<path d="M430 2467 c0 -39 -33 -133 -56 -158 -12 -14 -31 -19 -67 -19 -41 0
-53 5 -76 29 -16 17 -33 49 -38 73 -10 41 -11 38 -12 -43 -1 -82 0 -88 24
-103 34 -22 142 -32 188 -17 42 14 117 92 117 121 0 11 -11 43 -25 70 -14 27
-25 56 -25 65 0 8 -7 15 -15 15 -10 0 -15 -10 -15 -33z"/>
</g>
</svg>
