<?xml version="1.0" standalone="no"?>
<!DOCTYPE svg PUBLIC "-//W3C//DTD SVG 20010904//EN"
 "http://www.w3.org/TR/2001/REC-SVG-20010904/DTD/svg10.dtd">
<svg version="1.0" xmlns="http://www.w3.org/2000/svg"
 width="225.000000pt" height="313.000000pt" viewBox="0 0 225.000000 313.000000"
 preserveAspectRatio="xMidYMid meet">
<metadata>
Created by potrace 1.16, written by Peter Selinger 2001-2019
</metadata>
<g transform="translate(0.000000,313.000000) scale(0.100000,-0.100000)"
fill="#000000" stroke="none">
<path d="M1650 2168 c-1 -2 -2 -27 -4 -55 -2 -29 -9 -60 -16 -68 -8 -9 -18
-49 -24 -88 -15 -96 -35 -98 -56 -5 -15 69 -39 106 -60 93 -6 -4 -8 -14 -4
-24 10 -24 24 -116 30 -202 5 -86 -6 -129 -35 -129 -31 0 -34 -17 -7 -35 13
-9 26 -28 29 -43 6 -30 -44 -194 -61 -200 -6 -2 -29 33 -52 78 -44 83 -87 130
-121 130 -26 0 -24 -26 5 -45 22 -14 76 -117 76 -144 0 -7 18 -28 40 -49 l40
-37 -25 -100 c-14 -55 -25 -119 -25 -142 l0 -42 -51 -3 c-43 -2 -55 -8 -72
-30 -28 -38 -11 -78 32 -78 60 0 159 34 268 91 62 32 115 54 118 50 7 -12
-160 -345 -202 -404 -29 -39 -33 -50 -23 -62 7 -8 22 -15 34 -15 24 1 75 77
114 170 13 30 36 83 53 118 16 35 29 65 29 67 0 2 11 28 24 57 14 29 28 66 31
81 8 29 18 39 98 87 81 50 112 129 61 152 -24 11 -28 9 -54 -22 -16 -19 -32
-32 -35 -28 -4 4 -3 29 3 55 20 93 22 111 7 123 -16 14 -21 7 -30 -47 -3 -22
-16 -49 -27 -60 -11 -10 -28 -34 -38 -53 -26 -49 -94 -113 -116 -108 -17 3
-19 16 -22 146 -2 92 1 142 8 142 5 0 10 -7 10 -15 0 -20 78 -105 97 -105 31
0 21 31 -42 126 -39 60 -65 109 -65 126 0 14 14 87 30 160 64 280 77 388 45
388 -8 0 -15 -1 -15 -2z m-138 -875 c0 -27 0 -55 0 -63 -1 -8 -3 -42 -5 -74
-2 -48 -7 -62 -25 -74 -41 -27 -44 -4 -17 125 14 67 25 124 25 127 0 3 5 6 10
6 6 0 11 -21 12 -47z"/>
<path d="M1166 2022 c-4 -7 -8 -130 -9 -274 -1 -183 -5 -262 -13 -265 -6 -2
-28 21 -47 50 -38 57 -100 98 -119 79 -7 -7 12 -37 58 -94 123 -149 113 -119
114 -339 0 -107 1 -207 1 -224 0 -16 -3 -120 -8 -230 -9 -199 -7 -225 23 -225
38 0 42 80 44 800 2 732 3 684 -18 711 -13 15 -21 19 -26 11z"/>
<path d="M180 1623 c0 -187 4 -322 9 -313 5 8 16 62 26 118 13 80 16 148 14
296 -4 190 -10 226 -40 226 -5 0 -9 -146 -9 -327z"/>
<path d="M726 1031 c-4 -6 10 -19 31 -31 21 -11 46 -26 55 -32 15 -11 22 -9
40 10 36 35 15 56 -60 60 -33 2 -63 -2 -66 -7z"/>
</g>
</svg>
