<?xml version="1.0" standalone="no"?>
<!DOCTYPE svg PUBLIC "-//W3C//DTD SVG 20010904//EN"
 "http://www.w3.org/TR/2001/REC-SVG-20010904/DTD/svg10.dtd">
<svg version="1.0" xmlns="http://www.w3.org/2000/svg"
 width="223.000000pt" height="304.000000pt" viewBox="0 0 223.000000 304.000000"
 preserveAspectRatio="xMidYMid meet">
<metadata>
Created by potrace 1.16, written by Peter Selinger 2001-2019
</metadata>
<g transform="translate(0.000000,304.000000) scale(0.100000,-0.100000)"
fill="#000000" stroke="none">
<path d="M1825 2353 c-33 -9 -68 -42 -97 -91 -33 -56 -35 -92 -8 -117 20 -18
21 -18 44 4 13 12 28 39 35 60 14 48 32 63 68 59 20 -2 34 -14 50 -43 31 -54
39 -88 62 -250 36 -256 35 -259 -29 -268 -46 -6 -115 -33 -114 -44 0 -4 4 -21
9 -37 6 -24 4 -33 -13 -47 -27 -21 -28 -29 -2 -29 11 0 47 25 81 56 40 37 67
54 81 52 19 -3 21 -11 25 -80 2 -54 0 -79 -9 -84 -7 -5 -44 -11 -82 -14 -40
-3 -71 -10 -73 -17 -6 -18 52 -44 112 -50 l52 -6 7 -75 c3 -41 6 -123 7 -181
0 -58 4 -115 9 -126 5 -12 9 204 9 508 l1 527 -35 108 c-41 127 -54 148 -109
173 -43 19 -48 20 -81 12z"/>
<path d="M1003 2233 c-3 -10 -13 -26 -21 -35 -11 -14 -13 -33 -8 -90 14 -157
17 -285 9 -322 -10 -46 -22 -51 -132 -60 -59 -4 -74 -2 -94 15 -31 24 -36 24
-63 -2 -18 -17 -21 -26 -13 -40 20 -38 64 -50 170 -48 55 1 102 -1 106 -4 3
-4 -6 -50 -20 -104 -59 -220 -80 -321 -81 -387 -1 -43 3 -71 10 -73 15 -5 20
8 54 142 16 61 47 166 68 235 22 69 43 141 46 161 4 20 14 43 24 52 22 20 133
57 169 57 16 0 44 8 63 19 19 10 49 21 67 25 38 9 58 30 49 52 -5 12 -13 15
-34 10 -15 -4 -46 -11 -70 -16 -57 -13 -66 -19 -52 -35 7 -8 9 -19 5 -25 -9
-15 -26 -2 -23 18 2 12 -4 17 -22 17 -19 0 -25 -5 -25 -22 0 -31 -12 -38 -25
-14 -8 15 -20 21 -45 21 -18 0 -37 5 -41 12 -4 7 -7 44 -5 82 2 62 -12 161
-39 281 -5 23 -7 50 -4 62 7 26 -14 41 -23 16z"/>
<path d="M792 2077 c-25 -27 -28 -50 -8 -67 12 -9 21 -7 45 11 33 24 39 47 19
67 -18 18 -32 15 -56 -11z"/>
<path d="M1720 2050 c0 -5 5 -10 10 -10 6 0 10 5 10 10 0 6 -4 10 -10 10 -5 0
-10 -4 -10 -10z"/>
<path d="M1603 1963 c-4 -9 6 -89 22 -177 28 -162 35 -231 55 -541 11 -163 24
-225 45 -215 6 3 10 106 9 280 0 233 -4 296 -22 413 -35 218 -40 237 -69 248
-32 12 -33 12 -40 -8z"/>
<path d="M1814 1779 c-10 -17 13 -36 27 -22 12 12 4 33 -11 33 -5 0 -12 -5
-16 -11z"/>
<path d="M193 1733 c-14 -5 -18 -63 -5 -63 16 0 82 52 77 61 -6 9 -51 11 -72
2z"/>
<path d="M1145 1410 c-8 -13 115 -192 129 -187 27 9 -9 121 -50 159 -26 23
-72 39 -79 28z"/>
<path d="M203 1328 c-18 -9 -23 -20 -23 -50 0 -21 2 -38 5 -38 14 0 62 30 79
49 15 17 16 23 6 36 -14 17 -35 18 -67 3z"/>
<path d="M605 918 c-63 -16 -117 -21 -252 -22 l-173 -1 0 -32 c0 -31 2 -33 38
-35 147 -6 276 10 397 49 85 27 108 40 99 54 -7 11 -12 11 -109 -13z"/>
<path d="M245 220 c-8 -16 -15 -31 -15 -35 0 -3 20 -5 45 -5 25 0 45 2 45 5 0
18 -33 65 -45 65 -8 0 -21 -13 -30 -30z"/>
</g>
</svg>
