<?xml version="1.0" standalone="no"?>
<!DOCTYPE svg PUBLIC "-//W3C//DTD SVG 20010904//EN"
 "http://www.w3.org/TR/2001/REC-SVG-20010904/DTD/svg10.dtd">
<svg version="1.0" xmlns="http://www.w3.org/2000/svg"
 width="265.000000pt" height="334.000000pt" viewBox="0 0 265.000000 334.000000"
 preserveAspectRatio="xMidYMid meet">
<metadata>
Created by potrace 1.16, written by Peter Selinger 2001-2019
</metadata>
<g transform="translate(0.000000,334.000000) scale(0.100000,-0.100000)"
fill="#000000" stroke="none">
<path d="M1044 2377 c-33 -13 -94 -76 -94 -98 0 -7 15 1 33 18 75 71 113 71
165 1 51 -69 83 -140 118 -263 26 -90 29 -115 28 -240 0 -77 -5 -156 -11 -175
-78 -252 -97 -310 -110 -338 -16 -32 -13 -50 6 -38 16 10 80 161 115 271 8 28
22 73 31 100 9 28 19 100 22 160 5 92 2 126 -16 205 -42 182 -89 288 -160 361
-50 52 -70 58 -127 36z"/>
<path d="M1498 1883 c-32 -37 -53 -200 -25 -191 7 3 14 30 17 66 3 33 10 66
17 73 28 28 52 -6 126 -175 39 -91 39 -97 -1 -120 -11 -6 -36 -24 -56 -39 -20
-16 -53 -31 -76 -34 -54 -8 -55 -33 -1 -33 26 0 63 12 108 35 63 33 69 35 80
19 7 -10 15 -34 18 -53 3 -20 10 -55 15 -79 16 -67 13 -75 -45 -132 -30 -30
-55 -58 -55 -62 0 -16 20 -7 53 22 19 17 39 30 45 30 15 0 26 -63 19 -108 -22
-142 -27 -157 -57 -182 -40 -33 -39 -52 2 -48 70 7 108 123 108 327 l0 83 86
96 c102 112 129 165 144 285 21 153 9 154 -167 20 -53 -41 -92 -64 -113 -65
-29 -3 -32 0 -50 49 -28 78 -68 147 -113 192 -45 46 -57 49 -79 24z m482 -223
c0 -72 -45 -163 -121 -242 -43 -45 -72 -69 -77 -63 -11 12 -34 117 -36 159 -1
26 12 39 108 112 60 46 113 81 117 78 5 -3 9 -23 9 -44z"/>
<path d="M2303 1885 c-61 -43 -133 -223 -119 -296 9 -48 41 -89 70 -89 24 0
76 35 76 50 0 5 -19 8 -42 7 -41 -2 -43 -1 -57 40 -15 41 -14 43 25 119 21 42
53 93 71 113 29 33 33 35 47 20 9 -8 19 -39 23 -67 7 -59 17 -67 27 -21 11 58
7 105 -12 122 -23 21 -81 22 -109 2z"/>
<path d="M931 1825 c-41 -35 -74 -82 -66 -95 4 -7 25 5 51 30 54 50 85 52 125
9 22 -24 29 -41 29 -73 0 -49 -19 -107 -47 -144 -17 -23 -22 -25 -36 -14 -22
19 -40 6 -27 -18 17 -32 11 -48 -25 -70 -41 -25 -46 -43 -10 -34 29 7 31 -2
10 -53 -21 -49 -19 -102 6 -175 27 -82 52 -130 91 -173 42 -48 81 -67 131 -63
l42 3 -1 -46 c-1 -25 -16 -86 -32 -134 -17 -49 -29 -92 -26 -97 8 -13 41 -9
53 6 17 21 49 188 53 276 3 64 1 75 -14 78 -10 2 -30 -6 -44 -17 -36 -29 -57
-26 -99 11 -81 70 -143 263 -113 350 30 89 52 71 82 -64 4 -16 12 -28 19 -28
14 0 37 54 37 89 0 12 10 45 21 72 21 48 21 50 4 69 -10 11 -24 20 -31 20 -23
0 -25 18 -9 65 21 64 19 115 -8 166 -24 45 -48 62 -103 73 -25 6 -38 2 -63
-19z m159 -330 c15 -18 9 -50 -9 -50 -19 0 -36 29 -28 49 8 20 21 21 37 1z"/>
<path d="M2380 1680 c0 -5 5 -10 10 -10 6 0 10 5 10 10 0 6 -4 10 -10 10 -5 0
-10 -4 -10 -10z"/>
<path d="M2366 1608 c-3 -13 -6 -95 -6 -184 l0 -161 -72 -36 c-78 -39 -147
-91 -136 -102 4 -4 45 12 91 36 111 57 118 54 111 -53 -13 -179 -33 -270 -74
-335 -21 -33 -1 -50 37 -31 46 22 69 123 88 391 7 87 8 89 36 99 39 13 42 58
5 58 -14 0 -27 4 -31 9 -3 5 -10 82 -17 170 -11 154 -19 188 -32 139z"/>
<path d="M1330 920 c-39 -49 -18 -55 28 -7 35 36 39 47 18 47 -8 0 -29 -18
-46 -40z"/>
</g>
</svg>
