<?xml version="1.0" standalone="no"?>
<!DOCTYPE svg PUBLIC "-//W3C//DTD SVG 20010904//EN"
 "http://www.w3.org/TR/2001/REC-SVG-20010904/DTD/svg10.dtd">
<svg version="1.0" xmlns="http://www.w3.org/2000/svg"
 width="264.000000pt" height="368.000000pt" viewBox="0 0 264.000000 368.000000"
 preserveAspectRatio="xMidYMid meet">
<metadata>
Created by potrace 1.16, written by Peter Selinger 2001-2019
</metadata>
<g transform="translate(0.000000,368.000000) scale(0.100000,-0.100000)"
fill="#000000" stroke="none">
<path d="M1401 2936 c-17 -21 -49 -188 -53 -276 -3 -64 -1 -75 14 -78 10 -2
30 6 44 17 36 29 57 26 99 -11 81 -70 143 -263 113 -350 -30 -89 -52 -71 -82
65 -4 15 -12 27 -19 27 -14 0 -37 -54 -37 -89 0 -12 -10 -45 -21 -72 -21 -48
-21 -50 -4 -69 10 -11 24 -20 31 -20 23 0 25 -18 8 -70 -21 -65 -14 -128 19
-179 20 -30 35 -41 73 -50 54 -14 74 -5 127 61 44 54 24 67 -29 18 -54 -50
-85 -52 -125 -9 -22 24 -29 41 -29 73 0 49 19 107 47 144 17 23 22 25 36 14
22 -19 40 -6 27 18 -17 32 -11 48 25 70 41 25 46 43 10 34 -29 -7 -31 2 -10
53 21 49 19 102 -6 175 -27 82 -52 130 -91 173 -42 48 -81 67 -131 63 l-42 -3
1 46 c1 25 16 86 32 134 17 49 29 92 26 97 -8 13 -41 9 -53 -6z m139 -771 c15
-18 9 -50 -9 -50 -19 0 -36 29 -28 49 8 20 21 21 37 1z"/>
<path d="M280 2877 c-33 -17 -55 -85 -69 -223 -6 -60 -16 -152 -22 -205 -6
-63 -6 -118 0 -160 5 -35 13 -117 17 -181 3 -65 10 -118 14 -118 15 0 20 48
20 206 l0 161 73 36 c77 39 146 91 135 102 -4 4 -45 -12 -91 -36 -110 -56
-119 -52 -112 43 15 188 34 283 67 331 19 26 19 57 1 57 -4 0 -19 -6 -33 -13z"/>
<path d="M878 2733 c-47 -57 -68 -151 -68 -310 l0 -85 -86 -96 c-102 -112
-129 -165 -144 -285 -21 -153 -9 -154 167 -20 53 41 92 64 113 65 29 3 32 0
50 -49 10 -28 30 -74 45 -102 29 -53 100 -131 120 -131 32 0 65 86 65 170 0
67 -24 44 -30 -28 -3 -33 -10 -66 -17 -73 -28 -28 -52 6 -126 175 -39 91 -39
97 1 120 11 6 36 24 56 39 20 16 53 31 76 34 54 8 55 33 1 33 -26 0 -63 -12
-108 -35 -63 -33 -69 -35 -80 -19 -7 10 -15 34 -18 53 -3 20 -10 55 -15 79
-16 67 -13 75 45 132 30 30 55 58 55 62 0 16 -20 7 -53 -22 -19 -16 -39 -30
-45 -30 -15 0 -26 63 -19 108 22 142 27 157 57 182 17 14 30 31 30 38 0 18
-55 15 -72 -5z m-39 -534 c26 -119 29 -112 -93 -205 -60 -46 -113 -81 -117
-78 -17 10 -9 85 17 148 18 47 44 85 92 136 37 38 71 69 76 67 6 -2 17 -32 25
-68z"/>
<path d="M1242 2707 c-35 -36 -39 -47 -18 -47 8 0 29 18 46 40 39 49 18 55
-28 7z"/>
<path d="M1416 2373 c-15 -15 -80 -176 -110 -268 -8 -27 -22 -72 -31 -100 -9
-27 -19 -100 -22 -160 -5 -92 -2 -126 16 -205 42 -182 89 -288 160 -361 50
-52 70 -58 127 -36 33 13 94 76 94 98 0 7 -15 -1 -32 -18 -76 -71 -114 -71
-166 0 -51 68 -83 139 -118 262 -26 90 -29 115 -28 240 0 77 5 156 11 175 6
19 30 96 53 170 22 74 48 148 56 163 8 16 14 33 14 38 0 11 -14 12 -24 2z"/>
<path d="M296 2099 c-37 -29 -33 -38 16 -36 41 2 43 1 57 -40 15 -41 14 -43
-25 -119 -21 -42 -53 -93 -71 -113 -29 -33 -33 -35 -47 -20 -9 8 -19 39 -23
67 -9 76 -23 63 -23 -21 0 -83 8 -97 60 -97 47 0 72 19 114 89 68 111 82 225
35 285 -25 31 -57 33 -93 5z"/>
<path d="M200 1940 c0 -5 5 -10 10 -10 6 0 10 5 10 10 0 6 -4 10 -10 10 -5 0
-10 -4 -10 -10z"/>
<path d="M2446 1198 c-13 -41 -13 -96 -1 -123 13 -28 13 -25 14 53 1 76 -4
101 -13 70z"/>
<path d="M1395 300 c-6 -10 -1 -61 11 -102 3 -12 15 -18 33 -18 l28 0 -12 63
c-9 51 -15 63 -32 65 -12 2 -24 -2 -28 -8z"/>
</g>
</svg>
