<?xml version="1.0" standalone="no"?>
<!DOCTYPE svg PUBLIC "-//W3C//DTD SVG 20010904//EN"
 "http://www.w3.org/TR/2001/REC-SVG-20010904/DTD/svg10.dtd">
<svg version="1.0" xmlns="http://www.w3.org/2000/svg"
 width="505.000000pt" height="368.000000pt" viewBox="0 0 505.000000 368.000000"
 preserveAspectRatio="xMidYMid meet">
<metadata>
Created by potrace 1.16, written by Peter Selinger 2001-2019
</metadata>
<g transform="translate(0.000000,368.000000) scale(0.100000,-0.100000)"
fill="#000000" stroke="none">
<path d="M4815 2842 c-139 -75 -257 -177 -299 -259 -9 -18 -20 -33 -25 -33 -4
0 -11 29 -14 65 -12 127 -74 162 -115 66 -14 -34 -13 -35 18 -61 l32 -26 0
-129 c-1 -139 -24 -328 -67 -535 -60 -295 -80 -496 -51 -535 11 -16 16 -17 29
-6 11 9 17 37 20 99 5 101 31 282 51 356 31 112 53 232 75 398 7 49 23 103 45
150 18 40 42 97 52 126 11 30 34 72 52 93 39 46 136 117 205 150 45 22 47 25
47 66 0 24 -1 43 -2 42 -2 0 -25 -13 -53 -27z"/>
<path d="M1953 2788 c-6 -7 -13 -33 -16 -58 -7 -51 -19 -113 -42 -220 -18 -85
-14 -114 23 -152 51 -54 103 -31 282 123 102 88 251 127 285 76 20 -31 29
-106 17 -138 -9 -23 -132 -107 -334 -228 -42 -25 -112 -105 -128 -145 -21 -55
-12 -88 35 -138 40 -43 49 -48 88 -48 54 0 100 33 183 135 81 100 118 160 165
272 32 75 52 109 89 146 54 52 80 60 80 24 0 -46 -40 -139 -171 -394 -180
-349 -205 -403 -219 -452 -14 -53 -8 -71 24 -71 29 0 54 30 116 140 65 117
126 169 233 198 107 30 162 -70 138 -251 -28 -211 -152 -444 -246 -463 -37 -7
-85 26 -85 59 0 47 31 120 71 167 23 28 39 53 36 57 -9 9 -114 -84 -154 -136
-18 -23 -38 -60 -44 -82 -11 -35 -10 -43 7 -66 11 -14 43 -39 72 -56 45 -25
59 -28 98 -22 156 23 356 433 325 665 -11 81 -25 117 -59 153 -44 47 -78 60
-135 53 -62 -9 -98 -26 -164 -82 -28 -24 -54 -44 -57 -44 -13 0 -5 28 12 43
10 9 28 38 41 64 12 27 28 59 36 73 7 14 34 65 59 113 25 49 53 98 61 110 8
12 15 33 15 47 0 14 9 38 20 55 28 43 37 128 16 160 -11 16 -24 24 -34 21 -9
-2 -38 -7 -64 -11 l-48 -6 0 41 c0 33 -7 48 -37 81 -32 33 -46 41 -90 46 -103
12 -203 -38 -356 -176 -60 -55 -85 -71 -108 -71 -18 0 -32 6 -36 16 -7 19 25
189 42 224 21 41 27 102 12 130 -14 29 -39 37 -54 18z m472 -554 c-33 -75
-102 -176 -169 -247 -48 -51 -58 -58 -87 -55 -24 2 -38 11 -48 30 -14 24 -14
30 2 63 30 63 76 111 141 149 35 21 74 49 87 63 30 32 80 64 90 57 5 -3 -3
-30 -16 -60z"/>
<path d="M1090 2631 c-45 -24 -59 -41 -106 -126 -109 -199 -189 -409 -195
-515 -5 -87 0 -108 36 -146 33 -35 37 -36 82 -30 67 9 120 44 236 156 108 104
163 152 212 186 35 24 123 54 158 54 37 0 113 -56 161 -119 100 -132 140 -255
141 -436 0 -109 -3 -128 -32 -211 -68 -196 -144 -304 -217 -304 -18 0 -39 -7
-46 -16 -11 -12 -10 -18 6 -33 40 -39 66 -35 135 20 57 45 71 64 121 163 32
61 58 118 58 127 0 9 10 38 22 65 17 38 22 75 26 169 4 113 3 126 -28 230 -44
146 -77 210 -160 304 -82 93 -129 117 -210 108 -86 -10 -147 -49 -316 -199
-183 -164 -229 -198 -267 -198 -62 0 -65 108 -7 272 64 181 145 333 212 400
84 84 72 128 -22 79z"/>
<path d="M4840 2520 c-14 -4 -46 -8 -72 -9 -95 -2 -127 -40 -74 -90 23 -21 26
-22 53 -7 17 8 51 20 76 27 46 11 47 12 47 50 0 22 -1 39 -2 38 -2 -1 -14 -5
-28 -9z"/>
<path d="M4785 2293 c-73 -6 -86 -12 -101 -49 -26 -61 -14 -64 116 -27 61 17
65 20 68 51 4 35 9 33 -83 25z"/>
<path d="M1185 1740 c-4 -6 -2 -17 4 -24 7 -9 9 -34 5 -68 -14 -116 31 -268
84 -289 15 -6 35 -15 44 -20 30 -15 97 -10 136 10 69 36 142 127 142 177 0 96
-55 138 -197 153 -67 7 -105 17 -144 38 -30 15 -57 29 -61 31 -3 2 -9 -2 -13
-8z m174 -123 c9 -8 37 -20 63 -27 58 -15 108 -45 108 -65 0 -20 -57 -83 -91
-101 -47 -24 -96 -18 -130 15 -33 33 -37 71 -15 123 8 18 17 41 20 51 6 20 24
22 45 4z"/>
</g>
</svg>
