<?xml version="1.0" standalone="no"?>
<!DOCTYPE svg PUBLIC "-//W3C//DTD SVG 20010904//EN"
 "http://www.w3.org/TR/2001/REC-SVG-20010904/DTD/svg10.dtd">
<svg version="1.0" xmlns="http://www.w3.org/2000/svg"
 width="195.000000pt" height="390.000000pt" viewBox="0 0 195.000000 390.000000"
 preserveAspectRatio="xMidYMid meet">
<metadata>
Created by potrace 1.16, written by Peter Selinger 2001-2019
</metadata>
<g transform="translate(0.000000,390.000000) scale(0.100000,-0.100000)"
fill="#000000" stroke="none">
<path d="M976 3173 c-14 -21 -35 -69 -47 -107 -12 -38 -43 -114 -69 -170 -62
-132 -116 -287 -107 -309 11 -30 45 -20 71 21 38 60 67 75 119 61 23 -7 57
-23 75 -36 28 -21 32 -30 32 -70 0 -69 -60 -158 -124 -184 -71 -29 -216 -159
-236 -213 -9 -24 -8 -32 4 -44 13 -13 24 -5 98 69 86 87 223 177 253 165 11
-4 15 -21 15 -60 0 -48 -8 -70 -61 -173 -54 -103 -62 -127 -67 -188 -3 -42
-11 -80 -22 -95 -9 -14 -30 -50 -47 -80 -16 -30 -35 -64 -41 -75 -14 -24 -74
-154 -96 -209 -11 -27 -13 -43 -6 -50 14 -14 22 -3 62 74 29 57 37 65 65 68
34 3 113 -34 216 -103 40 -26 61 -35 68 -28 22 22 -207 183 -262 183 -21 0
-33 16 -19 25 6 4 38 63 72 132 58 120 60 128 48 160 -11 32 -9 38 31 106 110
187 137 257 124 325 -5 26 -14 37 -41 48 -19 8 -34 16 -34 19 0 3 14 24 31 48
28 38 30 48 27 99 -3 43 -10 64 -27 82 -32 34 -116 68 -176 72 -27 1 -51 7
-53 12 -3 10 8 33 132 275 82 160 88 187 41 187 -18 0 -32 -11 -49 -37z"/>
<path d="M424 2745 c-21 -13 -68 -34 -104 -45 -121 -40 -140 -51 -140 -87 0
-30 2 -32 23 -24 115 44 260 128 271 157 9 24 -10 23 -50 -1z"/>
<path d="M405 440 c-9 -14 4 -149 17 -174 15 -28 25 -7 33 69 6 66 5 71 -18
93 -17 16 -27 20 -32 12z"/>
</g>
</svg>
