<?xml version="1.0" standalone="no"?>
<!DOCTYPE svg PUBLIC "-//W3C//DTD SVG 20010904//EN"
 "http://www.w3.org/TR/2001/REC-SVG-20010904/DTD/svg10.dtd">
<svg version="1.0" xmlns="http://www.w3.org/2000/svg"
 width="162.000000pt" height="263.000000pt" viewBox="0 0 162.000000 263.000000"
 preserveAspectRatio="xMidYMid meet">
<metadata>
Created by potrace 1.16, written by Peter Selinger 2001-2019
</metadata>
<g transform="translate(0.000000,263.000000) scale(0.100000,-0.100000)"
fill="#000000" stroke="none">
<path d="M465 2210 c-16 -27 -85 -301 -85 -340 0 -71 89 76 139 229 24 74 26
92 9 109 -14 14 -54 16 -63 2z"/>
<path d="M260 1697 c0 -7 -18 -38 -40 -67 l-41 -54 3 -116 c3 -111 4 -115 26
-118 19 -3 22 1 22 32 0 68 20 137 43 146 50 20 288 37 472 35 230 -4 230 -4
128 -113 -59 -63 -74 -74 -114 -81 -26 -4 -63 -21 -84 -37 -36 -27 -45 -29
-124 -29 -47 0 -112 2 -145 5 -49 4 -60 2 -70 -13 -9 -15 -6 -22 17 -41 23
-19 46 -25 115 -30 48 -3 90 -10 93 -14 4 -4 10 -106 14 -227 7 -223 17 -356
30 -387 10 -26 -16 -23 -75 7 -27 14 -56 25 -65 25 -9 0 -27 7 -40 16 -23 15
-25 15 -32 -1 -7 -21 37 -63 102 -96 22 -12 47 -27 55 -34 8 -7 38 -20 66 -28
28 -8 65 -22 82 -31 17 -9 88 -39 158 -67 l127 -51 101 4 c88 3 109 7 161 33
32 17 61 36 63 43 5 17 -41 15 -86 -4 -21 -9 -68 -16 -112 -17 -81 -1 -148 18
-264 74 -127 61 -156 79 -162 104 -10 39 4 91 34 126 28 33 155 99 191 99 11
0 26 10 32 22 10 18 8 24 -7 35 -22 16 -27 16 -89 -1 -47 -12 -97 -40 -157
-85 -37 -29 -50 -27 -41 7 5 15 7 63 6 107 -8 274 -6 309 17 327 12 10 32 18
45 18 32 0 88 41 105 77 8 17 33 45 55 61 62 45 162 157 168 188 7 37 -22 70
-73 84 -46 13 -406 5 -556 -11 -140 -16 -149 -13 -141 46 4 27 3 45 -3 45 -6
0 -10 -6 -10 -13z"/>
<path d="M1395 1085 c-35 -72 -36 -77 -21 -100 10 -16 26 -25 41 -25 25 0 25
0 25 100 0 55 -2 100 -4 100 -2 0 -20 -34 -41 -75z"/>
<path d="M274 776 c-40 -63 -95 -368 -72 -409 17 -32 32 -12 65 84 48 141 66
242 51 293 -16 57 -23 62 -44 32z"/>
<path d="M1382 550 c-69 -16 -69 -54 -1 -63 54 -7 59 -4 59 39 0 36 -3 37 -58
24z"/>
</g>
</svg>
