<?xml version="1.0" standalone="no"?>
<!DOCTYPE svg PUBLIC "-//W3C//DTD SVG 20010904//EN"
 "http://www.w3.org/TR/2001/REC-SVG-20010904/DTD/svg10.dtd">
<svg version="1.0" xmlns="http://www.w3.org/2000/svg"
 width="250.000000pt" height="345.000000pt" viewBox="0 0 250.000000 345.000000"
 preserveAspectRatio="xMidYMid meet">
<metadata>
Created by potrace 1.16, written by Peter Selinger 2001-2019
</metadata>
<g transform="translate(0.000000,345.000000) scale(0.100000,-0.100000)"
fill="#000000" stroke="none">
<path d="M1108 2483 c-16 -37 -21 -70 -22 -138 -1 -51 3 -92 9 -95 6 -3 15 22
22 55 7 33 26 91 43 129 23 53 28 72 19 82 -23 28 -49 16 -71 -33z"/>
<path d="M1669 2379 c-9 -18 -7 -25 14 -48 25 -25 89 -171 102 -230 7 -34 30
-58 40 -42 3 6 -1 58 -10 117 -16 111 -45 172 -97 209 -29 20 -35 19 -49 -6z"/>
<path d="M1953 2387 c-50 -19 -62 -35 -38 -53 11 -8 29 -12 40 -9 43 14 162
17 183 6 29 -16 62 -82 62 -125 0 -61 -14 -82 -63 -94 -24 -7 -75 -25 -112
-42 -37 -16 -75 -30 -85 -30 -10 0 -23 -7 -30 -15 -16 -20 3 -45 35 -45 32 0
131 36 164 60 44 31 54 26 48 -20 -3 -22 -2 -42 3 -45 16 -10 42 36 76 134
l35 102 -21 63 c-20 62 -43 92 -87 115 -28 14 -169 13 -210 -2z"/>
<path d="M1863 2193 c-7 -18 6 -34 42 -48 25 -11 53 -12 136 -3 114 11 142 21
137 46 -3 15 -21 17 -157 17 -110 0 -155 -3 -158 -12z"/>
<path d="M1135 2150 c-207 -36 -255 -54 -235 -89 6 -12 2 -21 -16 -36 -47 -38
-69 -191 -27 -183 12 2 21 21 29 61 6 32 21 68 33 81 11 12 21 27 21 33 0 21
56 48 115 54 33 3 94 13 135 22 41 9 107 18 145 19 l70 3 -2 -42 c-1 -23 -11
-63 -22 -89 -42 -94 15 -76 60 19 42 90 39 136 -12 162 -40 21 -110 17 -294
-15z"/>
<path d="M181 1933 c-1 -229 4 -261 30 -211 17 31 5 350 -15 403 -14 37 -15
25 -15 -192z"/>
<path d="M1106 1948 c-9 -12 -16 -26 -16 -31 0 -5 -8 -21 -19 -35 -41 -58 -65
-110 -82 -181 -21 -81 -24 -117 -10 -125 13 -8 26 13 46 74 17 52 61 137 133
257 17 28 28 54 25 57 -15 15 -63 5 -77 -16z"/>
<path d="M2067 1914 c-16 -13 -41 -24 -57 -24 -25 0 -38 -12 -87 -76 -159
-210 -241 -364 -194 -364 5 0 27 28 50 63 44 68 84 108 146 149 78 52 130 63
93 21 -42 -48 -118 -254 -118 -320 0 -51 70 -85 100 -48 14 17 5 36 -15 29 -8
-4 -18 1 -21 10 -10 25 35 171 78 254 21 40 38 79 38 86 0 8 7 19 15 26 13 11
30 10 92 -4 43 -9 84 -23 93 -30 35 -30 40 -28 40 12 0 36 -3 40 -42 56 -54
22 -200 32 -252 17 -22 -6 -42 -8 -44 -6 -3 2 21 32 52 65 60 66 80 96 68 103
-4 3 -20 -6 -35 -19z"/>
<path d="M1195 1830 c-11 -18 5 -29 73 -49 167 -50 222 -49 174 2 -39 41 -228
77 -247 47z"/>
<path d="M200 1662 c-17 -14 -21 -26 -18 -60 l3 -44 34 24 c50 34 59 53 37 77
-23 25 -28 26 -56 3z"/>
<path d="M1185 1640 c-3 -5 -17 -10 -30 -10 -24 0 -61 -39 -122 -130 -16 -25
-58 -85 -91 -134 -58 -84 -74 -127 -53 -141 6 -3 18 6 28 20 10 14 41 55 68
90 28 35 66 85 85 111 19 26 66 78 104 115 38 37 65 72 62 78 -9 14 -43 14
-51 1z"/>
<path d="M2127 1493 c-9 -14 -12 -298 -4 -310 16 -26 24 -11 41 75 29 151 31
188 12 217 -16 24 -40 33 -49 18z"/>
<path d="M180 1376 c0 -20 3 -36 8 -36 4 0 32 -16 62 -36 54 -36 109 -49 117
-28 3 9 -35 37 -159 118 l-28 18 0 -36z"/>
<path d="M1140 1401 c0 -4 40 -19 89 -34 77 -24 104 -27 193 -25 94 3 103 5
103 22 0 13 -10 22 -30 28 -38 10 -355 18 -355 9z"/>
<path d="M1207 1229 c-10 -6 -31 -8 -46 -4 -36 8 -49 -10 -27 -34 21 -23 20
-28 -7 -61 -45 -52 -43 -182 1 -188 20 -3 22 1 22 43 0 26 9 63 20 86 12 22
18 48 15 59 -4 12 3 25 21 39 33 26 58 27 94 1 32 -23 48 -77 52 -184 3 -80 7
-76 -102 -101 -83 -20 -97 -27 -78 -42 28 -22 83 -24 123 -3 22 11 41 20 42
20 2 0 8 -12 14 -27 6 -16 13 -23 19 -17 15 15 32 93 40 184 6 73 5 92 -12
132 -23 54 -50 81 -97 97 -42 14 -70 14 -94 0z"/>
<path d="M2312 1150 c0 -14 2 -19 5 -12 2 6 2 18 0 25 -3 6 -5 1 -5 -13z"/>
</g>
</svg>
