<?xml version="1.0" standalone="no"?>
<!DOCTYPE svg PUBLIC "-//W3C//DTD SVG 20010904//EN"
 "http://www.w3.org/TR/2001/REC-SVG-20010904/DTD/svg10.dtd">
<svg version="1.0" xmlns="http://www.w3.org/2000/svg"
 width="329.000000pt" height="364.000000pt" viewBox="0 0 329.000000 364.000000"
 preserveAspectRatio="xMidYMid meet">
<metadata>
Created by potrace 1.16, written by Peter Selinger 2001-2019
</metadata>
<g transform="translate(0.000000,364.000000) scale(0.100000,-0.100000)"
fill="#000000" stroke="none">
<path d="M654 3223 c-7 -22 -9 -26 -65 -110 -103 -154 -189 -311 -196 -358 -8
-62 11 -58 49 10 15 27 40 68 57 90 17 22 60 83 94 135 35 52 80 117 100 143
20 27 37 57 37 67 0 35 -66 55 -76 23z"/>
<path d="M825 3006 c-62 -15 -82 -26 -167 -90 -64 -48 -106 -105 -93 -126 7
-12 61 19 151 87 39 29 76 53 82 53 46 0 -47 -107 -170 -197 -46 -33 -59 -55
-39 -68 16 -9 220 153 313 249 38 38 47 75 23 93 -22 15 -34 15 -100 -1z"/>
<path d="M490 2760 c-9 -6 -10 -10 -3 -10 6 0 15 5 18 10 8 12 4 12 -15 0z"/>
<path d="M893 2630 c-297 -62 -401 -95 -426 -138 -16 -28 -17 -37 -5 -91 6
-34 17 -60 22 -58 6 2 19 22 31 44 37 75 32 72 265 141 139 42 350 80 370 67
16 -10 6 -67 -18 -102 -10 -15 -34 -50 -52 -78 -64 -95 -182 -213 -214 -215
-26 -1 73 185 118 222 16 13 18 20 9 29 -9 9 -19 7 -45 -9 -62 -39 -89 -74
-158 -204 -33 -63 -59 -82 -131 -92 -48 -7 -97 -45 -84 -65 3 -6 10 -9 15 -6
5 3 18 0 29 -7 16 -10 23 -10 33 0 15 15 38 16 38 1 0 -6 -15 -37 -34 -69 -19
-33 -46 -85 -59 -117 -14 -32 -50 -119 -82 -193 -63 -150 -73 -184 -55 -195
17 -10 39 20 95 126 54 104 94 142 178 168 52 16 76 18 144 11 123 -13 173
-46 252 -165 76 -116 100 -245 44 -245 -30 0 -83 -34 -182 -117 -65 -56 -73
-39 -30 67 32 82 82 254 83 288 1 23 -5 38 -17 46 -30 19 -50 -19 -97 -186
-23 -84 -55 -185 -70 -224 -52 -131 -59 -239 -15 -239 12 0 21 9 25 25 4 15
13 24 21 22 8 -2 18 -4 23 -5 5 -1 20 16 32 38 29 50 149 172 177 181 12 3 36
17 53 30 28 20 34 21 44 9 8 -9 10 -28 6 -51 -6 -28 -3 -39 10 -49 16 -11 17
-19 6 -79 -17 -93 -28 -115 -59 -127 -21 -8 -37 -6 -71 7 -55 20 -74 8 -48
-31 21 -32 54 -45 115 -45 54 0 75 17 106 85 33 72 41 169 21 270 -10 50 -21
111 -26 136 -22 121 -73 223 -152 306 -88 91 -126 106 -273 107 -100 1 -127
-2 -160 -18 -22 -11 -44 -22 -49 -24 -15 -8 4 51 29 88 12 19 40 67 60 105 49
92 48 91 124 130 73 37 219 177 309 297 63 84 85 161 58 203 -18 27 -54 46
-84 44 -9 -1 -122 -23 -249 -49z"/>
<path d="M365 2517 c-17 -13 -18 -24 -11 -133 8 -143 17 -196 33 -201 16 -6
25 80 21 221 -2 71 -7 121 -13 123 -6 2 -19 -3 -30 -10z"/>
<path d="M3063 2387 c-24 -46 -43 -96 -43 -111 0 -39 27 -32 45 11 9 21 23 45
31 54 11 12 14 33 12 73 l-3 57 -42 -84z"/>
<path d="M1393 1836 c-80 -37 -105 -105 -63 -173 34 -57 77 -71 193 -65 47 3
60 27 28 54 -17 13 -40 18 -86 18 -47 0 -66 4 -78 18 -22 24 -21 35 4 58 29
26 78 101 71 108 -8 9 -13 8 -69 -18z"/>
<path d="M2457 1513 c-4 -3 -7 -16 -7 -29 0 -25 24 -42 93 -68 26 -10 88 -48
137 -84 189 -141 219 -161 244 -168 66 -16 51 28 -27 80 -28 20 -86 65 -127
101 -117 103 -228 175 -271 175 -20 0 -39 -3 -42 -7z"/>
<path d="M1650 1156 c0 -28 24 -53 35 -36 8 13 -13 60 -27 60 -4 0 -8 -11 -8
-24z"/>
<path d="M2140 1099 c-9 -17 -8 -25 6 -40 10 -11 27 -19 38 -17 30 4 32 42 4
62 -29 21 -35 20 -48 -5z"/>
</g>
</svg>
