<?xml version="1.0" standalone="no"?>
<!DOCTYPE svg PUBLIC "-//W3C//DTD SVG 20010904//EN"
 "http://www.w3.org/TR/2001/REC-SVG-20010904/DTD/svg10.dtd">
<svg version="1.0" xmlns="http://www.w3.org/2000/svg"
 width="215.000000pt" height="390.000000pt" viewBox="0 0 215.000000 390.000000"
 preserveAspectRatio="xMidYMid meet">
<metadata>
Created by potrace 1.16, written by Peter Selinger 2001-2019
</metadata>
<g transform="translate(0.000000,390.000000) scale(0.100000,-0.100000)"
fill="#000000" stroke="none">
<path d="M180 3666 l0 -54 93 -6 c175 -11 353 -17 572 -21 262 -5 866 -23
1018 -31 l107 -6 0 86 0 86 -895 0 -895 0 0 -54z"/>
<path d="M1466 2582 c-3 -5 21 -27 52 -49 31 -22 89 -69 127 -103 87 -77 127
-105 238 -165 l87 -47 0 36 c0 21 -5 36 -12 36 -25 0 -157 87 -270 177 -134
107 -204 143 -222 115z"/>
<path d="M695 2560 c-62 -14 -171 -28 -278 -38 -102 -10 -124 -19 -113 -48 6
-15 17 -16 99 -10 50 3 135 13 187 22 112 18 228 12 261 -15 26 -21 58 -153
58 -241 0 -79 -20 -190 -74 -400 -23 -94 -74 -217 -102 -251 -24 -28 -28 -29
-116 -29 -122 0 -212 -17 -245 -45 -37 -32 -20 -50 40 -41 23 4 125 10 225 14
189 7 220 15 193 47 -7 8 -18 15 -25 15 -7 0 -18 6 -24 14 -10 11 -8 17 9 29
30 21 66 93 86 170 26 105 32 104 117 -25 95 -144 97 -148 97 -202 0 -89 -28
-118 -128 -129 -37 -4 -65 -2 -91 9 -28 11 -44 12 -64 5 -34 -13 -35 -41 -3
-78 22 -26 30 -28 93 -27 85 0 187 27 229 59 85 65 66 194 -52 357 -84 115
-124 183 -124 209 1 41 35 102 91 161 44 46 65 60 111 73 55 16 58 15 108 -6
56 -24 73 -20 44 12 -30 33 -54 43 -129 50 -80 8 -101 0 -154 -55 -19 -20 -39
-36 -43 -36 -4 0 -8 47 -8 105 0 131 -14 198 -54 253 -45 64 -130 91 -221 72z"/>
<path d="M1931 2111 c-17 -38 -38 -74 -45 -80 -9 -8 -31 -5 -80 10 -79 25
-160 20 -154 -9 2 -13 19 -19 68 -24 36 -4 83 -11 105 -15 35 -8 40 -13 37
-34 -7 -57 -7 -64 3 -68 6 -3 12 4 13 13 2 10 24 48 48 84 40 60 44 71 44 129
0 35 -2 63 -4 63 -1 0 -17 -31 -35 -69z"/>
<path d="M659 2017 c-20 -15 -106 -42 -184 -57 -118 -24 -150 -39 -127 -62 14
-14 206 5 272 25 25 8 63 19 85 23 46 10 57 35 29 65 -19 22 -51 24 -75 6z"/>
<path d="M1927 1854 c-3 -4 -43 -12 -89 -18 -72 -10 -83 -15 -83 -32 0 -17 7
-19 80 -19 112 0 135 8 135 45 0 22 -5 30 -18 30 -10 0 -21 -3 -25 -6z"/>
<path d="M1915 1706 c-51 -20 -89 -43 -114 -69 -23 -25 -23 -28 -13 -111 5
-49 18 -102 30 -125 11 -21 26 -57 31 -79 13 -48 38 -71 85 -79 35 -5 36 -5
36 25 0 25 -3 29 -20 25 -20 -5 -50 12 -50 29 0 5 16 18 35 29 27 16 35 27 35
50 0 34 -8 36 -44 8 -27 -21 -56 -20 -56 3 1 7 5 45 10 83 8 64 7 72 -12 92
-27 29 -13 48 51 67 38 11 47 17 49 39 4 30 -5 32 -53 13z"/>
</g>
</svg>
