<?xml version="1.0" standalone="no"?>
<!DOCTYPE svg PUBLIC "-//W3C//DTD SVG 20010904//EN"
 "http://www.w3.org/TR/2001/REC-SVG-20010904/DTD/svg10.dtd">
<svg version="1.0" xmlns="http://www.w3.org/2000/svg"
 width="235.000000pt" height="408.000000pt" viewBox="0 0 235.000000 408.000000"
 preserveAspectRatio="xMidYMid meet">
<metadata>
Created by potrace 1.16, written by Peter Selinger 2001-2019
</metadata>
<g transform="translate(0.000000,408.000000) scale(0.100000,-0.100000)"
fill="#000000" stroke="none">
<path d="M782 2828 c-7 -7 -12 -24 -12 -39 0 -15 -4 -39 -10 -53 -5 -14 -6
-58 -2 -103 5 -60 11 -78 23 -81 16 -3 28 38 34 113 1 11 12 46 24 78 22 56
22 59 5 78 -20 22 -44 25 -62 7z"/>
<path d="M1831 2532 c-18 -34 -13 -56 23 -95 22 -24 43 -37 59 -37 34 0 57
-10 57 -24 0 -6 -19 -34 -43 -61 -23 -28 -55 -69 -71 -93 -16 -24 -49 -55 -73
-69 -48 -28 -49 -30 -27 -61 16 -23 67 -31 79 -12 3 6 17 10 31 10 14 0 35 5
47 12 12 6 45 15 72 20 129 20 170 33 170 53 0 30 -99 43 -155 21 -50 -20 -84
-20 -100 -1 -14 17 19 59 163 207 51 53 86 97 83 105 -9 22 -51 15 -91 -17
-29 -23 -48 -30 -83 -30 -41 0 -49 4 -88 46 -40 44 -43 45 -53 26z"/>
<path d="M990 2493 c-25 -8 -92 -22 -150 -32 -194 -34 -272 -83 -141 -89 48
-2 73 2 104 17 27 14 45 17 57 11 17 -9 46 -4 140 24 30 9 99 18 152 20 81 3
101 1 127 -15 53 -32 59 -60 31 -142 -14 -40 -37 -86 -53 -104 -24 -27 -26
-35 -17 -53 12 -22 30 -19 30 6 0 8 6 14 13 14 24 0 53 44 80 122 36 102 35
146 -2 182 -15 15 -50 34 -76 42 -62 18 -235 17 -295 -3z"/>
<path d="M520 2415 c-9 -11 -14 -67 -18 -188 -5 -188 3 -240 34 -245 17 -2 20
3 20 30 0 18 3 87 6 153 7 136 -2 257 -18 262 -6 2 -17 -3 -24 -12z"/>
<path d="M965 2308 c-3 -29 -4 -66 -3 -82 3 -25 0 -29 -25 -30 -16 -1 -40 -15
-59 -33 -27 -27 -29 -34 -18 -47 18 -22 37 -20 43 5 4 16 10 19 29 14 32 -10
62 -41 55 -58 -3 -8 -25 -18 -51 -21 -26 -4 -46 -13 -46 -20 0 -20 22 -36 50
-36 37 0 57 -19 63 -62 6 -39 0 -53 -17 -39 -6 5 -25 12 -43 15 -64 14 -50
-39 20 -72 l44 -21 6 -178 c7 -221 28 -381 61 -455 49 -111 66 -81 38 64 -25
129 -41 316 -39 473 l2 120 30 1 c28 0 30 3 27 31 -2 25 2 35 22 48 60 39 37
124 -58 213 -65 61 -86 100 -86 161 0 34 -14 61 -31 61 -4 0 -10 -24 -14 -52z
m121 -235 c23 -17 31 -30 25 -36 -12 -12 -71 28 -71 49 0 20 6 18 46 -13z m40
-131 c-8 -25 -34 -36 -52 -21 -18 15 -19 53 -1 46 8 -3 20 -1 28 4 19 11 32
-4 25 -29z"/>
<path d="M755 2109 c-4 -6 -4 -31 0 -57 9 -66 69 -126 90 -92 3 5 -8 39 -24
74 -17 35 -31 69 -31 75 0 14 -27 14 -35 0z"/>
<path d="M1900 2018 c-5 -13 -11 -36 -15 -51 -6 -32 -26 -41 -122 -60 -36 -6
-68 -18 -70 -25 -14 -35 64 -61 105 -34 21 14 25 13 39 -1 14 -13 14 -24 3
-81 -7 -37 -17 -69 -22 -72 -5 -3 -38 4 -72 17 -62 21 -96 21 -96 -1 0 -36
120 -90 201 -90 63 0 102 21 140 78 25 36 29 53 29 107 0 106 -44 98 -55 -10
-8 -68 -38 -114 -69 -102 -22 8 -20 35 5 104 28 74 55 113 80 113 37 0 13 82
-33 114 -30 21 -37 20 -48 -6z"/>
<path d="M1704 1536 c-3 -9 -4 -22 -1 -30 8 -20 87 -55 142 -62 75 -10 77 -16
44 -85 -16 -32 -29 -62 -29 -66 0 -4 -22 -50 -49 -103 -55 -108 -97 -230 -88
-254 13 -34 34 -15 51 48 10 35 23 74 30 87 58 107 76 146 76 162 0 9 6 20 14
23 8 3 18 18 21 34 3 15 17 38 31 51 14 13 32 40 40 59 8 19 27 44 41 56 37
30 22 44 -46 44 -54 0 -241 33 -262 46 -5 3 -12 -2 -15 -10z"/>
<path d="M1910 1248 c0 -6 57 -67 128 -135 l127 -123 3 42 c3 39 0 45 -59 104
-34 35 -88 77 -120 94 -61 32 -79 37 -79 18z"/>
<path d="M370 1234 c-25 -7 -78 -13 -117 -13 l-73 -1 0 -30 c0 -34 3 -35 100
-19 70 11 162 48 157 63 -5 14 -18 15 -67 0z"/>
</g>
</svg>
