<?xml version="1.0" standalone="no"?>
<!DOCTYPE svg PUBLIC "-//W3C//DTD SVG 20010904//EN"
 "http://www.w3.org/TR/2001/REC-SVG-20010904/DTD/svg10.dtd">
<svg version="1.0" xmlns="http://www.w3.org/2000/svg"
 width="221.000000pt" height="347.000000pt" viewBox="0 0 221.000000 347.000000"
 preserveAspectRatio="xMidYMid meet">
<metadata>
Created by potrace 1.16, written by Peter Selinger 2001-2019
</metadata>
<g transform="translate(0.000000,347.000000) scale(0.100000,-0.100000)"
fill="#000000" stroke="none">
<path d="M1228 2747 c-41 -38 -52 -108 -44 -287 3 -86 11 -194 16 -241 5 -46
10 -179 10 -295 0 -167 3 -214 14 -223 19 -16 44 -4 62 30 19 38 199 173 219
165 8 -3 15 -10 15 -15 0 -5 -68 -76 -152 -158 -83 -81 -199 -195 -258 -253
-142 -140 -249 -300 -250 -373 0 -23 7 -31 35 -43 19 -7 46 -14 60 -14 34 0
206 66 350 135 66 31 149 68 185 80 36 13 83 31 105 39 81 31 218 16 254 -28
12 -14 11 -19 -4 -36 -9 -10 -29 -20 -43 -22 -38 -4 -38 -26 -1 -42 40 -17 54
-13 97 27 55 53 36 114 -51 156 -60 29 -200 29 -275 1 -29 -11 -60 -20 -69
-20 -8 0 -75 -29 -147 -64 -72 -35 -142 -67 -156 -71 -14 -4 -45 -18 -70 -30
-25 -12 -65 -26 -90 -30 -25 -4 -53 -12 -63 -17 -10 -5 -25 -7 -33 -4 -27 10
40 130 179 317 17 23 27 29 45 24 22 -5 84 16 187 66 22 10 59 25 83 34 44 15
226 108 251 129 26 20 42 73 31 101 -14 36 -53 33 -145 -11 -111 -53 -118 -35
-22 59 94 92 109 137 55 170 -24 16 -121 -27 -222 -99 -49 -35 -93 -61 -97
-58 -5 3 -9 76 -10 162 0 86 -4 198 -9 247 -5 50 -13 159 -16 242 -6 137 -5
153 10 159 21 8 54 -14 126 -86 47 -47 59 -66 65 -101 4 -24 12 -50 17 -57 16
-18 38 4 38 39 0 37 -47 145 -85 193 -31 41 -140 126 -161 126 -6 0 -22 -10
-36 -23z m372 -1016 c0 -13 -107 -85 -188 -125 -60 -30 -73 -34 -78 -21 -4 10
10 33 36 63 60 66 82 82 105 76 11 -3 32 -1 45 5 31 12 80 14 80 2z"/>
<path d="M355 2620 c3 -5 11 -10 16 -10 6 0 7 5 4 10 -3 6 -11 10 -16 10 -6 0
-7 -4 -4 -10z"/>
<path d="M203 2603 c-21 -14 -23 -23 -22 -92 0 -42 3 -69 6 -61 3 8 26 33 50
56 23 22 43 45 43 51 0 13 -39 63 -48 62 -4 0 -17 -7 -29 -16z"/>
<path d="M180 2228 c1 -84 3 -108 11 -95 6 10 8 25 5 33 -3 8 1 34 9 57 21 59
19 94 -5 107 -19 10 -20 8 -20 -102z"/>
<path d="M467 2323 c-10 -9 -9 -57 2 -106 5 -23 15 -71 22 -107 13 -72 32
-110 55 -110 27 0 26 28 -1 147 -36 158 -55 200 -78 176z"/>
<path d="M373 2149 c-6 -8 -14 -29 -18 -48 -9 -43 -65 -104 -126 -139 -45 -25
-49 -30 -49 -64 0 -21 4 -38 10 -38 14 0 170 107 208 143 40 38 43 88 9 131
-18 23 -25 26 -34 15z"/>
<path d="M283 1461 c-33 -21 -70 -42 -82 -46 -17 -5 -21 -14 -21 -46 0 -21 2
-39 4 -39 22 0 80 31 115 62 37 32 51 38 80 36 33 -3 36 -6 39 -36 3 -32 4
-33 45 -30 35 2 43 7 45 26 4 28 -40 82 -81 100 -48 20 -81 14 -144 -27z"/>
<path d="M1396 1128 c-49 -140 -60 -199 -45 -243 15 -40 51 -49 69 -16 12 24
14 301 1 301 -5 0 -16 -19 -25 -42z"/>
<path d="M181 984 c0 -11 3 -14 6 -6 3 7 2 16 -1 19 -3 4 -6 -2 -5 -13z"/>
</g>
</svg>
