<?xml version="1.0" standalone="no"?>
<!DOCTYPE svg PUBLIC "-//W3C//DTD SVG 20010904//EN"
 "http://www.w3.org/TR/2001/REC-SVG-20010904/DTD/svg10.dtd">
<svg version="1.0" xmlns="http://www.w3.org/2000/svg"
 width="274.000000pt" height="294.000000pt" viewBox="0 0 274.000000 294.000000"
 preserveAspectRatio="xMidYMid meet">
<metadata>
Created by potrace 1.16, written by Peter Selinger 2001-2019
</metadata>
<g transform="translate(0.000000,294.000000) scale(0.100000,-0.100000)"
fill="#000000" stroke="none">
<path d="M791 2288 c-28 -24 -51 -50 -51 -59 0 -23 46 -63 65 -56 8 4 18 20
22 37 8 43 56 76 92 64 45 -16 74 -129 121 -463 l10 -74 -48 -51 c-77 -82
-101 -119 -128 -197 -23 -63 -27 -91 -27 -194 -1 -66 4 -138 11 -160 38 -129
203 -139 270 -18 35 64 56 189 43 259 -6 32 -11 73 -11 93 0 19 -4 48 -9 65
-5 17 -16 63 -26 101 l-16 70 30 25 c37 31 160 78 226 86 87 11 99 44 16 44
-59 0 -179 -31 -225 -58 -45 -27 -51 -19 -66 83 -15 99 -77 350 -96 387 -21
40 -53 58 -105 58 -41 0 -54 -6 -98 -42z m282 -670 c3 -18 12 -76 21 -128 35
-208 6 -372 -70 -400 -36 -14 -60 2 -91 63 -23 45 -26 64 -26 142 0 108 24
190 79 273 69 103 78 108 87 50z"/>
<path d="M2377 2173 c-12 -11 -8 -38 14 -82 38 -79 53 -205 69 -556 12 -282
27 -364 76 -415 l24 -25 0 45 c0 25 -9 72 -19 105 -11 37 -21 109 -25 185 -21
399 -28 493 -43 565 -8 44 -18 95 -20 113 -7 41 -57 85 -76 65z"/>
<path d="M2272 1168 c-31 -34 -162 -231 -162 -245 0 -31 23 -16 85 58 37 44
87 100 111 125 39 39 42 47 32 64 -17 26 -40 25 -66 -2z"/>
</g>
</svg>
