<?xml version="1.0" standalone="no"?>
<!DOCTYPE svg PUBLIC "-//W3C//DTD SVG 20010904//EN"
 "http://www.w3.org/TR/2001/REC-SVG-20010904/DTD/svg10.dtd">
<svg version="1.0" xmlns="http://www.w3.org/2000/svg"
 width="225.000000pt" height="364.000000pt" viewBox="0 0 225.000000 364.000000"
 preserveAspectRatio="xMidYMid meet">
<metadata>
Created by potrace 1.16, written by Peter Selinger 2001-2019
</metadata>
<g transform="translate(0.000000,364.000000) scale(0.100000,-0.100000)"
fill="#000000" stroke="none">
<path d="M1100 3011 c-12 -24 -14 -301 -1 -301 13 0 59 133 76 217 9 47 -13
103 -42 103 -12 0 -27 -9 -33 -19z"/>
<path d="M213 2883 c-32 -4 -33 -6 -33 -49 l0 -44 38 19 c21 11 44 27 51 35
15 18 8 47 -11 44 -7 0 -28 -3 -45 -5z"/>
<path d="M1435 2801 c-55 -21 -154 -64 -220 -96 -66 -31 -149 -68 -185 -80
-36 -13 -83 -31 -105 -39 -81 -31 -218 -16 -254 28 -12 14 -11 19 4 36 9 10
29 20 43 22 38 4 38 26 1 42 -40 17 -54 13 -96 -27 -56 -53 -37 -114 50 -156
60 -29 200 -29 275 -1 29 11 60 20 69 20 8 0 75 29 147 64 72 35 142 67 156
71 14 4 45 18 70 30 25 12 65 26 90 30 25 4 53 12 63 17 10 5 25 7 33 4 27
-10 -40 -130 -179 -317 -17 -23 -27 -29 -45 -24 -22 5 -84 -16 -187 -66 -22
-10 -59 -25 -83 -34 -44 -15 -226 -108 -251 -129 -26 -20 -42 -73 -31 -101 14
-36 53 -33 145 11 111 53 118 35 22 -59 -94 -92 -109 -137 -55 -170 24 -16
121 27 222 99 49 35 93 61 97 58 5 -3 9 -76 10 -162 0 -86 4 -197 9 -247 5
-49 13 -159 16 -242 6 -137 5 -153 -10 -159 -21 -8 -54 14 -126 86 -47 47 -59
66 -65 101 -9 55 -22 74 -41 58 -21 -17 -17 -61 13 -131 34 -80 85 -142 158
-192 55 -38 58 -39 83 -24 17 10 34 35 45 65 15 42 17 70 12 223 -3 96 -10
209 -15 250 -5 41 -9 172 -10 291 0 171 -3 219 -14 228 -19 16 -44 4 -62 -30
-19 -38 -199 -173 -219 -165 -8 3 -15 10 -15 15 0 5 68 76 152 158 83 81 199
195 258 253 142 140 249 300 250 373 0 23 -7 31 -35 43 -51 21 -79 17 -190
-25z m-245 -514 c0 -7 -26 -39 -58 -73 -49 -51 -64 -61 -93 -61 -19 0 -53 -4
-76 -8 -26 -5 -43 -4 -43 2 0 15 85 73 175 120 78 40 95 44 95 20z"/>
<path d="M2017 2513 c-15 -14 -5 -50 23 -83 l30 -34 0 62 c0 58 -1 62 -23 62
-13 0 -27 -3 -30 -7z"/>
<path d="M1954 1865 c-7 -17 41 -234 62 -283 15 -35 36 -38 43 -6 7 35 -41
267 -59 290 -16 18 -39 18 -46 -1z"/>
</g>
</svg>
