<?xml version="1.0" standalone="no"?>
<!DOCTYPE svg PUBLIC "-//W3C//DTD SVG 20010904//EN"
 "http://www.w3.org/TR/2001/REC-SVG-20010904/DTD/svg10.dtd">
<svg version="1.0" xmlns="http://www.w3.org/2000/svg"
 width="244.000000pt" height="340.000000pt" viewBox="0 0 244.000000 340.000000"
 preserveAspectRatio="xMidYMid meet">
<metadata>
Created by potrace 1.16, written by Peter Selinger 2001-2019
</metadata>
<g transform="translate(0.000000,340.000000) scale(0.100000,-0.100000)"
fill="#000000" stroke="none">
<path d="M1105 2630 c-9 -14 4 -149 17 -174 15 -28 25 -7 33 69 6 66 5 71 -18
93 -17 16 -27 20 -32 12z"/>
<path d="M1312 2280 c-57 -21 -228 -105 -252 -125 -20 -16 -180 -95 -263 -130
-52 -22 -70 -26 -80 -16 -9 9 -9 16 1 31 17 28 -3 35 -36 12 -15 -11 -42 -36
-61 -56 -27 -28 -32 -38 -22 -49 16 -20 80 -28 121 -16 59 19 256 116 425 210
261 144 261 121 4 -135 -260 -260 -261 -261 -257 -283 5 -29 62 -29 101 -1 18
14 48 30 67 38 19 7 40 16 45 20 19 14 64 20 70 10 3 -5 -18 -36 -47 -69 -99
-113 -148 -187 -148 -226 0 -44 15 -75 37 -75 13 0 14 7 9 40 -7 46 5 66 123
195 74 81 121 147 121 169 0 44 -105 46 -192 3 -114 -57 -70 1 166 219 76 71
145 142 153 159 7 16 19 37 25 47 9 13 9 20 -1 32 -17 20 -43 19 -109 -4z"/>
<path d="M180 1557 c0 -21 6 -46 12 -57 10 -16 10 -24 0 -40 -16 -27 -17 -59
0 -42 20 20 35 14 47 -19 18 -53 13 -84 -24 -139 -24 -35 -35 -63 -35 -88 l0
-35 24 22 c31 29 83 133 92 183 7 40 -17 96 -86 205 l-30 47 0 -37z"/>
<path d="M1170 1435 c0 -8 5 -15 10 -15 6 0 10 7 10 15 0 8 -4 15 -10 15 -5 0
-10 -7 -10 -15z"/>
<path d="M1165 1360 c-8 -26 10 -83 33 -103 29 -25 76 -29 143 -12 109 29 202
73 208 101 3 19 1 19 -92 -15 -31 -12 -91 -27 -132 -33 -84 -13 -98 -7 -122
50 -15 37 -29 41 -38 12z"/>
</g>
</svg>
