<?xml version="1.0" standalone="no"?>
<!DOCTYPE svg PUBLIC "-//W3C//DTD SVG 20010904//EN"
 "http://www.w3.org/TR/2001/REC-SVG-20010904/DTD/svg10.dtd">
<svg version="1.0" xmlns="http://www.w3.org/2000/svg"
 width="291.000000pt" height="386.000000pt" viewBox="0 0 291.000000 386.000000"
 preserveAspectRatio="xMidYMid meet">
<metadata>
Created by potrace 1.16, written by Peter Selinger 2001-2019
</metadata>
<g transform="translate(0.000000,386.000000) scale(0.100000,-0.100000)"
fill="#000000" stroke="none">
<path d="M920 3672 c0 -26 34 -103 54 -121 35 -33 38 -13 8 62 -18 48 -31 67
-44 67 -10 0 -18 -4 -18 -8z"/>
<path d="M1350 3604 c0 -55 3 -75 12 -72 12 4 17 21 32 111 7 35 5 37 -19 37
-25 0 -25 -1 -25 -76z"/>
<path d="M1904 3638 c3 -24 8 -68 12 -98 4 -30 13 -63 22 -72 21 -25 78 -24
92 2 11 21 7 25 -35 32 -24 4 -33 34 -34 116 l-1 62 -31 0 c-31 0 -31 0 -25
-42z"/>
<path d="M2200 3656 c-5 -13 -14 -52 -20 -86 -13 -70 -2 -113 32 -131 30 -16
47 5 25 29 -22 24 -21 72 2 150 l19 62 -24 0 c-17 0 -27 -8 -34 -24z"/>
<path d="M2330 3601 c0 -78 77 -242 134 -286 46 -35 122 -65 164 -65 48 1 105
46 100 79 l-3 23 -28 -22 c-42 -33 -94 -36 -151 -9 -70 32 -106 90 -185 292
-15 39 -31 33 -31 -12z"/>
<path d="M1695 3095 c-22 -21 -25 -33 -24 -92 0 -75 10 -164 29 -261 9 -47 9
-66 1 -76 -17 -20 -114 -34 -209 -30 -70 3 -84 1 -89 -13 -4 -10 2 -23 18 -36
21 -17 34 -19 101 -14 42 4 102 15 134 26 31 11 60 19 64 16 4 -2 12 -37 19
-77 7 -40 19 -93 26 -118 8 -25 19 -76 25 -115 6 -38 16 -99 22 -135 16 -97
12 -374 -6 -433 -18 -60 -61 -117 -87 -117 -31 0 -96 37 -116 67 -11 16 -32
52 -47 82 -31 60 -30 91 4 191 10 30 15 59 11 63 -12 12 -26 -12 -52 -88 -24
-74 -29 -163 -11 -229 21 -75 104 -146 173 -146 50 0 108 39 133 90 44 88 51
134 50 330 -1 172 -12 279 -44 445 -6 28 -15 85 -21 127 -13 89 -10 97 53 129
21 11 38 26 38 34 0 20 -8 19 -56 -7 -64 -34 -69 -27 -89 126 -16 114 -17 145
-6 201 16 90 3 108 -44 60z"/>
<path d="M1200 3026 c-14 -7 -56 -23 -95 -36 -133 -43 -133 -43 -86 -91 35
-34 47 -36 54 -9 5 21 104 72 120 63 12 -7 3 -40 -45 -168 -79 -213 -87 -224
-139 -181 -33 28 -58 33 -77 14 -23 -23 -14 -48 16 -48 17 0 38 -10 52 -25
l23 -25 -46 -107 c-66 -155 -111 -293 -99 -305 18 -18 30 0 58 85 33 100 97
239 119 257 15 12 18 12 27 -4 5 -9 22 -32 37 -49 15 -18 55 -75 90 -127 97
-144 129 -179 151 -165 6 4 -1 21 -18 43 -15 20 -54 80 -87 132 -33 52 -80
122 -106 155 -57 74 -66 98 -45 131 20 30 136 289 161 361 31 86 0 134 -65 99z"/>
<path d="M2485 2860 c-12 -19 23 -60 51 -60 28 0 89 38 79 49 -4 3 -23 7 -43
7 -21 1 -47 4 -58 8 -13 5 -25 3 -29 -4z"/>
<path d="M2660 2436 c-25 -7 -67 -22 -95 -33 -27 -11 -63 -24 -80 -29 -40 -13
-38 -34 5 -48 30 -9 37 -18 51 -60 18 -60 78 -131 126 -151 52 -22 63 -19 63
15 0 26 -4 30 -26 30 -30 0 -114 76 -114 104 0 13 7 15 39 10 53 -9 101 23
101 68 l0 30 -32 -27 c-23 -20 -39 -25 -58 -21 -15 3 -32 0 -39 -7 -8 -8 -14
-8 -22 0 -20 20 -2 40 43 47 57 9 108 40 108 66 0 23 -7 23 -70 6z"/>
<path d="M2723 1705 c0 -22 2 -30 4 -17 2 12 2 30 0 40 -3 9 -5 -1 -4 -23z"/>
<path d="M2695 1520 c-8 -37 1 -96 20 -130 13 -23 14 -19 15 52 0 78 -6 108
-20 108 -5 0 -11 -14 -15 -30z"/>
<path d="M180 581 c0 -176 5 -225 21 -216 12 8 89 -6 89 -16 0 -5 -7 -9 -15
-9 -23 0 -18 -17 8 -24 32 -8 39 -7 32 4 -3 6 3 10 14 10 10 0 21 -6 24 -12 3
-10 10 -10 32 2 22 12 29 12 32 3 5 -15 39 -17 47 -4 10 15 66 21 86 9 15 -10
22 -9 38 5 10 9 22 17 27 17 4 0 13 7 19 15 9 12 18 13 49 4 37 -10 46 -22 27
-34 -12 -8 -13 -35 -1 -54 8 -13 12 -13 26 -1 14 12 18 12 26 -1 8 -12 10 -12
19 1 8 13 10 13 10 -2 0 -13 8 -16 38 -14 25 2 36 7 34 16 -4 15 17 60 27 60
3 0 15 -7 26 -15 19 -15 19 -15 -3 -31 -23 -16 -30 -58 -12 -69 6 -3 10 5 10
18 0 26 25 44 36 26 3 -5 14 -7 25 -4 22 7 26 -13 7 -34 -11 -11 -9 -13 9 -8
18 4 22 1 20 -17 -2 -18 4 -21 41 -24 31 -2 42 1 42 11 0 7 15 31 33 52 29 34
35 37 55 26 12 -6 22 -18 22 -25 0 -14 46 -16 67 -3 12 7 36 -16 27 -26 -3 -3
-12 -3 -20 0 -20 7 -17 -7 4 -23 38 -29 102 -5 102 39 0 9 5 19 10 22 6 3 10
-1 10 -10 0 -12 6 -15 19 -10 27 8 38 -15 16 -31 -10 -7 -22 -11 -26 -8 -5 3
-9 0 -9 -5 0 -6 14 -11 31 -11 19 0 28 4 24 11 -11 17 25 50 44 40 10 -6 25
-4 41 4 46 24 84 23 95 -2 5 -13 17 -23 27 -23 9 0 19 -4 22 -9 3 -4 18 -6 33
-4 21 3 24 2 14 -6 -11 -7 13 -10 79 -10 62 0 97 5 102 12 6 9 10 8 17 -2 8
-12 12 -12 25 -2 11 9 16 10 16 2 0 -8 106 -11 380 -11 l380 0 0 108 0 109
-172 17 c-95 10 -193 20 -218 22 -104 9 -346 40 -505 65 -33 5 -121 16 -195
24 -190 21 -341 41 -440 59 -47 9 -130 23 -185 32 -55 8 -163 27 -240 41 -77
14 -198 34 -270 44 -71 10 -152 23 -180 29 -27 6 -71 15 -97 19 l-48 8 0 -176z
m30 -157 c0 -8 -4 -14 -10 -14 -5 0 -10 9 -10 21 0 11 5 17 10 14 6 -3 10 -13
10 -21z m80 -19 c0 -8 -4 -15 -10 -15 -5 0 -10 7 -10 15 0 8 5 15 10 15 6 0
10 -7 10 -15z m304 -1 c10 -25 -1 -29 -14 -5 -6 12 -7 21 -1 21 5 0 12 -7 15
-16z m-164 -4 c0 -5 -4 -10 -10 -10 -5 0 -10 5 -10 10 0 6 5 10 10 10 6 0 10
-4 10 -10z m386 -70 c8 0 14 -4 14 -10 0 -12 -57 -13 -64 -1 -8 12 6 22 22 16
7 -3 20 -5 28 -5z m268 -19 c18 -20 12 -51 -10 -51 -8 0 -14 5 -14 10 0 6 -11
10 -25 10 -31 0 -32 13 -2 33 29 21 31 20 51 -2z m56 -1 c0 -5 -4 -10 -10 -10
-5 0 -10 5 -10 10 0 6 5 10 10 10 6 0 10 -4 10 -10z m45 0 c3 -5 -1 -10 -9
-10 -9 0 -16 5 -16 10 0 6 4 10 9 10 6 0 13 -4 16 -10z m535 -76 c0 -8 -5 -12
-10 -9 -6 4 -8 11 -5 16 9 14 15 11 15 -7z m-647 -18 c6 -15 -1 -26 -15 -26
-4 0 -8 9 -8 20 0 23 15 27 23 6z"/>
<path d="M651 336 c-8 -9 -11 -19 -7 -23 9 -9 29 13 24 27 -2 8 -8 7 -17 -4z"/>
<path d="M306 264 c-3 -9 -15 -14 -28 -12 -29 4 -32 -25 -4 -30 11 -2 27 -13
36 -24 11 -14 25 -19 45 -16 l30 3 -22 19 c-12 10 -19 25 -16 33 5 13 -13 43
-27 43 -4 0 -11 -7 -14 -16z"/>
<path d="M770 225 c0 -8 5 -15 10 -15 6 0 10 7 10 15 0 8 -4 15 -10 15 -5 0
-10 -7 -10 -15z"/>
<path d="M410 214 c0 -10 7 -14 22 -12 32 5 35 28 4 28 -17 0 -26 -5 -26 -16z"/>
<path d="M565 220 c-3 -5 1 -10 9 -10 9 0 16 5 16 10 0 6 -4 10 -9 10 -6 0
-13 -4 -16 -10z"/>
<path d="M1595 220 c3 -5 8 -10 11 -10 2 0 4 5 4 10 0 6 -5 10 -11 10 -5 0 -7
-4 -4 -10z"/>
<path d="M630 210 c0 -5 5 -10 10 -10 6 0 10 5 10 10 0 6 -4 10 -10 10 -5 0
-10 -4 -10 -10z"/>
<path d="M220 190 c0 -5 5 -10 10 -10 6 0 10 5 10 10 0 6 -4 10 -10 10 -5 0
-10 -4 -10 -10z"/>
<path d="M845 190 c-3 -5 -1 -10 4 -10 6 0 11 5 11 10 0 6 -2 10 -4 10 -3 0
-8 -4 -11 -10z"/>
<path d="M1588 183 c7 -3 16 -2 19 1 4 3 -2 6 -13 5 -11 0 -14 -3 -6 -6z"/>
</g>
</svg>
