<?xml version="1.0" standalone="no"?>
<!DOCTYPE svg PUBLIC "-//W3C//DTD SVG 20010904//EN"
 "http://www.w3.org/TR/2001/REC-SVG-20010904/DTD/svg10.dtd">
<svg version="1.0" xmlns="http://www.w3.org/2000/svg"
 width="328.000000pt" height="309.000000pt" viewBox="0 0 328.000000 309.000000"
 preserveAspectRatio="xMidYMid meet">
<metadata>
Created by potrace 1.16, written by Peter Selinger 2001-2019
</metadata>
<g transform="translate(0.000000,309.000000) scale(0.100000,-0.100000)"
fill="#000000" stroke="none">
<path d="M2999 2433 c-22 -20 -56 -60 -76 -90 -19 -29 -39 -56 -44 -59 -6 -3
-26 13 -47 35 -40 44 -78 56 -95 30 -18 -28 0 -69 38 -85 34 -14 47 -45 25
-59 -5 -3 -10 -11 -10 -17 0 -25 60 8 120 66 36 35 93 84 128 110 65 49 68 55
52 87 -16 29 -45 23 -91 -18z"/>
<path d="M1465 2390 c-3 -5 1 -20 9 -32 21 -30 20 -50 -5 -82 -20 -25 -20 -29
-6 -43 13 -14 18 -13 46 8 19 14 31 32 31 46 0 13 5 31 11 41 7 12 7 25 0 45
-9 22 -17 27 -45 27 -19 0 -38 -4 -41 -10z"/>
<path d="M3079 2194 c-50 -49 -316 -124 -365 -102 -25 12 -84 -14 -84 -37 0
-27 38 -37 120 -29 83 7 108 1 90 -21 -6 -7 -41 -15 -79 -19 -81 -8 -112 -25
-95 -53 9 -14 25 -18 80 -18 l69 -1 3 -36 c4 -48 -22 -66 -107 -74 -65 -7 -84
-22 -61 -49 37 -44 323 21 399 90 29 27 34 36 24 46 -11 11 -22 9 -60 -10 -26
-13 -72 -25 -102 -29 -49 -5 -54 -3 -48 12 4 10 7 23 7 30 0 25 27 47 70 57
73 16 101 32 98 54 -3 17 -11 20 -53 21 -71 1 -71 1 -45 30 24 24 100 64 125
64 21 0 37 27 33 60 -3 29 -4 30 -19 14z"/>
<path d="M1440 2093 c-14 -2 -63 -13 -110 -24 -65 -16 -90 -27 -107 -47 -19
-24 -24 -26 -43 -14 -13 8 -26 10 -31 5 -11 -12 -29 -95 -22 -106 3 -5 9 -46
14 -90 9 -90 17 -104 48 -88 23 13 27 41 9 70 -8 13 -9 29 -2 52 8 27 16 35
39 39 22 4 29 11 27 24 -2 11 5 20 18 23 17 4 21 12 17 30 -5 29 -5 29 103 43
117 15 243 19 256 9 8 -7 9 -22 2 -52 -7 -30 -6 -62 3 -112 7 -38 14 -74 14
-79 0 -5 -42 -28 -94 -51 -122 -56 -141 -75 -132 -135 7 -51 20 -57 39 -18 14
29 141 108 174 108 20 0 31 -33 26 -76 -2 -21 -9 -30 -26 -32 -13 -2 -28 -15
-35 -29 -10 -24 -8 -28 27 -59 21 -18 35 -38 31 -44 -10 -16 -77 -43 -109 -44
-16 -1 -31 -6 -33 -13 -6 -18 65 -44 111 -41 45 3 42 11 71 -157 43 -251 104
-450 130 -423 3 3 -12 113 -33 244 -58 350 -55 430 18 526 130 172 93 291 -79
258 -23 -5 -25 -1 -38 68 -9 47 -11 89 -5 120 l8 47 89 -3 c76 -3 93 -7 107
-24 23 -26 15 -58 -29 -119 -40 -56 -29 -73 23 -36 56 39 84 85 84 135 0 58
-14 80 -63 103 -37 16 -66 18 -257 17 -118 0 -226 -2 -240 -5z m403 -375 c8
-11 7 -33 -3 -73 -27 -113 -69 -123 -90 -21 -11 56 -3 99 22 109 23 10 61 2
71 -15z"/>
<path d="M2849 1667 c-42 -37 -59 -65 -59 -101 0 -35 -35 -56 -93 -56 -50 0
-87 -13 -87 -31 0 -18 71 -41 106 -35 18 4 35 3 38 -2 6 -10 -4 -68 -34 -197
-24 -105 -42 -304 -31 -355 4 -21 14 -36 24 -38 14 -3 17 4 17 40 0 24 4 59 9
78 5 19 17 80 26 135 9 55 23 118 31 140 8 23 14 57 14 76 0 20 3 39 7 43 5 4
12 26 18 49 l10 42 70 8 c109 11 128 14 158 26 23 9 27 16 27 52 0 41 0 42
-20 24 -23 -21 -206 -43 -222 -27 -7 7 2 31 23 69 20 36 30 66 26 76 -9 23
-16 21 -58 -16z"/>
<path d="M1342 1658 c-39 -39 25 -183 73 -164 13 5 14 9 4 28 -7 13 -15 50
-18 83 -5 50 -9 60 -26 63 -11 1 -26 -3 -33 -10z"/>
<path d="M2973 1129 c-6 -6 -9 -19 -6 -28 9 -23 88 -134 112 -155 21 -19 21
-19 21 30 0 46 -4 55 -51 107 -54 60 -59 63 -76 46z"/>
</g>
</svg>
