<?xml version="1.0" standalone="no"?>
<!DOCTYPE svg PUBLIC "-//W3C//DTD SVG 20010904//EN"
 "http://www.w3.org/TR/2001/REC-SVG-20010904/DTD/svg10.dtd">
<svg version="1.0" xmlns="http://www.w3.org/2000/svg"
 width="262.000000pt" height="280.000000pt" viewBox="0 0 262.000000 280.000000"
 preserveAspectRatio="xMidYMid meet">
<metadata>
Created by potrace 1.16, written by Peter Selinger 2001-2019
</metadata>
<g transform="translate(0.000000,280.000000) scale(0.100000,-0.100000)"
fill="#000000" stroke="none">
<path d="M2244 2265 c-9 -14 -29 -76 -44 -138 -15 -62 -43 -148 -63 -192 -73
-165 -173 -551 -152 -585 9 -15 35 7 35 29 0 9 4 21 9 26 5 6 23 60 40 120 44
155 82 262 140 393 29 64 55 142 61 177 5 34 17 79 26 100 21 50 15 89 -13 93
-15 2 -27 -5 -39 -23z"/>
<path d="M2371 2204 c-12 -15 -21 -43 -22 -63 -2 -74 -8 -167 -14 -209 -6 -39
-12 -47 -59 -77 -58 -37 -66 -49 -66 -101 0 -41 12 -43 52 -9 45 38 53 29 51
-60 -2 -90 -10 -103 -86 -135 -69 -29 -117 -67 -117 -91 0 -29 64 -26 106 6
18 14 43 26 56 27 27 3 26 27 13 -353 -4 -130 -5 -244 -1 -254 12 -32 36 3 36
54 0 25 7 84 15 131 8 47 15 121 15 165 1 154 38 334 76 365 8 7 14 28 14 47
0 31 -2 34 -15 23 -10 -8 -19 -9 -24 -4 -12 13 4 126 23 165 20 40 21 83 1
112 -12 20 -13 40 -3 139 6 63 8 123 5 132 -9 24 -33 20 -56 -10z"/>
<path d="M1096 2151 c-21 -23 -20 -48 2 -60 22 -12 73 -113 75 -149 2 -30 -26
-47 -123 -78 -30 -9 -59 -20 -65 -24 -5 -4 -37 -15 -70 -25 -89 -25 -104 -45
-67 -93 l17 -22 90 39 c174 75 200 85 240 85 32 1 55 12 112 54 40 28 74 52
76 52 10 0 167 107 210 143 59 49 63 72 10 62 -44 -8 -198 -94 -316 -177 -37
-26 -53 -18 -62 29 -10 56 -53 138 -85 161 -27 20 -29 20 -44 3z"/>
<path d="M1508 1919 c-20 -11 -74 -61 -119 -111 -98 -107 -168 -155 -250 -172
-72 -14 -85 -25 -69 -56 11 -20 17 -22 67 -17 66 7 127 41 208 117 33 31 80
71 105 90 82 62 141 124 138 145 -4 27 -35 29 -80 4z"/>
<path d="M711 1827 c-13 -6 -32 -23 -42 -37 -19 -28 -34 -110 -20 -110 5 0 33
15 61 34 55 36 95 89 86 112 -7 17 -53 18 -85 1z"/>
<path d="M1320 1471 c-153 -37 -422 -129 -438 -150 -19 -24 -26 -61 -14 -73
12 -12 77 6 104 29 25 23 38 8 27 -30 -20 -66 -22 -228 -5 -329 9 -54 21 -110
26 -125 5 -15 16 -73 25 -128 17 -108 33 -138 60 -115 12 10 15 23 10 44 -3
17 -10 63 -15 102 -5 38 -16 103 -25 143 -18 86 -20 269 -4 377 17 114 21 117
232 174 197 55 220 64 215 88 -5 27 -69 24 -198 -7z"/>
<path d="M182 1025 c0 -162 3 -238 9 -215 11 46 12 362 0 420 -6 31 -9 -33 -9
-205z"/>
<path d="M2355 699 c-20 -23 -46 -62 -57 -88 -68 -162 -181 -346 -214 -346
-16 0 -19 6 -16 48 3 54 -8 60 -37 18 -16 -22 -21 -44 -21 -90 l0 -62 76 3 77
3 98 195 c100 199 146 300 151 334 5 34 -18 28 -57 -15z"/>
<path d="M2407 578 c-30 -91 -51 -201 -62 -320 l-7 -78 36 0 36 0 0 64 c0 35
7 97 15 138 10 47 15 113 13 177 l-3 102 -28 -83z"/>
<path d="M1871 496 c-11 -14 -35 -105 -61 -236 -5 -25 -12 -53 -15 -63 -6 -13
-2 -17 18 -17 32 0 47 32 83 178 21 83 26 117 18 129 -15 23 -29 26 -43 9z"/>
<path d="M905 380 c-48 -12 -105 -40 -110 -53 -3 -7 -6 -23 -7 -37 -2 -20 1
-24 17 -22 10 2 32 15 48 28 30 26 53 30 77 14 12 -8 9 -15 -22 -42 -20 -18
-44 -45 -53 -60 l-17 -28 80 0 80 0 11 44 c15 60 14 143 -1 153 -17 10 -66 12
-103 3z"/>
<path d="M398 330 c-25 -16 -64 -57 -87 -90 l-42 -60 40 0 c38 0 42 3 61 44
11 24 40 62 65 84 25 22 45 42 45 46 0 15 -40 3 -82 -24z"/>
<path d="M551 244 c-18 -14 -36 -35 -42 -45 -9 -17 -6 -19 30 -19 34 0 42 4
60 36 12 19 21 39 21 45 0 18 -39 9 -69 -17z"/>
</g>
</svg>
