<?xml version="1.0" standalone="no"?>
<!DOCTYPE svg PUBLIC "-//W3C//DTD SVG 20010904//EN"
 "http://www.w3.org/TR/2001/REC-SVG-20010904/DTD/svg10.dtd">
<svg version="1.0" xmlns="http://www.w3.org/2000/svg"
 width="198.000000pt" height="315.000000pt" viewBox="0 0 198.000000 315.000000"
 preserveAspectRatio="xMidYMid meet">
<metadata>
Created by potrace 1.16, written by Peter Selinger 2001-2019
</metadata>
<g transform="translate(0.000000,315.000000) scale(0.100000,-0.100000)"
fill="#000000" stroke="none">
<path d="M935 2569 c-64 -16 -185 -79 -251 -131 -91 -73 -214 -222 -214 -259
0 -9 18 -33 41 -52 l41 -35 4 -434 c5 -453 13 -587 35 -614 20 -25 57 -36 80
-23 23 12 16 29 -11 29 -42 0 -45 25 -46 435 -1 215 -2 456 -4 536 -2 80 0
151 4 158 4 6 16 11 28 11 17 0 18 2 8 15 -21 25 -47 17 -69 -20 -18 -32 -41
-47 -41 -27 0 16 40 85 79 137 52 69 142 137 239 182 100 47 152 53 182 23 19
-19 21 -29 16 -72 -16 -115 -85 -218 -182 -270 -38 -20 -48 -21 -95 -11 l-53
10 29 -23 c17 -13 37 -24 46 -24 28 0 28 -12 0 -49 -15 -20 -41 -65 -56 -101
-26 -58 -28 -75 -27 -163 2 -53 9 -128 18 -165 18 -78 20 -186 5 -234 -58
-180 -60 -192 -26 -204 26 -10 42 13 60 89 20 82 43 133 74 161 24 22 51 15
51 -14 0 -40 19 -60 55 -60 53 0 54 19 2 66 -26 23 -47 45 -47 48 0 12 62 5
91 -10 33 -17 68 -81 69 -125 0 -62 -67 -75 -116 -22 -35 38 -42 20 -10 -26
43 -61 109 -70 158 -20 29 28 30 34 25 85 -7 67 -43 134 -82 153 -54 26 -121
26 -176 1 -56 -27 -65 -23 -74 35 -7 40 -6 41 42 72 28 18 65 33 87 35 36 3
41 7 55 45 14 41 14 43 -8 67 -23 25 -64 38 -88 29 -8 -3 -20 -21 -28 -40 -11
-27 -19 -34 -37 -31 -19 2 -24 10 -26 43 -2 23 -12 49 -24 63 l-22 22 23 48
c27 56 25 54 78 129 34 49 55 67 113 97 63 34 71 41 66 61 -4 17 2 33 20 54
14 17 37 61 49 98 20 56 22 75 15 115 -10 53 -24 80 -50 96 -27 17 -81 22
-125 11z m-12 -844 c-4 -15 -26 -12 -31 3 -3 9 2 13 14 10 11 -2 18 -8 17 -13z"/>
<path d="M1725 2104 c-27 -8 -59 -12 -71 -9 -14 3 -30 -5 -49 -25 l-29 -30 26
-26 c24 -24 27 -25 54 -11 16 8 55 21 87 28 57 14 57 14 57 51 0 43 -1 43 -75
22z"/>
</g>
</svg>
