<?xml version="1.0" standalone="no"?>
<!DOCTYPE svg PUBLIC "-//W3C//DTD SVG 20010904//EN"
 "http://www.w3.org/TR/2001/REC-SVG-20010904/DTD/svg10.dtd">
<svg version="1.0" xmlns="http://www.w3.org/2000/svg"
 width="191.000000pt" height="364.000000pt" viewBox="0 0 191.000000 364.000000"
 preserveAspectRatio="xMidYMid meet">
<metadata>
Created by potrace 1.16, written by Peter Selinger 2001-2019
</metadata>
<g transform="translate(0.000000,364.000000) scale(0.100000,-0.100000)"
fill="#000000" stroke="none">
<path d="M950 2915 c-13 -15 -8 -38 20 -100 10 -22 22 -61 25 -87 13 -85 45
-47 45 52 0 64 -9 90 -43 128 -24 26 -30 27 -47 7z"/>
<path d="M180 2806 c0 -19 5 -38 10 -41 7 -4 7 -12 0 -25 -5 -10 -10 -47 -10
-82 l0 -63 26 38 c37 54 64 118 64 150 0 23 -7 31 -35 43 -49 20 -55 18 -55
-20z"/>
<path d="M1114 2585 c-139 -19 -230 -50 -283 -96 -37 -33 -51 -39 -80 -37 -33
3 -36 6 -39 36 -3 32 -4 33 -45 30 -35 -2 -43 -7 -45 -26 -4 -28 40 -82 81
-99 48 -21 81 -15 144 26 82 53 191 85 361 105 46 6 52 5 52 -12 0 -10 -22
-45 -50 -76 -44 -50 -65 -97 -42 -95 19 1 76 50 121 105 60 73 75 107 61 135
-9 16 -21 19 -78 18 -37 -1 -108 -7 -158 -14z"/>
<path d="M1674 2332 c-32 -30 -56 -62 -64 -87 -7 -22 -17 -46 -23 -53 -8 -10
8 -32 66 -90 l77 -77 0 56 c0 46 -4 59 -25 79 -32 30 -32 67 1 101 21 22 25
34 22 72 l-3 46 -51 -47z"/>
<path d="M1009 2259 c-8 -15 -9 -52 -4 -115 l7 -93 -57 -26 c-62 -27 -170 -99
-222 -148 -40 -37 -44 -84 -12 -128 25 -36 43 -27 54 27 3 19 22 53 41 74 39
43 170 124 186 114 6 -4 7 -36 3 -83 -6 -70 -10 -79 -42 -109 -26 -24 -34 -39
-30 -55 3 -12 -1 -40 -9 -62 -22 -65 -18 -92 16 -110 17 -9 30 -22 30 -30 0
-35 -37 -103 -77 -141 -24 -22 -43 -45 -43 -52 0 -6 10 -23 23 -38 l23 -27 40
25 c22 14 46 33 54 42 7 10 37 29 64 43 70 35 146 92 146 109 0 20 -20 17 -84
-11 -31 -14 -70 -25 -87 -25 -29 0 -30 1 -24 33 10 45 20 54 66 62 32 6 48 16
78 54 42 54 60 98 92 221 31 120 32 140 16 180 -24 55 -49 72 -119 79 l-63 6
-5 86 c-6 106 -33 150 -61 98z m167 -259 c26 -10 27 -12 21 -71 -9 -83 -18
-96 -69 -101 -24 -3 -47 -3 -52 0 -9 5 0 157 10 174 7 11 57 10 90 -2z m-24
-275 c-8 -71 -75 -177 -101 -160 -15 9 -14 79 3 119 15 36 63 77 86 73 10 -2
14 -12 12 -32z"/>
<path d="M1684 1878 c-43 -72 -140 -178 -161 -178 -24 0 -10 -35 15 -38 17 -3
43 17 107 82 l85 86 0 55 c0 30 -2 55 -4 55 -2 0 -20 -28 -42 -62z"/>
<path d="M564 1865 c-7 -17 41 -234 62 -283 15 -35 36 -38 43 -6 7 35 -41 267
-59 290 -16 18 -39 18 -46 -1z"/>
<path d="M755 1260 c3 -5 11 -10 16 -10 6 0 7 5 4 10 -3 6 -11 10 -16 10 -6 0
-7 -4 -4 -10z"/>
</g>
</svg>
