<?xml version="1.0" standalone="no"?>
<!DOCTYPE svg PUBLIC "-//W3C//DTD SVG 20010904//EN"
 "http://www.w3.org/TR/2001/REC-SVG-20010904/DTD/svg10.dtd">
<svg version="1.0" xmlns="http://www.w3.org/2000/svg"
 width="223.000000pt" height="367.000000pt" viewBox="0 0 223.000000 367.000000"
 preserveAspectRatio="xMidYMid meet">
<metadata>
Created by potrace 1.16, written by Peter Selinger 2001-2019
</metadata>
<g transform="translate(0.000000,367.000000) scale(0.100000,-0.100000)"
fill="#000000" stroke="none">
<path d="M1740 2875 c-9 -11 -10 -19 -1 -28 7 -9 8 -44 2 -113 -7 -96 -1 -249
11 -270 4 -5 12 -47 18 -92 l11 -82 -71 -81 c-86 -98 -140 -201 -140 -270 0
-47 21 -79 51 -79 29 0 147 90 184 141 44 59 34 63 110 -47 55 -79 105 -134
121 -134 20 0 17 40 -3 62 -23 26 -55 79 -94 157 -27 52 -30 66 -21 82 10 16
8 21 -18 34 -20 10 -32 27 -39 53 -19 68 -15 84 41 135 36 32 48 51 41 58 -7
7 -23 -1 -53 -26 -24 -20 -46 -32 -50 -28 -5 4 -10 26 -13 48 -3 22 -10 60
-16 85 -14 61 -14 209 1 304 11 73 11 79 -7 92 -25 18 -49 18 -65 -1z m70
-701 c16 -56 5 -82 -77 -185 -58 -72 -96 -100 -115 -81 -18 18 26 137 77 207
24 33 51 70 60 83 24 34 41 27 55 -24z"/>
<path d="M1005 2620 c-17 -37 -17 -50 -7 -138 6 -53 13 -108 14 -122 3 -25 2
-25 -82 -30 -70 -4 -93 -10 -132 -33 -50 -30 -128 -111 -128 -133 0 -7 -12
-26 -26 -43 -32 -38 -26 -61 16 -61 68 0 124 -38 227 -152 77 -86 148 -136
172 -121 23 14 41 159 39 310 -1 67 1 125 4 129 9 9 90 -58 161 -133 56 -59
88 -76 102 -54 3 5 -22 46 -56 90 -48 64 -78 92 -140 132 -44 28 -84 59 -88
68 -14 26 -31 164 -31 252 0 91 -15 105 -45 39z m13 -364 c33 -31 39 -348 8
-391 -11 -15 -15 -14 -43 12 -17 15 -50 51 -74 78 -47 56 -127 120 -175 140
-17 7 -35 18 -38 24 -10 16 69 96 128 131 47 27 56 29 116 24 36 -4 71 -12 78
-18z"/>
<path d="M1955 2110 c-4 -6 -3 -16 3 -22 6 -6 12 -6 17 2 4 6 3 16 -3 22 -6 6
-12 6 -17 -2z"/>
</g>
</svg>
