<?xml version="1.0" standalone="no"?>
<!DOCTYPE svg PUBLIC "-//W3C//DTD SVG 20010904//EN"
 "http://www.w3.org/TR/2001/REC-SVG-20010904/DTD/svg10.dtd">
<svg version="1.0" xmlns="http://www.w3.org/2000/svg"
 width="258.000000pt" height="428.000000pt" viewBox="0 0 258.000000 428.000000"
 preserveAspectRatio="xMidYMid meet">
<metadata>
Created by potrace 1.16, written by Peter Selinger 2001-2019
</metadata>
<g transform="translate(0.000000,428.000000) scale(0.100000,-0.100000)"
fill="#000000" stroke="none">
<path d="M1407 4058 c-63 -80 -78 -107 -75 -135 2 -21 10 -30 33 -36 17 -5 65
-23 107 -39 43 -17 84 -28 92 -25 25 10 30 90 11 187 l-17 90 -59 0 c-56 0
-59 -1 -92 -42z m102 -42 c14 -55 14 -103 1 -111 -14 -8 -70 23 -70 39 0 30
34 116 45 116 7 0 18 -20 24 -44z"/>
<path d="M1798 4057 c-15 -23 -48 -68 -73 -101 -25 -32 -45 -62 -45 -67 0 -5
11 -9 24 -9 17 0 39 18 76 60 76 88 82 90 135 41 59 -55 100 -56 144 -6 17 20
31 45 31 55 0 26 -8 25 -36 -5 -34 -36 -65 -32 -108 15 -20 22 -36 45 -36 50
0 6 -19 10 -42 10 -39 -1 -45 -4 -70 -43z"/>
<path d="M273 3913 c-26 -56 -10 -109 73 -238 85 -133 172 -174 102 -48 -61
109 -148 286 -148 300 0 22 -14 15 -27 -14z"/>
<path d="M1277 2195 c-38 -13 -81 -30 -95 -38 -165 -83 -183 -97 -162 -122 20
-24 46 -18 115 24 36 21 91 48 122 61 32 12 66 26 75 31 26 13 28 12 28 -21 0
-28 -10 -57 -82 -240 -34 -88 -69 -220 -62 -232 8 -12 32 9 40 35 3 12 37 87
75 165 67 140 92 208 102 284 5 32 2 41 -20 58 -33 26 -52 25 -136 -5z"/>
<path d="M2368 2193 c-15 -15 -31 -39 -37 -53 -6 -14 -18 -35 -27 -47 -15 -21
-15 -23 1 -29 12 -5 29 5 57 33 35 35 39 44 36 82 l-3 43 -27 -29z"/>
<path d="M1876 2007 c-33 -43 -46 -80 -46 -131 0 -53 35 -92 74 -82 14 3 27 3
29 -1 3 -5 -3 -39 -14 -78 -32 -123 -22 -155 45 -155 28 0 72 50 105 121 12
26 33 57 47 69 26 25 32 60 10 60 -13 0 -87 -74 -119 -119 -9 -14 -19 -22 -23
-19 -10 11 25 161 56 237 34 82 38 119 14 128 -22 8 -46 -8 -62 -40 -14 -29
-38 -38 -28 -11 8 21 -20 54 -45 54 -10 0 -29 -15 -43 -33z"/>
<path d="M2366 1965 c-48 -83 -113 -176 -181 -258 -36 -44 -65 -83 -65 -88 0
-5 7 -12 15 -16 11 -3 28 9 51 36 20 23 49 48 65 57 17 8 29 23 29 34 0 10 17
39 38 63 69 79 83 110 80 169 l-3 53 -29 -50z"/>
<path d="M887 1743 c-48 -68 -58 -102 -68 -226 -12 -147 1 -276 38 -392 35
-108 67 -154 133 -190 49 -26 63 -29 130 -27 149 5 397 87 417 138 7 19 -25
122 -46 147 -8 9 -23 17 -33 17 -16 0 -17 -3 -7 -21 13 -24 4 -83 -17 -116 -9
-15 -40 -30 -91 -47 -260 -81 -331 -73 -396 47 -42 75 -63 175 -72 342 -5 100
-3 135 13 208 13 55 28 97 41 111 26 27 27 46 3 46 -10 0 -31 -17 -45 -37z"/>
<path d="M2371 1750 c-35 -8 -37 -27 -4 -33 33 -6 36 -5 31 20 -2 15 -9 18
-27 13z"/>
<path d="M1000 1595 c-11 -28 -6 -47 22 -87 21 -30 64 -38 86 -15 7 6 39 26
70 42 31 17 57 37 57 45 0 22 -43 24 -80 4 -33 -17 -33 -17 -65 9 -41 35 -77
35 -90 2z"/>
<path d="M2298 1539 c-28 -16 -21 -39 17 -55 40 -16 41 -23 21 -121 -7 -37
-19 -111 -26 -163 -6 -52 -16 -117 -20 -145 -11 -66 6 -87 64 -83 39 3 41 5
44 40 3 32 0 37 -20 40 -21 3 -23 8 -20 48 2 25 11 77 20 115 9 39 17 124 20
190 3 105 1 121 -14 132 -21 15 -62 16 -86 2z"/>
<path d="M2108 1483 c-8 -10 -26 -38 -38 -63 -12 -25 -32 -56 -45 -70 -12 -14
-35 -54 -50 -90 -15 -36 -38 -87 -51 -114 -28 -59 -31 -104 -8 -113 26 -10 48
11 58 53 5 21 24 78 42 125 19 48 34 92 34 97 0 6 7 15 16 20 9 5 23 27 31 48
37 102 42 141 11 107z"/>
</g>
</svg>
