<?xml version="1.0" standalone="no"?>
<!DOCTYPE svg PUBLIC "-//W3C//DTD SVG 20010904//EN"
 "http://www.w3.org/TR/2001/REC-SVG-20010904/DTD/svg10.dtd">
<svg version="1.0" xmlns="http://www.w3.org/2000/svg"
 width="260.000000pt" height="373.000000pt" viewBox="0 0 260.000000 373.000000"
 preserveAspectRatio="xMidYMid meet">
<metadata>
Created by potrace 1.16, written by Peter Selinger 2001-2019
</metadata>
<g transform="translate(0.000000,373.000000) scale(0.100000,-0.100000)"
fill="#000000" stroke="none">
<path d="M2112 3158 c-5 -7 -17 -28 -27 -47 -17 -33 -17 -35 3 -50 18 -15 19
-22 11 -79 -5 -35 -16 -93 -24 -128 -17 -73 -20 -150 -6 -159 12 -7 21 8 32
49 4 17 22 72 39 121 23 63 34 116 37 176 5 79 4 88 -16 108 -24 24 -35 26
-49 9z"/>
<path d="M252 2877 l-73 -74 3 -56 3 -56 98 93 c98 93 115 124 85 154 -23 23
-44 12 -116 -61z"/>
<path d="M780 2864 c-30 -8 -82 -19 -115 -24 -33 -5 -87 -21 -120 -34 -56 -23
-60 -27 -60 -58 0 -43 25 -47 103 -18 31 12 82 26 112 31 30 5 78 13 105 19
158 33 245 31 245 -6 0 -10 -14 -46 -30 -81 -34 -72 -169 -220 -274 -301 -55
-43 -60 -45 -70 -27 -20 35 -55 65 -75 65 -12 0 -35 -13 -53 -29 -29 -26 -31
-31 -21 -54 7 -15 31 -34 59 -46 53 -24 52 0 15 -211 -26 -151 -36 -368 -21
-450 18 -101 51 -163 105 -200 l48 -33 225 -10 c174 -7 237 -7 276 3 28 7 71
16 95 21 69 14 100 51 66 79 -8 7 -34 48 -57 91 -24 44 -49 79 -55 79 -19 0
-16 -53 7 -112 11 -29 16 -56 12 -60 -23 -23 -441 -38 -542 -19 -70 14 -94 49
-109 157 -15 103 -2 351 27 543 l18 113 70 54 c94 70 293 278 325 340 39 73
42 97 17 129 -36 46 -91 65 -188 64 -47 0 -110 -7 -140 -15z m-145 -504 c0
-22 -39 -19 -43 3 -3 15 1 18 20 15 12 -2 23 -10 23 -18z"/>
<path d="M2401 2779 c-29 -48 -80 -179 -71 -184 16 -10 27 2 60 63 23 43 30
67 28 100 -3 40 -4 41 -17 21z"/>
<path d="M180 2475 c0 -17 15 -40 43 -68 48 -46 66 -92 92 -232 20 -108 52
-350 60 -457 4 -55 12 -91 21 -99 17 -14 20 -7 33 91 23 176 -45 587 -114 692
-27 40 -98 98 -122 98 -7 0 -13 -11 -13 -25z"/>
<path d="M198 2273 c-13 -3 -18 -15 -18 -39 0 -33 12 -45 25 -23 4 5 18 14 32
20 49 18 14 57 -39 42z"/>
<path d="M182 1935 c2 -28 8 -41 21 -43 30 -6 32 27 3 56 l-27 27 3 -40z"/>
<path d="M253 1526 c-68 -29 -73 -33 -73 -63 0 -31 1 -32 27 -22 65 25 143 82
143 106 0 18 -15 15 -97 -21z"/>
</g>
</svg>
