<?xml version="1.0" standalone="no"?>
<!DOCTYPE svg PUBLIC "-//W3C//DTD SVG 20010904//EN"
 "http://www.w3.org/TR/2001/REC-SVG-20010904/DTD/svg10.dtd">
<svg version="1.0" xmlns="http://www.w3.org/2000/svg"
 width="190.000000pt" height="364.000000pt" viewBox="0 0 190.000000 364.000000"
 preserveAspectRatio="xMidYMid meet">
<metadata>
Created by potrace 1.16, written by Peter Selinger 2001-2019
</metadata>
<g transform="translate(0.000000,364.000000) scale(0.100000,-0.100000)"
fill="#000000" stroke="none">
<path d="M684 2905 c-44 -44 -39 -148 9 -193 16 -15 42 -25 76 -29 34 -4 55
-12 59 -21 3 -9 1 -17 -5 -19 -6 -2 -35 -21 -64 -43 -72 -52 -115 -83 -237
-169 -114 -81 -133 -104 -108 -129 14 -15 22 -14 88 2 40 9 114 26 163 36 50
11 115 26 145 34 160 45 184 48 197 30 12 -17 16 -16 55 5 40 22 88 67 88 83
0 22 -41 27 -111 13 -76 -14 -416 -102 -430 -111 -4 -2 -10 0 -13 5 -8 12 84
84 246 193 31 21 59 38 62 38 3 0 29 15 58 33 53 33 176 95 275 137 59 25 88
52 80 74 -12 30 -94 8 -191 -51 -49 -29 -125 -64 -168 -78 -67 -21 -87 -24
-140 -16 -45 6 -66 14 -80 31 -27 33 -23 48 28 97 25 25 43 50 41 56 -2 7 -25
12 -53 12 -37 1 -54 -4 -70 -20z"/>
<path d="M1662 2687 c-44 -45 -43 -80 4 -123 19 -19 40 -34 45 -34 13 0 11 74
-3 88 -9 9 -9 15 0 24 16 16 16 78 -1 78 -7 0 -27 -15 -45 -33z"/>
<path d="M601 2184 c-33 -27 -48 -69 -76 -204 -9 -41 -22 -80 -31 -86 -8 -7
-34 -15 -57 -18 -53 -8 -171 -68 -175 -89 -2 -9 7 -23 20 -31 22 -14 29 -13
87 10 34 14 74 26 89 27 l26 2 0 -200 c1 -183 3 -204 23 -247 24 -53 67 -88
86 -69 9 9 9 16 -1 29 -43 59 -47 82 -46 262 1 173 1 177 28 222 21 36 37 50
69 62 84 30 119 38 127 30 4 -5 4 -58 -2 -119 -17 -196 4 -600 33 -630 23 -24
32 16 29 132 -9 333 6 582 38 636 15 26 27 32 102 48 47 10 112 22 145 25 66
7 85 17 85 45 0 34 -32 40 -132 24 -51 -8 -115 -22 -141 -30 -67 -20 -69 -12
-35 103 12 40 11 45 -7 58 -11 8 -29 13 -40 12 -16 -3 -22 -19 -38 -98 -10
-52 -24 -101 -31 -107 -16 -18 -186 -72 -192 -62 -8 14 46 202 67 231 41 58 6
80 -50 32z"/>
</g>
</svg>
