<?xml version="1.0" standalone="no"?>
<!DOCTYPE svg PUBLIC "-//W3C//DTD SVG 20010904//EN"
 "http://www.w3.org/TR/2001/REC-SVG-20010904/DTD/svg10.dtd">
<svg version="1.0" xmlns="http://www.w3.org/2000/svg"
 width="197.000000pt" height="315.000000pt" viewBox="0 0 197.000000 315.000000"
 preserveAspectRatio="xMidYMid meet">
<metadata>
Created by potrace 1.16, written by Peter Selinger 2001-2019
</metadata>
<g transform="translate(0.000000,315.000000) scale(0.100000,-0.100000)"
fill="#000000" stroke="none">
<path d="M970 2278 c-39 -15 -80 -22 -140 -22 -72 -1 -85 -4 -88 -18 -6 -30
56 -52 122 -44 58 8 201 72 201 91 0 17 -38 14 -95 -7z"/>
<path d="M950 2015 c-37 -28 -64 -84 -75 -158 -4 -25 -14 -52 -24 -61 -14 -13
-148 -56 -326 -105 -53 -14 -60 -19 -60 -41 0 -24 3 -25 50 -22 47 2 156 27
254 58 25 8 48 11 52 7 3 -5 -9 -75 -29 -158 -51 -219 -50 -395 3 -395 18 0
18 4 5 50 -13 44 1 145 42 300 17 63 35 137 40 164 12 64 33 90 103 127 106
56 246 161 233 175 -9 9 -110 -35 -201 -88 -78 -45 -96 -42 -78 15 6 18 25 55
41 81 49 76 35 99 -30 51z"/>
</g>
</svg>
