<?xml version="1.0" standalone="no"?>
<!DOCTYPE svg PUBLIC "-//W3C//DTD SVG 20010904//EN"
 "http://www.w3.org/TR/2001/REC-SVG-20010904/DTD/svg10.dtd">
<svg version="1.0" xmlns="http://www.w3.org/2000/svg"
 width="320.000000pt" height="404.000000pt" viewBox="0 0 320.000000 404.000000"
 preserveAspectRatio="xMidYMid meet">
<metadata>
Created by potrace 1.16, written by Peter Selinger 2001-2019
</metadata>
<g transform="translate(0.000000,404.000000) scale(0.100000,-0.100000)"
fill="#000000" stroke="none">
<path d="M2952 2867 c-13 -14 -31 -61 -47 -127 -14 -58 -30 -118 -35 -135 -10
-31 2 -58 19 -40 15 18 83 160 95 202 4 11 13 27 21 33 21 17 19 54 -3 73 -24
22 -24 21 -50 -6z"/>
<path d="M2571 2701 c-7 -11 -15 -51 -20 -88 -5 -38 -16 -95 -24 -128 -23 -86
-26 -150 -7 -150 16 0 41 62 76 190 13 50 32 107 41 128 18 41 13 52 -29 62
-20 5 -29 2 -37 -14z"/>
<path d="M1160 2630 c-11 -22 -34 -75 -50 -116 -23 -60 -26 -76 -15 -80 21 -8
33 3 56 49 12 23 27 49 34 57 21 25 28 105 11 119 -12 10 -18 6 -36 -29z"/>
<path d="M2934 2556 c-72 -49 -127 -103 -119 -117 5 -7 21 -9 42 -6 46 8 51
-10 20 -66 -14 -24 -33 -69 -42 -99 -16 -48 -16 -58 -3 -84 11 -24 19 -29 45
-27 18 2 34 -1 37 -6 3 -5 -1 -50 -10 -101 -9 -50 -13 -94 -10 -97 16 -17 37
16 63 104 61 198 64 216 61 296 l-3 79 -38 -66 c-21 -36 -42 -66 -47 -66 -6 0
-10 1 -10 3 0 11 42 114 55 133 8 13 15 32 15 42 0 11 7 25 15 32 8 7 15 28
15 46 0 45 -20 44 -86 0z"/>
<path d="M1630 2514 c-36 -14 -76 -29 -90 -34 -14 -4 -90 -35 -170 -68 -244
-99 -323 -130 -364 -139 -47 -10 -53 -22 -28 -53 18 -22 18 -22 78 -6 32 10
104 39 159 66 113 55 265 120 282 120 7 0 32 11 56 24 25 13 58 28 73 35 48
19 89 47 89 61 0 21 -16 20 -85 -6z"/>
<path d="M357 2363 c10 -75 66 -121 155 -130 37 -3 59 0 72 10 26 19 12 37
-30 37 -48 0 -105 31 -146 80 -44 51 -58 52 -51 3z"/>
<path d="M2445 2246 c-36 -16 -51 -33 -60 -68 -5 -20 -2 -29 13 -37 28 -15 27
-15 67 20 20 18 41 29 50 25 32 -12 37 -60 39 -346 1 -263 3 -288 21 -325 11
-22 32 -46 47 -54 23 -13 30 -13 54 -1 48 26 113 155 89 178 -8 8 -53 -42 -78
-87 -9 -18 -23 -31 -30 -29 -30 10 -39 83 -45 380 l-7 297 -29 30 c-33 35 -78
40 -131 17z"/>
<path d="M1086 2100 c-9 -16 -23 -43 -31 -59 -8 -15 -26 -99 -40 -186 -25
-162 -33 -293 -21 -355 8 -38 32 -77 42 -68 3 4 8 50 10 105 5 109 47 406 70
496 22 85 2 129 -30 67z"/>
<path d="M1597 1988 c-19 -29 -38 -61 -43 -70 -5 -9 -51 -62 -102 -118 -62
-68 -90 -106 -84 -112 10 -10 103 62 178 136 16 17 53 52 82 78 31 28 52 56
52 68 0 23 -27 70 -41 70 -4 0 -23 -24 -42 -52z"/>
<path d="M1446 1975 c-60 -47 -83 -53 -115 -33 -24 15 -51 4 -51 -20 0 -26 15
-37 83 -58 53 -16 61 -17 85 -3 21 12 27 22 27 50 0 28 7 42 33 63 73 62 17
63 -62 1z"/>
<path d="M2976 1849 c-21 -85 -37 -163 -35 -174 8 -39 32 -20 56 45 20 56 23
80 21 174 l-3 109 -39 -154z"/>
<path d="M180 1925 c0 -18 5 -25 20 -25 22 0 26 20 8 38 -19 19 -28 14 -28
-13z"/>
<path d="M329 1753 c-23 -21 -56 -61 -74 -89 -41 -64 -53 -72 -64 -42 -7 17
-10 -2 -10 -70 -1 -62 2 -91 9 -87 15 9 37 -12 57 -52 9 -19 47 -62 85 -94 58
-50 75 -60 101 -57 28 3 34 9 47 45 16 48 7 68 -16 35 -8 -12 -22 -22 -30 -22
-35 0 -184 175 -184 215 0 40 149 185 189 185 19 0 22 21 7 45 -25 38 -67 33
-117 -12z"/>
<path d="M1630 1600 c-43 -7 -184 -55 -300 -101 -30 -11 -95 -33 -145 -48 -81
-25 -90 -30 -90 -52 0 -33 32 -36 109 -8 112 41 241 90 271 103 35 16 92 31
195 53 95 20 123 30 117 46 -4 14 -92 19 -157 7z"/>
<path d="M1132 398 c-20 -27 -42 -78 -61 -147 l-20 -71 40 0 c32 0 39 4 39 19
0 11 16 57 35 103 33 77 34 84 18 96 -9 6 -22 12 -29 12 -6 0 -16 -6 -22 -12z"/>
<path d="M2695 248 c-27 -15 -65 -50 -65 -60 0 -4 18 -8 40 -8 31 0 43 5 56
25 15 24 14 55 -3 55 -4 0 -17 -6 -28 -12z"/>
</g>
</svg>
