<?xml version="1.0" standalone="no"?>
<!DOCTYPE svg PUBLIC "-//W3C//DTD SVG 20010904//EN"
 "http://www.w3.org/TR/2001/REC-SVG-20010904/DTD/svg10.dtd">
<svg version="1.0" xmlns="http://www.w3.org/2000/svg"
 width="322.000000pt" height="337.000000pt" viewBox="0 0 322.000000 337.000000"
 preserveAspectRatio="xMidYMid meet">
<metadata>
Created by potrace 1.16, written by Peter Selinger 2001-2019
</metadata>
<g transform="translate(0.000000,337.000000) scale(0.100000,-0.100000)"
fill="#000000" stroke="none">
<path d="M905 2536 c-30 -30 -32 -57 -7 -79 23 -21 46 -22 62 -2 28 34 147 4
228 -58 31 -24 92 -65 136 -92 43 -26 126 -80 185 -119 58 -40 142 -87 186
-105 102 -42 115 -54 115 -104 0 -54 -37 -265 -55 -317 -8 -23 -12 -46 -9 -52
11 -18 55 -28 75 -18 15 9 21 7 25 -5 11 -27 -23 -63 -68 -72 -51 -10 -58 -27
-19 -47 16 -9 32 -24 36 -35 3 -11 12 -25 21 -31 12 -10 18 -9 34 5 11 10 20
24 20 31 0 22 39 38 56 23 12 -10 14 -27 8 -83 -3 -39 -13 -81 -21 -94 -13
-22 -10 -46 7 -40 4 2 24 23 44 46 34 41 36 48 36 114 0 70 0 71 44 112 34 32
45 51 51 84 4 24 4 46 1 49 -3 3 -22 -7 -42 -23 -73 -58 -69 -57 -103 -40 -27
14 -30 20 -25 49 9 44 31 77 53 77 10 0 25 8 34 18 16 17 15 20 -6 40 -32 30
-42 28 -94 -18 -25 -22 -50 -40 -56 -40 -6 0 -7 19 -4 48 4 26 9 86 13 135 4
48 10 90 14 92 4 2 35 -1 68 -7 115 -21 163 11 234 156 30 64 38 91 38 137 0
122 -56 103 -280 -93 -48 -43 -97 -78 -108 -78 -10 0 -35 11 -54 24 -20 13
-51 29 -71 35 -34 11 -101 53 -192 119 -47 34 -140 92 -247 153 -42 24 -91 53
-110 64 -57 33 -111 52 -170 59 -53 7 -60 5 -83 -18z m1230 -328 c-10 -44 -48
-119 -71 -139 -26 -22 -109 -32 -123 -16 -8 10 9 32 67 89 106 104 139 121
127 66z"/>
<path d="M2859 2435 l-26 -14 -6 -173 c-3 -95 -11 -225 -17 -288 -12 -120 -1
-399 21 -525 26 -155 97 -293 171 -331 37 -19 38 -19 38 19 0 25 -7 39 -30 55
-39 29 -55 62 -85 174 -41 151 -51 339 -34 613 8 127 14 269 14 318 0 103 5
106 81 52 l49 -35 3 66 c2 37 2 67 0 69 -2 1 -37 5 -78 8 -56 5 -82 3 -101 -8z"/>
<path d="M2350 2275 c-11 -13 -9 -20 10 -40 21 -22 22 -30 16 -87 -15 -128
-25 -184 -41 -238 -10 -30 -23 -82 -31 -116 -7 -33 -22 -89 -34 -125 -11 -35
-20 -73 -20 -83 0 -11 -6 -27 -14 -35 -8 -9 -28 -52 -46 -96 -17 -44 -40 -95
-51 -114 -26 -43 -9 -66 17 -25 10 16 35 51 56 77 52 66 91 152 128 282 17 61
40 134 50 163 11 29 20 69 20 90 0 20 4 53 9 72 5 19 12 79 16 133 l6 97 -30
30 c-33 34 -43 36 -61 15z"/>
<path d="M3018 1957 c-44 -111 -59 -195 -60 -333 0 -126 1 -138 21 -157 17
-17 25 -19 39 -11 13 9 18 28 20 83 2 43 -2 78 -8 86 -8 10 -8 34 0 92 6 43
10 124 8 180 l-3 103 -17 -43z"/>
<path d="M2213 1164 c-18 -14 -81 -42 -141 -63 -59 -21 -122 -46 -139 -55 -18
-9 -40 -16 -50 -16 -24 0 -108 -84 -99 -99 10 -15 41 -14 55 3 7 8 24 17 39
21 14 3 44 15 67 25 22 10 91 35 153 56 153 51 153 50 92 -121 -33 -93 -37
-146 -11 -169 11 -10 27 -16 34 -13 20 8 47 91 47 144 0 46 14 153 31 237 15
77 -17 98 -78 50z"/>
</g>
</svg>
