<?xml version="1.0" standalone="no"?>
<!DOCTYPE svg PUBLIC "-//W3C//DTD SVG 20010904//EN"
 "http://www.w3.org/TR/2001/REC-SVG-20010904/DTD/svg10.dtd">
<svg version="1.0" xmlns="http://www.w3.org/2000/svg"
 width="220.000000pt" height="376.000000pt" viewBox="0 0 220.000000 376.000000"
 preserveAspectRatio="xMidYMid meet">
<metadata>
Created by potrace 1.16, written by Peter Selinger 2001-2019
</metadata>
<g transform="translate(0.000000,376.000000) scale(0.100000,-0.100000)"
fill="#000000" stroke="none">
<path d="M893 2824 c-46 -23 -64 -47 -77 -101 -27 -120 0 -286 63 -378 31 -46
92 -89 138 -98 28 -6 39 0 87 44 67 61 116 143 116 192 0 20 -7 60 -15 89 -45
164 -55 192 -69 206 -12 12 -19 13 -27 5 -13 -13 16 -155 45 -225 13 -31 14
-43 2 -87 -32 -122 -121 -186 -187 -132 -23 19 -23 20 -4 26 80 25 163 90 152
119 -8 20 -36 21 -44 1 -8 -22 -103 -69 -115 -57 -5 5 5 64 27 148 41 161 43
201 14 238 -24 30 -58 33 -106 10z m69 -119 c-1 -38 -9 -90 -16 -115 -8 -25
-17 -62 -21 -82 -3 -22 -12 -38 -19 -38 -30 0 -49 140 -35 250 7 52 16 61 57
58 l37 -3 -3 -70z"/>
<path d="M1998 2759 c-24 -13 -23 -35 2 -42 17 -4 20 0 20 24 0 16 -1 29 -2
29 -2 0 -11 -5 -20 -11z"/>
<path d="M318 2693 c0 -16 -1 -35 0 -43 1 -8 4 -105 7 -215 11 -385 15 -434
51 -569 26 -101 36 -116 62 -100 21 14 21 62 -1 159 -19 83 -34 211 -47 395
-10 133 -36 348 -46 383 -8 26 -24 20 -26 -10z"/>
<path d="M2009 2673 c-6 -76 -5 -169 1 -228 6 -57 8 -41 9 88 0 86 -1 157 -4
157 -3 0 -6 -8 -6 -17z"/>
<path d="M1336 2661 c-4 -6 9 -18 31 -28 54 -25 172 -120 186 -150 10 -22 8
-27 -12 -43 -32 -24 -19 -46 14 -24 34 22 47 14 68 -42 10 -27 26 -66 34 -86
18 -42 13 -101 -14 -203 -14 -53 -25 -69 -91 -132 -63 -61 -73 -75 -62 -88 7
-8 27 -15 45 -15 65 0 158 140 176 264 20 137 10 201 -42 286 -32 52 -29 66
10 46 104 -54 187 -303 177 -528 -10 -232 -47 -357 -117 -397 -33 -19 -33 -30
3 -51 32 -17 47 -7 84 56 84 142 121 464 73 621 -60 197 -70 220 -129 286 -31
36 -90 67 -126 67 -19 0 -44 16 -84 55 -72 68 -208 132 -224 106z"/>
<path d="M1165 2259 c-56 -29 -139 -113 -182 -182 -52 -85 -74 -152 -80 -244
-6 -82 -6 -82 27 -120 45 -51 104 -82 161 -83 25 0 49 -3 52 -6 7 -7 -118
-149 -258 -292 -76 -79 -79 -84 -61 -97 46 -35 105 11 204 158 95 142 170 229
219 252 23 11 52 30 65 42 13 12 44 31 70 43 26 11 50 25 53 30 4 6 -1 25 -10
43 -10 17 -32 61 -50 97 -44 85 -89 139 -105 124 -9 -9 -5 -24 14 -62 16 -31
22 -53 16 -57 -18 -11 -78 15 -94 40 -17 26 -82 59 -97 49 -5 -3 -9 -20 -10
-37 -2 -60 -13 -78 -64 -107 -28 -15 -53 -26 -57 -23 -23 14 15 186 58 260 24
41 73 88 82 78 3 -2 -11 -26 -32 -51 -33 -44 -47 -84 -28 -84 4 0 32 25 62 56
30 30 76 71 103 91 57 42 74 68 56 89 -16 20 -67 17 -114 -7z m33 -336 c5 -16
-22 -27 -44 -19 -13 5 -14 9 -4 22 15 17 41 15 48 -3z m110 -87 c26 -1 38 -9
54 -35 l21 -33 -24 -19 c-31 -24 -55 -24 -62 1 -8 30 -37 25 -37 -5 0 -29 -15
-37 -67 -39 l-36 -1 -3 63 c-2 35 -1 69 2 74 4 7 27 8 63 3 31 -4 71 -8 89 -9z
m-208 -50 c0 -12 -5 -37 -11 -55 -9 -25 -17 -31 -38 -31 -16 0 -36 9 -46 20
-15 17 -16 22 -4 36 17 21 70 54 87 54 6 0 12 -11 12 -24z"/>
<path d="M226 2056 c-8 -20 -22 -39 -31 -42 -16 -6 -23 -84 -7 -84 4 0 24 14
45 31 35 29 37 33 31 72 -9 59 -20 66 -38 23z"/>
<path d="M198 1823 c-13 -3 -18 -15 -18 -39 0 -40 4 -41 48 -14 53 32 31 70
-30 53z"/>
<path d="M370 1709 c0 -5 5 -7 10 -4 6 3 10 8 10 11 0 2 -4 4 -10 4 -5 0 -10
-5 -10 -11z"/>
<path d="M333 1593 c-12 -27 -29 -69 -38 -95 -15 -44 -81 -118 -105 -118 -6 0
-10 -16 -10 -35 0 -34 1 -35 22 -24 53 29 119 104 153 176 19 40 35 81 35 91
-1 16 -22 52 -32 52 -2 0 -14 -21 -25 -47z"/>
<path d="M1242 1462 c-41 -12 -26 -27 49 -48 41 -12 100 -34 132 -49 59 -28
83 -28 94 1 10 26 -21 45 -124 75 -102 30 -113 31 -151 21z"/>
<path d="M1860 545 c-80 -24 -185 -57 -235 -75 -49 -17 -153 -51 -230 -76 -77
-25 -162 -53 -190 -63 -27 -10 -137 -47 -244 -82 l-194 -64 107 -3 c98 -2 115
0 189 27 45 16 174 59 287 96 113 36 236 78 273 92 37 14 71 23 74 19 3 -3
-12 -26 -35 -50 -39 -42 -81 -114 -96 -163 -6 -19 -4 -23 16 -22 17 0 36 19
74 77 63 96 111 127 173 113 23 -5 52 -16 66 -25 30 -20 71 -104 57 -118 -5
-5 -36 -18 -68 -28 l-59 -19 99 0 99 -1 -5 48 c-3 27 -18 75 -34 107 -31 61
-50 75 -131 95 -40 10 -60 30 -30 30 7 0 54 13 103 29 l89 28 3 37 c2 20 0 35
-5 35 -4 -1 -73 -21 -153 -44z"/>
</g>
</svg>
