<?xml version="1.0" standalone="no"?>
<!DOCTYPE svg PUBLIC "-//W3C//DTD SVG 20010904//EN"
 "http://www.w3.org/TR/2001/REC-SVG-20010904/DTD/svg10.dtd">
<svg version="1.0" xmlns="http://www.w3.org/2000/svg"
 width="260.000000pt" height="400.000000pt" viewBox="0 0 260.000000 400.000000"
 preserveAspectRatio="xMidYMid meet">
<metadata>
Created by potrace 1.16, written by Peter Selinger 2001-2019
</metadata>
<g transform="translate(0.000000,400.000000) scale(0.100000,-0.100000)"
fill="#000000" stroke="none">
<path d="M1087 3028 c-25 -34 -47 -106 -47 -152 0 -14 -8 -34 -19 -45 -17 -17
-41 -26 -181 -68 -30 -10 -64 -25 -75 -36 -20 -18 -20 -18 13 -48 18 -16 41
-29 51 -29 14 0 21 -10 25 -35 9 -46 39 -49 34 -3 -4 42 10 43 56 4 l39 -33
-44 -48 c-24 -26 -75 -69 -114 -95 -119 -81 -139 -117 -79 -140 22 -9 31 -7
48 9 25 22 108 61 131 61 11 0 15 -6 11 -17 -23 -84 -67 -358 -62 -387 6 -30
36 -66 56 -66 3 0 6 44 7 98 1 57 8 115 17 141 9 24 16 58 16 75 0 28 47 176
65 206 4 6 26 20 50 30 23 10 61 30 84 44 22 14 45 26 50 26 11 0 47 -109 57
-170 6 -36 5 -37 -47 -63 -57 -28 -69 -27 -69 4 0 28 -26 75 -46 83 -30 12
-36 -4 -29 -79 l7 -74 -41 -40 c-57 -56 -53 -87 16 -106 37 -10 38 -12 58 -90
47 -184 110 -294 140 -245 3 5 -15 71 -40 146 -43 131 -52 174 -39 186 3 4 24
-2 47 -13 78 -35 173 -19 232 38 65 63 60 133 -14 203 -60 56 -71 78 -71 132
0 58 12 73 57 73 33 0 38 3 41 26 2 14 -4 31 -12 39 -22 17 -20 28 9 72 14 21
36 55 50 76 14 21 25 45 25 54 0 8 7 21 15 28 21 17 19 63 -3 83 -37 33 -124
14 -171 -37 -21 -22 -23 -29 -13 -51 7 -14 12 -34 12 -45 0 -35 18 -30 43 13
14 23 34 51 46 61 19 17 21 17 27 2 14 -36 -74 -189 -129 -225 -22 -15 -41
-37 -48 -58 -21 -65 -43 -26 -57 101 -7 72 -23 95 -56 83 -19 -7 -22 -71 -6
-126 11 -39 0 -61 -30 -61 -10 0 -39 -9 -65 -20 -41 -18 -46 -18 -52 -3 -11
27 12 48 57 53 50 6 63 26 26 40 -32 12 -32 15 -1 52 14 16 25 40 25 52 0 13
9 35 20 49 11 14 20 29 20 35 0 17 -35 40 -65 44 -29 3 -30 4 -33 65 -3 54 0
63 18 73 22 12 27 49 8 68 -18 18 -25 15 -51 -20z m49 -260 c4 -6 -3 -19 -16
-30 -28 -23 -40 -23 -40 0 0 34 40 56 56 30z m-134 -63 c-5 -43 -15 -48 -45
-25 -33 26 -34 38 -4 50 37 15 52 8 49 -25z m398 -474 c53 -51 51 -72 -7 -110
-65 -43 -111 -42 -162 4 -42 38 -56 69 -37 84 18 14 129 60 148 61 10 0 36
-17 58 -39z"/>
<path d="M2220 2893 c-33 -6 -61 -33 -128 -126 -75 -102 -102 -186 -109 -330
-4 -77 -2 -115 7 -132 18 -34 8 -50 -54 -85 -106 -60 -176 -166 -176 -268 0
-65 18 -92 60 -92 36 0 159 68 219 121 30 27 60 49 66 49 7 0 29 -35 51 -77
52 -103 78 -133 115 -133 43 0 46 24 7 69 -29 34 -118 188 -118 205 0 3 22 17
48 30 27 13 55 32 62 41 8 10 25 21 38 26 26 10 20 33 -6 25 -10 -3 -36 -10
-59 -16 -23 -6 -55 -22 -71 -35 -33 -27 -37 -25 -66 33 -20 39 -16 48 27 57
17 4 74 27 125 52 56 27 97 42 102 37 5 -5 10 -59 11 -119 1 -105 18 -249 38
-325 6 -23 9 85 9 310 0 300 -1 341 -13 315 -8 -16 -14 -44 -15 -61 0 -31 -26
-64 -50 -64 -8 0 -32 -9 -54 -19 -23 -11 -61 -26 -86 -34 -25 -9 -62 -23 -84
-32 -21 -9 -44 -14 -51 -11 -7 2 -18 30 -25 60 -28 137 38 315 161 430 83 78
90 111 19 99z m-164 -738 c13 -22 23 -47 24 -55 1 -37 -233 -208 -267 -196
-19 8 -16 26 18 102 38 84 86 145 136 172 50 28 62 24 89 -23z"/>
<path d="M180 1707 c0 -32 11 -60 44 -117 24 -41 63 -111 86 -155 45 -86 107
-168 120 -160 34 21 -196 475 -242 475 -4 0 -8 -19 -8 -43z"/>
<path d="M2390 323 c-14 -26 -42 -69 -63 -95 l-37 -48 39 0 c34 0 44 5 66 34
23 30 26 42 23 95 l-3 61 -25 -47z"/>
<path d="M1196 271 c-36 -82 -35 -91 15 -91 36 0 41 3 54 34 8 19 19 37 25 41
17 11 11 43 -12 59 -39 28 -54 20 -82 -43z"/>
<path d="M1359 313 c-1 -4 0 -20 1 -34 0 -14 -6 -31 -14 -39 -9 -7 -16 -23
-16 -36 0 -21 5 -24 35 -24 31 0 35 3 41 35 8 46 -2 82 -26 95 -11 6 -20 7
-21 3z"/>
</g>
</svg>
