<?xml version="1.0" standalone="no"?>
<!DOCTYPE svg PUBLIC "-//W3C//DTD SVG 20010904//EN"
 "http://www.w3.org/TR/2001/REC-SVG-20010904/DTD/svg10.dtd">
<svg version="1.0" xmlns="http://www.w3.org/2000/svg"
 width="290.000000pt" height="369.000000pt" viewBox="0 0 290.000000 369.000000"
 preserveAspectRatio="xMidYMid meet">
<metadata>
Created by potrace 1.16, written by Peter Selinger 2001-2019
</metadata>
<g transform="translate(0.000000,369.000000) scale(0.100000,-0.100000)"
fill="#000000" stroke="none">
<path d="M2336 2901 c-17 -19 -17 -21 1 -63 11 -24 23 -55 26 -69 6 -22 50
-315 60 -394 2 -16 -12 -23 -93 -46 -80 -22 -98 -31 -112 -55 -10 -16 -14 -32
-9 -37 9 -9 133 13 185 33 16 6 32 7 36 3 10 -11 33 -202 29 -238 -3 -24 -10
-30 -38 -36 -45 -9 -55 -21 -90 -112 -36 -90 -38 -113 -12 -127 39 -20 68 -12
90 26 26 44 27 57 2 49 -35 -11 -31 11 12 68 23 31 44 56 48 57 5 0 34 -311
44 -475 6 -107 16 -150 36 -150 12 0 14 32 12 200 -1 110 -9 268 -18 350 -8
83 -17 186 -20 230 -2 43 -7 103 -11 132 -8 66 -1 76 91 118 74 33 101 57 90
76 -10 16 -57 4 -127 -31 -32 -17 -62 -30 -67 -30 -5 0 -14 39 -20 88 -6 48
-14 105 -17 127 -3 22 -12 84 -19 137 -13 101 -46 180 -76 186 -8 1 -23 -6
-33 -17z"/>
<path d="M1196 2471 c-4 -5 0 -52 9 -103 19 -117 19 -263 1 -426 -33 -289 -41
-383 -41 -492 0 -119 14 -161 27 -80 8 52 39 273 70 505 38 289 34 514 -11
575 -20 27 -46 37 -55 21z"/>
<path d="M1420 2412 c-85 -42 -103 -72 -55 -94 23 -10 34 -7 94 25 38 20 78
37 89 37 24 0 62 -46 86 -104 47 -114 63 -250 71 -618 5 -239 4 -258 -12 -267
-28 -14 -110 -24 -213 -25 -81 -1 -95 -4 -98 -18 -5 -28 48 -48 128 -48 39 0
79 4 88 9 9 5 37 10 62 12 l45 4 3 -37 c2 -22 9 -38 16 -38 25 0 40 191 38
494 -2 316 -12 429 -44 521 -38 106 -75 153 -137 174 -53 17 -80 13 -161 -27z"/>
<path d="M935 2310 c-3 -6 1 -41 11 -79 17 -71 16 -102 -6 -179 -12 -39 -11
-45 9 -66 16 -17 24 -45 32 -112 11 -85 27 -123 46 -111 5 3 8 97 7 209 -2
177 -5 210 -23 262 -11 32 -26 65 -32 72 -13 16 -35 18 -44 4z"/>
<path d="M2597 2064 c-33 -18 -27 -34 14 -34 16 0 48 -9 69 -20 l40 -20 0 35
c0 20 -6 37 -12 40 -43 13 -86 13 -111 -1z"/>
<path d="M1484 2006 c-3 -9 -1 -22 5 -30 15 -18 120 -31 134 -17 19 19 -23 49
-80 57 -44 5 -54 4 -59 -10z"/>
<path d="M194 1356 c-5 -14 20 -59 76 -134 20 -26 46 -66 58 -89 56 -109 105
-163 118 -130 7 20 -69 188 -123 270 -53 80 -115 120 -129 83z"/>
</g>
</svg>
