<?xml version="1.0" standalone="no"?>
<!DOCTYPE svg PUBLIC "-//W3C//DTD SVG 20010904//EN"
 "http://www.w3.org/TR/2001/REC-SVG-20010904/DTD/svg10.dtd">
<svg version="1.0" xmlns="http://www.w3.org/2000/svg"
 width="258.000000pt" height="390.000000pt" viewBox="0 0 258.000000 390.000000"
 preserveAspectRatio="xMidYMid meet">
<metadata>
Created by potrace 1.16, written by Peter Selinger 2001-2019
</metadata>
<g transform="translate(0.000000,390.000000) scale(0.100000,-0.100000)"
fill="#000000" stroke="none">
<path d="M963 2503 c-4 -27 -7 -91 -5 -145 l2 -96 -70 -52 c-39 -29 -69 -58
-67 -64 7 -20 71 -6 108 24 20 16 39 26 43 23 3 -4 6 -22 6 -42 0 -20 5 -52
10 -71 6 -19 17 -64 25 -99 12 -60 12 -68 -6 -104 -86 -168 -84 -586 3 -692
37 -45 64 -43 92 5 19 31 21 51 20 170 -1 138 -14 269 -40 395 -8 38 -15 95
-15 125 -1 30 -12 100 -25 155 -12 55 -26 121 -30 148 l-6 47 81 81 c110 109
96 131 -23 37 -35 -27 -52 -36 -60 -28 -6 6 -12 60 -14 120 -3 61 -8 110 -12
110 -5 0 -12 -21 -17 -47z m77 -690 c0 -16 9 -77 19 -138 31 -185 46 -373 32
-423 -7 -24 -17 -42 -22 -40 -10 3 -44 92 -75 193 -9 31 -15 95 -16 170 -1
110 7 162 37 253 8 23 25 12 25 -15z"/>
<path d="M1299 2443 c-18 -21 -15 -424 3 -557 11 -77 15 -89 35 -97 13 -5 23
-13 23 -19 0 -6 11 -15 25 -20 14 -5 25 -13 25 -17 0 -5 -24 -33 -52 -63 -106
-112 -147 -190 -99 -190 21 0 71 53 71 75 0 28 47 52 102 51 53 -1 53 -1 62
-38 11 -46 -16 -214 -39 -237 -13 -13 -21 -11 -67 22 -101 69 -180 86 -186 40
-5 -35 48 -158 87 -202 23 -27 48 -43 69 -47 30 -6 37 -2 78 41 46 47 46 47
69 29 219 -180 255 -204 255 -171 0 13 -131 129 -211 187 -26 19 -48 42 -49
50 0 8 10 40 21 70 16 41 22 80 23 152 1 109 -14 144 -72 163 -41 14 -47 22
-32 40 9 11 15 71 19 193 5 157 8 177 23 180 46 9 70 -222 33 -310 -11 -28 12
-21 32 8 24 37 23 208 -1 282 -17 51 -45 78 -71 69 -22 -9 -35 15 -35 68 0 59
-21 98 -41 78 -10 -10 -10 -29 0 -93 14 -90 11 -99 -41 -126 -25 -13 -29 -13
-34 1 -4 8 -4 101 -1 205 3 104 2 192 -3 195 -4 3 -14 -3 -21 -12z m121 -474
c0 -39 -4 -51 -17 -55 -37 -11 -48 -22 -51 -48 -6 -51 -22 -25 -22 35 0 58 2
64 36 95 20 19 40 32 45 29 5 -4 9 -29 9 -56z m0 -174 c0 -14 -4 -25 -10 -25
-5 0 -10 11 -10 25 0 14 5 25 10 25 6 0 10 -11 10 -25z m-120 -444 c19 -15 45
-31 57 -35 31 -10 73 -45 73 -61 0 -21 -50 -75 -69 -75 -35 0 -130 152 -117
187 8 19 17 16 56 -16z"/>
<path d="M2263 2048 c-46 -71 -192 -434 -193 -478 0 -14 -9 -59 -20 -99 -13
-50 -17 -78 -10 -85 6 -6 16 4 27 32 10 23 21 42 26 42 4 0 7 -86 7 -191 0
-198 12 -282 47 -336 19 -28 41 -16 25 13 -20 38 -29 163 -26 349 4 241 10
264 85 337 33 32 59 62 59 67 0 20 -31 33 -65 27 -28 -6 -35 -4 -35 8 0 32 81
189 120 233 45 51 49 74 20 103 -28 28 -36 26 -67 -22z"/>
<path d="M2385 1846 c-4 -35 -4 -78 0 -95 6 -28 2 -36 -29 -66 -40 -37 -41
-42 -24 -80 9 -19 18 -25 40 -23 l28 2 0 163 c0 90 -2 163 -4 163 -3 0 -7 -29
-11 -64z"/>
</g>
</svg>
