<?xml version="1.0" standalone="no"?>
<!DOCTYPE svg PUBLIC "-//W3C//DTD SVG 20010904//EN"
 "http://www.w3.org/TR/2001/REC-SVG-20010904/DTD/svg10.dtd">
<svg version="1.0" xmlns="http://www.w3.org/2000/svg"
 width="238.000000pt" height="288.000000pt" viewBox="0 0 238.000000 288.000000"
 preserveAspectRatio="xMidYMid meet">
<metadata>
Created by potrace 1.16, written by Peter Selinger 2001-2019
</metadata>
<g transform="translate(0.000000,288.000000) scale(0.100000,-0.100000)"
fill="#000000" stroke="none">
<path d="M722 1981 c-130 -112 -227 -237 -252 -325 -15 -54 -9 -73 26 -86 21
-8 32 -7 51 5 27 18 26 38 -3 43 -39 8 -37 22 11 84 99 128 184 210 254 246
49 24 60 46 37 71 -29 32 -50 26 -124 -38z"/>
<path d="M859 1880 c-26 -4 -59 -16 -73 -25 -29 -19 -51 -51 -39 -58 10 -5
120 8 150 18 53 17 31 -55 -50 -165 -23 -30 -80 -95 -127 -145 -105 -108 -129
-147 -111 -169 8 -9 19 -16 26 -16 8 0 55 39 107 86 100 92 128 111 174 116
25 3 29 -1 32 -24 4 -35 -29 -106 -75 -161 -109 -130 -177 -226 -168 -235 4
-4 63 51 130 121 124 128 176 206 190 280 6 30 2 37 -26 61 -29 24 -40 28 -81
24 -26 -3 -49 -3 -52 -1 -2 2 19 41 48 86 28 46 58 101 65 124 12 37 12 45 -3
68 -18 27 -34 29 -117 15z"/>
<path d="M2192 1839 c-3 -27 -34 -45 -112 -67 -41 -12 -113 -34 -160 -49 l-85
-28 0 -35 c0 -32 2 -35 33 -38 24 -2 57 8 108 33 82 41 171 68 179 55 8 -13
-29 -204 -88 -460 -22 -94 -32 -206 -19 -214 15 -9 37 38 52 109 6 33 32 140
56 237 44 176 45 179 41 325 -1 82 -4 141 -5 132z"/>
<path d="M1020 1203 c-71 -47 -140 -142 -140 -192 0 -50 84 -66 164 -30 53 23
70 18 61 -18 -29 -116 -235 -190 -356 -128 -34 18 -98 92 -106 124 -3 14 1 35
11 51 9 16 16 31 16 34 0 14 -28 5 -45 -14 -10 -11 -44 -35 -74 -52 -66 -37
-150 -98 -170 -122 -10 -12 -11 -20 -3 -28 8 -8 38 3 108 38 92 47 97 48 108
30 23 -41 92 -109 128 -127 58 -30 144 -35 214 -14 125 39 154 63 206 170 40
83 68 98 68 37 0 -21 -9 -65 -20 -97 -20 -59 -26 -115 -12 -115 11 0 69 117
81 165 25 93 10 141 -47 151 -20 3 -43 14 -50 23 -12 15 -14 15 -22 0 -6 -9
-25 -20 -44 -23 -20 -4 -56 -16 -81 -27 -52 -23 -60 -21 -51 14 5 22 83 94
132 123 26 15 11 44 -23 44 -16 0 -40 -7 -53 -17z"/>
</g>
</svg>
