<?xml version="1.0" standalone="no"?>
<!DOCTYPE svg PUBLIC "-//W3C//DTD SVG 20010904//EN"
 "http://www.w3.org/TR/2001/REC-SVG-20010904/DTD/svg10.dtd">
<svg version="1.0" xmlns="http://www.w3.org/2000/svg"
 width="248.000000pt" height="372.000000pt" viewBox="0 0 248.000000 372.000000"
 preserveAspectRatio="xMidYMid meet">
<metadata>
Created by potrace 1.16, written by Peter Selinger 2001-2019
</metadata>
<g transform="translate(0.000000,372.000000) scale(0.100000,-0.100000)"
fill="#000000" stroke="none">
<path d="M1340 2887 c-41 -23 -102 -54 -135 -69 -229 -104 -308 -138 -342
-148 -53 -16 -158 -73 -156 -85 4 -27 34 -30 96 -7 34 13 76 27 92 31 17 5 82
34 145 65 63 32 137 66 164 77 26 11 68 33 91 49 24 17 47 30 50 30 19 0 95
66 95 82 0 26 -15 22 -100 -25z"/>
<path d="M2205 2674 c-98 -34 -349 -138 -483 -200 -41 -19 -75 -34 -77 -34 -2
0 -74 -34 -160 -76 -86 -41 -160 -74 -164 -72 -5 2 -36 34 -70 71 -54 59 -60
71 -54 95 9 33 9 81 0 106 -6 15 -10 16 -22 6 -8 -7 -15 -21 -15 -31 0 -33
-57 -87 -100 -94 -27 -5 -55 -20 -85 -48 -58 -54 -85 -126 -78 -210 5 -49 10
-60 35 -78 27 -20 28 -22 12 -40 -9 -10 -51 -42 -93 -70 -100 -69 -268 -207
-315 -259 -29 -33 -37 -48 -34 -73 8 -85 129 -15 341 198 53 54 100 96 103 92
3 -3 1 -35 -5 -72 -11 -71 -3 -111 24 -121 21 -9 30 2 16 19 -10 13 -7 65 15
213 3 25 17 39 72 75 37 24 99 60 139 80 59 30 74 35 83 24 34 -40 58 -397 32
-459 -9 -20 -10 -32 -2 -40 17 -17 35 13 54 90 16 63 16 87 7 210 -6 76 -15
155 -21 174 -21 74 -21 73 124 145 73 36 136 65 139 65 4 0 66 29 139 64 161
77 432 196 448 196 24 0 90 46 90 63 0 22 -10 21 -95 -9z m-1171 -350 c-50
-80 -92 -90 -54 -12 25 49 60 82 74 68 6 -6 -2 -28 -20 -56z m192 -20 c37 -44
37 -47 19 -60 -10 -8 -23 -14 -28 -14 -5 0 -21 -8 -35 -19 -56 -39 -121 -70
-127 -60 -4 5 14 40 39 77 25 38 50 80 55 95 15 38 34 34 77 -19z m-245 -157
c-13 -13 -26 -3 -16 12 3 6 11 8 17 5 6 -4 6 -10 -1 -17z m-242 -333 c-56 -57
-113 -97 -123 -86 -7 7 44 62 57 62 6 0 32 21 59 46 68 64 74 46 7 -22z"/>
<path d="M2086 983 c-14 -21 -35 -69 -47 -107 -12 -38 -43 -114 -69 -170 -62
-132 -116 -287 -107 -309 11 -30 45 -20 71 21 38 60 67 75 119 61 23 -7 57
-23 75 -36 28 -21 32 -30 32 -71 0 -56 -45 -133 -99 -169 l-34 -23 102 0 c85
0 101 3 101 16 0 8 -16 22 -35 30 -19 8 -35 16 -35 19 0 3 14 24 31 48 28 38
30 48 27 99 -3 43 -10 64 -27 82 -32 34 -116 68 -176 72 -27 1 -51 7 -53 12
-3 10 8 33 132 275 82 160 88 187 41 187 -18 0 -32 -11 -49 -37z"/>
<path d="M656 643 c-13 -31 -15 -60 -12 -149 5 -110 -5 -263 -19 -296 -6 -16
-1 -18 35 -18 36 0 41 2 30 15 -10 12 -2 27 46 85 89 105 105 128 96 134 -22
13 -55 -11 -88 -65 -19 -33 -39 -57 -43 -55 -4 3 -5 91 -3 196 4 163 3 190
-10 190 -8 0 -22 -17 -32 -37z"/>
<path d="M1028 653 c-29 -34 -47 -80 -64 -169 l-18 -89 -105 -107 c-100 -103
-104 -108 -76 -108 23 0 44 15 97 67 l68 68 31 -38 c52 -64 147 -74 203 -22
15 14 26 35 26 50 0 31 -5 31 -41 0 -42 -34 -94 -43 -120 -19 -18 16 -20 26
-15 65 4 26 13 60 21 75 7 16 26 71 41 123 26 91 26 95 8 108 -24 17 -38 16
-56 -4z"/>
<path d="M1534 555 c-21 -14 -73 -36 -114 -49 -69 -23 -124 -46 -190 -79 -42
-22 -32 -42 20 -39 102 7 375 159 332 186 -5 3 -26 -6 -48 -19z"/>
</g>
</svg>
