<?xml version="1.0" standalone="no"?>
<!DOCTYPE svg PUBLIC "-//W3C//DTD SVG 20010904//EN"
 "http://www.w3.org/TR/2001/REC-SVG-20010904/DTD/svg10.dtd">
<svg version="1.0" xmlns="http://www.w3.org/2000/svg"
 width="205.000000pt" height="299.000000pt" viewBox="0 0 205.000000 299.000000"
 preserveAspectRatio="xMidYMid meet">
<metadata>
Created by potrace 1.16, written by Peter Selinger 2001-2019
</metadata>
<g transform="translate(0.000000,299.000000) scale(0.100000,-0.100000)"
fill="#000000" stroke="none">
<path d="M1169 2141 c-116 -40 -140 -61 -191 -166 -40 -83 -68 -98 -68 -37 0
21 9 65 20 97 20 59 26 115 12 115 -11 0 -69 -117 -81 -165 -25 -93 -10 -141
47 -151 20 -3 43 -14 50 -23 12 -15 14 -15 22 0 6 9 25 20 44 23 20 4 56 16
81 27 52 23 60 21 51 -14 -5 -22 -83 -94 -132 -123 -26 -15 -11 -44 23 -44 68
0 193 135 193 209 0 50 -84 66 -164 30 -53 -23 -70 -18 -61 18 29 116 235 190
356 128 34 -18 98 -92 106 -124 3 -14 -1 -35 -11 -51 -9 -16 -16 -31 -16 -34
0 -14 28 -5 45 14 10 11 44 35 74 52 66 37 150 98 170 122 10 12 11 20 3 28
-8 8 -38 -3 -108 -38 -92 -47 -97 -48 -108 -30 -24 42 -92 109 -129 127 -57
30 -158 34 -228 10z"/>
<path d="M1282 1674 c-121 -126 -174 -204 -187 -277 -6 -30 -2 -37 26 -61 29
-24 40 -28 81 -24 26 3 49 3 52 1 2 -2 -19 -41 -48 -86 -28 -46 -58 -101 -65
-124 -12 -38 -12 -45 3 -68 17 -26 20 -26 79 -20 34 4 77 14 95 22 33 16 65
51 57 63 -6 10 -104 1 -138 -12 -102 -39 -19 117 163 307 105 108 129 147 111
169 -8 9 -19 16 -26 16 -8 0 -55 -39 -107 -86 -100 -92 -128 -111 -174 -116
-25 -3 -29 1 -32 24 -4 35 29 106 75 161 85 102 173 219 173 232 0 18 -32 -10
-138 -121z"/>
<path d="M1570 1322 c-25 -21 -20 -42 10 -42 36 0 32 -22 -16 -83 -98 -127
-183 -209 -253 -245 -51 -25 -61 -47 -34 -73 16 -16 28 -20 48 -15 36 9 243
218 282 286 44 76 62 145 43 164 -26 25 -56 28 -80 8z"/>
<path d="M193 1274 c-8 -4 -13 -25 -13 -56 0 -55 -1 -54 78 -22 29 12 33 17
30 46 -3 31 -6 33 -43 35 -22 1 -46 0 -52 -3z"/>
</g>
</svg>
