<?xml version="1.0" standalone="no"?>
<!DOCTYPE svg PUBLIC "-//W3C//DTD SVG 20010904//EN"
 "http://www.w3.org/TR/2001/REC-SVG-20010904/DTD/svg10.dtd">
<svg version="1.0" xmlns="http://www.w3.org/2000/svg"
 width="266.000000pt" height="341.000000pt" viewBox="0 0 266.000000 341.000000"
 preserveAspectRatio="xMidYMid meet">
<metadata>
Created by potrace 1.16, written by Peter Selinger 2001-2019
</metadata>
<g transform="translate(0.000000,341.000000) scale(0.100000,-0.100000)"
fill="#000000" stroke="none">
<path d="M2176 2594 c-38 -21 -86 -127 -86 -189 0 -50 10 -74 46 -118 20 -24
24 -40 24 -102 0 -41 -4 -76 -9 -79 -12 -8 -87 48 -101 75 -7 12 -9 33 -6 48
21 98 21 93 -10 85 -16 -4 -35 -11 -41 -17 -27 -21 -6 -135 34 -179 10 -11 39
-31 66 -44 37 -19 47 -30 47 -49 0 -30 20 -32 45 -5 10 11 28 20 40 20 75 0
172 80 205 168 23 62 26 146 6 194 -22 53 -88 126 -151 169 -65 44 -68 44
-109 23z m140 -106 c76 -80 84 -97 84 -181 0 -63 -4 -79 -29 -118 -33 -54 -69
-83 -118 -100 -49 -16 -67 2 -52 51 5 19 14 59 19 89 5 29 23 74 40 100 16 26
30 53 30 59 0 15 -27 16 -35 1 -4 -6 -14 -8 -23 -4 -10 4 -23 -4 -37 -21 -29
-36 -45 -24 -44 34 1 90 36 141 94 142 12 0 42 -23 71 -52z"/>
<path d="M1397 2260 c-12 -26 -36 -52 -70 -74 -76 -51 -157 -190 -157 -270 0
-30 5 -38 31 -52 29 -15 34 -15 64 2 57 30 68 16 62 -79 -6 -109 8 -242 34
-311 11 -31 18 -60 14 -66 -3 -5 -23 -10 -44 -10 -55 0 -122 54 -154 124 -31
67 -44 131 -52 258 -4 54 -10 100 -15 103 -4 2 -15 -4 -25 -15 -15 -16 -16
-31 -11 -97 6 -71 4 -85 -23 -161 -33 -88 -94 -217 -115 -242 -27 -32 -57 -94
-52 -106 8 -20 55 -17 62 4 4 9 26 58 49 107 24 50 53 124 65 165 32 105 34
105 51 14 18 -95 70 -167 138 -189 13 -4 48 -10 79 -15 49 -6 61 -4 92 15 48
31 61 47 109 144 105 208 137 346 108 476 -14 65 -23 83 -64 130 -29 33 -69
66 -101 82 -42 21 -52 30 -48 45 3 10 9 27 12 38 12 37 -20 21 -39 -20z m82
-120 c21 -10 48 -34 60 -52 11 -18 30 -46 41 -63 25 -38 27 -157 4 -248 -17
-70 -142 -329 -161 -335 -30 -9 -37 51 -38 284 l0 230 42 81 c24 45 39 84 34
87 -5 3 -16 -5 -25 -19 -20 -30 -36 -32 -36 -4 0 25 17 59 31 59 5 0 27 -9 48
-20z m-141 -107 c-5 -68 -8 -77 -34 -99 -34 -27 -72 -31 -81 -8 -8 20 12 76
45 129 56 88 76 81 70 -22z"/>
<path d="M604 2043 c-24 -57 -16 -275 11 -323 17 -28 28 -36 57 -38 44 -4 91
19 114 53 12 19 25 25 50 25 24 0 37 6 41 18 8 20 55 84 97 130 23 25 27 35
18 44 -9 9 -23 0 -62 -41 -39 -41 -50 -49 -50 -33 0 11 -6 25 -14 31 -23 20
-56 -4 -56 -39 0 -42 -17 -81 -53 -117 -38 -40 -69 -42 -97 -5 -21 25 -22 34
-16 127 3 55 9 124 12 153 6 49 5 52 -15 52 -16 0 -26 -10 -37 -37z"/>
<path d="M365 1769 c-49 -16 -111 -38 -137 -50 -40 -19 -48 -27 -48 -50 l0
-27 103 54 c56 29 109 54 117 54 17 1 67 36 60 43 -3 2 -45 -9 -95 -24z"/>
<path d="M2010 1671 c0 -5 -21 -31 -46 -58 -55 -57 -91 -131 -104 -208 -10
-61 -1 -102 26 -112 22 -8 42 13 26 29 -28 28 -2 134 47 197 16 20 36 56 44
81 8 25 18 53 22 63 4 10 3 17 -4 17 -6 0 -11 -4 -11 -9z"/>
<path d="M2264 1666 c-4 -9 8 -35 30 -65 34 -46 38 -49 91 -53 33 -3 63 -11
72 -21 16 -15 15 -18 -7 -42 -14 -15 -48 -40 -78 -56 -71 -41 -119 -41 -199 0
-78 39 -85 39 -72 2 17 -49 60 -80 127 -93 53 -10 67 -9 109 7 26 10 69 38 95
63 47 43 48 47 48 102 0 39 -5 62 -15 70 -8 7 -15 19 -15 26 0 8 7 14 15 14 8
0 15 9 15 19 0 22 -16 27 -132 36 -66 6 -79 4 -84 -9z"/>
<path d="M180 1365 c0 -110 1 -118 16 -103 23 23 23 140 1 188 -16 35 -16 34
-17 -85z"/>
</g>
</svg>
