<?xml version="1.0" standalone="no"?>
<!DOCTYPE svg PUBLIC "-//W3C//DTD SVG 20010904//EN"
 "http://www.w3.org/TR/2001/REC-SVG-20010904/DTD/svg10.dtd">
<svg version="1.0" xmlns="http://www.w3.org/2000/svg"
 width="129.000000pt" height="251.000000pt" viewBox="0 0 129.000000 251.000000"
 preserveAspectRatio="xMidYMid meet">
<metadata>
Created by potrace 1.16, written by Peter Selinger 2001-2019
</metadata>
<g transform="translate(0.000000,251.000000) scale(0.100000,-0.100000)"
fill="#000000" stroke="none">
<path d="M664 1580 c-12 -5 -35 -26 -52 -47 -214 -265 -264 -334 -282 -382
-21 -55 -20 -101 2 -101 7 0 23 11 37 24 32 30 208 126 259 141 31 9 29 -13
-8 -55 -16 -19 -29 -38 -30 -43 0 -10 -77 -111 -213 -282 -62 -78 -56 -125 7
-50 20 25 41 43 45 40 5 -2 10 -62 13 -132 5 -147 19 -187 67 -198 31 -7 77
11 101 40 18 22 11 25 -37 12 -62 -16 -68 -7 -82 136 -7 69 -19 132 -27 144
-20 32 -18 37 26 85 70 75 84 91 151 178 36 47 71 100 77 118 12 34 4 74 -18
87 -14 9 -88 -19 -186 -72 -147 -78 -150 -58 -14 93 25 28 63 72 85 99 59 71
97 105 115 102 11 -1 15 7 15 33 0 37 -14 46 -51 30z"/>
<path d="M601 861 c-26 -36 -27 -83 -3 -104 29 -26 52 -20 93 24 l38 41 -33
34 c-40 42 -68 43 -95 5z m89 -35 c0 -19 -17 -29 -37 -22 -12 5 -13 9 -3 21
16 19 40 19 40 1z"/>
</g>
</svg>
