<?xml version="1.0" standalone="no"?>
<!DOCTYPE svg PUBLIC "-//W3C//DTD SVG 20010904//EN"
 "http://www.w3.org/TR/2001/REC-SVG-20010904/DTD/svg10.dtd">
<svg version="1.0" xmlns="http://www.w3.org/2000/svg"
 width="361.000000pt" height="387.000000pt" viewBox="0 0 361.000000 387.000000"
 preserveAspectRatio="xMidYMid meet">
<metadata>
Created by potrace 1.16, written by Peter Selinger 2001-2019
</metadata>
<g transform="translate(0.000000,387.000000) scale(0.100000,-0.100000)"
fill="#000000" stroke="none">
<path d="M3240 2793 c-25 -8 -74 -26 -110 -40 -156 -61 -192 -73 -215 -73 -38
0 -85 -46 -85 -85 0 -48 22 -62 57 -37 15 11 37 29 47 41 11 12 45 29 75 37
31 9 88 32 126 51 133 66 206 78 263 43 l32 -20 0 39 c0 31 -5 40 -25 49 -34
16 -109 13 -165 -5z"/>
<path d="M1633 2708 c-55 -15 -68 -52 -68 -203 l-1 -130 -26 -3 c-32 -4 -68
28 -68 61 0 12 5 40 10 61 11 47 5 60 -20 46 -28 -15 -60 -74 -60 -111 0 -41
44 -107 77 -115 14 -4 62 -4 107 0 68 6 85 4 96 -9 19 -23 35 -18 68 19 25 29
52 104 52 146 0 21 -30 9 -44 -18 -21 -40 -47 -60 -86 -64 -49 -4 -63 25 -55
116 6 64 35 149 56 162 11 6 12 41 2 47 -5 2 -23 0 -40 -5z"/>
<path d="M2057 2580 c-34 -29 -86 -138 -152 -315 -35 -93 -40 -230 -9 -252 40
-29 64 -27 135 11 56 30 72 35 89 26 35 -19 53 -68 47 -130 -9 -81 -26 -155
-42 -176 -12 -18 -14 -18 -32 -2 -50 45 -138 61 -166 30 -25 -27 -21 -35 13
-28 54 10 148 -63 136 -107 -16 -63 -159 -287 -184 -287 -4 0 -24 16 -44 35
-20 19 -41 35 -45 35 -17 0 -71 -65 -87 -103 -19 -47 -41 -46 -70 3 -18 31
-22 58 -27 225 -4 105 -10 203 -14 218 -6 24 -3 33 24 57 39 36 42 59 4 34
-74 -48 -116 -66 -161 -67 l-47 -2 0 34 c0 38 -15 50 -35 26 -21 -26 -96 -459
-86 -499 14 -57 37 -17 56 99 23 141 66 236 119 268 70 41 81 17 81 -188 0
-132 3 -162 21 -210 20 -55 69 -105 101 -105 25 0 101 102 114 154 9 36 19 33
41 -11 15 -32 24 -38 54 -41 27 -2 44 3 68 24 38 31 115 137 151 207 14 28 31
52 36 54 6 2 46 -29 90 -70 140 -129 295 -230 318 -207 8 8 2 18 -24 38 -35
28 -296 257 -338 297 -23 22 -23 23 -7 55 26 51 55 206 48 259 -9 71 -46 137
-84 150 -40 14 -101 -1 -147 -36 -28 -21 -35 -23 -49 -12 -12 11 -14 25 -9 68
12 101 107 333 167 410 46 59 4 83 -54 31z"/>
<path d="M953 2288 c-20 -22 -103 -174 -166 -301 -15 -33 -27 -66 -25 -75 7
-36 34 -13 81 68 28 47 77 129 109 184 58 97 69 138 38 144 -9 1 -25 -8 -37
-20z"/>
<path d="M1740 2178 c-14 -7 -87 -12 -165 -14 l-140 -1 0 -34 0 -34 65 -3
c102 -5 213 14 260 43 58 36 41 70 -20 43z"/>
<path d="M1147 2148 c-30 -71 -259 -400 -359 -516 -35 -41 -28 -59 14 -35 39
24 219 227 289 328 58 82 119 192 119 211 0 11 -32 44 -43 44 -4 0 -13 -15
-20 -32z"/>
<path d="M3111 2131 c-8 -14 -8 -34 -2 -61 12 -52 -1 -148 -33 -244 -13 -39
-26 -95 -29 -125 -4 -30 -13 -61 -20 -70 -24 -27 -47 -79 -47 -106 0 -33 17
-65 34 -65 25 0 148 271 131 288 -3 3 -15 0 -27 -7 -19 -12 -20 -11 -14 16 4
15 21 55 39 88 29 55 32 68 32 150 0 61 -5 100 -15 119 -19 37 -36 43 -49 17z"/>
<path d="M1847 1993 c-4 -3 -7 -11 -7 -17 0 -6 5 -5 12 2 6 6 9 14 7 17 -3 3
-9 2 -12 -2z"/>
<path d="M1005 1689 c-4 -5 0 -53 9 -107 8 -53 20 -171 25 -262 11 -163 21
-203 50 -186 15 9 15 342 0 421 -17 93 -64 167 -84 134z"/>
<path d="M3413 1465 c-7 -22 -26 -64 -43 -92 -36 -63 -59 -68 -107 -21 -30 29
-35 31 -49 17 -14 -14 -13 -19 7 -53 12 -20 29 -41 39 -46 46 -24 106 -3 150
52 18 23 20 38 18 105 l-3 78 -12 -40z"/>
</g>
</svg>
