<?xml version="1.0" standalone="no"?>
<!DOCTYPE svg PUBLIC "-//W3C//DTD SVG 20010904//EN"
 "http://www.w3.org/TR/2001/REC-SVG-20010904/DTD/svg10.dtd">
<svg version="1.0" xmlns="http://www.w3.org/2000/svg"
 width="290.000000pt" height="370.000000pt" viewBox="0 0 290.000000 370.000000"
 preserveAspectRatio="xMidYMid meet">
<metadata>
Created by potrace 1.16, written by Peter Selinger 2001-2019
</metadata>
<g transform="translate(0.000000,370.000000) scale(0.100000,-0.100000)"
fill="#000000" stroke="none">
<path d="M413 2906 c-32 -27 -121 -199 -146 -281 -8 -27 -31 -88 -51 -135 -32
-75 -36 -94 -36 -169 0 -46 2 -82 5 -79 9 9 104 227 156 358 49 123 102 222
143 268 16 18 18 27 10 40 -17 26 -48 26 -81 -2z"/>
<path d="M2660 2897 c-20 -17 -51 -54 -70 -82 -18 -27 -51 -71 -72 -96 -21
-26 -72 -98 -114 -160 -42 -63 -88 -129 -102 -147 -20 -26 -22 -35 -12 -47 17
-21 42 -19 72 5 33 26 79 43 89 33 4 -4 11 -51 15 -104 l7 -96 -55 -31 c-65
-37 -82 -65 -81 -135 1 -111 20 -140 90 -135 46 4 58 -20 14 -28 -34 -7 -56
-28 -46 -44 3 -5 26 -10 50 -10 24 0 47 -5 50 -10 3 -6 10 -52 16 -103 5 -50
12 -106 15 -123 l6 -31 -79 4 c-43 2 -129 8 -192 13 -117 10 -141 5 -141 -27
0 -30 68 -44 263 -53 106 -6 219 -15 252 -20 84 -14 85 -14 85 19 0 29 -2 30
-82 48 -71 16 -83 22 -81 39 2 10 4 72 6 136 1 64 5 120 8 123 3 2 36 6 73 7
69 2 92 16 67 41 -14 14 -15 54 -1 62 6 4 10 61 10 139 l0 132 -29 28 c-26 25
-35 27 -68 22 -85 -14 -87 -14 -97 24 -6 24 -4 51 6 85 l14 50 87 3 87 3 0 29
0 30 -74 0 c-83 0 -99 10 -67 44 12 12 21 25 21 29 0 12 -95 8 -108 -5 -7 -7
-12 -24 -12 -40 0 -29 -35 -57 -51 -41 -12 12 86 151 174 244 42 45 80 93 83
108 2 14 11 39 19 54 14 27 13 47 -3 47 -4 0 -23 -15 -42 -33z m-7 -715 c9
-10 19 -32 22 -48 6 -25 -1 -36 -54 -88 l-60 -60 -11 29 c-6 16 -10 40 -8 54
3 24 7 26 48 26 38 0 45 3 45 20 0 11 -11 25 -23 31 -33 16 -45 30 -38 43 11
17 61 13 79 -7z m-189 -109 c22 -44 29 -90 15 -99 -7 -4 -17 0 -23 8 -6 9 -20
17 -31 19 -14 3 -21 14 -23 37 -6 60 36 84 62 35z m206 -83 c0 -12 -7 -34 -15
-50 -13 -24 -22 -30 -50 -30 -40 0 -57 19 -30 34 10 6 32 23 49 38 37 33 46
34 46 8z"/>
<path d="M1568 2736 c-35 -41 -36 -44 -27 -92 10 -55 3 -131 -14 -141 -6 -4
-27 -9 -47 -13 -26 -4 -35 -10 -35 -25 0 -15 8 -21 33 -23 49 -5 66 -38 59
-113 -6 -72 -17 -87 -69 -95 -21 -4 -49 -15 -61 -25 -22 -19 -22 -19 -3 -34
26 -20 64 -19 167 4 141 31 209 76 209 141 0 31 -14 31 -51 1 -35 -30 -144
-70 -155 -58 -9 9 12 77 42 138 21 42 29 49 76 63 29 9 71 17 93 18 44 3 58
26 34 54 -14 17 -81 14 -147 -7 -19 -7 -38 -7 -43 -2 -4 4 -9 61 -11 126 -1
65 -5 120 -8 122 -4 2 -23 -15 -42 -39z"/>
<path d="M1258 2634 c-19 -10 -33 -30 -45 -67 -31 -91 -126 -268 -222 -412
-52 -77 -101 -148 -109 -158 -12 -14 -13 -20 -3 -30 13 -13 40 13 111 108 19
26 56 73 81 104 89 110 191 292 205 367 3 21 13 51 20 66 8 15 14 29 14 33 0
9 -24 5 -52 -11z"/>
<path d="M1219 2273 c-44 -56 -97 -134 -151 -218 -14 -22 -36 -66 -49 -98 -21
-52 -21 -59 -7 -73 14 -15 19 -11 52 47 20 35 49 81 64 102 39 54 73 104 115
169 26 40 48 62 73 73 50 21 44 49 -12 53 -39 3 -42 0 -85 -55z"/>
<path d="M1684 2155 c-37 -31 -53 -36 -145 -50 -129 -20 -172 -37 -167 -68 2
-18 9 -22 33 -20 89 7 145 14 187 24 26 6 52 8 58 4 5 -3 10 -31 10 -62 0 -50
-5 -64 -47 -127 -56 -85 -113 -194 -113 -218 0 -10 19 -30 41 -45 55 -36 108
-37 144 -3 52 49 58 73 57 226 -1 114 1 144 13 154 19 16 19 30 -1 44 -33 24
12 66 71 66 32 0 90 52 82 73 -5 14 -11 14 -53 1 -70 -21 -93 -18 -104 11 -5
14 -13 25 -17 25 -5 0 -27 -16 -49 -35z m-6 -405 c-4 -106 -18 -140 -53 -126
-15 5 -17 17 -13 69 5 65 39 157 59 157 8 0 10 -29 7 -100z"/>
<path d="M1137 1993 c-10 -10 -8 -293 3 -405 13 -130 55 -258 85 -258 17 0 19
27 6 62 -5 13 -16 138 -26 278 -14 205 -22 262 -37 293 -20 39 -21 41 -31 30z"/>
</g>
</svg>
