<?xml version="1.0" standalone="no"?>
<!DOCTYPE svg PUBLIC "-//W3C//DTD SVG 20010904//EN"
 "http://www.w3.org/TR/2001/REC-SVG-20010904/DTD/svg10.dtd">
<svg version="1.0" xmlns="http://www.w3.org/2000/svg"
 width="227.000000pt" height="377.000000pt" viewBox="0 0 227.000000 377.000000"
 preserveAspectRatio="xMidYMid meet">
<metadata>
Created by potrace 1.16, written by Peter Selinger 2001-2019
</metadata>
<g transform="translate(0.000000,377.000000) scale(0.100000,-0.100000)"
fill="#000000" stroke="none">
<path d="M1727 2993 c-4 -3 -7 -21 -7 -39 0 -28 10 -42 70 -95 39 -34 73 -73
76 -86 7 -26 24 -31 24 -7 0 15 -35 113 -65 182 -18 39 -77 67 -98 45z"/>
<path d="M1260 2751 c-82 -44 -179 -87 -230 -103 -27 -8 -44 -19 -42 -27 4
-20 -15 -38 -87 -81 -36 -22 -90 -62 -120 -89 l-55 -49 18 -27 c24 -36 41 -40
86 -20 21 9 43 14 49 11 13 -8 14 -198 2 -266 -5 -25 -14 -79 -21 -120 -7 -41
-23 -115 -36 -165 -13 -49 -24 -103 -24 -120 0 -16 -11 -64 -25 -106 -36 -114
-61 -257 -48 -270 17 -17 31 -2 39 39 4 20 11 46 17 56 5 11 15 45 22 75 15
68 64 238 76 266 5 11 23 88 39 170 39 193 33 179 69 160 42 -21 66 -19 84 8
l15 22 32 -30 c46 -43 57 -70 65 -161 6 -67 3 -95 -15 -163 -12 -44 -27 -84
-32 -87 -5 -3 -37 6 -71 22 -93 42 -177 33 -177 -18 0 -16 5 -19 20 -14 11 3
28 8 38 11 20 6 131 -52 145 -76 15 -23 -8 -74 -56 -126 -44 -48 -74 -54 -102
-23 -10 11 -22 17 -26 14 -30 -18 27 -74 75 -74 41 0 126 63 158 116 11 19 22
34 25 34 3 0 49 -44 102 -97 137 -138 270 -222 354 -223 33 0 17 29 -30 56
-111 62 -204 134 -299 230 l-101 103 23 48 c50 102 65 218 43 323 -8 36 -24
66 -55 102 -24 29 -44 58 -44 65 0 7 16 33 35 59 19 25 35 50 35 55 0 6 18 33
40 62 21 29 47 68 56 87 8 19 24 51 35 70 10 19 19 47 19 61 0 15 7 32 16 40
11 9 14 22 10 45 -6 27 -1 36 35 72 l42 40 -34 21 c-50 31 -120 28 -189 -8z
m-115 -313 c-26 -51 -56 -104 -65 -118 -9 -14 -20 -38 -24 -54 -8 -33 -65
-106 -83 -106 -10 0 -13 25 -13 94 0 51 -3 107 -6 122 -5 27 0 33 78 86 167
113 183 110 113 -24z"/>
<path d="M2070 2750 c-15 -9 -46 -20 -190 -61 -41 -12 -97 -32 -125 -44 -27
-13 -58 -26 -68 -29 -14 -5 -16 -9 -7 -26 13 -24 52 -26 107 -6 136 48 181 55
154 23 -6 -8 -25 -54 -42 -103 -27 -76 -30 -98 -26 -155 4 -47 1 -74 -9 -94
-8 -15 -14 -29 -14 -31 0 -11 109 12 129 28 26 20 51 10 51 -22 0 -16 29 -50
42 -50 4 0 5 25 4 56 -1 30 1 57 6 60 11 7 10 62 -2 69 -10 6 -9 110 3 121 8
9 10 44 1 44 -15 0 -45 -23 -56 -43 -7 -12 -15 -56 -18 -97 l-5 -75 -40 0 -40
0 3 75 c2 55 10 88 28 123 13 27 24 61 24 76 0 32 20 53 73 74 34 15 37 19 37
56 0 23 -1 41 -2 41 -2 0 -10 -5 -18 -10z"/>
<path d="M180 2564 c0 -22 2 -25 15 -14 12 10 13 16 4 26 -16 20 -19 18 -19
-12z"/>
<path d="M203 2361 c-18 -15 -23 -30 -23 -65 0 -25 4 -46 8 -46 15 0 82 76 82
93 0 9 -9 21 -19 27 -24 12 -22 13 -48 -9z"/>
<path d="M1630 2255 c-21 -26 2 -62 50 -76 50 -15 113 -3 118 23 3 16 -2 17
-41 12 -41 -6 -46 -4 -66 25 -25 34 -42 39 -61 16z"/>
<path d="M535 2185 c-7 -5 -15 -27 -18 -49 -8 -50 12 -88 64 -125 76 -56 162
-50 218 14 52 59 51 127 -2 157 -27 16 -244 18 -262 3z m223 -77 c5 -65 -63
-89 -129 -45 -23 16 -34 31 -34 47 0 23 5 26 55 31 98 11 105 9 108 -33z"/>
<path d="M198 2129 c-23 -13 -25 -64 -2 -55 9 3 27 9 40 12 25 6 48 36 37 48
-10 9 -56 7 -75 -5z"/>
<path d="M1990 2055 c-65 -20 -150 -101 -150 -143 0 -17 5 -34 11 -37 19 -13
3 -29 -42 -39 -30 -8 -45 -17 -47 -30 -6 -27 14 -42 33 -26 23 19 123 6 198
-26 99 -41 99 -41 95 -8 -4 33 -38 54 -130 79 -69 19 -74 36 -17 59 37 15 40
19 34 45 -5 23 -1 31 22 47 15 10 42 21 58 24 25 4 30 10 33 38 3 29 1 32 -25
31 -15 0 -48 -7 -73 -14z"/>
<path d="M2014 1566 c-70 -80 -136 -126 -183 -126 -12 0 -21 -6 -21 -15 0 -22
75 -19 126 4 23 10 67 43 98 73 55 52 57 56 54 100 l-3 46 -71 -82z"/>
<path d="M181 1296 c-1 -135 1 -157 13 -147 15 13 14 100 -3 236 -7 62 -9 52
-10 -89z"/>
</g>
</svg>
