<?xml version="1.0" standalone="no"?>
<!DOCTYPE svg PUBLIC "-//W3C//DTD SVG 20010904//EN"
 "http://www.w3.org/TR/2001/REC-SVG-20010904/DTD/svg10.dtd">
<svg version="1.0" xmlns="http://www.w3.org/2000/svg"
 width="195.000000pt" height="311.000000pt" viewBox="0 0 195.000000 311.000000"
 preserveAspectRatio="xMidYMid meet">
<metadata>
Created by potrace 1.16, written by Peter Selinger 2001-2019
</metadata>
<g transform="translate(0.000000,311.000000) scale(0.100000,-0.100000)"
fill="#000000" stroke="none">
<path d="M1268 1683 c-45 -46 -95 -150 -80 -165 7 -7 16 -1 28 18 38 62 86
114 104 114 13 0 27 -14 40 -40 23 -45 26 -137 10 -335 -16 -196 -26 -236 -77
-302 -44 -57 -93 -142 -93 -163 0 -22 20 -8 47 32 30 45 53 59 53 34 0 -28
-39 -128 -65 -168 -27 -41 -33 -78 -11 -78 19 0 86 76 86 98 0 10 4 22 9 27 5
6 23 61 40 124 26 99 36 120 68 154 45 46 209 157 233 157 36 0 53 49 28 83
-12 15 -16 15 -49 -6 -62 -38 -122 -80 -171 -120 -38 -31 -49 -36 -54 -24 -3
9 0 25 6 37 15 29 28 198 24 326 -3 81 -8 113 -25 146 -49 98 -92 112 -151 51z"/>
<path d="M785 1661 c-109 -54 -113 -94 -5 -55 64 23 72 24 104 10 64 -27 80
-86 32 -125 -9 -7 -16 -19 -16 -26 0 -6 -23 -36 -50 -66 -52 -56 -87 -127 -77
-154 8 -19 46 -19 74 0 18 13 26 13 42 4 16 -11 23 -8 45 17 26 30 34 78 15
90 -6 3 -23 -6 -38 -20 -27 -26 -51 -34 -51 -16 0 5 20 34 44 64 97 118 118
201 67 258 -24 27 -36 32 -87 35 -44 3 -69 -1 -99 -16z"/>
<path d="M182 1320 c0 -52 2 -58 8 -32 4 17 4 47 0 65 -6 25 -8 19 -8 -33z"/>
<path d="M275 1260 c-7 -11 -76 -44 -87 -42 -5 1 -8 -15 -8 -37 l0 -38 63 22
c71 26 101 61 78 89 -15 18 -37 21 -46 6z"/>
<path d="M978 1156 c-24 -30 -52 -70 -63 -88 -13 -21 -29 -33 -43 -33 -12 0
-27 -6 -33 -12 -15 -15 6 -53 31 -53 22 0 85 62 107 105 20 39 64 86 75 79 4
-3 8 -27 8 -54 0 -38 -10 -67 -45 -137 -26 -48 -57 -99 -70 -114 -29 -29 -31
-42 -10 -59 12 -10 20 -9 41 5 26 17 74 110 74 144 0 10 8 29 18 42 22 28 52
112 52 145 0 24 -61 84 -85 84 -8 0 -33 -25 -57 -54z"/>
</g>
</svg>
