<?xml version="1.0" standalone="no"?>
<!DOCTYPE svg PUBLIC "-//W3C//DTD SVG 20010904//EN"
 "http://www.w3.org/TR/2001/REC-SVG-20010904/DTD/svg10.dtd">
<svg version="1.0" xmlns="http://www.w3.org/2000/svg"
 width="389.000000pt" height="358.000000pt" viewBox="0 0 389.000000 358.000000"
 preserveAspectRatio="xMidYMid meet">
<metadata>
Created by potrace 1.16, written by Peter Selinger 2001-2019
</metadata>
<g transform="translate(0.000000,358.000000) scale(0.100000,-0.100000)"
fill="#000000" stroke="none">
<path d="M492 2710 c-59 -24 -132 -106 -117 -130 9 -15 31 -12 45 5 21 25 44
14 45 -20 0 -69 90 -23 119 61 9 26 13 51 10 56 -6 9 -68 39 -76 37 -2 0 -13
-4 -26 -9z"/>
<path d="M3360 2532 c0 -4 28 -32 63 -62 34 -30 71 -62 82 -72 11 -10 49 -44
85 -75 36 -32 66 -63 68 -70 2 -7 -6 -25 -17 -39 -12 -15 -21 -35 -21 -44 0
-10 -7 -35 -16 -56 -25 -60 -14 -118 31 -164 21 -21 46 -41 56 -43 31 -8 26
59 -6 85 -14 11 -25 29 -25 41 1 35 25 116 38 129 17 17 16 158 -1 158 -19 0
-154 98 -201 146 -23 23 -50 46 -61 52 -31 15 -75 23 -75 14z"/>
<path d="M940 2522 c0 -18 146 -51 320 -71 146 -18 288 -41 365 -62 39 -10
104 -27 145 -38 41 -11 144 -31 227 -46 212 -35 226 -41 234 -88 3 -21 16 -48
27 -60 20 -20 25 -20 79 -9 69 14 82 25 65 53 -18 28 -5 42 30 35 46 -9 173
48 199 90 22 36 36 43 44 22 3 -7 7 -119 10 -248 4 -256 17 -374 55 -540 6
-25 13 -65 16 -90 3 -25 16 -85 28 -135 13 -49 31 -124 41 -165 10 -41 24 -87
31 -101 26 -52 79 -45 55 7 -6 14 -9 35 -5 46 3 11 -1 37 -10 57 -16 37 -22
61 -82 356 -43 209 -55 316 -84 744 -11 169 -20 207 -47 196 -9 -3 -26 3 -39
16 -12 11 -39 25 -61 29 -51 12 -142 2 -173 -19 -14 -10 -39 -25 -56 -34 -17
-9 -48 -42 -69 -73 -42 -64 -35 -62 -180 -29 -38 9 -102 20 -140 24 -39 4 -80
13 -91 19 -22 11 -204 52 -374 82 -150 27 -560 50 -560 32z m1652 -79 c10 -9
18 -29 18 -44 0 -30 -22 -46 -100 -77 -49 -19 -158 -19 -177 1 -13 13 -11 19
23 57 58 64 89 80 158 80 41 0 65 -5 78 -17z m-255 -209 c3 -8 1 -20 -6 -27
-14 -14 -47 15 -37 32 10 16 36 13 43 -5z"/>
<path d="M2940 2038 c-11 -18 -23 -44 -26 -58 -3 -14 -12 -39 -20 -57 -18 -40
-18 -134 0 -178 29 -69 102 -72 79 -2 -24 69 -24 123 -3 211 21 85 21 116 0
116 -6 0 -19 -15 -30 -32z"/>
<path d="M2172 2003 c-26 -27 -69 -79 -96 -118 -27 -38 -69 -91 -93 -117 -44
-49 -53 -80 -32 -120 13 -25 68 -48 114 -48 47 0 45 -16 -8 -72 -46 -48 -117
-156 -117 -179 0 -8 -7 -27 -15 -42 -27 -52 -36 -108 -36 -217 0 -71 4 -116
13 -132 42 -74 81 -94 151 -77 42 10 61 22 109 72 46 49 66 82 102 166 60 141
86 217 86 246 0 13 9 44 20 70 23 53 25 100 7 132 -21 38 -77 73 -117 73 -20
0 -40 3 -43 6 -4 4 7 22 23 41 24 27 30 43 30 78 0 58 -17 58 -54 1 -47 -74
-138 -122 -185 -96 -23 12 -28 43 -8 57 6 5 45 22 84 37 59 22 82 38 120 81
27 29 61 59 77 66 26 12 30 11 47 -10 26 -32 34 -70 20 -93 -18 -30 -2 -37 20
-9 59 72 25 155 -69 170 -58 9 -96 36 -89 63 8 30 -12 20 -61 -29z m82 -444
c27 -21 27 -23 20 -98 -7 -73 -9 -78 -62 -141 -30 -36 -68 -71 -84 -78 -34
-15 -33 -36 3 -40 16 -2 39 8 63 27 68 54 69 21 4 -112 -48 -97 -107 -163
-160 -179 -36 -11 -41 -10 -65 15 -44 44 -41 145 10 327 37 129 160 300 217
300 15 0 39 -10 54 -21z"/>
<path d="M2470 1815 c-17 -20 -9 -27 48 -42 60 -15 62 -16 62 0 0 12 -70 57
-88 57 -5 0 -15 -7 -22 -15z"/>
<path d="M3595 1619 c-105 -23 -173 -24 -197 -2 -25 22 -45 5 -29 -25 24 -46
116 -51 274 -16 60 14 67 18 67 40 0 28 -3 28 -115 3z"/>
<path d="M3680 1240 c-8 -6 -32 -15 -53 -20 -49 -14 -103 -61 -94 -83 9 -24
36 -21 111 14 62 29 66 33 66 65 0 36 -5 40 -30 24z"/>
</g>
</svg>
