<?xml version="1.0" standalone="no"?>
<!DOCTYPE svg PUBLIC "-//W3C//DTD SVG 20010904//EN"
 "http://www.w3.org/TR/2001/REC-SVG-20010904/DTD/svg10.dtd">
<svg version="1.0" xmlns="http://www.w3.org/2000/svg"
 width="257.000000pt" height="377.000000pt" viewBox="0 0 257.000000 377.000000"
 preserveAspectRatio="xMidYMid meet">
<metadata>
Created by potrace 1.16, written by Peter Selinger 2001-2019
</metadata>
<g transform="translate(0.000000,377.000000) scale(0.100000,-0.100000)"
fill="#000000" stroke="none">
<path d="M1132 2513 c-12 -5 -74 -85 -178 -235 -77 -110 -139 -232 -127 -252
8 -15 13 -12 39 21 33 43 40 54 73 114 66 121 207 257 294 283 26 8 21 21 -23
50 -39 26 -53 29 -78 19z"/>
<path d="M2310 2318 c-130 -30 -155 -42 -155 -71 0 -14 -12 -38 -27 -54 -34
-35 -51 -84 -67 -188 -7 -44 -17 -102 -21 -130 -5 -27 -12 -84 -16 -125 -3
-41 -12 -104 -19 -140 -15 -77 -12 -341 4 -383 23 -60 36 -25 42 119 6 135 34
362 64 514 7 41 17 100 20 130 4 30 16 85 27 123 22 73 47 101 101 112 67 13
120 30 124 42 2 6 3 24 1 40 l-3 28 -75 -17z"/>
<path d="M1000 2169 c-38 -30 -50 -45 -44 -57 4 -9 9 -29 12 -44 2 -16 6 -28
8 -28 2 0 26 23 52 50 45 47 51 50 99 50 56 0 103 -27 103 -60 0 -15 -13 -21
-71 -31 -102 -18 -169 -68 -140 -103 18 -22 43 -20 74 4 14 11 38 20 53 20 15
0 42 11 60 25 67 51 74 34 83 -190 l6 -150 25 0 c23 0 25 4 29 55 2 30 4 105
4 165 1 100 -1 115 -26 166 -64 133 -110 169 -216 169 -54 0 -64 -3 -111 -41z"/>
<path d="M2355 2130 c-29 -30 -30 -36 -33 -132 l-4 -100 -33 -14 c-34 -14
-114 -83 -99 -85 5 -1 29 -2 54 -3 l45 -1 3 -49 c2 -27 -4 -94 -13 -149 -13
-72 -14 -102 -6 -110 25 -25 54 47 86 208 9 44 20 91 26 105 5 14 8 99 7 193
l-3 168 -30 -31z"/>
<path d="M960 1995 c0 -8 5 -15 10 -15 6 0 10 7 10 15 0 8 -4 15 -10 15 -5 0
-10 -7 -10 -15z"/>
<path d="M1187 1883 c-10 -3 -43 -18 -74 -34 -30 -16 -61 -29 -68 -29 -21 0
-28 -19 -14 -37 16 -18 93 -11 118 11 9 7 26 17 39 21 12 3 29 19 37 34 19 38
10 46 -38 34z"/>
<path d="M180 1836 c0 -22 3 -27 11 -19 8 8 8 16 0 30 -9 16 -10 14 -11 -11z"/>
<path d="M837 1794 c-5 -5 -3 -32 9 -111 4 -24 13 -37 35 -48 26 -14 30 -14
35 0 4 8 -1 26 -9 38 -8 13 -21 42 -28 65 -12 42 -31 67 -42 56z"/>
<path d="M253 1763 c-71 -25 -73 -27 -73 -59 0 -19 3 -34 8 -34 17 0 167 70
170 80 4 11 -16 41 -27 39 -3 0 -39 -12 -78 -26z"/>
<path d="M965 1781 c-3 -5 -1 -12 5 -16 12 -7 30 2 30 16 0 12 -27 12 -35 0z"/>
<path d="M954 1668 c-12 -19 20 -49 68 -63 61 -18 72 -18 138 -4 43 9 50 14
50 34 0 13 -5 27 -12 31 -16 10 -239 11 -244 2z"/>
<path d="M198 1493 c-13 -3 -18 -15 -18 -44 0 -44 2 -45 59 -24 48 17 80 9
105 -27 19 -27 21 -110 4 -248 -6 -52 -12 -117 -13 -145 -1 -48 -3 -50 -31
-53 -80 -7 -98 -29 -44 -57 43 -22 67 -19 122 16 52 34 58 54 15 54 -38 0 -40
8 -21 72 25 86 35 146 40 258 6 118 -9 159 -66 187 -33 17 -110 22 -152 11z"/>
<path d="M1198 1425 c-41 -28 -85 -87 -116 -155 -47 -104 -49 -144 -9 -187 26
-29 17 -38 -36 -34 -47 3 -68 13 -111 48 -20 17 -32 21 -39 14 -14 -14 61 -93
107 -115 71 -34 179 -31 310 7 44 13 110 87 121 136 17 79 118 72 191 -13 l36
-41 -7 -92 c-6 -92 2 -120 28 -94 29 29 47 174 27 225 -26 70 -126 129 -218
131 -31 0 -36 4 -70 75 -58 117 -133 150 -214 95z m147 -93 c31 -47 41 -94 23
-109 -7 -6 -29 -16 -48 -22 -19 -6 -62 -31 -95 -56 -84 -63 -115 -58 -115 21
0 92 53 175 122 191 75 18 86 16 113 -25z m6 -210 c-19 -35 -113 -82 -126 -63
-4 8 61 66 99 88 26 15 41 1 27 -25z"/>
<path d="M2243 1389 c-40 -10 -72 -33 -60 -46 13 -13 95 -22 150 -16 57 6 57
6 57 39 l0 34 -52 -1 c-29 -1 -72 -5 -95 -10z"/>
<path d="M772 1350 c-10 -16 -34 -40 -53 -52 -62 -41 -98 -153 -69 -209 7 -13
21 -19 45 -19 41 0 53 15 31 39 -22 24 -20 37 14 101 17 30 30 62 30 69 0 8
12 27 26 42 16 17 24 34 21 43 -10 24 -25 19 -45 -14z"/>
</g>
</svg>
