<?xml version="1.0" standalone="no"?>
<!DOCTYPE svg PUBLIC "-//W3C//DTD SVG 20010904//EN"
 "http://www.w3.org/TR/2001/REC-SVG-20010904/DTD/svg10.dtd">
<svg version="1.0" xmlns="http://www.w3.org/2000/svg"
 width="292.000000pt" height="342.000000pt" viewBox="0 0 292.000000 342.000000"
 preserveAspectRatio="xMidYMid meet">
<metadata>
Created by potrace 1.16, written by Peter Selinger 2001-2019
</metadata>
<g transform="translate(0.000000,342.000000) scale(0.100000,-0.100000)"
fill="#000000" stroke="none">
<path d="M965 2578 c-3 -7 -9 -76 -15 -153 -5 -77 -14 -187 -20 -244 l-11
-104 -90 -89 c-50 -50 -88 -95 -86 -101 2 -7 13 -16 26 -22 18 -8 21 -16 17
-37 -10 -50 21 -35 146 68 92 76 116 90 124 70 8 -21 -41 -105 -87 -148 -42
-40 -48 -58 -24 -78 18 -15 38 -3 116 66 28 25 56 43 62 41 15 -5 11 -76 -9
-172 -31 -146 -27 -323 8 -389 10 -19 11 -19 24 -1 8 10 14 36 14 56 0 33 10
49 78 124 42 48 79 91 80 96 2 5 -6 9 -18 9 -15 0 -45 -24 -86 -66 -79 -83
-84 -76 -60 85 42 275 47 368 20 378 -12 4 -26 -5 -45 -28 -15 -19 -30 -31
-34 -27 -4 3 2 30 12 58 21 61 71 110 111 110 37 0 52 -17 52 -56 0 -30 23
-63 33 -47 3 4 5 39 5 76 -1 85 -6 88 -130 83 -87 -3 -164 -22 -194 -47 -31
-26 -30 41 7 245 10 60 19 129 19 152 0 24 5 46 11 49 7 5 2 16 -12 31 -25 27
-37 30 -44 12z m55 -536 c0 -8 -73 -60 -122 -88 -10 -6 -32 -24 -49 -40 -16
-15 -32 -24 -36 -21 -8 9 104 117 121 117 8 0 24 9 37 20 25 20 49 26 49 12z"/>
<path d="M2540 2451 c-5 -11 -10 -64 -10 -118 0 -121 -39 -338 -70 -388 -16
-26 -20 -47 -18 -92 2 -41 7 -58 17 -58 16 0 22 11 48 78 20 53 77 107 95 89
7 -7 -6 -43 -42 -117 -71 -145 -58 -169 55 -95 75 49 128 102 123 125 -2 14
-12 10 -58 -24 -53 -40 -80 -51 -80 -31 0 21 81 183 110 220 26 32 30 46 30
96 l0 59 -29 -46 c-46 -74 -145 -148 -168 -126 -3 4 2 34 10 69 43 174 65 342
46 364 -16 20 -46 17 -59 -5z"/>
<path d="M233 2203 c-48 -14 -53 -18 -53 -44 0 -31 10 -35 41 -18 12 6 27 8
36 5 12 -5 11 -10 -7 -33 -45 -59 -70 -105 -70 -130 l0 -27 36 35 c47 44 124
161 124 188 0 19 -27 42 -47 40 -4 0 -32 -8 -60 -16z"/>
<path d="M441 1837 c-6 -8 -54 -19 -113 -26 -151 -18 -148 -17 -148 -52 l0
-31 53 7 c146 20 264 70 242 105 -8 14 -20 13 -34 -3z"/>
<path d="M710 1775 c-9 -11 -11 -38 -8 -91 5 -82 17 -105 43 -84 16 13 19 75
7 144 -8 44 -22 55 -42 31z"/>
<path d="M2703 1706 c-17 -39 -39 -94 -48 -123 -12 -38 -27 -61 -62 -90 -96
-80 -173 -168 -210 -237 -30 -59 -37 -83 -41 -146 -4 -79 7 -127 33 -136 25
-10 28 2 10 37 -37 70 12 198 125 327 39 45 76 82 80 82 5 0 31 18 59 40 28
22 52 37 52 33 1 -5 2 -33 3 -63 0 -34 8 -64 19 -80 17 -24 17 -21 17 114 0
121 -2 137 -15 126 -26 -21 -29 15 -5 54 16 26 20 48 18 84 l-3 48 -32 -70z"/>
<path d="M935 1380 c-42 -43 -47 -123 -12 -182 32 -54 49 -70 117 -104 43 -22
69 -28 120 -28 57 0 73 5 129 37 86 51 241 179 241 199 0 19 -31 5 -86 -37
-32 -25 -94 -66 -137 -92 -66 -39 -87 -46 -131 -46 -68 0 -131 29 -178 81 -41
46 -49 88 -27 151 17 47 -1 58 -36 21z"/>
<path d="M180 1353 c0 -24 28 -50 150 -140 162 -119 199 -140 283 -158 56 -13
82 -14 89 -7 13 13 -27 32 -65 32 -24 0 -85 38 -162 100 -152 123 -219 168
-272 184 -18 6 -23 3 -23 -11z"/>
</g>
</svg>
