<?xml version="1.0" standalone="no"?>
<!DOCTYPE svg PUBLIC "-//W3C//DTD SVG 20010904//EN"
 "http://www.w3.org/TR/2001/REC-SVG-20010904/DTD/svg10.dtd">
<svg version="1.0" xmlns="http://www.w3.org/2000/svg"
 width="188.000000pt" height="262.000000pt" viewBox="0 0 188.000000 262.000000"
 preserveAspectRatio="xMidYMid meet">
<metadata>
Created by potrace 1.16, written by Peter Selinger 2001-2019
</metadata>
<g transform="translate(0.000000,262.000000) scale(0.100000,-0.100000)"
fill="#000000" stroke="none">
<path d="M1028 1833 c-26 -31 -104 -155 -147 -234 -41 -75 -54 -140 -30 -154
13 -9 53 28 81 73 15 24 24 30 32 22 8 -8 5 -22 -12 -53 -12 -23 -22 -46 -22
-51 0 -6 -12 -27 -26 -47 -27 -40 -25 -59 5 -59 17 0 50 21 164 105 69 51 58
74 -17 35 -22 -10 -43 -17 -48 -14 -11 7 34 88 71 127 14 16 53 41 86 56 70
32 107 67 82 76 -8 4 -34 -3 -58 -14 -57 -28 -73 -27 -64 2 13 43 23 102 19
109 -3 5 -13 8 -23 8 -9 0 -26 7 -37 15 -25 19 -38 19 -56 -2z m12 -152 c0
-13 -40 -61 -51 -61 -15 0 -11 15 12 44 20 26 39 34 39 17z"/>
<path d="M513 1618 c-62 -120 -102 -231 -128 -358 -9 -42 -35 -115 -61 -168
-44 -89 -45 -94 -30 -117 14 -21 24 -25 70 -25 96 0 163 -35 198 -103 26 -52
36 -164 18 -207 -16 -40 -93 -80 -152 -80 -51 -1 -157 -25 -171 -39 -18 -18 1
-39 40 -43 21 -3 85 1 143 9 199 25 231 26 300 8 77 -20 241 -104 393 -202 37
-24 99 -59 137 -78 69 -35 70 -35 205 -35 129 0 135 1 135 20 0 25 -25 36 -45
20 -8 -7 -29 -12 -47 -13 -42 -1 -206 62 -278 107 -234 147 -395 230 -475 245
-105 20 -99 12 -100 147 0 131 -13 170 -72 226 -41 39 -146 88 -188 88 -52 0
-54 21 -11 109 21 41 51 115 67 163 33 103 70 182 116 255 39 61 41 86 11 107
-35 25 -46 20 -75 -36z"/>
<path d="M1157 1373 c-34 -68 -66 -125 -91 -166 -7 -12 -30 -53 -51 -92 -21
-38 -47 -87 -59 -108 -11 -21 -40 -61 -64 -89 -46 -54 -50 -81 -15 -86 23 -3
80 60 130 145 28 48 43 51 54 11 9 -33 112 -173 141 -192 13 -8 47 -24 76 -36
l53 -23 30 29 c43 40 74 103 59 118 -8 8 -18 2 -39 -23 -56 -68 -129 -35 -235
106 -25 33 -52 66 -61 73 -8 7 -15 19 -15 27 0 20 39 97 109 214 24 40 41 159
23 159 -6 0 -26 -30 -45 -67z"/>
<path d="M1692 1130 c-73 -186 -102 -284 -102 -352 0 -104 17 -161 67 -219
l43 -51 0 47 c0 25 -7 57 -16 71 -11 16 -18 55 -22 113 -4 72 -1 101 17 158
17 55 21 89 18 154 -1 46 -4 82 -5 79z"/>
<path d="M180 384 c0 -25 1 -26 22 -12 32 22 34 38 4 38 -21 0 -26 -5 -26 -26z"/>
</g>
</svg>
