<?xml version="1.0" standalone="no"?>
<!DOCTYPE svg PUBLIC "-//W3C//DTD SVG 20010904//EN"
 "http://www.w3.org/TR/2001/REC-SVG-20010904/DTD/svg10.dtd">
<svg version="1.0" xmlns="http://www.w3.org/2000/svg"
 width="186.000000pt" height="272.000000pt" viewBox="0 0 186.000000 272.000000"
 preserveAspectRatio="xMidYMid meet">
<metadata>
Created by potrace 1.16, written by Peter Selinger 2001-2019
</metadata>
<g transform="translate(0.000000,272.000000) scale(0.100000,-0.100000)"
fill="#000000" stroke="none">
<path d="M551 2458 c-15 -68 -19 -115 -32 -388 -16 -349 -26 -762 -19 -790 5
-18 13 -25 30 -25 27 0 24 -13 35 165 2 46 7 90 10 98 8 22 25 3 25 -29 0 -36
24 -48 49 -25 10 9 22 16 28 16 6 0 25 -29 42 -65 49 -99 148 -174 213 -160
45 10 125 90 159 158 31 61 62 202 49 227 -4 8 -10 30 -13 48 -8 38 -77 144
-110 167 -90 63 -141 87 -177 83 -43 -5 -38 36 28 222 24 66 61 145 86 182 24
37 18 73 -13 73 -18 0 -33 -13 -57 -50 -18 -27 -42 -62 -53 -76 -25 -33 -65
-159 -81 -254 -17 -105 -33 -168 -47 -191 -7 -11 -16 -47 -19 -80 -2 -32 -8
-90 -12 -129 l-7 -70 -50 -7 c-27 -4 -54 -3 -58 1 -5 5 -4 24 2 43 9 30 22
258 37 653 3 93 10 150 19 169 20 40 19 63 -4 76 -37 19 -47 12 -60 -42z m502
-747 c42 -77 35 -166 -20 -251 -83 -127 -94 -140 -122 -140 -37 0 -92 59 -128
135 -25 53 -28 71 -27 150 2 124 26 186 80 201 31 9 39 16 41 35 0 13 1 28 2
32 2 20 150 -116 174 -162z"/>
<path d="M1672 1530 c0 -14 2 -19 5 -12 2 6 2 18 0 25 -3 6 -5 1 -5 -13z"/>
<path d="M1573 1323 c-3 -10 -14 -27 -24 -38 -25 -29 -72 -201 -64 -237 8 -32
43 -55 71 -44 15 6 15 9 -6 31 -21 22 -22 26 -9 77 7 29 21 65 31 80 10 14 18
31 18 38 0 7 7 27 16 46 9 19 14 41 10 49 -7 21 -35 19 -43 -2z"/>
</g>
</svg>
