<?xml version="1.0" standalone="no"?>
<!DOCTYPE svg PUBLIC "-//W3C//DTD SVG 20010904//EN"
 "http://www.w3.org/TR/2001/REC-SVG-20010904/DTD/svg10.dtd">
<svg version="1.0" xmlns="http://www.w3.org/2000/svg"
 width="277.000000pt" height="359.000000pt" viewBox="0 0 277.000000 359.000000"
 preserveAspectRatio="xMidYMid meet">
<metadata>
Created by potrace 1.16, written by Peter Selinger 2001-2019
</metadata>
<g transform="translate(0.000000,359.000000) scale(0.100000,-0.100000)"
fill="#000000" stroke="none">
<path d="M1405 2566 c-121 -20 -232 -91 -255 -162 -7 -21 -8 -55 -2 -99 5 -40
5 -68 -1 -72 -17 -10 -65 50 -113 142 -45 87 -78 134 -88 124 -8 -8 59 -191
88 -241 34 -58 89 -108 119 -108 15 0 47 -25 92 -70 88 -89 113 -100 155 -68
18 12 39 36 47 51 10 20 20 27 36 25 19 -3 22 -8 19 -40 -4 -43 12 -78 36 -78
9 0 30 16 45 35 26 33 27 38 15 70 -11 31 -10 40 6 69 50 93 141 147 221 132
44 -9 115 -70 115 -100 0 -11 -9 -45 -20 -75 -20 -51 -20 -54 -3 -66 12 -9 23
-10 36 -4 26 15 31 -9 23 -129 -6 -106 -12 -124 -68 -204 -16 -22 -2 -36 20
-22 22 15 68 94 81 141 14 49 14 209 0 287 -11 67 -10 75 41 249 23 78 29 112
21 120 -7 7 -12 6 -15 -4 -2 -8 -19 -57 -39 -109 l-34 -95 -39 3 c-22 2 -57
13 -79 25 -33 19 -44 33 -71 97 -68 166 -173 213 -389 176z m217 -65 c24 -10
59 -36 79 -57 41 -44 89 -108 89 -117 0 -4 -24 -7 -53 -7 -49 0 -56 -3 -92
-40 -21 -21 -50 -61 -64 -87 -24 -43 -30 -48 -61 -48 l-35 0 4 97 c4 120 -6
142 -70 151 -54 7 -102 -12 -151 -61 -42 -40 -53 -37 -63 19 -6 32 -2 41 26
73 72 82 283 124 391 77z m-202 -171 c17 -17 19 -28 14 -63 -10 -62 -20 -77
-54 -77 -16 0 -47 -9 -69 -21 -44 -23 -58 -19 -72 18 -8 21 -3 32 33 75 43 51
92 88 116 88 6 0 21 -9 32 -20z m-50 -254 c0 -7 -7 -19 -15 -26 -12 -10 -18
-10 -30 0 -25 21 -18 40 15 40 19 0 30 -5 30 -14z"/>
<path d="M312 2524 c-64 -17 -131 -62 -132 -88 0 -11 5 -16 13 -13 123 55 141
59 217 55 90 -5 121 -23 169 -95 26 -40 31 -55 28 -95 -2 -26 -12 -59 -21 -73
-19 -29 -13 -53 10 -35 7 7 16 22 20 33 4 12 15 34 25 49 26 37 24 85 -8 149
-56 110 -176 152 -321 113z"/>
<path d="M363 2168 c-6 -7 -14 -31 -18 -52 -15 -84 -78 -186 -130 -211 -30
-14 -36 -21 -33 -43 5 -40 29 -38 84 8 27 22 51 40 55 40 3 0 8 -55 11 -122 5
-119 19 -175 48 -193 13 -8 68 38 98 81 33 49 190 174 274 217 92 48 123 71
114 86 -13 21 -50 11 -155 -41 -101 -52 -107 -56 -205 -170 -78 -91 -103 -115
-113 -106 -11 9 -12 62 -9 264 3 140 1 254 -3 254 -5 0 -13 -6 -18 -12z"/>
<path d="M1543 1729 c-41 -26 -58 -53 -71 -116 -15 -66 7 -139 45 -154 36 -13
63 -11 63 6 0 9 -9 15 -25 15 -17 0 -29 9 -41 31 -14 27 -14 38 -3 76 16 58
53 103 85 103 29 0 97 -59 114 -100 9 -21 10 -50 4 -102 l-9 -73 -40 -3 c-41
-4 -75 -25 -75 -49 0 -16 14 -17 41 -3 23 13 59 -3 59 -26 0 -45 -129 -183
-187 -199 -74 -21 -68 -71 9 -68 36 2 49 9 94 54 29 29 67 78 84 110 37 70 44
76 73 55 69 -50 67 -49 92 -38 14 7 25 15 25 20 0 4 -27 30 -59 57 l-59 49 2
101 c3 127 -11 173 -68 220 -40 33 -85 55 -109 55 -7 0 -26 -9 -44 -21z"/>
<path d="M539 1545 c-84 -45 -209 -293 -209 -411 0 -80 99 -153 169 -124 68
28 157 169 171 272 10 71 6 84 -31 103 -40 21 -49 19 -98 -23 -32 -27 -43 -43
-38 -55 6 -15 10 -14 44 8 64 44 110 17 81 -46 -9 -19 -21 -51 -27 -71 -15
-47 -118 -128 -161 -128 -33 0 -70 40 -70 75 0 92 145 336 206 348 43 8 75 -9
125 -65 41 -46 49 -51 63 -39 24 20 20 33 -24 89 -59 74 -140 100 -201 67z"/>
<path d="M2286 408 c-9 -12 -16 -29 -16 -36 0 -8 -11 -36 -25 -64 -19 -39 -24
-58 -19 -89 6 -36 9 -39 39 -39 l33 0 5 98 c3 53 9 109 12 125 9 33 -8 36 -29
5z"/>
<path d="M970 200 c0 -15 7 -20 25 -20 27 0 32 9 13 28 -18 18 -38 14 -38 -8z"/>
</g>
</svg>
