<?xml version="1.0" standalone="no"?>
<!DOCTYPE svg PUBLIC "-//W3C//DTD SVG 20010904//EN"
 "http://www.w3.org/TR/2001/REC-SVG-20010904/DTD/svg10.dtd">
<svg version="1.0" xmlns="http://www.w3.org/2000/svg"
 width="260.000000pt" height="400.000000pt" viewBox="0 0 260.000000 400.000000"
 preserveAspectRatio="xMidYMid meet">
<metadata>
Created by potrace 1.16, written by Peter Selinger 2001-2019
</metadata>
<g transform="translate(0.000000,400.000000) scale(0.100000,-0.100000)"
fill="#000000" stroke="none">
<path d="M1098 2948 c-32 -42 -68 -113 -68 -133 0 -37 35 -5 69 63 16 31 27
42 45 42 33 0 53 25 36 45 -21 25 -56 18 -82 -17z"/>
<path d="M2406 2920 c-5 -14 -19 -41 -32 -62 -13 -20 -40 -69 -60 -110 -20
-40 -50 -93 -66 -117 -16 -24 -47 -79 -68 -122 -22 -43 -86 -156 -143 -251
-57 -95 -133 -227 -171 -293 -37 -66 -84 -147 -105 -180 -38 -62 -37 -61 -102
-48 -42 8 -44 -15 -5 -38 20 -12 36 -23 36 -25 0 -3 -19 -41 -42 -87 -36 -73
-98 -229 -98 -249 0 -5 5 -8 11 -8 5 0 21 24 35 54 35 76 227 398 370 621 21
33 45 74 52 90 12 27 36 68 97 165 12 19 69 114 125 210 57 96 110 186 119
200 48 77 62 123 59 199 -2 59 -5 70 -12 51z"/>
<path d="M1255 2801 c-13 -21 -180 -100 -308 -146 -54 -19 -68 -39 -43 -63 14
-14 20 -15 49 -3 17 7 47 17 65 22 18 6 57 23 85 38 232 125 217 114 192 141
-20 22 -31 25 -40 11z"/>
<path d="M1185 2674 c-44 -22 -144 -124 -161 -163 -8 -18 -26 -48 -41 -67 -16
-18 -41 -50 -56 -71 -126 -170 -132 -183 -96 -206 18 -11 36 -2 190 101 48 31
108 71 134 87 180 117 257 170 266 187 21 39 -20 28 -117 -30 -55 -32 -128
-76 -164 -96 -36 -20 -91 -55 -123 -78 -38 -26 -62 -37 -68 -31 -6 6 -4 14 6
23 8 7 15 19 15 27 0 8 66 79 147 158 127 124 145 146 134 159 -17 20 -28 20
-66 0z"/>
<path d="M1208 2310 c-88 -47 -146 -186 -102 -248 8 -12 26 -22 38 -22 13 0
41 -14 62 -30 50 -41 83 -37 106 10 27 58 43 131 43 203 0 60 -3 71 -24 88
-30 24 -76 24 -123 -1z m86 -85 c-1 -48 -19 -154 -29 -163 -2 -2 -11 -2 -20 1
-24 10 -19 74 10 124 24 39 24 44 9 50 -13 5 -28 -5 -54 -35 -19 -23 -39 -42
-43 -42 -17 0 -4 22 43 70 64 66 85 64 84 -5z m-124 -95 c0 -5 -4 -10 -10 -10
-5 0 -10 5 -10 10 0 6 5 10 10 10 6 0 10 -4 10 -10z"/>
<path d="M213 2274 c-29 -12 -33 -19 -33 -54 0 -27 4 -40 13 -40 23 0 108 72
105 89 -4 21 -45 23 -85 5z"/>
<path d="M1040 1835 c-13 -14 -30 -25 -38 -25 -21 0 -97 -87 -123 -141 -40
-87 6 -110 52 -26 14 26 43 65 64 87 47 48 71 46 130 -11 45 -42 121 -75 200
-84 77 -10 166 18 224 72 l46 41 -21 24 c-12 12 -24 31 -27 40 -7 21 -44 41
-51 29 -4 -5 2 -23 11 -39 15 -26 15 -32 3 -48 -20 -24 -85 -51 -143 -59 -54
-8 -148 20 -204 62 -17 12 -41 23 -53 23 -12 0 -30 5 -42 11 l-20 11 21 22
c12 12 18 26 14 29 -11 11 -18 8 -43 -18z"/>
<path d="M1293 1795 c-3 -10 2 -25 14 -36 17 -17 23 -18 46 -8 32 14 36 39 6
39 -11 0 -29 5 -40 10 -15 9 -21 7 -26 -5z"/>
<path d="M908 573 c-9 -10 -21 -39 -27 -63 -6 -25 -26 -103 -46 -174 -19 -71
-35 -135 -35 -143 0 -8 12 -13 33 -13 l33 0 28 113 c16 61 42 143 58 180 16
38 28 78 26 90 -4 29 -48 35 -70 10z"/>
<path d="M2267 339 c-10 -17 -13 -43 -10 -91 5 -67 6 -68 34 -68 l29 0 -5 77
c-5 90 -23 121 -48 82z"/>
</g>
</svg>
