<?xml version="1.0" standalone="no"?>
<!DOCTYPE svg PUBLIC "-//W3C//DTD SVG 20010904//EN"
 "http://www.w3.org/TR/2001/REC-SVG-20010904/DTD/svg10.dtd">
<svg version="1.0" xmlns="http://www.w3.org/2000/svg"
 width="258.000000pt" height="389.000000pt" viewBox="0 0 258.000000 389.000000"
 preserveAspectRatio="xMidYMid meet">
<metadata>
Created by potrace 1.16, written by Peter Selinger 2001-2019
</metadata>
<g transform="translate(0.000000,389.000000) scale(0.100000,-0.100000)"
fill="#000000" stroke="none">
<path d="M1366 3673 c-11 -71 -8 -93 18 -104 31 -15 69 8 146 85 l54 56 -35 0
c-25 0 -48 -9 -74 -30 -41 -33 -59 -31 -52 6 4 21 0 24 -23 24 -24 0 -28 -5
-34 -37z"/>
<path d="M1730 3698 c0 -7 7 -35 15 -62 8 -27 15 -65 15 -85 0 -40 23 -81 46
-81 17 0 17 -9 -1 115 -8 55 -15 106 -15 113 0 7 -13 12 -30 12 -17 0 -30 -5
-30 -12z"/>
<path d="M489 3563 c-1 -4 0 -51 1 -103 1 -52 -4 -117 -10 -143 -7 -26 -9 -51
-5 -55 9 -9 45 35 45 55 0 8 11 37 24 63 22 43 24 57 18 117 -7 68 -7 68 -39
71 -18 2 -34 0 -34 -5z"/>
<path d="M2279 2675 c-64 -35 -146 -171 -159 -267 -10 -71 -6 -84 31 -103 40
-21 49 -19 98 23 32 27 43 43 38 55 -6 15 -10 14 -44 -8 -64 -44 -110 -17 -81
46 9 19 21 51 27 71 9 27 29 50 73 83 61 46 102 57 126 33 9 -9 12 -4 12 23 0
31 -4 37 -33 47 -42 15 -56 15 -88 -3z"/>
<path d="M1258 2623 c-34 -5 -128 -104 -162 -170 -31 -63 -41 -69 -69 -49 -69
50 -67 49 -92 38 -14 -7 -25 -15 -25 -20 0 -4 27 -30 59 -57 l59 -49 -2 -101
c-3 -132 11 -174 75 -225 64 -50 99 -58 143 -31 44 27 61 54 74 118 15 66 -7
139 -45 154 -36 13 -63 11 -63 -6 0 -9 9 -15 25 -15 17 0 29 -9 41 -31 14 -27
14 -38 3 -76 -16 -58 -53 -103 -85 -103 -29 0 -97 59 -114 100 -9 21 -10 50
-4 102 l9 73 40 3 c41 4 75 25 75 49 0 16 -14 17 -41 3 -23 -13 -59 3 -59 26
0 45 129 183 187 199 83 23 59 81 -29 68z"/>
<path d="M2375 2404 c-11 -27 -45 -83 -76 -125 -81 -109 -125 -113 -210 -17
-41 46 -49 51 -63 39 -24 -20 -20 -33 24 -89 59 -73 136 -100 199 -68 32 17
86 80 125 148 22 39 27 56 24 104 l-3 57 -20 -49z"/>
<path d="M2364 2072 c-17 -15 -39 -40 -50 -56 -29 -46 -194 -177 -276 -219
-92 -48 -123 -71 -114 -86 13 -21 50 -11 155 42 101 50 107 56 203 167 55 63
104 114 109 113 5 -2 9 13 9 32 0 19 -1 35 -2 35 -2 -1 -17 -13 -34 -28z"/>
<path d="M848 2003 c-9 -10 -29 -43 -44 -73 -25 -48 -29 -69 -33 -159 -2 -57
2 -136 8 -175 13 -79 12 -83 -39 -259 -23 -78 -29 -112 -21 -120 7 -7 12 -6
15 4 2 8 19 57 39 109 l34 95 39 -3 c22 -2 57 -13 79 -25 33 -19 44 -33 71
-97 51 -123 139 -190 250 -190 139 0 282 46 351 112 45 44 56 82 45 163 -5 40
-5 68 1 72 17 10 65 -50 113 -142 45 -87 78 -134 88 -124 8 8 -59 191 -88 241
-34 58 -89 108 -119 108 -15 0 -47 25 -92 70 -88 89 -113 100 -155 68 -18 -12
-39 -36 -47 -51 -10 -20 -20 -27 -36 -25 -19 3 -22 8 -19 40 4 43 -12 78 -36
78 -9 0 -30 -16 -45 -35 -26 -33 -27 -38 -15 -70 11 -31 10 -40 -6 -69 -50
-93 -141 -147 -221 -132 -44 9 -115 70 -115 100 0 11 9 45 20 75 20 51 20 54
3 66 -11 8 -24 10 -34 4 -25 -13 -29 -2 -28 75 1 118 13 172 47 222 18 24 32
49 32 54 0 16 -26 11 -42 -7z m620 -365 c21 -21 13 -38 -18 -38 -18 0 -30 5
-30 13 0 13 19 37 30 37 3 0 11 -5 18 -12z m-167 -190 c-4 -120 6 -142 70
-151 54 -7 102 12 151 61 42 40 53 37 63 -19 6 -33 3 -41 -28 -76 -47 -51
-134 -83 -249 -90 -101 -7 -152 9 -206 60 -34 33 -102 120 -102 131 0 3 24 6
53 6 49 0 56 3 94 43 22 23 49 58 58 77 27 54 36 61 69 58 l31 -3 -4 -97z
m247 59 c13 -26 11 -30 -34 -83 -44 -51 -88 -84 -114 -84 -5 0 -19 9 -30 20
-17 17 -19 28 -14 63 10 62 20 77 54 77 17 0 47 9 67 20 45 24 54 22 71 -13z"/>
<path d="M2186 1499 c-9 -13 -16 -28 -16 -34 0 -5 -9 -21 -20 -35 -11 -14 -20
-41 -20 -60 0 -40 38 -127 66 -152 36 -31 106 -61 155 -66 49 -5 49 -4 49 25
0 29 -2 31 -50 36 -62 7 -98 32 -139 94 -26 40 -31 55 -28 95 2 26 12 59 21
74 23 34 6 56 -18 23z"/>
<path d="M1627 213 c-17 -17 -5 -33 25 -33 30 0 31 0 13 20 -19 21 -28 24 -38
13z"/>
</g>
</svg>
