<?xml version="1.0" standalone="no"?>
<!DOCTYPE svg PUBLIC "-//W3C//DTD SVG 20010904//EN"
 "http://www.w3.org/TR/2001/REC-SVG-20010904/DTD/svg10.dtd">
<svg version="1.0" xmlns="http://www.w3.org/2000/svg"
 width="254.000000pt" height="376.000000pt" viewBox="0 0 254.000000 376.000000"
 preserveAspectRatio="xMidYMid meet">
<metadata>
Created by potrace 1.16, written by Peter Selinger 2001-2019
</metadata>
<g transform="translate(0.000000,376.000000) scale(0.100000,-0.100000)"
fill="#000000" stroke="none">
<path d="M1270 2644 l-31 -27 -23 22 c-54 51 -68 20 -71 -152 -1 -78 0 -148 3
-155 7 -20 172 -93 194 -86 24 7 92 99 107 143 28 84 7 178 -54 238 -50 51
-80 55 -125 17z m80 -62 c28 -28 47 -89 37 -115 -6 -15 -140 -32 -159 -21 -20
13 -1 105 29 136 34 35 57 35 93 0z m0 -213 c15 -26 5 -37 -20 -21 -11 6 -26
9 -34 6 -19 -7 -32 16 -15 27 25 15 58 10 69 -12z"/>
<path d="M2075 2549 c-34 -30 -35 -33 -35 -103 1 -100 23 -239 39 -244 24 -8
31 22 31 144 0 83 5 135 15 165 26 73 7 88 -50 38z"/>
<path d="M643 2395 c-6 -17 13 -71 72 -203 l37 -83 -23 -57 c-12 -31 -26 -61
-30 -67 -15 -21 -70 -219 -72 -258 -2 -53 23 -58 36 -7 5 19 15 42 22 50 7 8
18 33 25 55 7 22 16 45 20 50 4 6 15 34 26 63 10 29 23 51 28 49 18 -6 53
-167 65 -303 7 -71 15 -217 19 -325 5 -145 11 -201 21 -213 29 -35 36 1 40
207 4 252 -18 490 -59 627 -5 19 -10 53 -10 76 0 26 -6 47 -16 55 -9 7 -29 43
-46 79 -42 93 -88 182 -106 203 -19 21 -41 22 -49 2z"/>
<path d="M2022 2098 c-19 -19 -14 -36 16 -52 45 -24 79 -68 87 -113 13 -79
-49 -359 -97 -443 -12 -19 -32 -45 -46 -57 -21 -17 -26 -31 -26 -70 -1 -43 1
-48 22 -51 31 -5 56 19 81 79 21 48 23 49 64 49 24 0 56 -8 73 -19 18 -11 62
-28 98 -39 l66 -20 0 37 c0 35 -2 38 -47 53 -27 9 -79 30 -118 46 -80 34 -79
30 -39 142 24 66 27 90 28 210 1 117 -2 140 -19 175 -29 57 -115 101 -143 73z"/>
<path d="M1283 1990 c-34 -5 -67 -19 -95 -39 -23 -17 -47 -31 -53 -31 -6 0
-27 -16 -46 -36 -18 -19 -55 -49 -82 -67 l-47 -30 22 -24 c36 -38 62 -28 104
43 6 10 15 14 23 10 9 -6 9 -13 -3 -32 -9 -13 -16 -35 -16 -49 0 -14 -9 -34
-20 -45 -11 -11 -20 -23 -20 -27 0 -10 58 -43 75 -43 8 0 19 -9 25 -20 8 -16
7 -27 -6 -49 -23 -39 -13 -61 27 -61 25 0 42 11 81 50 37 38 56 50 79 50 44 0
54 -34 40 -134 -6 -43 -13 -82 -16 -85 -3 -3 -20 1 -38 8 -134 53 -300 71
-314 34 -10 -25 43 -66 76 -59 14 3 53 -1 86 -9 33 -8 71 -15 84 -17 14 -2 26
-8 28 -15 6 -18 -45 -40 -111 -48 -53 -7 -58 -9 -41 -21 27 -20 96 -17 146 6
70 32 100 26 224 -40 78 -42 124 -60 149 -60 49 0 48 26 -1 39 -20 6 -53 23
-72 39 -20 16 -59 41 -87 55 -72 36 -82 51 -60 88 12 20 18 53 19 107 2 104
-23 156 -85 173 -90 24 -108 40 -72 69 8 8 21 28 29 46 7 18 25 40 39 49 31
21 33 36 7 59 -25 23 -61 6 -61 -29 0 -13 -4 -26 -9 -30 -6 -3 -24 -30 -41
-60 -36 -62 -73 -82 -97 -50 -17 25 -17 70 2 85 8 7 15 20 15 29 0 24 68 87
113 106 46 19 101 13 167 -19 49 -23 61 -48 35 -76 -32 -36 10 -55 53 -24 15
10 22 25 22 49 0 27 -9 41 -46 74 -28 24 -68 47 -97 56 -55 16 -56 16 -134 5z"/>
<path d="M2327 1963 c-35 -52 -35 -106 1 -111 29 -4 34 11 30 89 l-3 64 -28
-42z"/>
</g>
</svg>
