<?xml version="1.0" standalone="no"?>
<!DOCTYPE svg PUBLIC "-//W3C//DTD SVG 20010904//EN"
 "http://www.w3.org/TR/2001/REC-SVG-20010904/DTD/svg10.dtd">
<svg version="1.0" xmlns="http://www.w3.org/2000/svg"
 width="270.000000pt" height="385.000000pt" viewBox="0 0 270.000000 385.000000"
 preserveAspectRatio="xMidYMid meet">
<metadata>
Created by potrace 1.16, written by Peter Selinger 2001-2019
</metadata>
<g transform="translate(0.000000,385.000000) scale(0.100000,-0.100000)"
fill="#000000" stroke="none">
<path d="M1510 2964 c-6 -14 -10 -33 -10 -42 0 -23 -22 -115 -55 -237 -78
-289 -77 -280 -79 -720 -1 -393 3 -455 32 -455 4 0 13 183 20 408 12 409 18
472 46 500 13 13 18 13 41 -2 16 -10 40 -16 63 -14 33 3 40 9 64 53 46 86 33
152 -40 193 -22 12 -51 22 -65 22 -35 0 -38 8 -21 55 46 124 61 265 29 265 -9
0 -20 -12 -25 -26z m71 -375 c16 -16 20 -29 15 -51 -12 -61 -29 -83 -67 -86
-74 -6 -92 78 -28 132 37 31 53 32 80 5z"/>
<path d="M261 2806 c-37 -13 -81 -61 -81 -88 0 -22 3 -22 40 -3 52 27 108 23
183 -14 62 -30 67 -35 67 -66 0 -74 -103 -236 -168 -261 -32 -13 -110 -51
-120 -60 -2 -1 2 -43 9 -93 10 -71 10 -94 1 -103 -17 -17 -15 -66 3 -84 19
-20 19 -88 0 -104 -24 -20 -19 -73 8 -85 13 -6 23 -20 25 -35 7 -75 37 -194
54 -215 23 -29 54 -35 43 -7 -4 9 -18 58 -32 107 -22 76 -26 113 -27 230 l-1
140 65 8 c125 16 220 56 220 93 0 19 -16 18 -48 -6 -15 -11 -52 -24 -82 -29
-30 -6 -80 -14 -110 -20 -30 -5 -58 -7 -62 -4 -13 7 -8 126 5 149 7 12 47 54
90 94 89 83 117 126 147 226 25 83 21 97 -41 168 -63 72 -115 89 -188 62z"/>
<path d="M1129 2773 c-6 -17 -7 -66 -3 -128 l6 -100 -30 -22 c-17 -13 -59 -37
-94 -54 -67 -34 -108 -66 -108 -83 1 -6 10 -22 21 -36 20 -24 21 -24 35 -5 8
10 14 22 14 25 0 8 149 120 160 120 12 0 22 -122 14 -166 -4 -22 -19 -64 -34
-94 -100 -200 -132 -376 -111 -596 7 -70 18 -136 25 -145 19 -28 60 -57 88
-64 72 -18 99 153 98 624 l0 284 35 95 c20 52 42 107 50 123 21 39 19 46 -12
52 -17 3 -36 -2 -54 -15 -46 -35 -56 -21 -51 70 6 110 -24 181 -49 115z m115
-266 c-25 -53 -30 -61 -42 -65 -15 -5 -16 37 -3 72 9 22 36 37 53 29 3 -2 0
-18 -8 -36z m-84 -474 c0 -197 -18 -480 -32 -506 -10 -19 -11 -19 -23 -3 -23
30 -48 238 -42 339 6 110 64 317 88 317 5 0 9 -66 9 -147z"/>
<path d="M2505 2583 c-13 -36 -35 -156 -35 -196 0 -50 -5 -59 -50 -89 -45 -31
-218 -128 -227 -128 -3 0 -14 -7 -24 -16 -10 -9 -25 -14 -33 -11 -14 5 -14 11
-1 49 40 116 88 188 184 276 51 48 88 88 83 90 -6 2 -41 -11 -78 -28 -125 -57
-214 -186 -251 -365 -7 -37 -13 -43 -82 -79 -136 -71 -209 -180 -199 -299 6
-68 38 -117 76 -117 31 0 159 76 228 135 l46 39 22 -25 c189 -229 266 -309
295 -309 12 0 21 4 21 10 0 10 -179 236 -248 314 l-35 40 66 62 c65 60 81 93
27 54 -16 -11 -35 -20 -45 -20 -9 0 -30 -7 -47 -16 -39 -20 -48 -11 -55 58
l-5 54 63 40 c35 22 75 46 88 53 94 52 119 67 143 84 33 25 48 15 48 -31 1
-20 9 -71 20 -112 l19 -75 0 288 c1 158 -1 287 -3 287 -2 0 -7 -8 -11 -17z
m-425 -555 c1 -13 7 -34 15 -48 8 -14 14 -39 15 -57 0 -28 -11 -42 -81 -103
-87 -77 -119 -96 -143 -87 -41 16 0 157 69 241 59 72 125 100 125 54z"/>
<path d="M296 1973 c4 -15 18 -41 31 -57 13 -16 33 -46 44 -67 20 -40 53 -66
63 -50 3 5 -15 37 -41 72 -26 34 -54 76 -63 93 -21 41 -43 47 -34 9z"/>
<path d="M180 723 c0 -165 3 -232 12 -241 19 -19 56 -14 70 8 7 11 21 20 30
20 33 0 18 16 -28 29 -49 15 -63 33 -44 56 13 16 40 9 40 -10 0 -7 21 -25 48
-41 26 -15 50 -33 55 -40 6 -10 19 -7 56 16 54 32 92 31 84 -1 -5 -16 0 -19
35 -19 40 0 69 -20 58 -39 -4 -5 14 -13 40 -17 25 -3 48 -13 51 -20 8 -21 32
-17 54 9 l19 22 33 -39 c30 -33 40 -38 83 -41 73 -3 72 -3 86 -32 9 -20 22
-29 43 -31 17 -2 34 -8 39 -13 6 -5 17 -2 27 7 17 15 22 13 68 -26 28 -23 52
-47 54 -53 1 -5 18 10 36 34 22 30 32 38 30 24 -3 -25 10 -55 23 -55 6 0 17 8
24 18 11 15 12 12 7 -19 -4 -32 -2 -37 18 -42 43 -12 89 -8 95 8 4 8 11 15 16
15 6 0 8 -7 4 -15 -4 -12 2 -14 34 -11 22 2 46 9 55 16 12 10 16 9 21 -4 5
-14 27 -16 153 -15 97 0 139 3 124 9 -30 12 -29 20 2 20 16 0 25 -6 25 -15 0
-13 13 -15 77 -13 71 3 78 5 90 28 11 22 10 25 -7 28 -23 4 -27 30 -6 38 20 8
58 -14 50 -28 -5 -7 -2 -9 9 -5 9 3 19 2 22 -4 4 -5 10 -7 15 -4 10 6 40 -22
40 -37 0 -6 -11 -8 -25 -6 -14 3 -25 1 -25 -3 0 -5 15 -9 34 -9 37 0 60 20 61
54 0 17 6 21 33 21 21 0 37 6 43 18 12 21 28 22 44 1 10 -15 14 -15 41 -2 30
16 42 15 82 -5 18 -8 25 -8 31 2 11 18 24 -15 16 -40 -5 -14 -1 -19 14 -19 21
0 21 4 21 225 l0 225 -22 2 c-13 0 -30 0 -38 0 -8 -1 -76 3 -150 9 -74 6 -187
13 -250 14 -110 3 -268 13 -540 36 -284 24 -387 36 -540 65 -89 16 -104 19
-285 58 -226 49 -352 75 -415 86 -36 6 -73 13 -82 16 -17 5 -18 -10 -18 -223z
m40 -191 c0 -13 -12 -22 -22 -16 -10 6 -1 24 13 24 5 0 9 -4 9 -8z m1490 -142
c0 -5 -5 -10 -11 -10 -5 0 -7 5 -4 10 3 6 8 10 11 10 2 0 4 -4 4 -10z m-140
-16 c0 -9 -5 -14 -12 -12 -18 6 -21 28 -4 28 9 0 16 -7 16 -16z m750 -13 c0
-10 -7 -22 -16 -25 -22 -8 -23 -6 -13 22 10 27 29 29 29 3z m-570 -31 c0 -11
-4 -20 -10 -20 -5 0 -10 9 -10 20 0 11 5 20 10 20 6 0 10 -9 10 -20z m-206 -6
c4 -10 1 -14 -6 -12 -15 5 -23 28 -10 28 5 0 13 -7 16 -16z m-124 -14 c0 -5
-5 -10 -11 -10 -5 0 -7 5 -4 10 3 6 8 10 11 10 2 0 4 -4 4 -10z m60 -4 c0 -16
-28 -42 -36 -33 -8 7 14 47 26 47 6 0 10 -6 10 -14z m388 -46 c7 -11 18 -20
26 -20 8 0 16 -7 20 -15 6 -17 -9 -21 -19 -5 -3 6 -19 10 -34 10 -36 0 -62 27
-40 41 22 13 33 11 47 -11z"/>
<path d="M276 461 c-4 -5 -2 -12 3 -15 5 -4 12 -2 15 3 4 5 2 12 -3 15 -5 4
-12 2 -15 -3z"/>
<path d="M184 415 c-9 -22 1 -29 15 -11 8 10 9 16 1 21 -5 3 -13 -1 -16 -10z"/>
<path d="M181 303 l1 -58 14 33 c8 18 11 44 8 57 -11 45 -24 26 -23 -32z"/>
<path d="M2280 230 c0 -5 5 -10 11 -10 5 0 7 5 4 10 -3 6 -8 10 -11 10 -2 0
-4 -4 -4 -10z"/>
<path d="M204 206 c1 -31 4 -31 36 -6 19 15 21 20 8 20 -9 0 -23 3 -31 6 -11
4 -15 -1 -13 -20z"/>
<path d="M2312 198 c3 -7 15 -15 27 -16 16 -3 22 1 19 10 -3 7 -15 15 -27 16
-16 3 -22 -1 -19 -10z"/>
<path d="M2450 190 c0 -5 7 -10 16 -10 8 0 12 5 9 10 -3 6 -10 10 -16 10 -5 0
-9 -4 -9 -10z"/>
</g>
</svg>
