<?xml version="1.0" standalone="no"?>
<!DOCTYPE svg PUBLIC "-//W3C//DTD SVG 20010904//EN"
 "http://www.w3.org/TR/2001/REC-SVG-20010904/DTD/svg10.dtd">
<svg version="1.0" xmlns="http://www.w3.org/2000/svg"
 width="329.000000pt" height="373.000000pt" viewBox="0 0 329.000000 373.000000"
 preserveAspectRatio="xMidYMid meet">
<metadata>
Created by potrace 1.16, written by Peter Selinger 2001-2019
</metadata>
<g transform="translate(0.000000,373.000000) scale(0.100000,-0.100000)"
fill="#000000" stroke="none">
<path d="M3063 2828 c-18 -18 -37 -46 -42 -61 -25 -66 -2 -163 37 -155 11 2
16 18 19 57 1 30 10 65 18 77 16 24 21 114 7 114 -4 0 -22 -15 -39 -32z"/>
<path d="M2886 2829 c-14 -11 -26 -29 -26 -39 0 -22 50 -120 61 -120 12 0 69
105 69 128 0 14 -11 27 -30 37 -38 19 -42 19 -74 -6z"/>
<path d="M203 2763 c-19 -4 -23 -11 -23 -39 0 -19 3 -34 6 -34 12 0 74 41 74
49 0 9 -22 31 -29 30 -4 -1 -16 -4 -28 -6z"/>
<path d="M1224 2709 c-4 -7 2 -19 13 -28 32 -26 53 -68 79 -154 24 -81 46
-117 71 -117 17 0 17 4 -6 102 -35 148 -72 208 -128 208 -12 0 -25 -5 -29 -11z"/>
<path d="M884 2646 c-3 -8 6 -47 21 -88 43 -119 65 -202 57 -210 -4 -4 -49 -8
-101 -10 -76 -2 -96 -6 -105 -20 -8 -13 -8 -23 0 -35 10 -15 28 -18 125 -19
l114 -1 17 -29 c9 -16 29 -72 43 -124 14 -52 38 -128 51 -169 l26 -74 -40 -41
c-45 -47 -85 -113 -77 -127 11 -18 30 -9 76 37 50 49 63 50 74 7 3 -16 17 -53
29 -83 13 -30 31 -82 41 -115 9 -33 34 -96 54 -140 54 -116 139 -183 179 -143
21 21 13 38 -18 45 -48 9 -110 130 -165 318 -14 50 -38 123 -51 163 l-25 74
43 36 c24 21 72 63 108 94 36 32 75 67 88 77 29 26 28 55 -3 75 -23 15 -26 14
-67 -13 -24 -16 -72 -64 -107 -105 -35 -42 -70 -76 -77 -76 -7 0 -17 19 -22
43 -6 23 -26 96 -46 161 -19 65 -33 123 -30 127 3 5 15 9 27 9 31 0 200 42
215 53 17 13 -1 33 -34 40 -14 2 -59 -2 -100 -10 -42 -8 -94 -13 -116 -11
l-41 3 -43 130 c-42 127 -65 165 -100 165 -8 0 -17 -6 -20 -14z"/>
<path d="M272 2228 c-6 -6 -12 -17 -12 -24 0 -22 83 -33 96 -13 16 26 -61 60
-84 37z"/>
<path d="M195 2220 c-11 -17 5 -32 21 -19 7 6 11 15 8 20 -7 12 -21 11 -29 -1z"/>
<path d="M717 2179 c-44 -23 -54 -45 -73 -157 -7 -45 -16 -87 -19 -92 -19 -31
-35 -134 -35 -223 0 -110 13 -152 45 -152 16 0 19 6 17 30 -6 73 0 134 24 252
14 70 27 130 30 135 3 4 13 39 23 77 10 38 28 83 40 100 37 51 13 65 -52 30z"/>
<path d="M823 1878 c-11 -13 -26 -45 -33 -73 -7 -27 -22 -67 -32 -88 -20 -41
-17 -57 11 -57 24 0 63 52 96 125 30 69 31 91 6 105 -26 13 -24 14 -48 -12z"/>
<path d="M180 1415 c0 -31 5 -37 41 -56 51 -25 175 -52 207 -44 40 10 19 29
-64 56 -43 14 -103 38 -131 53 l-53 26 0 -35z"/>
</g>
</svg>
