<?xml version="1.0" standalone="no"?>
<!DOCTYPE svg PUBLIC "-//W3C//DTD SVG 20010904//EN"
 "http://www.w3.org/TR/2001/REC-SVG-20010904/DTD/svg10.dtd">
<svg version="1.0" xmlns="http://www.w3.org/2000/svg"
 width="260.000000pt" height="364.000000pt" viewBox="0 0 260.000000 364.000000"
 preserveAspectRatio="xMidYMid meet">
<metadata>
Created by potrace 1.16, written by Peter Selinger 2001-2019
</metadata>
<g transform="translate(0.000000,364.000000) scale(0.100000,-0.100000)"
fill="#000000" stroke="none">
<path d="M2394 3223 c-7 -22 -9 -26 -65 -110 -103 -154 -189 -311 -196 -358
-8 -62 11 -58 49 10 15 27 40 68 57 90 17 22 65 91 106 153 72 108 75 114 75
172 0 58 -14 81 -26 43z"/>
<path d="M1106 3221 c-3 -4 -2 -48 3 -97 18 -172 55 -493 71 -614 5 -37 3 -65
-5 -86 -13 -32 -59 -74 -81 -74 -7 0 -18 -8 -23 -19 -19 -35 -242 -124 -263
-103 -5 5 -14 42 -19 81 -4 39 -13 80 -18 90 -11 19 -50 215 -58 289 -6 53
-27 55 -44 5 -15 -47 -6 -166 20 -264 15 -57 41 -205 41 -234 0 -7 -107 -52
-175 -75 -88 -28 -187 -75 -208 -98 -21 -24 -31 -68 -17 -77 6 -4 21 2 33 13
12 11 42 30 66 42 63 32 292 111 302 104 18 -11 8 -40 -38 -106 -142 -204
-178 -261 -218 -344 -58 -118 -69 -174 -50 -262 23 -113 37 -134 115 -181 51
-30 138 -29 172 2 42 39 55 67 87 181 39 140 51 342 31 564 -17 192 -17 192
107 252 51 25 98 51 105 58 27 27 36 12 40 -70 3 -46 1 -88 -4 -94 -4 -6 -25
-16 -47 -22 -78 -24 -78 -64 1 -68 l42 -2 4 -63 c2 -35 2 -129 0 -209 -2 -80
-3 -215 -3 -300 0 -153 0 -155 22 -158 17 -2 26 3 32 21 9 24 27 272 39 561 6
132 10 161 24 169 12 8 21 7 32 -2 12 -10 16 -33 16 -100 1 -106 28 -582 39
-671 4 -36 6 -69 4 -73 -3 -4 -35 -5 -73 -1 -61 6 -70 4 -89 -15 -12 -12 -21
-30 -19 -39 3 -14 18 -17 92 -20 49 -2 112 2 140 8 66 13 155 55 162 75 12 31
-11 35 -85 14 -41 -11 -78 -16 -82 -12 -4 4 -11 186 -15 403 -3 217 -7 411 -8
430 -1 33 3 37 50 60 28 14 69 40 92 58 23 19 43 28 47 22 23 -37 35 -214 42
-593 3 -224 10 -410 13 -412 46 -28 69 306 51 725 -11 258 -21 325 -69 455
-25 69 -36 85 -77 116 -48 37 -103 59 -147 59 -55 0 -51 -21 -103 462 -16 144
-23 173 -56 219 -21 30 -34 36 -43 20z m268 -786 c60 -35 82 -63 96 -121 20
-79 11 -97 -74 -143 -40 -23 -78 -41 -84 -41 -6 0 -13 30 -16 68 -4 37 -10
108 -15 157 -5 50 -7 93 -4 98 9 15 56 6 97 -18z m-159 -172 c12 -123 11 -145
-6 -156 -9 -5 -24 -7 -34 -3 -16 6 -17 16 -12 97 10 140 41 176 52 62z m-451
-496 c-1 -213 -14 -329 -49 -436 -27 -81 -68 -101 -131 -62 -39 23 -62 72 -81
170 l-15 77 31 79 c18 44 49 109 70 145 21 36 51 88 66 115 59 106 88 146 99
135 7 -7 11 -85 10 -223z"/>
<path d="M2373 2898 c-42 -31 -79 -90 -68 -107 3 -6 30 4 60 22 53 30 55 33
55 74 0 24 -1 43 -2 43 -2 -1 -22 -15 -45 -32z"/>
<path d="M2230 2760 c-9 -6 -10 -10 -3 -10 6 0 15 5 18 10 8 12 4 12 -15 0z"/>
<path d="M2368 2733 c-46 -33 -58 -55 -39 -67 5 -3 27 8 50 24 29 21 41 37 41
55 0 14 -1 25 -2 24 -2 0 -24 -16 -50 -36z"/>
<path d="M2305 2551 c-64 -22 -83 -34 -98 -59 -16 -27 -17 -37 -5 -91 6 -34
17 -60 22 -58 6 2 20 22 31 46 29 57 42 68 105 90 53 19 55 20 58 60 4 50 -1
51 -113 12z"/>
<path d="M2105 2517 c-17 -13 -18 -24 -11 -133 8 -143 17 -196 33 -201 16 -6
25 80 21 221 -2 71 -7 121 -13 123 -6 2 -19 -3 -30 -10z"/>
<path d="M2374 2143 c-28 -5 -68 -48 -59 -62 3 -6 11 -9 16 -5 5 3 17 0 25 -7
26 -21 64 7 64 48 0 33 -2 35 -46 26z"/>
<path d="M2387 1986 c-15 -28 -38 -75 -51 -105 -13 -31 -49 -117 -81 -191 -63
-150 -73 -184 -55 -195 17 -10 39 20 95 127 28 53 61 100 85 121 29 25 40 42
40 62 0 23 -3 26 -12 17 -32 -32 -36 -5 -7 54 15 31 19 58 17 101 l-3 58 -28
-49z"/>
</g>
</svg>
