<?xml version="1.0" standalone="no"?>
<!DOCTYPE svg PUBLIC "-//W3C//DTD SVG 20010904//EN"
 "http://www.w3.org/TR/2001/REC-SVG-20010904/DTD/svg10.dtd">
<svg version="1.0" xmlns="http://www.w3.org/2000/svg"
 width="286.000000pt" height="335.000000pt" viewBox="0 0 286.000000 335.000000"
 preserveAspectRatio="xMidYMid meet">
<metadata>
Created by potrace 1.16, written by Peter Selinger 2001-2019
</metadata>
<g transform="translate(0.000000,335.000000) scale(0.100000,-0.100000)"
fill="#000000" stroke="none">
<path d="M1886 2162 c-3 -5 -10 -64 -16 -132 -6 -68 -14 -140 -19 -160 -5 -19
-12 -100 -16 -180 -10 -224 -17 -269 -48 -294 -14 -12 -69 -55 -121 -96 -66
-52 -102 -87 -115 -115 -24 -48 -67 -102 -75 -94 -4 3 5 31 19 62 30 68 75
242 75 290 0 42 -21 63 -47 49 -30 -17 -69 -65 -83 -102 -37 -99 -85 -173
-129 -202 -25 -15 -54 -28 -65 -28 -12 0 -30 -7 -40 -15 -47 -36 -94 -3 -81
56 8 34 -4 37 -30 9 -13 -14 -16 -28 -11 -52 15 -77 71 -88 183 -34 85 41 126
81 148 145 29 82 79 176 95 176 26 0 8 -99 -38 -211 -31 -75 -67 -173 -86
-232 -8 -30 -25 -67 -37 -83 -41 -58 10 -84 53 -26 14 17 33 56 43 86 13 41
32 68 81 116 35 34 64 70 64 79 0 9 17 26 38 40 20 13 64 44 96 70 54 42 86
57 86 40 0 -4 -4 -23 -10 -43 -5 -20 -17 -69 -26 -109 -17 -75 -45 -144 -71
-174 -20 -23 0 -32 34 -16 42 20 71 91 100 244 14 77 32 146 40 155 7 9 66 42
131 74 116 57 152 80 152 97 0 13 -81 -2 -124 -24 -21 -10 -41 -17 -43 -14 -3
3 6 28 21 56 43 82 59 168 46 256 -19 144 -41 217 -77 267 -46 62 -84 90 -97
69z m98 -181 c21 -72 36 -172 36 -238 0 -39 -8 -67 -34 -116 -42 -82 -88 -139
-100 -127 -5 5 -4 55 3 127 6 65 14 183 17 261 3 79 10 156 15 170 l10 27 19
-25 c10 -13 25 -49 34 -79z"/>
<path d="M1191 1947 c-6 -8 -23 -54 -37 -103 -20 -66 -27 -110 -27 -170 1 -77
3 -84 37 -131 46 -64 76 -77 170 -71 60 4 81 10 116 34 60 41 87 78 70 99 -23
27 -57 17 -115 -35 -62 -56 -81 -60 -145 -27 -55 28 -68 61 -69 176 -1 84 7
127 36 188 16 33 11 53 -11 53 -8 0 -19 -6 -25 -13z"/>
<path d="M1377 1920 c-20 -22 -45 -40 -56 -40 -12 0 -21 -4 -21 -10 0 -5 17
-10 38 -10 30 0 45 7 71 34 21 22 31 41 28 50 -9 24 -20 20 -60 -24z"/>
<path d="M343 1908 c-35 -39 -60 -99 -87 -213 -32 -129 -29 -209 8 -252 19
-22 28 -25 58 -19 20 4 48 16 62 27 47 37 117 138 129 186 17 67 37 68 39 1 5
-170 -30 -425 -87 -628 -33 -118 -36 -138 -26 -145 16 -10 41 37 71 135 71
235 95 407 88 620 -6 145 -15 182 -65 246 -49 65 -149 86 -190 42z m135 -61
c38 -38 71 -101 60 -113 -3 -2 -18 2 -34 11 -16 8 -34 15 -41 15 -14 0 -83
-82 -83 -99 0 -21 15 -11 43 29 33 46 43 49 58 16 9 -20 7 -34 -14 -78 -27
-57 -117 -158 -142 -158 -18 0 -41 35 -49 75 -13 66 48 271 96 322 31 33 58
28 106 -20z"/>
<path d="M184 1230 c4 -90 11 -169 16 -174 7 -7 17 -3 31 11 20 20 21 25 9 90
-20 111 -42 207 -52 223 -6 9 -7 -46 -4 -150z"/>
</g>
</svg>
