<?xml version="1.0" standalone="no"?>
<!DOCTYPE svg PUBLIC "-//W3C//DTD SVG 20010904//EN"
 "http://www.w3.org/TR/2001/REC-SVG-20010904/DTD/svg10.dtd">
<svg version="1.0" xmlns="http://www.w3.org/2000/svg"
 width="283.000000pt" height="368.000000pt" viewBox="0 0 283.000000 368.000000"
 preserveAspectRatio="xMidYMid meet">
<metadata>
Created by potrace 1.16, written by Peter Selinger 2001-2019
</metadata>
<g transform="translate(0.000000,368.000000) scale(0.100000,-0.100000)"
fill="#000000" stroke="none">
<path d="M1388 2718 c-14 -18 -33 -57 -43 -87 -13 -41 -32 -68 -81 -116 -35
-34 -64 -70 -64 -79 0 -9 -17 -26 -37 -40 -21 -13 -65 -44 -97 -70 -54 -42
-86 -57 -86 -40 0 4 4 23 10 43 5 20 17 69 26 109 17 75 45 144 71 174 20 23
0 32 -34 16 -42 -20 -71 -91 -100 -244 -14 -77 -32 -146 -40 -155 -7 -9 -66
-42 -131 -74 -116 -57 -152 -80 -152 -97 0 -13 81 2 124 24 21 10 41 17 43 14
3 -3 -6 -28 -21 -56 -43 -82 -59 -168 -46 -256 21 -151 40 -216 81 -271 41
-55 76 -81 89 -66 5 4 14 64 20 133 6 68 14 140 19 160 5 19 12 100 16 180 10
224 17 269 48 294 14 12 69 55 121 96 66 52 102 87 115 115 24 48 67 102 75
94 4 -3 -5 -31 -19 -62 -30 -68 -75 -242 -75 -290 0 -42 21 -63 47 -49 30 17
69 65 83 102 37 99 85 173 129 202 25 15 54 28 65 28 12 0 30 7 40 15 47 36
94 3 81 -56 -8 -34 4 -37 30 -9 13 14 16 28 11 52 -15 77 -71 88 -183 34 -85
-41 -126 -81 -148 -145 -29 -82 -79 -176 -95 -176 -26 0 -8 99 38 211 31 75
67 173 86 232 8 30 25 67 37 83 41 58 -10 84 -53 27z m-487 -735 c-6 -65 -14
-183 -17 -261 -3 -79 -10 -156 -15 -170 l-10 -27 -19 25 c-34 45 -70 207 -70
317 0 39 8 67 34 116 42 82 88 139 100 127 5 -5 4 -55 -3 -127z"/>
<path d="M2325 2728 c-37 -53 -109 -337 -126 -498 -15 -137 -7 -362 14 -412
39 -92 97 -138 175 -138 66 0 104 61 146 235 32 129 29 209 -8 252 -19 22 -28
25 -58 19 -20 -4 -48 -16 -62 -27 -47 -37 -117 -138 -129 -186 -17 -67 -37
-68 -39 -1 -5 170 30 425 87 628 33 118 36 138 26 145 -5 3 -17 -5 -26 -17z
m169 -610 c8 -13 17 -36 20 -53 13 -66 -48 -271 -96 -322 -31 -33 -58 -28
-106 20 -38 38 -71 101 -60 113 3 2 18 -2 34 -11 16 -8 34 -15 41 -15 14 0 83
82 83 99 0 21 -15 11 -43 -29 -33 -46 -43 -49 -58 -16 -16 34 24 116 90 184
56 57 74 63 95 30z"/>
<path d="M2556 2541 c-17 -18 -17 -27 -6 -88 32 -181 52 -246 84 -272 14 -12
16 -9 16 23 0 19 -6 53 -14 73 -13 35 -33 163 -39 242 -2 41 -17 49 -41 22z"/>
<path d="M1395 2133 c-29 -6 -95 -53 -118 -85 -17 -22 -18 -30 -7 -43 23 -27
57 -17 115 35 62 56 81 60 145 28 55 -29 68 -62 69 -177 1 -84 -7 -127 -36
-188 -16 -33 -11 -53 11 -53 22 0 34 23 62 116 20 66 27 110 27 170 -1 77 -3
84 -37 131 -19 27 -47 55 -61 61 -24 11 -126 14 -170 5z"/>
<path d="M1381 1716 c-21 -22 -31 -41 -28 -50 9 -24 20 -20 60 24 20 22 45 40
56 40 12 0 21 5 21 10 0 6 -17 10 -38 10 -30 0 -45 -7 -71 -34z"/>
</g>
</svg>
