<?xml version="1.0" standalone="no"?>
<!DOCTYPE svg PUBLIC "-//W3C//DTD SVG 20010904//EN"
 "http://www.w3.org/TR/2001/REC-SVG-20010904/DTD/svg10.dtd">
<svg version="1.0" xmlns="http://www.w3.org/2000/svg"
 width="273.000000pt" height="390.000000pt" viewBox="0 0 273.000000 390.000000"
 preserveAspectRatio="xMidYMid meet">
<metadata>
Created by potrace 1.16, written by Peter Selinger 2001-2019
</metadata>
<g transform="translate(0.000000,390.000000) scale(0.100000,-0.100000)"
fill="#000000" stroke="none">
<path d="M187 3713 c-4 -3 -7 -102 -7 -220 l0 -213 78 -2 c42 0 84 0 92 0 8 1
76 -3 150 -9 74 -6 187 -13 250 -14 110 -3 268 -13 540 -36 284 -24 387 -36
540 -65 90 -16 110 -20 285 -59 234 -51 401 -85 418 -85 16 0 17 15 17 179 l0
179 -47 28 c-27 15 -51 33 -56 40 -6 10 -19 7 -56 -16 -54 -32 -92 -31 -84 1
5 16 0 19 -35 19 -40 0 -69 20 -58 39 4 5 -14 13 -40 17 -25 3 -48 13 -51 20
-8 21 -32 17 -54 -8 l-19 -23 -33 39 c-30 33 -40 38 -83 41 -73 3 -72 3 -86
33 -9 19 -22 28 -43 30 -17 2 -34 8 -39 13 -6 5 -17 2 -27 -7 -17 -15 -22 -13
-68 26 -28 23 -52 47 -54 53 -1 5 -18 -10 -36 -34 -22 -30 -32 -38 -30 -24 3
25 -10 55 -23 55 -6 0 -17 -8 -25 -17 -13 -17 -14 -16 -8 5 l6 22 -209 0
c-159 0 -212 -3 -215 -12 -4 -10 -6 -10 -6 0 -1 8 -23 12 -78 11 -43 -1 -64
-4 -48 -6 52 -8 72 -36 34 -48 -15 -5 -25 -1 -35 14 -9 12 -22 21 -30 21 -8 0
-14 5 -14 10 0 12 -118 11 -126 -1 -3 -5 4 -9 15 -9 24 0 29 -28 7 -36 -20 -8
-58 14 -50 28 5 7 2 9 -8 5 -9 -3 -19 -3 -22 1 -7 7 -17 9 -62 18 -26 5 -32 2
-37 -15 -4 -18 -10 -21 -30 -15 -19 4 -30 0 -44 -15 -21 -25 -32 -26 -48 -5
-10 15 -14 15 -41 2 -30 -16 -42 -15 -82 5 -18 9 -25 8 -32 -2 -6 -10 -9 -9
-15 8 -3 11 -3 25 0 31 4 6 -13 10 -46 10 -29 0 -49 -3 -46 -7 7 -6 -22 -32
-36 -33 -5 0 -5 9 -2 20 6 20 4 25 -8 13z m1183 -49 c0 -13 -21 -44 -30 -44
-14 0 -12 24 2 38 13 13 28 16 28 6z m40 -28 c0 -3 -4 -8 -10 -11 -5 -3 -10
-1 -10 4 0 6 5 11 10 11 6 0 10 -2 10 -4z m-330 -26 c0 -11 -4 -20 -10 -20 -5
0 -10 9 -10 20 0 11 5 20 10 20 6 0 10 -9 10 -20z m208 2 c6 -18 -15 -14 -22
4 -4 10 -1 14 6 12 6 -2 14 -10 16 -16z m-767 -24 c-4 -12 -13 -24 -19 -26
-16 -5 -15 35 1 41 23 10 26 7 18 -15z m747 -26 c2 -7 -3 -12 -12 -12 -9 0
-16 7 -16 16 0 17 22 14 28 -4z m-148 -6 c0 -3 -4 -8 -10 -11 -5 -3 -10 -1
-10 4 0 6 5 11 10 11 6 0 10 -2 10 -4z"/>
<path d="M515 3710 c3 -5 8 -10 11 -10 2 0 4 5 4 10 0 6 -5 10 -11 10 -5 0 -7
-4 -4 -10z"/>
<path d="M2516 3491 c-4 -5 -2 -12 3 -15 5 -4 12 -2 15 3 4 5 2 12 -3 15 -5 4
-12 2 -15 -3z"/>
<path d="M2540 3440 c0 -5 -9 -10 -20 -10 -29 0 -25 -17 5 -22 21 -4 25 -1 25
18 0 13 -2 24 -5 24 -3 0 -5 -4 -5 -10z"/>
<path d="M1655 2496 c-40 -60 -56 -239 -55 -605 l0 -284 -35 -95 c-20 -52 -42
-107 -50 -123 -21 -39 -19 -46 12 -52 17 -3 36 2 54 15 46 35 56 21 51 -70 -3
-55 0 -90 9 -111 31 -71 52 -11 43 124 l-6 100 30 22 c17 13 59 37 94 54 67
34 108 66 108 83 -1 6 -10 22 -21 36 -20 24 -21 24 -35 5 -8 -10 -14 -22 -14
-25 0 -8 -149 -120 -160 -120 -12 0 -22 122 -14 166 4 22 19 64 34 94 100 200
132 376 111 596 -13 130 -19 149 -62 183 -44 34 -75 37 -94 7z m80 -212 c22
-146 16 -268 -19 -384 -33 -108 -46 -140 -57 -140 -21 0 0 611 23 653 10 19
11 19 23 3 7 -9 21 -69 30 -132z m-115 -808 c0 -39 -17 -73 -39 -79 -22 -5
-38 7 -22 17 5 3 12 18 16 33 13 52 45 72 45 29z"/>
<path d="M330 2420 c0 -10 179 -236 248 -314 l35 -40 -66 -62 c-65 -60 -81
-93 -27 -54 16 11 35 20 45 20 9 0 30 7 47 16 39 20 48 11 55 -58 l5 -54 -63
-40 c-35 -22 -75 -46 -88 -53 -94 -52 -119 -67 -143 -84 -33 -25 -48 -15 -48
30 0 69 -114 479 -142 508 -23 24 0 -173 37 -310 25 -95 38 -164 39 -215 l1
-74 -42 -24 c-32 -18 -43 -30 -43 -48 0 -28 5 -29 40 -9 40 23 60 19 60 -13 0
-91 -58 -249 -88 -237 -19 7 -11 -35 9 -48 26 -16 67 16 90 71 25 57 49 169
49 225 0 50 5 59 50 89 45 31 218 128 227 128 3 0 14 7 24 16 10 9 25 14 33
11 14 -5 14 -11 1 -49 -40 -116 -88 -188 -184 -276 -51 -48 -88 -88 -83 -90 6
-2 41 11 78 28 125 57 214 186 251 365 7 37 13 43 82 79 136 71 209 180 199
299 -6 68 -38 117 -76 117 -31 0 -159 -76 -228 -135 l-46 -39 -22 25 c-189
229 -266 309 -295 309 -12 0 -21 -4 -21 -10z m608 -251 c8 -99 -116 -279 -193
-279 -9 0 -15 9 -15 23 -1 12 -7 33 -15 47 -31 55 -21 83 58 152 92 82 117 99
142 96 15 -2 21 -12 23 -39z"/>
<path d="M1392 2023 c-12 -410 -18 -473 -46 -501 -13 -13 -18 -13 -41 2 -16
10 -40 16 -63 14 -33 -3 -40 -9 -64 -53 -46 -86 -33 -152 40 -193 22 -12 51
-22 65 -22 35 0 38 -8 21 -55 -30 -82 -44 -148 -44 -206 0 -52 2 -60 17 -57
18 3 23 18 46 133 8 39 27 115 42 170 78 289 77 280 79 720 1 393 -3 455 -32
455 -4 0 -13 -183 -20 -407z m-57 -553 c25 -28 13 -82 -26 -114 -17 -14 -37
-26 -45 -26 -18 0 -54 36 -54 54 0 18 21 78 33 94 15 19 72 15 92 -8z"/>
<path d="M2485 2353 c17 -43 48 -163 55 -213 6 -46 8 -36 9 61 1 104 -1 119
-20 143 -24 30 -55 36 -44 9z"/>
<path d="M2376 2141 c-3 -5 15 -37 41 -72 26 -34 54 -76 63 -93 8 -16 21 -32
28 -34 20 -6 4 48 -25 82 -13 16 -33 46 -44 67 -20 40 -53 66 -63 50z"/>
<path d="M2541 1924 c0 -11 3 -14 6 -6 3 7 2 16 -1 19 -3 4 -6 -2 -5 -13z"/>
<path d="M2480 1867 c-125 -16 -220 -56 -220 -93 0 -17 26 -19 36 -3 12 20 67
37 154 49 88 12 104 19 98 41 -2 11 -17 12 -68 6z"/>
<path d="M2466 1589 c-88 -82 -116 -125 -146 -225 -25 -84 -21 -98 44 -171 52
-57 99 -78 152 -69 32 6 34 9 34 46 0 39 0 39 -38 37 -24 -1 -61 10 -105 32
-62 30 -67 35 -67 66 0 76 104 236 171 263 36 14 39 18 39 54 0 21 -2 38 -4
38 -2 0 -38 -32 -80 -71z"/>
</g>
</svg>
