<?xml version="1.0" standalone="no"?>
<!DOCTYPE svg PUBLIC "-//W3C//DTD SVG 20010904//EN"
 "http://www.w3.org/TR/2001/REC-SVG-20010904/DTD/svg10.dtd">
<svg version="1.0" xmlns="http://www.w3.org/2000/svg"
 width="179.000000pt" height="268.000000pt" viewBox="0 0 179.000000 268.000000"
 preserveAspectRatio="xMidYMid meet">
<metadata>
Created by potrace 1.16, written by Peter Selinger 2001-2019
</metadata>
<g transform="translate(0.000000,268.000000) scale(0.100000,-0.100000)"
fill="#000000" stroke="none">
<path d="M715 2181 c-3 -6 -10 -46 -15 -89 -7 -50 -20 -97 -34 -124 -13 -23
-45 -95 -71 -158 -26 -63 -52 -119 -56 -124 -5 -6 -9 -17 -9 -26 0 -8 -29 -74
-64 -145 -36 -71 -63 -132 -60 -134 13 -14 56 57 158 260 61 123 116 224 121
224 6 -1 18 -61 28 -135 10 -74 22 -162 28 -195 18 -110 18 -108 -25 -123 -60
-19 -70 -4 -68 105 1 49 4 100 7 114 8 34 -15 55 -44 39 -25 -13 -24 -4 -21
-156 1 -90 -2 -123 -12 -130 -7 -6 -49 -21 -93 -33 -170 -50 -185 -59 -185
-116 0 -31 25 -43 48 -22 22 20 77 42 126 51 21 4 49 14 62 23 65 42 75 -44
17 -141 -39 -64 -102 -154 -138 -196 -12 -14 -29 -44 -39 -68 -14 -38 -14 -46
-2 -77 45 -106 164 -183 251 -161 53 14 62 112 40 446 -8 115 4 219 27 248 12
14 64 16 72 3 3 -5 19 -71 35 -147 17 -77 46 -184 66 -240 l35 -100 -55 -134
c-30 -73 -55 -142 -55 -152 0 -43 35 -9 84 80 28 50 56 92 63 92 7 0 29 -32
48 -71 39 -76 115 -176 149 -196 32 -19 64 -15 76 8 13 24 13 25 -32 47 -39
20 -80 80 -149 214 -51 102 -58 131 -36 157 7 9 46 86 87 171 40 85 88 173
107 194 38 46 42 75 12 102 -21 19 -21 19 -58 -23 -20 -23 -47 -70 -60 -104
-41 -108 -124 -279 -136 -279 -6 0 -16 19 -23 43 -40 139 -71 270 -77 324 -7
60 -6 62 22 76 39 21 67 53 60 72 -9 21 -29 19 -61 -6 -35 -27 -44 -18 -57 57
-6 32 -17 97 -26 144 -9 51 -16 167 -19 293 -2 114 -6 212 -9 217 -8 13 -32
13 -40 1z m-104 -1183 c11 -117 11 -286 -1 -293 -13 -8 -104 43 -136 76 -23
24 -25 32 -18 74 4 31 21 69 48 109 23 33 49 79 59 100 25 54 38 36 48 -66z"/>
<path d="M961 1968 c-5 -15 0 -62 14 -133 25 -120 38 -159 55 -170 27 -17 32
14 15 96 -10 46 -19 108 -20 136 -2 74 -45 121 -64 71z"/>
</g>
</svg>
