<?xml version="1.0" standalone="no"?>
<!DOCTYPE svg PUBLIC "-//W3C//DTD SVG 20010904//EN"
 "http://www.w3.org/TR/2001/REC-SVG-20010904/DTD/svg10.dtd">
<svg version="1.0" xmlns="http://www.w3.org/2000/svg"
 width="167.000000pt" height="272.000000pt" viewBox="0 0 167.000000 272.000000"
 preserveAspectRatio="xMidYMid meet">
<metadata>
Created by potrace 1.16, written by Peter Selinger 2001-2019
</metadata>
<g transform="translate(0.000000,272.000000) scale(0.100000,-0.100000)"
fill="#000000" stroke="none">
<path d="M952 1840 c-48 -26 -71 -48 -108 -107 -19 -28 -38 -55 -44 -58 -6 -4
-37 -43 -70 -88 -32 -45 -69 -93 -80 -107 l-21 -25 5 39 c4 27 16 51 41 76 40
41 44 54 15 45 -28 -9 -36 18 -17 58 17 35 47 118 47 130 0 4 -9 7 -19 7 -28
0 -58 -43 -77 -109 -9 -31 -21 -73 -27 -94 -14 -49 -20 -53 -113 -77 -43 -11
-96 -26 -117 -33 -88 -31 -88 -78 0 -58 94 22 155 41 170 52 23 20 32 -2 23
-51 -5 -25 -17 -88 -26 -140 l-16 -94 -73 -87 c-106 -125 -122 -164 -104 -248
13 -61 38 -95 90 -121 61 -32 82 -27 107 23 18 36 23 73 32 218 13 215 22 260
59 287 33 24 93 111 85 123 -2 5 -16 3 -29 -3 -33 -15 -42 -4 -22 24 56 80 86
120 117 158 53 65 170 178 218 212 45 31 49 37 30 56 -16 16 -36 14 -76 -8z
m-332 -531 c0 -5 -7 -9 -15 -9 -15 0 -20 12 -9 23 8 8 24 -1 24 -14z m-109
-315 c-4 -142 -12 -188 -32 -192 -20 -4 -55 53 -64 100 -7 39 15 113 52 170
39 63 48 46 44 -78z"/>
<path d="M840 1521 c-29 -7 -70 -33 -70 -43 0 -5 22 -8 49 -8 84 0 148 -18
232 -65 78 -45 108 -52 116 -28 6 17 -163 124 -222 139 -53 15 -66 15 -105 5z"/>
<path d="M990 1338 c-30 -11 -80 -22 -110 -25 -58 -6 -80 -17 -80 -39 0 -48
149 -31 220 26 22 17 40 38 40 46 0 17 -2 17 -70 -8z"/>
<path d="M934 1093 c6 -62 5 -71 -14 -88 -11 -10 -20 -27 -20 -38 0 -19 1 -19
19 -3 19 17 20 17 30 -3 16 -30 14 -116 -4 -131 -28 -23 -45 -4 -45 50 0 27
-4 50 -8 50 -13 0 -42 -67 -42 -96 0 -29 49 -84 75 -84 30 0 75 30 91 61 20
40 13 92 -26 209 -16 47 -30 96 -32 109 -2 14 -9 26 -17 29 -11 4 -13 -8 -7
-65z"/>
</g>
</svg>
