<?xml version="1.0" standalone="no"?>
<!DOCTYPE svg PUBLIC "-//W3C//DTD SVG 20010904//EN"
 "http://www.w3.org/TR/2001/REC-SVG-20010904/DTD/svg10.dtd">
<svg version="1.0" xmlns="http://www.w3.org/2000/svg"
 width="282.000000pt" height="368.000000pt" viewBox="0 0 282.000000 368.000000"
 preserveAspectRatio="xMidYMid meet">
<metadata>
Created by potrace 1.16, written by Peter Selinger 2001-2019
</metadata>
<g transform="translate(0.000000,368.000000) scale(0.100000,-0.100000)"
fill="#000000" stroke="none">
<path d="M2530 2677 c-39 -19 -69 -93 -97 -243 -14 -77 -32 -146 -40 -155 -7
-9 -66 -42 -131 -74 -116 -57 -152 -80 -152 -97 0 -13 81 2 124 24 21 10 41
17 43 14 3 -3 -6 -28 -21 -56 -43 -82 -59 -168 -46 -256 21 -151 40 -216 81
-271 41 -55 76 -81 89 -66 5 4 14 64 20 133 6 68 14 140 19 160 5 19 12 100
16 180 3 80 10 174 14 209 8 70 2 63 125 156 53 40 66 55 66 78 0 15 -3 27 -6
27 -3 0 -38 -25 -77 -55 -63 -50 -97 -66 -97 -49 0 4 4 23 10 43 5 20 17 69
26 109 17 75 55 165 74 177 10 6 5 25 -8 25 -4 0 -18 -6 -32 -13z m-149 -644
c-6 -65 -14 -183 -17 -261 -3 -79 -10 -156 -15 -170 l-10 -27 -19 25 c-34 45
-70 207 -70 317 0 39 8 67 34 116 42 82 88 139 100 127 5 -5 4 -55 -3 -127z"/>
<path d="M971 2551 c-12 -22 -25 -42 -31 -46 -18 -11 -51 -139 -59 -229 -10
-104 -16 -113 -108 -141 -72 -22 -82 -30 -60 -52 14 -14 22 -15 54 -5 21 7 49
13 63 15 24 2 25 1 22 -57 -2 -56 -5 -62 -42 -94 -85 -72 -159 -187 -185 -289
-13 -51 -13 -64 0 -108 15 -54 61 -107 108 -124 41 -16 122 -14 136 3 8 9 16
103 22 263 8 173 15 254 24 269 8 12 58 57 112 100 53 43 162 143 242 222 79
78 146 140 149 137 3 -2 -5 -69 -18 -147 -28 -172 -37 -409 -20 -517 6 -42 22
-121 35 -176 36 -153 37 -160 16 -180 -17 -14 -29 -15 -92 -6 -46 6 -83 18
-102 31 -16 12 -31 19 -34 16 -13 -12 9 -35 64 -67 48 -28 68 -33 118 -33 33
0 72 6 88 12 25 11 27 15 27 75 0 34 -7 90 -16 122 -61 235 -74 496 -35 698
12 59 21 124 21 143 0 38 -34 114 -51 114 -6 0 -25 -16 -42 -35 -79 -87 -160
-168 -267 -265 -188 -172 -200 -180 -200 -125 0 42 23 76 64 97 84 43 241 208
198 208 -4 0 -39 -28 -77 -62 -92 -81 -145 -119 -157 -112 -19 12 1 136 50
307 22 77 13 97 -17 38z m-133 -883 c2 -182 1 -196 -17 -212 -16 -15 -23 -16
-43 -6 -70 36 -118 119 -103 179 22 88 121 247 149 238 7 -2 12 -67 14 -199z"/>
</g>
</svg>
