<?xml version="1.0" standalone="no"?>
<!DOCTYPE svg PUBLIC "-//W3C//DTD SVG 20010904//EN"
 "http://www.w3.org/TR/2001/REC-SVG-20010904/DTD/svg10.dtd">
<svg version="1.0" xmlns="http://www.w3.org/2000/svg"
 width="290.000000pt" height="405.000000pt" viewBox="0 0 290.000000 405.000000"
 preserveAspectRatio="xMidYMid meet">
<metadata>
Created by potrace 1.16, written by Peter Selinger 2001-2019
</metadata>
<g transform="translate(0.000000,405.000000) scale(0.100000,-0.100000)"
fill="#000000" stroke="none">
<path d="M920 3865 c0 -10 60 -35 84 -35 34 0 37 -8 20 -55 -46 -124 -61 -265
-29 -265 19 0 30 28 39 95 4 28 18 91 32 140 14 50 28 98 30 108 5 15 -4 17
-85 17 -50 0 -91 -2 -91 -5z"/>
<path d="M1350 3812 c0 -56 16 -112 33 -112 12 0 27 48 27 88 0 61 -10 82 -36
82 -23 0 -24 -4 -24 -58z"/>
<path d="M2025 3843 c14 -56 103 -147 156 -158 48 -11 116 13 145 50 22 29 32
65 19 65 -4 0 -19 -7 -35 -15 -52 -27 -108 -23 -182 14 -49 23 -68 38 -68 52
0 13 -7 19 -21 19 -18 0 -20 -4 -14 -27z"/>
<path d="M2435 3849 c-10 -31 -1 -32 25 -4 23 25 23 25 2 25 -12 0 -23 -8 -27
-21z"/>
<path d="M2712 3625 c-1 -6 -24 -35 -52 -65 -52 -57 -60 -79 -35 -100 12 -10
21 -8 51 15 44 33 46 39 41 106 -2 30 -4 49 -5 44z"/>
<path d="M1236 2387 c-29 -38 -34 -102 -16 -198 6 -30 15 -127 20 -216 5 -90
13 -189 19 -220 5 -32 15 -92 21 -133 15 -108 35 -161 76 -203 36 -37 44 -40
115 -52 53 -8 133 12 160 41 21 23 22 26 6 41 -14 14 -21 15 -43 4 -16 -7 -31
-8 -36 -3 -10 10 16 88 36 109 15 15 156 63 188 63 30 0 74 32 65 47 -18 29
-126 14 -210 -29 -21 -10 -41 -17 -44 -14 -3 2 -6 28 -8 58 -2 29 -7 90 -11
136 -6 83 2 105 23 59 19 -40 125 -159 134 -150 5 5 -10 47 -36 99 -51 101
-104 157 -145 152 -22 -3 -25 -7 -23 -43 0 -22 3 -104 5 -181 l3 -142 -78 -76
c-43 -42 -81 -75 -86 -72 -21 14 -51 169 -76 396 -50 471 -51 530 -10 530 8 0
15 7 15 15 0 27 -38 16 -64 -18z m270 -905 c-21 -41 -54 -68 -67 -55 -8 8 0
23 26 52 40 44 63 46 41 3z"/>
<path d="M1857 2198 c4 -18 7 -76 7 -128 1 -86 -2 -102 -31 -170 -18 -41 -37
-83 -43 -92 -13 -22 -13 -78 -1 -78 15 0 39 39 57 92 8 26 19 48 23 48 12 0
12 -436 0 -520 -17 -123 -16 -144 4 -148 21 -4 47 50 49 106 5 111 -13 699
-23 762 -6 41 -14 93 -18 114 -3 22 -12 41 -18 43 -10 4 -11 -4 -6 -29z"/>
<path d="M181 1825 c0 -193 2 -236 12 -220 14 24 14 345 -1 415 -7 34 -10 -16
-11 -195z"/>
<path d="M462 1944 c-16 -7 -110 -132 -156 -209 -20 -33 -57 -91 -81 -130 -37
-59 -44 -78 -44 -120 l0 -50 16 30 c9 17 36 64 61 105 25 41 58 101 74 133 31
64 143 207 162 207 23 0 54 -30 60 -58 4 -15 1 -72 -4 -127 -6 -55 -13 -120
-16 -144 -4 -36 0 -49 18 -68 l22 -24 -19 -56 c-11 -31 -31 -73 -44 -92 -38
-57 -102 -201 -99 -225 2 -14 11 -22 30 -24 20 -2 52 16 135 76 148 109 208
165 200 186 -12 30 -49 17 -108 -36 -91 -82 -146 -128 -153 -128 -16 0 1 42
90 219 53 104 94 198 92 208 -4 19 -41 23 -83 9 -20 -7 -21 -4 -20 128 0 131
-1 136 -25 160 -25 24 -83 40 -108 30z"/>
<path d="M242 1240 c-53 -35 -62 -45 -62 -70 0 -17 3 -30 6 -30 3 0 25 14 49
30 24 17 50 30 58 30 25 0 53 39 41 57 -17 27 -27 25 -92 -17z"/>
<path d="M1703 1228 c-5 -7 -31 -65 -57 -128 -26 -63 -57 -125 -68 -137 -19
-20 -19 -23 -4 -29 27 -11 62 22 83 78 49 131 73 212 65 220 -5 5 -13 3 -19
-4z"/>
</g>
</svg>
