<?xml version="1.0" standalone="no"?>
<!DOCTYPE svg PUBLIC "-//W3C//DTD SVG 20010904//EN"
 "http://www.w3.org/TR/2001/REC-SVG-20010904/DTD/svg10.dtd">
<svg version="1.0" xmlns="http://www.w3.org/2000/svg"
 width="330.000000pt" height="380.000000pt" viewBox="0 0 330.000000 380.000000"
 preserveAspectRatio="xMidYMid meet">
<metadata>
Created by potrace 1.16, written by Peter Selinger 2001-2019
</metadata>
<g transform="translate(0.000000,380.000000) scale(0.100000,-0.100000)"
fill="#000000" stroke="none">
<path d="M285 2853 c-11 -2 -39 -11 -62 -20 -39 -14 -43 -19 -43 -49 0 -42 12
-43 83 -8 28 15 68 29 87 33 26 5 35 11 35 26 0 16 -7 20 -40 22 -22 0 -49 -1
-60 -4z"/>
<path d="M2811 2482 c-205 -210 -221 -234 -239 -373 -10 -78 19 -457 40 -528
12 -40 40 -72 52 -60 3 3 -2 106 -11 229 -8 124 -15 236 -15 250 0 14 -4 60
-10 102 -8 59 -7 85 2 108 17 42 252 255 346 315 108 68 123 117 45 140 -21 6
-45 -14 -210 -183z"/>
<path d="M1194 2625 c-7 -16 -2 -60 16 -177 7 -42 10 -82 8 -90 -3 -7 -30 -21
-59 -32 -54 -18 -109 -59 -109 -82 0 -6 6 -17 14 -24 16 -13 65 5 119 44 17
12 31 16 37 10 5 -5 14 -43 20 -84 6 -41 12 -87 15 -102 4 -23 -10 -44 -85
-130 -60 -69 -105 -134 -139 -198 -48 -93 -49 -96 -38 -140 16 -63 38 -92 101
-140 43 -32 68 -43 113 -50 81 -11 104 1 125 68 20 62 28 243 16 347 -4 39
-10 99 -14 134 l-6 64 101 99 c90 88 104 98 137 98 27 0 37 5 41 20 6 23 70
63 78 50 8 -13 -11 -48 -50 -91 -55 -61 -81 -149 -131 -441 -22 -131 -16 -303
15 -369 37 -81 124 -147 250 -190 170 -59 511 37 511 144 0 27 -55 111 -86
132 -28 18 -54 14 -54 -10 0 -8 13 -34 30 -57 17 -22 30 -47 30 -54 0 -23
-129 -76 -223 -92 -79 -13 -95 -13 -151 1 -93 23 -150 53 -199 106 -40 42 -46
56 -57 120 -25 150 13 427 88 651 57 167 73 190 161 230 31 14 35 8 22 -32 -5
-18 -9 -89 -8 -158 l2 -125 -62 -72 c-35 -40 -63 -79 -63 -86 0 -16 40 -30 62
-22 18 7 118 120 118 133 0 5 7 15 15 22 17 14 85 155 85 175 0 20 45 55 72
55 30 0 58 28 58 59 0 57 -128 124 -236 124 -76 0 -133 -25 -265 -114 -88 -59
-113 -77 -239 -180 -27 -22 -54 -37 -60 -34 -14 9 -12 135 3 164 7 15 32 32
67 45 76 29 140 64 140 77 0 23 -37 19 -130 -14 -55 -19 -102 -31 -105 -27 -3
5 -8 60 -11 122 -5 85 -10 116 -22 126 -22 17 -61 15 -68 -3z m822 -268 c4 -3
3 -14 -2 -24 -4 -10 -8 -27 -8 -38 -1 -13 -7 -19 -16 -16 -8 2 -26 4 -40 5
-22 1 -25 6 -28 45 -5 68 0 74 48 52 22 -10 43 -21 46 -24z m-100 -111 c6 -17
-12 -56 -26 -56 -11 0 -14 53 -3 63 11 11 23 8 29 -7z m-641 -328 c3 -13 4
-111 3 -218 l-3 -195 -27 -3 c-36 -4 -117 40 -152 84 -24 31 -28 42 -23 79 4
23 22 66 41 96 40 63 136 179 148 179 4 0 10 -10 13 -22z"/>
<path d="M180 2504 c0 -32 2 -34 40 -40 47 -8 88 -36 101 -72 10 -27 -3 -52
-28 -52 -8 0 -37 -10 -64 -21 -45 -20 -49 -24 -49 -56 l0 -35 47 26 c27 16 50
23 55 18 5 -5 -6 -37 -27 -75 -35 -64 -38 -87 -11 -87 18 0 114 123 137 178
25 57 22 130 -8 170 -24 33 -94 68 -150 75 l-43 5 0 -34z"/>
<path d="M2755 2294 c-55 -28 -58 -35 -45 -100 18 -89 18 -88 35 -74 8 7 15
22 15 33 0 12 12 34 27 49 23 24 35 28 79 28 71 0 95 -23 129 -123 41 -124 58
-297 50 -528 -5 -165 -4 -198 9 -208 18 -15 21 -10 34 69 27 158 34 294 23
425 -20 229 -65 362 -140 410 -49 31 -172 42 -216 19z"/>
<path d="M181 2084 c0 -11 3 -14 6 -6 3 7 2 16 -1 19 -3 4 -6 -2 -5 -13z"/>
<path d="M255 1980 c-58 -24 -71 -33 -73 -54 -3 -25 -3 -26 25 -11 15 8 60 27
100 42 40 16 74 33 75 38 6 21 -60 13 -127 -15z"/>
<path d="M2699 1989 c-46 -46 -7 -88 62 -67 45 13 48 11 95 -56 19 -27 27 -15
14 20 -9 24 -8 30 8 44 23 18 37 56 23 64 -5 3 -48 8 -96 10 -75 4 -89 2 -106
-15z"/>
<path d="M2775 1790 c-28 -54 -9 -96 25 -55 7 8 18 15 26 15 22 0 26 20 10 45
-22 33 -42 31 -61 -5z"/>
<path d="M302 1602 c-18 -15 -32 -33 -32 -39 0 -22 -23 -14 -57 19 l-33 32 1
-108 c1 -96 3 -107 18 -100 46 19 58 15 132 -43 66 -52 125 -91 211 -142 20
-12 30 -13 38 -5 18 18 -3 48 -68 96 -123 90 -182 142 -182 161 0 11 11 39 25
63 20 34 23 48 15 68 -12 33 -27 32 -68 -2z"/>
<path d="M2860 1561 c-58 -5 -65 -9 -68 -28 -4 -26 28 -43 79 -43 33 0 89 25
89 39 0 5 3 16 6 25 7 17 10 17 -106 7z"/>
</g>
</svg>
