<?xml version="1.0" standalone="no"?>
<!DOCTYPE svg PUBLIC "-//W3C//DTD SVG 20010904//EN"
 "http://www.w3.org/TR/2001/REC-SVG-20010904/DTD/svg10.dtd">
<svg version="1.0" xmlns="http://www.w3.org/2000/svg"
 width="301.000000pt" height="401.000000pt" viewBox="0 0 301.000000 401.000000"
 preserveAspectRatio="xMidYMid meet">
<metadata>
Created by potrace 1.16, written by Peter Selinger 2001-2019
</metadata>
<g transform="translate(0.000000,401.000000) scale(0.100000,-0.100000)"
fill="#000000" stroke="none">
<path d="M670 3825 c0 -2 14 -12 31 -20 21 -11 72 -18 169 -22 118 -5 146 -3
184 11 25 10 48 22 51 27 4 5 -82 9 -214 9 -122 0 -221 -2 -221 -5z"/>
<path d="M1520 3695 c0 -33 42 -75 74 -75 14 0 27 -4 30 -9 3 -4 -22 -68 -56
-140 -41 -89 -57 -136 -51 -142 12 -12 58 60 127 198 69 138 68 141 -37 164
-32 7 -60 16 -63 21 -11 17 -24 7 -24 -17z"/>
<path d="M1596 2641 c-23 -25 -33 -142 -25 -276 11 -163 10 -353 -1 -360 -6
-4 -17 -1 -25 5 -8 6 -19 9 -25 5 -17 -10 -11 -33 10 -40 42 -13 48 -41 55
-248 l7 -199 35 -14 c18 -8 38 -12 44 -9 5 4 25 40 45 82 24 51 38 73 45 66
17 -17 -6 -112 -50 -206 -39 -85 -54 -100 -79 -75 -15 15 -16 -9 -2 -47 15
-40 37 -42 75 -5 41 39 68 106 90 218 21 110 9 184 -35 225 -36 32 -54 34 -98
7 -18 -11 -37 -18 -43 -15 -11 7 -12 62 -3 130 6 40 13 51 47 76 22 16 43 27
47 24 4 -3 5 -34 2 -70 -7 -92 11 -82 33 18 9 45 35 120 58 167 38 79 61 180
41 180 -5 0 -17 -21 -27 -47 -43 -120 -50 -99 -32 87 14 134 14 155 1 168 -23
23 -36 5 -36 -51 0 -57 -19 -310 -25 -343 -5 -24 -81 -78 -100 -71 -17 7 -21
533 -4 584 14 43 0 62 -25 34z"/>
<path d="M1007 2563 c-12 -11 -8 -93 7 -146 19 -67 48 -365 44 -441 l-3 -60
-108 -56 c-60 -32 -113 -62 -119 -68 -14 -14 -1 -50 23 -63 16 -8 26 -5 54 20
49 43 146 103 154 96 3 -4 6 -28 6 -53 1 -26 3 -94 5 -152 4 -100 3 -105 -18
-116 -45 -22 -62 -49 -97 -155 -54 -162 -59 -299 -10 -299 22 0 26 15 13 50
-9 26 -8 48 6 106 19 78 79 214 95 214 7 0 9 -85 8 -237 -2 -256 6 -353 28
-353 12 0 14 31 12 173 -4 345 5 812 17 850 9 33 18 41 61 59 76 30 80 33 80
59 0 20 -5 24 -31 23 -17 -1 -49 -14 -73 -28 -23 -15 -45 -24 -50 -22 -8 5
-21 180 -27 361 -5 165 -41 275 -77 238z"/>
<path d="M2737 2412 c-23 -21 -68 -58 -99 -81 -32 -23 -58 -43 -58 -46 0 -14
21 -55 28 -55 5 0 27 16 51 36 23 20 45 34 48 31 9 -10 -30 -111 -53 -136 -27
-29 -54 -22 -54 13 0 65 -44 22 -56 -54 -6 -40 -16 -54 -95 -130 -77 -75 -87
-88 -82 -113 3 -15 9 -30 14 -33 5 -3 34 22 65 55 31 34 61 61 68 61 7 0 12
-37 13 -116 3 -128 16 -168 55 -162 25 4 37 28 14 28 -26 0 -36 34 -31 111 7
123 16 172 42 217 22 39 73 82 98 82 6 0 9 -48 7 -129 -3 -124 -3 -130 18
-141 16 -9 25 -9 36 1 17 14 19 79 3 79 -12 0 -6 133 8 188 8 34 20 26 26 -19
3 -23 10 -46 16 -52 8 -8 11 36 10 154 -1 163 -5 167 -25 27 -11 -75 -26 -57
-18 21 4 46 2 75 -6 90 -9 18 -9 26 3 39 9 9 19 29 22 45 10 40 -16 35 -68
-11z"/>
<path d="M2773 1712 c-66 -36 -153 -113 -187 -166 -50 -79 -83 -147 -91 -187
-5 -29 -2 -38 23 -62 17 -16 32 -24 36 -19 11 18 66 190 66 207 0 21 131 158
141 148 11 -11 -22 -116 -43 -140 -8 -10 -18 -31 -22 -46 -4 -16 -45 -109 -91
-207 -47 -99 -85 -182 -85 -185 0 -3 -16 -29 -35 -58 -34 -50 -41 -79 -29
-111 9 -24 20 -20 87 31 62 47 153 83 212 83 61 0 75 9 75 48 l0 35 -79 -6
c-44 -4 -96 -13 -117 -22 -20 -8 -41 -15 -46 -15 -17 0 0 49 57 162 71 143
119 222 155 252 33 27 38 53 15 70 -14 10 -14 15 0 48 19 46 21 158 3 158 -7
-1 -27 -9 -45 -18z"/>
<path d="M1189 1490 c-15 -49 -3 -68 30 -50 18 9 22 19 19 48 -4 54 -33 56
-49 2z"/>
<path d="M1880 1350 c-26 -52 -142 -169 -235 -239 -56 -41 -76 -51 -97 -47
-32 6 -44 -6 -23 -24 7 -6 12 -17 9 -25 -8 -19 12 -28 35 -15 33 17 33 -3 1
-100 -16 -50 -30 -103 -30 -117 0 -43 22 -20 44 48 35 106 117 240 196 319 51
51 112 126 125 155 35 74 11 116 -25 45z"/>
<path d="M1757 974 c-3 -4 6 -19 21 -35 15 -15 40 -44 57 -65 69 -87 127 -95
199 -30 26 25 45 49 41 55 -9 15 -38 -2 -59 -34 -9 -14 -26 -25 -37 -25 -32 0
-97 38 -121 70 -12 17 -37 39 -56 50 -37 23 -36 22 -45 14z"/>
</g>
</svg>
