<?xml version="1.0" standalone="no"?>
<!DOCTYPE svg PUBLIC "-//W3C//DTD SVG 20010904//EN"
 "http://www.w3.org/TR/2001/REC-SVG-20010904/DTD/svg10.dtd">
<svg version="1.0" xmlns="http://www.w3.org/2000/svg"
 width="165.000000pt" height="310.000000pt" viewBox="0 0 165.000000 310.000000"
 preserveAspectRatio="xMidYMid meet">
<metadata>
Created by potrace 1.16, written by Peter Selinger 2001-2019
</metadata>
<g transform="translate(0.000000,310.000000) scale(0.100000,-0.100000)"
fill="#000000" stroke="none">
<path d="M605 2350 c-4 -6 6 -27 21 -47 15 -20 30 -50 33 -67 4 -18 13 -31 21
-31 23 0 17 91 -8 124 -20 28 -56 39 -67 21z"/>
<path d="M845 2130 c-40 -10 -104 -38 -135 -59 -14 -9 -59 -32 -100 -50 -93
-42 -108 -54 -90 -75 7 -9 20 -16 30 -16 15 0 115 45 160 71 8 5 24 13 35 18
12 5 27 16 34 25 15 18 56 21 66 6 7 -12 -29 -65 -83 -122 -20 -21 -33 -40
-30 -43 21 -21 208 163 208 204 0 20 -35 52 -55 50 -5 -1 -23 -5 -40 -9z"/>
<path d="M513 1870 c-29 -12 -32 -26 -34 -170 -1 -123 -25 -304 -68 -510 -24
-117 -29 -172 -16 -176 11 -4 46 115 69 231 8 39 21 90 30 114 9 24 16 56 16
72 0 15 5 40 10 54 9 24 20 164 24 290 1 23 9 52 18 67 24 37 3 49 -49 28z"/>
<path d="M662 1803 c-46 -30 -86 -62 -89 -69 -6 -17 14 -44 33 -44 17 0 164
142 164 159 0 21 -24 10 -108 -46z"/>
<path d="M1417 1713 c-2 -5 -2 -41 -1 -80 1 -40 2 -152 3 -249 1 -161 2 -175
19 -172 21 4 22 12 28 271 4 153 2 212 -6 223 -13 15 -36 19 -43 7z"/>
<path d="M693 1688 c-13 -20 -32 -100 -33 -135 0 -35 13 -49 27 -30 14 17 35
96 37 136 1 35 -16 52 -31 29z"/>
<path d="M829 1614 c-43 -47 -273 -259 -299 -275 -21 -14 -23 -18 -11 -33 23
-27 54 -18 101 29 40 41 70 57 70 38 0 -8 -17 -85 -45 -213 -19 -83 -24 -251
-9 -257 8 -2 15 16 19 49 4 29 13 78 20 108 7 30 16 79 20 107 8 65 32 96 91
119 62 24 69 14 52 -72 -14 -68 -35 -94 -45 -55 -8 32 -21 25 -29 -15 -5 -27
-1 -47 15 -80 38 -75 65 -53 106 87 32 111 33 169 1 206 l-25 28 -45 -24 c-25
-13 -52 -21 -61 -18 -19 8 -20 46 0 53 10 4 15 20 15 47 0 26 7 48 19 61 35
39 90 124 84 130 -11 10 -19 7 -44 -20z"/>
</g>
</svg>
