<?xml version="1.0" standalone="no"?>
<!DOCTYPE svg PUBLIC "-//W3C//DTD SVG 20010904//EN"
 "http://www.w3.org/TR/2001/REC-SVG-20010904/DTD/svg10.dtd">
<svg version="1.0" xmlns="http://www.w3.org/2000/svg"
 width="215.000000pt" height="260.000000pt" viewBox="0 0 215.000000 260.000000"
 preserveAspectRatio="xMidYMid meet">
<metadata>
Created by potrace 1.16, written by Peter Selinger 2001-2019
</metadata>
<g transform="translate(0.000000,260.000000) scale(0.100000,-0.100000)"
fill="#000000" stroke="none">
<path d="M627 2073 c-3 -10 -16 -45 -27 -78 -20 -55 -22 -78 -20 -263 l1 -203
-33 -12 c-18 -6 -64 -21 -102 -32 -72 -21 -94 -40 -82 -70 5 -15 14 -17 56
-12 27 3 62 12 77 20 45 23 73 30 73 17 0 -6 -24 -39 -54 -74 -89 -105 -146
-203 -192 -330 -65 -180 -74 -213 -74 -279 0 -78 16 -153 39 -183 92 -121 129
-158 176 -180 63 -30 86 -30 114 0 18 19 24 42 32 117 23 220 28 311 34 599 4
168 10 308 14 312 14 15 224 118 240 118 9 0 32 11 49 24 18 13 54 31 80 41
26 10 61 27 77 39 53 39 198 107 206 99 13 -13 -17 -108 -49 -157 -55 -86
-124 -165 -196 -224 -41 -34 -79 -62 -85 -62 -5 0 -36 24 -68 54 -62 57 -103
78 -103 53 0 -21 47 -88 82 -118 34 -28 31 -49 -6 -49 -31 0 -55 -27 -32 -36
17 -7 60 -2 87 10 11 5 36 -9 78 -44 34 -29 65 -58 68 -66 7 -19 -38 -124 -59
-135 -11 -6 -33 -6 -60 1 -66 15 -134 12 -148 -5 -11 -13 -8 -21 15 -45 26
-27 34 -30 96 -30 71 0 86 -8 70 -37 -6 -13 -31 -22 -87 -31 -97 -15 -207 -64
-202 -89 5 -24 29 -22 157 11 57 15 106 24 110 21 3 -4 7 -48 8 -98 1 -92 19
-172 38 -172 6 0 14 43 18 95 4 52 11 118 15 145 l7 50 80 6 c79 5 155 29 155
48 0 18 -14 18 -115 6 -55 -7 -104 -9 -109 -4 -17 16 32 73 86 99 38 18 53 31
53 45 0 24 -38 33 -61 14 -9 -7 -18 -8 -23 -3 -9 10 14 74 28 74 4 0 41 -18
82 -40 80 -45 140 -63 185 -58 31 3 39 26 14 39 -8 4 -71 35 -140 69 -102 51
-260 157 -260 175 0 2 26 23 58 47 135 100 262 259 283 355 28 136 25 153 -36
173 -31 10 -41 8 -102 -23 -37 -19 -108 -60 -158 -91 -113 -71 -304 -168 -316
-160 -6 3 11 25 36 48 44 41 59 76 32 76 -8 0 -22 -9 -32 -20 -20 -22 -113
-86 -139 -96 -14 -5 -16 2 -14 47 1 30 2 150 0 267 -2 191 -9 246 -25 195z
m-57 -930 c-1 -204 -24 -685 -35 -702 -11 -19 -27 -12 -90 44 -92 80 -117 128
-123 235 -4 72 -1 100 18 161 34 110 115 301 148 350 16 24 37 56 46 72 9 15
21 27 26 27 6 0 10 -72 10 -187z m50 -343 c0 -11 -4 -20 -10 -20 -5 0 -10 9
-10 20 0 11 5 20 10 20 6 0 10 -9 10 -20z"/>
<path d="M225 201 c-6 -5 -19 -11 -30 -14 -11 -3 2 -5 28 -6 35 -1 47 3 45 12
-6 15 -30 20 -43 8z"/>
</g>
</svg>
