<?xml version="1.0" standalone="no"?>
<!DOCTYPE svg PUBLIC "-//W3C//DTD SVG 20010904//EN"
 "http://www.w3.org/TR/2001/REC-SVG-20010904/DTD/svg10.dtd">
<svg version="1.0" xmlns="http://www.w3.org/2000/svg"
 width="302.000000pt" height="382.000000pt" viewBox="0 0 302.000000 382.000000"
 preserveAspectRatio="xMidYMid meet">
<metadata>
Created by potrace 1.16, written by Peter Selinger 2001-2019
</metadata>
<g transform="translate(0.000000,382.000000) scale(0.100000,-0.100000)"
fill="#000000" stroke="none">
<path d="M1535 2911 c-29 -12 -51 -41 -65 -84 -26 -83 -70 -293 -69 -336 0
-62 46 -155 77 -159 27 -4 52 14 52 37 0 16 58 81 73 81 17 0 4 -42 -38 -123
-44 -85 -54 -117 -37 -117 16 0 52 47 52 67 0 12 12 31 28 43 15 11 44 34 65
50 37 28 37 29 17 40 -18 10 -19 13 -6 32 8 11 25 26 38 32 13 6 23 20 23 31
0 10 6 20 13 23 7 2 12 -6 12 -23 0 -35 19 -28 43 16 10 19 30 43 45 55 34 28
24 59 -16 51 -68 -14 -67 -14 -64 18 2 16 8 36 14 43 22 26 -2 23 -43 -4 -25
-17 -46 -41 -52 -59 -14 -43 -40 -69 -110 -106 -34 -18 -74 -41 -89 -52 -14
-11 -31 -17 -36 -13 -15 9 -7 148 11 182 8 16 17 42 21 58 4 17 16 42 27 57
10 15 19 40 19 57 0 36 31 78 65 86 14 4 25 11 25 16 0 12 -67 12 -95 1z"/>
<path d="M926 2761 c-4 -5 -2 -40 4 -78 5 -37 10 -107 10 -154 0 -70 -3 -89
-17 -101 -19 -15 -68 -38 -83 -38 -9 0 -24 36 -25 60 0 10 -10 15 -30 15 -44
0 -44 -28 -1 -55 20 -12 36 -26 36 -30 0 -5 -11 -26 -25 -46 -45 -66 -8 -73
78 -14 32 22 62 38 66 36 13 -9 31 -145 34 -256 l2 -105 -63 -6 c-49 -5 -71
-12 -100 -36 -20 -16 -59 -46 -87 -67 -98 -74 -125 -124 -85 -161 18 -17 21
-17 45 -1 27 18 32 35 13 54 -17 17 1 33 107 87 57 30 104 47 130 48 l40 2 -1
-210 c-1 -127 -6 -228 -14 -255 -23 -87 -23 -99 -5 -107 13 -4 25 2 40 21 29
36 36 99 49 436 l7 165 35 32 c35 31 95 50 140 45 20 -2 27 8 32 43 5 37 -142
14 -188 -30 -16 -15 -30 -22 -34 -17 -3 6 -7 82 -9 169 -3 193 1 201 94 227
59 17 63 17 95 0 27 -15 37 -16 59 -6 l26 12 -27 36 c-27 34 -30 35 -78 31
-28 -3 -78 -12 -111 -21 -33 -8 -64 -11 -68 -7 -5 5 -11 28 -13 52 -11 109
-28 196 -41 217 -14 23 -28 28 -37 13z"/>
<path d="M2790 2760 c-8 -6 -32 -8 -52 -4 -29 4 -38 2 -47 -14 -10 -20 -43
-34 -171 -73 -104 -32 -260 -96 -282 -116 -27 -24 -22 -58 13 -88 36 -30 53
-28 57 6 2 13 11 32 20 42 22 25 170 98 177 88 3 -5 -10 -28 -29 -50 -19 -23
-42 -63 -51 -91 -18 -53 -55 -90 -133 -129 -34 -17 -43 -27 -40 -44 3 -19 8
-21 38 -19 83 9 95 7 91 -8 -11 -36 -12 -219 -2 -239 17 -31 55 -27 85 10 31
36 26 52 -10 39 -14 -6 -30 -7 -36 -4 -14 9 -5 85 21 171 21 72 23 73 90 117
38 24 72 49 75 55 13 21 26 0 26 -43 0 -54 18 -72 89 -87 42 -9 58 -8 77 2 13
7 26 10 29 7 3 -2 -2 -43 -11 -89 -26 -137 -36 -220 -36 -289 1 -93 -17 -209
-38 -251 -36 -70 -150 -149 -217 -149 -29 0 -28 7 23 121 19 42 34 80 34 85 0
11 54 144 80 200 11 22 20 45 20 50 0 6 14 31 30 57 52 82 60 177 16 177 -16
0 -51 -58 -91 -150 -42 -95 -110 -184 -192 -248 -39 -32 -96 -77 -128 -101
-49 -39 -56 -49 -53 -75 3 -30 7 -34 114 -112 l29 -22 -24 -48 c-51 -102 -181
-255 -269 -316 -46 -32 -53 -61 -20 -82 16 -10 67 8 330 115 26 10 58 19 73
19 14 0 42 8 63 19 20 10 62 26 92 35 30 10 85 29 123 43 65 24 67 26 67 59 0
23 -5 34 -14 34 -8 0 -127 -38 -265 -84 -137 -46 -252 -82 -255 -79 -2 3 17
33 43 67 27 33 58 79 69 101 32 63 71 94 133 105 129 22 207 72 247 159 23 49
27 75 33 211 4 85 8 247 8 360 l0 205 -22 -27 c-30 -36 -47 -35 -47 2 0 37 36
134 55 150 9 8 15 30 15 57 0 42 -1 44 -27 41 -25 -3 -31 -11 -55 -78 -14 -41
-29 -102 -33 -135 -11 -94 -45 -115 -45 -28 0 103 68 261 127 296 27 15 33 25
31 46 -3 28 -24 37 -48 21z m-116 -119 c5 -8 -4 -42 -37 -134 -16 -45 -138
-120 -160 -98 -13 13 27 93 65 131 16 16 26 35 23 40 -9 15 14 40 50 56 36 16
52 17 59 5z m-155 -888 c0 -25 -74 -186 -86 -190 -5 -2 -20 5 -33 15 l-23 19
41 52 c23 29 42 56 42 61 0 12 40 60 51 60 5 0 9 -8 8 -17z"/>
<path d="M380 2329 c-6 -11 -10 -24 -8 -30 4 -13 48 19 48 37 0 21 -28 17 -40
-7z"/>
<path d="M233 2310 c-12 -5 -24 -18 -28 -29 -3 -12 -11 -21 -16 -21 -5 0 -9
-14 -9 -32 0 -33 9 -34 14 -1 4 26 30 23 34 -4 4 -28 13 -29 43 -3 20 16 21
19 7 20 -20 0 -24 20 -8 36 17 17 -11 44 -37 34z"/>
<path d="M1570 2183 c-8 -3 -38 -16 -65 -29 -28 -13 -74 -29 -103 -35 -28 -7
-52 -16 -52 -21 0 -17 20 -48 31 -48 24 0 119 -51 119 -64 0 -21 -21 -34 -60
-38 -44 -4 -45 -18 -3 -38 18 -8 33 -20 33 -25 0 -6 -48 -46 -107 -90 -133
-98 -203 -162 -203 -185 0 -9 12 -30 26 -45 24 -26 29 -27 85 -21 33 3 59 2
59 -3 0 -5 -33 -34 -74 -65 -73 -55 -116 -107 -116 -140 0 -18 37 -36 75 -36
13 0 59 -14 102 -31 105 -43 268 -75 306 -60 15 6 27 14 27 19 0 15 -298 91
-358 92 -24 0 -52 5 -63 10 -23 13 -25 38 -3 47 8 3 49 38 90 78 41 40 98 87
127 103 69 39 84 57 66 78 -14 17 -20 17 -151 -17 -83 -21 -118 -21 -118 0 0
6 13 17 29 26 16 8 39 28 50 44 12 16 49 51 84 76 69 52 109 85 196 162 33 28
73 59 89 67 39 20 43 36 34 116 -6 57 -10 65 -32 71 -30 8 -99 10 -120 2z m55
-92 c8 -14 -35 -41 -66 -41 -35 0 -42 10 -22 32 17 19 77 25 88 9z"/>
</g>
</svg>
