<?xml version="1.0" standalone="no"?>
<!DOCTYPE svg PUBLIC "-//W3C//DTD SVG 20010904//EN"
 "http://www.w3.org/TR/2001/REC-SVG-20010904/DTD/svg10.dtd">
<svg version="1.0" xmlns="http://www.w3.org/2000/svg"
 width="314.000000pt" height="376.000000pt" viewBox="0 0 314.000000 376.000000"
 preserveAspectRatio="xMidYMid meet">
<metadata>
Created by potrace 1.16, written by Peter Selinger 2001-2019
</metadata>
<g transform="translate(0.000000,376.000000) scale(0.100000,-0.100000)"
fill="#000000" stroke="none">
<path d="M1545 2919 c-90 -25 -245 -82 -245 -90 0 -15 46 -10 152 17 183 46
191 38 185 -176 -5 -184 -33 -281 -108 -379 -48 -64 -49 -65 -30 -85 10 -12
21 -40 25 -63 6 -38 3 -45 -33 -87 -43 -50 -91 -137 -91 -165 0 -37 35 -54 97
-48 32 3 66 8 75 12 31 12 32 -23 2 -93 -15 -37 -37 -73 -47 -81 -11 -7 -26
-29 -34 -48 -17 -41 -5 -63 33 -63 30 0 41 22 89 170 28 84 47 125 71 153 34
38 46 89 23 103 -6 3 -32 -14 -58 -40 -26 -25 -56 -46 -66 -46 -11 0 -42 -7
-69 -15 -71 -22 -84 -7 -43 49 12 17 29 44 37 59 28 55 76 94 142 114 56 16
63 21 66 47 3 26 -20 66 -39 66 -5 0 -24 -13 -42 -30 -38 -33 -57 -38 -57 -15
0 26 50 97 121 172 38 40 71 84 75 97 16 65 -24 88 -56 33 -18 -31 -47 -53
-56 -45 -1 2 4 30 11 63 18 76 22 286 6 343 -17 60 -71 89 -136 71z"/>
<path d="M212 2765 c-28 -12 -32 -19 -32 -50 l0 -36 34 26 c32 25 52 60 37 69
-3 2 -21 -2 -39 -9z"/>
<path d="M2863 2731 c-49 -9 -118 -80 -158 -161 -19 -40 -40 -79 -46 -86 -7
-9 -10 -48 -7 -112 3 -91 6 -103 38 -155 19 -31 56 -78 82 -104 l48 -47 35 18
c20 11 51 38 70 62 28 34 35 51 35 86 -1 41 -1 42 -14 19 -19 -34 -116 -112
-134 -109 -9 2 -30 27 -47 57 -17 29 -39 58 -48 63 -22 12 -22 28 1 28 10 0
40 15 68 33 28 17 79 45 112 61 58 28 62 32 62 64 l0 33 -26 -20 c-15 -12 -32
-21 -38 -21 -7 0 -52 -27 -100 -60 -49 -33 -91 -60 -93 -60 -12 0 7 113 24
147 22 45 69 64 165 66 63 2 68 4 68 24 0 30 -58 42 -92 19 -24 -17 -64 -21
-72 -8 -9 16 39 94 67 109 22 11 36 12 59 4 40 -14 38 -15 38 18 0 40 -21 47
-97 32z"/>
<path d="M1924 2719 c-4 -7 7 -22 24 -36 39 -30 51 -70 59 -193 5 -79 3 -101
-11 -128 -30 -59 -60 -166 -57 -207 3 -44 22 -65 58 -65 32 0 40 -26 16 -58
-11 -15 -30 -49 -43 -77 -13 -27 -40 -68 -60 -90 -47 -52 -70 -119 -48 -141
26 -27 60 -3 94 67 109 223 110 223 134 229 23 5 25 11 25 57 0 52 23 93 51
93 7 0 22 14 34 30 30 42 50 25 50 -40 0 -72 18 -153 38 -168 26 -20 63 -6
105 40 66 72 36 125 -33 57 -18 -19 -35 -28 -40 -23 -5 5 -11 77 -14 159 -8
248 -33 403 -72 446 -10 12 -30 19 -51 19 -30 0 -37 -6 -71 -60 -20 -32 -41
-58 -47 -56 -5 1 -19 27 -30 57 -14 37 -31 61 -54 76 -38 26 -47 28 -57 12z
m275 -101 c16 -42 34 -136 27 -146 -6 -10 -133 -9 -143 2 -5 4 59 126 80 154
14 18 26 15 36 -10z m3 -228 c25 -26 29 -36 24 -62 -8 -41 -21 -55 -70 -79
-53 -26 -56 -25 -56 19 0 20 -5 55 -10 76 -12 54 1 76 46 76 26 0 44 -8 66
-30z m-152 -159 c0 -48 -4 -72 -15 -81 -21 -17 -50 -8 -53 18 -4 26 42 132 57
132 7 0 11 -27 11 -69z"/>
<path d="M180 2555 l0 -46 29 15 c37 20 48 46 25 63 -10 7 -26 13 -36 13 -15
0 -18 -8 -18 -45z"/>
<path d="M213 2433 c-33 -4 -33 -4 -33 -62 0 -58 0 -58 28 -53 15 2 35 11 44
20 13 11 30 13 63 9 39 -6 45 -4 45 12 0 23 -25 45 -74 65 -21 9 -39 15 -40
14 0 0 -16 -3 -33 -5z"/>
<path d="M228 2278 c-2 -15 -11 -24 -25 -26 -23 -3 -34 -42 -13 -42 16 0 70
29 70 38 -1 19 -13 52 -20 52 -5 0 -10 -10 -12 -22z"/>
<path d="M377 2061 c-26 -16 -58 -37 -70 -48 -12 -12 -46 -33 -74 -47 l-53
-26 0 -57 0 -57 44 43 c31 31 67 52 127 75 168 64 223 104 183 133 -31 22
-104 15 -157 -16z"/>
<path d="M2918 1969 c-31 -16 -38 -25 -38 -50 0 -17 3 -29 8 -27 50 24 72 46
72 71 0 15 -1 27 -2 27 -2 -1 -20 -10 -40 -21z"/>
<path d="M2134 1848 c-4 -62 -8 -167 -8 -234 1 -114 2 -124 32 -187 24 -51 36
-67 52 -67 34 0 34 25 1 125 -29 87 -31 103 -32 242 0 159 -7 224 -25 230 -7
2 -14 -35 -20 -109z"/>
<path d="M278 1836 c-3 -18 -25 -37 -83 -71 -10 -6 -16 -19 -14 -34 l4 -24 33
28 c52 44 59 24 32 -87 -12 -51 -33 -120 -46 -153 -13 -33 -24 -75 -24 -94 l0
-34 25 23 c31 30 89 203 104 315 6 44 15 83 19 86 4 4 25 12 46 18 46 12 66 2
66 -35 0 -29 11 -31 33 -6 45 50 7 81 -106 85 -80 3 -86 2 -89 -17z"/>
<path d="M360 1730 c0 -5 11 -10 25 -10 14 0 25 5 25 10 0 6 -11 10 -25 10
-14 0 -25 -4 -25 -10z"/>
<path d="M2932 1702 c-33 -10 -32 -26 1 -30 22 -3 27 1 27 17 0 12 -1 21 -2
20 -2 -1 -13 -4 -26 -7z"/>
<path d="M2796 256 c-108 -17 -98 -36 21 -36 54 0 108 -3 121 -6 19 -6 22 -3
22 25 0 31 -1 31 -47 30 -27 -1 -79 -6 -117 -13z"/>
</g>
</svg>
