<?xml version="1.0" standalone="no"?>
<!DOCTYPE svg PUBLIC "-//W3C//DTD SVG 20010904//EN"
 "http://www.w3.org/TR/2001/REC-SVG-20010904/DTD/svg10.dtd">
<svg version="1.0" xmlns="http://www.w3.org/2000/svg"
 width="260.000000pt" height="364.000000pt" viewBox="0 0 260.000000 364.000000"
 preserveAspectRatio="xMidYMid meet">
<metadata>
Created by potrace 1.16, written by Peter Selinger 2001-2019
</metadata>
<g transform="translate(0.000000,364.000000) scale(0.100000,-0.100000)"
fill="#000000" stroke="none">
<path d="M1201 2881 c-12 -38 -21 -76 -21 -86 0 -9 -16 -70 -35 -136 -36 -124
-37 -157 -7 -191 18 -22 30 -22 52 -3 9 8 31 18 50 21 l33 7 -6 -48 c-4 -26
-19 -69 -34 -94 -14 -25 -44 -79 -65 -120 -21 -40 -60 -95 -86 -121 -32 -31
-57 -69 -72 -107 -31 -78 -37 -84 -79 -81 -25 2 -36 -1 -39 -13 -4 -21 35 -69
58 -69 21 0 78 66 108 126 32 64 127 153 196 184 34 16 64 26 68 23 9 -5 -13
-50 -56 -114 -17 -26 -53 -80 -79 -120 -156 -240 -196 -292 -252 -326 -31 -18
-60 -33 -64 -33 -5 0 -14 -7 -21 -15 -19 -23 -32 -7 -26 34 6 35 20 229 35
487 4 72 11 136 15 142 4 7 18 12 31 12 13 0 27 5 30 10 10 16 -15 40 -41 40
-32 0 -44 27 -44 98 0 32 -4 83 -9 113 -5 30 -13 89 -16 132 -7 80 -18 96 -35
50 -6 -16 -15 -38 -22 -50 -11 -22 -10 -36 12 -242 6 -57 9 -106 6 -109 -9 -8
-116 -50 -186 -73 -71 -22 -167 -66 -176 -80 -10 -17 8 -50 33 -60 22 -8 32
-5 64 21 21 16 77 44 126 62 48 17 98 38 110 46 33 21 36 4 25 -128 -9 -109
-10 -113 -41 -137 -17 -13 -31 -29 -31 -35 0 -6 -24 -43 -54 -83 -29 -39 -64
-91 -76 -116 -12 -24 -28 -51 -35 -59 -27 -33 -65 -162 -65 -219 0 -105 60
-271 107 -294 41 -21 97 -29 126 -18 42 16 78 106 89 216 4 52 12 111 16 132
8 35 11 38 39 35 32 -3 93 28 140 71 13 11 26 17 30 14 4 -4 -5 -43 -20 -86
-36 -108 -59 -243 -51 -305 8 -58 40 -140 52 -132 5 3 9 45 10 94 1 99 32 247
69 331 12 29 23 60 23 67 0 24 57 79 96 93 66 23 187 82 221 108 32 24 43 56
24 67 -5 3 -35 -10 -67 -29 -32 -19 -63 -35 -70 -35 -6 0 -37 -12 -68 -26 -32
-14 -60 -24 -63 -21 -12 12 11 71 58 147 27 45 49 92 49 106 0 29 13 55 61
114 106 134 115 200 27 200 -34 0 -127 -40 -164 -71 -7 -5 -15 -6 -18 -1 -2 4
23 48 57 98 63 89 87 146 87 201 0 49 -20 66 -84 71 -56 4 -58 5 -53 31 2 14
16 60 30 101 14 41 31 104 37 139 11 60 10 65 -11 87 -12 13 -26 24 -30 24 -4
0 -16 -31 -28 -69z m-429 -1092 c-2 -52 -7 -152 -13 -224 -28 -379 -43 -451
-88 -411 -33 30 -111 243 -111 305 0 78 58 228 125 322 18 26 41 61 50 78 28
55 39 34 37 -70z m328 -98 c0 -12 -20 -25 -27 -18 -7 7 6 27 18 27 5 0 9 -4 9
-9z m30 -27 c0 -3 -5 -14 -10 -25 -16 -28 -32 -23 -18 6 10 22 28 35 28 19z"/>
<path d="M2399 2429 c-9 -17 -8 -25 5 -37 15 -15 16 -13 16 21 0 42 -5 46 -21
16z"/>
<path d="M1325 1560 c-7 -12 2 -30 16 -30 12 0 309 -299 366 -368 42 -49 119
-104 141 -100 30 6 23 27 -26 75 -27 26 -84 90 -127 141 -42 50 -81 92 -85 92
-4 0 -18 16 -32 35 -14 20 -57 65 -97 100 -62 57 -77 65 -111 65 -21 0 -42 -4
-45 -10z"/>
</g>
</svg>
