<?xml version="1.0" standalone="no"?>
<!DOCTYPE svg PUBLIC "-//W3C//DTD SVG 20010904//EN"
 "http://www.w3.org/TR/2001/REC-SVG-20010904/DTD/svg10.dtd">
<svg version="1.0" xmlns="http://www.w3.org/2000/svg"
 width="304.000000pt" height="408.000000pt" viewBox="0 0 304.000000 408.000000"
 preserveAspectRatio="xMidYMid meet">
<metadata>
Created by potrace 1.16, written by Peter Selinger 2001-2019
</metadata>
<g transform="translate(0.000000,408.000000) scale(0.100000,-0.100000)"
fill="#000000" stroke="none">
<path d="M2392 2728 c-14 -18 -53 -168 -47 -179 12 -19 31 -7 58 35 15 24 27
48 27 54 0 6 14 27 30 46 30 34 30 35 11 45 -27 15 -66 14 -79 -1z"/>
<path d="M1514 2502 c-33 -29 -91 -133 -121 -220 -14 -42 -22 -52 -38 -50 -37
5 -45 -9 -39 -66 6 -50 5 -54 -21 -72 -15 -11 -48 -37 -74 -59 -94 -82 -89
-79 -106 -65 -29 24 -18 73 26 115 102 99 139 187 39 95 -24 -22 -49 -40 -56
-40 -22 0 -28 49 -15 114 14 74 22 256 11 256 -22 0 -53 -128 -64 -258 l-11
-137 -53 -7 c-63 -9 -112 -33 -112 -54 0 -21 46 -36 100 -32 l45 3 3 -61 3
-60 -48 -32 c-154 -103 -248 -183 -263 -225 -14 -41 3 -142 40 -231 15 -39 33
-87 39 -106 28 -91 129 -160 234 -160 71 0 91 17 106 92 16 75 6 314 -21 532
l-11 88 34 27 c18 14 70 59 115 99 45 39 86 72 91 72 6 0 18 -9 28 -20 24 -26
35 -25 95 6 32 17 61 42 80 71 16 24 30 46 30 49 0 2 11 21 25 42 33 50 58
161 49 220 -8 54 -49 102 -86 102 -13 -1 -37 -13 -54 -28z m86 -47 c16 -19 9
-140 -11 -180 -8 -16 -23 -31 -33 -33 -11 -3 -37 -15 -57 -29 -42 -28 -72 -27
-77 1 -9 46 119 256 156 256 5 0 15 -7 22 -15z m-110 -318 c0 -21 -37 -50 -55
-44 -23 9 -18 25 13 41 34 19 42 19 42 3z m-431 -450 c17 -169 18 -426 2 -454
-16 -32 -55 -29 -100 6 -38 31 -134 162 -146 202 -4 13 -14 33 -21 44 -19 27
-17 53 9 116 30 75 85 137 133 150 21 6 50 24 66 41 15 16 31 27 36 24 5 -3
15 -61 21 -129z"/>
<path d="M2292 2458 c-20 -20 -14 -45 19 -82 83 -95 307 -110 476 -30 66 31
73 36 73 63 l0 30 -72 -31 c-62 -26 -89 -32 -178 -36 -88 -3 -114 -1 -164 17
-32 11 -68 27 -80 36 -11 8 -30 22 -42 30 -15 11 -23 12 -32 3z"/>
<path d="M215 2345 c-28 -43 -35 -64 -35 -105 l0 -51 28 33 c15 18 40 57 55
85 23 42 26 56 17 73 -16 31 -27 25 -65 -35z"/>
<path d="M2510 2247 c-39 -20 -31 -41 19 -53 35 -8 56 -23 98 -69 65 -71 69
-99 18 -121 -53 -22 -122 -29 -140 -14 -21 17 -30 77 -16 107 19 41 2 45 -35
7 -60 -60 -53 -143 16 -179 36 -18 131 -19 182 -1 44 16 118 73 118 91 0 7
-11 36 -25 63 -14 28 -25 54 -25 60 0 16 -89 93 -125 108 -42 17 -53 17 -85 1z"/>
<path d="M1645 2023 c-27 -8 -86 -28 -130 -43 -148 -52 -222 -71 -249 -64 -50
12 -75 -36 -36 -71 18 -16 24 -16 97 -2 90 18 144 36 227 78 33 16 69 29 80
29 12 1 32 7 46 15 14 8 35 14 47 15 31 0 38 18 17 41 -20 22 -33 23 -99 2z"/>
<path d="M1502 1798 c-39 -43 -71 -460 -37 -504 23 -30 32 -5 39 115 4 58 11
131 16 161 11 64 18 250 9 250 -3 0 -15 -10 -27 -22z"/>
<path d="M2473 1761 c-86 -14 -143 -67 -143 -132 0 -44 8 -54 30 -34 40 37
221 41 335 9 59 -17 125 -59 125 -79 0 -20 -76 -102 -109 -120 -15 -7 -45 -16
-67 -19 -38 -7 -43 -5 -67 25 -31 39 -57 34 -57 -11 0 -45 41 -80 94 -80 93 0
161 41 218 129 26 41 28 52 27 140 0 94 -1 97 -29 119 -16 12 -48 29 -72 38
-50 18 -210 26 -285 15z m280 -85 c44 -19 50 -41 10 -33 -131 26 -148 35 -107
52 16 6 36 9 44 5 8 -4 32 -15 53 -24z"/>
<path d="M2169 1738 c0 -2 -2 -39 -5 -83 -4 -74 0 -91 41 -221 25 -78 45 -146
45 -151 0 -20 42 -63 61 -63 23 0 27 45 5 69 -12 14 -28 67 -68 226 -6 22 -12
60 -14 85 -8 102 -18 135 -41 138 -13 2 -23 2 -24 0z"/>
<path d="M1247 1583 c-8 -16 -20 -75 -27 -133 -23 -191 -23 -215 -7 -228 22
-19 35 4 47 89 6 40 17 92 25 114 18 55 26 160 12 174 -18 18 -36 13 -50 -16z"/>
<path d="M1633 1533 c-26 -5 -47 -28 -38 -43 10 -16 85 -12 91 5 6 15 -12 46
-25 44 -3 -1 -16 -4 -28 -6z"/>
<path d="M233 1314 c-3 -9 -1 -38 6 -66 6 -27 11 -66 11 -87 0 -41 23 -81 46
-81 13 0 14 8 9 38 -3 21 -6 62 -7 92 -1 67 -11 95 -38 110 -16 9 -22 8 -27
-6z"/>
<path d="M1305 1240 c-7 -11 26 -29 131 -70 44 -18 93 -40 109 -50 33 -20 123
-41 286 -65 128 -20 223 -13 296 21 28 13 57 24 62 24 6 0 11 3 11 8 0 4 -82
7 -182 7 -216 0 -314 18 -494 90 -110 45 -204 60 -219 35z"/>
</g>
</svg>
