<?xml version="1.0" standalone="no"?>
<!DOCTYPE svg PUBLIC "-//W3C//DTD SVG 20010904//EN"
 "http://www.w3.org/TR/2001/REC-SVG-20010904/DTD/svg10.dtd">
<svg version="1.0" xmlns="http://www.w3.org/2000/svg"
 width="323.000000pt" height="286.000000pt" viewBox="0 0 323.000000 286.000000"
 preserveAspectRatio="xMidYMid meet">
<metadata>
Created by potrace 1.16, written by Peter Selinger 2001-2019
</metadata>
<g transform="translate(0.000000,286.000000) scale(0.100000,-0.100000)"
fill="#000000" stroke="none">
<path d="M2989 2347 c-24 -18 -71 -73 -104 -122 -85 -124 -117 -236 -130 -455
-7 -118 12 -215 70 -353 21 -51 88 -105 140 -113 60 -8 85 7 85 53 0 34 -1 35
-18 20 -10 -10 -31 -17 -45 -17 -39 0 -101 60 -116 112 -8 24 -21 66 -30 93
-43 133 4 488 80 603 16 24 29 47 29 52 0 4 23 28 50 53 40 36 50 52 50 76 0
17 -4 31 -9 31 -5 0 -29 -15 -52 -33z"/>
<path d="M1259 2146 c-44 -33 -131 -131 -179 -201 -64 -94 -113 -135 -161
-135 -19 0 -21 4 -15 32 3 17 13 45 22 62 17 33 45 148 37 156 -6 6 -52 -53
-81 -103 -14 -23 -26 -65 -29 -96 -8 -76 -16 -89 -80 -118 -60 -28 -74 -47
-51 -70 13 -13 19 -13 52 1 46 19 50 13 44 -87 -3 -69 -7 -79 -52 -146 -63
-94 -102 -173 -121 -241 -8 -30 -23 -80 -34 -110 -26 -72 -26 -100 2 -141 55
-81 141 -28 199 124 37 97 58 200 58 292 0 50 5 109 10 132 10 44 56 121 109
183 24 28 31 32 44 22 25 -21 59 -5 142 67 83 72 167 113 187 93 24 -24 -55
-152 -94 -152 -14 0 -18 -5 -14 -16 4 -10 -6 -31 -24 -54 -41 -51 -21 -60 30
-14 33 30 43 34 55 24 17 -14 19 -33 6 -58 -6 -9 -12 -28 -15 -42 -3 -14 -12
-34 -19 -45 -13 -16 -17 -17 -31 -6 -9 7 -34 14 -56 15 -21 1 -48 10 -58 19
-22 20 -42 22 -42 4 0 -15 30 -44 74 -71 37 -23 26 -34 -76 -76 -82 -33 -104
-51 -94 -75 8 -23 61 -18 114 10 26 14 54 25 62 25 9 0 25 7 37 15 30 21 36 5
18 -45 -21 -60 -48 -227 -40 -248 6 -15 9 -14 26 7 11 13 17 31 14 39 -3 7 4
34 15 59 11 25 20 53 20 62 0 9 9 34 20 56 11 22 20 47 20 56 0 23 36 67 70
84 15 8 108 42 206 76 99 33 217 74 264 90 47 16 100 34 118 40 17 5 32 14 32
19 0 13 -29 13 -82 0 -182 -42 -279 -68 -404 -110 -79 -27 -146 -45 -149 -40
-3 4 10 21 29 38 53 46 103 105 110 129 6 19 2 25 -19 33 -16 6 -26 17 -24 27
3 34 -1 35 -36 4 -34 -29 -75 -42 -75 -22 0 4 10 23 23 42 40 61 48 85 45 124
-2 33 -8 41 -30 49 -23 8 -41 3 -114 -34 -49 -25 -111 -66 -144 -97 -54 -49
-80 -64 -80 -45 0 4 23 30 51 57 95 93 239 315 226 349 -9 23 -19 20 -68 -18z
m-75 -174 c-49 -77 -138 -163 -121 -118 11 29 120 155 129 150 5 -3 2 -17 -8
-32z m-179 -192 c10 -16 -96 -160 -117 -160 -4 0 -8 22 -8 50 0 48 2 51 48 85
49 36 67 42 77 25z m438 -151 c-17 -17 -37 -1 -22 17 8 10 15 12 23 4 7 -7 7
-13 -1 -21z m-623 -254 c0 -19 -7 -81 -16 -137 -26 -164 -98 -301 -144 -273
-18 11 -11 103 15 178 39 117 116 267 136 267 5 0 9 -16 9 -35z"/>
<path d="M2984 1818 c-60 -61 -94 -112 -94 -141 0 -8 8 -22 19 -31 15 -14 26
-15 61 -7 24 5 50 17 59 26 15 15 12 16 -36 9 -49 -6 -53 -5 -53 14 0 12 25
48 56 81 42 46 55 66 52 86 -3 25 -6 23 -64 -37z"/>
<path d="M180 1631 c0 -70 46 -132 64 -86 6 18 -28 98 -50 116 -12 10 -14 5
-14 -30z"/>
<path d="M1566 1212 c-3 -6 -1 -14 5 -17 15 -10 25 3 12 16 -7 7 -13 7 -17 1z"/>
<path d="M1605 1160 c-10 -15 15 -53 89 -136 92 -102 196 -153 260 -128 25 9
19 24 -9 24 -43 0 -117 45 -175 106 -30 32 -74 77 -96 101 -42 43 -58 51 -69
33z"/>
</g>
</svg>
