<?xml version="1.0" standalone="no"?>
<!DOCTYPE svg PUBLIC "-//W3C//DTD SVG 20010904//EN"
 "http://www.w3.org/TR/2001/REC-SVG-20010904/DTD/svg10.dtd">
<svg version="1.0" xmlns="http://www.w3.org/2000/svg"
 width="298.000000pt" height="345.000000pt" viewBox="0 0 298.000000 345.000000"
 preserveAspectRatio="xMidYMid meet">
<metadata>
Created by potrace 1.16, written by Peter Selinger 2001-2019
</metadata>
<g transform="translate(0.000000,345.000000) scale(0.100000,-0.100000)"
fill="#000000" stroke="none">
<path d="M1454 2645 c-19 -29 -23 -73 -44 -451 -11 -191 -8 -288 10 -299 15
-9 19 10 30 121 5 60 16 159 24 219 8 61 18 178 21 260 7 130 5 152 -8 163
-13 11 -18 9 -33 -13z"/>
<path d="M2613 2614 c-5 -14 -2 -135 10 -449 l2 -40 -45 -5 c-40 -4 -45 -8
-45 -30 0 -23 5 -25 50 -30 l50 -5 7 -50 c12 -82 27 -318 22 -327 -3 -5 -23
-17 -45 -28 -21 -11 -39 -27 -39 -34 0 -21 24 -36 48 -29 34 9 49 -12 56 -80
11 -102 37 -205 58 -233 25 -31 43 -19 29 18 -13 34 -33 243 -29 303 3 43 6
50 28 55 20 5 26 13 28 43 3 35 2 37 -16 26 -37 -23 -49 -6 -57 78 -4 43 -7
114 -6 158 1 69 4 83 22 98 12 9 30 17 40 17 15 0 19 7 19 34 l0 34 -42 -9
c-22 -6 -45 -6 -49 -2 -20 20 -38 366 -19 378 10 6 7 95 -4 114 -11 17 -66 13
-73 -5z"/>
<path d="M2787 2593 c-9 -8 -7 -178 3 -263 5 -50 7 -27 8 103 1 92 1 167 -1
167 -2 0 -7 -3 -10 -7z"/>
<path d="M1134 2529 c-17 -19 -19 -38 -19 -192 l0 -171 -92 -41 c-108 -47
-122 -57 -103 -80 19 -23 52 -18 124 20 47 25 68 31 71 23 2 -7 6 -70 10 -140
7 -139 6 -143 -54 -218 -37 -45 -89 -122 -131 -193 -24 -41 -60 -164 -60 -206
0 -14 14 -62 32 -106 43 -106 94 -159 170 -174 50 -11 59 -10 91 9 37 22 51
55 50 125 0 131 -6 288 -14 380 -17 186 -15 237 15 288 14 24 26 52 26 62 0
17 -1 17 -20 0 -11 -10 -23 -16 -26 -13 -3 3 -7 56 -9 117 -5 128 -11 117 103
201 82 59 68 78 -24 31 -36 -18 -68 -30 -72 -26 -4 3 -11 77 -17 162 -6 94
-14 158 -21 160 -6 2 -19 -6 -30 -18z m1 -866 c1 -21 8 -114 16 -208 17 -217
18 -340 2 -356 -19 -19 -99 18 -135 62 -36 45 -68 132 -68 186 0 42 9 66 78
213 36 76 90 155 100 146 2 -3 6 -22 7 -43z"/>
<path d="M180 2370 c0 -27 3 -30 31 -30 17 0 39 -5 50 -10 27 -15 59 -82 59
-124 0 -65 -13 -81 -79 -99 l-61 -17 0 -41 c0 -43 0 -43 52 -7 41 28 51 24 45
-22 -3 -22 -2 -42 3 -45 16 -10 42 36 76 134 l35 102 -21 63 c-29 88 -74 126
-149 126 -39 0 -41 -2 -41 -30z"/>
<path d="M1650 2278 c-98 -45 -136 -89 -77 -88 49 1 176 87 163 109 -9 14 -10
14 -86 -21z"/>
<path d="M2261 2211 c-32 -59 -40 -341 -11 -376 21 -25 30 -6 30 65 0 38 4 91
9 117 33 170 35 182 21 197 -17 21 -37 20 -49 -3z"/>
<path d="M203 2203 c-17 -3 -23 -11 -23 -33 0 -27 1 -28 43 -23 55 7 79 20 75
41 -3 17 -49 25 -95 15z"/>
<path d="M1538 1955 c-33 -18 -84 -90 -103 -146 -8 -23 -15 -75 -15 -116 0
-59 3 -75 17 -80 11 -4 24 3 40 23 25 30 25 45 7 140 -5 25 1 39 35 81 44 56
70 70 101 53 26 -14 25 -26 -4 -61 -26 -31 -56 -142 -56 -209 0 -40 17 -67 62
-95 11 -7 18 -33 22 -91 l6 -82 -37 -23 c-21 -12 -78 -44 -128 -69 -212 -110
-211 -110 -183 -138 21 -21 58 -13 118 23 32 19 61 35 64 35 4 0 21 10 39 22
76 52 87 58 100 58 11 0 15 -31 20 -142 9 -194 40 -315 83 -332 30 -12 36 9
15 50 -26 49 -43 251 -34 389 l6 97 53 24 c29 13 73 41 98 62 25 20 55 44 67
53 27 18 20 49 -11 49 -11 0 -51 -22 -88 -49 -98 -69 -111 -76 -119 -56 -12
34 6 147 34 203 21 44 29 75 31 133 4 77 4 77 -34 119 -64 71 -154 104 -206
75z m168 -116 c22 -43 22 -103 0 -171 -23 -71 -40 -88 -64 -64 -23 23 -23 151
0 198 9 18 19 41 22 51 8 26 24 21 42 -14z"/>
<path d="M197 1922 c-10 -10 -17 -29 -17 -42 0 -22 1 -22 25 10 13 18 22 37
19 41 -7 12 -9 12 -27 -9z"/>
<path d="M181 1714 c1 -67 1 -68 13 -35 18 52 32 56 120 36 69 -16 82 -22 126
-66 39 -38 53 -63 74 -127 48 -143 53 -308 10 -339 -10 -7 -35 -13 -56 -13
-31 0 -38 -4 -38 -20 0 -49 106 -51 153 -2 14 15 31 40 36 55 28 73 -3 290
-57 405 -18 38 -41 65 -76 92 -73 55 -120 71 -218 77 l-88 6 1 -69z"/>
<path d="M2210 1590 c-9 -18 -7 -25 18 -48 24 -23 31 -39 36 -87 7 -72 -4
-135 -24 -145 -52 -24 -72 -39 -99 -74 -43 -53 -41 -88 4 -116 32 -20 39 -21
67 -9 21 9 37 26 50 56 10 24 26 43 34 43 9 0 37 -18 62 -41 26 -23 67 -53 92
-67 25 -14 83 -55 130 -91 69 -52 191 -121 215 -121 3 0 5 13 5 30 0 25 -7 33
-42 51 -24 12 -76 47 -117 78 -40 31 -101 76 -135 100 -33 24 -84 62 -112 85
-28 23 -59 46 -68 51 -15 9 -16 18 -7 75 6 36 11 87 11 114 0 46 -3 53 -46 93
-26 24 -50 43 -55 43 -5 0 -13 -9 -19 -20z m5 -391 c-9 -16 -20 -27 -25 -24
-15 9 -12 26 6 46 24 27 36 12 19 -22z"/>
<path d="M247 1493 c-9 -14 -12 -298 -4 -310 16 -26 24 -11 41 75 29 151 31
188 12 217 -16 24 -40 33 -49 18z"/>
</g>
</svg>
