<?xml version="1.0" standalone="no"?>
<!DOCTYPE svg PUBLIC "-//W3C//DTD SVG 20010904//EN"
 "http://www.w3.org/TR/2001/REC-SVG-20010904/DTD/svg10.dtd">
<svg version="1.0" xmlns="http://www.w3.org/2000/svg"
 width="361.000000pt" height="387.000000pt" viewBox="0 0 361.000000 387.000000"
 preserveAspectRatio="xMidYMid meet">
<metadata>
Created by potrace 1.16, written by Peter Selinger 2001-2019
</metadata>
<g transform="translate(0.000000,387.000000) scale(0.100000,-0.100000)"
fill="#000000" stroke="none">
<path d="M3266 2987 c-25 -21 -28 -28 -22 -58 17 -79 18 -237 2 -286 -18 -55
-36 -199 -36 -289 0 -63 -17 -94 -52 -94 -16 0 -48 -31 -48 -46 0 -6 -13 -22
-28 -37 -28 -27 -41 -31 -212 -58 -92 -14 -98 -16 -111 -41 -9 -16 -6 -25 17
-49 34 -35 40 -36 87 -3 26 17 66 30 125 40 48 8 105 19 127 24 22 5 44 5 48
1 5 -5 2 -55 -7 -112 -9 -57 -23 -149 -31 -204 -37 -239 -64 -568 -47 -579 5
-3 14 0 19 7 17 22 43 136 43 187 0 74 17 61 25 -20 7 -70 20 -95 35 -69 5 7
11 56 15 108 5 89 10 133 36 326 5 39 13 127 18 196 8 116 11 130 35 162 19
24 43 41 77 52 46 16 49 19 49 51 0 39 -14 43 -60 19 -18 -9 -31 -11 -35 -5
-3 6 5 15 19 20 14 6 37 14 51 20 20 8 25 16 25 44 l0 34 -57 -18 c-32 -10
-61 -15 -65 -12 -3 4 1 66 9 137 20 176 23 536 4 558 -17 22 -20 21 -55 -6z"/>
<path d="M1696 2840 c-41 -13 -105 -78 -117 -121 -9 -29 -8 -42 5 -67 9 -17
16 -47 16 -67 0 -46 17 -45 25 3 18 109 115 230 115 143 0 -37 -35 -149 -56
-179 -13 -19 -23 -23 -57 -20 -40 3 -43 5 -56 48 -27 89 -30 93 -47 79 -12 -9
-14 -30 -12 -88 l3 -75 -80 -17 c-44 -9 -123 -24 -175 -34 -52 -10 -124 -28
-160 -41 -44 -16 -68 -20 -75 -13 -5 5 -11 47 -12 93 -2 91 -14 151 -38 181
-28 37 -36 0 -30 -135 14 -322 30 -920 30 -1157 0 -143 3 -264 7 -268 20 -20
37 7 42 67 3 35 10 113 15 173 11 120 10 209 -9 624 l-12 275 39 33 c21 19 48
40 59 49 28 19 143 50 219 59 33 3 83 13 111 22 75 23 88 15 80 -50 -5 -41 -4
-57 7 -65 20 -17 34 2 47 65 11 49 43 94 57 80 3 -4 -5 -38 -18 -77 -28 -84
-22 -97 37 -81 22 6 61 11 87 11 53 0 69 18 48 52 -11 17 -3 28 69 98 57 57
91 82 118 88 366 90 347 87 491 82 65 -2 94 61 40 87 -35 17 -145 3 -304 -38
-211 -55 -255 -61 -255 -31 0 117 -151 243 -254 212z m154 -137 c12 -20 22
-55 23 -77 2 -39 2 -39 -46 -52 -26 -6 -49 -9 -51 -5 -3 4 1 25 9 47 8 21 14
55 15 75 0 61 18 65 50 12z m-16 -212 c3 -4 -6 -23 -19 -41 -47 -64 -110 -109
-127 -92 -25 25 50 126 102 135 14 2 28 5 32 6 4 0 9 -3 12 -8z"/>
<path d="M180 2443 c0 -25 8 -45 24 -62 32 -34 63 -125 78 -227 10 -67 9 -120
-5 -295 -10 -118 -21 -239 -27 -269 -5 -30 -14 -100 -20 -155 -7 -55 -20 -137
-31 -183 -10 -45 -19 -115 -19 -154 l0 -72 24 32 c13 18 29 54 36 80 7 26 21
71 31 100 11 29 19 70 19 91 0 21 4 62 10 90 22 116 51 455 51 596 0 228 -31
346 -114 427 -22 21 -43 38 -48 38 -5 0 -9 -17 -9 -37z"/>
<path d="M1766 2209 c-40 -10 -144 -79 -183 -120 -25 -28 -46 -94 -41 -129 5
-42 40 -32 66 20 34 69 58 97 115 135 44 30 60 35 110 35 90 0 88 -30 -12
-145 -61 -70 -70 -88 -51 -100 14 -9 145 118 181 174 33 52 36 77 10 110 -15
20 -28 24 -87 27 -38 2 -87 -1 -108 -7z"/>
<path d="M807 2131 c-44 -49 -117 -199 -117 -240 0 -48 25 -38 63 27 19 31 55
90 81 130 36 55 46 79 42 98 -9 34 -28 30 -69 -15z"/>
<path d="M1243 2005 c-3 -9 2 -23 10 -33 8 -9 18 -29 22 -44 4 -14 16 -35 26
-44 26 -24 53 -8 57 33 3 26 -4 37 -41 67 -48 39 -65 44 -74 21z"/>
<path d="M1495 1510 c-10 -11 -35 -25 -57 -30 -21 -6 -52 -24 -68 -40 -36 -36
-38 -36 -66 -9 -18 17 -26 19 -42 10 -22 -12 -27 -30 -38 -131 -4 -43 -20 -95
-46 -153 -22 -49 -42 -111 -45 -141 -5 -46 -2 -56 20 -82 24 -27 27 -28 43
-12 16 16 17 19 1 36 -26 28 -5 81 59 154 49 57 54 66 49 98 -5 28 0 44 24 80
16 25 46 60 65 79 l36 35 24 -23 c44 -42 60 -26 66 63 3 43 2 80 -1 82 -4 2
-14 -5 -24 -16z"/>
<path d="M1715 1297 c-5 -11 2 -29 17 -50 14 -17 30 -48 37 -67 23 -69 106
-126 156 -106 21 8 8 34 -28 53 -39 20 -137 112 -137 128 0 7 -9 23 -19 36
-18 22 -20 22 -26 6z"/>
</g>
</svg>
