<?xml version="1.0" standalone="no"?>
<!DOCTYPE svg PUBLIC "-//W3C//DTD SVG 20010904//EN"
 "http://www.w3.org/TR/2001/REC-SVG-20010904/DTD/svg10.dtd">
<svg version="1.0" xmlns="http://www.w3.org/2000/svg"
 width="258.000000pt" height="389.000000pt" viewBox="0 0 258.000000 389.000000"
 preserveAspectRatio="xMidYMid meet">
<metadata>
Created by potrace 1.16, written by Peter Selinger 2001-2019
</metadata>
<g transform="translate(0.000000,389.000000) scale(0.100000,-0.100000)"
fill="#000000" stroke="none">
<path d="M350 3685 c0 -19 -8 -28 -34 -39 -57 -24 -82 -93 -102 -276 -5 -48
16 -105 48 -124 20 -12 58 17 58 44 0 10 9 38 20 63 11 25 25 72 31 104 12 62
24 93 39 93 4 0 42 -42 83 -92 91 -114 205 -222 279 -266 81 -48 178 -61 261
-36 52 15 71 28 122 81 39 40 69 63 83 63 40 0 23 20 -43 52 -67 32 -156 116
-219 206 -26 38 -27 43 -15 77 21 58 7 69 -87 73 -63 2 -76 0 -66 -10 35 -35
-6 -141 -69 -173 -16 -9 -27 -20 -24 -25 11 -18 57 -10 87 15 17 14 36 24 42
22 6 -2 16 -37 21 -78 10 -69 12 -74 35 -74 23 0 25 4 28 50 2 28 7 54 11 58
5 4 32 -19 60 -52 29 -33 79 -77 112 -96 32 -20 59 -41 59 -45 0 -17 -101 -89
-141 -101 -61 -19 -160 0 -234 44 -67 39 -186 153 -244 231 -21 28 -64 78 -95
111 -52 54 -57 62 -51 92 6 31 4 33 -25 33 -25 0 -30 -4 -30 -25z m-29 -216
c-23 -117 -27 -129 -41 -129 -15 0 -21 54 -14 128 5 58 12 80 32 103 42 50 48
24 23 -102z"/>
<path d="M2172 3503 c-7 -115 -17 -239 -23 -276 -11 -71 -9 -83 14 -74 28 11
89 409 79 517 -4 36 -7 40 -31 40 l-27 0 -12 -207z"/>
<path d="M234 2419 c-3 -6 -3 -40 1 -76 6 -54 4 -68 -11 -84 -17 -19 -17 -22
5 -63 27 -49 22 -66 -20 -66 -28 0 -29 -1 -29 -52 1 -47 2 -51 13 -31 15 27
62 64 71 56 12 -12 6 -104 -9 -140 -19 -44 -12 -53 25 -31 32 18 40 15 40 -18
0 -16 -17 -32 -70 -63 -68 -41 -70 -43 -70 -82 l0 -41 38 23 c20 12 50 33 66
46 63 52 69 34 86 -252 12 -187 20 -232 42 -219 10 7 7 202 -8 432 -5 64 -3
96 5 106 7 8 45 22 85 32 71 16 75 16 111 -2 65 -32 80 -63 80 -157 -1 -84
-20 -142 -50 -153 -17 -7 -97 58 -116 92 -15 29 -39 31 -39 4 0 -33 36 -94 75
-128 88 -78 175 -11 191 147 21 196 -113 307 -295 246 -64 -22 -85 -13 -89 36
-2 19 -12 61 -22 94 -11 33 -24 105 -30 160 -14 148 -21 176 -47 186 -14 5
-25 4 -29 -2z"/>
<path d="M1394 2315 c-4 -8 2 -48 11 -88 9 -39 25 -108 35 -152 10 -44 30
-126 45 -183 16 -59 24 -107 19 -112 -9 -8 -279 -80 -302 -80 -6 0 -20 17 -31
38 -36 71 -125 131 -175 118 -65 -16 -160 -224 -116 -251 19 -11 10 -34 -17
-47 -48 -22 -42 -109 10 -155 24 -21 115 -53 152 -53 35 0 87 25 118 58 20 21
30 46 38 93 6 35 14 80 18 99 l7 35 134 37 c74 21 146 39 159 41 26 2 30 -7
50 -108 8 -40 25 -109 61 -240 23 -84 41 -175 70 -353 24 -149 22 -162 -36
-162 -28 0 -46 12 -109 71 -96 92 -139 171 -133 251 2 42 0 53 -12 53 -19 0
-40 -42 -40 -81 0 -32 78 -193 131 -270 62 -91 149 -127 219 -91 48 24 59 117
31 257 -5 25 -17 88 -27 140 -9 52 -41 192 -71 309 -29 118 -53 225 -53 236 0
27 20 45 85 79 59 30 184 141 172 152 -9 9 -16 5 -138 -77 -113 -76 -123 -81
-137 -67 -7 7 -12 27 -12 45 0 18 -6 50 -14 70 -15 39 -70 268 -82 338 -4 22
-11 46 -17 53 -13 17 -36 15 -43 -3z m-283 -576 c40 -32 48 -47 27 -53 -7 -2
-53 -16 -101 -31 -109 -34 -124 -27 -87 41 43 79 98 93 161 43z m31 -169 c-5
-69 -20 -106 -58 -140 -52 -45 -113 -41 -171 13 -28 25 -29 50 -2 93 16 27 27
34 52 34 18 1 57 12 87 25 30 14 64 24 75 22 17 -2 20 -8 17 -47z"/>
<path d="M180 1357 c0 -74 5 -88 75 -196 98 -151 246 -240 380 -229 52 4 45
20 -15 34 -26 6 -82 27 -125 47 -110 53 -188 133 -248 258 -26 53 -47 102 -47
110 0 8 -5 21 -10 29 -7 10 -10 -5 -10 -53z"/>
<path d="M2320 1007 c0 -8 3 -17 7 -21 4 -4 7 -55 5 -114 -2 -125 7 -187 28
-187 17 0 25 41 35 186 l7 106 -37 22 c-42 25 -45 25 -45 8z"/>
</g>
</svg>
