<?xml version="1.0" standalone="no"?>
<!DOCTYPE svg PUBLIC "-//W3C//DTD SVG 20010904//EN"
 "http://www.w3.org/TR/2001/REC-SVG-20010904/DTD/svg10.dtd">
<svg version="1.0" xmlns="http://www.w3.org/2000/svg"
 width="308.000000pt" height="350.000000pt" viewBox="0 0 308.000000 350.000000"
 preserveAspectRatio="xMidYMid meet">
<metadata>
Created by potrace 1.16, written by Peter Selinger 2001-2019
</metadata>
<g transform="translate(0.000000,350.000000) scale(0.100000,-0.100000)"
fill="#000000" stroke="none">
<path d="M2515 2680 c3 -5 11 -10 16 -10 6 0 7 5 4 10 -3 6 -11 10 -16 10 -6
0 -7 -4 -4 -10z"/>
<path d="M2360 2663 c-14 -9 -38 -29 -55 -44 -16 -15 -50 -37 -75 -49 -64 -32
-140 -89 -140 -106 0 -20 20 -17 84 11 31 14 70 25 87 25 29 0 30 -1 24 -32
-10 -46 -20 -55 -66 -63 -32 -6 -48 -16 -78 -54 -42 -54 -60 -98 -92 -221 -31
-120 -32 -140 -16 -180 24 -55 49 -72 119 -79 l63 -6 5 -87 c4 -66 9 -92 23
-105 17 -17 19 -17 33 2 13 16 14 38 9 117 l-7 98 57 25 c62 27 170 99 223
148 39 37 43 84 11 128 -25 36 -43 27 -54 -27 -3 -19 -22 -53 -41 -74 -39 -43
-170 -124 -186 -114 -6 4 -7 36 -3 83 6 70 10 79 42 109 26 24 34 39 30 55 -3
12 1 40 9 62 22 65 18 92 -16 110 -16 9 -30 22 -30 30 0 35 37 103 77 141 24
22 43 45 43 51 0 13 -39 63 -48 62 -4 0 -18 -7 -32 -16z m-112 -324 c6 -54
-15 -106 -53 -135 -43 -32 -68 -27 -59 13 18 77 74 168 98 160 6 -2 12 -19 14
-38z m-30 -260 c1 -19 -1 -59 -5 -89 -8 -52 -10 -55 -39 -58 -16 -2 -43 2 -58
8 -28 10 -29 12 -23 71 9 81 19 97 65 102 54 5 57 4 60 -34z"/>
<path d="M940 2643 c-61 -10 -92 -28 -134 -74 -54 -61 -94 -165 -71 -188 18
-19 45 1 45 34 0 34 55 102 102 126 28 15 63 22 101 23 54 1 61 -2 83 -29 13
-16 27 -47 30 -67 11 -65 24 -42 24 40 0 89 -9 103 -77 128 -38 13 -58 15
-103 7z"/>
<path d="M1323 2474 c-3 -9 -1 -25 5 -35 9 -13 8 -30 -4 -71 -25 -85 -121
-271 -170 -328 -25 -29 -52 -69 -60 -88 -13 -32 -13 -37 1 -51 14 -14 21 -9
71 44 31 33 65 77 75 98 11 21 27 41 35 44 9 3 43 -21 90 -62 88 -79 87 -74
18 -197 -64 -112 -124 -245 -124 -273 0 -41 18 -73 50 -90 35 -18 82 -9 160
30 61 31 182 139 199 178 8 18 21 46 28 62 l14 30 -85 83 c-47 46 -86 90 -86
99 0 45 193 293 228 293 20 0 10 34 -11 38 -27 5 -100 -60 -190 -170 -45 -54
-85 -98 -89 -98 -5 0 -30 22 -56 49 -26 27 -62 56 -79 65 -18 9 -33 22 -33 29
0 6 11 39 25 72 13 33 29 89 36 125 10 55 9 71 -4 103 -17 39 -34 47 -44 21z
m236 -663 c31 -36 51 -68 51 -83 0 -28 -123 -154 -175 -180 -49 -25 -104 -32
-111 -14 -3 9 25 77 62 152 67 134 98 184 114 184 4 0 31 -26 59 -59z"/>
<path d="M2627 2383 c-10 -9 -9 -57 2 -106 5 -23 15 -71 22 -107 13 -72 32
-110 55 -110 27 0 26 28 -1 147 -36 158 -55 200 -78 176z"/>
<path d="M1134 1736 c-3 -8 2 -38 10 -67 50 -167 -23 -460 -145 -588 -51 -53
-76 -63 -124 -50 -51 14 -69 60 -62 154 5 67 27 135 92 293 15 35 24 66 21 69
-7 7 -53 -45 -75 -87 -52 -98 -101 -236 -106 -299 -5 -61 -3 -71 27 -125 38
-68 64 -82 133 -71 95 14 229 184 284 362 35 110 57 254 47 306 -4 22 -22 54
-43 78 -38 42 -50 47 -59 25z"/>
<path d="M2083 1577 c-39 -27 -129 -135 -143 -171 -7 -19 -7 -33 0 -47 13 -24
70 -25 226 -5 152 21 238 49 293 98 37 32 51 38 80 36 33 -3 36 -6 39 -36 3
-32 4 -33 45 -30 35 2 43 7 45 26 4 28 -40 82 -81 100 -48 20 -81 14 -144 -27
-82 -53 -191 -85 -360 -105 -47 -6 -53 -5 -53 12 0 10 23 45 50 76 28 31 50
66 50 77 0 24 -7 23 -47 -4z"/>
<path d="M2260 1241 c-15 -28 -12 -137 4 -169 8 -15 23 -36 35 -46 17 -16 23
-17 36 -6 18 15 14 49 -15 104 -10 20 -21 59 -25 86 -7 53 -18 62 -35 31z"/>
</g>
</svg>
