<?xml version="1.0" standalone="no"?>
<!DOCTYPE svg PUBLIC "-//W3C//DTD SVG 20010904//EN"
 "http://www.w3.org/TR/2001/REC-SVG-20010904/DTD/svg10.dtd">
<svg version="1.0" xmlns="http://www.w3.org/2000/svg"
 width="213.000000pt" height="272.000000pt" viewBox="0 0 213.000000 272.000000"
 preserveAspectRatio="xMidYMid meet">
<metadata>
Created by potrace 1.16, written by Peter Selinger 2001-2019
</metadata>
<g transform="translate(0.000000,272.000000) scale(0.100000,-0.100000)"
fill="#000000" stroke="none">
<path d="M690 1928 c-24 -47 -53 -159 -76 -282 -7 -44 -18 -84 -24 -90 -15
-15 -78 22 -95 55 -11 21 -12 33 -2 58 10 26 9 34 -5 48 -14 13 -22 14 -42 5
-19 -8 -25 -21 -31 -60 -4 -30 -2 -58 4 -70 16 -31 79 -81 109 -88 15 -3 33
-7 40 -10 10 -3 11 -29 5 -116 -12 -169 -9 -329 5 -355 17 -30 59 -40 91 -22
31 18 25 34 -14 34 -28 0 -30 2 -34 45 -6 75 19 422 34 465 7 22 18 78 25 125
6 47 20 114 31 150 37 126 23 197 -21 108z"/>
<path d="M1020 1885 c-17 -25 -45 -75 -62 -111 -49 -105 -29 -173 58 -195 23
-6 57 -23 75 -39 l34 -28 -2 -157 c-1 -87 -6 -162 -10 -166 -5 -5 -31 14 -57
41 -52 54 -83 63 -124 34 -19 -13 -22 -24 -22 -85 0 -101 19 -89 33 21 1 8 12
16 25 18 32 5 121 -92 122 -132 0 -39 -40 -147 -57 -153 -20 -8 -50 24 -78 84
-14 29 -29 53 -34 53 -11 0 -2 -59 16 -100 22 -51 41 -69 79 -76 45 -8 78 14
102 70 26 57 37 63 59 29 62 -98 202 -223 250 -223 33 0 28 10 -23 50 -50 38
-136 139 -196 228 -43 64 -44 65 -23 250 15 130 12 196 -8 237 -19 39 -62 76
-102 86 -63 17 -85 35 -85 71 0 40 28 84 90 140 39 35 51 53 48 70 -2 19 -10
24 -40 26 -33 3 -39 -1 -68 -43z"/>
<path d="M1935 1578 c-7 -15 -26 -27 -60 -36 -149 -42 -192 -57 -210 -73 -31
-30 -8 -44 52 -30 94 22 155 41 170 52 23 20 32 -2 23 -51 -5 -25 -17 -88 -26
-140 l-16 -94 -73 -87 c-106 -125 -122 -164 -104 -248 13 -61 38 -95 90 -121
61 -32 82 -27 107 23 18 36 23 73 32 218 6 96 15 192 19 214 8 36 16 395 9
395 -2 0 -8 -10 -13 -22z m-74 -584 c-4 -142 -12 -188 -32 -192 -20 -4 -55 53
-64 100 -7 39 15 113 52 170 39 63 48 46 44 -78z"/>
</g>
</svg>
