<?xml version="1.0" standalone="no"?>
<!DOCTYPE svg PUBLIC "-//W3C//DTD SVG 20010904//EN"
 "http://www.w3.org/TR/2001/REC-SVG-20010904/DTD/svg10.dtd">
<svg version="1.0" xmlns="http://www.w3.org/2000/svg"
 width="281.000000pt" height="347.000000pt" viewBox="0 0 281.000000 347.000000"
 preserveAspectRatio="xMidYMid meet">
<metadata>
Created by potrace 1.16, written by Peter Selinger 2001-2019
</metadata>
<g transform="translate(0.000000,347.000000) scale(0.100000,-0.100000)"
fill="#000000" stroke="none">
<path d="M1589 2525 c-70 -36 -189 -172 -242 -275 -50 -97 -117 -275 -117
-312 0 -14 12 -35 26 -49 l27 -24 -7 57 c-6 50 -4 64 17 105 14 27 33 68 43
93 39 101 57 134 93 173 20 23 45 54 54 69 10 16 52 55 95 89 70 56 93 88 67
95 -5 2 -31 -8 -56 -21z"/>
<path d="M2591 2421 l-34 -28 6 -88 c4 -61 11 -93 23 -106 34 -38 39 -24 40
116 1 74 1 135 0 135 -1 0 -16 -13 -35 -29z"/>
<path d="M802 2243 c-7 -12 -6 -47 1 -101 8 -60 8 -85 0 -93 -16 -16 -33 -2
-33 27 0 34 -17 30 -34 -8 -12 -30 -12 -35 8 -56 14 -16 29 -22 44 -19 31 6
40 -14 48 -110 l7 -80 -56 -32 c-57 -32 -67 -46 -67 -86 0 -35 14 -38 40 -10
13 14 28 25 33 25 6 0 18 7 28 16 10 9 23 13 28 9 20 -12 12 -52 -13 -68 -23
-16 -38 -47 -70 -154 -18 -59 -21 -159 -5 -168 23 -15 60 6 75 41 17 40 12 53
-11 34 -28 -23 -30 0 -5 71 40 119 59 105 76 -53 6 -62 20 -167 30 -232 l17
-119 -26 -23 c-35 -30 -132 -66 -181 -68 -34 -1 -41 2 -47 24 -4 14 -8 149 -8
300 -1 317 -22 605 -45 628 -18 19 -46 9 -46 -17 0 -10 7 -55 16 -98 11 -58
17 -179 23 -480 7 -377 9 -404 27 -424 14 -16 27 -20 54 -16 31 4 249 100 290
127 8 6 43 24 77 41 45 22 63 37 63 50 0 24 -7 24 -72 -1 -29 -11 -58 -20 -65
-20 -28 0 -34 33 -63 324 -13 122 -6 144 32 109 13 -11 33 -26 45 -32 12 -6
24 -24 28 -41 7 -34 21 -39 30 -11 13 41 -19 83 -91 119 -53 27 -67 59 -58
139 7 65 13 76 54 88 38 12 102 57 93 66 -8 7 -44 2 -125 -19 -46 -12 -53 -5
-64 63 -12 73 -6 106 27 141 35 36 28 49 -13 28 -17 -9 -33 -13 -36 -9 -4 3
-7 48 -8 98 -1 85 -3 92 -22 95 -12 2 -25 -4 -30 -15z"/>
<path d="M1527 1884 c-3 -3 -43 -7 -89 -8 -69 -1 -83 -4 -86 -18 -2 -12 8 -20
39 -28 37 -10 50 -9 98 10 31 12 66 24 79 27 12 3 22 9 22 14 0 10 -53 12 -63
3z"/>
<path d="M1280 1553 c3 -365 10 -473 28 -481 26 -10 44 28 36 78 -4 25 -8 160
-9 300 -1 211 -4 264 -19 308 -32 99 -38 66 -36 -205z"/>
<path d="M1617 1723 c-21 -35 -47 -349 -47 -559 0 -123 18 -272 36 -301 16
-26 42 -30 50 -9 3 8 -3 27 -13 42 -16 25 -18 51 -17 269 1 132 7 296 13 365
10 123 7 200 -10 200 -4 0 -10 -3 -12 -7z"/>
</g>
</svg>
