<?xml version="1.0" standalone="no"?>
<!DOCTYPE svg PUBLIC "-//W3C//DTD SVG 20010904//EN"
 "http://www.w3.org/TR/2001/REC-SVG-20010904/DTD/svg10.dtd">
<svg version="1.0" xmlns="http://www.w3.org/2000/svg"
 width="223.000000pt" height="310.000000pt" viewBox="0 0 223.000000 310.000000"
 preserveAspectRatio="xMidYMid meet">
<metadata>
Created by potrace 1.16, written by Peter Selinger 2001-2019
</metadata>
<g transform="translate(0.000000,310.000000) scale(0.100000,-0.100000)"
fill="#000000" stroke="none">
<path d="M836 2229 c-41 -43 -52 -63 -67 -122 -11 -39 -19 -98 -19 -132 0 -56
-3 -64 -30 -88 -32 -29 -37 -46 -19 -64 6 -6 9 -15 6 -20 -9 -14 -167 -15
-200 -2 -23 10 -31 9 -44 -3 -31 -32 20 -78 85 -78 18 0 37 -11 55 -31 25 -28
31 -31 65 -25 93 17 163 23 194 17 36 -8 38 -20 16 -89 -7 -24 -7 -37 1 -45
19 -19 49 20 56 74 7 51 21 71 31 45 8 -21 20 -20 28 1 4 10 -2 25 -14 38 -15
16 -20 33 -18 56 3 30 7 34 73 56 80 27 109 48 81 59 -10 4 -42 1 -72 -6 -30
-7 -57 -10 -61 -7 -3 4 3 39 15 79 27 95 37 164 24 172 -12 7 -29 -12 -33 -39
-3 -12 -26 -32 -61 -50 -31 -16 -65 -38 -75 -47 -29 -26 -53 -23 -53 7 0 30
25 126 39 154 6 11 11 30 11 44 0 13 11 34 25 47 24 22 34 50 18 50 -5 0 -30
-23 -57 -51z m120 -251 c-4 -13 -14 -48 -22 -78 -9 -30 -19 -58 -22 -62 -4 -4
-41 -14 -82 -22 -109 -23 -121 3 -32 69 22 16 63 49 92 73 58 47 76 53 66 20z
m-60 -219 c10 -18 -13 -32 -40 -25 -32 8 -34 23 -3 29 12 2 25 5 29 6 4 0 10
-4 14 -10z"/>
<path d="M1321 2037 c-6 -8 -17 -31 -25 -53 -26 -73 -117 -269 -141 -304 -33
-49 -38 -73 -20 -96 16 -19 16 -19 28 1 21 35 96 102 129 116 29 12 32 11 54
-14 36 -42 44 -87 33 -187 -10 -105 -22 -162 -51 -247 -23 -70 -29 -73 -102
-48 -24 8 -50 13 -58 11 -7 -2 -25 -7 -40 -10 -20 -5 -33 -18 -49 -54 -18 -40
-22 -67 -23 -179 l-1 -132 34 -35 c45 -47 71 -46 109 2 44 56 98 166 126 255
3 9 12 17 19 17 24 0 145 -48 226 -90 42 -22 99 -44 126 -50 28 -6 63 -13 79
-17 66 -14 11 22 -189 122 -115 59 -213 109 -217 113 -7 7 1 38 45 187 31 102
42 223 26 294 -16 74 -72 131 -129 131 -47 0 -50 12 -20 68 17 32 70 188 70
206 0 11 -27 6 -39 -7z m-107 -892 c15 -8 35 -15 42 -15 28 0 26 -29 -7 -112
-44 -109 -88 -190 -103 -185 -6 2 -21 23 -34 48 -20 38 -23 55 -20 136 3 81 7
96 28 118 27 29 53 31 94 10z"/>
<path d="M2036 2012 c-4 -12 -18 -30 -32 -38 -22 -15 -26 -15 -50 1 -31 20
-43 12 -79 -50 -19 -32 -23 -47 -16 -70 6 -26 12 -30 42 -30 31 0 34 2 31 28
-4 36 13 57 45 57 13 0 33 5 43 10 20 11 35 64 28 97 -4 16 -5 15 -12 -5z"/>
<path d="M2032 1809 c-7 -23 -24 -56 -37 -73 -14 -18 -28 -50 -33 -71 -7 -35
-15 -44 -70 -75 -52 -29 -102 -81 -102 -105 0 -14 45 -1 87 25 26 17 52 30 59
30 6 0 22 9 35 19 14 10 36 21 49 23 23 3 25 8 28 56 2 43 -1 57 -15 68 -17
13 -17 15 0 28 14 11 17 25 15 66 l-3 51 -13 -42z"/>
<path d="M2005 1501 c-21 -23 -48 -41 -60 -41 -27 -1 -106 -41 -118 -61 -6 -9
-7 -24 -3 -34 5 -14 14 -16 47 -11 23 4 51 13 62 21 31 22 47 19 84 -17 l33
-32 0 46 c0 28 -6 50 -15 58 -19 16 -19 37 1 48 10 5 14 19 12 36 l-3 27 -40
-40z"/>
<path d="M902 1503 c-42 -21 -92 -79 -124 -145 -26 -55 -88 -335 -88 -398 0
-41 33 -100 55 -100 17 0 45 56 45 88 0 31 21 44 41 26 31 -28 38 -9 32 80 -3
46 -3 99 1 119 6 31 10 35 33 34 24 -2 29 4 46 51 32 85 43 67 42 -65 -1 -111
-13 -205 -37 -298 -12 -46 -25 -65 -44 -65 -8 0 -14 6 -14 13 0 26 -21 87 -30
87 -6 0 -10 -24 -10 -52 0 -41 6 -60 24 -83 21 -26 26 -28 47 -18 43 20 92
145 109 276 5 40 10 136 10 215 0 159 -7 183 -63 226 -40 30 -34 30 -75 9z
m53 -83 c0 -20 -6 -26 -30 -28 -16 -2 -34 -8 -39 -12 -11 -11 -30 -61 -57
-150 -51 -169 -62 -200 -70 -200 -11 0 -11 -2 1 100 13 111 61 230 114 282 46
45 81 49 81 8z"/>
<path d="M2040 832 c0 -18 -104 -140 -178 -209 -42 -39 -74 -75 -69 -79 14
-14 66 20 161 106 l95 85 1 53 c0 28 -2 52 -5 52 -3 0 -5 -4 -5 -8z"/>
</g>
</svg>
