<?xml version="1.0" standalone="no"?>
<!DOCTYPE svg PUBLIC "-//W3C//DTD SVG 20010904//EN"
 "http://www.w3.org/TR/2001/REC-SVG-20010904/DTD/svg10.dtd">
<svg version="1.0" xmlns="http://www.w3.org/2000/svg"
 width="289.000000pt" height="397.000000pt" viewBox="0 0 289.000000 397.000000"
 preserveAspectRatio="xMidYMid meet">
<metadata>
Created by potrace 1.16, written by Peter Selinger 2001-2019
</metadata>
<g transform="translate(0.000000,397.000000) scale(0.100000,-0.100000)"
fill="#000000" stroke="none">
<path d="M2294 3015 c-3 -8 9 -36 28 -62 37 -51 38 -53 144 -266 l68 -139 -46
-41 c-47 -43 -52 -51 -174 -276 -108 -200 -128 -310 -67 -367 22 -21 36 -24
95 -24 61 0 77 4 134 36 65 36 114 84 114 110 0 22 -19 54 -31 54 -6 0 -30
-20 -54 -44 -52 -54 -112 -86 -160 -86 -45 0 -60 30 -45 95 17 76 180 387 237
453 l32 37 63 -62 c35 -35 67 -63 71 -63 4 0 7 18 7 41 0 31 -8 50 -34 82 -53
65 -54 85 -7 142 31 38 41 58 41 85 l-1 35 -60 -65 -61 -64 -18 24 c-11 14
-33 53 -50 87 -66 136 -178 293 -208 293 -7 0 -15 -7 -18 -15z"/>
<path d="M1156 2922 c-3 -5 24 -37 60 -73 36 -35 91 -98 121 -139 31 -41 90
-112 130 -156 40 -45 73 -89 73 -98 0 -9 -15 -40 -33 -69 -73 -116 -104 -176
-128 -244 -21 -62 -14 -98 23 -126 24 -18 31 -18 80 -7 29 7 87 28 128 46 41
18 78 30 82 28 16 -10 -38 -86 -80 -112 -23 -15 -83 -61 -133 -102 -67 -55
-89 -79 -87 -95 4 -28 32 -29 134 -5 139 33 240 69 269 96 34 31 30 64 -9 77
-24 8 -32 6 -45 -10 -21 -26 -75 -63 -93 -63 -7 0 -26 -7 -42 -15 -16 -9 -31
-13 -34 -10 -3 2 40 48 94 102 55 54 112 115 128 136 28 37 28 38 10 58 -32
35 -50 40 -86 25 -60 -26 -213 -83 -241 -90 -40 -9 -44 13 -13 78 14 30 26 57
26 60 0 3 17 34 38 68 21 35 43 75 50 91 6 15 17 27 24 27 6 0 36 -17 65 -37
44 -30 65 -38 114 -41 79 -6 99 12 128 116 18 62 20 83 12 106 -16 40 -35 20
-51 -54 -16 -75 -45 -105 -93 -97 -42 7 -129 67 -123 84 6 15 113 147 174 214
24 26 53 49 65 51 14 2 23 11 25 26 4 29 -19 37 -55 18 -36 -19 -178 -158
-223 -219 -19 -26 -39 -47 -45 -47 -5 0 -50 49 -100 107 -205 243 -313 337
-339 295z"/>
<path d="M668 2858 c-18 -23 -49 -72 -68 -109 -49 -94 -105 -187 -139 -234
-16 -22 -44 -70 -62 -107 -40 -84 -59 -104 -88 -88 -22 11 -81 5 -113 -12 -12
-6 -18 -20 -18 -43 0 -39 4 -41 46 -21 45 21 94 28 94 13 0 -7 -5 -18 -12 -25
-6 -6 -8 -15 -4 -19 9 -10 35 23 93 117 25 41 69 109 98 150 29 41 79 112 110
158 32 47 68 87 81 93 26 9 64 83 64 123 0 24 -17 46 -36 46 -7 0 -27 -19 -46
-42z"/>
<path d="M180 2567 c0 -140 8 -164 29 -83 16 64 14 104 -9 166 l-19 55 -1
-138z"/>
<path d="M550 2378 c-12 -26 -20 -65 -20 -100 0 -50 3 -59 27 -76 l27 -20 -19
-41 c-10 -23 -25 -47 -33 -54 -23 -18 -82 -148 -82 -179 0 -47 27 -51 119 -18
65 24 89 28 114 22 30 -8 32 -11 31 -55 0 -51 -20 -86 -67 -121 -21 -15 -30
-17 -39 -8 -14 14 -28 16 -28 2 0 -21 63 -80 85 -80 42 0 113 112 129 202 6
33 3 42 -30 77 -48 54 -88 61 -161 31 -30 -12 -57 -20 -60 -17 -3 3 8 28 23
54 16 26 49 88 74 137 l44 89 -23 18 c-13 11 -34 19 -47 19 -34 0 -45 29 -38
99 4 34 4 61 0 61 -4 0 -16 -19 -26 -42z"/>
<path d="M351 2024 c-39 -35 -57 -45 -74 -41 -12 3 -39 10 -59 15 l-38 10 0
-39 c0 -26 4 -39 14 -39 7 0 19 -7 26 -15 11 -13 9 -20 -14 -44 -24 -25 -27
-35 -24 -86 l3 -57 90 112 c50 61 105 130 123 152 32 40 38 68 16 75 -6 2 -34
-17 -63 -43z"/>
<path d="M1710 1775 c-16 -20 -7 -259 11 -281 13 -16 55 -19 64 -5 3 5 1 29
-5 53 -5 24 -16 85 -24 137 -16 101 -25 121 -46 96z"/>
<path d="M180 1100 c0 -28 2 -30 38 -30 20 0 84 -4 142 -10 58 -5 168 -14 245
-20 77 -6 194 -15 260 -20 66 -6 203 -15 305 -20 190 -10 418 -27 710 -54 91
-9 196 -16 234 -16 39 0 95 -4 125 -10 31 -5 117 -15 191 -21 74 -6 168 -14
208 -18 l72 -7 0 32 c0 40 -14 45 -145 50 -55 2 -143 9 -195 14 -52 6 -207 19
-345 30 -137 11 -297 25 -355 30 -58 6 -181 15 -275 20 -93 5 -217 14 -275 20
-58 5 -193 14 -300 20 -107 6 -242 15 -300 20 -58 5 -158 12 -222 15 l-118 6
0 -31z"/>
</g>
</svg>
