<?xml version="1.0" standalone="no"?>
<!DOCTYPE svg PUBLIC "-//W3C//DTD SVG 20010904//EN"
 "http://www.w3.org/TR/2001/REC-SVG-20010904/DTD/svg10.dtd">
<svg version="1.0" xmlns="http://www.w3.org/2000/svg"
 width="218.000000pt" height="372.000000pt" viewBox="0 0 218.000000 372.000000"
 preserveAspectRatio="xMidYMid meet">
<metadata>
Created by potrace 1.16, written by Peter Selinger 2001-2019
</metadata>
<g transform="translate(0.000000,372.000000) scale(0.100000,-0.100000)"
fill="#000000" stroke="none">
<path d="M356 3500 c-34 -51 -91 -81 -140 -73 -35 5 -36 5 -36 -25 0 -24 5
-31 25 -36 31 -8 33 -24 3 -28 -19 -2 -24 -10 -26 -41 l-3 -39 33 7 c18 4 92
27 163 52 72 24 193 64 270 89 77 25 163 53 190 64 28 10 84 29 125 42 l75 23
-102 3 c-100 3 -106 2 -275 -53 -95 -31 -204 -68 -241 -82 -37 -14 -71 -23
-74 -19 -3 3 12 25 35 50 22 24 48 58 56 75 l17 31 -34 0 c-29 0 -39 -6 -61
-40z"/>
<path d="M1958 3533 c6 -2 18 -2 25 0 6 3 1 5 -13 5 -14 0 -19 -2 -12 -5z"/>
<path d="M1165 2573 c-33 -8 -83 -63 -153 -166 -95 -142 -170 -229 -219 -252
-23 -11 -52 -30 -65 -42 -13 -12 -44 -31 -70 -43 -26 -11 -50 -25 -53 -30 -4
-6 1 -25 10 -43 10 -17 32 -61 50 -97 44 -85 89 -139 105 -124 9 9 5 24 -14
62 -16 31 -22 53 -16 57 18 11 78 -15 94 -40 17 -26 82 -59 97 -49 5 3 9 20
10 37 2 60 13 78 64 107 28 15 53 26 58 23 22 -14 -16 -186 -59 -260 -24 -41
-73 -88 -82 -78 -3 2 11 26 32 51 33 44 47 84 28 84 -4 0 -32 -25 -62 -56 -30
-30 -76 -71 -103 -91 -57 -42 -74 -68 -56 -89 46 -56 210 49 296 189 52 85 74
152 80 244 6 82 6 82 -27 120 -45 51 -104 82 -161 83 -25 0 -49 3 -52 6 -7 7
118 149 258 292 76 79 79 84 61 98 -11 7 -22 13 -25 13 -3 -1 -15 -3 -26 -6z
m-280 -548 l0 -70 -45 2 c-126 4 -141 8 -163 42 l-20 33 24 19 c31 24 55 24
62 -1 8 -30 35 -25 39 7 3 29 31 43 78 40 23 -2 24 -5 25 -72z m150 55 c17
-19 17 -21 -1 -41 -20 -22 -66 -49 -84 -49 -13 0 -13 39 1 79 9 25 17 31 38
31 16 0 36 -9 46 -20z m-140 -194 c0 -5 -8 -14 -17 -20 -20 -12 -45 5 -33 24
8 13 50 10 50 -4z"/>
<path d="M1939 2516 c-72 -16 -134 -52 -187 -110 -40 -44 -102 -163 -102 -195
1 -16 23 -51 32 -51 6 0 40 78 62 141 9 25 31 60 49 77 34 33 144 82 184 82
20 0 23 5 23 35 0 19 -1 35 -2 34 -2 -1 -28 -7 -59 -13z"/>
<path d="M532 2448 c-34 -34 -2 -57 127 -93 70 -20 103 -24 129 -18 18 4 34
13 34 18 0 6 -33 19 -73 31 -41 12 -99 33 -129 48 -62 29 -71 31 -88 14z"/>
<path d="M237 2308 c-51 -68 -57 -90 -57 -214 0 -65 2 -115 5 -112 3 3 12 46
19 96 16 103 50 174 97 201 35 19 36 25 7 45 -32 23 -44 20 -71 -16z"/>
<path d="M1961 2121 c-19 -14 -66 -44 -105 -66 -50 -29 -71 -46 -71 -60 0 -31
32 -30 100 5 83 42 117 78 113 118 l-3 30 -34 -27z"/>
<path d="M1655 2090 c-3 -5 -1 -10 4 -10 6 0 11 5 11 10 0 6 -2 10 -4 10 -3 0
-8 -4 -11 -10z"/>
<path d="M1590 2025 c-13 -16 -11 -41 13 -150 19 -83 34 -212 47 -390 12 -161
39 -378 51 -396 11 -19 18 -8 20 32 4 82 -17 589 -27 672 -7 54 -48 219 -59
237 -9 15 -31 12 -45 -5z"/>
<path d="M1969 1960 c-15 -21 -52 -52 -83 -70 -31 -17 -70 -43 -86 -57 -27
-22 -29 -29 -24 -66 9 -58 20 -66 37 -25 18 43 21 45 71 49 l39 4 -2 -115 c-2
-129 14 -182 57 -188 19 -3 22 1 22 31 0 23 -6 37 -16 41 -15 6 -16 19 -10
113 4 58 11 127 17 153 5 26 9 74 7 107 l-3 60 -26 -37z"/>
<path d="M431 1904 c-75 -86 -110 -191 -111 -335 0 -65 12 -106 51 -169 32
-52 29 -66 -10 -46 -62 33 -130 160 -160 301 l-19 90 -1 -111 c-1 -62 4 -126
11 -145 33 -96 133 -189 204 -189 18 0 45 -17 88 -57 69 -65 197 -126 218
-105 8 8 1 16 -28 29 -55 25 -173 120 -187 150 -10 22 -8 27 12 43 32 24 19
46 -14 24 -34 -22 -47 -14 -68 42 -10 27 -26 66 -34 86 -18 42 -13 101 14 203
14 53 25 69 91 132 63 61 73 75 62 88 -7 8 -27 15 -45 15 -27 0 -41 -9 -74
-46z"/>
<path d="M181 1914 c0 -11 3 -14 6 -6 3 7 2 16 -1 19 -3 4 -6 -2 -5 -13z"/>
<path d="M936 1509 c-67 -61 -116 -143 -116 -192 0 -20 7 -60 15 -89 45 -164
55 -192 69 -206 12 -12 19 -13 27 -5 13 13 -16 155 -45 225 -13 31 -14 43 -2
87 32 122 121 186 187 132 23 -19 23 -20 4 -26 -80 -25 -163 -90 -152 -119 8
-20 36 -21 44 -1 8 22 103 69 115 57 5 -5 -5 -64 -27 -148 -41 -162 -43 -201
-13 -239 18 -24 26 -27 60 -22 49 7 106 49 113 85 4 15 11 46 17 70 21 85 -14
254 -71 337 -31 46 -92 89 -138 98 -28 6 -39 0 -87 -44z m225 -226 c21 -71 16
-230 -8 -254 -6 -6 -26 -9 -44 -7 l-34 3 3 70 c1 39 9 90 16 115 8 25 17 62
21 83 8 51 30 47 46 -10z"/>
<path d="M1897 1023 c-18 -17 -5 -45 28 -59 58 -24 75 -19 75 20 0 30 -4 34
-31 40 -41 8 -64 8 -72 -1z"/>
</g>
</svg>
