<?xml version="1.0" standalone="no"?>
<!DOCTYPE svg PUBLIC "-//W3C//DTD SVG 20010904//EN"
 "http://www.w3.org/TR/2001/REC-SVG-20010904/DTD/svg10.dtd">
<svg version="1.0" xmlns="http://www.w3.org/2000/svg"
 width="250.000000pt" height="345.000000pt" viewBox="0 0 250.000000 345.000000"
 preserveAspectRatio="xMidYMid meet">
<metadata>
Created by potrace 1.16, written by Peter Selinger 2001-2019
</metadata>
<g transform="translate(0.000000,345.000000) scale(0.100000,-0.100000)"
fill="#000000" stroke="none">
<path d="M2074 2529 c-17 -19 -19 -38 -19 -192 l0 -171 -92 -41 c-108 -47
-122 -57 -103 -80 19 -23 52 -18 124 20 47 25 68 31 71 23 2 -7 6 -70 10 -140
7 -139 6 -143 -54 -218 -37 -45 -89 -122 -131 -193 -24 -41 -60 -164 -60 -206
0 -14 14 -62 32 -106 43 -106 94 -159 170 -174 50 -11 59 -10 91 9 37 22 51
55 50 125 0 131 -6 288 -14 380 -17 186 -15 237 15 288 14 24 26 52 26 62 0
17 -1 17 -20 0 -11 -10 -23 -16 -26 -13 -3 3 -7 56 -9 117 -5 128 -11 117 103
201 82 59 68 78 -24 31 -36 -18 -68 -30 -72 -26 -4 3 -11 77 -17 162 -6 94
-14 158 -21 160 -6 2 -19 -6 -30 -18z m1 -866 c1 -21 8 -114 16 -208 17 -217
18 -340 2 -356 -19 -19 -99 18 -135 62 -36 45 -68 132 -68 186 0 42 9 66 78
213 36 76 90 155 100 146 2 -3 6 -22 7 -43z"/>
<path d="M187 2523 c-4 -3 -7 -45 -7 -92 l1 -86 34 79 c27 60 32 82 24 93 -12
14 -41 18 -52 6z"/>
<path d="M729 2379 c-9 -18 -7 -25 14 -48 25 -25 89 -171 102 -230 7 -34 30
-58 40 -42 3 6 -1 58 -10 117 -16 111 -45 172 -97 209 -29 20 -35 19 -49 -6z"/>
<path d="M1013 2387 c-50 -19 -62 -35 -38 -53 11 -8 29 -12 40 -9 43 14 162
17 183 6 29 -16 62 -82 62 -125 0 -61 -14 -82 -63 -94 -24 -7 -75 -25 -112
-42 -37 -16 -75 -30 -85 -30 -10 0 -23 -7 -30 -15 -16 -20 3 -45 35 -45 32 0
131 36 164 60 44 31 54 26 48 -20 -3 -22 -2 -42 3 -45 16 -10 42 36 76 134
l35 102 -21 63 c-20 62 -43 92 -87 115 -28 14 -169 13 -210 -2z"/>
<path d="M923 2193 c-7 -18 6 -34 42 -48 25 -11 53 -12 136 -3 114 11 142 21
137 46 -3 15 -21 17 -157 17 -110 0 -155 -3 -158 -12z"/>
<path d="M315 2170 c-22 -4 -61 -11 -87 -14 -47 -7 -48 -8 -48 -42 0 -30 3
-34 23 -30 12 3 45 10 72 15 28 6 82 12 120 13 l70 3 -2 -42 c-1 -23 -11 -63
-22 -89 -42 -94 15 -76 60 19 42 90 39 136 -12 162 -30 16 -107 18 -174 5z"/>
<path d="M180 1908 c0 -34 2 -59 4 -57 16 17 63 108 59 113 -4 3 -19 6 -35 6
-28 0 -28 -1 -28 -62z"/>
<path d="M1127 1914 c-16 -13 -41 -24 -57 -24 -25 0 -38 -12 -87 -76 -159
-210 -241 -364 -194 -364 5 0 27 28 50 63 44 68 84 108 146 149 78 52 130 63
93 21 -42 -48 -118 -254 -118 -320 0 -51 70 -85 100 -48 14 17 5 36 -15 29 -8
-4 -18 1 -21 10 -10 25 35 170 76 251 20 38 39 80 42 92 9 34 28 37 113 18 68
-15 82 -23 125 -66 39 -38 53 -63 74 -127 48 -143 53 -308 10 -339 -10 -7 -35
-13 -56 -13 -31 0 -38 -4 -38 -20 0 -49 106 -51 153 -2 14 15 31 40 36 55 28
73 -3 290 -57 405 -27 58 -93 116 -167 147 -50 21 -197 31 -249 16 -22 -6 -42
-8 -44 -6 -3 2 21 32 52 65 60 66 80 96 68 103 -4 3 -20 -6 -35 -19z"/>
<path d="M255 1830 c-11 -18 5 -29 73 -49 167 -50 222 -49 174 2 -39 41 -228
77 -247 47z"/>
<path d="M245 1640 c-3 -5 -17 -10 -31 -10 -30 0 -36 -14 -32 -71 l3 -44 59
57 c32 31 55 61 52 67 -9 14 -43 14 -51 1z"/>
<path d="M1187 1493 c-9 -14 -12 -298 -4 -310 16 -26 24 -11 41 75 29 151 31
188 12 217 -16 24 -40 33 -49 18z"/>
<path d="M200 1401 c0 -4 40 -19 89 -34 77 -24 104 -27 193 -25 94 3 103 5
103 22 0 13 -10 22 -30 28 -38 10 -355 18 -355 9z"/>
<path d="M267 1229 c-10 -6 -31 -8 -46 -4 -36 8 -49 -10 -27 -34 20 -22 20
-35 1 -51 -11 -9 -15 -35 -15 -106 0 -77 3 -94 15 -94 11 0 15 12 15 45 0 26
9 63 20 86 12 22 18 48 15 59 -4 12 3 25 21 39 33 26 58 27 94 1 32 -23 48
-77 52 -184 3 -80 7 -76 -102 -101 -83 -20 -97 -27 -78 -42 28 -22 83 -24 123
-3 22 11 41 20 42 20 2 0 8 -12 14 -27 6 -16 13 -23 19 -17 15 15 32 93 40
184 6 73 5 92 -12 132 -23 54 -50 81 -97 97 -42 14 -70 14 -94 0z"/>
<path d="M2273 1198 c-44 -19 -52 -35 -31 -56 17 -17 67 -15 74 2 3 8 4 27 2
43 l-3 29 -42 -18z"/>
</g>
</svg>
