<?xml version="1.0" standalone="no"?>
<!DOCTYPE svg PUBLIC "-//W3C//DTD SVG 20010904//EN"
 "http://www.w3.org/TR/2001/REC-SVG-20010904/DTD/svg10.dtd">
<svg version="1.0" xmlns="http://www.w3.org/2000/svg"
 width="274.000000pt" height="288.000000pt" viewBox="0 0 274.000000 288.000000"
 preserveAspectRatio="xMidYMid meet">
<metadata>
Created by potrace 1.16, written by Peter Selinger 2001-2019
</metadata>
<g transform="translate(0.000000,288.000000) scale(0.100000,-0.100000)"
fill="#000000" stroke="none">
<path d="M1028 2533 c-9 -2 -23 -15 -32 -27 -19 -29 -78 -185 -96 -251 -18
-70 -41 -92 -101 -97 -29 -3 -58 -13 -67 -22 -16 -16 -15 -19 8 -37 18 -15 35
-20 70 -17 36 2 44 0 41 -12 -2 -8 -6 -43 -8 -78 -6 -63 -14 -79 -33 -67 -8 5
-7 11 1 21 18 21 -9 18 -49 -6 -49 -30 -34 -62 39 -84 14 -4 15 -11 7 -49 -12
-56 -7 -159 8 -164 13 -4 37 54 29 68 -3 4 2 40 11 78 l16 71 73 35 c44 21 88
52 112 78 49 53 107 137 99 144 -3 3 -38 -25 -78 -62 -80 -74 -164 -123 -181
-106 -7 7 -3 35 13 90 22 79 24 82 104 153 44 39 100 85 124 102 43 30 55 56
26 56 -8 0 -55 -28 -104 -62 -49 -34 -92 -59 -96 -56 -10 11 55 189 82 225 37
48 28 88 -18 76z"/>
<path d="M1519 2412 c-31 -13 -67 -68 -114 -172 -26 -58 -50 -109 -54 -115
-30 -40 -116 -409 -121 -517 0 -5 -4 -8 -9 -8 -15 0 -50 85 -60 147 -23 140
-60 153 -61 20 0 -88 58 -175 119 -179 31 -3 35 0 41 27 4 17 18 73 30 125 26
112 41 140 75 140 37 0 189 180 169 200 -6 6 -28 -9 -59 -40 -27 -28 -57 -50
-66 -50 -9 0 -22 -7 -29 -15 -24 -29 -31 1 -12 46 26 59 55 83 131 111 70 25
108 62 75 75 -9 3 -39 -1 -66 -11 -27 -9 -53 -14 -58 -11 -13 8 32 95 81 158
22 27 38 55 36 61 -4 14 -26 17 -48 8z"/>
<path d="M2378 2046 c-47 -59 -70 -108 -75 -165 -8 -76 -16 -89 -80 -118 -60
-28 -74 -47 -51 -70 13 -13 19 -13 52 1 46 19 50 13 44 -87 -3 -69 -7 -79 -52
-146 -63 -94 -102 -173 -121 -241 -8 -30 -23 -80 -34 -110 -26 -72 -26 -100 2
-141 55 -81 141 -28 199 124 37 97 58 200 58 292 0 50 5 109 10 132 10 43 56
121 108 182 25 29 31 32 48 21 14 -8 26 -9 47 -1 23 9 27 16 27 47 0 35 -1 36
-18 21 -20 -18 -42 -22 -42 -9 0 5 14 21 30 37 17 17 30 39 30 53 0 24 -1 24
-18 9 -39 -35 -44 -12 -7 31 15 19 25 42 25 62 l0 33 -29 -39 c-66 -86 -76
-97 -105 -115 -17 -10 -42 -19 -55 -19 -21 0 -23 3 -17 32 4 18 15 49 25 68
10 19 21 54 24 77 4 23 10 48 13 57 10 27 -10 18 -38 -18z m77 -246 c10 -16
-96 -160 -117 -160 -4 0 -8 22 -8 50 0 48 2 51 48 85 49 36 67 42 77 25z
m-185 -405 c0 -19 -7 -81 -16 -137 -26 -164 -98 -301 -144 -273 -18 11 -11
103 15 178 39 117 116 267 136 267 5 0 9 -16 9 -35z"/>
<path d="M1477 1814 c-10 -11 11 -44 88 -135 40 -47 78 -95 84 -107 13 -25 36
-29 45 -7 8 22 -18 75 -63 130 -23 27 -41 53 -41 57 0 10 -61 55 -86 62 -11 3
-23 3 -27 0z"/>
<path d="M2551 1554 c0 -11 3 -14 6 -6 3 7 2 16 -1 19 -3 4 -6 -2 -5 -13z"/>
<path d="M1325 1477 c-94 -31 -145 -76 -145 -127 0 -36 14 -46 75 -54 41 -5
60 -1 105 20 63 29 82 43 75 55 -3 4 -35 -3 -70 -17 -77 -28 -113 -31 -122 -7
-15 40 87 83 198 83 65 0 87 -12 94 -54 8 -43 -33 -149 -87 -226 -105 -150
-131 -169 -233 -178 -59 -4 -62 -3 -88 28 -32 38 -36 95 -11 176 10 28 14 60
10 69 -6 16 -8 17 -24 1 -10 -8 -29 -37 -41 -62 -20 -39 -23 -57 -19 -115 7
-99 38 -143 111 -159 93 -21 208 18 252 86 10 16 42 61 71 101 69 92 118 227
104 287 -5 22 -22 53 -39 70 -28 28 -38 31 -103 33 -41 2 -91 -3 -113 -10z"/>
<path d="M2495 1387 c-51 -29 -55 -61 -8 -65 49 -5 73 13 73 53 0 41 -10 43
-65 12z"/>
<path d="M1100 1352 c0 -14 39 -46 47 -38 4 4 2 15 -3 24 -12 19 -44 29 -44
14z"/>
</g>
</svg>
