<?xml version="1.0" standalone="no"?>
<!DOCTYPE svg PUBLIC "-//W3C//DTD SVG 20010904//EN"
 "http://www.w3.org/TR/2001/REC-SVG-20010904/DTD/svg10.dtd">
<svg version="1.0" xmlns="http://www.w3.org/2000/svg"
 width="228.000000pt" height="315.000000pt" viewBox="0 0 228.000000 315.000000"
 preserveAspectRatio="xMidYMid meet">
<metadata>
Created by potrace 1.16, written by Peter Selinger 2001-2019
</metadata>
<g transform="translate(0.000000,315.000000) scale(0.100000,-0.100000)"
fill="#000000" stroke="none">
<path d="M900 2588 c-25 -12 -81 -57 -125 -101 -44 -43 -102 -93 -129 -110
-41 -26 -53 -41 -68 -82 -9 -27 -17 -73 -18 -102 0 -44 4 -56 29 -81 62 -61
146 -81 208 -48 48 24 155 147 201 230 56 103 66 131 66 193 1 55 -2 65 -28
92 -36 38 -72 40 -136 9z m115 -103 c0 -54 -6 -70 -55 -159 -31 -56 -76 -120
-103 -147 -76 -75 -160 -87 -211 -30 -23 26 -31 101 -13 125 14 19 16 19 41 2
33 -21 101 -19 101 4 0 9 -11 16 -30 18 -48 5 -52 19 -18 54 18 18 36 42 40
53 12 31 94 102 144 125 24 11 58 19 74 18 30 -3 30 -4 30 -63z"/>
<path d="M964 2029 c-10 -12 -44 -38 -74 -59 -30 -21 -92 -67 -138 -103 -45
-36 -110 -80 -145 -97 -104 -51 -152 -85 -152 -106 0 -32 52 -30 105 4 25 16
66 41 91 55 55 31 324 259 339 286 22 42 6 55 -26 20z"/>
<path d="M957 1887 c-16 -22 -38 -84 -66 -192 -59 -226 -61 -239 -68 -348 -5
-93 2 -127 27 -127 4 0 10 44 12 98 3 71 13 124 35 197 17 55 34 116 38 135 4
19 18 68 30 108 29 89 41 162 27 162 -5 0 -21 -15 -35 -33z"/>
<path d="M1132 1598 c-7 -7 -12 -17 -12 -24 0 -7 -12 -35 -27 -64 -14 -28 -29
-70 -33 -93 -4 -23 -11 -50 -15 -61 -12 -27 26 -17 40 11 6 11 17 28 24 37 12
14 50 161 51 194 0 15 -12 16 -28 0z"/>
<path d="M773 1500 c-34 -18 -95 -86 -117 -129 -22 -43 -37 -152 -26 -191 12
-43 88 -119 149 -151 79 -41 181 -22 317 59 81 48 177 131 153 132 -9 0 -27
-8 -40 -19 -13 -10 -60 -37 -104 -60 -159 -82 -301 -80 -380 5 -21 23 -25 36
-25 92 0 60 4 71 44 136 44 72 76 131 76 141 0 8 -12 4 -47 -15z"/>
</g>
</svg>
