<?xml version="1.0" standalone="no"?>
<!DOCTYPE svg PUBLIC "-//W3C//DTD SVG 20010904//EN"
 "http://www.w3.org/TR/2001/REC-SVG-20010904/DTD/svg10.dtd">
<svg version="1.0" xmlns="http://www.w3.org/2000/svg"
 width="259.000000pt" height="386.000000pt" viewBox="0 0 259.000000 386.000000"
 preserveAspectRatio="xMidYMid meet">
<metadata>
Created by potrace 1.16, written by Peter Selinger 2001-2019
</metadata>
<g transform="translate(0.000000,386.000000) scale(0.100000,-0.100000)"
fill="#000000" stroke="none">
<path d="M198 3668 c9 -9 15 -9 24 0 9 9 7 12 -12 12 -19 0 -21 -3 -12 -12z"/>
<path d="M1112 3663 c7 -35 80 -45 233 -33 171 14 217 21 223 38 3 9 -47 12
-228 12 -213 0 -231 -1 -228 -17z"/>
<path d="M310 3610 c-30 -11 -72 -19 -92 -19 -31 -1 -38 -5 -38 -21 0 -33 41
-34 116 -4 77 30 96 42 88 55 -6 11 -7 11 -74 -11z"/>
<path d="M912 2624 c-29 -20 -28 -35 7 -68 25 -24 33 -26 62 -19 46 12 50 42
9 77 -37 30 -47 32 -78 10z"/>
<path d="M1148 2573 c-19 -22 -38 -57 -48 -92 -5 -14 -29 -75 -54 -136 -46
-110 -88 -164 -127 -165 -9 0 -22 -7 -29 -16 -11 -12 -11 -18 2 -30 13 -13 27
-14 89 -6 41 6 98 13 128 17 l54 6 -6 -38 c-4 -21 -19 -83 -35 -137 -21 -74
-35 -105 -53 -118 -20 -16 -150 -51 -304 -84 -48 -11 -53 -33 -10 -47 33 -11
152 5 208 28 66 26 77 28 77 8 0 -10 -25 -67 -55 -128 -31 -63 -51 -113 -46
-118 12 -12 27 -2 44 31 66 125 122 221 142 241 13 14 82 55 152 92 119 62
128 69 131 98 3 30 -10 42 -23 21 -3 -5 -34 -23 -68 -39 -35 -17 -80 -41 -100
-55 -21 -15 -40 -26 -42 -26 -13 0 0 67 34 170 l38 115 59 18 c32 10 65 20 72
23 7 2 10 9 6 15 -6 11 -49 8 -107 -6 -28 -8 -28 -7 -21 31 3 22 13 50 21 64
12 22 12 30 -2 63 -30 71 -65 32 -80 -88 -10 -87 -14 -91 -91 -98 -89 -9 -108
5 -64 44 16 15 30 36 30 46 0 10 6 27 13 38 8 11 21 43 31 70 9 28 32 76 52
107 29 47 33 61 24 78 -13 25 -22 25 -42 3z"/>
<path d="M2054 2525 c-4 -9 8 -58 25 -110 29 -87 31 -103 32 -242 0 -159 7
-224 25 -230 14 -5 28 172 28 343 -1 114 -2 124 -32 187 -24 51 -36 67 -52 67
-11 0 -23 -7 -26 -15z"/>
<path d="M724 2296 c-18 -14 -18 -15 -1 -33 17 -17 19 -17 37 7 29 38 5 55
-36 26z"/>
<path d="M2385 2180 c-11 -4 -34 -36 -51 -71 -109 -222 -110 -223 -134 -229
-23 -5 -25 -11 -25 -57 0 -52 -23 -93 -51 -93 -7 0 -22 -14 -34 -30 -30 -42
-50 -25 -50 40 0 72 -18 153 -38 168 -26 20 -63 6 -104 -40 -67 -72 -37 -125
32 -57 18 19 35 28 40 23 5 -5 11 -77 14 -159 8 -248 33 -403 72 -446 10 -12
30 -19 51 -19 30 0 37 6 71 60 20 32 41 58 47 56 5 -1 18 -25 28 -52 22 -58
31 -71 70 -91 22 -11 32 -12 41 -3 8 8 2 17 -21 36 -40 31 -52 70 -60 194 -5
79 -3 101 11 128 30 59 60 166 57 207 -3 44 -22 65 -58 65 -32 0 -40 26 -16
58 11 15 30 49 43 77 13 27 39 66 57 86 32 35 34 42 31 97 -3 55 -5 59 -23 52z
m-77 -448 c4 -26 -42 -132 -57 -132 -16 0 -14 133 1 148 20 20 53 10 56 -16z
m-118 -99 c0 -21 5 -56 10 -77 12 -54 -1 -76 -46 -76 -40 0 -94 44 -94 77 0
34 25 68 65 90 57 31 65 29 65 -14z m17 -210 c4 -13 -81 -156 -94 -160 -7 -3
-17 6 -22 19 -16 41 -34 135 -27 146 7 12 139 8 143 -5z"/>
<path d="M182 2127 c2 -18 10 -23 47 -25 56 -4 52 18 -8 35 -41 12 -42 11 -39
-10z"/>
<path d="M1424 1810 c-45 -29 -85 -84 -137 -189 -54 -109 -60 -150 -22 -175
21 -14 23 -20 15 -36 -5 -10 -10 -26 -10 -34 0 -46 108 -83 152 -52 24 17 64
21 72 8 9 -16 -39 -94 -68 -109 -26 -13 -33 -13 -73 2 -82 32 -149 108 -165
189 -4 23 -15 84 -24 136 -20 114 -31 147 -45 133 -14 -14 -13 -186 0 -212 6
-11 11 -29 11 -40 0 -44 44 -136 87 -182 58 -62 127 -92 191 -83 66 8 130 68
177 165 19 39 40 78 46 85 7 9 10 48 7 112 -3 86 -7 104 -33 147 -32 55 -122
155 -139 155 -6 0 -25 -9 -42 -20z m101 -109 c17 -29 39 -58 48 -63 23 -12 22
-28 -2 -28 -10 0 -35 -11 -56 -25 -62 -43 -196 -107 -211 -101 -44 17 21 163
104 231 30 25 62 45 70 43 9 -2 30 -27 47 -57z m62 -176 c-12 -119 -54 -154
-187 -158 -61 -2 -65 -1 -68 21 -5 31 11 48 72 78 28 13 78 44 111 68 33 25
64 45 69 45 5 1 6 -24 3 -54z"/>
</g>
</svg>
