<?xml version="1.0" standalone="no"?>
<!DOCTYPE svg PUBLIC "-//W3C//DTD SVG 20010904//EN"
 "http://www.w3.org/TR/2001/REC-SVG-20010904/DTD/svg10.dtd">
<svg version="1.0" xmlns="http://www.w3.org/2000/svg"
 width="335.000000pt" height="401.000000pt" viewBox="0 0 335.000000 401.000000"
 preserveAspectRatio="xMidYMid meet">
<metadata>
Created by potrace 1.16, written by Peter Selinger 2001-2019
</metadata>
<g transform="translate(0.000000,401.000000) scale(0.100000,-0.100000)"
fill="#000000" stroke="none">
<path d="M1252 2538 c-6 -6 -12 -22 -12 -34 0 -29 -16 -39 -36 -23 -9 7 -18 8
-23 3 -20 -21 -71 -223 -71 -282 0 -12 -5 -22 -11 -22 -7 0 -8 23 -3 69 4 46
2 75 -6 90 -9 18 -9 26 3 39 9 9 19 29 22 45 10 40 -16 35 -68 -11 -23 -21
-68 -58 -99 -81 -32 -23 -58 -43 -58 -46 0 -14 21 -55 28 -55 5 0 27 16 51 36
23 20 45 34 48 31 9 -10 -30 -111 -53 -136 -27 -29 -54 -22 -54 13 0 65 -44
22 -56 -54 -6 -40 -16 -54 -95 -130 -77 -75 -87 -88 -82 -113 3 -15 9 -30 14
-33 5 -3 34 22 65 55 31 34 61 61 68 61 7 0 12 -37 13 -116 3 -128 16 -168 55
-162 25 4 37 28 14 28 -26 0 -36 34 -31 111 7 123 16 172 42 217 22 39 73 82
98 82 6 0 9 -48 7 -129 -3 -124 -3 -130 18 -141 16 -9 25 -9 36 1 17 14 19 79
3 79 -12 0 -6 133 8 188 8 34 20 26 26 -19 10 -74 57 -91 78 -29 6 16 15 30
20 30 21 0 3 -481 -20 -543 -9 -24 -58 -43 -73 -29 -4 4 2 32 12 62 31 92 35
129 15 136 -42 16 -194 -94 -249 -180 -50 -79 -83 -147 -91 -187 -5 -29 -2
-38 23 -62 17 -16 32 -24 36 -19 11 18 66 190 66 207 0 21 131 158 141 148 11
-11 -22 -116 -43 -140 -8 -10 -18 -31 -22 -46 -4 -16 -45 -109 -91 -207 -47
-99 -85 -182 -85 -185 0 -3 -16 -29 -35 -58 -34 -50 -41 -79 -29 -111 9 -24
20 -20 87 31 67 50 118 70 212 82 48 7 78 4 155 -15 118 -30 158 -46 226 -89
55 -36 78 -42 88 -26 10 16 -99 106 -175 144 -133 66 -315 84 -416 42 -50 -21
-56 -19 -48 12 9 38 114 247 157 314 48 74 67 88 128 98 30 5 59 16 65 24 18
25 36 404 25 517 -14 140 -12 294 5 390 18 103 18 102 2 123 -10 14 -15 15
-25 5z m-36 -205 c-3 -42 -6 -99 -6 -128 0 -38 -6 -60 -21 -79 -11 -14 -24
-24 -28 -22 -12 8 8 197 26 254 25 75 37 65 29 -25z"/>
<path d="M3120 2319 c-24 -52 -66 -133 -92 -181 -26 -48 -68 -140 -93 -205
-25 -65 -61 -154 -79 -198 -19 -44 -37 -90 -40 -102 -4 -11 -18 -28 -31 -37
-28 -19 -31 -33 -12 -69 11 -20 13 -73 9 -232 -3 -178 -2 -209 12 -230 26 -40
36 -29 36 39 0 35 5 123 11 196 9 102 8 150 -1 205 l-12 71 31 46 c18 26 40
72 51 102 10 30 34 88 54 128 19 40 56 120 81 178 26 58 56 119 68 135 48 66
58 98 55 175 l-3 74 -45 -95z"/>
<path d="M3035 1776 c-39 -17 -105 -90 -105 -116 0 -12 11 -43 25 -70 14 -27
25 -56 25 -65 0 -8 7 -15 15 -15 10 0 15 10 15 33 0 39 33 133 56 158 12 13
31 19 61 19 43 0 43 0 43 35 l0 35 -52 0 c-29 -1 -66 -7 -83 -14z"/>
<path d="M196 1361 c-18 -33 -22 -106 -6 -96 13 8 39 65 42 94 4 35 -19 37
-36 2z"/>
<path d="M2959 1335 c-26 -8 -52 -21 -59 -30 -18 -21 -3 -74 25 -87 20 -9 28
-6 59 25 23 24 50 39 78 44 37 7 43 12 43 33 0 23 -4 25 -50 27 -27 1 -71 -4
-96 -12z"/>
<path d="M2914 1085 c-10 -25 2 -42 48 -63 48 -22 151 -34 186 -21 15 6 22 17
22 36 l0 28 -77 0 c-55 0 -88 5 -112 18 -42 21 -60 22 -67 2z"/>
<path d="M336 876 c-38 -42 -56 -44 -113 -11 l-43 24 0 -29 c0 -33 38 -60 85
-60 27 0 108 58 119 85 11 30 -16 25 -48 -9z"/>
</g>
</svg>
