<?xml version="1.0" standalone="no"?>
<!DOCTYPE svg PUBLIC "-//W3C//DTD SVG 20010904//EN"
 "http://www.w3.org/TR/2001/REC-SVG-20010904/DTD/svg10.dtd">
<svg version="1.0" xmlns="http://www.w3.org/2000/svg"
 width="198.000000pt" height="315.000000pt" viewBox="0 0 198.000000 315.000000"
 preserveAspectRatio="xMidYMid meet">
<metadata>
Created by potrace 1.16, written by Peter Selinger 2001-2019
</metadata>
<g transform="translate(0.000000,315.000000) scale(0.100000,-0.100000)"
fill="#000000" stroke="none">
<path d="M1132 2233 c-23 -9 -69 -88 -97 -168 -18 -52 -38 -89 -57 -106 l-29
-26 -4 -266 c-3 -146 -9 -317 -15 -379 -13 -147 -13 -375 0 -383 14 -9 30 38
30 88 0 23 4 60 9 82 5 22 12 93 15 157 4 65 10 128 15 142 5 13 10 66 11 117
5 244 21 409 50 499 45 139 78 191 99 153 24 -46 33 -191 26 -440 l-7 -251
-38 -37 c-67 -65 -71 -34 -18 127 33 103 34 134 7 167 -16 20 -24 23 -37 14
-22 -13 -28 -43 -8 -43 23 0 27 -14 12 -56 -21 -59 -47 -176 -53 -238 -9 -88
28 -113 82 -56 16 17 32 30 37 30 4 0 8 -67 8 -148 0 -109 4 -153 13 -167 8
-10 19 -15 24 -12 13 8 23 111 27 273 2 66 8 129 13 140 6 10 8 39 4 64 -3 25
-3 133 0 240 7 201 -2 357 -23 407 -14 34 -58 83 -72 82 -6 0 -17 -3 -24 -6z"/>
<path d="M599 1774 c-8 -9 -25 -37 -39 -63 -16 -29 -34 -47 -50 -51 -21 -5
-26 -13 -32 -55 -13 -104 -9 -171 13 -199 11 -14 27 -26 35 -26 8 0 30 -16 50
-35 48 -48 85 -48 130 2 32 35 43 61 66 158 17 71 20 146 8 191 -10 35 -21 48
-56 69 -49 29 -105 33 -125 9z m77 -52 c40 -32 57 -79 50 -141 -12 -105 -26
-156 -51 -186 -24 -28 -26 -29 -39 -12 -26 33 -28 83 -6 126 41 80 16 85 -29
6 -34 -60 -56 -66 -40 -12 5 17 9 49 9 69 0 59 48 168 74 168 6 0 21 -8 32
-18z"/>
<path d="M1770 1548 c-101 -44 -111 -50 -108 -72 4 -28 38 -32 94 -9 41 17 44
21 44 56 0 20 -1 37 -2 36 -2 0 -14 -5 -28 -11z"/>
<path d="M1772 1238 c-31 -167 -20 -320 19 -281 5 5 8 94 7 209 l-3 199 -23
-127z"/>
</g>
</svg>
