<?xml version="1.0" standalone="no"?>
<!DOCTYPE svg PUBLIC "-//W3C//DTD SVG 20010904//EN"
 "http://www.w3.org/TR/2001/REC-SVG-20010904/DTD/svg10.dtd">
<svg version="1.0" xmlns="http://www.w3.org/2000/svg"
 width="252.000000pt" height="310.000000pt" viewBox="0 0 252.000000 310.000000"
 preserveAspectRatio="xMidYMid meet">
<metadata>
Created by potrace 1.16, written by Peter Selinger 2001-2019
</metadata>
<g transform="translate(0.000000,310.000000) scale(0.100000,-0.100000)"
fill="#000000" stroke="none">
<path d="M1295 2487 c-14 -30 -25 -59 -25 -66 0 -6 -18 -66 -41 -134 -65 -199
-57 -256 33 -228 24 8 66 14 93 15 45 1 50 -1 53 -21 2 -13 -6 -36 -17 -52
-12 -16 -21 -33 -21 -38 0 -5 -13 -29 -28 -54 -22 -33 -45 -52 -93 -76 -35
-18 -82 -49 -104 -70 -21 -21 -48 -38 -59 -38 -25 0 -43 -59 -25 -81 13 -16
49 -19 49 -4 0 33 183 170 227 170 21 0 66 -43 76 -73 11 -29 -23 -34 -44 -6
-16 22 -19 22 -36 7 -10 -9 -31 -42 -46 -72 -16 -31 -37 -61 -48 -66 -15 -8
-19 -22 -19 -58 0 -53 -19 -162 -49 -272 -29 -111 -35 -171 -18 -194 19 -26
37 -12 37 30 0 41 19 124 29 124 3 0 16 -21 28 -48 12 -26 45 -73 73 -104 50
-57 53 -58 103 -58 40 0 63 7 98 29 43 27 48 36 74 111 18 55 23 86 17 92 -15
15 -25 6 -73 -68 -68 -102 -113 -117 -170 -57 -42 45 -119 174 -119 200 0 21
54 129 77 155 9 10 23 18 31 18 21 0 72 59 93 108 37 86 12 217 -46 244 -33
15 -32 30 10 85 19 25 35 53 35 62 0 9 7 25 15 35 22 29 18 60 -11 87 -21 20
-36 24 -82 24 -31 0 -70 -2 -87 -5 -29 -5 -30 -4 -28 32 1 21 13 59 26 85 14
26 28 64 32 83 4 19 21 61 37 94 l29 58 -22 24 c-12 13 -26 24 -30 24 -5 0
-20 -24 -34 -53z m108 -835 c-11 -29 -46 -71 -55 -66 -8 5 13 55 34 81 14 17
29 6 21 -15z"/>
<path d="M776 1980 c-23 -22 -64 -78 -91 -125 -26 -47 -53 -85 -59 -85 -23 0
-53 -45 -60 -88 -16 -107 50 -294 95 -267 13 9 7 53 -15 114 -18 47 -19 166
-1 166 6 0 12 -22 15 -50 6 -64 23 -64 31 0 7 60 35 158 56 200 23 46 84 105
109 105 52 0 84 -71 84 -188 0 -86 -28 -201 -59 -239 -38 -47 -45 -25 -15 42
36 77 43 139 19 165 -34 38 -102 13 -107 -39 -4 -30 18 -39 25 -11 4 16 12 21
29 18 33 -4 26 -42 -28 -157 -46 -97 -52 -129 -32 -149 49 -49 170 78 208 217
22 83 30 205 16 265 -16 67 -37 101 -79 126 -51 32 -91 26 -141 -20z"/>
<path d="M2164 906 c-18 -14 -18 -16 -2 -32 17 -18 80 -33 141 -34 37 0 37 0
37 40 l0 40 -78 0 c-52 0 -85 -5 -98 -14z"/>
</g>
</svg>
