<?xml version="1.0" standalone="no"?>
<!DOCTYPE svg PUBLIC "-//W3C//DTD SVG 20010904//EN"
 "http://www.w3.org/TR/2001/REC-SVG-20010904/DTD/svg10.dtd">
<svg version="1.0" xmlns="http://www.w3.org/2000/svg"
 width="291.000000pt" height="386.000000pt" viewBox="0 0 291.000000 386.000000"
 preserveAspectRatio="xMidYMid meet">
<metadata>
Created by potrace 1.16, written by Peter Selinger 2001-2019
</metadata>
<g transform="translate(0.000000,386.000000) scale(0.100000,-0.100000)"
fill="#000000" stroke="none">
<path d="M1185 2547 c-45 -45 -72 -138 -91 -312 -19 -172 -17 -170 -146 -180
-57 -5 -106 -14 -128 -26 -19 -10 -48 -23 -63 -28 -42 -16 -23 -31 20 -16 24
8 83 12 158 11 113 -1 120 -2 118 -21 -1 -11 -9 -65 -17 -120 -31 -208 -46
-375 -46 -520 0 -82 3 -160 6 -173 10 -37 29 -19 30 29 4 131 27 343 68 634
25 173 23 171 136 209 79 26 134 73 147 124 9 39 -4 36 -49 -11 -24 -26 -56
-48 -73 -52 -17 -3 -46 -10 -65 -15 -21 -6 -38 -6 -44 0 -9 9 -1 84 26 245 6
33 13 78 15 100 3 22 13 49 23 60 9 11 20 29 24 40 7 19 9 18 31 -9 12 -15 25
-24 28 -19 7 11 -49 83 -65 83 -5 0 -25 -15 -43 -33z"/>
<path d="M1704 2291 c-52 -23 -124 -99 -154 -159 -13 -26 -32 -59 -43 -74 -18
-25 -17 -48 3 -48 5 0 31 30 59 68 121 163 144 184 185 169 40 -16 11 -271
-49 -432 -51 -137 -51 -137 -120 -89 -31 21 -77 53 -102 71 -46 32 -63 34 -63
9 0 -20 104 -121 143 -140 20 -9 39 -21 42 -26 9 -14 -18 -58 -79 -130 -58
-68 -65 -80 -43 -80 14 0 134 122 152 154 10 18 15 16 70 -26 33 -25 82 -57
108 -72 26 -14 61 -36 78 -48 21 -16 32 -19 40 -11 7 7 -18 35 -88 95 -54 46
-110 93 -125 102 -34 22 -35 40 -6 86 85 139 143 397 114 509 -14 56 -40 91
-65 91 -9 0 -34 -9 -57 -19z"/>
<path d="M181 2080 l1 -45 11 33 c7 24 7 36 -1 44 -9 9 -12 1 -11 -32z"/>
<path d="M1115 1732 c-5 -5 60 -65 104 -94 32 -22 90 -23 138 -3 46 20 38 27
-34 30 -42 2 -78 12 -130 37 -40 19 -75 33 -78 30z"/>
<path d="M800 1605 c-82 -8 -105 -13 -105 -25 0 -22 78 -25 153 -5 59 16 82
29 65 37 -5 2 -55 -1 -113 -7z"/>
<path d="M2382 1428 c-16 -16 -15 -39 2 -63 8 -13 16 -66 20 -144 7 -132 11
-150 30 -131 16 15 22 301 7 329 -13 23 -41 27 -59 9z"/>
<path d="M193 1333 c-17 -6 -16 -33 1 -33 17 0 38 24 29 33 -7 8 -12 8 -30 0z"/>
</g>
</svg>
