<?xml version="1.0" standalone="no"?>
<!DOCTYPE svg PUBLIC "-//W3C//DTD SVG 20010904//EN"
 "http://www.w3.org/TR/2001/REC-SVG-20010904/DTD/svg10.dtd">
<svg version="1.0" xmlns="http://www.w3.org/2000/svg"
 width="293.000000pt" height="390.000000pt" viewBox="0 0 293.000000 390.000000"
 preserveAspectRatio="xMidYMid meet">
<metadata>
Created by potrace 1.16, written by Peter Selinger 2001-2019
</metadata>
<g transform="translate(0.000000,390.000000) scale(0.100000,-0.100000)"
fill="#000000" stroke="none">
<path d="M1691 3563 c-27 -87 -47 -161 -42 -166 12 -12 44 32 73 98 50 116 88
210 88 218 0 4 -15 7 -34 7 l-35 0 -50 -157z"/>
<path d="M2680 2413 c-8 -3 -23 -13 -33 -21 -18 -16 -60 -138 -72 -212 l-7
-45 22 20 c12 11 37 50 56 87 20 39 48 78 69 94 39 29 45 58 16 74 -21 11 -28
11 -51 3z"/>
<path d="M1800 2318 c-43 -22 -49 -31 -130 -191 -47 -92 -97 -179 -111 -193
-21 -21 -41 -27 -104 -35 -100 -13 -258 -51 -322 -79 -63 -27 -106 -69 -101
-101 5 -35 34 -35 83 0 66 47 314 115 358 98 14 -5 12 -15 -16 -74 -51 -106
-138 -264 -169 -307 -15 -21 -28 -42 -28 -46 0 -3 -31 -61 -70 -129 -73 -126
-79 -141 -57 -141 13 0 57 54 110 134 17 28 37 51 43 53 15 5 29 -94 49 -347
18 -229 25 -272 43 -278 26 -8 34 52 29 226 -2 95 -2 174 2 176 4 3 31 -4 61
-14 46 -15 68 -16 135 -9 43 5 95 17 115 27 44 21 47 48 5 45 -125 -7 -246 -3
-284 9 l-45 14 -12 84 c-7 47 -17 98 -23 113 -18 47 -13 74 26 134 20 32 54
92 75 133 22 41 50 94 65 118 27 47 112 119 146 126 12 3 65 12 117 22 114 21
170 43 198 79 20 25 30 65 17 65 -3 0 -23 -11 -44 -25 -27 -18 -71 -32 -142
-44 -57 -11 -117 -22 -133 -26 -28 -8 -29 -7 -22 21 9 35 117 224 162 283 29
37 39 63 33 86 -4 15 -19 13 -59 -7z"/>
<path d="M2675 2001 c-33 -16 -100 -39 -150 -51 -49 -12 -100 -28 -112 -36
-26 -17 -30 -46 -8 -64 25 -21 134 6 268 68 77 35 77 35 77 74 0 21 -3 38 -7
38 -5 -1 -35 -14 -68 -29z"/>
<path d="M2725 1800 c-11 -5 -39 -6 -61 -3 -48 6 -84 -10 -84 -36 0 -38 25
-45 100 -31 l70 13 0 34 c0 18 -1 33 -2 32 -2 0 -12 -4 -23 -9z"/>
<path d="M2625 1621 c-94 -23 -112 -31 -124 -53 -20 -35 -1 -60 43 -56 26 3
31 0 29 -17 -27 -246 -28 -400 -3 -516 12 -52 23 -109 27 -126 3 -18 12 -38
19 -44 27 -22 32 30 18 186 -11 115 -11 183 -3 290 15 207 28 249 90 283 23
13 29 24 29 50 0 17 -3 31 -7 31 -5 -1 -57 -13 -118 -28z"/>
<path d="M1568 1599 c-24 -13 -25 -77 -2 -86 9 -3 37 1 63 10 98 34 193 -13
221 -110 23 -82 32 -220 26 -413 -4 -107 -8 -206 -9 -220 -1 -19 3 -26 21 -28
51 -7 70 124 61 418 -5 160 -10 207 -27 260 -24 74 -74 139 -126 164 -39 18
-199 22 -228 5z"/>
<path d="M1629 1401 c-101 -26 -147 -63 -119 -96 18 -21 38 -19 126 16 88 35
114 54 114 81 0 23 -30 23 -121 -1z"/>
</g>
</svg>
