<?xml version="1.0" standalone="no"?>
<!DOCTYPE svg PUBLIC "-//W3C//DTD SVG 20010904//EN"
 "http://www.w3.org/TR/2001/REC-SVG-20010904/DTD/svg10.dtd">
<svg version="1.0" xmlns="http://www.w3.org/2000/svg"
 width="249.000000pt" height="372.000000pt" viewBox="0 0 249.000000 372.000000"
 preserveAspectRatio="xMidYMid meet">
<metadata>
Created by potrace 1.16, written by Peter Selinger 2001-2019
</metadata>
<g transform="translate(0.000000,372.000000) scale(0.100000,-0.100000)"
fill="#000000" stroke="none">
<path d="M1119 2764 c-35 -10 -62 -30 -112 -84 -37 -38 -76 -89 -88 -112 -12
-24 -30 -55 -40 -70 -11 -14 -19 -36 -19 -48 0 -12 -5 -30 -10 -41 -10 -18
-12 -18 -35 -3 -23 15 -25 15 -32 -2 -12 -28 -8 -704 3 -739 7 -20 18 -31 33
-33 21 -3 22 -1 17 25 -17 77 -14 293 8 528 10 108 33 139 63 85 10 -17 39
-61 66 -97 26 -36 47 -71 47 -77 0 -14 -46 -52 -99 -81 -37 -21 -40 -40 -6
-40 14 0 21 -8 23 -27 2 -16 6 -28 9 -28 3 0 34 29 70 65 61 62 67 65 112 65
35 0 59 8 94 30 26 16 52 28 59 26 7 -3 37 -7 66 -11 47 -5 53 -4 50 11 -2 9
-25 29 -51 43 -66 35 -58 57 12 35 17 -5 22 -4 17 5 -14 23 -75 39 -138 37
-54 -1 -70 -6 -107 -34 -50 -36 -71 -40 -93 -14 -25 28 -68 127 -68 155 0 21
-9 31 -40 47 -45 23 -46 19 13 135 43 84 119 172 164 191 47 20 110 17 147 -6
31 -19 83 -88 105 -140 6 -14 20 -65 31 -115 11 -49 24 -106 29 -125 11 -43
26 -145 47 -320 19 -157 21 -389 4 -479 -8 -48 -8 -66 0 -75 28 -27 55 68 66
235 7 116 -35 520 -77 739 -33 173 -104 289 -204 336 -57 27 -72 28 -136 8z"/>
<path d="M2262 2743 c-5 -10 -15 -81 -22 -158 -6 -77 -20 -219 -31 -315 -18
-167 -20 -176 -45 -197 l-27 -21 22 -35 c14 -22 21 -51 21 -83 1 -74 15 -134
38 -156 31 -31 42 -15 25 34 -8 25 -15 77 -14 122 0 86 15 116 58 116 19 0 23
5 23 34 0 30 -2 33 -25 28 -35 -6 -39 13 -19 104 9 44 18 114 19 156 2 42 5
80 8 85 2 4 8 67 12 138 6 123 5 132 -13 149 -20 17 -21 17 -30 -1z"/>
<path d="M180 2401 c0 -25 6 -27 13 -6 4 8 2 17 -3 20 -6 4 -10 -3 -10 -14z"/>
<path d="M1016 2362 c-10 -16 17 -29 44 -21 21 6 22 7 5 8 -12 1 -26 6 -32 12
-7 7 -13 7 -17 1z"/>
<path d="M1130 2340 c0 -5 5 -10 10 -10 6 0 10 5 10 10 0 6 -4 10 -10 10 -5 0
-10 -4 -10 -10z"/>
<path d="M2230 1579 c-30 -5 -116 -8 -190 -7 -119 3 -135 1 -138 -14 -2 -9 7
-27 19 -39 20 -20 28 -21 113 -15 128 9 254 23 266 31 14 9 12 55 -2 54 -7 -1
-38 -5 -68 -10z"/>
<path d="M2240 557 c-42 -20 -49 -31 -103 -137 -32 -63 -72 -141 -88 -173 -16
-31 -29 -59 -29 -62 0 -3 12 -5 28 -5 23 1 31 9 55 58 49 103 95 179 151 252
76 98 73 109 -14 67z"/>
<path d="M569 495 c-63 -34 -146 -172 -158 -262 -7 -50 -7 -53 15 -53 17 0 21
4 17 20 -3 11 -1 26 4 33 6 6 18 35 27 64 15 44 27 59 78 98 71 53 106 58 137
19 12 -15 21 -37 21 -49 0 -23 -28 -113 -40 -130 -4 -5 -11 -20 -14 -32 -6
-20 -4 -23 17 -23 17 0 28 8 36 28 18 43 41 140 41 171 0 38 -38 92 -80 113
-43 21 -67 22 -101 3z"/>
<path d="M541 199 l-23 -19 31 0 c20 0 31 5 31 14 0 24 -14 25 -39 5z"/>
<path d="M2235 195 l-40 -13 58 -1 c44 -1 57 2 57 14 0 18 -21 18 -75 0z"/>
</g>
</svg>
