<?xml version="1.0" standalone="no"?>
<!DOCTYPE svg PUBLIC "-//W3C//DTD SVG 20010904//EN"
 "http://www.w3.org/TR/2001/REC-SVG-20010904/DTD/svg10.dtd">
<svg version="1.0" xmlns="http://www.w3.org/2000/svg"
 width="300.000000pt" height="378.000000pt" viewBox="0 0 300.000000 378.000000"
 preserveAspectRatio="xMidYMid meet">
<metadata>
Created by potrace 1.16, written by Peter Selinger 2001-2019
</metadata>
<g transform="translate(0.000000,378.000000) scale(0.100000,-0.100000)"
fill="#000000" stroke="none">
<path d="M180 3418 c0 -217 16 -700 30 -918 5 -85 15 -265 20 -400 12 -274 28
-641 35 -770 2 -47 7 -152 10 -235 3 -82 10 -188 15 -235 6 -47 15 -198 20
-335 5 -138 13 -272 16 -298 7 -45 8 -47 40 -47 19 0 34 5 34 11 0 7 -7 134
-15 283 -29 546 -51 1031 -60 1351 -3 105 -8 211 -11 236 -7 58 2 64 91 73 68
7 330 50 490 81 110 21 305 71 390 100 39 13 126 40 195 61 69 21 236 75 372
120 136 45 249 80 252 77 2 -3 -17 -33 -43 -67 -27 -33 -58 -79 -69 -101 -32
-63 -71 -94 -133 -105 -129 -22 -207 -72 -247 -159 -23 -49 -27 -75 -33 -211
-9 -192 -19 -262 -69 -470 -22 -91 -47 -199 -55 -241 -10 -47 -29 -98 -49
-132 -20 -33 -36 -74 -39 -103 -3 -27 -13 -83 -21 -124 -14 -66 -14 -76 -1
-90 19 -18 44 -5 62 31 13 28 93 355 93 382 0 59 95 237 126 237 32 0 6 -113
-42 -182 -16 -23 -24 -46 -22 -65 3 -24 7 -28 33 -28 28 0 31 4 57 75 14 41
29 102 33 135 4 33 12 66 17 72 33 41 38 -58 8 -157 -28 -95 -66 -157 -111
-186 -42 -26 -48 -44 -24 -64 12 -10 21 -10 41 -1 15 6 41 9 59 5 27 -5 35 -2
44 14 10 20 43 34 171 73 104 32 260 96 282 116 27 24 22 58 -13 88 -36 30
-53 28 -57 -6 -2 -13 -11 -32 -20 -42 -22 -25 -170 -98 -177 -88 -3 5 10 28
29 50 19 23 42 63 51 91 18 53 55 90 133 129 34 17 43 27 40 44 -3 19 -8 21
-38 19 -83 -9 -95 -7 -91 8 11 36 12 219 2 239 -17 31 -55 27 -85 -10 -31 -36
-26 -52 10 -39 14 6 30 7 36 4 14 -9 5 -85 -21 -171 -21 -72 -23 -73 -90 -117
-38 -24 -72 -49 -75 -55 -13 -21 -26 0 -26 43 0 54 -18 72 -89 87 -42 9 -58 8
-77 -2 -13 -7 -26 -10 -29 -7 -3 2 2 43 11 89 26 137 36 220 36 289 -1 93 17
209 38 251 36 70 150 149 217 149 29 0 28 -7 -23 -121 -19 -42 -34 -80 -34
-85 0 -11 -54 -144 -80 -200 -11 -22 -20 -45 -20 -50 0 -6 -14 -31 -30 -57
-52 -82 -60 -177 -16 -177 16 0 51 58 91 150 42 95 110 184 192 248 39 32 96
77 128 101 49 39 56 49 53 75 -3 30 -7 34 -114 112 l-29 22 24 48 c51 102 181
255 269 316 46 32 53 61 20 82 -16 10 -67 -8 -330 -115 -26 -10 -58 -19 -73
-19 -14 0 -40 -7 -57 -16 -36 -19 -235 -88 -318 -111 -30 -8 -93 -27 -140 -43
-264 -88 -428 -129 -825 -206 -71 -14 -156 -37 -188 -52 -42 -19 -60 -23 -68
-15 -8 8 -14 114 -20 305 -5 161 -13 374 -18 473 -6 99 -13 279 -16 400 -4
121 -9 230 -12 243 -4 17 -12 22 -39 22 l-34 0 0 -182z m1831 -1217 l23 -18
-36 -44 c-19 -24 -43 -58 -51 -75 -18 -35 -44 -60 -54 -50 -12 12 69 206 86
206 5 0 19 -8 32 -19z m-76 -831 c9 -15 -32 -95 -67 -130 -16 -16 -26 -35 -23
-41 10 -15 -22 -47 -62 -60 -60 -19 -61 -8 -10 134 10 27 72 78 119 97 31 12
36 12 43 0z"/>
<path d="M2783 2570 c-25 -10 -31 -30 -9 -30 8 0 21 -3 30 -6 12 -5 16 0 16
20 0 28 -3 29 -37 16z"/>
<path d="M2795 1840 c-11 -12 -39 -33 -62 -47 -51 -29 -55 -40 -45 -123 8 -71
15 -77 95 -79 l37 -1 0 44 c0 37 -4 45 -22 50 l-23 6 23 20 c20 17 23 26 20
86 l-3 66 -20 -22z"/>
<path d="M2785 1446 c-17 -12 -43 -31 -58 -43 -28 -21 -28 -22 -7 -33 18 -10
19 -13 6 -32 -8 -11 -25 -26 -38 -32 -13 -6 -23 -20 -23 -31 0 -10 -6 -20 -13
-23 -7 -2 -12 6 -12 23 0 35 -19 28 -43 -16 -10 -19 -30 -43 -45 -55 -34 -28
-24 -59 16 -51 68 14 67 14 64 -18 -2 -16 -8 -36 -14 -43 -22 -26 2 -23 43 4
28 19 46 41 54 64 7 22 28 48 58 70 39 29 47 41 47 67 0 17 -5 33 -12 35 -10
4 -9 13 1 44 7 22 11 51 9 65 l-3 25 -30 -20z"/>
<path d="M2793 883 c-20 -8 -15 -23 7 -23 11 0 20 7 20 15 0 15 -6 17 -27 8z"/>
</g>
</svg>
