<?xml version="1.0" standalone="no"?>
<!DOCTYPE svg PUBLIC "-//W3C//DTD SVG 20010904//EN"
 "http://www.w3.org/TR/2001/REC-SVG-20010904/DTD/svg10.dtd">
<svg version="1.0" xmlns="http://www.w3.org/2000/svg"
 width="294.000000pt" height="391.000000pt" viewBox="0 0 294.000000 391.000000"
 preserveAspectRatio="xMidYMid meet">
<metadata>
Created by potrace 1.16, written by Peter Selinger 2001-2019
</metadata>
<g transform="translate(0.000000,391.000000) scale(0.100000,-0.100000)"
fill="#000000" stroke="none">
<path d="M1676 2808 c-22 -35 -76 -202 -82 -255 -3 -27 -14 -88 -24 -138 -10
-49 -25 -139 -34 -200 -36 -250 -57 -383 -66 -430 -29 -147 -34 -305 -10 -320
19 -11 31 30 45 151 15 125 17 131 59 194 24 36 61 86 82 112 21 26 52 67 68
93 53 85 65 46 65 -210 -1 -392 0 -417 16 -478 17 -68 38 -98 56 -80 7 7 7 22
0 49 -10 41 -13 130 -12 374 1 150 -12 326 -28 393 -10 43 -36 77 -58 77 -8 0
-50 -36 -92 -80 -43 -44 -80 -78 -83 -75 -5 5 -2 22 25 175 9 47 19 112 22
145 7 61 43 229 70 322 9 28 31 74 50 102 40 58 43 76 16 91 -33 17 -69 12
-85 -12z"/>
<path d="M905 2624 c-36 -48 -39 -84 -21 -251 9 -78 16 -164 16 -192 0 -47 -1
-50 -32 -57 -18 -5 -58 -8 -88 -9 -54 0 -55 -1 -73 -39 -16 -34 -17 -40 -3
-54 18 -19 55 -18 131 2 38 10 63 12 69 6 6 -6 13 -161 16 -373 7 -361 13
-424 43 -414 8 2 13 39 14 128 5 252 18 464 28 459 5 -3 17 -25 25 -50 17 -49
78 -137 131 -187 43 -40 106 -65 155 -61 55 4 50 28 -9 49 -70 25 -113 63
-165 143 -25 39 -70 95 -100 124 l-54 53 10 81 c5 44 14 84 19 88 4 5 51 17
103 28 158 34 216 68 175 102 -11 9 -25 8 -67 -3 -29 -8 -73 -18 -98 -22 -25
-4 -67 -13 -94 -21 -28 -8 -53 -11 -57 -7 -9 10 -17 117 -25 336 -4 97 -10
177 -14 177 -4 0 -20 -16 -35 -36z"/>
<path d="M210 2261 c-19 -5 -26 -14 -28 -39 l-3 -32 50 0 c61 0 81 7 81 30 0
39 -43 57 -100 41z"/>
<path d="M180 1831 c0 -38 0 -38 46 -44 57 -6 89 -34 122 -107 20 -46 25 -69
24 -140 -1 -77 -18 -178 -37 -222 -9 -23 18 -34 53 -22 22 8 28 19 41 84 23
116 19 252 -9 324 -40 103 -120 166 -212 166 -26 0 -28 -3 -28 -39z"/>
<path d="M803 1551 c-50 -49 -123 -165 -123 -195 0 -21 18 -30 35 -16 8 7 31
44 50 82 43 83 80 144 95 153 12 8 13 25 1 25 -4 0 -31 -22 -58 -49z"/>
<path d="M2662 1397 c-16 -17 -22 -36 -22 -67 0 -23 -6 -77 -14 -119 -43 -233
-41 -306 7 -299 18 2 23 11 25 43 7 105 51 286 86 353 21 41 21 98 0 106 -31
12 -61 6 -82 -17z"/>
<path d="M2375 201 l-40 -19 90 -1 90 0 -24 19 c-29 25 -64 25 -116 1z"/>
<path d="M1158 183 c6 -2 18 -2 25 0 6 3 1 5 -13 5 -14 0 -19 -2 -12 -5z"/>
</g>
</svg>
