<?xml version="1.0" standalone="no"?>
<!DOCTYPE svg PUBLIC "-//W3C//DTD SVG 20010904//EN"
 "http://www.w3.org/TR/2001/REC-SVG-20010904/DTD/svg10.dtd">
<svg version="1.0" xmlns="http://www.w3.org/2000/svg"
 width="212.000000pt" height="272.000000pt" viewBox="0 0 212.000000 272.000000"
 preserveAspectRatio="xMidYMid meet">
<metadata>
Created by potrace 1.16, written by Peter Selinger 2001-2019
</metadata>
<g transform="translate(0.000000,272.000000) scale(0.100000,-0.100000)"
fill="#000000" stroke="none">
<path d="M610 2530 c0 -12 27 -285 40 -407 15 -139 18 -131 -47 -160 -32 -14
-76 -27 -98 -28 -54 -2 -61 -29 -12 -50 39 -16 67 -11 121 23 21 13 42 20 46
15 4 -4 10 -36 13 -70 l7 -62 -40 -31 c-42 -33 -60 -32 -60 1 0 33 -25 16 -28
-19 -2 -24 -14 -41 -45 -64 -74 -59 -157 -152 -155 -173 4 -27 58 -41 106 -27
178 55 214 64 222 56 4 -5 11 -28 15 -50 5 -35 3 -44 -13 -56 -26 -18 -182
-251 -182 -272 0 -25 32 -33 44 -12 27 44 87 118 114 141 51 43 49 48 67 -145
7 -65 25 -100 52 -100 11 0 13 10 9 43 -3 23 -11 89 -17 147 -6 57 -13 108
-16 114 -3 5 5 17 18 27 l24 18 -24 25 c-21 22 -23 32 -18 77 8 69 28 96 79
109 24 6 66 18 94 26 28 8 61 14 73 14 56 0 82 43 36 60 -31 12 -104 -2 -242
-45 -21 -7 -23 -4 -23 33 0 40 2 42 70 87 39 25 74 45 79 45 4 0 18 11 31 25
34 37 14 55 -61 55 -53 0 -63 -3 -98 -35 -44 -40 -55 -35 -40 18 10 36 11 37
58 37 33 0 56 6 72 19 34 28 15 42 -66 49 -65 5 -68 6 -81 38 -8 18 -14 53
-14 77 0 24 -4 79 -9 123 -6 43 -15 132 -22 197 l-11 117 -34 0 c-19 0 -34 -4
-34 -10z m67 -876 c9 -24 -9 -48 -43 -55 -25 -6 -92 -24 -161 -45 -44 -12 -24
22 35 63 68 48 76 51 125 52 26 1 40 -4 44 -15z"/>
<path d="M1918 2236 c-10 -7 -18 -18 -18 -25 0 -16 30 -14 36 4 10 24 0 35
-18 21z"/>
<path d="M824 1498 c-4 -7 2 -18 14 -26 12 -8 22 -20 22 -27 0 -31 83 -212
106 -233 50 -44 70 -7 30 53 -15 21 -26 43 -26 49 0 28 -55 125 -90 159 -43
41 -46 42 -56 25z"/>
<path d="M1916 1131 c-6 -10 10 -61 19 -61 3 0 5 16 5 35 0 33 -12 46 -24 26z"/>
<path d="M260 1035 c-14 -8 -37 -19 -52 -25 -21 -7 -28 -16 -28 -34 0 -32 18
-26 78 23 56 47 57 68 2 36z"/>
</g>
</svg>
