<?xml version="1.0" standalone="no"?>
<!DOCTYPE svg PUBLIC "-//W3C//DTD SVG 20010904//EN"
 "http://www.w3.org/TR/2001/REC-SVG-20010904/DTD/svg10.dtd">
<svg version="1.0" xmlns="http://www.w3.org/2000/svg"
 width="330.000000pt" height="359.000000pt" viewBox="0 0 330.000000 359.000000"
 preserveAspectRatio="xMidYMid meet">
<metadata>
Created by potrace 1.16, written by Peter Selinger 2001-2019
</metadata>
<g transform="translate(0.000000,359.000000) scale(0.100000,-0.100000)"
fill="#000000" stroke="none">
<path d="M3098 3363 c-22 -24 -23 -43 -3 -43 18 0 28 21 23 46 -3 14 -5 14
-20 -3z"/>
<path d="M547 2723 c-4 -3 -7 -24 -7 -45 0 -119 -74 -366 -115 -381 -21 -9
-19 -20 10 -51 51 -56 125 -19 125 64 0 23 6 77 14 119 28 152 38 258 26 280
-10 20 -40 28 -53 14z"/>
<path d="M1345 2390 c-3 -5 -1 -27 4 -47 10 -40 13 -130 12 -373 -1 -150 12
-326 28 -393 10 -43 36 -77 58 -77 8 0 50 36 92 80 43 44 80 78 83 75 5 -5 2
-22 -25 -175 -9 -47 -19 -112 -22 -145 -7 -61 -43 -229 -70 -322 -9 -28 -31
-74 -50 -102 -40 -58 -43 -76 -16 -91 33 -17 69 -12 85 13 22 34 76 201 82
254 3 27 14 89 24 138 10 50 25 140 34 200 36 250 57 383 66 430 29 147 34
305 10 320 -19 11 -31 -30 -45 -151 -15 -125 -17 -131 -59 -194 -24 -36 -61
-86 -82 -112 -21 -26 -52 -67 -68 -93 -53 -85 -65 -46 -65 210 1 391 0 417
-16 477 -20 78 -42 107 -60 78z"/>
<path d="M2226 2392 c-3 -5 -6 -69 -6 -143 -1 -200 -14 -444 -23 -444 -5 0
-16 23 -25 50 -19 54 -79 140 -133 192 -43 40 -106 65 -155 61 -55 -4 -50 -28
9 -49 70 -25 113 -63 165 -143 25 -39 70 -95 100 -124 l54 -53 -10 -81 c-5
-44 -14 -84 -19 -88 -4 -5 -51 -17 -103 -28 -158 -34 -216 -68 -175 -102 11
-9 25 -8 67 3 29 8 73 18 98 22 25 4 67 13 94 21 28 8 53 11 57 7 9 -10 17
-117 25 -335 4 -98 10 -178 14 -178 17 0 62 74 67 108 3 20 -2 101 -11 179 -9
78 -16 164 -16 192 0 47 1 50 33 57 17 5 57 8 87 9 54 0 55 1 73 39 16 34 17
40 3 54 -18 19 -55 18 -131 -2 -38 -10 -63 -12 -69 -6 -6 6 -13 161 -16 373
-6 350 -13 417 -39 417 -5 0 -12 -4 -15 -8z"/>
<path d="M2799 2338 c-22 -18 -44 -147 -43 -253 2 -228 132 -351 320 -304 43
11 44 12 44 51 0 35 -2 39 -17 32 -10 -5 -53 -9 -95 -9 -68 0 -80 3 -104 25
-14 14 -38 50 -52 80 -20 46 -25 69 -24 140 1 47 8 114 17 150 8 36 16 72 18
80 3 20 -43 25 -64 8z"/>
<path d="M2471 2284 c-12 -15 -21 -30 -21 -34 0 -14 -81 -154 -103 -177 -31
-34 -13 -40 25 -8 94 77 182 245 129 245 -5 0 -19 -12 -30 -26z"/>
<path d="M3101 2098 c-10 -59 -18 -79 -43 -106 -40 -40 -28 -56 25 -35 l37 15
0 99 c0 54 -2 99 -4 99 -1 0 -8 -33 -15 -72z"/>
<path d="M2980 1453 c-72 -5 -90 -12 -90 -32 0 -10 9 -26 19 -35 19 -17 24
-17 116 1 92 17 96 19 93 43 -3 22 -8 25 -48 26 -25 1 -65 -1 -90 -3z"/>
<path d="M3112 1260 c0 -14 2 -19 5 -12 2 6 2 18 0 25 -3 6 -5 1 -5 -13z"/>
</g>
</svg>
