<?xml version="1.0" standalone="no"?>
<!DOCTYPE svg PUBLIC "-//W3C//DTD SVG 20010904//EN"
 "http://www.w3.org/TR/2001/REC-SVG-20010904/DTD/svg10.dtd">
<svg version="1.0" xmlns="http://www.w3.org/2000/svg"
 width="224.000000pt" height="389.000000pt" viewBox="0 0 224.000000 389.000000"
 preserveAspectRatio="xMidYMid meet">
<metadata>
Created by potrace 1.16, written by Peter Selinger 2001-2019
</metadata>
<g transform="translate(0.000000,389.000000) scale(0.100000,-0.100000)"
fill="#000000" stroke="none">
<path d="M192 3503 c-15 -246 -16 -361 -3 -347 26 28 82 420 73 514 -4 36 -7
40 -31 40 l-27 0 -12 -207z"/>
<path d="M450 3666 c0 -24 5 -90 11 -147 17 -177 83 -293 206 -367 130 -79
222 -97 330 -66 77 22 117 60 137 132 9 32 16 68 16 80 0 39 -25 23 -39 -24
-21 -72 -63 -108 -146 -127 -60 -13 -79 -14 -130 -3 -123 26 -216 101 -274
218 -29 59 -34 80 -44 207 l-11 141 -28 0 c-26 0 -28 -2 -28 -44z"/>
<path d="M1736 3673 c-40 -269 -50 -387 -38 -466 20 -138 43 -128 49 22 5 133
34 324 68 454 7 26 6 27 -33 27 -39 0 -40 -1 -46 -37z"/>
<path d="M1820 3469 c0 -39 64 -124 162 -214 l73 -66 3 36 c3 31 -4 44 -65
112 -101 115 -149 163 -162 163 -6 0 -11 -14 -11 -31z"/>
<path d="M2009 2172 c-64 -23 -73 -33 -126 -130 -42 -76 -47 -93 -47 -151 l-1
-66 37 -9 c31 -8 48 -5 98 16 72 32 87 20 36 -27 -42 -38 -46 -68 -11 -91 29
-19 34 -64 10 -84 -31 -25 -15 -61 33 -73 l22 -5 0 178 c0 164 -1 178 -17 174
-10 -2 -47 -11 -81 -19 -91 -23 -99 -13 -60 73 21 48 48 85 94 130 36 35 64
71 64 82 0 11 -1 20 -2 19 -2 0 -24 -8 -49 -17z"/>
<path d="M1035 1970 c-46 -30 -54 -58 -65 -226 -16 -253 -20 -261 -112 -243
-51 10 -60 9 -114 -14 -33 -14 -67 -28 -77 -31 -32 -10 -12 -31 32 -34 55 -4
52 -30 -6 -52 -23 -8 -52 -25 -65 -36 -13 -11 -36 -28 -51 -38 -15 -9 -33 -29
-40 -44 -6 -15 -22 -40 -34 -55 -27 -33 -29 -50 -8 -67 13 -10 19 -10 33 4 26
23 41 20 52 -10 8 -21 14 -24 33 -18 12 4 56 8 97 8 55 1 82 6 103 20 15 10
27 22 27 27 0 8 52 39 65 39 3 0 3 -43 -1 -95 -7 -102 9 -213 34 -222 21 -9
25 3 11 40 -9 27 -9 60 0 156 6 68 16 131 21 141 16 31 228 150 266 150 23 0
119 80 142 119 23 40 24 45 9 56 -21 15 -124 17 -151 3 -15 -8 -23 -6 -37 13
-16 22 -24 24 -81 21 -35 -2 -69 -9 -75 -14 -19 -15 -26 14 -18 68 3 25 8 71
11 102 5 73 23 151 40 177 33 47 5 85 -41 55z m-194 -532 c-26 -20 -37 -22
-46 -8 -7 11 46 41 59 32 5 -3 -1 -13 -13 -24z m-101 -199 c-6 -10 -23 -25
-38 -33 -37 -19 -102 -36 -102 -27 0 24 123 97 142 85 4 -3 3 -14 -2 -25z"/>
<path d="M1964 1289 c-26 -22 -65 -52 -86 -65 -21 -13 -38 -29 -38 -35 0 -5 9
-27 20 -49 42 -82 106 -92 178 -27 17 16 22 31 22 66 l0 46 -41 -47 c-22 -27
-48 -48 -57 -48 -9 0 -30 11 -47 24 -29 23 -29 25 -12 44 10 11 49 34 87 51
59 27 70 37 70 57 0 38 -41 31 -96 -17z"/>
<path d="M1070 1191 c0 -21 57 -121 108 -191 103 -140 193 -220 247 -220 29 0
34 18 8 27 -52 19 -175 153 -256 280 -50 78 -107 134 -107 104z"/>
<path d="M340 1007 c0 -8 3 -17 7 -21 4 -4 7 -55 5 -114 -2 -125 7 -187 28
-187 17 0 25 41 35 186 l7 106 -37 22 c-42 25 -45 25 -45 8z"/>
</g>
</svg>
