<?xml version="1.0" standalone="no"?>
<!DOCTYPE svg PUBLIC "-//W3C//DTD SVG 20010904//EN"
 "http://www.w3.org/TR/2001/REC-SVG-20010904/DTD/svg10.dtd">
<svg version="1.0" xmlns="http://www.w3.org/2000/svg"
 width="286.000000pt" height="379.000000pt" viewBox="0 0 286.000000 379.000000"
 preserveAspectRatio="xMidYMid meet">
<metadata>
Created by potrace 1.16, written by Peter Selinger 2001-2019
</metadata>
<g transform="translate(0.000000,379.000000) scale(0.100000,-0.100000)"
fill="#000000" stroke="none">
<path d="M670 3337 c-40 -14 -51 -44 -24 -64 10 -7 44 -13 76 -13 53 0 58 2
64 25 13 54 -40 78 -116 52z"/>
<path d="M2323 3073 c-9 -21 -20 -76 -24 -123 -11 -115 -27 -232 -35 -253 -7
-20 12 -47 34 -47 8 0 30 12 49 26 18 14 82 43 141 64 183 65 192 70 192 108
0 37 -6 39 -63 13 -23 -10 -93 -36 -155 -57 -153 -51 -153 -51 -92 121 32 91
36 141 15 165 -27 29 -44 24 -62 -17z"/>
<path d="M1467 2730 c-40 -31 -142 -233 -186 -366 -22 -65 -44 -132 -51 -149
-37 -100 -120 -426 -120 -472 0 -13 -4 -23 -10 -23 -6 0 -11 32 -12 73 -2 85
-2 82 7 262 7 124 6 142 -9 154 -20 17 -30 8 -33 -27 -1 -15 -7 -52 -13 -82
-25 -124 -7 -657 24 -720 8 -17 20 -25 36 -25 24 0 25 4 32 80 4 44 14 139 23
210 8 72 16 148 19 170 6 70 27 159 42 183 9 13 21 51 29 85 40 181 133 428
208 550 33 53 58 60 101 26 36 -28 52 -62 81 -171 41 -151 51 -339 34 -613 -8
-126 -14 -269 -14 -318 0 -72 -3 -87 -16 -87 -20 0 -153 94 -179 127 -26 34
-26 38 14 126 103 225 127 318 128 493 0 115 -2 138 -17 155 -27 29 -41 24
-80 -33 -32 -49 -77 -105 -189 -233 -103 -119 -101 -169 9 -345 48 -77 48 -76
41 -114 -7 -37 -95 -223 -127 -267 -49 -69 14 -125 72 -63 34 37 63 50 158 69
57 12 104 15 143 11 42 -5 65 -3 86 8 l29 15 6 173 c3 95 11 225 17 288 12
120 1 399 -21 525 -26 155 -97 293 -171 331 -37 19 -61 18 -91 -6z m62 -514
c29 -35 -20 -231 -120 -484 -12 -30 -24 -22 -50 36 -39 88 -59 155 -59 203 0
45 3 50 60 101 33 30 71 72 86 94 25 38 51 64 65 64 3 0 12 -6 18 -14z m-59
-698 c11 -18 18 -37 17 -43 -4 -12 -107 -36 -120 -28 -5 3 -6 17 -2 32 19 76
71 95 105 39z"/>
<path d="M2598 2554 c-36 -44 -38 -51 -38 -117 0 -69 0 -70 -44 -111 -34 -32
-45 -51 -51 -84 -4 -24 -4 -46 -1 -49 3 -3 22 7 42 23 73 58 69 57 103 40 27
-14 30 -20 25 -49 -9 -44 -31 -77 -53 -77 -10 0 -25 -8 -34 -18 -16 -17 -15
-20 6 -40 31 -30 46 -27 90 13 l37 35 0 131 c0 117 -2 130 -16 125 -9 -4 -23
-1 -31 5 -18 15 -8 142 14 177 13 21 11 42 -5 42 -4 0 -24 -21 -44 -46z"/>
<path d="M643 2523 c-16 -24 -18 -53 -18 -233 l0 -206 27 -42 c33 -50 82 -65
123 -38 36 24 39 7 23 -106 -7 -51 -12 -129 -11 -173 2 -71 5 -82 26 -100 l24
-20 -18 -40 c-10 -22 -19 -46 -19 -53 0 -7 -11 -31 -26 -53 -45 -72 -64 -109
-64 -126 0 -10 -14 -32 -32 -50 -31 -32 -31 -33 -13 -53 27 -30 42 -25 66 23
12 23 32 56 44 72 11 17 27 52 33 79 7 27 24 73 38 102 28 60 44 164 25 164
-6 0 -11 -4 -11 -10 0 -5 -7 -10 -15 -10 -19 0 -13 55 36 315 11 61 24 146 29
190 14 126 21 155 36 155 8 0 14 -10 14 -24 0 -35 18 -42 31 -13 8 18 8 30 0
45 -6 11 -11 33 -11 49 0 56 -59 105 -101 83 -17 -10 -19 -22 -19 -114 0 -87
-3 -105 -18 -119 -10 -10 -24 -17 -30 -17 -18 0 -26 -21 -28 -73 -4 -93 -71
-114 -93 -29 -20 78 -10 373 15 413 7 12 -14 39 -32 39 -7 0 -21 -12 -31 -27z"/>
<path d="M2404 2524 c-10 -16 -35 -51 -56 -77 -52 -67 -91 -152 -127 -282 -18
-60 -39 -128 -48 -150 -17 -43 -26 -103 -43 -282 -12 -122 -8 -140 36 -170 23
-15 26 -15 42 0 15 15 14 18 -8 41 -21 23 -22 31 -16 88 15 128 25 184 41 238
10 30 23 82 31 116 7 33 22 89 34 125 11 35 20 73 20 83 0 11 6 27 14 35 8 9
28 52 46 96 17 44 40 95 51 114 26 43 9 66 -17 25z"/>
<path d="M180 2090 c0 -25 4 -30 24 -30 36 0 43 20 15 41 -33 25 -39 24 -39
-11z"/>
<path d="M180 1800 c0 -91 5 -223 12 -293 9 -102 9 -143 -1 -204 -15 -90 -5
-111 31 -61 45 60 60 147 47 259 -5 40 -13 124 -19 184 -11 107 -37 224 -59
262 -8 13 -10 -24 -11 -147z"/>
<path d="M2493 1854 c-40 -17 -72 -59 -117 -154 -28 -58 -36 -87 -36 -131 0
-120 51 -104 268 82 l72 62 0 68 0 67 -50 11 c-65 14 -97 13 -137 -5z m125
-67 c17 -20 -156 -187 -193 -187 -11 0 6 62 30 110 29 58 52 77 95 83 19 2 40
5 46 5 6 1 16 -4 22 -11z"/>
</g>
</svg>
