<?xml version="1.0" standalone="no"?>
<!DOCTYPE svg PUBLIC "-//W3C//DTD SVG 20010904//EN"
 "http://www.w3.org/TR/2001/REC-SVG-20010904/DTD/svg10.dtd">
<svg version="1.0" xmlns="http://www.w3.org/2000/svg"
 width="233.000000pt" height="251.000000pt" viewBox="0 0 233.000000 251.000000"
 preserveAspectRatio="xMidYMid meet">
<metadata>
Created by potrace 1.16, written by Peter Selinger 2001-2019
</metadata>
<g transform="translate(0.000000,251.000000) scale(0.100000,-0.100000)"
fill="#000000" stroke="none">
<path d="M612 1508 c-24 -27 -56 -98 -65 -148 -15 -75 -41 -146 -60 -163 -18
-16 -19 -19 -3 -35 20 -23 20 -49 1 -95 -10 -25 -12 -43 -6 -60 10 -27 6 -143
-10 -282 -6 -49 -12 -111 -14 -136 -2 -26 -8 -64 -13 -85 -6 -22 -13 -66 -17
-99 -3 -33 -11 -73 -17 -88 -14 -35 4 -60 26 -37 19 21 74 311 101 532 6 44
12 59 26 63 11 4 19 14 19 24 0 18 86 108 95 99 7 -7 -38 -217 -71 -328 -39
-131 -44 -157 -41 -185 l3 -30 11 25 c20 43 90 233 102 275 24 90 40 174 47
235 8 80 22 109 82 169 26 26 73 84 104 129 62 87 98 118 124 108 14 -5 16
-16 11 -58 -8 -62 -41 -117 -110 -180 -62 -57 -44 -62 33 -10 75 52 120 127
120 203 0 77 -22 105 -73 95 -50 -9 -82 -39 -152 -142 -65 -98 -94 -134 -107
-134 -4 0 -8 44 -8 98 0 100 -19 184 -55 239 -20 29 -55 30 -83 1z m67 -95 c7
-32 15 -107 18 -168 7 -136 -4 -174 -68 -233 -40 -36 -69 -52 -69 -37 0 20 29
58 57 75 45 27 42 41 -9 38 -41 -3 -42 -2 -51 37 -11 53 -2 127 28 222 43 136
73 157 94 66z"/>
<path d="M799 995 c-45 -97 -59 -189 -55 -360 2 -83 8 -151 14 -157 16 -16 46
-5 60 25 7 15 20 27 29 27 9 0 49 -31 88 -70 71 -68 106 -90 146 -90 31 0 22
24 -23 60 -56 44 -158 141 -158 150 0 3 20 30 45 58 96 114 53 210 -62 135
-23 -14 -47 -37 -54 -50 -7 -13 -19 -23 -27 -23 -11 0 -13 10 -8 48 3 26 8 85
12 132 4 56 12 96 25 118 21 37 25 62 9 62 -6 0 -24 -29 -41 -65z m121 -282
c0 -14 -81 -143 -90 -143 -11 0 -2 54 13 85 21 44 77 86 77 58z"/>
<path d="M1570 378 c0 -12 -6 -29 -14 -37 -19 -22 -47 -124 -37 -134 4 -4 21
11 36 33 22 31 30 57 33 101 3 39 1 59 -7 59 -6 0 -11 -10 -11 -22z"/>
</g>
</svg>
