<?xml version="1.0" standalone="no"?>
<!DOCTYPE svg PUBLIC "-//W3C//DTD SVG 20010904//EN"
 "http://www.w3.org/TR/2001/REC-SVG-20010904/DTD/svg10.dtd">
<svg version="1.0" xmlns="http://www.w3.org/2000/svg"
 width="246.000000pt" height="359.000000pt" viewBox="0 0 246.000000 359.000000"
 preserveAspectRatio="xMidYMid meet">
<metadata>
Created by potrace 1.16, written by Peter Selinger 2001-2019
</metadata>
<g transform="translate(0.000000,359.000000) scale(0.100000,-0.100000)"
fill="#000000" stroke="none">
<path d="M389 3384 c19 -24 21 -40 21 -151 0 -135 19 -252 51 -316 l20 -38
-35 -40 c-20 -21 -65 -67 -100 -102 -34 -34 -86 -88 -115 -120 l-51 -57 0 -86
0 -85 50 28 c28 15 119 71 203 125 83 53 179 110 212 126 33 17 76 47 95 67
34 35 34 37 16 51 -29 21 -41 18 -109 -27 -34 -23 -87 -56 -117 -72 -69 -39
-228 -143 -257 -170 -13 -11 -26 -18 -29 -14 -15 15 54 96 278 326 169 173
191 206 138 206 -17 0 -35 -14 -62 -50 -43 -57 -72 -75 -91 -56 -17 17 -36
176 -36 313 -1 150 -8 168 -61 168 l-41 0 20 -26z"/>
<path d="M326 3273 c-12 -12 -6 -33 9 -33 8 0 15 6 15 14 0 17 -14 28 -24 19z"/>
<path d="M180 3185 c0 -25 4 -35 13 -33 18 7 20 43 2 58 -13 11 -15 8 -15 -25z"/>
<path d="M180 3074 c0 -7 9 -14 20 -17 15 -4 20 -14 20 -40 0 -21 -7 -41 -20
-52 -15 -13 -20 -31 -20 -67 0 -26 4 -48 9 -48 27 0 95 111 106 173 4 21 11
40 16 43 23 14 4 20 -61 19 -45 0 -70 -4 -70 -11z"/>
<path d="M1266 2761 c-4 -5 -2 -21 4 -36 5 -14 7 -37 4 -51 -8 -32 20 -43 46
-19 27 24 25 61 -5 90 -25 26 -40 31 -49 16z"/>
<path d="M2072 2265 c-29 -22 -20 -35 26 -35 44 0 105 -26 150 -64 l32 -28 0
51 c0 43 -4 53 -25 67 -38 25 -154 30 -183 9z"/>
<path d="M952 2118 c-15 -15 -15 -48 -2 -84 7 -18 7 -57 -1 -123 -20 -181 -23
-264 -8 -259 24 8 79 216 79 301 0 19 5 39 10 42 13 8 89 -35 148 -82 38 -31
42 -38 42 -79 0 -39 -5 -50 -37 -80 -44 -40 -214 -144 -237 -144 -8 0 -20 -8
-25 -19 -6 -10 -26 -28 -46 -40 -19 -11 -35 -25 -35 -30 0 -18 75 -6 98 17 12
12 26 22 32 22 27 0 201 108 248 153 90 88 103 135 53 204 -41 56 -106 107
-181 141 -36 16 -74 39 -84 51 -22 24 -37 26 -54 9z"/>
<path d="M1526 2083 c15 -31 7 -233 -15 -373 -12 -74 -26 -166 -32 -205 -6
-38 -12 -135 -15 -215 -8 -238 -3 -223 -85 -261 -115 -53 -116 -82 0 -56 55
13 63 13 68 0 5 -13 -24 -235 -42 -328 -8 -39 16 -75 37 -57 27 22 59 170 73
337 8 90 16 105 54 105 14 0 62 11 105 25 43 14 90 25 103 25 29 0 39 21 23
49 -14 27 -67 28 -124 2 -23 -10 -63 -25 -89 -34 -43 -13 -49 -13 -54 0 -10
27 7 336 19 351 8 10 24 12 49 8 33 -5 40 -2 66 27 28 32 94 173 107 228 7 34
-23 75 -47 66 -12 -5 -17 -19 -17 -51 0 -31 -11 -65 -36 -114 -42 -82 -75
-118 -100 -108 -18 7 -19 0 11 246 17 145 20 303 5 331 -7 12 -21 19 -41 19
-26 0 -30 -3 -23 -17z"/>
<path d="M203 2068 c-19 -9 -23 -19 -23 -60 0 -48 0 -48 28 -42 61 15 95 81
53 104 -24 12 -29 12 -58 -2z"/>
<path d="M505 1963 c-22 -5 -65 -42 -65 -55 0 -4 -16 -32 -35 -63 -20 -30 -38
-63 -42 -73 -3 -9 -12 -24 -19 -32 -16 -19 -22 -83 -9 -90 9 -5 62 72 109 160
13 25 33 53 44 63 20 18 21 18 33 -5 15 -26 14 -206 -1 -353 -5 -49 -10 -142
-10 -206 0 -133 -13 -214 -38 -242 -16 -18 -16 -20 13 -43 36 -29 37 -29 64
-6 17 14 22 34 29 107 4 50 7 131 7 180 -1 50 2 169 8 265 12 220 0 355 -33
382 -12 10 -25 17 -29 17 -3 -1 -15 -3 -26 -6z"/>
<path d="M1180 1568 c-43 -29 -53 -54 -16 -37 19 9 32 9 54 0 39 -16 79 -60
84 -90 6 -43 25 -34 31 14 8 58 -10 96 -57 119 -45 21 -57 20 -96 -6z"/>
<path d="M1046 1362 c-36 -2 -58 -11 -81 -30 -17 -15 -41 -34 -54 -43 -32 -20
-23 -55 12 -44 12 3 38 10 57 14 53 12 135 64 135 86 0 21 -4 22 -69 17z"/>
<path d="M871 1031 c-76 -32 -96 -55 -66 -77 23 -17 53 -12 135 20 68 26 80
57 29 75 -18 6 -32 11 -33 11 -1 -1 -30 -13 -65 -29z"/>
</g>
</svg>
