<?xml version="1.0" standalone="no"?>
<!DOCTYPE svg PUBLIC "-//W3C//DTD SVG 20010904//EN"
 "http://www.w3.org/TR/2001/REC-SVG-20010904/DTD/svg10.dtd">
<svg version="1.0" xmlns="http://www.w3.org/2000/svg"
 width="258.000000pt" height="428.000000pt" viewBox="0 0 258.000000 428.000000"
 preserveAspectRatio="xMidYMid meet">
<metadata>
Created by potrace 1.16, written by Peter Selinger 2001-2019
</metadata>
<g transform="translate(0.000000,428.000000) scale(0.100000,-0.100000)"
fill="#000000" stroke="none">
<path d="M1325 4084 c44 -33 161 -104 172 -104 40 -1 19 48 -39 90 -34 25 -50
30 -97 30 -52 -1 -55 -2 -36 -16z"/>
<path d="M1081 2676 c-10 -11 -10 -28 0 -73 6 -32 13 -150 15 -262 2 -168 0
-210 -13 -243 -16 -39 -16 -41 18 -106 19 -37 35 -69 36 -71 2 -2 9 1 16 7 8
7 48 11 96 10 83 -1 108 8 98 35 -6 15 -40 24 -147 35 -76 8 -88 26 -44 67 46
42 160 30 207 -22 19 -22 25 -103 12 -159 -16 -73 45 -43 64 31 37 146 -38
229 -219 244 l-75 6 2 55 c1 71 23 163 40 173 18 11 16 35 -3 39 -14 3 -17 19
-18 109 -1 114 -10 139 -51 139 -12 0 -28 -6 -34 -14z"/>
<path d="M2352 2443 c-13 -3 -42 -23 -64 -46 -41 -43 -198 -271 -246 -359 -15
-27 -33 -59 -39 -71 -15 -25 -17 -57 -5 -57 15 0 69 71 158 204 14 21 75 92
135 157 88 96 109 125 109 149 0 30 -3 32 -48 23z"/>
<path d="M1270 2387 c-14 -7 -25 -21 -25 -32 0 -17 9 -21 63 -26 40 -4 69 -13
83 -25 20 -18 21 -18 35 1 19 26 18 59 -4 78 -23 21 -115 23 -152 4z"/>
<path d="M180 2163 c0 -23 5 -33 15 -33 19 0 19 -18 -1 -75 -8 -25 -14 -69
-12 -97 l3 -52 40 55 c23 30 53 77 68 106 23 45 24 53 11 64 -8 6 -30 12 -48
13 -23 1 -40 9 -55 26 l-20 25 -1 -32z"/>
<path d="M1013 2058 c-39 -74 -12 -227 44 -249 21 -8 24 -14 18 -38 -5 -25 -2
-31 21 -43 21 -10 31 -25 41 -63 23 -89 20 -95 -77 -122 -60 -18 -113 -25
-180 -27 -89 -1 -95 -3 -98 -23 -2 -16 5 -26 27 -37 43 -23 101 -20 228 10 61
15 118 24 127 21 27 -10 18 -34 -25 -69 -78 -63 -163 -140 -177 -159 -8 -11
-11 -26 -8 -34 10 -26 44 -16 71 20 15 19 36 37 47 41 11 3 40 20 64 37 64 45
72 33 90 -139 15 -140 29 -183 55 -157 11 11 8 152 -7 320 -6 66 -5 72 15 83
26 13 18 32 -12 28 -18 -2 -23 3 -25 30 -3 30 0 34 43 53 27 12 61 19 83 17
34 -3 39 -7 72 -72 79 -153 155 -200 264 -162 41 14 72 44 58 58 -4 4 -25 3
-47 -3 -43 -12 -99 -6 -122 13 -8 6 -31 37 -50 68 -45 70 -72 100 -102 111
-26 10 -19 25 14 31 12 2 20 11 20 23 0 16 -6 20 -30 19 -32 -1 -91 -14 -167
-35 -59 -16 -69 -9 -79 58 -4 27 -10 58 -14 70 -6 18 -1 25 31 40 42 20 51 48
22 67 -14 8 -29 7 -64 -6 -47 -17 -47 -17 -80 10 -26 21 -35 37 -40 72 -4 25
-13 62 -21 82 -11 27 -12 42 -4 57 7 12 7 22 1 26 -5 3 -17 -9 -27 -27z"/>
<path d="M2125 1971 c-22 -10 -61 -38 -87 -62 -38 -37 -45 -49 -41 -71 3 -15
14 -35 24 -44 10 -9 19 -30 19 -45 0 -15 5 -31 10 -34 13 -8 30 37 30 80 0 26
10 43 46 79 25 25 51 46 57 46 27 0 78 -42 97 -79 33 -67 43 -174 35 -411 -6
-184 -5 -218 8 -228 22 -19 39 9 42 71 2 28 7 84 11 122 11 99 7 336 -6 400
-29 139 -144 222 -245 176z"/>
<path d="M197 1712 c-12 -13 -17 -37 -17 -85 0 -37 4 -67 9 -67 4 0 11 -62 13
-137 7 -158 16 -193 52 -193 l24 0 -3 190 c-2 120 1 192 7 196 17 11 62 -30
85 -77 18 -36 22 -61 22 -139 1 -90 -5 -123 -45 -255 -22 -73 -22 -90 0 -90
25 0 92 128 113 214 21 91 14 232 -14 286 -23 45 -104 125 -126 125 -8 0 -31
11 -51 25 -44 30 -48 30 -69 7z"/>
<path d="M2104 1646 c-14 -36 0 -51 54 -58 56 -8 96 3 90 25 -12 35 -133 63
-144 33z"/>
<path d="M1969 1640 c0 -3 -3 -76 -6 -162 -6 -212 16 -355 48 -308 13 19 5
358 -10 414 -8 33 -29 69 -32 56z"/>
<path d="M2190 1289 c-36 -18 -81 -35 -100 -38 -26 -5 -35 -11 -35 -26 0 -17
9 -21 50 -26 43 -5 55 -2 95 24 53 35 70 54 70 79 0 24 -4 23 -80 -13z"/>
</g>
</svg>
