<?xml version="1.0" standalone="no"?>
<!DOCTYPE svg PUBLIC "-//W3C//DTD SVG 20010904//EN"
 "http://www.w3.org/TR/2001/REC-SVG-20010904/DTD/svg10.dtd">
<svg version="1.0" xmlns="http://www.w3.org/2000/svg"
 width="316.000000pt" height="370.000000pt" viewBox="0 0 316.000000 370.000000"
 preserveAspectRatio="xMidYMid meet">
<metadata>
Created by potrace 1.16, written by Peter Selinger 2001-2019
</metadata>
<g transform="translate(0.000000,370.000000) scale(0.100000,-0.100000)"
fill="#000000" stroke="none">
<path d="M1006 2901 c-17 -19 -17 -21 1 -63 11 -24 23 -55 26 -69 6 -22 50
-315 60 -394 2 -16 -12 -23 -93 -46 -80 -22 -98 -31 -112 -55 -10 -16 -14 -32
-9 -37 9 -9 133 13 185 33 16 6 32 7 36 3 10 -11 33 -202 29 -238 -3 -24 -10
-30 -38 -36 -45 -9 -55 -21 -90 -112 -36 -90 -38 -113 -12 -127 39 -20 68 -12
90 26 26 44 27 57 2 49 -35 -11 -31 11 12 68 23 31 44 56 48 57 5 0 34 -311
44 -475 6 -107 16 -150 36 -150 12 0 14 32 12 200 -1 110 -9 268 -18 350 -8
83 -17 186 -20 230 -2 43 -7 103 -11 132 -8 66 -1 76 91 118 74 33 101 57 90
76 -10 16 -57 4 -127 -31 -32 -17 -62 -30 -67 -30 -5 0 -14 39 -20 88 -6 48
-14 105 -17 127 -3 22 -12 84 -19 137 -13 101 -46 180 -76 186 -8 1 -23 -6
-33 -17z"/>
<path d="M1525 2830 c-3 -5 -8 -56 -10 -112 -4 -104 -16 -133 -35 -83 -15 40
-35 25 -38 -30 -3 -41 1 -52 25 -78 35 -37 81 -57 133 -57 22 0 40 -2 40 -5 0
-3 -10 -25 -21 -47 -12 -23 -30 -66 -40 -96 -11 -31 -37 -74 -64 -104 -51 -57
-56 -80 -20 -104 32 -21 48 -14 72 33 24 47 75 83 118 83 45 0 69 -31 96 -125
20 -70 23 -108 27 -305 2 -124 -1 -236 -6 -249 -6 -18 -22 -28 -58 -37 -27 -7
-61 -13 -75 -14 -42 0 -190 -51 -196 -66 -7 -19 15 -44 40 -44 36 0 291 92
314 114 21 20 42 160 49 327 6 147 4 173 -15 252 -12 48 -26 100 -32 115 -24
64 -106 119 -159 107 -15 -3 -30 -3 -33 2 -5 7 46 124 95 218 84 163 93 196
56 219 -29 18 -54 -19 -91 -129 -29 -87 -37 -100 -58 -103 -58 -7 -69 34 -55
196 7 82 6 95 -9 112 -20 22 -40 26 -50 10z"/>
<path d="M2952 2726 c-13 -29 -29 -72 -37 -97 -15 -50 -50 -134 -125 -299 -28
-63 -61 -137 -72 -165 -11 -27 -28 -70 -38 -95 -10 -25 -34 -87 -54 -139 -20
-52 -40 -99 -45 -105 -5 -6 -34 -72 -64 -146 -75 -184 -144 -347 -168 -395
-33 -68 -136 -344 -131 -350 15 -14 28 5 83 123 32 70 64 135 69 145 6 10 35
73 64 140 30 67 61 136 70 152 9 17 16 34 16 38 0 4 14 36 31 70 17 34 44 96
61 137 16 41 41 94 54 118 14 23 41 85 60 138 19 53 57 144 85 203 49 101 92
197 145 324 22 51 24 71 22 157 l-3 98 -23 -52z"/>
<path d="M180 2412 c0 -37 1 -38 29 -34 23 3 33 -2 54 -30 78 -104 102 -251
112 -690 6 -292 12 -271 -80 -282 -118 -16 -115 -14 -115 -47 0 -31 1 -31 43
-26 23 3 65 10 92 15 28 5 53 8 58 5 4 -2 7 -20 7 -39 0 -21 5 -34 13 -34 26
0 41 187 39 494 -2 316 -12 429 -44 521 -38 106 -75 153 -137 174 -60 20 -71
16 -71 -27z"/>
<path d="M1267 2064 c-33 -18 -27 -34 13 -34 16 0 55 -12 86 -27 l56 -28 29
33 c17 19 28 39 26 45 -2 6 -28 12 -63 12 -32 1 -72 4 -89 8 -19 4 -40 1 -58
-9z"/>
<path d="M180 1992 c0 -29 3 -30 51 -37 33 -5 55 -3 62 4 17 17 -21 48 -70 56
-43 7 -43 6 -43 -23z"/>
<path d="M1534 2005 c-16 -41 43 -63 136 -50 52 7 76 25 66 50 -8 22 -194 22
-202 0z"/>
</g>
</svg>
