<?xml version="1.0" standalone="no"?>
<!DOCTYPE svg PUBLIC "-//W3C//DTD SVG 20010904//EN"
 "http://www.w3.org/TR/2001/REC-SVG-20010904/DTD/svg10.dtd">
<svg version="1.0" xmlns="http://www.w3.org/2000/svg"
 width="338.000000pt" height="289.000000pt" viewBox="0 0 338.000000 289.000000"
 preserveAspectRatio="xMidYMid meet">
<metadata>
Created by potrace 1.16, written by Peter Selinger 2001-2019
</metadata>
<g transform="translate(0.000000,289.000000) scale(0.100000,-0.100000)"
fill="#000000" stroke="none">
<path d="M1154 2115 c-4 -9 1 -59 11 -113 15 -84 34 -229 52 -395 3 -27 2 -68
-2 -93 -6 -40 -10 -45 -53 -64 -58 -26 -104 -61 -137 -105 -22 -28 -24 -37
-15 -54 16 -31 32 -26 71 22 45 53 103 87 121 69 8 -8 14 -58 16 -142 5 -139
7 -132 -51 -144 -40 -9 -100 -74 -137 -150 -28 -56 -31 -71 -24 -99 15 -50 33
-38 60 38 19 56 33 78 71 112 80 71 79 73 87 -167 6 -200 14 -260 35 -260 19
0 22 47 22 395 -1 198 3 374 7 390 8 26 13 30 40 27 49 -5 54 24 11 59 -19 16
-42 36 -51 44 -14 12 -18 31 -18 93 0 187 -42 500 -73 540 -13 17 -36 15 -43
-3z"/>
<path d="M2470 2069 c-30 -27 -91 -73 -135 -103 -89 -59 -246 -160 -297 -191
-35 -22 -47 -57 -28 -81 19 -21 36 -17 76 18 70 62 283 212 291 205 14 -15
-52 -102 -289 -380 -138 -163 -192 -236 -217 -290 -26 -58 -26 -78 0 -111 34
-44 99 -31 201 40 28 18 54 32 58 29 5 -3 -14 -54 -42 -113 -27 -59 -61 -138
-74 -176 -40 -116 -26 -219 16 -121 11 26 20 53 20 60 0 7 38 91 84 187 84
172 150 272 190 284 40 13 76 45 76 69 0 21 -3 23 -42 17 -48 -6 -68 -17 -149
-82 -82 -65 -265 -158 -281 -142 -22 22 38 115 207 317 39 46 87 105 108 132
20 26 59 75 86 108 67 83 141 194 141 210 0 8 18 35 40 60 47 55 63 82 55 95
-13 20 -42 8 -95 -41z"/>
<path d="M3136 1879 c-102 -110 -170 -237 -152 -284 10 -27 55 -38 83 -20 29
19 26 37 -7 45 -43 10 -46 5 116 207 20 25 25 41 22 74 l-3 42 -59 -64z"/>
<path d="M1622 1820 c-59 -43 -75 -79 -67 -151 4 -35 15 -68 26 -82 19 -22 19
-22 34 -3 8 11 15 37 15 59 0 21 7 54 16 73 22 47 74 83 74 52 0 -26 -84 -215
-105 -238 -47 -50 -55 -123 -20 -173 15 -21 14 -31 -12 -247 -9 -74 -18 -184
-20 -243 -5 -116 1 -137 43 -137 27 0 54 35 90 116 14 31 29 53 33 48 5 -5 4
-61 -1 -124 -8 -84 -7 -123 1 -144 24 -61 40 1 75 304 21 176 21 253 0 271
-23 19 -39 -6 -59 -99 -26 -114 -108 -268 -129 -241 -5 7 13 222 23 279 6 30
13 82 17 115 5 52 10 64 41 90 111 95 172 189 195 296 11 54 11 57 -19 100
-40 58 -64 78 -110 95 -60 21 -96 17 -141 -16z m191 -112 c21 -35 21 -36 3
-95 -10 -32 -39 -90 -65 -128 -92 -134 -94 -90 -7 140 8 22 15 56 16 76 0 61
21 64 53 7z"/>
<path d="M3173 1438 c-11 -13 -28 -38 -39 -55 -17 -31 -17 -34 -1 -50 14 -15
20 -15 42 -3 22 12 25 20 25 72 0 32 -1 58 -3 58 -2 0 -13 -10 -24 -22z"/>
<path d="M3145 1030 c-10 -11 -44 -35 -74 -52 -66 -37 -150 -98 -170 -122 -10
-12 -11 -20 -3 -28 8 -8 38 3 108 38 92 47 97 48 108 30 6 -11 28 -38 48 -60
l37 -41 1 50 c0 33 -7 60 -20 80 -23 35 -25 63 -5 89 8 11 15 23 15 28 0 15
-27 8 -45 -12z"/>
<path d="M1402 960 c-34 -21 -38 -43 -10 -48 21 -4 73 42 64 56 -10 16 -16 15
-54 -8z"/>
<path d="M2561 766 c-48 -48 -78 -70 -121 -85 -66 -24 -136 -27 -184 -7 -34
14 -76 70 -76 101 0 9 -6 15 -12 13 -21 -7 -22 -103 -2 -133 27 -42 84 -65
157 -65 75 0 124 15 188 58 49 33 139 141 139 166 0 30 -26 16 -89 -48z"/>
</g>
</svg>
