<?xml version="1.0" standalone="no"?>
<!DOCTYPE svg PUBLIC "-//W3C//DTD SVG 20010904//EN"
 "http://www.w3.org/TR/2001/REC-SVG-20010904/DTD/svg10.dtd">
<svg version="1.0" xmlns="http://www.w3.org/2000/svg"
 width="303.000000pt" height="392.000000pt" viewBox="0 0 303.000000 392.000000"
 preserveAspectRatio="xMidYMid meet">
<metadata>
Created by potrace 1.16, written by Peter Selinger 2001-2019
</metadata>
<g transform="translate(0.000000,392.000000) scale(0.100000,-0.100000)"
fill="#000000" stroke="none">
<path d="M1505 3238 c-2 -7 -11 -36 -20 -65 -28 -89 -112 -226 -186 -303 -68
-71 -121 -136 -134 -165 -35 -74 -11 -116 25 -45 26 52 142 169 235 239 56 41
76 51 97 47 32 -6 44 6 23 24 -7 6 -12 17 -9 25 8 19 -12 28 -35 15 -33 -17
-33 3 -1 100 16 50 30 103 30 116 0 25 -18 33 -25 12z"/>
<path d="M1036 3166 c-26 -25 -45 -49 -41 -55 9 -15 38 2 59 34 9 14 26 25 37
25 32 0 97 -38 121 -70 25 -35 85 -73 99 -64 5 3 -3 18 -18 34 -16 16 -41 45
-58 66 -69 87 -127 95 -199 30z"/>
<path d="M1963 2988 c4 -346 -5 -813 -17 -851 -9 -33 -18 -41 -61 -59 -76 -30
-80 -33 -80 -59 0 -20 5 -24 31 -23 17 1 49 14 73 28 23 15 45 24 50 22 8 -5
21 -181 27 -359 1 -54 8 -122 14 -152 12 -59 40 -102 58 -91 16 10 15 87 -2
149 -19 67 -48 365 -44 441 l3 60 108 56 c60 32 113 62 119 68 14 14 1 50 -23
63 -16 8 -26 5 -54 -20 -49 -43 -146 -103 -154 -96 -3 4 -6 28 -6 53 -1 26 -3
94 -5 152 -4 100 -3 105 18 116 45 22 62 49 97 155 54 162 59 299 10 299 -22
0 -26 -15 -13 -50 9 -26 8 -48 -6 -106 -19 -78 -79 -214 -95 -214 -7 0 -9 85
-8 238 2 255 -6 352 -28 352 -12 0 -14 -31 -12 -172z"/>
<path d="M525 3093 c-87 -68 -232 -103 -317 -79 -27 8 -28 7 -28 -32 l0 -41
55 -6 c64 -8 156 1 204 21 18 8 38 14 43 14 17 0 -1 -50 -61 -170 -102 -204
-142 -257 -203 -266 -38 -7 -38 -7 -37 -53 0 -36 2 -41 9 -25 8 21 58 39 72
26 4 -4 -2 -32 -12 -62 -31 -92 -35 -129 -15 -136 42 -16 194 94 249 180 50
79 83 147 91 187 5 29 2 38 -23 62 -17 16 -32 24 -36 19 -11 -18 -66 -190 -66
-207 0 -21 -131 -158 -141 -148 -11 11 22 116 43 140 8 10 18 31 22 46 4 16
45 109 91 207 47 99 85 182 85 185 0 3 16 29 35 58 34 50 41 79 29 111 -9 24
-24 19 -89 -31z"/>
<path d="M1358 2683 c-40 -45 -61 -98 -83 -211 -21 -109 -9 -184 35 -224 36
-33 54 -35 98 -8 18 11 37 18 43 15 11 -7 12 -62 3 -130 -6 -40 -13 -51 -47
-76 -22 -16 -43 -27 -47 -24 -4 3 -5 34 -2 70 7 92 -11 82 -33 -17 -9 -46 -35
-121 -58 -168 -38 -79 -61 -180 -41 -180 5 0 17 21 27 48 43 119 50 98 32 -88
-14 -134 -14 -155 -1 -168 23 -23 36 -5 36 51 0 57 19 310 25 343 5 24 81 78
100 71 17 -7 21 -533 4 -584 -14 -43 0 -62 25 -34 23 25 33 142 25 276 -11
163 -10 353 1 360 6 4 17 1 25 -5 8 -6 19 -9 25 -5 17 10 11 33 -10 40 -42 13
-48 41 -55 248 l-7 199 -35 14 c-18 8 -38 12 -44 9 -5 -4 -25 -40 -45 -82 -24
-51 -38 -73 -45 -66 -17 17 6 112 50 206 39 86 54 99 80 75 11 -11 13 -7 7 21
-13 71 -39 77 -88 24z"/>
<path d="M1846 2567 c-12 -9 -17 -23 -14 -47 4 -49 32 -52 48 -5 18 56 3 79
-34 52z"/>
<path d="M467 2323 c-12 -11 -8 -23 8 -23 25 0 35 -35 30 -111 -7 -123 -16
-172 -42 -217 -22 -39 -73 -82 -98 -82 -6 0 -9 48 -7 129 3 124 3 130 -18 141
-16 9 -25 9 -36 -1 -17 -14 -19 -79 -3 -79 12 0 6 -133 -8 -187 -7 -31 -23
-29 -23 1 0 97 -72 114 -87 20 -6 -38 -6 -39 14 -21 11 9 22 15 24 12 9 -9
-12 -211 -26 -248 -18 -45 -20 -140 -4 -135 24 8 58 126 76 266 9 71 25 48 17
-27 -4 -46 -2 -75 6 -90 9 -18 9 -26 -3 -39 -9 -9 -19 -29 -22 -44 -10 -41 16
-36 68 10 23 21 68 58 100 81 31 23 57 43 57 46 0 14 -21 55 -28 55 -5 0 -27
-16 -51 -36 -23 -20 -45 -34 -48 -31 -9 10 30 111 53 136 27 29 54 22 54 -13
0 -65 44 -22 56 54 6 40 16 54 95 130 77 75 87 88 82 113 -3 15 -9 30 -14 33
-5 3 -34 -22 -65 -55 -31 -34 -61 -61 -68 -61 -7 0 -12 37 -13 116 -2 86 -7
123 -18 140 -15 23 -44 32 -58 17z"/>
<path d="M1507 633 c-50 -82 -127 -239 -130 -264 -3 -26 11 -34 86 -50 32 -7
60 -16 63 -21 11 -17 24 -7 24 17 0 33 -42 75 -74 75 -14 0 -27 4 -30 9 -3 4
22 68 56 140 41 89 57 136 51 142 -7 7 -22 -8 -46 -48z"/>
<path d="M2000 208 l-45 -23 112 -3 c62 -1 164 -1 225 0 l113 3 -34 18 c-26
15 -63 20 -180 23 -138 5 -149 4 -191 -18z"/>
</g>
</svg>
