<?xml version="1.0" standalone="no"?>
<!DOCTYPE svg PUBLIC "-//W3C//DTD SVG 20010904//EN"
 "http://www.w3.org/TR/2001/REC-SVG-20010904/DTD/svg10.dtd">
<svg version="1.0" xmlns="http://www.w3.org/2000/svg"
 width="256.000000pt" height="313.000000pt" viewBox="0 0 256.000000 313.000000"
 preserveAspectRatio="xMidYMid meet">
<metadata>
Created by potrace 1.16, written by Peter Selinger 2001-2019
</metadata>
<g transform="translate(0.000000,313.000000) scale(0.100000,-0.100000)"
fill="#000000" stroke="none">
<path d="M1168 2386 c-43 -53 -40 -135 13 -410 18 -92 18 -101 3 -117 -28 -31
-157 -79 -214 -79 l-51 0 3 -37 c3 -38 4 -38 50 -41 50 -3 156 34 194 69 23
22 47 24 61 7 6 -7 27 -44 47 -83 40 -76 94 -132 153 -160 29 -14 53 -16 113
-12 77 5 92 11 288 112 40 20 41 32 3 40 -20 4 -48 -2 -87 -18 -76 -32 -175
-57 -225 -57 -74 0 -115 34 -173 142 -46 86 -47 120 -3 162 108 101 128 117
138 111 25 -16 -26 -117 -84 -166 -31 -26 -30 -49 1 -49 58 0 190 168 195 247
l2 38 -56 -1 c-63 -1 -82 -12 -181 -96 -69 -59 -85 -60 -94 -10 -3 20 -12 62
-19 92 -22 87 -37 219 -33 284 2 34 -1 61 -7 63 -5 1 -22 -13 -37 -31z"/>
<path d="M180 2199 c0 -92 5 -119 71 -366 39 -146 38 -157 -23 -161 l-48 -3 0
-37 0 -37 57 0 57 0 17 -95 c22 -118 24 -268 5 -315 -13 -29 -20 -34 -60 -40
-25 -4 -53 -5 -61 -1 -12 4 -15 -4 -15 -45 l0 -51 33 7 c17 4 55 19 82 34 38
21 55 38 73 75 37 76 41 125 26 294 -8 84 -12 158 -8 163 3 5 15 9 27 9 47 0
101 23 141 60 22 21 37 42 33 47 -5 4 -53 -8 -109 -27 -117 -41 -121 -39 -132
58 -8 67 -37 189 -76 322 -15 52 -31 113 -35 135 -8 45 -21 65 -41 65 -11 0
-14 -20 -14 -91z"/>
<path d="M896 2213 c-34 -53 -65 -162 -77 -268 -18 -168 -22 -364 -9 -454 16
-110 67 -226 105 -241 63 -24 129 30 159 128 18 61 17 92 -4 92 -5 0 -17 -17
-25 -37 -21 -49 -63 -103 -80 -103 -8 0 -26 20 -41 45 -38 66 -58 247 -43 405
16 179 35 282 63 340 28 58 33 99 14 118 -20 20 -37 14 -62 -25z"/>
<path d="M187 1514 c-4 -4 -7 -28 -6 -53 l1 -46 14 45 c13 40 8 70 -9 54z"/>
<path d="M756 743 c-3 -3 -6 -23 -6 -44 0 -54 67 -250 90 -264 5 -3 10 -17 10
-30 0 -25 -25 -45 -56 -45 -21 0 -135 -54 -183 -87 -19 -13 -42 -23 -51 -23
-23 0 -70 -38 -70 -56 0 -10 14 -14 58 -14 47 0 68 6 117 35 104 60 215 109
226 98 4 -4 9 -28 11 -53 2 -25 8 -45 13 -45 6 0 20 24 31 54 20 49 26 55 80
78 87 36 94 38 94 19 0 -28 -68 -153 -92 -170 -22 -15 -20 -16 33 -16 45 0 64
6 100 29 46 31 69 28 69 -10 0 -15 8 -19 40 -19 44 0 44 0 30 70 -5 26 -5 50
1 56 5 6 34 17 65 24 53 13 57 12 70 -5 8 -11 14 -44 14 -82 0 -48 3 -63 14
-63 8 0 17 8 20 18 10 35 28 271 22 287 -3 10 -15 15 -28 13 -20 -3 -23 -9
-23 -50 0 -52 -8 -66 -29 -49 -18 15 -60 5 -106 -26 -19 -12 -40 -23 -46 -23
-12 0 -54 63 -54 79 0 5 25 21 56 37 62 31 71 41 55 57 -13 13 -75 -4 -143
-39 -85 -43 -181 -75 -192 -64 -11 11 -3 45 34 143 28 75 16 89 -32 39 -28
-28 -40 -52 -50 -97 -9 -38 -18 -60 -27 -60 -15 0 -90 183 -91 220 0 37 -56
95 -74 78z"/>
</g>
</svg>
