<?xml version="1.0" standalone="no"?>
<!DOCTYPE svg PUBLIC "-//W3C//DTD SVG 20010904//EN"
 "http://www.w3.org/TR/2001/REC-SVG-20010904/DTD/svg10.dtd">
<svg version="1.0" xmlns="http://www.w3.org/2000/svg"
 width="260.000000pt" height="277.000000pt" viewBox="0 0 260.000000 277.000000"
 preserveAspectRatio="xMidYMid meet">
<metadata>
Created by potrace 1.16, written by Peter Selinger 2001-2019
</metadata>
<g transform="translate(0.000000,277.000000) scale(0.100000,-0.100000)"
fill="#000000" stroke="none">
<path d="M1094 1979 c-4 -7 -9 -42 -12 -79 -4 -60 -1 -73 23 -117 28 -53 95
-116 142 -134 15 -6 48 -14 73 -18 l45 -7 -1 -52 c-1 -29 -7 -65 -12 -80 -18
-46 -24 -92 -13 -92 23 0 80 140 81 201 0 35 -44 74 -105 94 -90 29 -104 37
-131 72 -21 28 -28 52 -35 115 -9 92 -32 133 -55 97z"/>
<path d="M2187 1912 c-9 -9 -25 -38 -36 -62 -41 -90 -18 -350 35 -397 27 -25
89 -31 122 -13 9 5 38 18 65 29 45 19 47 21 47 61 l0 41 -57 -45 c-74 -57
-107 -66 -124 -35 -24 46 -60 241 -54 296 8 67 21 77 85 68 39 -5 62 -16 96
-46 25 -21 47 -39 50 -39 2 0 4 16 4 35 0 30 -5 37 -27 46 -16 6 -39 21 -53
34 -14 13 -45 28 -70 34 -60 14 -64 14 -83 -7z"/>
<path d="M657 1793 c-4 -3 -7 -17 -7 -30 0 -16 14 -33 50 -59 40 -28 51 -43
55 -72 9 -51 13 -62 23 -62 27 0 23 119 -4 141 -8 6 -14 17 -14 25 0 7 -15 24
-33 38 -34 26 -57 32 -70 19z"/>
<path d="M370 1540 c-30 -4 -85 -11 -122 -15 l-68 -8 0 -32 0 -32 53 8 c28 4
103 12 166 19 114 11 157 23 146 41 -4 5 -17 9 -30 9 -13 0 -27 5 -30 10 -7
11 -31 11 -115 0z"/>
<path d="M903 1487 c-22 -23 -78 -95 -124 -160 -144 -202 -151 -216 -129 -258
21 -38 60 -18 60 30 0 10 13 36 29 58 16 22 32 49 35 61 4 11 24 41 44 66 37
46 139 233 130 241 -2 3 -22 -14 -45 -38z"/>
<path d="M2010 1313 c-29 -30 -40 -52 -52 -104 -19 -84 -14 -119 27 -166 38
-44 54 -38 36 13 -25 70 7 210 59 252 13 11 20 24 16 30 -14 22 -48 12 -86
-25z"/>
<path d="M2256 1202 c-25 -41 102 -222 155 -222 17 0 10 69 -8 79 -10 5 -38
40 -63 78 -43 64 -71 86 -84 65z"/>
<path d="M1053 885 c-31 -13 -50 -46 -38 -65 3 -5 27 -10 52 -10 35 0 69 -11
137 -45 90 -45 166 -67 166 -48 0 16 -131 108 -208 147 -39 20 -73 36 -74 36
-2 -1 -17 -7 -35 -15z"/>
</g>
</svg>
