<?xml version="1.0" standalone="no"?>
<!DOCTYPE svg PUBLIC "-//W3C//DTD SVG 20010904//EN"
 "http://www.w3.org/TR/2001/REC-SVG-20010904/DTD/svg10.dtd">
<svg version="1.0" xmlns="http://www.w3.org/2000/svg"
 width="225.000000pt" height="313.000000pt" viewBox="0 0 225.000000 313.000000"
 preserveAspectRatio="xMidYMid meet">
<metadata>
Created by potrace 1.16, written by Peter Selinger 2001-2019
</metadata>
<g transform="translate(0.000000,313.000000) scale(0.100000,-0.100000)"
fill="#000000" stroke="none">
<path d="M1772 1898 c-28 -30 -92 -153 -92 -179 0 -26 28 2 60 62 65 118 75
99 86 -161 9 -200 -9 -403 -37 -443 -16 -22 -18 -31 -9 -43 15 -18 54 -18 68
-1 32 38 49 569 22 698 -13 64 -33 99 -55 99 -6 0 -25 -15 -43 -32z"/>
<path d="M1465 1838 c-11 -6 -45 -33 -77 -59 l-56 -49 -59 27 c-46 22 -76 28
-144 31 -83 4 -136 -8 -125 -27 3 -4 41 -11 85 -14 61 -5 95 -14 140 -36 69
-36 78 -46 58 -69 -54 -61 -102 -199 -94 -271 6 -54 44 -94 86 -89 38 4 39 35
2 69 -36 32 -36 33 5 160 14 42 31 85 39 95 14 18 16 18 36 -9 12 -15 39 -64
60 -107 21 -44 43 -80 49 -80 6 0 15 12 20 26 9 22 5 39 -22 98 -18 39 -45 90
-61 113 l-28 43 35 43 c19 24 47 50 62 57 24 13 27 12 43 -8 18 -24 31 -20 31
8 0 17 -40 60 -56 60 -5 0 -18 -6 -29 -12z"/>
<path d="M375 1533 c-16 -2 -67 -13 -112 -26 l-83 -22 0 -38 c0 -32 3 -37 18
-33 9 2 58 17 107 31 50 15 101 30 115 34 18 6 25 15 25 32 0 26 -13 30 -70
22z"/>
<path d="M1538 1199 c-10 -5 -33 -33 -52 -62 -19 -29 -46 -63 -61 -77 -19 -18
-25 -33 -25 -66 0 -31 -7 -51 -26 -73 -30 -37 -48 -31 -39 11 4 17 4 64 0 105
-6 67 -11 79 -42 114 -44 48 -60 53 -109 33 -54 -22 -80 -49 -109 -110 -29
-61 -31 -74 -10 -74 8 0 15 4 15 9 0 5 23 35 51 65 42 46 57 56 84 56 53 0 65
-30 69 -165 3 -94 7 -120 21 -135 10 -11 24 -20 31 -20 20 0 73 71 89 121 9
25 47 89 85 140 65 87 81 128 55 135 -5 2 -18 -1 -27 -7z"/>
</g>
</svg>
