<?xml version="1.0" standalone="no"?>
<!DOCTYPE svg PUBLIC "-//W3C//DTD SVG 20010904//EN"
 "http://www.w3.org/TR/2001/REC-SVG-20010904/DTD/svg10.dtd">
<svg version="1.0" xmlns="http://www.w3.org/2000/svg"
 width="265.000000pt" height="305.000000pt" viewBox="0 0 265.000000 305.000000"
 preserveAspectRatio="xMidYMid meet">
<metadata>
Created by potrace 1.16, written by Peter Selinger 2001-2019
</metadata>
<g transform="translate(0.000000,305.000000) scale(0.100000,-0.100000)"
fill="#000000" stroke="none">
<path d="M1382 2255 c-22 -25 -50 -71 -63 -103 -12 -31 -38 -88 -57 -125 -18
-38 -42 -94 -52 -125 -19 -57 -19 -57 2 -79 14 -15 33 -23 55 -23 27 0 35 -5
44 -27 l10 -28 27 33 c19 23 35 32 56 32 50 0 110 -22 143 -53 34 -32 63 -31
63 1 0 19 -50 72 -86 90 -12 6 -43 16 -70 22 -48 11 -74 25 -74 41 0 5 14 24
31 44 26 29 28 36 15 41 -9 3 -33 2 -53 -3 -36 -8 -38 -11 -46 -61 -6 -37 -15
-55 -29 -63 -29 -15 -47 4 -30 31 6 11 12 28 12 37 0 10 15 41 32 68 17 28 42
68 54 91 25 48 89 133 111 149 25 19 12 50 -23 53 -26 3 -38 -4 -72 -43z"/>
<path d="M2457 2184 c-3 -3 -77 -11 -164 -17 -148 -11 -158 -13 -161 -33 -6
-39 22 -48 131 -47 55 1 124 8 153 14 54 12 54 12 54 51 0 38 -2 43 -13 32z"/>
<path d="M997 2103 c-13 -12 -7 -71 8 -83 22 -19 18 -78 -10 -135 -26 -53 -31
-80 -16 -89 13 -8 71 61 71 83 0 10 6 24 14 30 38 32 23 148 -24 181 -31 22
-34 23 -43 13z"/>
<path d="M2435 1938 c-16 -5 -89 -18 -162 -28 -145 -20 -188 -35 -188 -65 0
-17 7 -20 50 -20 28 0 74 3 103 7 41 6 52 4 52 -7 0 -8 -9 -19 -19 -25 -28
-15 -78 -93 -101 -158 -22 -63 -15 -115 19 -146 17 -15 25 -16 54 -7 40 14 83
56 92 91 7 28 49 80 65 80 5 0 10 -21 10 -47 0 -81 27 -234 44 -251 15 -15 16
-2 16 149 0 133 -3 169 -16 187 -27 38 -52 27 -135 -59 -69 -73 -99 -90 -99
-57 0 6 20 44 45 86 25 41 45 84 45 96 1 11 14 36 30 55 24 28 37 35 79 39
l51 5 0 43 c0 24 -1 44 -2 43 -2 0 -16 -5 -33 -11z"/>
<path d="M894 1685 c-4 -9 -1 -42 7 -73 22 -91 18 -213 -11 -311 l-24 -83 23
-19 c31 -25 46 -19 46 18 0 16 5 41 12 54 72 150 84 181 79 195 -6 16 -8 16
-24 0 -10 -9 -21 -16 -23 -16 -2 0 -4 37 -4 83 0 64 -5 91 -21 122 -23 43 -50
57 -60 30z"/>
<path d="M1368 1547 c-28 -13 -88 -76 -132 -141 -32 -47 -33 -84 -4 -121 14
-18 23 -44 23 -69 2 -55 25 -101 50 -101 17 0 19 6 17 35 -2 19 -12 48 -24 64
-19 26 -20 33 -8 85 6 31 14 67 16 80 7 35 75 111 99 111 11 -1 36 -9 55 -18
31 -15 36 -23 44 -70 7 -43 4 -73 -14 -155 -28 -127 -33 -135 -97 -186 -57
-44 -65 -64 -34 -81 29 -15 35 -13 80 23 22 17 61 48 86 67 50 39 56 60 23 82
-21 14 -21 15 -4 57 24 61 37 180 25 224 -6 23 -28 52 -60 81 -55 49 -88 57
-141 33z"/>
<path d="M181 1030 c1 -149 3 -177 11 -145 16 59 16 301 1 316 -11 10 -13 -24
-12 -171z"/>
</g>
</svg>
