<?xml version="1.0" standalone="no"?>
<!DOCTYPE svg PUBLIC "-//W3C//DTD SVG 20010904//EN"
 "http://www.w3.org/TR/2001/REC-SVG-20010904/DTD/svg10.dtd">
<svg version="1.0" xmlns="http://www.w3.org/2000/svg"
 width="229.000000pt" height="315.000000pt" viewBox="0 0 229.000000 315.000000"
 preserveAspectRatio="xMidYMid meet">
<metadata>
Created by potrace 1.16, written by Peter Selinger 2001-2019
</metadata>
<g transform="translate(0.000000,315.000000) scale(0.100000,-0.100000)"
fill="#000000" stroke="none">
<path d="M907 2657 c-63 -50 -107 -90 -107 -97 0 -4 -25 -52 -55 -108 -80
-145 -104 -232 -65 -232 14 0 25 12 36 38 19 44 71 149 104 211 13 24 44 63
68 85 82 76 99 166 19 103z"/>
<path d="M2087 2289 c-23 -70 -22 -138 3 -169 l20 -25 0 123 c0 67 -2 122 -3
122 -2 0 -11 -23 -20 -51z"/>
<path d="M1120 2190 c-36 -4 -117 -8 -180 -9 -79 -1 -140 -7 -195 -22 -225
-57 -280 -69 -295 -64 -10 3 -27 -7 -45 -25 l-29 -30 26 -26 c23 -23 28 -25
49 -13 13 7 62 23 109 36 273 75 269 75 411 75 74 1 141 -2 147 -6 18 -11 1
-35 -57 -80 -27 -22 -48 -43 -45 -48 8 -12 100 40 153 87 25 23 58 49 74 58
32 20 34 37 9 60 -20 18 -28 18 -132 7z"/>
<path d="M663 1915 l-18 -37 38 -34 c31 -29 44 -34 86 -34 27 0 62 5 76 10 15
6 25 6 23 1 -4 -12 -138 -130 -192 -170 -115 -84 3 -142 167 -81 53 20 61 16
47 -26 -50 -151 -64 -213 -62 -278 3 -68 23 -136 40 -136 5 0 9 41 10 92 2
100 13 144 85 318 38 93 47 106 82 126 44 24 52 47 18 52 -32 5 -29 16 17 66
38 42 52 87 31 100 -5 4 -32 -12 -59 -34 -39 -30 -55 -52 -72 -97 -27 -73 -51
-98 -109 -118 -64 -21 -140 -34 -146 -25 -3 4 28 35 68 68 39 34 104 90 142
126 60 55 68 67 59 83 -16 26 -56 27 -110 3 -59 -25 -110 -33 -149 -22 -26 7
-30 14 -30 42 0 46 -21 49 -42 5z"/>
<path d="M2050 1736 c-88 -55 -94 -61 -87 -79 10 -26 57 -21 105 10 37 24 42
32 42 65 0 21 -1 38 -3 38 -1 0 -27 -15 -57 -34z"/>
<path d="M1086 1362 c-11 -18 17 -87 51 -129 20 -24 50 -47 70 -54 31 -10 102
-6 139 8 28 11 13 23 -28 23 -62 0 -108 27 -145 85 -43 65 -73 89 -87 67z"/>
</g>
</svg>
