<?xml version="1.0" standalone="no"?>
<!DOCTYPE svg PUBLIC "-//W3C//DTD SVG 20010904//EN"
 "http://www.w3.org/TR/2001/REC-SVG-20010904/DTD/svg10.dtd">
<svg version="1.0" xmlns="http://www.w3.org/2000/svg"
 width="233.000000pt" height="322.000000pt" viewBox="0 0 233.000000 322.000000"
 preserveAspectRatio="xMidYMid meet">
<metadata>
Created by potrace 1.16, written by Peter Selinger 2001-2019
</metadata>
<g transform="translate(0.000000,322.000000) scale(0.100000,-0.100000)"
fill="#000000" stroke="none">
<path d="M486 2315 c-21 -32 -20 -37 9 -65 23 -22 25 -22 31 -4 3 10 10 31 16
46 5 15 7 32 3 37 -11 19 -42 12 -59 -14z"/>
<path d="M1491 1984 c-29 -13 -63 -24 -75 -24 -11 0 -41 -8 -66 -16 -55 -20
-121 -20 -218 1 -84 17 -92 18 -92 7 0 -4 25 -20 56 -35 l56 -28 -8 -37 c-5
-20 -9 -104 -9 -187 0 -145 1 -151 27 -196 30 -50 81 -79 140 -79 56 0 141
111 109 143 -6 6 -11 39 -11 74 0 57 -2 64 -24 74 -20 10 -30 8 -54 -10 -39
-27 -42 -27 -42 7 0 34 39 91 103 150 67 61 84 57 91 -20 3 -23 7 -51 11 -60
4 -9 0 -32 -9 -50 -18 -41 -37 -160 -26 -171 4 -5 23 22 41 60 36 71 37 81 26
278 -2 39 0 41 46 63 52 25 66 44 47 67 -18 21 -57 18 -119 -11z m-134 -121
c1 -4 -19 -25 -45 -47 -57 -46 -58 -48 -77 -109 -18 -59 -8 -89 37 -117 45
-27 57 -25 55 8 -2 21 2 27 18 27 25 0 38 -56 24 -108 -11 -41 -56 -77 -96
-77 -38 0 -73 59 -85 142 -13 96 -11 267 3 284 8 10 32 13 88 9 42 -2 77 -7
78 -12z"/>
<path d="M1693 1958 c-11 -13 -23 -32 -26 -43 -3 -11 -16 -50 -30 -87 -28 -75
-19 -101 12 -39 12 22 25 42 31 46 5 3 10 15 10 26 0 27 30 37 46 14 7 -10 15
-36 18 -59 3 -22 13 -106 23 -186 10 -80 18 -210 18 -290 0 -131 -2 -148 -21
-175 -44 -63 -34 -91 22 -63 63 30 83 243 44 462 -10 60 -22 141 -25 180 -9
99 -40 201 -67 221 -29 19 -31 19 -55 -7z"/>
<path d="M1372 1164 c-12 -8 -22 -21 -22 -29 0 -7 -11 -27 -25 -43 -14 -17
-25 -35 -25 -42 0 -7 -15 -38 -34 -69 -39 -65 -56 -118 -56 -180 0 -39 5 -48
43 -85 132 -125 169 -106 183 94 8 108 -13 194 -51 212 -29 13 -32 34 -9 66
22 32 39 27 74 -23 33 -48 50 -55 70 -30 23 27 0 75 -54 112 -55 38 -63 39
-94 17z m-2 -203 c5 -11 10 -66 10 -122 0 -81 -3 -106 -17 -121 -24 -27 -43
-22 -85 19 -54 52 -50 97 16 201 29 46 59 55 76 23z"/>
</g>
</svg>
