<?xml version="1.0" standalone="no"?>
<!DOCTYPE svg PUBLIC "-//W3C//DTD SVG 20010904//EN"
 "http://www.w3.org/TR/2001/REC-SVG-20010904/DTD/svg10.dtd">
<svg version="1.0" xmlns="http://www.w3.org/2000/svg"
 width="266.000000pt" height="272.000000pt" viewBox="0 0 266.000000 272.000000"
 preserveAspectRatio="xMidYMid meet">
<metadata>
Created by potrace 1.16, written by Peter Selinger 2001-2019
</metadata>
<g transform="translate(0.000000,272.000000) scale(0.100000,-0.100000)"
fill="#000000" stroke="none">
<path d="M773 2438 c-22 -28 -60 -184 -84 -343 -12 -78 -14 -239 -4 -255 18
-29 31 4 42 106 6 60 21 150 33 199 11 50 25 117 31 150 7 38 20 69 35 86 29
31 30 45 5 59 -26 13 -46 13 -58 -2z"/>
<path d="M2404 2086 c-10 -26 3 -45 38 -54 31 -8 33 -7 36 21 4 34 5 33 -36
42 -24 5 -33 3 -38 -9z"/>
<path d="M800 2064 c-20 -23 -6 -47 34 -60 68 -24 154 14 115 51 -21 19 -135
27 -149 9z"/>
<path d="M860 1756 c-69 -26 -205 -95 -231 -118 -39 -33 -48 -114 -18 -152 38
-48 73 -60 143 -46 34 6 71 18 83 26 42 27 125 105 160 150 l34 45 -21 34
c-22 35 -77 76 -101 74 -8 0 -30 -6 -49 -13z m85 -86 c11 -18 -16 -50 -91
-107 -61 -46 -84 -57 -123 -61 -40 -3 -52 -1 -70 17 -26 26 -27 72 -3 93 24
21 81 50 117 59 45 11 163 10 170 -1z"/>
<path d="M2400 1715 c-19 -22 5 -45 46 -45 31 0 34 3 34 30 0 27 -3 30 -34 30
-18 0 -39 -7 -46 -15z"/>
<path d="M2437 1373 c-89 -36 -242 -354 -187 -388 17 -11 39 14 38 43 -1 60
35 125 115 208 71 75 78 86 75 117 l-3 35 -38 -15z"/>
<path d="M493 1323 c-3 -10 -14 -27 -24 -38 -25 -29 -72 -201 -64 -237 8 -32
43 -55 71 -44 15 6 15 9 -6 31 -21 22 -22 26 -9 77 7 29 21 65 31 80 10 14 18
31 18 38 0 7 7 27 16 46 9 19 14 41 10 49 -7 21 -35 19 -43 -2z"/>
<path d="M724 1274 c-13 -31 -14 -45 -5 -75 17 -56 41 -80 87 -86 47 -6 71 13
40 31 -47 28 -58 44 -69 100 -14 72 -32 81 -53 30z"/>
<path d="M937 1273 c-12 -11 -8 -21 24 -58 28 -31 30 -39 25 -82 -3 -28 0 -69
8 -98 11 -42 17 -50 37 -50 24 0 24 0 23 111 -1 105 -2 113 -29 148 -20 26
-35 36 -55 36 -14 0 -30 -3 -33 -7z"/>
<path d="M1153 1244 c-14 -36 -7 -158 11 -209 23 -64 52 -95 88 -95 15 0 28 3
28 6 0 4 -16 24 -35 45 -26 29 -35 48 -35 73 0 45 -28 178 -40 190 -6 6 -12 2
-17 -10z"/>
<path d="M2446 1131 c-3 -5 3 -16 14 -26 19 -17 20 -17 20 2 0 21 -25 39 -34
24z"/>
</g>
</svg>
