<?xml version="1.0" standalone="no"?>
<!DOCTYPE svg PUBLIC "-//W3C//DTD SVG 20010904//EN"
 "http://www.w3.org/TR/2001/REC-SVG-20010904/DTD/svg10.dtd">
<svg version="1.0" xmlns="http://www.w3.org/2000/svg"
 width="286.000000pt" height="379.000000pt" viewBox="0 0 286.000000 379.000000"
 preserveAspectRatio="xMidYMid meet">
<metadata>
Created by potrace 1.16, written by Peter Selinger 2001-2019
</metadata>
<g transform="translate(0.000000,379.000000) scale(0.100000,-0.100000)"
fill="#000000" stroke="none">
<path d="M180 3550 c0 -33 4 -60 9 -60 10 0 27 41 36 88 6 29 5 32 -19 32 -25
0 -26 -2 -26 -60z"/>
<path d="M1006 3548 c7 -67 23 -113 39 -113 6 0 11 39 13 88 l3 87 -30 0 -31
0 6 -62z"/>
<path d="M1350 3536 c0 -81 13 -130 33 -124 6 3 13 18 15 34 5 46 15 47 69 11
65 -43 143 -55 220 -32 54 16 144 82 198 146 l28 34 -26 3 c-18 2 -41 -9 -78
-38 -82 -65 -105 -74 -189 -74 -94 0 -135 20 -159 75 -15 37 -18 39 -63 39
l-48 0 0 -74z"/>
<path d="M1975 3505 c-4 -58 -13 -129 -21 -157 -10 -38 -10 -55 -2 -65 37 -45
97 124 98 275 l0 52 -34 0 -34 0 -7 -105z"/>
<path d="M2574 2577 c-36 -25 -174 -185 -251 -291 -61 -81 -158 -270 -148
-285 13 -22 32 -10 54 37 19 40 52 91 131 206 38 55 143 175 184 209 36 29 53
37 85 37 35 0 41 3 43 23 3 42 -2 62 -19 75 -24 17 -43 14 -79 -11z"/>
<path d="M1252 2513 c-5 -10 -15 -36 -22 -58 -7 -22 -16 -45 -21 -51 -13 -16
-50 -220 -43 -237 3 -9 1 -24 -5 -35 -8 -15 -6 -23 8 -36 22 -20 61 -20 108
-1 20 8 39 13 42 10 6 -6 0 -16 -56 -100 -39 -57 -40 -73 -12 -109 25 -31 56
-33 109 -6 43 22 130 27 174 10 21 -8 26 -16 26 -44 0 -43 15 -54 41 -30 14
12 19 30 19 66 0 43 -3 50 -31 67 -45 27 -157 36 -205 16 -83 -34 -73 8 31
135 126 154 149 201 108 217 -12 5 -34 -12 -82 -65 -55 -60 -76 -75 -125 -92
-33 -11 -72 -20 -88 -20 -34 0 -37 20 -9 82 28 63 82 189 94 220 10 24 8 31
-13 53 -28 30 -36 31 -48 8z"/>
<path d="M755 2510 c-4 -6 -4 -28 0 -49 9 -53 -11 -186 -47 -306 -36 -126 -40
-185 -13 -215 30 -33 79 -20 128 36 21 24 44 44 50 44 6 0 23 -12 38 -26 17
-16 34 -24 43 -21 20 8 21 51 1 67 -19 16 -19 60 0 86 21 28 18 61 -7 75 -18
10 -24 8 -40 -12 -11 -13 -27 -40 -36 -60 -25 -52 -108 -143 -122 -134 -16 10
-8 61 25 159 13 41 29 108 35 148 6 40 13 84 16 98 3 16 -4 42 -19 70 -26 46
-41 58 -52 40z"/>
<path d="M2340 1922 c-86 -81 -108 -131 -78 -185 6 -12 14 -38 18 -57 3 -21
12 -36 21 -38 13 -2 19 12 28 73 14 94 32 139 65 160 40 26 67 16 94 -37 23
-44 24 -59 29 -275 5 -232 -1 -300 -27 -314 -63 -35 -111 -49 -131 -39 -11 6
-35 10 -52 8 -29 -3 -33 0 -44 34 -7 20 -13 94 -13 165 -2 146 -19 248 -51
299 -20 32 -23 34 -37 20 -14 -14 -14 -24 1 -103 9 -49 18 -150 21 -226 5
-156 20 -199 69 -205 16 -2 36 -15 49 -33 32 -43 84 -40 179 11 24 12 29 3 29
-50 0 -25 6 -55 14 -66 14 -18 15 -18 25 9 6 16 11 51 11 79 0 28 10 79 22
114 21 61 21 64 4 83 -13 15 -17 28 -12 48 14 57 18 276 6 356 -12 83 -32 127
-89 190 -41 44 -87 38 -151 -21z"/>
<path d="M1355 1681 c-7 -12 12 -24 25 -16 11 7 4 25 -10 25 -5 0 -11 -4 -15
-9z"/>
<path d="M1283 1631 c-17 -11 -43 -40 -57 -64 -43 -73 -106 -238 -113 -294 -5
-49 -4 -53 18 -62 34 -12 39 -6 39 49 0 27 4 51 9 55 11 6 36 58 73 148 12 31
39 79 59 106 27 36 34 52 27 65 -11 20 -16 20 -55 -3z"/>
<path d="M2311 1544 c-28 -36 -26 -55 8 -88 l29 -28 14 28 c7 16 24 31 38 34
17 4 26 14 28 30 8 52 -81 70 -117 24z"/>
<path d="M1350 1543 c-1 -10 -9 -36 -20 -58 -37 -76 -21 -186 40 -280 50 -76
97 -113 174 -137 79 -25 123 -18 226 33 94 47 111 69 83 108 -26 34 -63 41
-63 11 0 -16 -15 -28 -67 -53 -84 -38 -131 -39 -198 -4 -75 39 -92 56 -121
122 -22 49 -28 79 -32 168 -2 59 -8 107 -13 107 -5 0 -9 -8 -9 -17z"/>
<path d="M937 1543 c-3 -5 -14 -38 -26 -75 -11 -37 -39 -107 -62 -155 -76
-160 -79 -171 -71 -210 8 -41 35 -64 52 -47 6 6 22 56 35 110 13 55 33 125 44
157 18 48 51 192 51 220 0 4 -4 7 -9 7 -6 0 -12 -3 -14 -7z"/>
</g>
</svg>
