<?xml version="1.0" standalone="no"?>
<!DOCTYPE svg PUBLIC "-//W3C//DTD SVG 20010904//EN"
 "http://www.w3.org/TR/2001/REC-SVG-20010904/DTD/svg10.dtd">
<svg version="1.0" xmlns="http://www.w3.org/2000/svg"
 width="289.000000pt" height="335.000000pt" viewBox="0 0 289.000000 335.000000"
 preserveAspectRatio="xMidYMid meet">
<metadata>
Created by potrace 1.16, written by Peter Selinger 2001-2019
</metadata>
<g transform="translate(0.000000,335.000000) scale(0.100000,-0.100000)"
fill="#000000" stroke="none">
<path d="M2039 2488 c-12 -24 -32 -56 -44 -73 -11 -16 -27 -52 -33 -79 -7 -27
-24 -73 -38 -102 -28 -60 -44 -164 -25 -164 6 0 11 5 11 10 0 6 7 10 15 10 19
0 13 -55 -36 -315 -11 -60 -24 -146 -29 -190 -14 -126 -21 -155 -36 -155 -8 0
-14 10 -14 24 0 35 -18 42 -31 13 -8 -18 -8 -30 0 -45 6 -11 11 -33 11 -49 0
-56 59 -105 101 -83 17 10 19 22 19 114 0 87 3 105 18 119 10 10 24 17 30 17
18 0 26 21 28 73 4 93 71 114 93 29 14 -52 15 -254 2 -332 -6 -36 -12 -73 -13
-84 -2 -10 5 -23 15 -30 50 -31 73 91 66 341 -4 110 -6 123 -31 161 -33 50
-82 65 -123 38 -36 -24 -39 -7 -23 106 7 51 12 129 11 173 -2 71 -5 82 -26
100 l-24 20 18 40 c10 22 19 46 19 53 0 7 11 31 26 53 45 72 64 109 64 126 0
10 14 32 32 50 31 32 31 33 13 53 -27 30 -42 25 -66 -22z"/>
<path d="M2548 2498 c-45 -60 -60 -147 -47 -259 5 -40 13 -123 19 -184 22
-228 86 -361 164 -341 23 6 26 12 26 46 0 37 -1 39 -19 28 -40 -25 -49 0 -91
252 -25 146 -34 320 -21 397 15 90 5 111 -31 61z"/>
<path d="M1459 2424 c-34 -37 -63 -50 -158 -69 -57 -12 -104 -15 -143 -11 -42
5 -65 3 -86 -8 l-29 -15 -6 -173 c-3 -95 -11 -225 -17 -288 -12 -120 -1 -399
21 -525 26 -155 97 -293 171 -331 37 -19 61 -18 91 6 40 31 142 233 186 366
22 65 44 133 51 149 37 100 120 426 120 472 0 13 5 23 10 23 6 0 11 -32 12
-72 2 -86 2 -83 -7 -263 -7 -124 -6 -142 9 -154 20 -17 30 -8 33 27 1 15 7 52
13 82 25 124 7 657 -24 720 -8 17 -20 25 -36 25 -24 0 -25 -4 -32 -80 -4 -44
-14 -138 -23 -210 -8 -71 -16 -148 -19 -170 -6 -70 -27 -159 -42 -183 -9 -13
-21 -51 -29 -85 -40 -181 -133 -428 -208 -549 -33 -54 -58 -61 -101 -27 -36
28 -52 62 -81 171 -41 151 -51 339 -34 613 8 127 14 269 14 318 0 72 3 87 16
87 20 0 153 -94 179 -127 26 -34 26 -38 -14 -126 -103 -225 -127 -318 -128
-493 0 -115 2 -138 17 -155 27 -29 41 -24 80 34 32 48 77 104 189 232 103 119
101 169 -9 345 -48 77 -48 76 -41 114 7 37 95 223 127 267 49 69 -14 125 -72
63z m-56 -159 c-6 -74 -68 -100 -103 -42 -11 17 -18 37 -17 42 4 10 94 35 112
30 6 -1 9 -15 8 -30z m8 -293 c39 -88 59 -155 59 -203 0 -45 -3 -50 -60 -102
-33 -30 -74 -75 -91 -100 -33 -50 -55 -63 -76 -45 -33 27 15 224 118 486 12
30 24 22 50 -36z"/>
<path d="M2616 2391 c-32 -33 -32 -69 -1 -61 11 2 37 4 58 5 36 0 37 1 37 36
0 57 -49 67 -94 20z"/>
<path d="M324 2215 c-27 -19 -60 -43 -74 -52 -61 -41 -70 -54 -70 -107 l0 -50
58 56 c51 50 89 78 107 78 11 0 -6 -62 -30 -110 -30 -58 -52 -78 -95 -82 -33
-3 -35 -6 -38 -40 -3 -36 -2 -38 26 -38 45 0 98 26 126 62 13 18 41 67 60 108
28 58 36 87 36 130 0 90 -28 101 -106 45z"/>
<path d="M560 2175 c-11 -13 -9 -20 10 -40 21 -22 22 -30 16 -87 -15 -128 -25
-184 -41 -238 -10 -30 -23 -82 -31 -116 -7 -33 -22 -89 -34 -125 -11 -35 -20
-73 -20 -83 0 -11 -6 -27 -14 -35 -8 -9 -28 -52 -46 -96 -17 -44 -40 -95 -51
-114 -26 -43 -9 -66 17 -25 10 16 35 51 56 77 52 66 91 152 128 282 17 61 40
134 50 163 11 29 20 69 20 90 0 20 4 53 9 72 5 19 12 79 16 133 l6 97 -30 30
c-33 34 -43 36 -61 15z"/>
<path d="M180 1650 c0 -44 16 -52 43 -22 16 17 15 20 -6 40 -32 30 -37 28 -37
-18z"/>
<path d="M2535 1669 c-13 -20 59 -63 130 -78 44 -10 37 -33 -17 -59 -53 -25
-62 -50 -30 -85 9 -10 22 -44 27 -75 9 -52 13 -57 37 -60 l28 -3 -1 72 c-1 40
-6 83 -12 96 -8 17 -7 27 1 35 7 7 12 42 12 83 l0 71 -37 0 c-21 0 -59 3 -84
8 -34 6 -49 4 -54 -5z"/>
<path d="M246 1510 c-26 -22 -52 -40 -57 -40 -5 0 -9 -62 -9 -137 1 -124 2
-136 15 -119 10 13 15 44 15 91 0 71 0 72 40 103 37 31 60 77 60 125 0 25 -10
22 -64 -23z"/>
<path d="M2692 1227 c-7 -26 -15 -73 -18 -105 -5 -46 -3 -60 10 -71 9 -8 19
-12 22 -9 2 3 3 57 2 119 -3 113 -3 113 -16 66z"/>
<path d="M419 1062 c-20 -15 -82 -43 -138 -62 l-101 -34 0 -37 0 -37 120 41
c161 55 162 55 100 -118 -33 -93 -37 -146 -11 -169 11 -10 27 -16 34 -13 20 8
47 91 47 144 0 46 14 153 31 237 15 79 -16 98 -82 48z"/>
<path d="M1984 455 c-11 -42 21 -68 74 -61 56 8 82 22 82 46 0 27 -30 40 -94
40 -51 0 -56 -2 -62 -25z"/>
</g>
</svg>
