<?xml version="1.0" standalone="no"?>
<!DOCTYPE svg PUBLIC "-//W3C//DTD SVG 20010904//EN"
 "http://www.w3.org/TR/2001/REC-SVG-20010904/DTD/svg10.dtd">
<svg version="1.0" xmlns="http://www.w3.org/2000/svg"
 width="407.000000pt" height="370.000000pt" viewBox="0 0 407.000000 370.000000"
 preserveAspectRatio="xMidYMid meet">
<metadata>
Created by potrace 1.16, written by Peter Selinger 2001-2019
</metadata>
<g transform="translate(0.000000,370.000000) scale(0.100000,-0.100000)"
fill="#000000" stroke="none">
<path d="M3271 3488 c115 -83 242 -256 312 -428 29 -71 74 -238 88 -330 39
-247 -1 -584 -103 -875 -54 -155 -171 -360 -267 -471 -20 -22 -47 -54 -61 -70
-31 -35 -181 -173 -271 -247 -196 -163 -512 -335 -747 -409 -89 -27 -257 -58
-320 -58 -29 0 -63 -5 -74 -11 -21 -11 -21 -12 -3 -25 14 -10 45 -12 129 -7
163 8 319 47 471 117 28 13 73 31 101 40 29 9 80 35 115 56 35 22 91 54 123
71 224 117 566 439 690 649 68 114 169 343 199 450 80 281 106 489 88 705 -13
155 -33 256 -78 380 -69 193 -151 332 -266 453 -40 41 -43 42 -106 42 l-64 0
44 -32z"/>
<path d="M1097 3042 c-10 -10 -17 -31 -17 -46 0 -15 -7 -40 -15 -56 -8 -16
-26 -57 -39 -92 -13 -35 -51 -132 -85 -216 -61 -153 -83 -232 -64 -232 9 0 83
138 83 153 0 5 51 112 149 317 17 36 38 76 46 90 21 36 19 77 -4 90 -27 14
-35 13 -54 -8z"/>
<path d="M1742 2933 c-34 -66 -36 -153 -6 -271 7 -30 16 -143 20 -260 3 -114
12 -236 19 -271 11 -53 11 -69 0 -95 -68 -158 -77 -227 -20 -152 32 42 37 43
93 16 50 -24 64 -25 105 -4 128 65 212 223 191 360 -8 54 -12 60 -49 81 -48
27 -95 29 -124 6 -12 -10 -45 -54 -74 -97 -29 -44 -58 -81 -65 -84 -20 -6 -12
148 8 159 8 4 46 22 85 39 130 58 212 142 191 196 -5 12 -16 7 -53 -25 -27
-22 -69 -49 -94 -60 -26 -10 -65 -31 -88 -46 -23 -14 -46 -23 -51 -20 -6 4
-10 53 -10 110 0 57 -5 116 -10 131 -6 15 -13 80 -16 143 -3 64 -7 126 -10
139 -5 26 -30 29 -42 5z m342 -718 c-1 -72 -24 -121 -87 -186 -52 -55 -101
-75 -142 -59 -25 9 -27 14 -22 45 7 42 67 132 140 209 45 48 59 57 83 54 29
-3 29 -4 28 -63z"/>
<path d="M1217 2672 c-27 -28 -37 -46 -37 -70 0 -59 -23 -97 -66 -110 -22 -6
-70 -32 -109 -57 -38 -26 -83 -49 -98 -52 -38 -8 -62 -45 -47 -72 6 -12 20
-21 32 -21 11 0 73 29 137 65 64 36 120 65 124 65 4 0 7 -13 7 -28 0 -19 -11
-39 -34 -61 -19 -18 -62 -78 -96 -132 -76 -121 -77 -151 -7 -173 14 -5 17 -18
17 -84 0 -59 5 -87 21 -117 17 -34 18 -45 9 -75 -14 -44 -9 -152 7 -157 6 -2
23 16 38 41 31 52 52 73 64 60 5 -5 4 -74 -1 -154 l-10 -144 27 -23 c30 -26
54 -28 107 -9 72 26 166 123 141 146 -4 5 -37 -10 -73 -31 -45 -28 -74 -39
-95 -37 l-30 3 0 150 c0 83 -4 159 -8 170 -3 11 -1 30 6 41 68 118 91 187 107
315 17 144 -2 211 -70 254 -28 18 -40 32 -40 49 0 31 16 43 79 62 39 11 54 21
61 40 22 58 -1 79 -48 44 -16 -12 -40 -20 -53 -18 -20 2 -25 10 -27 40 -2 21
1 53 7 73 5 19 6 37 2 40 -4 2 -24 -13 -44 -33z m65 -397 c8 -17 8 -48 2 -102
-9 -79 -27 -106 -37 -56 -4 15 -11 51 -18 78 -19 82 23 145 53 80z m-112 -33
c0 -10 -11 -29 -25 -42 -22 -21 -25 -21 -31 -6 -4 11 2 26 16 42 28 29 40 31
40 6z m4 -239 c7 -131 0 -178 -29 -178 -29 0 -52 150 -35 220 13 50 36 88 50
80 4 -3 10 -58 14 -122z"/>
<path d="M1912 1628 c-20 -20 -14 -47 21 -88 32 -39 77 -54 92 -30 7 11 -22
58 -63 103 -29 31 -33 32 -50 15z"/>
<path d="M1688 1613 c-25 -29 -30 -141 -9 -188 22 -49 55 -80 76 -72 19 8 19
28 0 74 -8 19 -15 64 -15 100 0 62 -12 103 -29 103 -4 0 -15 -8 -23 -17z"/>
<path d="M2093 1604 c-15 -24 -15 -29 -2 -53 19 -33 63 -41 78 -13 8 15 7 23
-5 33 -9 7 -20 23 -25 36 -11 30 -25 29 -46 -3z"/>
<path d="M2263 1614 c-3 -8 3 -25 14 -37 21 -23 53 -107 53 -138 0 -62 -208
-278 -336 -350 -44 -24 -83 -46 -89 -48 -5 -2 -32 -14 -60 -26 -83 -38 -174
-72 -306 -114 -137 -45 -171 -63 -153 -81 14 -14 98 5 242 54 56 20 107 36
114 36 11 0 74 29 277 126 108 52 120 60 249 187 163 160 208 239 134 234 -21
-2 -26 2 -24 16 2 10 -4 29 -12 42 -9 14 -16 33 -16 43 0 24 -44 72 -65 72 -9
0 -18 -7 -22 -16z"/>
</g>
</svg>
