<?xml version="1.0" standalone="no"?>
<!DOCTYPE svg PUBLIC "-//W3C//DTD SVG 20010904//EN"
 "http://www.w3.org/TR/2001/REC-SVG-20010904/DTD/svg10.dtd">
<svg version="1.0" xmlns="http://www.w3.org/2000/svg"
 width="311.000000pt" height="335.000000pt" viewBox="0 0 311.000000 335.000000"
 preserveAspectRatio="xMidYMid meet">
<metadata>
Created by potrace 1.16, written by Peter Selinger 2001-2019
</metadata>
<g transform="translate(0.000000,335.000000) scale(0.100000,-0.100000)"
fill="#000000" stroke="none">
<path d="M1150 3125 c-17 -24 -50 -58 -73 -74 -83 -57 -83 -78 0 -65 52 8 84
35 135 113 36 57 36 71 -2 71 -23 0 -35 -9 -60 -45z"/>
<path d="M2136 3130 c-76 -62 -256 -243 -256 -257 0 -7 3 -13 8 -13 4 0 52 39
107 86 168 146 243 205 249 195 3 -5 1 -43 -4 -85 -8 -65 -7 -81 9 -118 25
-58 51 -80 92 -76 43 4 65 47 79 158 5 47 13 100 16 118 5 27 3 32 -13 32 -15
0 -23 -13 -36 -53 -9 -30 -17 -61 -17 -70 0 -17 -44 -105 -61 -122 -6 -5 -13
-5 -20 2 -14 14 -14 178 0 216 l11 27 -58 0 c-51 -1 -62 -5 -106 -40z"/>
<path d="M2322 3128 c4 -54 20 -58 38 -11 8 21 16 41 18 46 2 4 -10 7 -28 7
-30 0 -31 -1 -28 -42z"/>
<path d="M2464 2918 c-32 -36 -48 -68 -77 -146 -31 -84 -87 -176 -116 -192
-24 -12 -26 -29 -8 -54 13 -18 15 -17 54 2 42 22 53 40 93 162 33 98 70 192
85 213 8 12 15 25 15 29 0 16 -27 7 -46 -14z"/>
<path d="M2706 2807 c-32 -26 -23 -44 15 -32 11 4 34 1 50 -6 42 -17 58 0 35
35 -21 33 -61 34 -100 3z"/>
<path d="M483 2403 c-49 -77 -62 -108 -69 -165 -5 -44 -3 -56 11 -68 15 -13
19 -12 31 5 8 10 14 30 14 44 0 26 26 116 51 178 9 23 10 36 3 43 -7 7 -20 -4
-41 -37z"/>
<path d="M2562 2313 c-67 -68 -128 -158 -112 -168 4 -3 21 11 37 31 15 20 52
61 81 90 60 61 103 75 161 54 77 -27 110 -70 185 -239 10 -21 11 -16 14 38 3
54 -1 69 -28 117 -17 30 -46 65 -63 78 -47 36 -123 66 -168 66 -36 0 -47 -7
-107 -67z"/>
<path d="M1645 2230 c-11 -4 -31 -19 -44 -34 -21 -22 -22 -26 -7 -32 9 -3 27
1 41 10 56 37 155 6 225 -70 40 -44 92 -143 126 -244 26 -76 26 -255 0 -320
-43 -109 -46 -151 -8 -116 33 29 71 119 83 195 18 117 -14 273 -86 425 -31 66
-113 151 -170 177 -41 19 -125 24 -160 9z"/>
<path d="M2251 1825 c-43 -50 -40 -74 19 -137 27 -29 50 -56 50 -60 0 -5 7 -8
15 -8 34 0 3 77 -39 100 -16 8 -26 22 -26 36 0 33 20 40 40 14 32 -42 90 1 71
53 -9 24 -36 37 -77 37 -13 0 -35 -15 -53 -35z"/>
<path d="M1784 1766 c-24 -24 -44 -48 -44 -55 0 -16 25 -14 40 4 7 9 17 12 21
8 5 -5 -15 -56 -44 -114 -82 -166 -138 -223 -167 -169 -16 29 -29 25 -46 -15
-32 -76 -8 -174 54 -222 33 -25 45 -28 107 -27 60 0 82 6 155 40 97 46 224
149 234 190 13 49 -9 47 -64 -5 -28 -27 -70 -59 -93 -71 -23 -11 -57 -32 -76
-45 -49 -36 -168 -70 -197 -57 -42 20 -104 128 -88 154 4 6 24 7 48 4 36 -6
45 -3 62 16 26 29 70 109 120 218 21 47 51 100 66 118 33 39 34 48 9 62 -34
18 -52 11 -97 -34z"/>
<path d="M2895 1590 c-22 -42 -20 -123 3 -143 10 -10 22 -17 25 -17 11 0 8 35
-3 46 -8 8 -8 19 0 38 13 35 13 106 0 106 -5 0 -16 -13 -25 -30z"/>
<path d="M2140 1586 c-34 -11 -35 -13 -33 -60 2 -51 54 -168 96 -213 24 -27
71 -30 121 -9 61 25 276 248 276 286 0 21 -20 8 -75 -51 -104 -113 -221 -199
-271 -199 -21 0 -52 42 -104 142 -22 43 -23 49 -9 63 13 13 24 13 103 -1 49
-8 105 -22 126 -30 43 -17 91 -15 98 4 6 20 -85 54 -172 63 -45 5 -90 11 -101
13 -11 2 -36 -1 -55 -8z"/>
<path d="M2912 1273 c-8 -14 -9 -24 -2 -28 12 -7 24 18 18 37 -3 8 -9 5 -16
-9z"/>
<path d="M2897 1204 c-35 -19 -34 -57 1 -62 25 -4 35 13 30 51 -3 25 -4 25
-31 11z"/>
<path d="M1070 265 c-18 -47 -9 -80 21 -83 27 -3 27 -3 18 45 -12 61 -25 75
-39 38z"/>
</g>
</svg>
