<?xml version="1.0" standalone="no"?>
<!DOCTYPE svg PUBLIC "-//W3C//DTD SVG 20010904//EN"
 "http://www.w3.org/TR/2001/REC-SVG-20010904/DTD/svg10.dtd">
<svg version="1.0" xmlns="http://www.w3.org/2000/svg"
 width="242.000000pt" height="385.000000pt" viewBox="0 0 242.000000 385.000000"
 preserveAspectRatio="xMidYMid meet">
<metadata>
Created by potrace 1.16, written by Peter Selinger 2001-2019
</metadata>
<g transform="translate(0.000000,385.000000) scale(0.100000,-0.100000)"
fill="#000000" stroke="none">
<path d="M1495 2778 c-16 -6 -50 -27 -75 -47 -51 -41 -354 -321 -358 -331 -1
-3 5 -13 15 -21 22 -19 193 -89 213 -88 8 0 35 14 60 29 25 16 59 37 75 46 51
28 165 106 165 113 0 15 -25 31 -49 31 -24 0 -68 -23 -154 -78 -19 -13 -40
-36 -46 -53 -11 -33 -24 -36 -66 -13 -16 9 -48 22 -70 29 -72 22 -62 40 92
153 76 56 153 112 172 124 67 46 105 84 98 101 -7 19 -28 20 -72 5z"/>
<path d="M1918 2684 c-87 -27 -176 -172 -166 -268 3 -24 20 -75 38 -115 27
-57 47 -84 111 -141 42 -39 89 -90 102 -115 92 -163 66 -503 -40 -530 -37 -9
-84 23 -111 75 -45 87 -18 227 64 336 24 31 31 54 16 54 -22 0 -114 -112 -142
-172 -70 -149 -43 -276 71 -333 101 -52 171 -22 224 96 58 131 57 305 -5 452
-26 63 -48 94 -119 170 -92 98 -143 186 -121 212 27 33 180 49 292 30 40 -6
49 -5 54 9 11 30 -19 46 -112 60 -74 11 -98 11 -142 0 -131 -34 -136 -7 -23
121 21 24 47 42 65 45 36 6 48 30 14 29 -12 -1 -44 -8 -70 -15z"/>
<path d="M213 2468 c-28 -9 -33 -16 -33 -41 l0 -30 48 7 c50 7 97 34 97 57 0
18 -67 22 -112 7z"/>
<path d="M943 2299 c-15 -23 -38 -61 -50 -85 -24 -47 -42 -54 -64 -27 -17 20
-77 46 -89 38 -19 -12 -9 -38 27 -71 l37 -34 -17 -35 c-21 -43 -21 -45 -3 -45
7 0 21 11 30 25 19 29 53 32 116 10 24 -8 46 -12 49 -9 3 3 -11 20 -32 37 -43
37 -46 55 -13 86 l24 23 12 -24 c40 -76 70 -67 69 21 -1 126 -45 167 -96 90z"/>
<path d="M1200 2114 c-47 -14 -102 -37 -122 -51 -53 -36 -87 -108 -39 -83 43
23 131 60 143 60 8 0 18 4 24 9 17 16 163 32 185 21 37 -20 10 -150 -32 -150
-10 0 -34 -9 -54 -21 -35 -21 -65 -20 -65 2 0 6 16 26 35 43 27 25 32 35 23
44 -7 7 -20 12 -29 12 -19 0 -79 -63 -126 -131 -22 -32 -49 -55 -88 -74 -31
-16 -58 -33 -61 -37 -3 -4 0 -23 7 -41 9 -26 8 -39 -5 -71 -25 -60 -21 -94 11
-107 35 -13 59 -7 114 31 51 34 79 38 79 12 0 -30 -36 -125 -62 -168 -14 -21
-28 -52 -32 -68 -4 -16 -20 -48 -37 -72 -20 -30 -26 -45 -17 -50 10 -7 62 44
114 113 21 27 24 27 119 28 79 0 100 3 108 16 6 9 7 24 4 33 -6 14 -11 15 -28
5 -25 -13 -98 -4 -124 15 -18 13 -18 16 4 74 28 73 22 113 -20 143 -35 25 -54
20 -110 -27 -23 -19 -49 -34 -58 -32 -26 5 -24 42 4 68 14 13 25 29 25 35 0
35 214 181 250 170 24 -8 107 65 126 112 58 138 -59 198 -266 137z"/>
<path d="M213 2043 c-30 -4 -33 -8 -33 -37 l0 -33 43 10 c76 17 112 33 112 47
0 16 -57 22 -122 13z"/>
<path d="M804 1855 c-10 -38 14 -83 62 -115 70 -49 85 -36 34 28 -16 20 -36
54 -45 75 -18 43 -42 48 -51 12z"/>
<path d="M218 1473 c-35 -4 -38 -7 -38 -34 l0 -31 78 7 c96 9 125 19 120 43
-3 14 -15 17 -63 18 -33 1 -77 -1 -97 -3z"/>
<path d="M180 260 l0 -80 1030 0 1030 0 0 81 0 81 -37 -7 c-155 -31 -888 -33
-1638 -5 -143 6 -288 10 -322 10 l-63 0 0 -80z"/>
</g>
</svg>
