<?xml version="1.0" standalone="no"?>
<!DOCTYPE svg PUBLIC "-//W3C//DTD SVG 20010904//EN"
 "http://www.w3.org/TR/2001/REC-SVG-20010904/DTD/svg10.dtd">
<svg version="1.0" xmlns="http://www.w3.org/2000/svg"
 width="329.000000pt" height="271.000000pt" viewBox="0 0 329.000000 271.000000"
 preserveAspectRatio="xMidYMid meet">
<metadata>
Created by potrace 1.16, written by Peter Selinger 2001-2019
</metadata>
<g transform="translate(0.000000,271.000000) scale(0.100000,-0.100000)"
fill="#000000" stroke="none">
<path d="M2209 1470 c-50 -26 -103 -91 -145 -176 -41 -82 -56 -198 -34 -256
45 -119 71 -140 168 -141 53 -1 79 5 127 27 61 28 128 37 146 19 6 -6 -10 -48
-47 -119 -31 -60 -67 -130 -81 -156 -13 -27 -28 -48 -33 -48 -6 0 -27 12 -49
28 -57 41 -120 67 -132 55 -7 -7 11 -30 60 -74 39 -35 71 -72 71 -82 0 -10
-12 -35 -27 -55 -63 -84 -118 -149 -147 -174 -23 -20 -28 -29 -20 -38 9 -9 17
-9 32 -1 21 11 128 130 175 194 16 20 34 37 40 37 7 0 51 -38 97 -85 47 -47
104 -97 127 -110 44 -26 101 -32 134 -14 26 14 15 29 -22 29 -17 0 -40 5 -52
11 -30 15 -237 228 -237 244 0 7 8 23 18 36 25 33 114 182 146 246 33 66 33
84 -1 118 -27 26 -31 27 -101 21 -47 -4 -97 -16 -143 -36 -39 -16 -82 -30 -94
-30 -39 0 -82 45 -99 104 -21 70 -20 87 5 168 37 117 122 188 225 188 43 0 63
24 40 49 -15 16 -79 42 -102 41 -5 -1 -25 -10 -45 -20z"/>
<path d="M1706 1342 c-2 -4 -6 -105 -7 -224 -2 -167 0 -220 10 -232 18 -21 26
-20 61 5 62 47 77 -4 35 -118 -71 -190 -91 -283 -69 -325 13 -25 12 -35 -8
-95 -21 -60 -28 -69 -68 -90 -25 -13 -58 -37 -75 -53 l-30 -30 81 0 c44 0 85
5 91 11 8 8 17 8 31 0 11 -6 47 -11 79 -10 42 0 52 3 38 9 -11 5 -40 26 -64
47 l-44 39 27 72 c30 85 32 119 9 159 -16 28 -15 33 40 194 31 90 59 183 63
206 5 36 3 43 -16 53 -12 6 -47 12 -78 13 l-57 2 -1 160 c0 96 -5 171 -12 188
-11 27 -26 35 -36 19z"/>
<path d="M1585 731 c-43 -27 -88 -78 -81 -90 4 -6 33 -11 65 -11 69 0 90 17
94 76 2 35 -1 39 -23 42 -14 1 -38 -6 -55 -17z"/>
<path d="M3055 584 c-41 -21 -121 -101 -135 -135 -14 -32 1 -69 26 -69 9 0 49
21 90 48 l74 47 0 63 c0 68 -5 72 -55 46z"/>
</g>
</svg>
