<?xml version="1.0" standalone="no"?>
<!DOCTYPE svg PUBLIC "-//W3C//DTD SVG 20010904//EN"
 "http://www.w3.org/TR/2001/REC-SVG-20010904/DTD/svg10.dtd">
<svg version="1.0" xmlns="http://www.w3.org/2000/svg"
 width="293.000000pt" height="390.000000pt" viewBox="0 0 293.000000 390.000000"
 preserveAspectRatio="xMidYMid meet">
<metadata>
Created by potrace 1.16, written by Peter Selinger 2001-2019
</metadata>
<g transform="translate(0.000000,390.000000) scale(0.100000,-0.100000)"
fill="#000000" stroke="none">
<path d="M517 3661 c-92 -32 -172 -62 -178 -68 -20 -20 1 -34 39 -27 78 13
442 137 442 150 0 2 -30 4 -67 3 -55 -1 -100 -12 -236 -58z"/>
<path d="M1745 3687 c-117 -76 -328 -186 -460 -239 -129 -51 -334 -98 -433
-98 -29 0 -63 -5 -74 -11 -21 -11 -21 -12 -3 -25 14 -10 45 -12 129 -7 163 8
319 47 471 117 28 13 73 31 101 40 28 9 78 33 110 53 33 20 93 55 134 78 41
23 102 60 134 83 l59 42 -59 0 c-50 0 -67 -5 -109 -33z"/>
<path d="M2639 2527 c-27 -22 -28 -27 -44 -187 -2 -19 -6 -53 -9 -75 -8 -60
-12 -453 -4 -460 3 -4 13 4 21 17 14 22 31 150 57 438 6 63 15 140 21 170 12
62 9 112 -6 117 -5 1 -22 -7 -36 -20z"/>
<path d="M1640 2451 c-33 -18 -106 -107 -143 -176 -41 -74 -95 -239 -103 -316
-6 -49 -4 -58 18 -84 l25 -28 94 57 c123 75 184 93 257 76 63 -14 124 -67 156
-135 55 -115 15 -376 -69 -455 -26 -25 -32 -45 -15 -55 14 -9 49 12 93 54 31
29 44 54 69 135 28 91 30 107 24 190 -5 79 -11 101 -43 165 -43 83 -83 123
-161 159 -80 36 -145 28 -271 -34 -53 -26 -100 -48 -106 -49 -48 -2 97 336
166 387 33 25 79 90 79 113 0 20 -27 18 -70 -4z"/>
<path d="M929 2421 c-20 -22 -40 -55 -44 -73 -4 -18 -46 -107 -92 -198 -141
-275 -223 -495 -194 -523 16 -15 37 11 51 65 37 134 224 499 249 484 13 -8 20
-163 10 -200 -6 -21 -24 -46 -46 -63 -68 -51 -93 -81 -93 -108 0 -42 26 -41
80 4 74 62 75 61 86 -81 l6 -93 -78 -72 c-44 -39 -104 -91 -134 -115 -62 -50
-72 -81 -28 -86 33 -4 113 52 181 128 26 29 53 50 60 47 9 -3 17 -49 26 -148
12 -138 31 -293 50 -427 10 -64 32 -112 52 -112 7 0 9 14 6 38 -4 20 -11 107
-17 192 -6 85 -15 211 -20 279 -6 68 -10 170 -10 227 0 56 -5 115 -10 129 -17
46 -1 181 27 222 34 50 28 78 -17 78 l-35 1 -6 69 c-4 39 -7 105 -8 148 -1 74
1 80 28 105 45 42 49 70 15 98 -40 32 -51 30 -95 -15z"/>
<path d="M715 1710 c-10 -11 -15 -23 -12 -27 8 -7 47 25 47 39 0 14 -16 9 -35
-12z"/>
<path d="M1728 1689 c-37 -21 -49 -72 -64 -277 -6 -79 -5 -84 12 -80 15 2 24
24 42 103 13 55 34 129 47 164 32 83 16 121 -37 90z"/>
<path d="M1540 1607 c-30 -29 -63 -71 -74 -94 -16 -36 -16 -44 -5 -69 8 -15
27 -32 44 -37 26 -9 32 -7 62 28 41 47 43 69 7 62 -15 -2 -28 0 -30 7 -5 14
26 88 51 123 32 42 -2 30 -55 -20z"/>
<path d="M2536 1411 c-10 -11 -16 -31 -14 -48 3 -26 6 -28 47 -26 56 3 78 22
61 52 -10 19 -47 41 -69 41 -4 0 -16 -9 -25 -19z"/>
<path d="M2733 348 c-4 -7 -15 -33 -23 -58 -11 -31 -28 -54 -58 -77 l-44 -33
71 0 71 0 0 90 c0 91 -2 100 -17 78z"/>
<path d="M1573 200 c-34 -14 -28 -20 18 -20 28 0 39 4 37 13 -6 16 -27 18 -55
7z"/>
</g>
</svg>
