<?xml version="1.0" standalone="no"?>
<!DOCTYPE svg PUBLIC "-//W3C//DTD SVG 20010904//EN"
 "http://www.w3.org/TR/2001/REC-SVG-20010904/DTD/svg10.dtd">
<svg version="1.0" xmlns="http://www.w3.org/2000/svg"
 width="372.000000pt" height="334.000000pt" viewBox="0 0 372.000000 334.000000"
 preserveAspectRatio="xMidYMid meet">
<metadata>
Created by potrace 1.16, written by Peter Selinger 2001-2019
</metadata>
<g transform="translate(0.000000,334.000000) scale(0.100000,-0.100000)"
fill="#000000" stroke="none">
<path d="M190 3141 c0 -20 38 -73 41 -56 1 6 2 25 3 42 1 28 -3 33 -21 33 -16
0 -23 -6 -23 -19z"/>
<path d="M483 3123 c7 -41 29 -69 46 -59 6 4 11 27 11 52 0 43 -1 44 -31 44
-31 0 -31 -1 -26 -37z"/>
<path d="M688 3098 l-3 -61 -46 -26 c-26 -14 -82 -46 -125 -71 -127 -71 -184
-98 -225 -105 -41 -7 -65 -34 -55 -62 12 -30 85 -6 305 100 119 58 230 109
246 112 73 16 97 28 105 51 5 13 16 24 25 24 28 0 15 19 -19 29 -25 6 -46 5
-76 -5 -23 -8 -46 -12 -52 -8 -5 3 -8 24 -6 45 4 39 4 39 -34 39 l-37 0 -3
-62z"/>
<path d="M1759 3058 c-7 -57 -18 -112 -26 -123 -18 -27 -16 -64 3 -72 10 -4
30 8 57 35 l40 41 5 110 5 111 -36 0 -35 0 -13 -102z"/>
<path d="M3182 3122 c-11 -21 -23 -65 -26 -98 -7 -55 -6 -61 18 -83 l26 -25
-22 -23 c-21 -22 -21 -23 -3 -43 10 -11 30 -20 45 -20 30 0 51 20 103 100 20
30 56 69 79 86 30 21 43 38 43 55 0 31 -44 48 -77 30 -38 -20 -65 -36 -79 -48
-8 -6 -24 -14 -36 -17 -20 -6 -23 -4 -23 18 0 14 9 40 20 58 27 44 26 48 -14
48 -29 0 -37 -5 -54 -38z"/>
<path d="M1780 2544 c-61 -19 -127 -33 -157 -33 -29 -1 -85 -7 -125 -15 -99
-20 -230 -34 -368 -41 -251 -13 -340 -23 -340 -39 0 -37 353 -40 640 -6 246
30 249 30 335 52 148 36 163 39 202 36 35 -3 38 -5 36 -31 -2 -31 -91 -135
-168 -197 -208 -167 -301 -240 -342 -268 -26 -18 -64 -43 -83 -57 -19 -13 -45
-29 -57 -34 -13 -6 -23 -14 -23 -19 0 -5 -26 -26 -57 -46 -32 -20 -85 -57
-118 -82 -33 -24 -74 -54 -92 -65 -66 -42 -48 -95 29 -92 24 1 74 10 111 19
75 18 141 66 195 140 72 99 131 133 255 149 48 6 70 26 50 46 -5 5 -36 12 -70
15 -53 6 -64 4 -91 -16 -16 -12 -36 -20 -43 -18 -7 2 22 28 66 58 180 120 351
252 409 318 58 64 70 58 62 -33 -4 -42 -9 -82 -12 -90 -5 -12 -38 -36 -106
-79 -29 -17 -37 -36 -15 -36 7 0 29 9 50 19 20 10 39 15 42 11 3 -4 -4 -34
-15 -66 -11 -33 -20 -65 -20 -73 0 -26 -98 -218 -146 -288 -62 -91 -94 -123
-118 -123 -67 -1 -185 -64 -271 -145 -38 -37 -85 -78 -103 -93 -41 -31 -111
-134 -119 -174 -10 -50 51 -90 85 -56 10 10 8 16 -10 30 -23 17 -23 17 -4 51
25 48 175 177 311 267 30 20 75 27 75 12 0 -4 -7 -18 -16 -30 -32 -46 -2 -35
46 17 43 47 52 53 77 47 15 -4 39 -15 53 -25 38 -29 32 -73 -24 -166 -67 -109
-184 -223 -286 -277 -48 -25 -86 -70 -76 -87 9 -14 63 -14 71 -1 4 6 30 25 58
44 80 51 202 164 251 232 53 73 106 190 106 234 0 24 -9 41 -35 66 -19 18 -44
36 -55 39 -29 9 -25 32 13 79 79 97 148 243 206 429 15 49 34 93 42 98 42 26
207 -3 355 -64 119 -49 129 -61 94 -109 -11 -16 -27 -48 -35 -71 -8 -23 -22
-67 -33 -97 -28 -81 -35 -143 -22 -205 12 -59 23 -69 81 -80 79 -15 184 78
250 223 23 48 50 105 60 128 10 23 19 56 19 74 0 17 9 43 20 57 30 39 27 54
-10 41 -38 -13 -179 17 -187 40 -4 8 1 26 9 41 9 14 30 53 48 86 18 33 41 72
51 87 24 33 24 38 1 38 -24 0 -47 -26 -117 -135 -33 -49 -62 -94 -66 -98 -4
-5 -44 9 -90 31 -77 37 -108 47 -249 82 -25 6 -74 9 -110 8 l-65 -3 -8 105
c-5 69 -4 120 3 148 13 51 4 67 -47 89 -54 22 -147 14 -263 -23z m979 -554
c30 -5 58 -13 63 -18 5 -5 -19 -65 -59 -143 -80 -158 -151 -243 -199 -237 -39
4 -48 44 -28 128 13 56 54 186 85 269 10 26 4 26 138 1z m-1323 -110 c-20 -22
-36 -45 -36 -51 0 -22 -87 -112 -130 -134 -51 -26 -110 -41 -110 -28 0 24 274
253 302 253 6 0 -6 -18 -26 -40z"/>
<path d="M2933 2198 c-3 -385 -23 -570 -88 -818 -70 -262 -123 -386 -185 -428
-18 -12 -59 -32 -91 -43 -77 -28 -87 -41 -53 -68 59 -46 155 -7 227 93 83 117
113 189 172 430 63 259 75 369 81 750 4 307 3 341 -12 357 -10 11 -24 19 -33
19 -15 0 -17 -30 -18 -292z"/>
</g>
</svg>
