<?xml version="1.0" standalone="no"?>
<!DOCTYPE svg PUBLIC "-//W3C//DTD SVG 20010904//EN"
 "http://www.w3.org/TR/2001/REC-SVG-20010904/DTD/svg10.dtd">
<svg version="1.0" xmlns="http://www.w3.org/2000/svg"
 width="313.000000pt" height="370.000000pt" viewBox="0 0 313.000000 370.000000"
 preserveAspectRatio="xMidYMid meet">
<metadata>
Created by potrace 1.16, written by Peter Selinger 2001-2019
</metadata>
<g transform="translate(0.000000,370.000000) scale(0.100000,-0.100000)"
fill="#000000" stroke="none">
<path d="M2083 3458 c12 -71 28 -133 37 -142 16 -16 32 45 25 99 -8 57 -19 75
-47 75 -17 0 -19 -5 -15 -32z"/>
<path d="M271 2448 c-13 -7 -38 -40 -55 -73 -30 -58 -31 -65 -34 -209 l-3
-149 30 -24 c26 -21 29 -28 24 -61 -3 -20 -15 -47 -27 -60 -17 -19 -21 -38
-24 -105 l-2 -82 20 49 c10 27 27 84 35 125 20 96 31 121 50 121 43 0 63 141
24 176 -15 13 -24 16 -36 8 -25 -16 -27 -34 -4 -34 11 0 22 -4 25 -9 7 -11
-13 -72 -30 -90 -12 -13 -17 -12 -39 9 -20 19 -25 33 -25 69 1 84 18 132 66
183 25 27 42 53 39 59 -5 7 -13 5 -25 -6 -10 -9 -21 -12 -24 -7 -6 10 27 43
62 61 16 8 22 20 20 34 -4 26 -33 32 -67 15z"/>
<path d="M1450 2423 c-102 -20 -319 -170 -334 -229 -13 -49 9 -47 64 5 28 27
70 59 93 71 23 11 57 32 76 45 49 36 168 70 197 57 42 -20 104 -128 88 -154
-4 -6 -24 -7 -48 -4 -36 6 -45 3 -62 -16 -26 -29 -70 -109 -120 -218 -21 -47
-51 -100 -66 -118 -15 -18 -28 -37 -28 -42 0 -16 41 -32 65 -26 23 6 95 78 95
96 0 15 -26 12 -40 -5 -7 -9 -17 -12 -21 -8 -5 5 15 56 44 114 82 166 138 223
167 169 16 -29 29 -25 46 15 31 76 8 174 -54 221 -36 28 -103 39 -162 27z"/>
<path d="M883 2295 c-60 -26 -273 -249 -273 -285 0 -21 20 -8 75 51 104 113
221 199 271 199 21 0 52 -42 104 -142 22 -43 23 -49 9 -63 -13 -13 -24 -13
-103 1 -49 8 -105 22 -126 30 -43 17 -91 15 -98 -4 -14 -42 284 -96 347 -62
21 11 23 17 17 59 -6 49 -64 171 -99 209 -24 26 -74 29 -124 7z"/>
<path d="M1221 2164 c-61 -78 -90 -209 -72 -330 24 -161 89 -312 168 -389 69
-67 122 -89 198 -83 46 4 62 10 88 36 26 27 28 32 14 38 -10 3 -28 -1 -42 -10
-80 -52 -220 26 -288 162 -95 189 -112 372 -47 515 34 74 22 113 -19 61z"/>
<path d="M860 1965 c0 -28 27 -70 54 -85 16 -8 26 -22 26 -36 0 -33 -20 -40
-40 -14 -30 40 -87 2 -73 -49 6 -24 39 -41 78 -41 29 0 85 62 85 95 0 14 -19
44 -50 77 -27 29 -50 56 -50 61 0 4 -7 7 -15 7 -8 0 -15 -7 -15 -15z"/>
<path d="M240 1571 c0 -78 77 -242 134 -286 46 -35 123 -65 167 -65 36 0 47 7
107 68 67 67 128 157 112 167 -4 3 -21 -11 -37 -31 -62 -81 -134 -143 -170
-150 -42 -8 -94 8 -139 42 -35 25 -87 123 -143 267 -15 39 -31 33 -31 -12z"/>
<path d="M2750 1421 c-5 -11 -10 -30 -10 -43 0 -23 -27 -115 -51 -175 -9 -23
-10 -36 -3 -43 10 -10 50 43 87 116 23 45 33 130 17 149 -17 20 -27 19 -40 -4z"/>
<path d="M889 1070 c-38 -20 -50 -42 -89 -160 -33 -98 -69 -190 -86 -216 -19
-28 -11 -43 14 -28 27 17 67 84 92 154 29 83 83 173 117 198 25 18 26 22 15
46 -14 31 -16 31 -63 6z"/>
<path d="M395 830 c-12 -19 23 -60 51 -60 28 0 89 38 79 49 -4 3 -23 7 -43 7
-21 1 -47 4 -58 8 -13 5 -25 3 -29 -4z"/>
<path d="M826 715 c-27 -40 -56 -230 -56 -362 0 -65 -5 -99 -20 -130 l-19 -43
54 0 c53 0 55 1 85 45 44 64 74 82 106 65 18 -10 27 -11 35 -3 17 17 4 30 -36
37 -41 8 -55 26 -30 40 62 37 385 341 385 363 0 7 -3 13 -8 13 -4 0 -52 -39
-107 -86 -168 -146 -243 -205 -249 -195 -3 5 -1 43 4 84 10 83 -1 129 -43 175
-29 31 -79 30 -101 -3z m100 -46 c3 -6 6 -51 6 -100 0 -73 -5 -98 -26 -144
-14 -30 -30 -55 -35 -55 -15 0 -14 6 5 45 16 35 16 96 -1 102 -5 1 -18 -17
-28 -42 -18 -43 -45 -65 -34 -27 3 9 10 40 17 67 21 81 62 165 81 165 4 0 11
-5 15 -11z m-86 -383 c0 -2 -3 -11 -6 -20 -9 -23 -24 -20 -24 4 0 11 7 20 15
20 8 0 15 -2 15 -4z"/>
<path d="M2135 615 c-5 -2 -22 -6 -37 -9 -62 -14 -157 -193 -193 -364 l-13
-63 36 3 c36 3 36 4 49 64 17 87 50 181 78 223 13 20 50 56 81 81 31 25 57 50
58 55 1 10 -40 17 -59 10z"/>
<path d="M585 410 c-33 -9 -82 -26 -110 -37 -27 -11 -63 -24 -80 -29 -40 -13
-38 -34 5 -48 30 -9 37 -18 51 -61 14 -45 19 -50 48 -53 33 -3 33 -3 17 20
-27 39 -21 48 29 41 45 -6 45 -6 110 61 36 36 65 72 65 80 0 19 -33 46 -56 45
-10 -1 -46 -9 -79 -19z m99 -8 c7 -12 -3 -24 -58 -72 -39 -33 -55 -41 -76 -36
-15 2 -32 0 -39 -7 -8 -8 -14 -8 -22 0 -16 16 -4 43 18 43 39 0 96 23 126 50
34 31 43 35 51 22z"/>
</g>
</svg>
