<?xml version="1.0" standalone="no"?>
<!DOCTYPE svg PUBLIC "-//W3C//DTD SVG 20010904//EN"
 "http://www.w3.org/TR/2001/REC-SVG-20010904/DTD/svg10.dtd">
<svg version="1.0" xmlns="http://www.w3.org/2000/svg"
 width="353.000000pt" height="410.000000pt" viewBox="0 0 353.000000 410.000000"
 preserveAspectRatio="xMidYMid meet">
<metadata>
Created by potrace 1.16, written by Peter Selinger 2001-2019
</metadata>
<g transform="translate(0.000000,410.000000) scale(0.100000,-0.100000)"
fill="#000000" stroke="none">
<path d="M3238 3153 c-9 -10 -25 -54 -36 -98 -56 -219 -99 -362 -181 -600 -88
-260 -100 -294 -126 -350 -24 -54 -92 -217 -145 -350 -150 -377 -190 -516
-190 -659 0 -62 4 -87 15 -96 20 -17 22 -8 29 120 7 142 24 191 283 830 198
489 286 729 337 923 19 73 47 159 61 190 32 69 30 101 -6 105 -15 2 -32 -4
-41 -15z"/>
<path d="M187 3093 c-4 -3 -7 -19 -7 -35 l0 -29 24 28 c13 15 22 31 19 35 -5
10 -27 10 -36 1z"/>
<path d="M1741 2991 c-35 -20 -80 -51 -100 -67 -57 -47 -128 -94 -144 -94 -25
0 -53 -39 -41 -57 6 -9 15 -18 20 -20 10 -3 85 45 189 122 59 43 85 54 85 36
0 -30 -147 -333 -218 -451 -25 -41 -58 -101 -74 -133 -31 -64 -143 -207 -162
-207 -23 0 -54 30 -60 58 -4 15 -1 72 4 127 6 55 13 120 16 144 4 36 0 49 -18
68 l-22 24 19 56 c11 31 31 73 44 92 38 57 102 201 99 225 -2 14 -11 22 -30
24 -20 2 -52 -16 -135 -76 -148 -109 -208 -165 -200 -186 12 -30 49 -17 108
37 91 81 146 127 153 127 16 0 -1 -42 -90 -219 -53 -104 -94 -198 -92 -208 4
-19 41 -23 83 -9 20 7 21 4 20 -127 0 -128 1 -137 23 -160 27 -29 83 -43 111
-28 50 27 249 341 396 626 43 83 81 155 85 160 16 23 51 135 45 144 -11 19
-49 10 -114 -28z"/>
<path d="M223 2659 c-42 -10 -43 -11 -43 -50 0 -37 1 -39 21 -28 34 18 42 -2
23 -52 -9 -24 -23 -51 -31 -60 -16 -19 -17 -56 -2 -61 6 -2 12 -28 14 -58 2
-30 7 -92 11 -137 6 -84 -2 -106 -24 -60 -9 19 -11 15 -11 -29 -1 -43 2 -52
23 -63 41 -23 61 -11 59 34 0 22 -3 104 -5 181 l-3 142 78 76 c43 42 81 75 86
72 21 -14 51 -169 76 -396 50 -471 51 -530 10 -530 -8 0 -15 -7 -15 -15 0 -27
38 -16 64 18 29 38 34 102 16 198 -6 30 -15 127 -20 216 -5 90 -13 189 -19
220 -5 32 -15 92 -21 133 -19 132 -48 193 -111 233 -31 20 -123 28 -176 16z
m132 -59 c7 -12 -64 -92 -76 -84 -11 6 5 40 34 72 22 24 33 27 42 12z"/>
<path d="M1696 2561 c-10 -16 5 -40 37 -59 18 -10 70 -49 117 -86 88 -71 157
-112 168 -101 10 10 -154 163 -227 213 -62 42 -85 50 -95 33z"/>
<path d="M1603 2433 c-35 -53 -16 -491 22 -523 20 -17 25 2 13 51 -6 26 -8
132 -6 267 3 122 1 225 -3 228 -5 2 -16 -8 -26 -23z"/>
<path d="M771 498 c-5 -13 -12 -48 -16 -78 -4 -30 -18 -91 -31 -134 -13 -44
-24 -85 -24 -93 0 -10 19 -13 73 -13 50 0 67 3 57 10 -8 5 -27 10 -42 10 -36
0 -39 8 -22 55 46 124 61 265 29 265 -9 0 -19 -10 -24 -22z"/>
<path d="M389 303 c-5 -15 -9 -47 -7 -72 3 -42 6 -46 31 -49 26 -3 27 -2 27
45 0 48 -17 103 -33 103 -4 0 -12 -12 -18 -27z"/>
<path d="M1919 263 c-1 -5 -2 -25 -3 -45 -1 -37 0 -38 33 -38 33 0 33 0 26 37
-4 21 -9 41 -11 45 -7 10 -44 10 -45 1z"/>
<path d="M3322 225 l-22 -45 25 0 c23 0 25 4 25 45 0 25 -1 45 -3 45 -2 0 -13
-20 -25 -45z"/>
<path d="M1819 200 l-24 -19 54 -1 c53 0 54 0 36 20 -23 25 -37 25 -66 0z"/>
</g>
</svg>
