<?xml version="1.0" standalone="no"?>
<!DOCTYPE svg PUBLIC "-//W3C//DTD SVG 20010904//EN"
 "http://www.w3.org/TR/2001/REC-SVG-20010904/DTD/svg10.dtd">
<svg version="1.0" xmlns="http://www.w3.org/2000/svg"
 width="306.000000pt" height="293.000000pt" viewBox="0 0 306.000000 293.000000"
 preserveAspectRatio="xMidYMid meet">
<metadata>
Created by potrace 1.16, written by Peter Selinger 2001-2019
</metadata>
<g transform="translate(0.000000,293.000000) scale(0.100000,-0.100000)"
fill="#000000" stroke="none">
<path d="M257 1890 c-73 -40 -77 -55 -77 -316 0 -180 3 -242 16 -283 14 -48
14 -55 0 -70 -17 -18 -23 -76 -7 -67 17 11 29 -19 41 -99 15 -99 77 -350 96
-387 21 -40 53 -58 105 -58 41 0 54 6 98 42 28 24 51 50 51 59 0 23 -46 63
-65 56 -8 -4 -18 -20 -22 -37 -8 -43 -56 -76 -92 -64 -45 16 -74 129 -121 463
l-10 74 48 51 c77 82 101 119 128 197 23 63 27 91 27 194 1 138 -11 189 -52
229 -40 39 -110 45 -164 16z m84 -40 c10 -6 31 -34 46 -63 35 -70 38 -190 5
-292 -21 -68 -109 -211 -128 -209 -10 1 -16 27 -39 169 -33 199 -4 366 68 395
29 11 26 11 48 0z"/>
<path d="M1780 1862 c0 -5 8 -17 19 -26 27 -24 32 -81 32 -367 0 -249 -5 -302
-39 -424 -18 -64 -46 -98 -165 -198 -94 -80 -61 -110 39 -36 57 42 129 73 151
65 19 -8 17 -100 -3 -139 -9 -18 -26 -42 -37 -55 -28 -30 -10 -51 30 -36 40
14 54 53 61 167 l5 100 -28 23 -29 23 18 53 c29 88 45 259 46 496 0 244 -11
318 -53 347 -24 16 -47 20 -47 7z"/>
<path d="M1326 1831 c-3 -5 0 -35 8 -68 8 -32 18 -118 21 -190 7 -125 6 -135
-15 -175 -12 -24 -41 -64 -65 -89 -44 -47 -70 -87 -62 -96 9 -9 43 15 56 40
16 30 68 70 75 59 6 -10 -16 -77 -45 -131 -25 -49 -18 -64 32 -59 29 3 34 8
40 35 9 44 26 63 59 63 35 0 60 -28 60 -69 0 -39 -10 -59 -65 -131 -67 -87
-67 -90 -36 -129 22 -26 32 -32 49 -26 26 7 79 104 97 175 9 37 19 51 60 78
53 36 70 56 60 72 -9 15 -47 12 -69 -5 -28 -21 -33 -19 -52 18 -28 56 -64 87
-101 87 -21 0 -36 6 -39 15 -17 44 65 131 113 119 45 -12 74 44 34 66 -29 15
-50 12 -83 -11 -16 -12 -33 -18 -37 -13 -4 5 -13 68 -19 141 -7 90 -17 145
-30 176 -21 47 -37 63 -46 48z"/>
<path d="M2180 1748 c1 -7 7 -40 15 -73 17 -69 20 -178 5 -205 -5 -10 -22 -23
-37 -29 -71 -29 -143 -90 -143 -120 0 -16 10 -13 55 14 38 24 85 33 85 18 0
-14 -41 -118 -52 -130 -5 -7 -8 -22 -6 -35 2 -17 10 -23 28 -23 22 0 25 6 33
50 14 85 47 99 47 20 0 -58 -18 -144 -37 -174 -9 -15 -13 -35 -9 -55 8 -41
-13 -61 -72 -71 -45 -7 -65 -30 -41 -46 8 -5 38 -6 67 -3 47 6 55 4 68 -15 17
-24 34 -19 34 10 0 22 51 48 137 68 67 16 84 35 56 62 l-20 20 -61 -20 c-65
-22 -98 -26 -106 -13 -2 4 4 32 14 62 21 63 104 163 156 188 37 17 44 36 18
46 -16 6 -27 1 -113 -57 -23 -15 -46 -25 -51 -22 -4 3 -7 85 -4 182 4 166 -4
254 -32 346 -6 19 -34 24 -34 5z"/>
<path d="M2131 741 c-19 -35 -12 -59 31 -96 52 -44 84 -53 106 -31 18 18 9 43
-19 56 -60 28 -74 38 -79 59 -7 32 -26 37 -39 12z"/>
</g>
</svg>
