<?xml version="1.0" standalone="no"?>
<!DOCTYPE svg PUBLIC "-//W3C//DTD SVG 20010904//EN"
 "http://www.w3.org/TR/2001/REC-SVG-20010904/DTD/svg10.dtd">
<svg version="1.0" xmlns="http://www.w3.org/2000/svg"
 width="303.000000pt" height="398.000000pt" viewBox="0 0 303.000000 398.000000"
 preserveAspectRatio="xMidYMid meet">
<metadata>
Created by potrace 1.16, written by Peter Selinger 2001-2019
</metadata>
<g transform="translate(0.000000,398.000000) scale(0.100000,-0.100000)"
fill="#000000" stroke="none">
<path d="M1119 2918 c-9 -15 -13 -65 -13 -148 0 -151 9 -175 86 -217 38 -20
54 -36 59 -57 5 -15 20 -46 35 -67 22 -32 32 -39 61 -39 48 0 88 24 123 72 40
54 40 95 0 133 -31 30 -66 36 -127 20 -30 -7 -33 -6 -33 16 0 15 19 45 49 77
42 46 52 52 88 52 22 0 68 3 102 6 55 6 61 9 61 30 0 29 -9 34 -73 41 -62 6
-124 -12 -188 -56 -64 -43 -86 -71 -96 -121 -7 -36 -13 -46 -31 -48 -35 -5
-52 49 -60 195 -7 130 -18 157 -43 111z m328 -374 c7 -18 -29 -58 -67 -74 -62
-26 -100 47 -40 77 36 18 99 17 107 -3z"/>
<path d="M307 2772 c-26 -26 -47 -53 -47 -60 0 -7 -5 -21 -12 -32 -26 -41 5
-31 55 18 29 29 58 52 64 52 32 0 60 -99 33 -115 -9 -6 -34 -54 -49 -95 -4 -8
-27 -47 -52 -85 -77 -118 -119 -210 -119 -262 0 -39 2 -44 15 -33 8 7 15 18
15 25 0 8 11 26 24 42 13 15 33 46 45 68 12 22 36 67 55 100 73 134 116 221
131 265 14 42 14 50 0 76 -8 16 -15 35 -15 41 0 15 -51 43 -77 43 -10 0 -40
-22 -66 -48z"/>
<path d="M1626 2771 c-3 -4 3 -16 13 -25 22 -20 40 -4 21 19 -14 17 -26 19
-34 6z"/>
<path d="M1930 2743 c0 -22 -78 -172 -132 -255 -24 -36 -50 -85 -58 -108 -13
-40 -13 -43 8 -59 20 -15 21 -25 22 -161 1 -80 -1 -187 -6 -239 -6 -78 -5 -93
7 -89 51 17 76 441 28 484 -30 27 -23 58 37 144 61 90 147 267 140 287 -8 19
-46 16 -46 -4z"/>
<path d="M460 2265 c0 -52 -27 -98 -122 -204 -46 -51 -91 -105 -100 -119 -10
-15 -26 -30 -38 -34 -17 -6 -20 -16 -20 -69 l0 -62 25 23 c14 13 25 28 25 33
0 5 28 42 63 82 97 114 162 205 191 267 24 51 26 61 14 85 -20 41 -38 41 -38
-2z"/>
<path d="M1640 2205 c0 -8 5 -15 10 -15 6 0 10 7 10 15 0 8 -4 15 -10 15 -5 0
-10 -7 -10 -15z"/>
<path d="M1590 2052 c-30 -24 -18 -42 26 -42 41 0 57 26 29 46 -24 18 -28 18
-55 -4z"/>
<path d="M1566 1955 c-47 -43 -15 -94 38 -60 21 14 26 24 24 49 -4 40 -27 44
-62 11z"/>
<path d="M1740 1714 c0 -8 5 -12 10 -9 6 3 10 10 10 16 0 5 -4 9 -10 9 -5 0
-10 -7 -10 -16z"/>
<path d="M1861 1613 c-53 -83 -75 -110 -114 -143 -41 -35 -46 -65 -14 -84 16
-9 25 -4 59 34 22 25 50 65 61 90 11 25 32 62 45 82 23 35 24 68 3 68 -5 0
-23 -21 -40 -47z"/>
<path d="M1565 1590 c-3 -5 -26 -10 -51 -10 -43 0 -45 -1 -42 -27 4 -37 26
-39 93 -8 48 21 55 28 45 40 -14 17 -36 20 -45 5z"/>
</g>
</svg>
