<?xml version="1.0" standalone="no"?>
<!DOCTYPE svg PUBLIC "-//W3C//DTD SVG 20010904//EN"
 "http://www.w3.org/TR/2001/REC-SVG-20010904/DTD/svg10.dtd">
<svg version="1.0" xmlns="http://www.w3.org/2000/svg"
 width="353.000000pt" height="353.000000pt" viewBox="0 0 353.000000 353.000000"
 preserveAspectRatio="xMidYMid meet">
<metadata>
Created by potrace 1.16, written by Peter Selinger 2001-2019
</metadata>
<g transform="translate(0.000000,353.000000) scale(0.100000,-0.100000)"
fill="#000000" stroke="none">
<path d="M3008 2800 c-39 -21 -100 -103 -170 -229 -42 -74 -47 -113 -19 -155
13 -20 18 -39 14 -58 -7 -34 3 -35 34 -6 13 12 38 27 56 33 43 14 42 39 -3 45
-30 4 -36 9 -38 33 -4 36 37 119 90 183 22 27 47 62 55 79 8 16 22 38 30 47
15 17 12 48 -4 48 -4 -1 -25 -10 -45 -20z"/>
<path d="M1480 2574 c-103 -20 -213 -71 -327 -150 -91 -64 -145 -119 -177
-181 -9 -18 -20 -33 -25 -33 -4 0 -11 29 -14 65 -12 127 -74 162 -115 66 -14
-34 -13 -35 18 -61 l32 -26 0 -129 c-1 -139 -24 -328 -67 -535 -60 -295 -80
-496 -51 -535 11 -16 16 -17 29 -6 11 9 17 37 20 99 5 101 31 282 51 356 31
112 53 232 75 398 7 49 23 103 45 150 18 40 42 97 52 126 34 96 125 178 291
261 143 71 315 78 448 17 66 -31 193 -141 233 -202 45 -72 90 -172 102 -229
56 -276 65 -636 18 -727 -14 -28 -79 -56 -115 -51 -25 4 -33 1 -33 -9 0 -28
35 -48 82 -48 36 0 54 7 91 35 72 55 82 100 81 350 -1 287 -33 484 -101 619
-111 221 -319 370 -530 380 -48 3 -99 2 -113 0z"/>
<path d="M3239 2522 c-24 -27 -71 -82 -104 -122 -33 -41 -78 -94 -100 -120
-158 -185 -196 -229 -239 -283 -26 -34 -63 -78 -82 -97 -19 -20 -34 -40 -34
-46 0 -5 -12 -21 -27 -36 -40 -38 -76 -88 -69 -95 3 -4 19 5 34 19 15 14 34
29 43 34 9 5 47 43 84 84 37 41 102 113 144 160 196 216 272 302 344 388 66
79 78 98 75 124 -2 17 -8 33 -14 35 -6 2 -31 -18 -55 -45z"/>
<path d="M1730 2316 c-25 -7 -75 -25 -113 -40 -37 -14 -70 -26 -72 -26 -3 0
-10 11 -15 25 -6 17 -17 25 -33 25 -24 0 -57 -27 -57 -47 0 -33 -130 -83 -217
-83 -90 0 -121 -40 -69 -89 22 -21 26 -22 52 -8 16 8 49 20 74 27 25 6 55 18
68 27 44 27 53 12 50 -79 l-3 -83 -115 -11 c-63 -7 -116 -12 -118 -13 -2 -1
-10 -17 -18 -36 -26 -63 -15 -65 126 -25 58 16 82 19 102 11 l27 -10 1 -323
c0 -298 5 -372 28 -468 15 -61 43 -109 75 -129 35 -22 55 -18 35 7 -58 74 -69
141 -75 464 -5 298 5 443 34 465 9 7 41 17 72 23 72 15 108 31 151 72 35 33
99 152 87 164 -3 3 -36 -24 -73 -61 -37 -37 -84 -74 -103 -83 -55 -23 -145
-42 -155 -32 -4 5 -7 40 -4 79 5 90 21 108 138 146 47 15 103 37 124 47 28 15
50 18 78 14 46 -7 61 13 33 44 -21 23 -51 24 -115 6z"/>
<path d="M2937 1904 c-3 -3 5 -21 18 -40 13 -19 28 -58 33 -87 22 -115 42
-326 36 -365 -6 -38 -4 -43 26 -69 62 -52 69 -55 111 -48 48 8 46 22 -7 50
-34 18 -39 25 -42 60 -2 22 -12 90 -22 152 -11 61 -22 141 -26 178 -5 49 -14
75 -34 103 -27 37 -82 76 -93 66z"/>
<path d="M1945 1171 c-6 -11 9 -23 19 -14 9 9 7 23 -3 23 -6 0 -12 -4 -16 -9z"/>
</g>
</svg>
