<?xml version="1.0" standalone="no"?>
<!DOCTYPE svg PUBLIC "-//W3C//DTD SVG 20010904//EN"
 "http://www.w3.org/TR/2001/REC-SVG-20010904/DTD/svg10.dtd">
<svg version="1.0" xmlns="http://www.w3.org/2000/svg"
 width="249.000000pt" height="375.000000pt" viewBox="0 0 249.000000 375.000000"
 preserveAspectRatio="xMidYMid meet">
<metadata>
Created by potrace 1.16, written by Peter Selinger 2001-2019
</metadata>
<g transform="translate(0.000000,375.000000) scale(0.100000,-0.100000)"
fill="#000000" stroke="none">
<path d="M2015 3559 c72 -4 167 -10 213 -14 70 -5 82 -4 82 9 0 14 -26 16
-212 15 -212 -2 -212 -2 -83 -10z"/>
<path d="M1918 2699 c-21 -11 -38 -25 -38 -31 0 -6 -14 -29 -30 -52 -112 -152
-162 -240 -164 -290 -2 -57 17 -55 56 6 19 29 46 71 60 93 58 91 151 185 184
185 6 0 14 -9 17 -20 3 -10 22 -27 43 -36 83 -36 220 -104 242 -120 22 -16 22
-16 22 24 0 33 -6 45 -32 68 -41 34 -112 65 -200 89 -38 10 -68 20 -68 23 0 3
7 13 16 23 14 15 12 18 -19 38 -41 25 -42 25 -89 0z"/>
<path d="M1222 2488 c-7 -7 -12 -16 -12 -21 0 -5 -11 -22 -25 -39 -14 -16 -25
-42 -25 -58 0 -69 -34 -193 -130 -473 -44 -131 -46 -137 -27 -137 14 0 77 112
77 135 0 7 7 18 15 25 8 7 15 20 15 29 0 9 6 23 12 29 10 10 16 8 29 -10 15
-19 19 -20 33 -8 23 18 39 1 34 -36 -3 -25 -8 -30 -43 -34 -52 -7 -65 -16 -65
-44 0 -37 23 -49 78 -41 l50 7 5 -94 c4 -87 53 -417 63 -427 2 -2 7 -1 12 3
10 11 6 278 -6 351 -7 42 -7 81 1 130 l12 70 51 16 c83 27 154 78 154 111 0
24 -7 23 -97 -16 -108 -47 -119 -48 -116 -12 3 43 23 57 92 65 71 8 91 22 71
46 -11 13 -30 16 -99 14 l-86 -3 -3 54 c-6 130 -5 258 2 293 8 32 5 41 -14 62
-26 28 -40 31 -58 13z m-2 -358 l0 -70 -30 0 c-16 0 -30 4 -30 8 0 21 43 132
51 132 5 0 9 -31 9 -70z"/>
<path d="M2175 2410 c-87 -40 -163 -65 -310 -100 -71 -18 -138 -36 -147 -41
-22 -12 -23 -42 -3 -59 15 -12 34 -9 170 30 17 5 66 19 110 31 139 38 290 126
270 158 -9 16 -22 13 -90 -19z"/>
<path d="M286 2363 c-14 -21 -43 -94 -65 -163 -35 -107 -41 -138 -41 -212 0
-87 0 -88 36 -127 19 -22 59 -53 87 -69 74 -42 111 -86 148 -172 23 -54 34
-99 39 -160 8 -102 -6 -245 -27 -279 l-16 -25 -24 30 c-42 51 -93 163 -99 217
-7 66 16 140 59 185 24 25 28 35 19 44 -16 16 -89 -37 -117 -83 -49 -84 6
-362 87 -436 35 -32 97 -46 124 -28 41 27 73 176 73 335 0 193 -87 355 -239
443 -78 45 -86 68 -67 176 8 47 29 125 46 174 33 90 39 176 14 184 -6 3 -23
-13 -37 -34z"/>
<path d="M2123 2230 c-33 -21 -65 -51 -71 -65 -15 -31 -67 -55 -122 -55 -51 0
-84 -17 -133 -68 -35 -36 -37 -42 -26 -60 12 -19 10 -24 -11 -47 l-23 -25 23
-25 c43 -46 150 -28 218 37 30 30 32 37 32 98 0 57 3 70 23 88 13 12 33 22 45
22 11 0 23 4 26 9 3 5 18 12 33 16 16 3 38 16 51 28 21 20 23 20 40 4 15 -16
17 -38 16 -180 -2 -183 -10 -223 -42 -220 -16 2 -22 -3 -22 -17 0 -24 32 -42
68 -38 49 6 57 40 60 269 l4 205 -36 32 c-49 43 -80 41 -153 -8z m-166 -207
c10 -30 -99 -112 -133 -99 -25 10 -15 44 21 73 47 38 104 51 112 26z"/>
<path d="M2055 2050 c-16 -25 -16 -126 -2 -250 9 -74 18 -218 21 -320 2 -102
10 -207 16 -233 12 -47 33 -69 49 -51 7 8 4 226 -11 740 -3 95 -15 124 -49
124 -10 0 -21 -5 -24 -10z"/>
<path d="M2283 1597 c-31 -39 -65 -149 -57 -181 3 -14 23 -40 43 -58 l36 -32
3 72 c2 39 2 106 0 149 l-3 78 -22 -28z"/>
<path d="M1314 1263 c-323 -3 -384 -6 -394 -18 -19 -23 11 -62 52 -66 64 -8
613 10 683 22 78 13 128 34 122 52 -4 14 22 13 -463 10z"/>
</g>
</svg>
