<?xml version="1.0" standalone="no"?>
<!DOCTYPE svg PUBLIC "-//W3C//DTD SVG 20010904//EN"
 "http://www.w3.org/TR/2001/REC-SVG-20010904/DTD/svg10.dtd">
<svg version="1.0" xmlns="http://www.w3.org/2000/svg"
 width="215.000000pt" height="267.000000pt" viewBox="0 0 215.000000 267.000000"
 preserveAspectRatio="xMidYMid meet">
<metadata>
Created by potrace 1.16, written by Peter Selinger 2001-2019
</metadata>
<g transform="translate(0.000000,267.000000) scale(0.100000,-0.100000)"
fill="#000000" stroke="none">
<path d="M714 2343 c-20 -21 -48 -56 -62 -78 -15 -22 -67 -89 -115 -149 -99
-122 -127 -163 -212 -316 -33 -58 -69 -120 -82 -138 -13 -19 -24 -56 -28 -90
-3 -31 -13 -110 -21 -175 -8 -70 -14 -208 -14 -333 0 -194 2 -219 20 -253 22
-45 47 -58 69 -37 13 14 13 20 -6 53 -38 69 -39 228 -3 493 5 36 12 120 16
188 7 121 16 146 34 96 8 -21 13 -24 25 -14 7 6 15 21 17 32 3 23 13 29 70 47
47 15 100 -5 122 -47 14 -27 44 -237 35 -246 -2 -2 -62 -10 -133 -17 -145 -16
-163 -26 -132 -74 15 -22 23 -26 49 -22 76 13 132 28 153 42 13 8 34 15 48 15
l24 0 6 -167 c9 -242 18 -318 36 -318 24 0 30 64 30 304 0 241 -17 415 -47
496 -25 67 -80 105 -158 109 -32 2 -67 -1 -76 -7 -47 -29 -19 29 70 148 17 22
46 63 65 90 20 28 72 91 117 140 44 50 88 100 96 112 8 12 24 25 34 28 16 6
69 73 69 89 0 6 -60 36 -72 36 -5 0 -25 -17 -44 -37z"/>
<path d="M808 2213 c-20 -23 -46 -116 -60 -218 -9 -68 -9 -89 5 -136 9 -31 26
-68 38 -82 21 -28 127 -93 189 -117 57 -23 124 -76 147 -117 25 -47 57 -153
75 -253 8 -45 13 -152 13 -270 0 -188 -1 -197 -25 -245 -24 -47 -27 -50 -65
-51 -55 -1 -61 -28 -10 -50 44 -18 74 -6 116 46 46 57 59 131 59 330 0 194 -9
266 -45 375 -62 184 -100 228 -253 294 -156 68 -190 116 -171 248 10 69 55
179 83 202 23 20 20 40 -10 51 -38 15 -69 12 -86 -7z"/>
<path d="M1069 1342 c-13 -9 -61 -52 -106 -95 -92 -89 -103 -117 -71 -180 24
-49 50 -47 59 4 3 20 15 49 28 65 12 16 47 60 76 97 51 63 68 108 47 121 -5 3
-19 -3 -33 -12z"/>
<path d="M510 606 c-25 -24 -119 -46 -195 -46 -92 0 -135 -14 -135 -45 0 -20
6 -23 64 -27 36 -3 86 -2 112 3 90 17 204 81 204 116 0 17 -32 17 -50 -1z"/>
</g>
</svg>
