<?xml version="1.0" standalone="no"?>
<!DOCTYPE svg PUBLIC "-//W3C//DTD SVG 20010904//EN"
 "http://www.w3.org/TR/2001/REC-SVG-20010904/DTD/svg10.dtd">
<svg version="1.0" xmlns="http://www.w3.org/2000/svg"
 width="224.000000pt" height="348.000000pt" viewBox="0 0 224.000000 348.000000"
 preserveAspectRatio="xMidYMid meet">
<metadata>
Created by potrace 1.16, written by Peter Selinger 2001-2019
</metadata>
<g transform="translate(0.000000,348.000000) scale(0.100000,-0.100000)"
fill="#000000" stroke="none">
<path d="M1026 2529 c-44 -11 -103 -34 -135 -54 -63 -38 -111 -99 -93 -117 8
-8 24 0 57 30 114 100 263 110 595 40 52 -11 114 -28 138 -39 50 -21 233 -141
252 -164 8 -9 47 -40 87 -68 40 -28 73 -56 73 -62 0 -6 -7 -20 -15 -33 -20
-27 -47 -193 -39 -230 8 -34 52 -112 63 -112 5 0 18 -15 30 -32 l21 -33 0 43
c0 26 -10 62 -25 92 -15 29 -25 66 -25 91 0 43 26 147 41 163 5 6 9 46 9 89 0
66 -2 78 -15 73 -28 -10 -97 24 -168 84 -40 33 -108 81 -152 107 -150 89 -173
97 -404 133 -161 24 -193 24 -295 -1z"/>
<path d="M519 2428 c-18 -24 -23 -46 -24 -90 0 -68 19 -97 53 -79 18 10 20 20
19 103 -2 103 -12 117 -48 66z"/>
<path d="M926 2158 c-3 -7 -12 -58 -21 -113 -43 -253 -33 -411 33 -508 68 -97
145 -137 269 -137 60 0 75 -3 80 -17 4 -11 0 -20 -12 -27 -11 -6 -52 -44 -92
-83 -41 -40 -77 -73 -81 -73 -4 0 -61 -51 -126 -113 -109 -104 -118 -115 -107
-135 13 -25 67 -31 93 -9 8 6 56 59 106 117 49 58 118 132 152 165 114 111
139 146 161 232 11 43 25 131 31 196 9 100 8 133 -7 215 -42 243 -70 306 -130
300 -44 -4 -47 -48 -7 -86 33 -31 47 -80 64 -237 20 -171 9 -319 -22 -300 -18
11 -21 -17 -4 -30 17 -13 18 -15 3 -30 -14 -14 -29 -15 -117 -7 -118 11 -138
21 -187 95 -50 77 -61 171 -44 391 13 167 10 194 -19 204 -7 2 -14 -2 -16 -10z"/>
<path d="M1028 2074 c-5 -4 -8 -10 -8 -14 0 -10 153 -79 189 -86 66 -14 34 46
-45 81 -38 17 -126 30 -136 19z"/>
<path d="M1128 1904 c-33 -17 -48 -31 -48 -44 0 -40 106 -15 130 30 24 45 -11
51 -82 14z"/>
<path d="M2032 1361 c-18 -86 -21 -116 -12 -126 6 -8 9 -23 5 -35 -10 -30 11
-24 24 8 7 17 11 73 9 146 l-3 118 -23 -111z"/>
</g>
</svg>
