<?xml version="1.0" standalone="no"?>
<!DOCTYPE svg PUBLIC "-//W3C//DTD SVG 20010904//EN"
 "http://www.w3.org/TR/2001/REC-SVG-20010904/DTD/svg10.dtd">
<svg version="1.0" xmlns="http://www.w3.org/2000/svg"
 width="240.000000pt" height="339.000000pt" viewBox="0 0 240.000000 339.000000"
 preserveAspectRatio="xMidYMid meet">
<metadata>
Created by potrace 1.16, written by Peter Selinger 2001-2019
</metadata>
<g transform="translate(0.000000,339.000000) scale(0.100000,-0.100000)"
fill="#000000" stroke="none">
<path d="M2155 2670 c-9 -14 4 -149 17 -174 15 -28 25 -7 33 69 6 66 5 71 -18
93 -17 16 -27 20 -32 12z"/>
<path d="M1043 2466 c-61 -37 -175 -169 -223 -261 -24 -45 -30 -70 -30 -117 0
-52 4 -63 28 -88 31 -31 99 -47 152 -36 25 4 30 2 30 -13 0 -10 -7 -24 -16
-32 -8 -7 -26 -34 -39 -60 -24 -45 -26 -47 -67 -47 -52 1 -90 -17 -86 -40 2
-9 14 -19 28 -20 45 -6 45 -18 -3 -114 -68 -138 -98 -298 -62 -328 17 -14 18
-11 16 40 -3 77 32 167 116 297 18 28 33 55 33 60 0 4 48 56 107 115 111 111
153 155 153 163 0 3 -10 5 -22 5 -12 0 -35 -16 -55 -40 -19 -22 -39 -40 -46
-40 -6 0 -1 10 11 23 12 13 22 27 22 31 0 9 54 77 98 123 32 33 42 76 22 88
-6 4 -20 -5 -31 -19 -24 -30 -119 -96 -165 -115 -17 -6 -60 -11 -95 -9 l-64 3
1 62 c1 57 5 69 47 131 52 77 117 146 158 168 27 13 69 59 69 74 0 12 -66 8
-87 -4z"/>
<path d="M2155 2221 c-87 -50 -237 -127 -308 -156 -52 -22 -70 -26 -80 -16 -9
9 -9 16 1 31 17 28 -3 35 -36 12 -15 -11 -42 -36 -61 -56 -27 -28 -32 -38 -22
-49 16 -20 80 -28 121 -16 49 16 205 90 338 161 102 56 112 63 112 89 0 16 -3
29 -7 29 -5 0 -30 -13 -58 -29z"/>
<path d="M2115 1963 c-157 -156 -177 -179 -173 -200 5 -29 62 -29 101 -1 18
14 48 30 67 38 19 7 40 16 45 20 6 4 22 10 38 14 22 5 27 12 27 37 0 35 -9 35
-95 -6 -81 -39 -76 -14 14 74 60 59 82 86 79 102 -2 18 -19 5 -103 -78z"/>
<path d="M2172 1754 c-92 -104 -142 -181 -142 -219 0 -44 15 -75 37 -75 13 0
14 7 9 40 -6 36 -2 46 26 83 18 23 52 63 76 88 39 42 43 50 40 89 l-3 43 -43
-49z"/>
<path d="M1141 1647 c-48 -23 -191 -270 -191 -331 0 -9 11 -23 25 -32 22 -14
31 -15 71 -4 36 10 60 29 128 101 46 49 88 89 94 89 13 0 32 -54 32 -90 0 -30
-42 -101 -88 -146 -41 -42 -108 -73 -169 -81 -46 -5 -53 -3 -87 28 -35 30 -38
36 -35 83 3 76 0 106 -12 106 -18 0 -39 -67 -39 -125 0 -53 3 -59 46 -105 41
-44 52 -50 86 -50 85 0 175 39 255 113 28 25 80 130 89 179 7 40 -18 98 -91
212 -43 67 -64 77 -114 53z m81 -73 c15 -21 27 -46 28 -55 0 -8 -41 -54 -91
-102 -71 -68 -97 -87 -119 -87 -16 0 -32 4 -35 10 -15 24 153 286 179 277 6
-2 23 -21 38 -43z"/>
<path d="M2212 1380 c0 -14 2 -19 5 -12 2 6 2 18 0 25 -3 6 -5 1 -5 -13z"/>
<path d="M282 1130 c-13 -11 -42 -25 -63 -31 -32 -10 -39 -17 -39 -37 0 -20 4
-23 23 -18 12 3 28 6 35 6 14 0 92 78 92 91 0 15 -24 9 -48 -11z"/>
</g>
</svg>
