<?xml version="1.0" standalone="no"?>
<!DOCTYPE svg PUBLIC "-//W3C//DTD SVG 20010904//EN"
 "http://www.w3.org/TR/2001/REC-SVG-20010904/DTD/svg10.dtd">
<svg version="1.0" xmlns="http://www.w3.org/2000/svg"
 width="250.000000pt" height="285.000000pt" viewBox="0 0 250.000000 285.000000"
 preserveAspectRatio="xMidYMid meet">
<metadata>
Created by potrace 1.16, written by Peter Selinger 2001-2019
</metadata>
<g transform="translate(0.000000,285.000000) scale(0.100000,-0.100000)"
fill="#000000" stroke="none">
<path d="M869 1953 c-1 -5 0 -39 0 -78 4 -144 -65 -318 -224 -570 -49 -77 -52
-85 -31 -85 14 0 93 93 159 185 94 134 152 268 168 388 10 77 10 78 -21 122
-29 41 -48 56 -51 38z"/>
<path d="M1060 1539 c-126 -11 -132 -13 -128 -41 4 -30 46 -40 143 -33 105 8
175 24 182 42 13 35 -46 44 -197 32z"/>
<path d="M2299 1434 c-8 -11 -46 -65 -83 -122 -78 -119 -112 -190 -98 -204 6
-6 44 35 106 117 96 125 97 126 94 177 -3 47 -4 49 -19 32z"/>
<path d="M1454 1391 c-17 -5 -59 -24 -92 -45 -52 -31 -65 -46 -94 -104 l-34
-67 -129 -3 c-71 -1 -132 1 -137 6 -4 4 -1 23 8 41 18 36 29 171 14 171 -6 0
-10 -4 -10 -8 0 -5 -13 -29 -30 -53 -16 -24 -35 -62 -41 -84 -17 -64 -21 -65
-130 -62 -89 2 -101 0 -120 -20 -14 -13 -19 -28 -15 -38 6 -15 17 -17 101 -10
128 9 131 7 95 -93 -15 -42 -39 -104 -53 -137 -39 -94 -68 -232 -65 -311 2
-51 7 -69 17 -69 10 0 19 29 32 100 24 135 42 187 124 360 14 28 30 68 37 90
l13 40 130 3 c158 3 233 -11 246 -45 23 -60 40 23 18 85 -24 70 53 177 144
201 38 9 45 8 81 -17 60 -41 70 -62 64 -137 -5 -57 -10 -70 -46 -113 -46 -54
-120 -99 -203 -122 -31 -8 -56 -19 -55 -25 0 -6 27 -9 61 -8 79 3 162 39 237
105 69 60 88 92 88 150 0 100 -40 165 -125 204 -52 25 -77 27 -131 15z"/>
<path d="M940 831 c0 -21 106 -124 149 -145 72 -36 267 -44 274 -12 1 6 -36
18 -83 27 -135 27 -166 37 -214 74 -71 54 -126 78 -126 56z"/>
<path d="M180 426 c0 -16 7 -26 22 -30 36 -9 47 12 18 34 -33 26 -40 25 -40
-4z"/>
</g>
</svg>
