<?xml version="1.0" standalone="no"?>
<!DOCTYPE svg PUBLIC "-//W3C//DTD SVG 20010904//EN"
 "http://www.w3.org/TR/2001/REC-SVG-20010904/DTD/svg10.dtd">
<svg version="1.0" xmlns="http://www.w3.org/2000/svg"
 width="323.000000pt" height="286.000000pt" viewBox="0 0 323.000000 286.000000"
 preserveAspectRatio="xMidYMid meet">
<metadata>
Created by potrace 1.16, written by Peter Selinger 2001-2019
</metadata>
<g transform="translate(0.000000,286.000000) scale(0.100000,-0.100000)"
fill="#000000" stroke="none">
<path d="M180 2665 c0 -8 2 -15 4 -15 2 0 6 7 10 15 3 8 1 15 -4 15 -6 0 -10
-7 -10 -15z"/>
<path d="M276 2648 c-16 -88 -36 -303 -36 -386 0 -110 9 -132 51 -132 26 0 30
3 23 18 -15 30 -7 233 15 362 28 171 28 170 -13 170 -30 0 -34 -3 -40 -32z"/>
<path d="M546 2666 c35 -25 70 -29 103 -12 17 9 31 19 31 21 0 3 -35 5 -77 5
-70 0 -76 -1 -57 -14z"/>
<path d="M870 2673 c-61 -24 -204 -114 -248 -156 -61 -59 -82 -94 -82 -135 0
-60 100 -161 206 -208 32 -14 71 -37 86 -51 48 -46 79 -12 60 66 -9 33 -9 70
-2 131 21 172 24 263 10 258 -25 -8 -80 -216 -80 -301 0 -19 -5 -39 -10 -42
-13 -8 -89 35 -147 82 -39 31 -43 38 -43 79 0 39 5 50 38 80 40 37 213 144
232 144 7 0 25 14 40 30 l28 30 -36 -1 c-21 0 -44 -3 -52 -6z"/>
<path d="M1245 2593 c-4 -48 -3 -134 2 -192 9 -89 13 -107 33 -123 15 -12 31
-16 49 -12 27 7 71 41 71 56 0 4 16 32 35 63 20 30 38 63 42 73 3 9 12 24 19
32 16 19 22 83 9 90 -10 4 -62 -72 -109 -160 -13 -25 -33 -53 -44 -63 -20 -18
-21 -18 -33 5 -13 23 -15 261 -3 301 4 14 -1 17 -29 17 l-35 0 -7 -87z"/>
<path d="M1773 2662 c21 -24 21 -28 -4 -120 -39 -142 -71 -237 -86 -254 -8 -9
-29 -20 -47 -24 -65 -13 -101 -80 -55 -105 17 -9 32 -6 78 14 71 31 168 41
418 42 137 0 195 4 204 12 10 10 6 15 -16 23 -61 23 -241 41 -375 38 -125 -3
-135 -2 -138 16 -4 17 14 76 43 141 8 17 23 62 35 100 19 60 31 93 48 128 2 4
-24 7 -59 7 -60 0 -61 -1 -46 -18z"/>
<path d="M2830 1996 c-56 -40 -152 -145 -187 -204 -73 -123 -102 -251 -67
-300 20 -29 30 -28 64 10 22 24 33 29 41 21 6 -6 16 -72 23 -147 12 -134 12
-136 46 -171 19 -19 40 -35 48 -35 35 0 81 42 110 103 35 72 62 136 62 148 0
25 -23 0 -79 -87 -68 -105 -87 -115 -108 -54 -7 19 -12 61 -12 92 -1 97 -30
203 -63 235 -25 24 -31 26 -50 14 -34 -21 -47 2 -24 42 11 18 28 49 39 71 11
21 53 71 93 110 73 72 133 161 117 177 -4 4 -28 -7 -53 -25z m-206 -433 c8
-19 -8 -38 -23 -29 -16 10 -13 46 3 46 8 0 17 -8 20 -17z"/>
<path d="M2993 1949 c-28 -21 -59 -49 -67 -61 -24 -34 -20 -73 9 -92 25 -16
26 -16 36 11 5 15 26 47 45 70 28 34 35 50 32 77 l-3 33 -52 -38z"/>
<path d="M1696 1858 c-37 -13 -101 -51 -288 -170 -84 -53 -180 -110 -213 -126
-33 -17 -76 -47 -95 -67 -34 -35 -34 -37 -16 -51 29 -21 41 -18 109 27 34 23
87 56 117 72 69 39 228 143 257 170 13 11 26 18 29 14 15 -15 -54 -96 -278
-326 -169 -173 -191 -206 -138 -206 17 0 35 14 62 50 21 28 47 54 58 59 47 21
56 -21 68 -302 7 -163 7 -164 35 -188 53 -46 96 -24 53 27 -25 29 -26 36 -26
155 0 136 -19 253 -51 317 l-20 38 36 40 c20 22 66 70 104 107 134 133 271
302 271 336 0 13 -30 38 -42 35 -2 0 -16 -5 -32 -11z"/>
<path d="M1996 1797 c-103 -108 -126 -137 -160 -204 -45 -89 -46 -120 -6 -158
26 -25 30 -35 28 -75 -2 -42 -5 -46 -23 -42 -11 2 -34 17 -50 33 -48 45 -88
55 -127 32 -41 -23 -94 -101 -108 -156 -6 -23 -15 -50 -20 -59 -6 -10 -10 -19
-10 -20 0 -2 36 -3 80 -3 55 0 80 4 80 12 0 6 -12 13 -27 15 -24 3 -28 8 -31
39 -3 31 2 41 33 68 47 41 77 40 134 -6 2 -1 -4 -12 -15 -24 -15 -16 -19 -36
-19 -87 l0 -66 -60 -11 c-45 -7 -61 -15 -63 -28 -6 -28 17 -47 58 -47 21 0 43
-7 50 -15 7 -8 23 -15 36 -15 20 0 26 8 35 44 6 25 20 52 30 62 10 9 19 30 19
46 0 18 5 28 15 28 11 0 15 -11 15 -41 0 -78 18 -115 91 -179 87 -78 99 -82
181 -61 71 17 107 43 132 95 8 18 29 49 46 70 33 43 38 84 19 162 -19 75 -103
127 -176 109 -46 -11 -139 -117 -159 -180 -16 -50 -16 -56 -2 -72 9 -10 19
-33 23 -50 10 -49 -17 -43 -55 12 -23 34 -33 63 -42 124 l-11 79 70 69 c38 38
75 85 83 104 7 19 24 47 37 62 21 27 30 66 17 79 -3 3 -26 -1 -51 -8 -66 -20
-75 -6 -35 51 18 25 32 48 32 51 0 3 11 22 25 42 25 37 33 76 17 86 -13 8 -66
-52 -106 -119 -95 -159 -137 -201 -144 -145 -9 59 45 148 170 277 25 27 29 35
18 48 -19 23 -29 19 -74 -28z m44 -371 c0 -17 -12 -34 -37 -52 -21 -16 -46
-37 -55 -48 -12 -15 -20 -18 -28 -10 -8 8 -5 18 10 36 11 15 20 30 20 34 0 4
12 21 27 36 34 36 63 37 63 4z m231 -202 c19 -17 21 -27 17 -106 -4 -81 -7
-90 -34 -119 -36 -39 -70 -56 -114 -61 -35 -3 -35 -3 -34 37 1 22 11 73 22
114 12 41 18 87 15 102 -10 51 1 62 57 57 30 -3 59 -13 71 -24z"/>
<path d="M2968 1731 c-42 -42 -86 -94 -97 -117 -11 -22 -27 -46 -35 -53 -9 -8
-16 -21 -16 -30 0 -43 57 -54 100 -21 14 11 30 20 36 20 6 0 23 9 36 20 14 10
28 16 32 13 3 -3 6 -81 7 -172 0 -91 4 -184 8 -206 6 -26 9 53 10 217 l1 258
-46 -26 c-31 -17 -49 -23 -56 -16 -6 6 -7 15 -3 22 11 19 85 61 95 55 6 -4 10
18 10 54 0 34 -1 60 -2 60 -2 -1 -38 -36 -80 -78z"/>
<path d="M517 1572 c-24 -26 -21 -59 8 -88 28 -28 52 -27 47 2 -2 10 -4 37 -5
59 -2 46 -23 57 -50 27z"/>
<path d="M1492 973 c2 -10 8 -18 13 -18 5 0 11 8 13 18 2 10 -3 17 -13 17 -10
0 -15 -7 -13 -17z"/>
<path d="M2577 763 c-28 -27 -77 -197 -77 -263 0 -58 43 -65 88 -14 37 41 65
42 70 2 4 -38 -43 -144 -92 -208 -24 -30 -46 -65 -50 -77 -7 -21 -4 -23 28
-23 29 0 38 5 51 30 16 30 83 80 108 80 24 0 80 -67 74 -89 -4 -18 -1 -21 32
-21 l37 0 -1 58 c0 36 8 77 22 112 12 30 31 89 44 130 30 102 33 108 89 169
36 38 50 61 50 82 0 40 -14 36 -61 -13 -60 -64 -150 -252 -164 -345 -10 -61
-22 -66 -84 -37 l-53 26 6 41 c16 111 18 168 6 182 -18 21 -64 19 -85 -5 -23
-26 -45 -26 -45 0 0 36 32 115 53 132 18 14 20 21 11 35 -12 19 -45 29 -57 16z"/>
<path d="M2158 643 c-93 -151 -125 -206 -157 -272 -28 -59 -29 -65 -17 -96 8
-18 19 -36 25 -39 6 -4 11 -18 11 -32 l0 -24 135 0 c131 0 135 1 125 19 -15
29 -26 33 -55 19 -20 -9 -28 -9 -38 1 -9 10 -7 17 14 34 15 12 29 33 32 47 4
14 22 44 42 67 38 45 43 64 20 83 -12 10 -21 8 -48 -9 -35 -22 -107 -94 -143
-145 -26 -36 -54 -30 -54 11 0 41 40 131 86 193 36 49 71 114 87 163 4 9 13
17 22 17 18 0 20 21 3 38 -23 23 -36 12 -90 -75z"/>
<path d="M2963 413 c-67 -72 -78 -105 -35 -111 27 -4 28 -21 2 -72 -11 -22
-20 -42 -20 -45 0 -3 32 -5 70 -5 l70 0 0 55 c0 30 -2 55 -5 55 -3 0 -11 -16
-20 -36 -28 -67 -32 -25 -8 73 47 184 43 190 -54 86z"/>
<path d="M1559 411 c-102 -51 -259 -182 -259 -216 0 -14 6 -16 37 -10 25 4 57
25 99 63 65 59 186 128 204 117 20 -12 9 -42 -41 -110 l-51 -70 31 -3 c37 -4
69 28 113 112 67 125 0 185 -133 117z"/>
<path d="M2665 190 c-3 -5 3 -10 15 -10 12 0 18 5 15 10 -3 6 -10 10 -15 10
-5 0 -12 -4 -15 -10z"/>
</g>
</svg>
