<?xml version="1.0" standalone="no"?>
<!DOCTYPE svg PUBLIC "-//W3C//DTD SVG 20010904//EN"
 "http://www.w3.org/TR/2001/REC-SVG-20010904/DTD/svg10.dtd">
<svg version="1.0" xmlns="http://www.w3.org/2000/svg"
 width="299.000000pt" height="277.000000pt" viewBox="0 0 299.000000 277.000000"
 preserveAspectRatio="xMidYMid meet">
<metadata>
Created by potrace 1.16, written by Peter Selinger 2001-2019
</metadata>
<g transform="translate(0.000000,277.000000) scale(0.100000,-0.100000)"
fill="#000000" stroke="none">
<path d="M2470 2548 c0 -23 -8 -84 -17 -135 -15 -88 -15 -95 1 -111 15 -16 22
-15 104 7 188 52 201 39 86 -82 -86 -90 -244 -281 -244 -296 0 -5 7 -14 15
-21 11 -9 22 -7 55 11 29 16 43 20 51 12 19 -19 0 -50 -69 -121 -144 -145
-165 -179 -121 -202 16 -9 28 -8 54 4 31 15 65 21 65 12 0 -2 -11 -37 -25 -77
-13 -41 -29 -101 -35 -134 -40 -234 -40 -230 -20 -230 11 0 17 16 22 55 4 30
27 116 51 190 25 74 52 160 61 190 11 39 30 72 66 112 49 55 60 86 33 95 -6 2
-36 -18 -67 -46 -30 -27 -64 -55 -76 -61 -42 -22 -32 0 20 47 114 102 141 179
80 223 -16 12 -30 26 -30 31 0 16 68 96 156 184 94 93 113 136 74 167 -28 22
-112 24 -190 3 -30 -8 -58 -11 -63 -6 -4 4 -3 28 2 52 6 24 11 72 11 107 0 60
-1 62 -25 62 -23 0 -25 -4 -25 -42z"/>
<path d="M1220 2509 c-14 -6 -95 -28 -180 -50 -148 -38 -320 -108 -320 -130 0
-5 12 -15 26 -21 26 -12 34 -10 135 42 23 12 40 15 46 9 5 -5 24 -1 48 11 41
21 69 26 63 12 -19 -50 -83 -157 -124 -208 -65 -82 -195 -199 -307 -276 -97
-67 -105 -75 -83 -84 15 -6 120 61 226 143 99 77 220 196 250 246 17 28 39 63
50 77 11 14 26 50 33 80 14 54 15 55 60 67 57 14 161 64 161 78 1 14 -54 16
-84 4z"/>
<path d="M1609 2438 c0 -2 -2 -25 -5 -53 -5 -63 -22 -139 -40 -187 -10 -27
-11 -45 -4 -63 12 -32 42 -32 99 0 51 30 51 30 51 8 -1 -43 -164 -283 -240
-353 -50 -46 -61 -63 -68 -100 -9 -46 -1 -179 17 -285 6 -33 13 -90 16 -127 5
-52 12 -73 31 -94 34 -36 47 -20 29 36 -13 41 -40 262 -52 437 l-6 72 33 18
c52 28 110 83 131 125 10 20 32 52 47 70 16 18 42 56 57 83 16 28 36 59 45 70
9 11 22 38 28 60 11 36 10 42 -9 58 -30 24 -48 22 -103 -18 -71 -51 -78 -36
-27 63 32 63 22 182 -16 182 -7 0 -13 -1 -14 -2z"/>
<path d="M940 1966 c-7 -9 -15 -45 -18 -81 -5 -64 -5 -65 -46 -88 -42 -23 -49
-45 -12 -38 54 10 60 7 67 -33 4 -23 16 -47 29 -58 28 -23 102 -24 121 -2 7 8
25 22 41 30 33 17 68 69 68 101 0 12 -14 33 -32 48 -28 24 -38 26 -83 21 -111
-13 -100 -17 -100 41 -1 60 -15 83 -35 59z m174 -162 c24 -9 19 -29 -13 -56
-42 -36 -88 -53 -105 -39 -23 19 -29 74 -9 88 17 13 99 18 127 7z"/>
<path d="M1795 1876 c-103 -37 -175 -103 -222 -202 -22 -47 -25 -62 -17 -92 9
-35 11 -37 59 -42 l50 -5 -2 -39 c-3 -48 -24 -81 -64 -101 -37 -19 -33 -40 7
-40 28 0 29 -1 28 -50 -1 -27 -3 -85 -4 -127 -2 -79 7 -108 37 -108 11 0 13 9
8 42 -3 24 1 97 10 162 15 118 16 120 60 172 25 29 45 57 45 63 0 14 -23 14
-37 0 -13 -13 -33 -4 -33 16 0 18 12 25 62 33 28 5 43 13 43 22 0 12 -19 15
-107 15 -58 0 -109 3 -113 7 -16 16 40 111 97 162 58 53 87 66 158 69 l35 2
17 -65 c21 -83 22 -191 3 -283 -25 -122 -44 -241 -40 -246 8 -8 35 22 35 39 0
10 9 37 19 61 11 24 32 98 47 163 26 114 26 123 14 200 -16 102 -31 137 -70
170 -37 31 -46 31 -125 2z"/>
<path d="M2559 1325 c-1 -8 -2 -19 -3 -25 -1 -13 113 -110 149 -125 17 -7 47
-15 68 -19 32 -6 37 -4 37 13 0 13 -11 23 -34 31 -18 6 -67 40 -109 75 -75 65
-106 79 -108 50z"/>
</g>
</svg>
