<?xml version="1.0" standalone="no"?>
<!DOCTYPE svg PUBLIC "-//W3C//DTD SVG 20010904//EN"
 "http://www.w3.org/TR/2001/REC-SVG-20010904/DTD/svg10.dtd">
<svg version="1.0" xmlns="http://www.w3.org/2000/svg"
 width="275.000000pt" height="272.000000pt" viewBox="0 0 275.000000 272.000000"
 preserveAspectRatio="xMidYMid meet">
<metadata>
Created by potrace 1.16, written by Peter Selinger 2001-2019
</metadata>
<g transform="translate(0.000000,272.000000) scale(0.100000,-0.100000)"
fill="#000000" stroke="none">
<path d="M991 2126 c-6 -7 -39 -26 -74 -42 -50 -23 -81 -29 -162 -34 -93 -5
-100 -6 -103 -27 -6 -42 60 -52 166 -26 30 7 28 -5 -15 -84 -50 -91 -79 -159
-114 -273 -16 -52 -38 -117 -49 -145 -11 -27 -24 -68 -30 -91 -5 -23 -26 -62
-45 -87 -43 -56 -46 -93 -9 -108 30 -11 70 9 81 39 3 9 14 26 23 37 10 11 46
74 80 140 75 145 99 180 112 167 6 -6 13 -132 17 -304 5 -251 8 -293 21 -293
30 0 50 433 29 610 l-11 89 29 23 c15 13 34 23 40 23 7 0 28 -30 45 -67 28
-57 38 -69 66 -77 25 -7 36 -5 50 8 10 9 22 16 26 16 10 0 -1 -63 -26 -160
-30 -115 -49 -250 -37 -272 10 -18 30 -24 42 -11 4 3 2 12 -4 20 -15 17 -5 69
60 317 17 66 31 129 31 140 0 46 49 146 70 146 5 0 16 -16 24 -35 8 -19 19
-35 24 -35 14 0 42 35 42 52 0 18 -52 66 -87 79 -26 10 -30 35 -9 58 21 25 30
105 13 120 -28 23 -55 -17 -73 -109 -9 -47 -24 -94 -34 -105 -10 -11 -34 -52
-54 -92 -19 -39 -40 -74 -45 -77 -11 -7 -24 10 -41 54 -20 53 -39 70 -77 70
-27 0 -35 -5 -43 -26 -15 -39 -34 -24 -43 35 -6 38 -15 56 -33 67 -31 21 -30
27 5 77 15 23 35 54 45 69 9 15 41 46 71 68 30 22 55 47 55 55 0 19 -34 20
-49 1z m-164 -340 c-8 -19 -37 -21 -37 -3 0 7 5 18 12 25 15 15 33 -1 25 -22z
m18 -92 c5 -30 2 -41 -17 -63 -35 -38 -78 -98 -78 -109 0 -5 -9 -17 -20 -27
-17 -15 -20 -16 -25 -2 -4 8 0 37 8 63 12 41 18 49 38 49 20 0 24 7 31 44 8
48 34 95 47 86 5 -2 12 -21 16 -41z m-157 -271 c-5 -25 -28 -28 -28 -4 0 12 6
21 16 21 9 0 14 -7 12 -17z"/>
<path d="M2330 2038 c-41 -45 -147 -169 -192 -226 -60 -76 -49 -102 32 -81 45
11 51 11 70 -6 39 -35 57 -129 64 -347 5 -118 9 -142 34 -170 17 -20 57 -24
68 -7 4 7 21 9 40 6 31 -5 36 -2 50 26 9 18 30 51 45 74 22 31 29 53 29 88 0
46 -1 47 -26 41 -20 -5 -33 -1 -51 16 l-25 23 -19 -24 c-10 -13 -19 -29 -19
-36 0 -20 27 -37 62 -41 18 -1 34 -3 35 -3 1 -1 -3 -15 -9 -31 -11 -34 -109
-106 -132 -97 -20 8 -25 55 -25 229 0 139 -3 162 -21 197 -11 22 -20 47 -20
56 0 28 -55 75 -89 75 -16 0 -32 3 -34 8 -3 4 46 54 109 111 63 57 114 110
114 117 0 13 -30 34 -49 34 -6 0 -24 -15 -41 -32z"/>
<path d="M2522 1675 c-25 -11 -39 -12 -54 -4 -32 17 -35 -1 -5 -27 29 -25 45
-28 85 -18 16 5 22 14 22 35 0 33 -2 34 -48 14z"/>
<path d="M1216 1352 c-20 -33 48 -209 107 -277 33 -38 37 -40 94 -40 53 0 66
5 118 40 76 53 186 154 179 166 -7 13 -41 -6 -95 -55 -88 -78 -164 -114 -214
-102 -32 8 -98 107 -122 182 -17 55 -56 104 -67 86z"/>
</g>
</svg>
