<?xml version="1.0" standalone="no"?>
<!DOCTYPE svg PUBLIC "-//W3C//DTD SVG 20010904//EN"
 "http://www.w3.org/TR/2001/REC-SVG-20010904/DTD/svg10.dtd">
<svg version="1.0" xmlns="http://www.w3.org/2000/svg"
 width="372.000000pt" height="299.000000pt" viewBox="0 0 372.000000 299.000000"
 preserveAspectRatio="xMidYMid meet">
<metadata>
Created by potrace 1.16, written by Peter Selinger 2001-2019
</metadata>
<g transform="translate(0.000000,299.000000) scale(0.100000,-0.100000)"
fill="#000000" stroke="none">
<path d="M1479 2374 c-14 -17 -4 -42 22 -54 61 -28 74 -38 79 -60 8 -33 32
-32 44 3 13 35 3 51 -53 95 -47 35 -72 40 -92 16z"/>
<path d="M3221 2338 c-28 -24 -51 -50 -51 -59 0 -23 46 -63 65 -56 8 4 18 20
22 37 8 43 56 76 92 64 45 -16 74 -129 121 -463 l10 -74 -48 -51 c-77 -82
-101 -119 -128 -197 -23 -63 -27 -91 -27 -194 -1 -66 4 -138 11 -160 27 -93
124 -131 207 -83 l40 24 2 84 2 85 -14 -48 c-17 -61 -40 -95 -71 -107 -36 -14
-60 2 -91 63 -35 70 -38 190 -5 292 21 68 109 211 128 209 9 -1 15 -24 38
-159 l14 -80 1 178 c1 197 -14 312 -71 532 -46 180 -64 205 -149 205 -41 0
-54 -6 -98 -42z"/>
<path d="M1921 2333 c-25 -21 -41 -96 -41 -194 0 -62 2 -69 27 -87 l27 -20
-18 -53 c-30 -91 -45 -259 -45 -504 1 -259 11 -316 61 -344 35 -20 47 -7 21
22 -29 32 -34 78 -34 365 0 252 5 305 39 427 18 64 46 98 165 198 94 80 61
110 -39 36 -57 -42 -129 -73 -151 -65 -19 8 -17 100 3 139 9 18 25 42 36 54
36 39 -8 61 -51 26z"/>
<path d="M1537 2134 c-4 -4 -7 -16 -7 -26 0 -21 -53 -47 -137 -67 -67 -16 -84
-35 -56 -62 l20 -20 61 20 c65 22 98 26 106 13 2 -4 -4 -32 -14 -62 -21 -63
-104 -163 -156 -188 -37 -17 -44 -36 -18 -46 16 -6 27 -1 113 57 23 15 46 25
51 22 4 -3 7 -85 4 -182 -3 -133 0 -195 11 -252 21 -103 24 -111 41 -111 17 0
17 9 -1 85 -17 69 -20 178 -5 205 5 10 22 23 37 29 71 29 143 90 143 120 0 16
-10 13 -55 -14 -38 -24 -85 -33 -85 -17 0 13 41 117 52 129 5 7 8 22 6 35 -2
17 -10 23 -28 23 -22 0 -25 -6 -33 -50 -14 -85 -47 -99 -47 -20 0 58 18 144
37 174 9 15 13 35 9 55 -8 41 13 61 72 71 45 7 65 30 41 46 -8 5 -38 6 -66 3
-47 -6 -55 -4 -71 16 -9 12 -21 18 -25 14z"/>
<path d="M2302 2123 c-17 -7 -72 -117 -87 -173 -9 -37 -19 -51 -60 -78 -53
-36 -70 -56 -60 -72 9 -15 47 -12 69 5 28 21 33 19 52 -17 28 -57 64 -88 101
-88 21 0 36 -6 39 -15 17 -44 -65 -131 -113 -119 -45 12 -74 -44 -34 -66 29
-15 50 -12 82 11 16 11 33 18 38 15 4 -3 11 -54 15 -113 9 -132 21 -189 47
-232 30 -50 43 -27 25 45 -8 32 -18 119 -21 191 -7 125 -6 135 15 175 12 24
41 64 65 89 44 47 70 87 62 96 -9 9 -43 -15 -56 -40 -16 -30 -68 -70 -75 -59
-6 10 16 77 45 131 25 49 18 64 -32 59 -29 -3 -34 -8 -40 -35 -9 -44 -26 -63
-59 -63 -36 0 -60 29 -60 72 0 34 9 51 95 171 l35 49 -26 34 c-26 33 -36 38
-62 27z"/>
</g>
</svg>
