<?xml version="1.0" standalone="no"?>
<!DOCTYPE svg PUBLIC "-//W3C//DTD SVG 20010904//EN"
 "http://www.w3.org/TR/2001/REC-SVG-20010904/DTD/svg10.dtd">
<svg version="1.0" xmlns="http://www.w3.org/2000/svg"
 width="286.000000pt" height="379.000000pt" viewBox="0 0 286.000000 379.000000"
 preserveAspectRatio="xMidYMid meet">
<metadata>
Created by potrace 1.16, written by Peter Selinger 2001-2019
</metadata>
<g transform="translate(0.000000,379.000000) scale(0.100000,-0.100000)"
fill="#000000" stroke="none">
<path d="M207 3592 c-18 -11 -27 -24 -25 -37 3 -17 11 -20 52 -20 57 0 51 11
81 -160 43 -251 104 -450 130 -423 3 3 -12 115 -34 249 -28 169 -39 269 -38
327 l2 82 -70 0 c-48 0 -79 -6 -98 -18z"/>
<path d="M1345 3598 c-2 -7 -6 -26 -9 -43 -2 -16 -14 -70 -26 -120 -24 -105
-42 -304 -31 -355 4 -21 14 -36 24 -38 14 -3 17 4 17 40 0 24 4 59 9 78 5 19
17 80 26 135 9 55 23 118 31 140 8 23 14 57 14 77 0 20 5 40 10 43 6 3 10 17
10 31 0 21 -5 24 -35 24 -20 0 -37 -6 -40 -12z"/>
<path d="M2286 3569 c-32 -33 -36 -40 -21 -45 12 -5 31 7 63 40 44 43 45 46
22 45 -15 0 -40 -16 -64 -40z"/>
<path d="M2605 3593 c3 -10 13 -40 20 -68 7 -27 22 -72 32 -100 l18 -50 3 75
c2 41 0 94 -3 118 -6 40 -8 42 -42 42 -29 0 -34 -3 -28 -17z"/>
<path d="M1563 3319 c-15 -15 -8 -32 44 -106 61 -86 141 -156 226 -197 67 -33
76 -34 126 -26 57 10 98 37 82 53 -6 6 -26 6 -55 -2 -42 -10 -51 -9 -109 17
-52 24 -81 49 -177 150 -63 67 -117 122 -120 122 -3 0 -11 -5 -17 -11z"/>
<path d="M2647 2212 c-10 -10 -17 -22 -17 -27 0 -5 -8 -17 -17 -27 -24 -27 -2
-49 25 -25 10 9 24 17 30 17 7 0 12 16 12 40 0 44 -8 49 -33 22z"/>
<path d="M1586 2208 c-3 -7 -9 -27 -14 -44 -6 -19 -7 -62 -1 -115 8 -73 7 -85
-8 -94 -35 -21 -95 -80 -109 -106 -33 -65 2 -119 77 -119 56 0 66 -22 71 -152
4 -80 2 -108 -7 -108 -23 0 -91 86 -110 138 -19 52 -38 66 -49 36 -22 -57 25
-149 107 -212 61 -48 67 -63 67 -177 0 -223 43 -495 74 -464 3 3 0 103 -6 223
-9 166 -9 225 0 249 8 22 8 34 1 43 -20 24 0 74 36 91 47 22 94 93 112 166 24
100 28 241 9 292 -20 52 -103 133 -146 141 -42 9 -50 23 -56 100 -6 73 -21
124 -36 124 -5 0 -10 -6 -12 -12z m170 -329 c55 -58 62 -190 13 -245 -10 -11
-19 -30 -19 -42 0 -11 -4 -24 -10 -27 -5 -3 -10 -23 -10 -44 0 -42 -18 -65
-47 -59 -13 3 -17 11 -16 33 2 17 3 49 2 73 0 73 1 85 8 148 7 52 13 65 41 89
41 34 37 50 -14 50 -33 0 -39 3 -42 23 -2 13 -1 30 2 37 8 21 56 2 92 -36z
m-166 -20 c16 -29 -12 -59 -57 -59 -41 0 -44 21 -7 55 33 30 50 31 64 4z"/>
<path d="M922 2173 c-10 -21 -24 -58 -31 -83 -7 -25 -17 -55 -22 -68 -11 -29
-12 -92 -1 -92 13 0 37 30 61 75 12 22 35 63 51 90 34 59 36 76 12 98 -29 26
-50 20 -70 -20z"/>
<path d="M2159 2133 c-15 -38 -4 -193 19 -268 16 -52 21 -60 43 -60 22 0 24 4
23 40 0 22 -6 79 -13 127 -6 48 -9 99 -5 113 7 29 -18 75 -41 75 -9 0 -20 -12
-26 -27z"/>
<path d="M2348 1957 c-48 -66 -78 -156 -78 -235 0 -53 4 -67 25 -87 34 -35 51
-31 75 15 l21 40 -25 10 c-13 5 -27 13 -30 18 -3 5 6 40 20 78 26 70 40 179
25 189 -5 2 -19 -10 -33 -28z"/>
<path d="M969 1895 c-3 -2 -28 -6 -56 -9 -50 -3 -75 -16 -136 -67 -65 -55 -1
-80 89 -34 27 14 64 28 81 31 41 8 50 -9 35 -69 -21 -82 -159 -351 -217 -422
-17 -22 -35 -50 -39 -62 -4 -12 -27 -40 -52 -61 -37 -33 -42 -41 -30 -51 19
-16 42 -4 92 51 38 42 119 144 139 177 5 9 21 31 34 49 28 41 88 157 119 231
45 109 38 211 -15 232 -27 10 -38 11 -44 4z"/>
<path d="M2653 1769 c-12 -24 -37 -70 -54 -102 -24 -43 -29 -61 -21 -69 13
-13 39 4 53 37 5 11 18 32 29 46 17 20 21 37 18 78 l-3 54 -22 -44z"/>
<path d="M2654 1460 c-23 -9 -54 -52 -54 -74 0 -24 17 -28 50 -11 26 13 30 21
30 55 0 22 -1 40 -2 39 -2 0 -12 -4 -24 -9z"/>
<path d="M2393 1337 c-5 -6 -26 -45 -46 -85 -21 -40 -53 -93 -72 -118 -39 -51
-45 -92 -17 -117 37 -34 72 -10 72 49 0 15 6 35 13 43 16 18 77 189 77 214 0
21 -16 30 -27 14z"/>
<path d="M870 1273 c0 -36 22 -104 52 -166 12 -27 28 -58 33 -70 43 -90 51
-102 77 -108 37 -10 42 3 20 43 -10 18 -23 47 -29 63 -51 139 -119 265 -144
265 -5 0 -9 -12 -9 -27z"/>
<path d="M1070 1273 c1 -13 72 -54 88 -51 30 6 22 26 -18 42 -43 17 -70 21
-70 9z"/>
<path d="M2672 1213 c-1 -7 -20 -49 -41 -93 -22 -44 -49 -106 -61 -138 l-21
-57 21 -17 c14 -11 39 -18 66 -18 44 0 44 0 44 35 0 28 -4 35 -19 35 -32 0
-33 16 -6 80 21 49 25 74 22 123 -2 34 -4 57 -5 50z"/>
<path d="M1050 1196 c0 -9 7 -16 16 -16 9 0 14 5 12 12 -6 18 -28 21 -28 4z"/>
<path d="M268 872 c-77 -24 -88 -30 -88 -49 0 -28 11 -28 84 -3 54 18 114 56
115 73 1 11 -17 8 -111 -21z"/>
</g>
</svg>
