<?xml version="1.0" standalone="no"?>
<!DOCTYPE svg PUBLIC "-//W3C//DTD SVG 20010904//EN"
 "http://www.w3.org/TR/2001/REC-SVG-20010904/DTD/svg10.dtd">
<svg version="1.0" xmlns="http://www.w3.org/2000/svg"
 width="145.000000pt" height="315.000000pt" viewBox="0 0 145.000000 315.000000"
 preserveAspectRatio="xMidYMid meet">
<metadata>
Created by potrace 1.16, written by Peter Selinger 2001-2019
</metadata>
<g transform="translate(0.000000,315.000000) scale(0.100000,-0.100000)"
fill="#000000" stroke="none">
<path d="M647 2274 c-3 -4 -30 -14 -59 -24 -36 -11 -54 -23 -57 -36 -5 -27
-18 -41 -76 -79 -69 -46 -121 -111 -105 -130 7 -8 24 -15 37 -15 16 0 27 -7
30 -20 5 -19 5 -19 32 0 14 11 42 21 61 22 30 3 35 0 38 -20 6 -39 -4 -54 -27
-41 -16 11 -25 7 -62 -25 -24 -20 -49 -34 -56 -32 -28 11 -75 -27 -100 -81
-28 -60 -25 -86 9 -81 16 2 24 11 26 30 2 14 9 31 16 37 17 14 50 -31 60 -80
8 -47 25 -61 65 -53 34 7 39 -3 19 -35 -9 -15 -9 -23 1 -35 18 -22 31 -20 31
3 0 29 15 33 35 11 22 -25 13 -50 -19 -50 -28 0 -137 -70 -166 -108 -27 -33
-24 -95 3 -100 30 -6 59 27 52 58 -5 23 1 32 39 63 49 41 80 47 95 18 15 -28
40 -156 51 -267 6 -54 14 -135 19 -179 7 -62 6 -86 -5 -107 -8 -15 -14 -32
-14 -38 0 -17 26 -11 46 11 16 18 19 36 18 123 -1 99 -16 297 -29 366 -10 50
-34 112 -53 133 -14 16 -14 20 7 48 21 28 21 32 7 48 -21 23 -20 34 3 79 11
20 25 52 32 70 7 19 22 38 36 43 28 11 29 25 2 39 -22 12 -29 9 -86 -43 -43
-40 -52 -30 -37 40 31 138 40 158 66 161 31 4 131 -33 150 -56 33 -38 25 -106
-19 -154 -13 -14 -14 -21 -5 -30 26 -26 107 95 105 158 -2 66 -66 120 -163
140 -48 9 -55 13 -55 35 0 21 4 24 33 23 40 -2 42 11 2 25 -29 10 -38 25 -22
35 4 2 48 10 97 17 101 13 117 21 92 46 -13 13 -32 17 -80 15 -48 -2 -67 1
-77 13 -13 16 -32 20 -43 9z m-69 -171 c-3 -38 -3 -38 -52 -41 -36 -2 -47 0
-44 10 5 13 77 67 91 68 5 0 7 -17 5 -37z m-43 -240 c-4 -16 -10 -52 -14 -81
-8 -55 -31 -90 -51 -77 -22 14 31 185 57 185 12 0 13 -7 8 -27z m65 -139 c0
-13 -42 -74 -51 -74 -14 0 -11 33 7 58 14 20 44 31 44 16z"/>
<path d="M464 1229 c-39 -11 -100 -77 -85 -92 7 -7 20 -1 41 17 34 28 70 34
70 11 0 -8 -6 -29 -14 -47 -40 -89 -77 -208 -74 -234 2 -18 12 -34 29 -43 54
-30 189 13 153 49 -7 7 -27 7 -64 0 -36 -7 -57 -7 -64 0 -15 15 4 77 58 193
44 94 54 131 39 140 -20 11 -61 14 -89 6z"/>
</g>
</svg>
