<?xml version="1.0" standalone="no"?>
<!DOCTYPE svg PUBLIC "-//W3C//DTD SVG 20010904//EN"
 "http://www.w3.org/TR/2001/REC-SVG-20010904/DTD/svg10.dtd">
<svg version="1.0" xmlns="http://www.w3.org/2000/svg"
 width="292.000000pt" height="428.000000pt" viewBox="0 0 292.000000 428.000000"
 preserveAspectRatio="xMidYMid meet">
<metadata>
Created by potrace 1.16, written by Peter Selinger 2001-2019
</metadata>
<g transform="translate(0.000000,428.000000) scale(0.100000,-0.100000)"
fill="#000000" stroke="none">
<path d="M255 4068 c18 -83 51 -126 78 -99 9 9 9 16 -1 31 -6 10 -15 37 -18
60 -6 36 -9 40 -36 40 -28 0 -29 -2 -23 -32z"/>
<path d="M423 4014 c-81 -82 -139 -121 -198 -134 -18 -3 -31 -13 -33 -24 -4
-17 1 -18 40 -13 68 9 127 39 222 112 95 72 93 71 176 39 40 -15 49 -16 75 -3
42 20 37 33 -14 40 -33 4 -52 14 -72 37 -25 27 -35 32 -71 30 -40 -1 -49 -8
-125 -84z"/>
<path d="M1250 4093 c1 -21 48 -88 64 -91 33 -7 39 13 17 57 -18 34 -26 41
-51 41 -17 0 -30 -3 -30 -7z"/>
<path d="M2675 4090 c3 -6 19 -17 36 -25 28 -15 29 -15 29 10 0 22 -4 25 -36
25 -21 0 -33 -4 -29 -10z"/>
<path d="M1201 2831 c-6 -11 -11 -60 -11 -109 0 -49 -4 -102 -9 -118 -5 -16
-17 -67 -27 -114 -16 -75 -22 -89 -57 -121 -49 -45 -49 -79 1 -93 30 -8 36 -6
70 25 20 19 53 42 73 51 48 21 197 53 206 44 4 -4 -1 -19 -10 -34 -10 -15 -25
-42 -33 -59 -16 -36 -35 -41 -74 -18 -32 18 -100 20 -100 2 0 -13 76 -77 92
-77 4 0 8 -5 8 -11 0 -32 -211 -229 -245 -229 -13 0 -27 -5 -31 -12 -10 -16
26 -39 49 -32 43 14 146 89 221 161 l78 77 63 -17 c35 -9 73 -17 84 -17 56 0
-16 -147 -91 -186 -52 -27 -187 -45 -337 -45 -121 0 -149 3 -180 19 -31 17
-36 24 -35 53 2 32 30 103 57 141 9 14 9 20 0 29 -9 9 -25 1 -68 -35 -56 -49
-60 -55 -69 -140 -6 -46 -4 -51 29 -82 20 -18 54 -38 77 -44 46 -13 302 -8
388 8 30 5 58 7 63 3 4 -4 0 -21 -8 -39 -9 -17 -22 -62 -28 -99 l-13 -68 -87
-42 c-93 -45 -93 -45 -100 -110 -6 -50 12 -58 39 -18 20 30 134 100 144 88 4
-4 13 -25 20 -46 14 -44 56 -97 77 -97 20 0 83 49 83 65 0 16 32 75 41 75 3 0
9 -62 11 -137 7 -158 16 -193 52 -193 l24 0 -3 190 c-2 120 1 192 7 196 17 11
62 -30 85 -77 18 -36 22 -61 22 -139 1 -90 -5 -123 -45 -255 -22 -73 -22 -90
0 -90 25 0 92 128 113 214 20 86 14 232 -11 281 -28 54 -86 109 -141 136 -27
13 -58 29 -67 36 -14 10 -21 9 -40 -9 -16 -15 -42 -24 -85 -29 -62 -7 -63 -6
-63 18 0 14 9 37 20 51 11 14 20 30 20 36 0 6 11 18 25 27 14 9 25 24 25 34 0
9 10 25 21 36 35 31 103 125 132 181 23 46 25 53 11 64 -9 7 -31 12 -50 12
-24 -1 -37 5 -45 18 -5 10 -28 28 -50 39 -22 12 -42 27 -45 34 -3 7 11 42 30
78 75 136 28 180 -154 143 -155 -31 -140 -32 -140 6 0 19 7 45 15 59 29 51 36
75 47 169 9 80 9 102 -3 126 -17 36 -53 45 -68 16z m337 -1226 c3 -27 -79
-120 -100 -113 -16 7 -35 94 -23 106 13 14 71 31 95 29 17 -1 26 -9 28 -22z"/>
<path d="M2441 2676 c-10 -11 -10 -28 0 -73 6 -32 13 -150 15 -262 2 -168 0
-210 -13 -243 -16 -39 -16 -41 18 -106 19 -37 35 -69 36 -71 2 -2 9 1 16 7 8
7 48 11 96 10 83 -1 108 8 98 35 -6 15 -40 24 -147 35 -76 8 -88 26 -44 67 45
41 148 32 202 -17 l22 -21 0 45 c0 45 -1 46 -42 63 -24 10 -77 20 -118 24
l-75 6 2 55 c1 71 23 163 40 173 18 11 16 35 -3 39 -14 3 -17 19 -18 109 -1
114 -10 139 -51 139 -12 0 -28 -6 -34 -14z"/>
<path d="M2632 2390 c-25 -11 -39 -37 -26 -49 5 -5 37 -11 72 -14 l62 -5 0 39
0 39 -42 -1 c-24 0 -53 -4 -66 -9z"/>
<path d="M2373 2058 c-39 -74 -12 -227 44 -249 21 -8 24 -14 18 -38 -5 -25 -2
-31 21 -43 21 -10 31 -25 41 -63 23 -89 20 -95 -77 -122 -60 -18 -113 -25
-180 -27 -89 -1 -95 -3 -98 -23 -2 -16 5 -26 27 -37 43 -23 101 -20 228 10 61
15 118 24 127 21 27 -10 18 -34 -25 -69 -78 -63 -163 -140 -177 -159 -8 -11
-11 -26 -8 -34 10 -26 44 -16 71 20 15 19 36 37 47 41 11 3 40 20 64 37 64 45
72 33 90 -139 15 -140 29 -183 55 -157 11 11 8 152 -7 320 -6 66 -5 72 15 83
26 13 18 32 -12 28 -18 -2 -23 3 -25 30 -3 30 0 34 40 52 24 11 53 20 66 20
19 0 22 5 22 36 0 40 3 40 -92 13 -59 -16 -69 -9 -79 58 -4 27 -10 58 -14 70
-6 18 -1 25 31 40 42 20 51 48 22 67 -14 8 -29 7 -64 -6 -47 -17 -47 -17 -80
10 -26 21 -35 37 -40 72 -4 25 -13 62 -21 82 -11 27 -12 42 -4 57 7 12 7 22 1
26 -5 3 -17 -9 -27 -27z"/>
<path d="M2732 1885 c0 -16 2 -22 5 -12 2 9 2 23 0 30 -3 6 -5 -1 -5 -18z"/>
<path d="M180 1740 l0 -29 53 6 c61 7 75 16 57 38 -8 10 -29 15 -61 15 -48 0
-49 -1 -49 -30z"/>
<path d="M1090 1540 c0 -5 5 -10 10 -10 6 0 10 5 10 10 0 6 -4 10 -10 10 -5 0
-10 -4 -10 -10z"/>
<path d="M1084 1465 c-9 -22 3 -201 18 -277 14 -73 28 -94 54 -84 18 7 17 24
-9 146 -8 36 -15 90 -15 121 -2 84 -31 140 -48 94z"/>
<path d="M198 1069 c-18 -10 -25 -59 -9 -59 19 0 101 52 95 61 -7 12 -65 11
-86 -2z"/>
</g>
</svg>
