<?xml version="1.0" standalone="no"?>
<!DOCTYPE svg PUBLIC "-//W3C//DTD SVG 20010904//EN"
 "http://www.w3.org/TR/2001/REC-SVG-20010904/DTD/svg10.dtd">
<svg version="1.0" xmlns="http://www.w3.org/2000/svg"
 width="375.000000pt" height="411.000000pt" viewBox="0 0 375.000000 411.000000"
 preserveAspectRatio="xMidYMid meet">
<metadata>
Created by potrace 1.16, written by Peter Selinger 2001-2019
</metadata>
<g transform="translate(0.000000,411.000000) scale(0.100000,-0.100000)"
fill="#000000" stroke="none">
<path d="M222 3834 c-28 -62 -42 -110 -42 -137 0 -49 9 -40 40 41 11 29 38 84
59 122 l40 70 -28 0 c-25 0 -31 -8 -69 -96z"/>
<path d="M3449 3488 c-18 -18 -67 -96 -109 -173 -42 -77 -98 -174 -123 -216
-44 -71 -57 -109 -39 -109 13 0 99 92 139 150 88 128 107 151 138 158 40 11
71 59 78 123 5 39 3 59 -8 76 -21 31 -37 29 -76 -9z"/>
<path d="M1294 3299 c-176 -122 -403 -421 -499 -658 -30 -73 -26 -97 26 -147
28 -27 37 -29 117 -32 70 -3 104 1 177 22 123 35 151 37 147 11 -4 -27 -20
-185 -21 -207 -1 -21 -79 -73 -131 -88 -46 -14 -196 -148 -237 -213 -37 -57
-40 -78 -18 -97 20 -16 42 3 95 80 21 30 53 69 71 86 45 41 199 128 208 117 9
-10 -12 -324 -27 -404 -18 -92 -26 -338 -13 -402 13 -73 31 -111 54 -115 27
-5 34 29 9 46 -20 13 -22 23 -22 116 0 56 9 174 20 262 10 87 24 236 30 329
11 176 29 315 40 315 4 0 19 -24 35 -52 69 -130 169 -239 258 -281 64 -30 91
-32 169 -16 47 10 53 10 63 -6 18 -31 67 -85 87 -96 36 -19 32 0 -10 50 -47
56 -52 84 -19 122 35 41 59 49 159 49 84 0 169 16 240 45 23 9 29 -17 29 -129
1 -111 -11 -140 -73 -182 -39 -26 -51 -29 -125 -29 -45 0 -85 -3 -89 -7 -10
-11 42 -28 86 -28 47 0 56 -11 30 -35 -32 -29 -43 -80 -35 -159 18 -186 55
-267 135 -297 92 -34 49 -64 -84 -57 -109 6 -150 24 -238 105 -66 60 -93 61
-63 2 20 -41 104 -129 122 -129 7 0 28 -9 48 -20 46 -26 237 -39 305 -20 49
13 107 62 146 122 13 21 35 45 49 54 25 16 27 16 50 -6 14 -13 25 -33 25 -44
1 -31 64 -101 84 -93 23 9 20 53 -6 90 -13 18 -31 48 -40 69 -13 30 -23 38
-53 44 -21 4 -53 2 -73 -4 -43 -14 -48 -11 -55 31 -13 83 -150 307 -173 284
-4 -4 9 -33 28 -64 59 -97 85 -155 99 -227 l13 -68 -27 -24 c-39 -33 -73 -40
-120 -22 -54 19 -91 90 -112 216 -20 121 -20 116 20 161 19 21 35 45 35 53 0
8 27 36 60 61 91 71 95 79 93 221 -1 99 -6 137 -28 211 -14 50 -37 107 -51
127 -13 21 -24 41 -24 45 0 4 -23 31 -51 59 l-51 52 12 55 c12 50 11 59 -6 89
-11 18 -35 41 -54 50 -44 22 -139 23 -206 3 -57 -17 -90 -19 -99 -5 -7 11 10
108 27 155 48 131 123 226 210 267 68 32 83 50 68 77 -6 12 -22 24 -35 27
-104 26 -289 -220 -325 -434 -14 -78 -5 -127 27 -152 33 -26 43 -25 148 5 80
23 91 24 134 12 46 -13 46 -13 44 -54 -3 -61 -18 -82 -81 -110 -70 -30 -198
-127 -216 -162 -26 -51 -28 -86 -7 -105 18 -16 24 -17 73 -3 29 8 65 18 81 21
36 8 103 70 127 115 24 48 63 83 83 75 21 -8 107 -167 107 -198 0 -13 -6 -28
-12 -34 -23 -18 -129 -32 -247 -32 -177 -1 -221 -17 -221 -82 0 -33 -28 -54
-85 -63 -89 -14 -219 84 -330 249 -21 32 -49 65 -61 73 -29 19 -35 51 -26 138
l7 70 90 36 c95 37 108 51 84 95 -15 29 -30 30 -46 5 -7 -11 -29 -25 -50 -31
-21 -7 -42 -16 -48 -21 -5 -5 -13 -9 -17 -9 -10 0 -9 103 1 185 8 62 2 110
-14 110 -19 0 -43 -94 -49 -190 -5 -90 -8 -102 -30 -122 -59 -51 -327 -95
-387 -63 -24 14 -24 31 2 111 37 110 193 326 332 459 61 59 182 129 239 138
35 6 44 12 46 31 5 34 -32 60 -84 61 -32 0 -54 -9 -100 -41z m786 -883 c0 -27
-66 -111 -105 -133 -21 -12 -43 -19 -47 -17 -15 10 22 62 79 113 60 53 73 60
73 37z"/>
<path d="M3426 3241 c-11 -12 -16 -24 -12 -28 9 -9 39 22 34 37 -2 7 -10 4
-22 -9z"/>
<path d="M3455 2945 c-193 -58 -378 -105 -455 -117 -111 -16 -115 -16 -112 6
3 17 -1 18 -33 13 -110 -18 -95 -107 19 -112 92 -4 322 47 586 131 45 15 78
20 83 15 12 -12 -20 -65 -89 -144 -29 -34 -50 -65 -48 -69 7 -11 81 41 127 89
l38 40 -3 90 -3 91 -110 -33z"/>
<path d="M2905 2860 c-3 -6 1 -7 9 -4 18 7 21 14 7 14 -6 0 -13 -4 -16 -10z"/>
<path d="M3333 2463 c-37 -42 -117 -126 -176 -186 -116 -118 -131 -149 -73
-155 25 -3 40 8 111 80 45 46 93 102 108 125 34 53 126 145 140 140 7 -2 15
-35 19 -73 7 -77 1 -691 -7 -704 -3 -5 -5 -100 -5 -212 1 -215 15 -331 41
-336 12 -2 14 29 14 205 0 115 6 274 13 355 15 177 16 665 1 728 -14 63 -52
110 -89 110 -23 0 -41 -15 -97 -77z"/>
<path d="M1970 1832 c0 -14 39 -46 47 -39 3 4 -2 16 -12 27 -19 21 -35 26 -35
12z"/>
<path d="M1672 1442 c-83 -103 -191 -317 -194 -387 -3 -45 -1 -50 19 -53 28
-4 46 23 78 123 15 44 33 87 41 96 8 8 14 20 14 26 0 6 14 28 31 49 17 22 39
55 49 74 23 47 43 131 33 141 -5 5 -37 -26 -71 -69z"/>
<path d="M3360 1375 c-13 -14 -21 -27 -18 -30 2 -3 15 6 28 20 13 14 21 27 18
30 -2 3 -15 -6 -28 -20z"/>
<path d="M3245 1258 c-41 -48 -48 -71 -41 -122 8 -53 45 -103 92 -122 25 -10
241 -54 268 -54 3 0 6 15 6 33 0 37 20 30 -188 68 -85 16 -122 49 -122 112 0
24 7 61 15 81 19 45 6 46 -30 4z"/>
<path d="M180 876 c0 -39 102 -161 199 -238 40 -32 77 -58 82 -58 4 0 37 -18
71 -40 62 -40 285 -119 428 -154 69 -16 140 -11 148 12 2 8 -11 12 -47 12 -28
0 -59 4 -69 10 -9 5 -42 16 -72 24 -285 75 -527 209 -665 367 -77 88 -75 86
-75 65z"/>
<path d="M1441 425 c-18 -8 -42 -15 -53 -15 -30 0 -98 -22 -98 -32 0 -4 8 -8
19 -8 10 0 24 -6 30 -14 11 -13 17 -13 46 0 19 8 46 14 60 14 26 0 105 46 105
61 0 14 -72 10 -109 -6z"/>
<path d="M1126 391 c-3 -4 6 -13 20 -19 19 -9 29 -9 44 0 11 7 20 16 20 20 0
11 -78 10 -84 -1z"/>
</g>
</svg>
