<?xml version="1.0" standalone="no"?>
<!DOCTYPE svg PUBLIC "-//W3C//DTD SVG 20010904//EN"
 "http://www.w3.org/TR/2001/REC-SVG-20010904/DTD/svg10.dtd">
<svg version="1.0" xmlns="http://www.w3.org/2000/svg"
 width="286.000000pt" height="379.000000pt" viewBox="0 0 286.000000 379.000000"
 preserveAspectRatio="xMidYMid meet">
<metadata>
Created by potrace 1.16, written by Peter Selinger 2001-2019
</metadata>
<g transform="translate(0.000000,379.000000) scale(0.100000,-0.100000)"
fill="#000000" stroke="none">
<path d="M585 3600 c-10 -17 -35 -104 -35 -126 0 -11 -7 -35 -16 -52 -11 -24
-13 -42 -7 -74 10 -51 36 -59 41 -13 4 41 32 105 47 105 7 0 20 -9 30 -19 23
-26 129 -89 163 -97 15 -4 45 -16 67 -27 22 -11 48 -25 59 -30 43 -21 192 -34
296 -27 58 5 119 11 135 15 55 12 190 58 203 68 29 23 -9 26 -94 6 -56 -13
-142 -22 -234 -26 -162 -6 -228 5 -330 55 l-55 27 -6 110 c-4 61 -7 111 -8
113 0 1 -13 2 -27 2 l-27 0 6 -68 c4 -38 10 -83 13 -100 8 -41 -6 -42 -84 -2
-33 17 -67 30 -76 30 -26 0 -29 23 -12 81 9 29 16 54 16 56 0 8 -59 2 -65 -7z"/>
<path d="M1712 3553 c2 -31 8 -58 14 -60 12 -4 29 32 39 85 6 31 5 32 -25 32
l-31 0 3 -57z"/>
<path d="M2546 3548 c7 -67 23 -113 39 -113 6 0 11 39 13 88 l3 87 -30 0 -31
0 6 -62z"/>
<path d="M1106 2632 c-8 -15 -22 -53 -31 -85 -9 -32 -52 -129 -95 -215 -43
-87 -88 -185 -100 -219 -26 -75 -25 -156 3 -161 9 -2 19 2 20 10 20 77 67 196
98 249 22 36 39 68 39 72 0 3 23 55 52 114 77 160 90 200 72 235 -18 36 -40
36 -58 0z"/>
<path d="M2295 2510 c-4 -6 -4 -28 0 -49 9 -53 -11 -186 -47 -306 -36 -126
-40 -185 -13 -215 30 -33 79 -20 128 36 21 24 44 44 50 44 6 0 23 -12 38 -26
17 -16 34 -24 43 -21 20 8 21 51 1 67 -19 16 -19 60 0 86 21 28 18 61 -7 75
-18 10 -24 8 -40 -12 -11 -13 -27 -40 -36 -60 -25 -52 -108 -143 -122 -134
-16 10 -8 61 25 159 13 41 29 108 35 148 6 40 13 84 16 98 3 16 -4 42 -19 70
-26 46 -41 58 -52 40z"/>
<path d="M1125 2198 c-52 -28 -96 -84 -115 -145 -10 -34 -25 -71 -32 -83 -12
-19 -10 -24 15 -46 19 -16 40 -24 67 -24 21 0 42 -5 45 -11 4 -6 -14 -30 -40
-53 -49 -45 -55 -69 -23 -90 32 -20 298 57 298 87 0 4 -40 5 -89 1 -90 -7
-123 3 -82 26 11 5 59 55 107 110 84 98 86 101 69 120 -26 28 -43 25 -82 -15
-18 -19 -66 -50 -105 -70 -60 -29 -74 -33 -85 -22 -19 19 25 95 84 146 40 34
44 41 34 60 -13 23 -35 26 -66 9z"/>
<path d="M1477 1963 c-4 -3 -7 -36 -7 -72 1 -79 33 -156 65 -156 14 0 19 6 18
20 -15 134 -22 175 -32 193 -12 22 -31 28 -44 15z"/>
<path d="M1241 1716 c-15 -18 -6 -133 15 -185 8 -18 14 -45 14 -60 0 -14 8
-48 19 -76 10 -27 21 -89 25 -138 3 -48 7 -93 9 -99 5 -30 -43 -17 -102 27
-34 25 -66 43 -71 40 -19 -11 -10 -47 20 -85 40 -51 172 -120 197 -104 40 25
40 85 -2 267 -7 31 -9 59 -5 62 4 2 18 -7 31 -21 38 -41 105 -84 132 -84 52 0
60 56 11 70 -56 16 -196 118 -204 150 -11 38 -28 120 -35 167 -4 24 -14 52
-24 64 -15 19 -18 19 -30 5z"/>
<path d="M180 1654 c0 -31 4 -37 35 -50 61 -25 75 7 26 57 -41 40 -61 38 -61
-7z"/>
<path d="M2477 1543 c-3 -5 -14 -38 -26 -75 -11 -37 -39 -107 -62 -155 -76
-160 -79 -171 -71 -210 8 -41 35 -64 52 -47 6 6 22 56 35 110 13 55 33 125 44
157 18 48 51 192 51 220 0 4 -4 7 -9 7 -6 0 -12 -3 -14 -7z"/>
<path d="M1005 1396 c-56 -24 -149 -172 -143 -228 3 -30 6 -33 39 -36 25 -2
40 3 54 18 17 19 17 21 2 38 -10 10 -17 25 -17 34 0 24 47 89 92 129 56 49 41
75 -27 45z"/>
<path d="M2663 1333 c-12 -47 -9 -116 5 -120 9 -4 12 15 12 71 0 80 -5 94 -17
49z"/>
<path d="M180 929 c0 -31 30 -41 98 -32 84 11 63 45 -33 53 -65 5 -65 5 -65
-21z"/>
</g>
</svg>
