<?xml version="1.0" standalone="no"?>
<!DOCTYPE svg PUBLIC "-//W3C//DTD SVG 20010904//EN"
 "http://www.w3.org/TR/2001/REC-SVG-20010904/DTD/svg10.dtd">
<svg version="1.0" xmlns="http://www.w3.org/2000/svg"
 width="291.000000pt" height="408.000000pt" viewBox="0 0 291.000000 408.000000"
 preserveAspectRatio="xMidYMid meet">
<metadata>
Created by potrace 1.16, written by Peter Selinger 2001-2019
</metadata>
<g transform="translate(0.000000,408.000000) scale(0.100000,-0.100000)"
fill="#000000" stroke="none">
<path d="M1384 3175 c-12 -8 -30 -38 -41 -67 -49 -132 -73 -212 -65 -220 13
-13 23 5 76 132 26 63 57 124 67 136 30 32 2 47 -37 19z"/>
<path d="M2420 2951 c-147 -111 -205 -164 -197 -185 12 -30 49 -17 108 37 91
81 146 127 153 127 16 0 -1 -42 -90 -219 -53 -104 -94 -198 -92 -208 4 -19 41
-23 83 -9 20 7 21 4 20 -127 0 -128 1 -137 23 -160 25 -26 78 -42 106 -31 21
8 111 127 160 211 24 41 36 74 36 99 l0 38 -17 -23 c-9 -13 -29 -50 -44 -82
-32 -65 -144 -209 -163 -209 -23 0 -54 30 -60 58 -4 15 -1 72 4 127 6 55 13
120 16 144 4 36 0 49 -18 68 l-22 24 19 56 c11 31 31 73 44 92 38 57 102 201
99 225 -2 15 -11 22 -33 23 -24 2 -52 -15 -135 -76z"/>
<path d="M1095 2885 c-9 -19 -16 -52 -17 -73 -5 -111 13 -699 23 -762 6 -41
14 -93 18 -114 3 -22 12 -41 18 -43 10 -4 11 4 6 29 -4 18 -7 76 -7 128 -1 86
2 102 31 170 18 41 37 83 43 92 13 22 13 78 1 78 -15 0 -39 -39 -57 -92 -8
-26 -19 -48 -23 -48 -12 0 -12 436 0 520 17 123 16 144 -4 148 -12 2 -22 -7
-32 -33z"/>
<path d="M2677 2902 c-21 -23 -21 -36 -3 -51 24 -20 56 4 56 39 0 35 -27 41
-53 12z"/>
<path d="M1434 2749 c-23 -5 -52 -21 -64 -35 -22 -23 -23 -26 -7 -41 14 -14
21 -15 43 -4 16 7 31 8 36 3 10 -10 -16 -88 -36 -109 -15 -15 -156 -63 -188
-63 -30 0 -74 -32 -65 -47 18 -29 126 -14 210 29 21 10 41 17 44 14 3 -2 6
-28 8 -58 2 -29 7 -90 11 -135 6 -84 -2 -106 -23 -60 -19 40 -125 159 -134
150 -5 -5 10 -47 36 -99 51 -101 104 -157 145 -152 22 3 25 7 23 43 0 22 -3
104 -5 181 l-3 142 78 76 c43 42 81 75 86 72 21 -14 51 -169 76 -396 50 -471
51 -530 10 -530 -8 0 -15 -7 -15 -15 0 -27 38 -16 64 18 29 38 34 102 16 198
-6 30 -15 127 -20 216 -5 90 -13 189 -19 220 -5 32 -15 92 -21 133 -19 132
-48 193 -111 233 -31 19 -123 28 -175 16z m131 -59 c7 -12 -64 -92 -76 -84
-11 6 5 40 34 72 22 24 33 27 42 12z"/>
<path d="M317 639 c-52 -43 -137 -212 -137 -271 1 -41 1 -42 16 -23 8 11 36
55 61 97 25 42 65 98 89 125 45 49 53 70 32 91 -17 17 -19 16 -61 -19z"/>
<path d="M1980 584 c-6 -14 -10 -33 -10 -42 -1 -30 -66 -296 -85 -345 -11 -28
51 -23 87 8 37 31 53 31 82 0 20 -22 76 -36 76 -20 0 40 -83 105 -133 105 -35
0 -38 8 -21 55 46 124 61 265 29 265 -9 0 -20 -12 -25 -26z"/>
<path d="M731 426 c-37 -13 -81 -61 -81 -88 0 -22 3 -22 40 -3 52 27 108 23
183 -14 64 -31 67 -34 67 -67 0 -20 -5 -44 -10 -55 -9 -16 -7 -19 8 -19 15 0
22 11 31 44 14 55 6 76 -50 140 -63 72 -115 89 -188 62z"/>
<path d="M1599 393 c-7 -18 -8 -63 -4 -121 l7 -93 87 3 c70 2 86 6 89 19 5 27
-46 31 -79 7 -46 -35 -56 -21 -51 70 6 111 -24 181 -49 115z"/>
<path d="M533 267 c-28 -29 -53 -68 -53 -81 0 -3 13 -6 29 -6 26 0 30 5 46 56
9 30 15 57 13 59 -2 3 -18 -10 -35 -28z"/>
</g>
</svg>
