<?xml version="1.0" standalone="no"?>
<!DOCTYPE svg PUBLIC "-//W3C//DTD SVG 20010904//EN"
 "http://www.w3.org/TR/2001/REC-SVG-20010904/DTD/svg10.dtd">
<svg version="1.0" xmlns="http://www.w3.org/2000/svg"
 width="255.000000pt" height="379.000000pt" viewBox="0 0 255.000000 379.000000"
 preserveAspectRatio="xMidYMid meet">
<metadata>
Created by potrace 1.16, written by Peter Selinger 2001-2019
</metadata>
<g transform="translate(0.000000,379.000000) scale(0.100000,-0.100000)"
fill="#000000" stroke="none">
<path d="M180 3559 l0 -51 30 24 c17 13 45 35 63 50 l32 27 -62 1 -63 0 0 -51z"/>
<path d="M1900 3337 c-40 -14 -51 -44 -24 -64 10 -7 44 -13 76 -13 53 0 58 2
64 25 13 54 -40 78 -116 52z"/>
<path d="M789 2684 c-7 -9 -15 -48 -18 -87 l-6 -72 -60 -18 c-114 -34 -129
-48 -77 -68 19 -8 44 -8 82 -1 30 6 58 7 62 4 4 -4 8 -67 10 -141 l3 -133 -79
-28 c-91 -33 -104 -43 -108 -90 -4 -48 19 -50 91 -6 32 20 65 36 73 36 18 0
30 -79 22 -144 -2 -22 -6 -88 -7 -146 l-2 -105 -55 -5 c-66 -7 -89 -18 -123
-63 -19 -26 -23 -37 -14 -46 17 -17 66 -13 114 10 24 12 50 19 57 16 11 -4 15
-49 18 -214 3 -114 8 -216 12 -226 10 -21 43 -40 56 -32 7 4 6 14 -1 28 -9 15
-10 83 -5 242 8 292 16 375 33 382 7 3 54 -18 103 -46 49 -28 99 -51 111 -51
20 0 21 -4 16 -42 -4 -24 -11 -63 -16 -88 -15 -65 -14 -223 1 -238 16 -16 47
-15 54 1 3 8 1 25 -5 39 -10 26 5 164 35 326 17 94 59 182 116 246 50 57 68
45 89 -60 47 -235 67 -458 50 -561 -15 -90 -5 -111 31 -61 45 60 60 147 47
259 -5 40 -13 124 -19 184 -17 174 -52 282 -106 324 -15 12 -35 21 -45 21 -48
0 -151 -138 -188 -255 -27 -83 -36 -94 -50 -67 -18 34 -147 115 -194 121 l-42
6 4 100 c2 55 6 118 10 140 l6 40 80 20 c97 25 127 41 123 63 -4 18 -19 20
-85 8 -39 -7 -44 -6 -52 17 -5 13 -17 27 -25 30 -9 4 -16 17 -16 29 0 31 37
126 61 156 24 31 59 109 59 131 0 21 -19 41 -39 41 -7 0 -39 -12 -69 -27 -53
-26 -55 -26 -68 -8 -8 10 -17 40 -20 67 -7 55 -16 65 -35 42z m107 -249 c-27
-60 -40 -64 -49 -15 -8 39 0 58 32 75 40 21 46 2 17 -60z"/>
<path d="M1286 2693 c-17 -17 -36 -78 -37 -117 0 -22 -8 -70 -17 -104 -16 -60
-20 -65 -55 -77 -71 -24 -89 -55 -33 -55 19 0 38 -5 41 -10 4 -6 -5 -59 -20
-118 -24 -94 -33 -114 -73 -161 -49 -58 -49 -77 0 -93 23 -8 36 -2 95 42 105
77 124 84 200 70 50 -10 67 -10 76 -1 9 10 7 16 -8 28 -26 20 -82 44 -120 52
-44 10 -37 33 18 59 52 25 61 50 30 85 -10 10 -22 44 -28 75 -9 52 -12 57 -39
60 -23 3 -27 7 -23 25 41 174 45 215 25 235 -14 14 -22 15 -32 5z m3 -367 c-9
-18 -7 -29 6 -50 19 -28 14 -56 -9 -56 -7 0 -21 -11 -30 -25 -9 -14 -21 -23
-26 -20 -13 8 -13 62 -1 70 5 3 13 20 17 37 8 40 33 80 45 73 4 -3 3 -16 -2
-29z m-19 -191 c0 -8 -4 -15 -9 -15 -13 0 -22 16 -14 24 11 11 23 6 23 -9z"/>
<path d="M1873 2523 c-16 -24 -18 -53 -18 -233 l0 -206 27 -42 c33 -50 82 -65
123 -38 36 24 39 7 23 -106 -7 -51 -12 -129 -11 -173 2 -71 5 -82 26 -100 l24
-20 -18 -40 c-10 -22 -19 -46 -19 -53 0 -7 -11 -31 -26 -53 -45 -72 -64 -109
-64 -126 0 -10 -14 -32 -32 -50 -31 -32 -31 -33 -13 -53 27 -30 42 -25 66 23
12 23 32 56 44 72 11 17 27 52 33 79 7 27 24 73 38 102 28 60 44 164 25 164
-6 0 -11 -4 -11 -10 0 -5 -7 -10 -15 -10 -19 0 -13 55 36 315 11 61 24 146 29
190 14 126 21 155 36 155 8 0 14 -10 14 -24 0 -35 18 -42 31 -13 8 18 8 30 0
45 -6 11 -11 33 -11 49 0 56 -59 105 -101 83 -17 -10 -19 -22 -19 -114 0 -87
-3 -105 -18 -119 -10 -10 -24 -17 -30 -17 -18 0 -26 -21 -28 -73 -4 -93 -71
-114 -93 -29 -20 78 -10 373 15 413 7 12 -14 39 -32 39 -7 0 -21 -12 -31 -27z"/>
<path d="M2289 2215 c-1 -3 -3 -17 -5 -32 -1 -16 -8 -53 -14 -83 -25 -124 -7
-657 24 -720 8 -17 20 -25 36 -25 23 0 25 5 31 60 4 33 7 152 7 265 0 194 0
202 -13 150 -8 -30 -14 -67 -15 -82 0 -16 -4 -28 -10 -28 -16 0 -17 108 -5
332 6 106 5 141 -5 153 -12 15 -29 20 -31 10z"/>
<path d="M1214 1686 c-11 -18 -14 -35 -10 -54 17 -65 18 -82 7 -82 -6 0 -11 5
-11 10 0 6 -4 10 -10 10 -17 0 -11 -26 9 -44 13 -12 22 -38 27 -75 6 -47 13
-62 44 -93 46 -46 76 -48 114 -9 29 30 32 69 5 63 -102 -25 -109 -16 -109 132
0 144 -27 201 -66 142z"/>
</g>
</svg>
