<?xml version="1.0" standalone="no"?>
<!DOCTYPE svg PUBLIC "-//W3C//DTD SVG 20010904//EN"
 "http://www.w3.org/TR/2001/REC-SVG-20010904/DTD/svg10.dtd">
<svg version="1.0" xmlns="http://www.w3.org/2000/svg"
 width="261.000000pt" height="340.000000pt" viewBox="0 0 261.000000 340.000000"
 preserveAspectRatio="xMidYMid meet">
<metadata>
Created by potrace 1.16, written by Peter Selinger 2001-2019
</metadata>
<g transform="translate(0.000000,340.000000) scale(0.100000,-0.100000)"
fill="#000000" stroke="none">
<path d="M617 3174 c-47 -54 -44 -79 8 -71 56 9 65 -14 65 -159 0 -108 2 -123
20 -139 11 -10 20 -16 21 -14 0 2 2 60 5 128 5 129 -8 199 -45 244 -12 15 -12
19 4 37 18 20 17 20 -11 20 -22 -1 -39 -12 -67 -46z"/>
<path d="M1116 3203 c11 -25 9 -69 -6 -125 -11 -38 -11 -50 0 -63 16 -20 33
-19 60 3 22 18 22 20 6 43 -15 24 -15 28 4 67 11 23 29 46 39 51 10 6 21 17
25 26 4 13 -6 15 -65 15 -64 0 -70 -2 -63 -17z"/>
<path d="M1275 3208 c-5 -16 -46 -193 -52 -229 -11 -59 72 -143 117 -119 12 6
25 22 30 36 6 16 17 24 33 24 13 0 36 14 54 33 39 41 110 180 117 230 l5 37
-150 0 c-111 0 -151 -3 -154 -12z m204 -105 c-13 -32 -33 -69 -45 -83 -12 -14
-29 -39 -38 -57 -19 -38 -47 -49 -83 -31 -25 12 -29 20 -36 83 -8 79 -5 95 20
95 10 0 35 11 55 25 35 24 36 24 53 5 24 -26 37 -25 65 5 13 14 25 23 28 20 2
-2 -6 -30 -19 -62z"/>
<path d="M1668 3108 c-10 -62 -21 -156 -24 -209 -7 -102 0 -130 37 -149 29
-16 47 2 55 58 4 26 13 64 20 86 9 25 14 87 14 182 l0 144 -43 0 -42 0 -17
-112z"/>
<path d="M1847 3148 c-4 -41 -20 -113 -38 -163 -33 -96 -53 -190 -44 -206 20
-31 73 9 101 76 28 70 29 70 106 4 38 -33 75 -58 81 -56 7 2 11 20 9 42 -2 20
4 65 12 99 8 33 18 96 22 139 5 62 12 84 31 108 l25 29 -46 0 c-29 0 -48 -5
-50 -12 -2 -7 -9 -62 -16 -123 -7 -60 -17 -118 -22 -128 -9 -18 -11 -18 -29
-1 -36 33 -32 91 16 245 5 14 1 19 -14 19 -23 0 -46 -37 -56 -93 -8 -40 -21
-55 -36 -40 -5 5 -2 29 6 57 21 70 20 76 -19 76 l-33 0 -6 -72z"/>
<path d="M2240 3166 c0 -44 5 -61 24 -83 20 -23 28 -26 43 -17 24 14 28 47 8
64 -9 7 -15 28 -15 51 0 37 -2 39 -30 39 -30 0 -30 -1 -30 -54z"/>
<path d="M855 3191 c-48 -29 -68 -58 -76 -109 -4 -26 -5 -48 -4 -50 6 -6 90
90 107 122 31 57 23 68 -27 37z"/>
<path d="M2033 2568 c4 -29 9 -79 13 -110 8 -68 -15 -154 -51 -196 -19 -22
-26 -25 -37 -14 -10 10 -10 17 0 32 17 28 42 101 42 126 0 60 -68 60 -142 -1
-44 -36 -64 -46 -103 -50 -34 -3 -56 -12 -75 -30 -34 -33 -60 -29 -80 10 -50
96 -97 145 -140 145 -26 0 -26 -27 -1 -54 45 -50 75 -136 52 -150 -5 -3 -42
-2 -82 3 -89 12 -109 4 -109 -43 0 -46 20 -60 72 -52 96 15 113 13 116 -13 2
-13 1 -43 -3 -65 -8 -52 -75 -114 -132 -123 -29 -4 -50 -18 -86 -56 -39 -41
-52 -49 -65 -41 -11 7 -28 6 -55 -3 -32 -11 -51 -12 -96 -2 -31 6 -60 14 -65
17 -10 6 15 27 107 88 73 48 102 89 77 104 -21 13 -53 3 -144 -43 -43 -21 -82
-35 -86 -30 -5 4 -10 26 -12 48 -2 33 -7 41 -26 43 -24 4 -125 -43 -222 -103
-30 -19 -71 -43 -90 -54 -56 -31 -120 -91 -120 -112 0 -23 27 -36 45 -23 7 5
41 30 76 57 34 26 67 47 73 47 5 0 22 -12 37 -26 22 -21 30 -24 47 -15 19 10
72 16 72 7 0 -24 -30 -79 -61 -111 -287 -296 -370 -388 -367 -408 5 -35 36
-32 66 4 15 19 74 80 131 136 111 109 170 150 190 130 23 -23 9 -248 -28 -442
-13 -67 -13 -192 -1 -216 8 -14 21 -19 50 -19 50 0 56 11 24 41 -26 24 -26 26
-19 119 3 52 10 111 15 130 18 72 32 224 31 339 l0 119 43 40 c66 60 85 69
168 76 43 4 91 12 108 18 26 8 34 7 50 -7 25 -23 25 -38 -1 -85 -40 -71 0 -97
48 -31 115 161 169 221 198 221 23 0 55 -28 55 -49 0 -12 -103 -135 -172 -205
-33 -33 -38 -44 -38 -85 0 -56 47 -141 79 -141 10 0 31 -2 47 -6 30 -5 78 25
179 114 l44 39 -13 110 c-14 112 -23 139 -50 163 -9 7 -16 27 -16 46 0 38 21
54 69 54 20 0 31 5 31 14 0 21 -21 34 -60 38 l-35 3 -3 83 c-3 96 1 103 66
132 51 23 87 25 146 8 59 -17 62 -23 33 -66 -34 -48 -34 -67 -2 -88 25 -16 27
-16 53 7 15 13 34 32 43 43 9 10 24 16 35 14 17 -3 19 -12 16 -93 -2 -50 -7
-128 -13 -175 -12 -117 -11 -372 2 -425 8 -31 24 -56 50 -80 22 -19 43 -35 48
-35 23 0 63 48 71 85 5 22 10 111 10 198 0 134 4 173 25 263 32 130 62 198 92
202 31 5 78 -89 110 -219 l26 -105 -43 -59 c-40 -54 -44 -57 -56 -40 -16 21
-17 74 -5 160 10 67 2 136 -16 142 -7 3 -22 -17 -35 -44 -19 -41 -23 -67 -26
-178 -3 -121 -2 -132 18 -158 15 -18 31 -27 51 -27 31 0 49 22 87 102 9 21 23
38 30 38 9 0 12 35 12 143 0 137 -1 144 -30 205 -17 35 -30 70 -30 77 0 7 14
25 30 38 21 18 30 35 30 57 l0 31 -30 -16 c-16 -8 -37 -27 -46 -40 -9 -14 -22
-25 -30 -25 -24 0 -26 21 -5 44 27 28 27 28 -9 78 -39 53 -40 104 -2 66 9 -9
16 -8 30 5 15 13 25 15 53 7 18 -6 35 -10 36 -10 1 0 1 45 0 99 -1 64 -6 97
-12 92 -5 -5 -30 -11 -55 -15 -24 -4 -52 -14 -62 -23 -20 -18 -25 -11 -30 42
-2 22 -9 31 -25 33 -32 5 -53 -33 -53 -98 0 -31 -6 -62 -12 -68 -10 -10 -10
-17 0 -32 6 -11 12 -48 12 -82 1 -36 9 -87 20 -118 25 -72 25 -79 -5 -90 -14
-5 -25 -17 -25 -26 0 -9 -11 -53 -24 -98 -13 -44 -29 -124 -36 -176 -6 -52
-16 -114 -21 -137 -5 -23 -9 -56 -9 -72 0 -21 -5 -31 -15 -31 -13 0 -15 14
-10 87 4 70 2 90 -11 104 -12 14 -15 34 -11 101 15 250 37 397 63 419 8 6 14
17 14 24 0 7 10 24 21 39 22 28 19 41 -9 41 -13 0 -19 14 -24 60 -9 72 -46
165 -66 165 -12 0 -14 -10 -9 -52z m-95 -214 c1 -10 -7 -34 -18 -52 -17 -28
-23 -32 -35 -22 -21 18 -18 50 7 77 25 26 42 25 46 -3z m-1058 -343 c0 -26
-19 -39 -68 -47 -52 -8 -57 11 -9 31 19 8 39 21 46 29 16 19 31 12 31 -13z
m730 -226 c18 -22 8 -47 -23 -58 -38 -12 -43 -4 -23 38 19 38 27 42 46 20z
m-117 -202 c43 -7 54 -22 37 -53 -9 -17 -17 -20 -48 -14 -48 9 -69 20 -82 44
-15 28 -3 43 29 36 14 -4 43 -9 64 -13z m605 -115 c-3 -7 -8 -13 -13 -13 -5 0
-10 6 -12 13 -3 6 3 12 12 12 9 0 15 -6 13 -12z"/>
<path d="M404 2504 c-10 -16 -31 -43 -47 -61 -29 -31 -29 -33 -13 -58 22 -33
39 -32 69 5 32 38 45 106 24 127 -13 14 -17 12 -33 -13z"/>
<path d="M1745 2016 c-27 -20 -12 -43 34 -51 41 -7 51 -21 30 -42 -13 -13 -4
-33 14 -33 7 0 25 11 42 24 27 22 28 26 17 50 -11 25 -40 42 -98 60 -11 3 -28
0 -39 -8z"/>
<path d="M1176 1932 c-3 -6 -1 -14 5 -17 15 -10 25 3 12 16 -7 7 -13 7 -17 1z"/>
<path d="M937 1703 c-4 -3 -7 -34 -7 -67 0 -50 5 -67 24 -91 23 -28 25 -29 32
-10 16 43 22 44 92 9 109 -55 117 -47 36 38 -42 44 -54 62 -45 71 17 17 13 27
-11 27 -13 1 -34 7 -48 15 -27 15 -62 19 -73 8z"/>
<path d="M1371 1404 c-26 -33 -27 -79 -2 -120 20 -33 51 -44 120 -44 43 0 167
57 197 92 46 51 35 84 -15 49 -85 -61 -216 -92 -249 -59 -7 7 -12 34 -12 60 0
54 -9 60 -39 22z"/>
<path d="M1835 1339 c-93 -71 -239 -150 -313 -169 -23 -6 -77 -12 -120 -13
-65 -1 -84 3 -120 23 -54 30 -73 65 -65 115 8 52 -14 43 -46 -18 l-24 -47 28
-40 c15 -22 42 -49 59 -59 36 -23 128 -41 202 -41 82 0 276 77 349 138 58 48
158 163 149 171 -5 4 -49 -23 -99 -60z"/>
<path d="M2400 1378 c1 -7 7 -26 15 -43 l13 -30 1 43 c1 31 -3 42 -14 42 -8 0
-15 -6 -15 -12z"/>
<path d="M965 1320 c-3 -5 -1 -10 4 -10 6 0 11 5 11 10 0 6 -2 10 -4 10 -3 0
-8 -4 -11 -10z"/>
<path d="M181 1218 c1 -40 4 -98 7 -128 6 -47 10 -55 29 -58 30 -4 40 22 49
130 8 104 -1 128 -51 128 l-35 0 1 -72z"/>
<path d="M2362 920 c-68 -71 -105 -137 -155 -280 -53 -149 -54 -153 -77 -304
-15 -102 -21 -122 -41 -137 l-24 -19 53 0 52 0 0 34 c0 51 36 254 54 306 9 25
16 51 16 58 0 38 105 244 149 294 26 29 41 56 41 72 0 37 -14 32 -68 -24z"/>
<path d="M1537 713 c-12 -11 -7 -75 8 -133 20 -71 37 -295 25 -326 -6 -13 -30
-33 -62 -48 l-53 -26 118 0 c111 0 117 1 117 20 0 11 7 23 15 26 13 6 29 -2
81 -41 23 -17 27 3 8 36 -13 23 -31 36 -59 43 l-40 12 0 64 c0 36 6 114 13
174 10 81 10 112 2 120 -17 16 -47 -25 -55 -74 -4 -22 -10 -40 -14 -40 -12 0
-31 72 -31 114 0 49 -50 103 -73 79z"/>
<path d="M1119 644 c-10 -12 -13 -46 -11 -128 3 -81 -2 -139 -17 -216 -12 -58
-21 -108 -21 -112 0 -5 15 -8 33 -8 l34 0 18 92 c10 51 21 134 26 183 5 50 11
110 15 134 5 36 3 47 -12 58 -24 18 -49 16 -65 -3z"/>
<path d="M1327 503 c-24 -23 13 -122 72 -197 16 -20 32 -42 34 -49 2 -7 7 -10
10 -7 3 3 -1 32 -9 65 -8 33 -19 84 -24 114 -5 29 -15 59 -21 67 -12 14 -51
19 -62 7z"/>
<path d="M2392 327 c-18 -73 -32 -135 -32 -139 0 -5 13 -8 29 -8 28 0 30 3 36
53 3 28 5 91 3 139 l-3 87 -33 -132z"/>
<path d="M890 382 c-65 -24 -102 -45 -222 -125 l-108 -72 50 -3 c39 -2 57 2
77 17 14 12 31 21 37 21 6 0 38 19 71 41 97 64 175 75 145 19 -6 -12 -28 -39
-47 -61 l-35 -39 40 0 c37 0 43 4 74 48 37 51 68 114 68 137 0 36 -75 45 -150
17z"/>
</g>
</svg>
