<?xml version="1.0" standalone="no"?>
<!DOCTYPE svg PUBLIC "-//W3C//DTD SVG 20010904//EN"
 "http://www.w3.org/TR/2001/REC-SVG-20010904/DTD/svg10.dtd">
<svg version="1.0" xmlns="http://www.w3.org/2000/svg"
 width="324.000000pt" height="389.000000pt" viewBox="0 0 324.000000 389.000000"
 preserveAspectRatio="xMidYMid meet">
<metadata>
Created by potrace 1.16, written by Peter Selinger 2001-2019
</metadata>
<g transform="translate(0.000000,389.000000) scale(0.100000,-0.100000)"
fill="#000000" stroke="none">
<path d="M756 3673 c-40 -269 -50 -387 -38 -466 20 -138 43 -128 49 22 5 133
34 324 68 454 7 26 6 27 -33 27 -39 0 -40 -1 -46 -37z"/>
<path d="M1975 3690 c-13 -42 23 -55 49 -18 22 32 20 38 -13 38 -21 0 -32 -6
-36 -20z"/>
<path d="M2080 3706 c0 -2 16 -37 35 -77 19 -41 35 -83 35 -94 0 -32 57 -202
91 -272 30 -62 54 -79 66 -47 3 8 -6 36 -20 62 -24 45 -65 182 -74 248 -6 40
13 53 29 20 14 -31 24 -33 33 -6 8 27 27 35 110 50 83 16 95 24 73 47 -15 15
-25 15 -87 4 -39 -7 -75 -10 -81 -6 -6 4 -8 20 -4 41 6 32 5 34 -23 34 -26 0
-31 -5 -39 -37 -5 -23 -15 -38 -24 -38 -8 0 -23 17 -33 38 -16 32 -23 37 -53
37 -19 0 -34 -2 -34 -4z"/>
<path d="M2516 3668 c3 -24 12 -79 19 -123 20 -118 27 -252 14 -276 -10 -19
-18 -21 -97 -17 -75 3 -87 1 -90 -14 -2 -11 8 -23 29 -34 59 -30 239 0 239 40
0 8 -9 16 -21 19 -17 5 -19 10 -13 29 16 51 10 267 -12 386 -6 29 -10 32 -40
32 l-34 0 6 -42z"/>
<path d="M2750 3706 c0 -1 5 -18 12 -37 33 -97 133 -189 205 -189 17 0 39 -12
60 -32 l33 -32 -2 71 c-2 68 -3 71 -26 70 -23 -2 -31 10 -72 121 -10 26 -18
32 -41 32 -16 0 -29 -4 -29 -9 0 -19 25 -79 51 -121 32 -52 29 -66 -10 -46
-33 18 -72 66 -102 130 -19 38 -28 46 -51 46 -15 0 -28 -2 -28 -4z"/>
<path d="M840 3469 c0 -55 141 -212 273 -303 86 -59 304 -126 321 -98 9 15
-14 28 -74 42 -130 30 -258 120 -391 276 -72 84 -105 114 -123 114 -3 0 -6
-14 -6 -31z"/>
<path d="M2334 3487 c-9 -25 2 -34 71 -52 36 -10 70 -24 76 -31 6 -8 20 -14
30 -14 25 0 25 30 -1 62 -15 20 -31 26 -77 31 -32 3 -66 8 -75 12 -12 5 -20 2
-24 -8z"/>
<path d="M2260 3465 c0 -8 5 -15 10 -15 6 0 10 7 10 15 0 8 -4 15 -10 15 -5 0
-10 -7 -10 -15z"/>
<path d="M1029 2171 c-63 -22 -73 -31 -126 -129 -42 -76 -47 -93 -47 -151 l-1
-66 37 -9 c31 -8 48 -5 98 16 72 32 87 20 36 -27 -42 -38 -46 -68 -11 -91 29
-19 34 -64 10 -84 -8 -7 -15 -20 -15 -30 0 -44 77 -61 144 -31 43 19 66 44 53
58 -3 3 -29 0 -57 -7 -63 -15 -78 -5 -57 36 8 16 24 38 36 48 28 25 27 42 -4
62 -14 9 -25 24 -25 33 0 17 44 57 103 94 28 18 36 44 14 53 -7 2 -39 -5 -71
-16 -107 -36 -227 -61 -241 -50 -25 21 38 136 116 213 90 89 92 107 8 78z"/>
<path d="M1496 1918 c-15 -12 -62 -59 -102 -106 -58 -66 -74 -91 -72 -111 2
-21 8 -26 32 -26 23 0 31 6 39 29 12 35 41 79 91 137 49 58 63 44 41 -41 -23
-88 -15 -301 15 -390 11 -36 30 -77 41 -92 19 -27 26 -58 12 -58 -4 0 -18 11
-32 24 -38 35 -131 96 -147 96 -42 0 -73 -138 -81 -350 -5 -149 3 -210 25
-210 5 0 13 73 16 163 4 89 15 196 25 237 16 71 18 75 46 78 23 3 36 -3 55
-26 50 -59 150 -91 158 -50 2 9 -14 68 -36 130 -22 62 -45 146 -51 186 -14 92
-14 272 0 309 6 15 8 42 4 60 -7 40 -35 44 -79 11z"/>
<path d="M2000 1780 c0 -5 5 -10 10 -10 6 0 10 5 10 10 0 6 -4 10 -10 10 -5 0
-10 -4 -10 -10z"/>
<path d="M2762 1737 c-20 -21 -62 -169 -62 -218 0 -11 21 -60 46 -109 l46 -90
-11 -74 c-6 -41 -19 -96 -30 -123 -18 -47 -21 -49 -92 -74 -157 -55 -199 -84
-199 -135 0 -39 70 -81 113 -70 35 9 127 90 151 132 19 35 27 40 71 46 47 7
180 -3 238 -17 24 -6 27 -4 27 19 0 37 -27 47 -151 53 -60 3 -112 10 -115 14
-3 5 6 41 20 79 41 112 28 230 -24 230 -13 0 -25 12 -36 38 -22 52 -13 131 26
225 38 92 30 126 -18 74z m-88 -746 c8 -12 -89 -91 -112 -91 -11 0 -25 7 -32
15 -17 21 -5 32 62 61 58 25 74 28 82 15z"/>
<path d="M1910 1700 c-41 -28 -87 -64 -103 -82 -72 -86 -118 -151 -115 -166 5
-25 51 -26 95 -3 64 32 87 73 30 52 -16 -6 -28 -7 -32 -1 -7 11 93 110 110
110 22 0 105 101 105 127 0 20 -9 16 -90 -37z"/>
<path d="M2083 1628 c-67 -22 -26 -35 130 -43 81 -4 87 -3 87 16 0 12 -10 23
-26 29 -32 13 -149 11 -191 -2z"/>
<path d="M1975 1590 c-3 -5 1 -10 9 -10 9 0 16 5 16 10 0 6 -4 10 -9 10 -6 0
-13 -4 -16 -10z"/>
<path d="M180 1466 l0 -124 50 19 c71 27 142 81 169 130 22 39 23 43 7 54 -20
15 -123 17 -150 3 -16 -9 -23 -6 -39 16 -10 14 -23 26 -28 26 -5 0 -9 -56 -9
-124z"/>
<path d="M984 1289 c-26 -22 -65 -52 -86 -65 -21 -13 -38 -29 -38 -35 0 -21
40 -88 62 -103 65 -46 162 22 218 151 33 77 27 87 -46 91 -60 3 -63 1 -110
-39z m113 -25 c5 -16 -91 -129 -112 -132 -11 -1 -33 8 -50 22 -27 21 -28 25
-15 41 17 21 150 87 164 82 5 -2 11 -8 13 -13z"/>
<path d="M1967 1323 c-29 -5 -46 -28 -31 -43 5 -5 41 -14 79 -20 57 -8 75 -16
97 -40 41 -44 45 -90 18 -195 -12 -50 -21 -100 -19 -110 8 -37 33 -21 55 35
70 176 49 312 -54 353 -44 17 -106 26 -145 20z"/>
<path d="M2003 1122 c-43 -39 -64 -95 -44 -115 15 -15 26 -2 41 48 7 22 23 52
37 66 39 42 10 43 -34 1z"/>
<path d="M180 1070 c0 -38 7 -55 41 -100 86 -115 174 -190 224 -190 29 0 34
17 8 27 -52 19 -157 132 -238 255 l-35 53 0 -45z"/>
</g>
</svg>
