<?xml version="1.0" standalone="no"?>
<!DOCTYPE svg PUBLIC "-//W3C//DTD SVG 20010904//EN"
 "http://www.w3.org/TR/2001/REC-SVG-20010904/DTD/svg10.dtd">
<svg version="1.0" xmlns="http://www.w3.org/2000/svg"
 width="226.000000pt" height="315.000000pt" viewBox="0 0 226.000000 315.000000"
 preserveAspectRatio="xMidYMid meet">
<metadata>
Created by potrace 1.16, written by Peter Selinger 2001-2019
</metadata>
<g transform="translate(0.000000,315.000000) scale(0.100000,-0.100000)"
fill="#000000" stroke="none">
<path d="M1335 2275 c-33 -7 -76 -20 -95 -28 -19 -8 -56 -18 -82 -21 -50 -7
-72 -25 -66 -52 6 -31 32 -39 69 -22 19 9 49 19 67 23 18 4 60 18 94 32 41 16
64 21 71 14 18 -18 -64 -111 -213 -239 -116 -101 -230 -216 -230 -234 0 -36
21 -26 97 44 43 40 103 93 133 118 30 25 105 89 165 144 146 131 170 175 119
215 -30 24 -46 25 -129 6z"/>
<path d="M629 2220 c-20 -22 -55 -79 -79 -127 -50 -99 -61 -167 -37 -225 13
-31 23 -38 73 -55 83 -28 99 -53 99 -156 l0 -82 -71 -6 c-111 -8 -174 -65
-176 -158 -1 -55 10 -74 55 -97 24 -13 34 -13 58 -4 39 17 107 92 130 146 22
49 46 56 97 30 58 -29 243 -75 367 -92 72 -9 137 -23 146 -30 17 -16 55 -19
63 -5 3 4 50 10 103 13 99 6 183 24 183 40 0 4 -17 8 -37 8 -151 2 -240 7
-250 13 -10 6 -13 49 -13 156 0 116 -3 151 -14 160 -24 20 -30 -5 -41 -159
l-10 -145 -63 2 c-101 4 -415 82 -469 116 -7 5 -9 32 -6 85 7 97 -6 140 -54
182 -29 26 -42 31 -66 26 -62 -12 -86 51 -50 131 49 113 67 142 105 169 103
73 115 104 41 104 -43 0 -52 -4 -84 -40z m11 -715 c0 -46 -80 -145 -116 -145
-33 0 -46 106 -16 132 24 21 40 26 90 27 31 1 42 -3 42 -14z"/>
<path d="M2022 2027 c-33 -39 -49 -564 -22 -700 14 -69 38 -104 65 -94 17 7
21 73 4 79 -28 9 -35 457 -8 608 23 131 24 120 -4 120 -13 0 -29 -6 -35 -13z"/>
<path d="M1340 1820 c0 -17 24 -65 44 -87 23 -26 72 -31 101 -9 18 13 16 16
-35 39 -30 13 -61 34 -68 46 -12 21 -42 29 -42 11z"/>
</g>
</svg>
