<?xml version="1.0" standalone="no"?>
<!DOCTYPE svg PUBLIC "-//W3C//DTD SVG 20010904//EN"
 "http://www.w3.org/TR/2001/REC-SVG-20010904/DTD/svg10.dtd">
<svg version="1.0" xmlns="http://www.w3.org/2000/svg"
 width="213.000000pt" height="330.000000pt" viewBox="0 0 213.000000 330.000000"
 preserveAspectRatio="xMidYMid meet">
<metadata>
Created by potrace 1.16, written by Peter Selinger 2001-2019
</metadata>
<g transform="translate(0.000000,330.000000) scale(0.100000,-0.100000)"
fill="#000000" stroke="none">
<path d="M570 2495 c-7 -19 -5 -34 10 -63 19 -37 26 -135 43 -632 4 -100 14
-132 48 -151 26 -14 36 -4 18 17 -11 14 -14 79 -14 338 -1 177 -4 327 -8 333
-4 7 -9 46 -12 88 -2 41 -7 80 -10 85 -3 6 -20 10 -36 10 -22 0 -32 -6 -39
-25z"/>
<path d="M882 2403 c-17 -34 -31 -160 -42 -373 -11 -211 -7 -323 12 -347 6 -7
37 -18 69 -24 33 -6 61 -15 64 -19 2 -3 -27 -33 -66 -66 -76 -65 -85 -91 -36
-108 21 -8 34 -6 55 7 15 9 64 36 109 59 99 51 113 47 93 -29 -18 -67 -25 -73
-87 -73 -42 0 -55 -4 -59 -17 -4 -10 -12 -32 -20 -49 -7 -17 -16 -75 -20 -130
-4 -54 -11 -104 -16 -111 -5 -6 -21 -14 -36 -18 -43 -9 -154 -99 -191 -154
-28 -41 -32 -56 -27 -84 13 -72 152 -143 291 -149 58 -3 60 -2 63 24 2 15 -4
42 -14 60 -13 25 -17 57 -16 142 1 131 6 138 83 136 172 -6 184 -5 184 10 0
27 -73 53 -169 59 l-91 6 4 110 c4 141 8 149 71 140 45 -6 49 -5 68 23 14 18
24 53 28 94 7 75 3 80 -73 93 -24 4 -43 10 -43 14 0 4 29 31 65 59 36 29 65
56 65 60 0 4 -9 18 -19 32 -17 21 -22 23 -45 12 -14 -6 -26 -16 -26 -22 0 -12
-60 -70 -72 -70 -12 0 -10 38 2 45 6 4 8 11 5 16 -9 14 -41 11 -55 -6 -7 -8
-20 -15 -30 -15 -9 0 -29 -10 -44 -21 -20 -16 -30 -19 -38 -11 -13 13 6 42 28
42 16 0 115 100 147 149 37 56 51 60 89 24 36 -34 103 -67 118 -58 6 3 -19 34
-55 68 -36 34 -65 69 -65 78 0 9 13 35 29 60 16 24 32 65 36 92 6 42 4 51 -19
82 -32 42 -63 45 -120 12 -52 -30 -120 -159 -130 -248 -7 -55 -5 -64 14 -83
21 -21 21 -21 36 -2 8 11 14 30 14 42 0 28 27 51 41 37 13 -13 -1 -43 -45 -94
-17 -20 -44 -55 -60 -78 -15 -23 -33 -40 -40 -38 -13 5 -15 91 -4 192 4 39 12
122 18 185 5 63 15 138 21 167 10 41 9 56 -1 68 -17 20 -37 19 -48 -2z m248
-208 c9 -11 8 -25 -5 -67 -25 -77 -38 -87 -72 -61 -37 28 -33 57 14 105 41 43
46 44 63 23z m-179 -1280 c3 -55 7 -107 10 -115 6 -20 -32 -16 -96 11 -78 33
-80 34 -83 63 -6 49 94 150 143 144 18 -3 21 -13 26 -103z"/>
<path d="M1890 2054 c-25 -9 -54 -24 -65 -35 -18 -18 -19 -21 -5 -47 21 -37
73 -42 106 -11 18 17 24 33 24 66 0 48 1 48 -60 27z"/>
<path d="M1561 1862 c-11 -22 -25 -70 -31 -106 -9 -57 -8 -72 6 -102 25 -52
54 -63 35 -13 -10 27 3 114 26 170 30 74 -2 118 -36 51z"/>
<path d="M180 1736 c0 -20 6 -36 14 -39 26 -10 28 -78 6 -179 -14 -64 -20
-123 -18 -175 l3 -78 22 65 c12 36 33 97 47 135 14 39 28 98 32 132 5 53 3 69
-16 105 -24 48 -45 68 -72 68 -14 0 -18 -8 -18 -34z"/>
<path d="M1891 1595 c-48 -77 -53 -88 -42 -111 14 -31 32 -27 42 9 4 15 19 41
33 58 20 24 26 41 26 80 0 27 -1 49 -3 49 -1 0 -27 -38 -56 -85z"/>
<path d="M1598 1468 c4 -63 -6 -101 -65 -263 -28 -75 -29 -76 -62 -57 -27 15
-31 15 -71 -3 -28 -13 -62 -44 -103 -94 -101 -123 -127 -168 -126 -221 2 -74
11 -95 44 -98 24 -2 42 8 95 56 36 33 94 96 130 141 l65 81 72 -79 c88 -95
122 -110 271 -118 l102 -5 0 35 c0 31 -3 35 -31 41 -17 3 -55 6 -83 6 -115 0
-166 30 -249 146 -41 57 -45 75 -21 95 38 31 95 207 96 295 1 36 -4 50 -27 74
-16 17 -31 30 -35 30 -3 0 -4 -28 -2 -62z m-148 -396 c0 -23 -106 -175 -154
-221 -47 -46 -67 -32 -37 25 12 21 21 45 21 52 0 22 37 86 67 114 47 45 103
61 103 30z"/>
<path d="M181 1138 c0 -28 7 -38 48 -65 57 -37 141 -67 153 -55 10 10 -75 80
-149 123 l-53 29 1 -32z"/>
</g>
</svg>
