<?xml version="1.0" standalone="no"?>
<!DOCTYPE svg PUBLIC "-//W3C//DTD SVG 20010904//EN"
 "http://www.w3.org/TR/2001/REC-SVG-20010904/DTD/svg10.dtd">
<svg version="1.0" xmlns="http://www.w3.org/2000/svg"
 width="289.000000pt" height="303.000000pt" viewBox="0 0 289.000000 303.000000"
 preserveAspectRatio="xMidYMid meet">
<metadata>
Created by potrace 1.16, written by Peter Selinger 2001-2019
</metadata>
<g transform="translate(0.000000,303.000000) scale(0.100000,-0.100000)"
fill="#000000" stroke="none">
<path d="M2587 2413 c-3 -5 -1 -26 3 -48 17 -73 34 -282 45 -525 3 -74 10
-178 15 -230 5 -52 12 -151 15 -220 6 -122 18 -185 37 -205 7 -7 8 118 5 360
-5 369 -24 608 -60 778 -12 54 -48 109 -60 90z"/>
<path d="M1521 2314 c-26 -33 -28 -109 -5 -314 8 -80 17 -191 19 -247 4 -98 3
-104 -21 -133 -17 -20 -39 -32 -64 -36 -25 -4 -45 -15 -58 -34 -11 -15 -45
-41 -75 -58 -67 -38 -74 -48 -51 -73 15 -17 26 -19 73 -13 66 7 95 23 116 63
8 16 28 39 45 51 34 24 31 27 48 -65 9 -46 19 -66 42 -87 36 -33 67 -35 120
-8 50 26 85 27 76 3 -4 -10 -16 -51 -28 -93 -11 -41 -26 -97 -34 -125 -7 -27
-16 -61 -20 -75 -15 -56 -40 -70 -205 -115 -53 -14 -100 -48 -85 -62 3 -4 46
-1 94 6 135 20 162 23 162 18 0 -2 -11 -30 -25 -61 -14 -31 -25 -68 -25 -81 0
-14 -7 -43 -16 -65 -12 -30 -14 -44 -6 -52 9 -9 16 -1 28 27 8 21 28 54 44 74
15 20 39 72 52 116 l24 79 64 24 c36 13 92 37 125 53 l59 31 26 -32 c30 -37
58 -35 84 5 32 48 63 16 36 -36 -15 -28 12 -104 36 -104 14 0 20 11 26 42 4
23 11 50 16 60 16 30 0 168 -22 192 -11 12 -25 21 -33 21 -27 0 -6 114 49 272
26 74 15 101 -40 96 -34 -3 -39 -8 -80 -82 -50 -90 -50 -120 -1 -85 43 30 57
12 26 -34 -13 -19 -30 -64 -37 -99 -21 -110 -40 -133 -140 -167 -36 -13 -85
-34 -109 -47 -25 -14 -48 -21 -53 -16 -4 4 -2 30 6 58 7 27 24 94 36 149 37
171 37 172 74 193 19 11 60 26 93 32 68 14 83 24 83 56 0 39 -76 74 -95 44 -9
-15 -84 -52 -94 -46 -5 3 -11 25 -14 48 -10 71 -77 105 -186 92 -75 -8 -81 1
-79 127 1 52 -6 170 -15 263 -20 187 -13 225 23 140 12 -26 26 -55 33 -62 6
-8 25 -55 42 -105 17 -50 36 -92 43 -95 13 -4 17 30 5 42 -4 4 -8 37 -10 74
-3 109 -12 148 -43 190 -24 34 -107 92 -131 92 -4 0 -17 -12 -28 -26z m267
-730 c7 -2 12 -21 12 -48 0 -40 -4 -48 -41 -79 -46 -39 -105 -56 -124 -35 -19
19 -37 138 -24 154 16 20 124 25 177 8z"/>
<path d="M1925 2248 c-2 -7 -11 -38 -20 -68 -10 -30 -27 -71 -39 -90 -12 -19
-29 -51 -36 -70 -8 -19 -29 -60 -48 -90 -39 -66 -40 -105 -2 -105 20 0 31 11
52 50 15 28 37 75 48 105 12 30 27 69 35 85 22 50 49 161 42 178 -8 20 -26 22
-32 5z"/>
<path d="M2196 2207 c-15 -19 -26 -40 -26 -48 0 -8 -6 -26 -14 -40 -7 -14 -19
-49 -26 -78 -6 -28 -23 -68 -37 -87 -13 -20 -22 -43 -19 -50 12 -30 41 4 92
110 30 61 65 131 79 155 19 33 22 47 14 58 -18 21 -36 15 -63 -20z"/>
<path d="M910 1965 c-7 -9 -10 -27 -6 -48 7 -39 97 -131 169 -172 48 -28 48
-28 88 -10 39 18 53 45 23 45 -18 0 -127 63 -164 96 -14 12 -35 27 -47 33 -12
6 -23 23 -25 38 -4 31 -20 40 -38 18z"/>
</g>
</svg>
