<?xml version="1.0" standalone="no"?>
<!DOCTYPE svg PUBLIC "-//W3C//DTD SVG 20010904//EN"
 "http://www.w3.org/TR/2001/REC-SVG-20010904/DTD/svg10.dtd">
<svg version="1.0" xmlns="http://www.w3.org/2000/svg"
 width="255.000000pt" height="379.000000pt" viewBox="0 0 255.000000 379.000000"
 preserveAspectRatio="xMidYMid meet">
<metadata>
Created by potrace 1.16, written by Peter Selinger 2001-2019
</metadata>
<g transform="translate(0.000000,379.000000) scale(0.100000,-0.100000)"
fill="#000000" stroke="none">
<path d="M746 3569 c-32 -33 -36 -40 -21 -45 12 -5 31 7 63 40 44 43 45 46 22
45 -15 0 -40 -16 -64 -40z"/>
<path d="M1065 3593 c3 -10 13 -40 20 -68 7 -27 25 -83 39 -122 14 -40 26 -79
26 -86 0 -21 36 -51 45 -37 11 17 -4 114 -27 179 -11 31 -24 77 -30 104 -10
45 -12 47 -45 47 -29 0 -34 -3 -28 -17z"/>
<path d="M1815 3600 c-10 -17 -35 -104 -35 -126 0 -11 -7 -35 -16 -52 -11 -24
-13 -42 -7 -74 10 -51 36 -59 41 -13 4 41 32 105 47 105 7 0 20 -9 30 -19 23
-26 129 -89 163 -97 15 -4 43 -15 62 -25 67 -34 105 -47 165 -54 33 -3 70 -9
83 -12 20 -5 22 -1 22 31 0 33 -3 36 -28 36 -43 0 -141 28 -202 58 l-55 27 -6
110 c-4 61 -7 111 -8 113 0 1 -13 2 -27 2 l-27 0 6 -68 c4 -38 10 -83 13 -100
8 -41 -6 -42 -84 -2 -33 17 -67 30 -76 30 -26 0 -29 23 -12 81 9 29 16 54 16
56 0 8 -59 2 -65 -7z"/>
<path d="M180 3133 c0 -50 1 -52 48 -81 89 -58 131 -71 191 -62 57 10 99 36
82 53 -6 6 -26 6 -55 -2 -41 -10 -51 -9 -103 14 -34 15 -80 48 -110 78 l-53
51 0 -51z"/>
<path d="M2336 2632 c-8 -15 -22 -53 -31 -85 -9 -32 -52 -129 -95 -215 -43
-87 -88 -185 -100 -219 -26 -75 -25 -156 3 -161 9 -2 19 2 20 10 20 77 67 196
98 249 22 36 39 68 39 72 0 3 23 53 50 110 47 99 50 108 50 185 0 86 -10 101
-34 54z"/>
<path d="M1219 2287 c-54 -27 -129 -84 -129 -100 0 -6 -8 -19 -17 -29 -24 -27
-2 -49 25 -25 10 9 26 17 34 17 9 0 22 7 29 16 27 32 91 66 102 55 32 -32 -73
-320 -191 -529 -45 -79 -48 -87 -31 -97 11 -8 49 22 49 39 1 6 14 27 31 46
l30 35 38 -22 c20 -12 66 -29 101 -38 35 -9 93 -27 128 -41 46 -17 69 -21 76
-14 18 18 -15 63 -64 87 -51 25 -166 53 -216 53 -44 0 -50 14 -21 52 37 51
118 217 135 278 9 30 15 84 14 119 -2 59 -5 67 -34 92 -18 16 -35 28 -38 28
-3 0 -26 -10 -51 -22z"/>
<path d="M2305 2159 c-35 -32 -49 -56 -64 -105 -11 -34 -26 -72 -33 -84 -12
-19 -10 -24 15 -46 19 -16 40 -24 67 -24 21 0 42 -5 45 -11 4 -6 -14 -29 -39
-53 -25 -23 -46 -49 -46 -58 0 -29 27 -41 75 -34 l45 7 0 125 0 124 -26 -16
c-22 -15 -27 -15 -40 -2 -13 13 -12 20 11 60 14 25 32 52 40 58 17 14 21 100
5 100 -6 0 -31 -19 -55 -41z"/>
<path d="M619 2133 c-15 -38 -4 -193 19 -268 16 -52 21 -60 43 -60 22 0 24 4
23 40 0 22 -6 79 -13 127 -6 48 -9 99 -5 113 7 29 -18 75 -41 75 -9 0 -20 -12
-26 -27z"/>
<path d="M808 1957 c-48 -66 -78 -156 -78 -235 0 -53 4 -67 25 -87 34 -35 51
-31 75 15 l21 40 -25 10 c-13 5 -27 13 -30 18 -3 5 6 40 20 78 26 70 40 179
25 189 -5 2 -19 -10 -33 -28z"/>
<path d="M180 1948 c0 -23 10 -42 32 -65 59 -61 68 -193 17 -249 -10 -11 -19
-29 -19 -40 0 -11 -4 -24 -9 -30 -5 -5 -12 -44 -16 -87 -6 -66 -5 -76 8 -72
28 12 79 96 94 158 21 88 28 232 13 280 -11 37 -92 137 -111 137 -5 0 -9 -14
-9 -32z"/>
<path d="M180 1833 c0 -25 1 -26 16 -11 9 9 13 21 10 27 -13 20 -26 11 -26
-16z"/>
<path d="M1250 1500 c-8 -5 -45 -16 -82 -26 -53 -13 -73 -23 -89 -45 -22 -32
-22 -65 1 -62 8 1 44 13 79 28 74 31 98 23 68 -23 -10 -15 -25 -42 -33 -61 -9
-19 -27 -49 -40 -66 -13 -18 -24 -35 -24 -38 0 -4 -18 -43 -39 -87 -22 -44
-49 -106 -61 -138 -34 -89 -36 -89 266 -85 250 3 290 9 252 37 -22 17 -314 39
-389 30 -37 -4 -59 -3 -63 4 -9 15 29 101 76 177 21 33 43 71 48 84 6 13 26
49 45 80 18 31 42 80 52 109 l18 54 -24 19 c-26 21 -39 23 -61 9z"/>
<path d="M2235 1396 c-56 -24 -149 -172 -143 -228 3 -30 6 -33 39 -36 25 -2
40 3 54 18 17 19 17 21 2 38 -10 10 -17 25 -17 34 0 24 47 89 92 129 56 49 41
75 -27 45z"/>
<path d="M853 1337 c-5 -6 -26 -45 -46 -85 -21 -40 -53 -93 -72 -118 -39 -51
-45 -92 -17 -117 37 -34 72 -10 72 49 0 15 6 35 13 43 16 18 77 189 77 214 0
21 -16 30 -27 14z"/>
</g>
</svg>
