<?xml version="1.0" standalone="no"?>
<!DOCTYPE svg PUBLIC "-//W3C//DTD SVG 20010904//EN"
 "http://www.w3.org/TR/2001/REC-SVG-20010904/DTD/svg10.dtd">
<svg version="1.0" xmlns="http://www.w3.org/2000/svg"
 width="347.000000pt" height="382.000000pt" viewBox="0 0 347.000000 382.000000"
 preserveAspectRatio="xMidYMid meet">
<metadata>
Created by potrace 1.16, written by Peter Selinger 2001-2019
</metadata>
<g transform="translate(0.000000,382.000000) scale(0.100000,-0.100000)"
fill="#000000" stroke="none">
<path d="M180 2886 l0 -36 78 0 c42 -1 124 -5 182 -10 58 -5 182 -14 275 -20
94 -6 262 -17 375 -26 113 -8 241 -17 285 -19 44 -3 166 -12 270 -20 105 -9
251 -20 325 -25 74 -5 176 -14 225 -19 50 -5 133 -12 185 -16 123 -8 448 -32
672 -51 245 -20 238 -20 238 15 l0 28 -137 12 c-370 31 -515 42 -713 56 -118
8 -260 19 -315 25 -97 10 -256 22 -539 40 -76 5 -195 14 -265 20 -69 6 -184
15 -256 21 -71 5 -184 14 -250 20 -66 5 -203 13 -305 19 -102 5 -218 13 -257
16 l-73 7 0 -37z"/>
<path d="M961 2211 c-36 -46 -66 -110 -75 -163 -6 -33 -3 -42 30 -77 48 -54
88 -61 161 -31 30 12 57 20 60 17 3 -3 -8 -28 -23 -54 -16 -26 -49 -88 -74
-137 l-44 -89 23 -18 c13 -11 34 -19 47 -19 34 0 45 -29 38 -99 -4 -34 -4 -61
0 -61 17 0 46 89 46 142 0 50 -3 59 -27 76 l-27 20 19 41 c10 23 25 47 33 54
23 18 82 148 82 179 0 47 -27 51 -119 18 -65 -24 -89 -28 -114 -22 -30 8 -32
11 -31 55 0 51 20 86 67 121 21 15 30 17 39 8 7 -7 16 -12 20 -12 16 0 7 20
-23 55 -41 47 -69 46 -108 -4z"/>
<path d="M1543 2213 c-17 -10 -66 -63 -109 -118 -42 -55 -96 -121 -119 -146
-50 -54 -69 -85 -61 -105 9 -22 20 -17 75 32 38 34 57 45 74 41 12 -3 58 -14
102 -25 44 -11 100 -22 124 -26 24 -4 69 -15 100 -26 55 -20 56 -20 81 -2 14
11 25 25 25 32 0 8 -66 29 -180 57 -99 25 -187 51 -195 59 -12 12 -8 21 35 65
28 28 71 61 97 75 54 27 68 56 42 85 -21 24 -50 24 -91 2z"/>
<path d="M203 2143 c-21 -4 -23 -10 -23 -64 0 -32 3 -59 6 -59 3 0 28 19 55
42 75 63 57 100 -38 81z"/>
<path d="M203 1893 c-19 -4 -23 -11 -23 -40 0 -33 2 -35 25 -29 38 10 41 -15
9 -81 -27 -56 -42 -152 -32 -199 4 -15 8 -12 24 17 10 20 32 60 48 90 40 75
65 151 59 183 -6 30 -47 67 -72 65 -9 -1 -26 -4 -38 -6z"/>
<path d="M1595 1714 c-60 -25 -123 -51 -140 -58 -48 -21 -95 -28 -95 -13 0 7
5 18 12 25 6 6 8 15 4 19 -9 10 -35 -23 -93 -117 -25 -41 -69 -109 -98 -150
-29 -41 -79 -112 -110 -158 -32 -47 -68 -87 -81 -93 -28 -10 -67 -89 -62 -127
2 -14 11 -30 21 -36 16 -9 24 -5 53 29 19 22 51 72 72 111 51 98 106 191 141
239 16 22 44 70 62 107 40 84 59 104 88 88 13 -6 37 -8 59 -4 35 6 142 54 207
94 17 10 44 21 61 24 36 8 69 39 59 55 -11 19 -48 11 -160 -35z"/>
<path d="M1503 1478 c-24 -26 -43 -87 -43 -138 0 -40 32 -140 60 -185 34 -55
119 -102 164 -91 37 9 85 54 102 95 26 61 12 96 -71 177 -89 88 -122 111 -137
96 -8 -8 0 -24 29 -59 79 -97 105 -145 98 -183 -4 -19 -10 -39 -15 -44 -16
-16 -64 5 -102 45 -56 59 -72 131 -55 252 9 62 2 70 -30 35z"/>
<path d="M180 1332 c0 -51 2 -55 75 -142 80 -94 186 -195 222 -212 12 -6 29
-8 39 -4 14 5 2 22 -63 89 -44 45 -105 116 -136 157 -31 41 -74 95 -96 120
l-40 45 -1 -53z"/>
</g>
</svg>
