<?xml version="1.0" standalone="no"?>
<!DOCTYPE svg PUBLIC "-//W3C//DTD SVG 20010904//EN"
 "http://www.w3.org/TR/2001/REC-SVG-20010904/DTD/svg10.dtd">
<svg version="1.0" xmlns="http://www.w3.org/2000/svg"
 width="338.000000pt" height="408.000000pt" viewBox="0 0 338.000000 408.000000"
 preserveAspectRatio="xMidYMid meet">
<metadata>
Created by potrace 1.16, written by Peter Selinger 2001-2019
</metadata>
<g transform="translate(0.000000,408.000000) scale(0.100000,-0.100000)"
fill="#000000" stroke="none">
<path d="M801 2532 c-18 -34 -13 -56 23 -95 22 -24 43 -37 59 -37 34 0 57 -10
57 -24 0 -6 -19 -34 -43 -61 -23 -28 -55 -69 -71 -93 -16 -24 -49 -55 -73 -69
-48 -28 -49 -30 -27 -61 16 -23 67 -31 79 -12 3 6 17 10 31 10 14 0 35 5 47
12 12 6 45 15 72 20 129 20 170 33 170 53 0 30 -99 43 -155 21 -50 -20 -84
-20 -100 -1 -14 17 19 59 163 207 51 53 86 97 83 105 -9 22 -51 15 -91 -17
-29 -23 -48 -30 -83 -30 -41 0 -49 4 -88 46 -40 44 -43 45 -53 26z"/>
<path d="M180 2481 c0 -24 5 -29 31 -35 37 -7 89 -57 89 -85 0 -36 -50 -155
-76 -182 -22 -23 -24 -30 -14 -48 12 -23 30 -20 30 5 0 8 6 14 13 14 24 0 53
44 80 122 36 102 35 146 -2 182 -25 24 -103 56 -138 56 -8 0 -13 -11 -13 -29z"/>
<path d="M3130 2360 c-14 -4 -43 -9 -65 -9 -48 -2 -185 -37 -199 -51 -7 -7 -7
-16 0 -27 21 -34 38 -36 110 -15 38 12 99 24 136 28 58 5 69 4 74 -11 4 -9 2
-26 -4 -38 -59 -127 -131 -319 -158 -417 -9 -36 -32 -100 -51 -143 -35 -79
-39 -112 -13 -112 28 0 116 179 135 275 20 98 52 194 77 226 21 26 23 41 26
161 2 84 0 133 -6 133 -6 0 -16 2 -24 4 -7 2 -24 0 -38 -4z"/>
<path d="M870 2018 c-5 -13 -11 -36 -15 -51 -6 -32 -26 -41 -122 -60 -36 -6
-68 -18 -70 -25 -14 -35 64 -61 105 -34 21 14 25 13 39 -1 14 -13 14 -24 3
-81 -7 -37 -17 -69 -22 -72 -5 -3 -38 4 -72 17 -62 21 -96 21 -96 -1 0 -36
120 -90 201 -90 63 0 102 21 140 78 25 36 29 53 29 107 0 106 -44 98 -55 -10
-8 -68 -38 -114 -69 -102 -22 8 -20 35 5 104 28 74 55 113 80 113 37 0 13 82
-33 114 -30 21 -37 20 -48 -6z"/>
<path d="M674 1536 c-3 -9 -4 -22 -1 -30 8 -20 87 -55 142 -62 75 -10 77 -16
44 -85 -16 -32 -29 -62 -29 -66 0 -4 -22 -50 -49 -103 -55 -108 -97 -230 -88
-254 13 -34 34 -15 51 48 10 35 23 74 30 87 58 107 76 146 76 162 0 9 6 20 14
23 8 3 18 18 21 34 3 15 17 38 31 51 14 13 32 40 40 59 8 19 27 44 41 56 37
30 22 44 -46 44 -54 0 -241 33 -262 46 -5 3 -12 -2 -15 -10z"/>
<path d="M880 1252 c0 -13 87 -103 250 -259 109 -104 156 -142 188 -152 23 -8
45 -11 49 -7 4 4 -74 87 -172 186 -127 127 -196 188 -236 210 -58 31 -79 36
-79 22z"/>
<path d="M3127 1084 c-16 -16 -7 -63 14 -75 28 -15 41 0 37 42 -2 25 -8 35
-23 37 -12 2 -24 0 -28 -4z"/>
</g>
</svg>
