<?xml version="1.0" standalone="no"?>
<!DOCTYPE svg PUBLIC "-//W3C//DTD SVG 20010904//EN"
 "http://www.w3.org/TR/2001/REC-SVG-20010904/DTD/svg10.dtd">
<svg version="1.0" xmlns="http://www.w3.org/2000/svg"
 width="291.000000pt" height="386.000000pt" viewBox="0 0 291.000000 386.000000"
 preserveAspectRatio="xMidYMid meet">
<metadata>
Created by potrace 1.16, written by Peter Selinger 2001-2019
</metadata>
<g transform="translate(0.000000,386.000000) scale(0.100000,-0.100000)"
fill="#000000" stroke="none">
<path d="M304 3663 c2 -10 8 -47 11 -83 4 -36 14 -73 23 -82 22 -25 78 -24 92
2 11 21 7 25 -35 32 -22 4 -33 34 -34 101 -1 46 -2 47 -32 47 -24 0 -29 -4
-25 -17z"/>
<path d="M596 3672 c-2 -4 -9 -36 -16 -71 -13 -71 -2 -114 32 -132 30 -16 47
5 25 29 -21 23 -22 71 -2 135 14 47 14 47 -10 47 -13 0 -26 -3 -29 -8z"/>
<path d="M1700 3675 c0 -28 62 -126 107 -170 69 -67 122 -89 198 -83 46 4 62
10 88 36 26 27 28 32 14 38 -10 3 -28 -1 -42 -10 -76 -50 -213 21 -278 144
-19 37 -29 46 -55 48 -18 2 -32 0 -32 -3z"/>
<path d="M730 3631 c0 -78 77 -242 134 -286 46 -35 123 -65 167 -65 36 0 47 7
107 68 67 67 128 157 112 167 -4 3 -21 -11 -37 -31 -62 -81 -134 -143 -170
-150 -42 -8 -94 8 -139 42 -35 25 -87 123 -143 267 -15 39 -31 33 -31 -12z"/>
<path d="M1379 3130 c-38 -20 -50 -42 -89 -160 -33 -98 -69 -190 -86 -216 -19
-28 -11 -43 14 -28 27 17 67 84 92 154 29 83 83 173 117 198 25 18 26 22 15
46 -14 31 -16 31 -63 6z"/>
<path d="M885 2890 c-12 -19 23 -60 51 -60 28 0 89 38 79 49 -4 3 -23 7 -43 7
-21 1 -47 4 -58 8 -13 5 -25 3 -29 -4z"/>
<path d="M1316 2775 c-26 -40 -56 -229 -56 -362 -1 -70 -6 -99 -24 -143 -27
-61 -54 -79 -120 -80 -33 0 -45 7 -82 44 -59 58 -59 78 1 69 45 -6 45 -6 110
61 36 36 65 72 65 80 0 7 -9 21 -20 31 -20 18 -23 18 -93 0 -40 -10 -97 -28
-127 -40 -30 -12 -68 -26 -85 -31 -40 -13 -38 -34 5 -48 30 -9 37 -18 51 -60
28 -91 120 -171 188 -164 22 3 27 -2 29 -24 3 -25 7 -23 88 55 47 45 99 101
115 125 43 61 73 79 105 62 18 -10 27 -11 35 -3 17 17 4 30 -36 37 -41 8 -55
26 -30 40 62 37 385 341 385 363 0 7 -3 13 -8 13 -4 0 -52 -39 -107 -86 -168
-146 -243 -205 -249 -195 -3 5 -1 43 4 84 10 83 -1 129 -43 175 -29 31 -79 30
-101 -3z m100 -46 c3 -6 6 -51 6 -100 0 -73 -5 -98 -26 -144 -14 -30 -30 -55
-35 -55 -15 0 -14 6 5 45 16 35 16 96 -1 102 -5 1 -18 -17 -28 -42 -18 -43
-45 -65 -34 -27 3 9 10 40 17 67 21 81 62 165 81 165 4 0 11 -5 15 -11z m-242
-267 c7 -12 -3 -24 -58 -72 -39 -33 -55 -41 -76 -36 -15 2 -32 0 -39 -7 -8 -8
-14 -8 -22 0 -16 16 -4 43 18 43 39 0 96 23 126 50 34 31 43 35 51 22z m156
-116 c0 -2 -3 -11 -6 -20 -9 -23 -24 -20 -24 4 0 11 7 20 15 20 8 0 15 -2 15
-4z"/>
<path d="M223 2736 l-42 -21 -1 -165 c0 -91 5 -192 11 -225 5 -33 15 -89 21
-125 6 -36 10 -137 10 -225 0 -137 -3 -170 -22 -224 -11 -35 -20 -78 -18 -95
l3 -31 26 50 c47 91 54 136 53 335 -1 172 -12 279 -44 445 -6 28 -15 85 -21
127 -13 89 -10 97 53 129 21 11 38 26 38 34 0 19 -15 17 -67 -9z"/>
<path d="M2625 2675 c-5 -2 -22 -6 -37 -9 -62 -14 -157 -193 -194 -368 -36
-174 -69 -522 -60 -648 10 -156 49 -231 161 -314 55 -40 69 -46 112 -46 36 0
60 7 84 23 30 20 34 29 37 72 l3 49 -31 -39 c-42 -53 -53 -58 -108 -50 -39 6
-55 15 -95 58 -26 29 -57 69 -67 89 -18 34 -44 193 -36 221 3 6 10 93 16 192
18 268 75 534 135 624 13 20 50 56 81 81 31 25 57 50 58 55 1 10 -40 17 -59
10z"/>
<path d="M2620 1938 c-43 -29 -77 -99 -97 -194 -17 -85 -9 -120 35 -154 41
-33 86 -26 135 19 30 28 39 43 31 50 -7 8 -19 2 -39 -19 -35 -36 -75 -39 -105
-8 -24 26 -25 57 -4 123 38 117 48 132 103 146 43 11 51 16 51 36 0 20 -5 23
-39 23 -23 0 -51 -9 -71 -22z"/>
<path d="M1195 1872 c-41 -26 -52 -41 -66 -93 -23 -87 22 -173 99 -192 39 -9
104 21 158 74 45 44 52 48 64 34 25 -30 -7 -270 -45 -329 -7 -11 -16 -35 -20
-52 -13 -67 -62 -79 -115 -31 -61 55 -95 118 -136 250 -17 56 -31 60 -40 13
-17 -91 69 -256 161 -310 52 -31 114 -35 137 -8 70 78 127 370 99 497 -15 68
-37 92 -124 135 -70 35 -128 39 -172 12z m155 -72 c45 -23 60 -36 60 -51 0
-24 -39 -65 -87 -91 -109 -59 -208 43 -121 124 30 28 61 46 81 47 4 1 34 -13
67 -29z"/>
<path d="M180 369 c0 -153 2 -170 15 -159 20 17 32 5 15 -15 -11 -13 -5 -15
44 -15 53 0 56 1 56 25 0 26 15 34 23 13 3 -10 7 -10 20 0 13 11 16 10 19 -10
2 -19 10 -24 41 -26 21 -2 45 2 53 9 10 8 14 8 14 0 0 -8 300 -11 1125 -11
l1125 0 0 54 0 54 -87 6 c-49 4 -124 11 -168 16 -44 6 -177 17 -295 25 -260
17 -551 43 -1185 107 -115 11 -230 22 -255 24 -106 9 -412 49 -532 69 l-28 5
0 -171z"/>
</g>
</svg>
