<?xml version="1.0" standalone="no"?>
<!DOCTYPE svg PUBLIC "-//W3C//DTD SVG 20010904//EN"
 "http://www.w3.org/TR/2001/REC-SVG-20010904/DTD/svg10.dtd">
<svg version="1.0" xmlns="http://www.w3.org/2000/svg"
 width="197.000000pt" height="315.000000pt" viewBox="0 0 197.000000 315.000000"
 preserveAspectRatio="xMidYMid meet">
<metadata>
Created by potrace 1.16, written by Peter Selinger 2001-2019
</metadata>
<g transform="translate(0.000000,315.000000) scale(0.100000,-0.100000)"
fill="#000000" stroke="none">
<path d="M793 2378 c-19 -26 -33 -98 -35 -180 0 -46 -5 -90 -9 -99 -5 -9 -45
-39 -89 -65 -122 -74 -124 -74 -134 -64 -11 11 70 100 90 100 16 0 46 48 35
55 -5 3 -12 1 -15 -4 -3 -4 -23 -11 -45 -15 -31 -5 -43 -13 -61 -43 -12 -21
-24 -53 -27 -73 -3 -19 -17 -47 -30 -62 -14 -14 -22 -31 -19 -37 18 -28 101 1
168 57 103 86 124 87 112 6 -8 -58 -77 -142 -100 -123 -11 9 -23 7 -50 -6 -46
-22 -44 -55 4 -67 30 -8 38 -5 84 32 34 26 55 37 61 31 15 -15 -58 -155 -123
-236 -31 -38 -67 -86 -80 -105 -45 -68 -133 -150 -167 -156 -18 -3 -33 -10
-33 -14 0 -17 31 -32 54 -26 29 7 119 86 160 142 102 136 155 203 189 236 20
21 37 47 37 59 0 12 26 64 58 118 90 149 138 249 127 267 -23 36 -23 36 -113
-151 -56 -115 -90 -111 -62 8 6 23 17 119 25 212 8 94 16 179 18 189 3 23 -16
32 -30 14z"/>
<path d="M180 1693 c0 -28 3 -34 10 -23 13 20 13 47 0 55 -6 4 -10 -9 -10 -32z"/>
<path d="M963 1672 c-18 -9 -46 -35 -62 -57 -44 -60 -119 -217 -127 -263 -6
-40 -5 -41 32 -59 38 -18 39 -20 36 -63 -4 -54 24 -103 76 -133 31 -18 33 -18
65 0 17 10 46 40 63 66 46 70 62 85 149 142 142 93 157 133 24 65 -45 -23 -85
-38 -90 -33 -4 4 -4 40 2 78 15 106 -19 221 -75 258 -32 21 -52 21 -93 -1z
m101 -85 c27 -41 39 -122 27 -189 -11 -64 -28 -90 -69 -111 -40 -19 -49 -42
-28 -66 24 -26 17 -53 -16 -65 -37 -13 -63 12 -85 80 -14 45 -15 60 -4 96 7
24 22 53 34 66 34 36 6 25 -34 -14 -25 -24 -43 -35 -54 -30 -14 5 -13 12 11
53 52 96 150 203 185 203 10 0 25 -10 33 -23z"/>
<path d="M180 1347 c0 -93 1 -97 19 -87 17 9 19 17 14 67 -4 32 -12 72 -19 88
-12 27 -13 21 -14 -68z"/>
</g>
</svg>
