<?xml version="1.0" standalone="no"?>
<!DOCTYPE svg PUBLIC "-//W3C//DTD SVG 20010904//EN"
 "http://www.w3.org/TR/2001/REC-SVG-20010904/DTD/svg10.dtd">
<svg version="1.0" xmlns="http://www.w3.org/2000/svg"
 width="253.000000pt" height="368.000000pt" viewBox="0 0 253.000000 368.000000"
 preserveAspectRatio="xMidYMid meet">
<metadata>
Created by potrace 1.16, written by Peter Selinger 2001-2019
</metadata>
<g transform="translate(0.000000,368.000000) scale(0.100000,-0.100000)"
fill="#000000" stroke="none">
<path d="M2076 2884 c-3 -9 -6 -27 -6 -40 0 -31 33 -151 52 -190 8 -16 20 -47
26 -69 6 -22 23 -78 37 -125 15 -47 29 -115 32 -152 6 -66 5 -68 -21 -78 -31
-11 -26 -27 11 -41 24 -9 24 -11 18 -77 -9 -89 -23 -116 -59 -120 -28 -3 -29
-2 -23 31 3 20 3 38 0 41 -10 10 -73 -46 -73 -66 0 -26 45 -66 78 -70 34 -4
33 -15 -21 -136 -44 -99 -65 -121 -101 -104 -82 40 -242 106 -272 112 -45 10
-79 -2 -87 -29 -7 -28 10 -37 32 -17 24 22 26 21 117 -24 43 -22 103 -47 132
-56 30 -10 56 -24 59 -31 6 -17 -38 -66 -85 -95 -33 -20 -74 -21 -116 -3 -31
13 -14 -18 18 -33 39 -20 116 8 183 64 28 24 56 44 63 44 6 0 46 -16 87 -36
42 -20 102 -45 135 -55 l59 -18 -3 26 c-3 22 -17 30 -120 71 -65 25 -118 50
-118 56 0 6 19 37 41 69 23 32 50 81 60 107 28 73 55 112 96 140 29 20 39 34
41 59 l3 34 -31 -27 c-40 -33 -51 -26 -38 22 6 20 13 57 17 82 5 37 10 46 29
48 16 3 22 10 22 28 0 20 -5 24 -30 24 -30 0 -30 1 -30 54 0 60 -52 237 -119
401 -22 55 -48 121 -57 148 -17 49 -28 58 -38 31z"/>
<path d="M1145 2468 c-127 -24 -295 -56 -360 -70 -57 -12 -105 -34 -105 -48 0
-17 49 -43 67 -35 10 4 68 18 128 31 211 45 352 88 380 115 22 22 -16 24 -110
7z"/>
<path d="M917 2273 c-4 -3 -7 -15 -7 -26 0 -11 -13 -47 -30 -81 -58 -118 -71
-197 -76 -446 -4 -171 -2 -237 9 -275 7 -27 17 -48 21 -45 4 3 9 97 11 210 4
245 18 377 46 439 12 25 25 78 29 116 5 39 12 80 15 93 7 21 -4 30 -18 15z"/>
<path d="M1094 2230 c-32 -13 -39 -28 -44 -110 -5 -70 -7 -76 -32 -88 -29 -14
-45 -50 -34 -78 6 -15 10 -14 31 6 17 16 29 20 35 14 6 -6 20 -85 31 -175 11
-90 24 -180 29 -199 12 -52 60 -184 71 -194 19 -20 21 5 6 71 -34 149 -73 499
-58 515 15 17 111 27 163 18 123 -21 155 -43 193 -133 30 -72 13 -209 -34
-275 -26 -36 -26 -42 -3 -42 9 0 30 16 46 36 62 78 86 245 47 322 -26 51 -99
116 -147 132 -37 12 -232 19 -264 10 -19 -6 -25 62 -12 126 11 49 7 55 -24 44z"/>
<path d="M370 1341 c-5 -11 -10 -30 -10 -43 0 -23 -27 -115 -51 -175 -9 -23
-10 -36 -3 -43 10 -10 50 43 87 116 23 45 33 130 17 149 -17 20 -27 19 -40 -4z"/>
<path d="M1404 751 c-39 -24 -44 -53 -59 -351 -3 -52 -8 -123 -11 -157 -6 -62
-6 -63 19 -63 24 0 26 4 32 67 4 38 11 86 16 108 5 22 9 81 9 130 0 50 7 117
16 150 21 79 28 135 18 135 -5 0 -23 -9 -40 -19z"/>
<path d="M2086 455 c-46 -16 -176 -104 -184 -123 -2 -8 5 -23 17 -35 l22 -22
43 45 c60 62 117 103 129 91 6 -6 -12 -50 -50 -120 l-61 -111 92 0 c86 0 94 2
126 28 58 49 10 89 -50 42 -28 -22 -55 -26 -66 -9 -3 6 8 42 26 81 39 85 45
142 15 145 -11 1 -37 -4 -59 -12z"/>
</g>
</svg>
