<?xml version="1.0" standalone="no"?>
<!DOCTYPE svg PUBLIC "-//W3C//DTD SVG 20010904//EN"
 "http://www.w3.org/TR/2001/REC-SVG-20010904/DTD/svg10.dtd">
<svg version="1.0" xmlns="http://www.w3.org/2000/svg"
 width="131.000000pt" height="310.000000pt" viewBox="0 0 131.000000 310.000000"
 preserveAspectRatio="xMidYMid meet">
<metadata>
Created by potrace 1.16, written by Peter Selinger 2001-2019
</metadata>
<g transform="translate(0.000000,310.000000) scale(0.100000,-0.100000)"
fill="#000000" stroke="none">
<path d="M651 2136 c-7 -8 -28 -46 -46 -85 -39 -82 -64 -100 -101 -76 -31 20
-43 12 -79 -50 -19 -32 -23 -47 -16 -70 6 -26 12 -30 42 -30 31 0 34 2 31 28
-4 35 13 57 43 57 36 0 56 11 66 36 4 13 16 24 25 24 10 0 14 -5 10 -15 -3 -9
-13 -41 -21 -73 -24 -83 -36 -113 -62 -148 -12 -16 -26 -48 -31 -69 -7 -35
-15 -44 -70 -75 -52 -29 -102 -81 -102 -105 0 -14 45 -1 87 25 26 17 52 30 59
30 6 0 22 8 35 18 30 23 86 35 95 21 9 -15 -96 -119 -121 -119 -28 -1 -106
-41 -118 -61 -6 -9 -7 -24 -3 -34 5 -14 14 -16 47 -11 23 4 51 13 62 21 35 25
52 18 111 -45 41 -45 60 -76 73 -118 22 -72 22 -191 -1 -252 -33 -87 -142
-233 -254 -337 -78 -72 -89 -100 -29 -71 41 20 204 170 262 241 76 92 98 153
103 289 l4 117 -38 68 c-21 37 -62 93 -91 124 -29 31 -53 61 -53 66 0 6 13 19
28 30 16 10 48 40 72 67 l45 48 -24 19 c-13 10 -34 19 -47 19 -42 0 -29 30 14
31 64 2 87 12 87 39 0 22 -4 25 -36 23 -20 -1 -56 -9 -80 -17 -25 -9 -47 -12
-52 -7 -14 14 2 31 28 31 26 0 55 42 55 79 0 11 13 35 28 53 49 57 86 128 73
141 -9 9 -16 8 -29 -1 -49 -35 -59 -28 -45 34 16 71 -6 126 -36 90z"/>
<path d="M180 991 c0 -35 4 -38 67 -51 26 -6 60 -13 76 -16 16 -4 27 -2 27 4
0 8 -47 35 -162 90 -5 2 -8 -10 -8 -27z"/>
</g>
</svg>
