<?xml version="1.0" standalone="no"?>
<!DOCTYPE svg PUBLIC "-//W3C//DTD SVG 20010904//EN"
 "http://www.w3.org/TR/2001/REC-SVG-20010904/DTD/svg10.dtd">
<svg version="1.0" xmlns="http://www.w3.org/2000/svg"
 width="186.000000pt" height="275.000000pt" viewBox="0 0 186.000000 275.000000"
 preserveAspectRatio="xMidYMid meet">
<metadata>
Created by potrace 1.16, written by Peter Selinger 2001-2019
</metadata>
<g transform="translate(0.000000,275.000000) scale(0.100000,-0.100000)"
fill="#000000" stroke="none">
<path d="M180 2560 c0 -5 7 -7 15 -4 8 4 15 8 15 10 0 2 -7 4 -15 4 -8 0 -15
-4 -15 -10z"/>
<path d="M583 2542 c22 -23 26 -36 25 -73 -2 -41 -5 -45 -23 -41 -11 2 -34 17
-50 33 -48 45 -88 55 -127 32 -41 -23 -94 -101 -108 -156 -6 -23 -15 -50 -20
-59 -6 -10 -10 -19 -10 -20 0 -2 36 -3 80 -3 55 0 80 4 80 12 0 6 -12 13 -27
15 -24 3 -28 8 -31 39 -3 31 2 41 33 68 47 41 77 40 134 -6 2 -1 -4 -12 -15
-24 -15 -16 -19 -36 -19 -87 l0 -66 -60 -11 c-45 -7 -61 -15 -63 -28 -6 -28
17 -47 58 -47 21 0 43 -7 50 -15 7 -8 23 -15 36 -15 20 0 26 8 35 44 6 25 20
52 30 62 10 9 19 30 19 46 0 18 5 28 15 28 11 0 15 -11 15 -41 0 -78 18 -115
91 -179 87 -78 99 -82 181 -61 71 17 107 43 132 95 8 18 29 49 46 70 33 43 38
84 19 162 -19 75 -103 127 -176 109 -46 -11 -139 -117 -159 -180 -16 -50 -16
-56 -2 -72 9 -10 19 -33 23 -50 10 -49 -17 -43 -55 12 -23 34 -33 63 -42 124
l-11 80 66 64 c37 37 77 87 90 116 l25 51 -156 0 -156 0 27 -28z m207 -6 c0
-17 -12 -34 -37 -52 -21 -16 -46 -37 -55 -48 -12 -15 -20 -18 -28 -10 -8 8 -5
18 10 36 11 15 20 30 20 34 0 4 12 21 27 36 34 36 63 37 63 4z m231 -202 c19
-17 21 -27 17 -106 -4 -81 -7 -90 -34 -119 -36 -39 -70 -56 -114 -61 -35 -3
-35 -3 -34 37 1 22 11 73 22 114 12 41 18 87 15 102 -10 51 1 62 57 57 30 -3
59 -13 71 -24z"/>
<path d="M1453 2503 c4 -37 7 -85 7 -105 0 -29 8 -47 36 -78 41 -46 54 -48
100 -19 40 24 84 111 84 165 l0 38 -50 -77 c-28 -42 -57 -77 -65 -77 -24 0
-38 41 -44 130 l-6 85 -34 3 -34 3 6 -68z"/>
<path d="M242 2083 c2 -10 8 -18 13 -18 5 0 11 8 13 18 2 10 -3 17 -13 17 -10
0 -15 -7 -13 -17z"/>
<path d="M180 1941 c0 -34 3 -41 19 -41 32 0 34 18 7 51 l-26 31 0 -41z"/>
<path d="M1327 1873 c-28 -27 -77 -197 -77 -263 0 -58 43 -65 88 -14 37 41 65
42 70 2 4 -36 -42 -143 -90 -205 -97 -127 -146 -294 -163 -564 -8 -113 -2
-139 36 -159 29 -16 46 1 54 53 3 23 13 62 20 87 9 29 15 113 17 230 l4 185
39 64 c37 60 96 111 128 111 7 0 28 -15 46 -34 l34 -35 -23 -88 c-12 -48 -30
-104 -40 -123 -10 -20 -21 -53 -25 -73 -8 -40 -21 -55 -36 -40 -5 5 -2 29 7
58 9 30 13 66 9 88 -4 29 -1 44 15 64 24 31 26 66 4 83 -12 11 -17 11 -29 -1
-23 -24 -45 -107 -56 -209 -6 -61 -21 -132 -40 -187 -33 -95 -53 -188 -44
-204 20 -31 73 9 101 76 28 70 29 70 106 4 38 -33 75 -58 81 -56 7 2 11 20 9
42 -2 20 4 65 12 99 8 33 18 96 22 139 6 69 10 83 40 118 33 40 34 43 33 127
l-1 87 -18 -40 c-10 -22 -24 -40 -31 -40 -18 0 -41 75 -36 118 3 20 14 61 25
90 43 114 62 184 62 232 -1 42 -2 47 -12 30 -29 -50 -86 -197 -92 -238 -10
-65 -22 -71 -85 -41 l-53 26 6 41 c16 111 18 168 6 182 -18 21 -64 19 -85 -5
-23 -26 -45 -26 -45 0 0 36 32 115 53 132 18 14 20 21 11 35 -12 19 -45 29
-57 16z m238 -682 c5 -17 -1 -88 -21 -241 -4 -30 -11 -63 -16 -73 -9 -18 -11
-18 -29 -1 -10 9 -21 31 -24 48 -6 32 26 168 51 218 8 15 14 36 14 48 0 25 17
26 25 1z"/>
<path d="M908 1753 c-93 -151 -125 -206 -157 -272 -28 -59 -29 -65 -17 -96 8
-18 19 -36 25 -39 32 -20 -15 -105 -94 -173 -44 -37 -46 -41 -34 -66 10 -22 9
-36 -4 -78 -10 -28 -17 -59 -17 -69 0 -40 51 -49 80 -15 9 10 8 19 -4 38 -15
22 -14 27 5 66 11 23 27 45 35 48 8 3 24 23 35 44 11 22 26 39 34 39 19 0 19
-19 1 -39 -11 -13 -46 -147 -63 -242 -11 -59 72 -143 117 -119 12 6 25 22 30
36 6 16 17 24 33 24 33 0 78 52 126 145 33 63 42 95 47 152 7 79 -2 110 -54
171 -26 31 -30 33 -55 21 -22 -10 -30 -10 -40 0 -9 10 -7 17 14 34 15 12 29
33 32 47 4 14 22 44 42 67 38 45 43 64 20 83 -12 10 -21 8 -48 -9 -35 -22
-107 -94 -143 -145 -26 -36 -54 -30 -54 11 0 41 40 131 86 193 36 49 71 114
87 163 4 9 13 17 22 17 18 0 20 21 3 38 -23 23 -36 12 -90 -75z m110 -495 c18
-18 14 -50 -12 -82 -20 -24 -29 -28 -54 -23 -16 3 -34 1 -40 -5 -6 -6 -18 -8
-27 -4 -15 5 -14 9 4 35 12 16 21 36 21 44 0 36 81 62 108 35z m-172 -46 c-8
-9 -19 -13 -22 -9 -10 9 16 38 28 31 6 -4 4 -13 -6 -22z m143 -189 c-13 -32
-33 -69 -45 -83 -12 -14 -29 -39 -38 -57 -19 -38 -47 -49 -83 -31 -25 12 -29
20 -36 83 -8 79 -5 95 20 95 10 0 35 11 55 25 35 24 36 24 53 5 24 -26 37 -25
65 5 13 14 25 23 28 20 2 -2 -6 -30 -19 -62z"/>
<path d="M308 1521 c-31 -16 -73 -41 -92 -56 -31 -23 -36 -33 -36 -67 l0 -41
33 27 c43 35 137 87 162 89 53 5 18 -59 -138 -252 l-59 -72 7 -77 c3 -42 8
-134 11 -203 4 -109 8 -129 25 -144 10 -10 19 -16 20 -14 0 2 2 60 5 128 5
129 -8 199 -45 244 -14 16 -9 24 60 95 100 103 154 171 184 230 62 124 -5 180
-137 113z"/>
<path d="M1660 1465 c-14 -17 -10 -47 8 -53 8 -2 12 8 12 32 0 40 -2 42 -20
21z"/>
<path d="M526 1257 c-28 -23 -33 -56 -9 -64 10 -4 63 65 63 82 0 12 -27 3 -54
-18z"/>
<path d="M365 1111 c-48 -29 -68 -58 -76 -109 -4 -26 -5 -48 -4 -50 6 -6 90
90 107 122 31 57 23 68 -27 37z"/>
<path d="M1544 483 c18 -156 18 -169 2 -217 -9 -27 -21 -57 -27 -67 -9 -17 -6
-19 32 -19 40 0 78 27 79 56 0 6 10 23 21 38 22 28 19 41 -9 41 -13 0 -19 14
-24 60 -9 72 -46 165 -66 165 -12 0 -14 -11 -8 -57z"/>
<path d="M950 382 c0 -11 8 -26 18 -35 27 -25 64 -104 60 -129 -3 -20 -8 -23
-48 -21 -25 2 -61 5 -81 8 -23 3 -43 -1 -55 -10 -17 -13 19 -14 297 -13 355 1
324 -6 354 80 27 78 16 108 -41 108 -23 0 -47 -13 -86 -45 -44 -36 -64 -46
-103 -50 -34 -3 -56 -12 -75 -30 -34 -33 -60 -29 -80 10 -32 61 -69 112 -94
128 -34 23 -66 22 -66 -1z m498 -108 c1 -10 -7 -34 -18 -52 -17 -28 -23 -32
-35 -22 -21 18 -18 50 7 77 25 26 42 25 46 -3z"/>
</g>
</svg>
