<?xml version="1.0" standalone="no"?>
<!DOCTYPE svg PUBLIC "-//W3C//DTD SVG 20010904//EN"
 "http://www.w3.org/TR/2001/REC-SVG-20010904/DTD/svg10.dtd">
<svg version="1.0" xmlns="http://www.w3.org/2000/svg"
 width="276.000000pt" height="377.000000pt" viewBox="0 0 276.000000 377.000000"
 preserveAspectRatio="xMidYMid meet">
<metadata>
Created by potrace 1.16, written by Peter Selinger 2001-2019
</metadata>
<g transform="translate(0.000000,377.000000) scale(0.100000,-0.100000)"
fill="#000000" stroke="none">
<path d="M1201 2382 c-205 -210 -221 -234 -239 -373 -10 -78 19 -457 40 -528
12 -40 40 -72 52 -60 3 3 -2 106 -11 229 -8 124 -15 236 -15 250 0 14 -4 60
-10 102 -8 59 -7 85 2 108 17 42 252 255 346 315 108 68 123 117 45 140 -21 6
-45 -14 -210 -183z"/>
<path d="M2110 2434 c-126 -45 -170 -92 -118 -128 30 -21 55 -20 67 3 6 10 36
31 66 46 128 62 279 1 312 -125 4 -15 -3 -49 -17 -88 -17 -47 -20 -66 -11 -75
8 -8 21 -2 48 25 31 31 37 45 41 90 6 78 -11 129 -62 181 -91 94 -196 117
-326 71z"/>
<path d="M245 2364 c-11 -3 -30 -7 -42 -10 -19 -3 -23 -11 -23 -39 0 -33 1
-34 26 -24 34 12 38 8 25 -33 -5 -18 -9 -89 -8 -158 2 -116 0 -126 -20 -151
-18 -21 -23 -39 -23 -85 l0 -58 50 55 c27 30 49 59 50 65 0 6 7 17 15 24 17
14 85 155 85 175 0 20 45 55 72 55 30 0 58 28 58 59 0 61 -177 144 -265 125z
m161 -107 c4 -3 3 -14 -2 -24 -4 -10 -8 -27 -8 -38 -1 -13 -7 -19 -16 -16 -8
2 -26 4 -40 5 -22 1 -25 6 -28 45 -5 68 0 74 48 52 22 -10 43 -21 46 -24z
m-100 -111 c6 -17 -12 -56 -26 -56 -11 0 -14 53 -3 63 11 11 23 8 29 -7z"/>
<path d="M1145 2194 c-55 -28 -58 -35 -45 -100 18 -89 18 -88 35 -74 8 7 15
22 15 33 0 12 12 34 27 49 23 24 35 28 79 28 71 0 95 -23 129 -123 41 -124 58
-297 50 -528 -5 -165 -4 -198 9 -208 18 -15 21 -10 34 69 27 158 34 294 23
425 -20 229 -65 362 -140 410 -49 31 -172 42 -216 19z"/>
<path d="M2296 2025 c-12 -9 -45 -15 -85 -16 -135 -2 -214 -34 -182 -73 25
-30 212 -16 284 21 23 12 28 20 25 45 -4 37 -15 43 -42 23z"/>
<path d="M1089 1889 c-46 -46 -7 -88 62 -67 45 13 48 11 95 -56 19 -27 27 -15
14 20 -9 24 -8 30 8 44 23 18 37 56 23 64 -5 3 -48 8 -96 10 -75 4 -89 2 -106
-15z"/>
<path d="M2042 1858 c-11 -18 -33 -50 -49 -72 -28 -38 -28 -40 -28 -178 l0
-140 47 -43 c64 -58 117 -82 213 -97 100 -16 189 -13 283 9 l72 17 0 43 c0 43
0 43 -22 29 -55 -34 -192 -49 -293 -33 -86 15 -153 44 -197 85 -28 26 -28 27
-28 158 0 110 3 139 20 175 34 75 21 109 -18 47z"/>
<path d="M1165 1690 c-28 -54 -9 -96 25 -55 7 8 18 15 26 15 22 0 26 20 10 45
-22 33 -42 31 -61 -5z"/>
<path d="M1250 1461 c-58 -5 -65 -9 -68 -28 -4 -26 28 -43 79 -43 33 0 89 25
89 39 0 5 3 16 6 25 7 17 10 17 -106 7z"/>
<path d="M537 1403 c-13 -13 -7 -34 23 -75 17 -22 30 -47 30 -54 0 -22 -127
-75 -215 -91 -72 -12 -142 -11 -181 4 -10 4 -14 -5 -14 -35 0 -48 8 -52 95
-52 143 0 327 57 373 115 29 37 28 59 -9 116 -38 60 -83 92 -102 72z"/>
</g>
</svg>
