<?xml version="1.0" standalone="no"?>
<!DOCTYPE svg PUBLIC "-//W3C//DTD SVG 20010904//EN"
 "http://www.w3.org/TR/2001/REC-SVG-20010904/DTD/svg10.dtd">
<svg version="1.0" xmlns="http://www.w3.org/2000/svg"
 width="287.000000pt" height="340.000000pt" viewBox="0 0 287.000000 340.000000"
 preserveAspectRatio="xMidYMid meet">
<metadata>
Created by potrace 1.16, written by Peter Selinger 2001-2019
</metadata>
<g transform="translate(0.000000,340.000000) scale(0.100000,-0.100000)"
fill="#000000" stroke="none">
<path d="M180 2775 c0 -420 1 -445 18 -445 16 0 18 19 19 294 2 189 8 341 18
426 21 179 22 170 -20 170 l-35 0 0 -445z"/>
<path d="M434 3188 c-15 -18 -45 -71 -67 -118 -21 -47 -48 -103 -58 -126 -10
-23 -19 -56 -19 -74 0 -17 -9 -43 -20 -57 -30 -39 -27 -54 10 -41 38 13 179
-17 187 -40 4 -8 -1 -26 -9 -41 -9 -14 -30 -53 -48 -86 -18 -33 -41 -72 -51
-87 -24 -33 -24 -38 -1 -38 24 0 47 26 117 135 33 50 62 94 66 98 4 5 44 -9
90 -31 77 -37 108 -47 249 -82 25 -6 74 -9 110 -8 l65 3 8 -105 c5 -69 4 -120
-3 -148 -13 -51 -4 -67 47 -89 55 -22 134 -16 259 22 64 20 137 35 164 35 27
0 82 6 122 14 99 20 230 34 368 41 251 13 340 23 340 39 0 37 -353 40 -640 6
-246 -30 -249 -30 -335 -52 -148 -36 -163 -39 -202 -36 -35 3 -38 5 -36 31 2
31 91 135 168 197 208 167 301 240 342 268 26 18 64 43 83 57 19 13 45 29 58
34 12 6 22 14 22 19 0 5 26 26 58 46 31 20 84 57 117 82 33 24 74 54 92 65 66
42 48 95 -29 92 -24 -1 -74 -10 -111 -19 -75 -18 -141 -66 -195 -140 -72 -99
-131 -133 -255 -149 -48 -6 -70 -26 -50 -46 5 -5 36 -12 70 -15 53 -6 64 -4
91 16 16 12 36 20 43 18 7 -2 -22 -28 -66 -58 -180 -120 -351 -252 -409 -317
-58 -65 -70 -59 -62 32 4 42 9 82 12 90 5 12 38 36 107 79 28 17 36 36 14 36
-7 0 -29 -9 -50 -19 -20 -10 -39 -15 -42 -11 -3 4 4 34 15 66 11 33 20 65 20
73 0 27 98 218 149 292 l52 74 -32 3 c-39 4 -57 -15 -129 -141 -54 -94 -86
-170 -129 -310 -15 -49 -34 -93 -42 -98 -42 -26 -207 3 -355 64 -119 49 -129
61 -94 109 11 16 27 48 35 71 8 23 22 67 33 97 24 70 35 143 27 180 -6 27 -10
30 -47 30 -39 0 -40 -1 -35 -29 7 -34 -20 -150 -66 -281 l-34 -95 -34 1 c-50
2 -151 22 -161 32 -14 14 118 265 169 322 l45 50 -40 0 c-33 0 -45 -6 -68 -32z
m1556 -36 c0 -23 -275 -252 -302 -252 -6 0 6 18 26 40 20 22 36 45 36 51 0 21
86 112 125 132 62 31 115 45 115 29z"/>
<path d="M2555 1919 c-124 -60 -169 -79 -243 -99 -30 -8 -46 -18 -52 -36 -5
-13 -16 -24 -25 -24 -28 0 -15 -19 19 -29 26 -6 46 -5 77 5 60 21 66 11 50
-79 -7 -39 -15 -112 -18 -160 -3 -48 -10 -90 -16 -94 -10 -6 -50 -17 -146 -38
-43 -10 -68 -11 -76 -5 -8 7 -24 5 -48 -5 -20 -8 -48 -12 -64 -9 -39 8 -60
-17 -47 -54 15 -42 51 -49 146 -28 46 9 99 19 118 22 19 3 49 13 66 21 46 24
64 12 64 -40 0 -63 37 -197 61 -223 28 -30 68 -39 87 -20 13 12 10 22 -23 76
-28 46 -39 78 -46 129 -11 90 -2 122 42 143 48 24 129 42 139 32 5 -5 14 -70
20 -144 13 -154 36 -320 46 -329 11 -11 -3 711 -16 761 -13 52 -34 78 -51 61
-9 -9 -12 -128 -6 -217 2 -28 -3 -33 -77 -68 -43 -22 -85 -37 -92 -34 -17 7
-19 112 -3 171 6 22 14 71 17 109 l7 69 46 26 c184 103 174 95 177 134 2 20 0
37 -5 36 -4 0 -62 -27 -128 -60z"/>
<path d="M1356 1921 l-38 -39 -9 -123 c-4 -68 -11 -143 -15 -166 -9 -56 13
-58 50 -4 21 30 30 62 44 157 10 65 23 129 30 142 16 29 12 66 -8 70 -9 1 -33
-15 -54 -37z"/>
<path d="M459 1565 c-3 -12 -9 -68 -10 -92 -1 -27 49 -273 70 -343 17 -54 13
-254 -5 -327 -18 -74 -14 -99 15 -84 38 21 68 91 79 186 11 101 4 178 -29 318
-12 51 -32 139 -46 196 -23 99 -45 151 -64 151 -5 0 -10 -2 -10 -5z"/>
<path d="M1510 1530 c-50 -18 -126 -35 -183 -42 -89 -10 -100 -13 -110 -35 -9
-20 -7 -27 11 -45 21 -21 22 -21 89 -5 133 34 177 47 187 57 5 5 20 10 32 10
21 0 84 60 84 80 0 15 -19 12 -110 -20z"/>
<path d="M1443 1350 c-66 -15 -79 -46 -38 -84 l26 -24 -76 -74 c-83 -82 -90
-104 -47 -138 25 -21 34 -22 137 -17 149 8 285 54 285 98 0 17 -4 20 -22 15
-13 -4 -75 -18 -138 -31 -119 -25 -185 -23 -185 5 0 8 25 34 55 59 30 24 65
59 78 78 12 18 31 33 40 33 26 0 76 55 69 74 -8 20 -46 20 -71 1 -25 -19 -55
-19 -62 0 -4 8 -9 15 -13 14 -3 -1 -21 -5 -38 -9z"/>
<path d="M344 1295 c-7 -19 -14 -39 -14 -45 0 -6 -11 -15 -25 -20 -33 -13 -32
-36 3 -52 l27 -13 11 -275 c6 -151 15 -373 19 -492 l7 -218 40 0 41 0 -7 188
c-4 103 -9 255 -11 337 -12 401 -17 469 -47 583 -13 51 -24 53 -44 7z"/>
<path d="M275 1038 c-13 -30 -49 -34 -74 -9 l-21 21 0 -51 0 -50 47 3 c43 3
48 6 54 33 4 17 11 40 14 53 4 12 3 22 -1 22 -5 0 -14 -10 -19 -22z"/>
</g>
</svg>
