<?xml version="1.0" standalone="no"?>
<!DOCTYPE svg PUBLIC "-//W3C//DTD SVG 20010904//EN"
 "http://www.w3.org/TR/2001/REC-SVG-20010904/DTD/svg10.dtd">
<svg version="1.0" xmlns="http://www.w3.org/2000/svg"
 width="307.000000pt" height="307.000000pt" viewBox="0 0 307.000000 307.000000"
 preserveAspectRatio="xMidYMid meet">
<metadata>
Created by potrace 1.16, written by Peter Selinger 2001-2019
</metadata>
<g transform="translate(0.000000,307.000000) scale(0.100000,-0.100000)"
fill="#000000" stroke="none">
<path d="M985 2313 c-33 -9 -68 -42 -97 -91 -33 -56 -35 -92 -8 -117 20 -18
21 -18 44 4 13 12 28 39 35 60 14 48 32 63 68 59 20 -2 34 -14 50 -43 31 -54
39 -88 62 -250 36 -256 35 -259 -29 -268 -46 -6 -115 -33 -114 -44 0 -4 4 -21
9 -37 6 -24 4 -33 -13 -47 -27 -21 -28 -29 -2 -29 11 0 47 25 81 56 40 37 67
54 81 52 19 -3 21 -11 25 -80 2 -54 0 -79 -9 -84 -7 -5 -44 -11 -82 -14 -40
-3 -71 -10 -73 -17 -6 -18 52 -44 112 -50 l52 -6 7 -75 c3 -41 6 -121 6 -178
0 -107 11 -159 33 -152 6 3 13 18 15 34 5 46 15 47 69 11 65 -43 143 -55 220
-32 86 25 226 156 262 244 8 17 20 31 28 31 12 0 14 -10 9 -47 -3 -27 -8 -95
-12 -151 -3 -57 -12 -127 -20 -155 -24 -90 18 -99 57 -12 24 56 42 188 38 289
-4 73 -7 88 -28 110 -14 14 -32 26 -42 26 -11 0 -44 -36 -84 -90 -104 -140
-202 -194 -318 -175 -59 10 -94 31 -112 66 -16 31 -13 83 6 94 12 8 12 115 -1
115 -6 0 -15 -12 -20 -26 -9 -22 -13 -24 -26 -13 -13 11 -15 30 -13 99 9 245
-26 595 -76 748 -41 127 -54 148 -109 173 -43 19 -48 20 -81 12z"/>
<path d="M1454 2293 c-3 -10 -10 -27 -16 -37 -26 -48 -57 -176 -60 -244 -3
-78 11 -96 66 -88 101 16 148 -4 184 -75 25 -51 24 -116 -4 -209 -9 -30 -18
-61 -20 -69 -3 -9 -14 -11 -37 -7 -98 18 -107 18 -132 2 -34 -23 -33 -48 3
-45 33 3 101 -26 109 -47 3 -8 -3 -25 -14 -37 -11 -12 -26 -32 -32 -45 -7 -13
-23 -27 -37 -32 -33 -13 -22 -30 20 -30 24 0 41 10 73 43 22 23 46 52 52 65
15 29 35 28 100 -8 62 -34 115 -47 126 -30 12 20 -20 54 -90 94 -37 22 -69 46
-72 53 -3 6 4 31 15 55 11 24 26 75 32 114 11 62 11 76 -4 104 -9 18 -16 37
-16 43 0 21 -63 86 -103 107 -35 19 -52 21 -105 17 -45 -5 -64 -3 -68 6 -2 7
7 40 21 75 14 34 25 70 25 79 1 10 9 36 20 58 24 50 25 68 2 88 -24 21 -31 21
-38 0z"/>
<path d="M181 2184 c0 -11 3 -14 6 -6 3 7 2 16 -1 19 -3 4 -6 -2 -5 -13z"/>
<path d="M2677 2173 c-13 -12 -7 -71 8 -83 22 -19 18 -78 -10 -135 -26 -53
-31 -80 -16 -89 13 -8 71 61 71 83 0 10 6 24 14 30 38 32 23 148 -24 181 -31
22 -34 23 -43 13z"/>
<path d="M182 1835 c0 -201 3 -295 9 -266 5 24 15 52 24 61 18 20 133 60 173
60 15 0 43 8 62 19 19 10 49 21 67 25 38 9 58 30 49 52 -5 12 -13 15 -34 10
-15 -4 -46 -11 -70 -16 -57 -13 -66 -19 -52 -35 7 -8 9 -19 5 -25 -9 -15 -26
-2 -23 18 2 12 -4 17 -22 17 -19 0 -25 -5 -25 -22 0 -31 -12 -38 -25 -14 -8
15 -20 21 -45 21 -18 0 -37 5 -41 12 -4 7 -7 44 -5 82 2 61 -14 171 -39 276
-5 21 -8 -87 -8 -275z"/>
<path d="M880 2010 c0 -5 5 -10 10 -10 6 0 10 5 10 10 0 6 -4 10 -10 10 -5 0
-10 -4 -10 -10z"/>
<path d="M2876 1933 c-4 -9 -2 -21 4 -27 7 -7 10 -2 10 17 0 31 -5 34 -14 10z"/>
<path d="M763 1923 c-4 -9 6 -89 22 -177 28 -162 35 -231 55 -541 11 -163 24
-225 45 -215 6 3 10 106 9 280 0 233 -4 296 -22 413 -35 218 -40 237 -69 248
-32 12 -33 12 -40 -8z"/>
<path d="M2574 1755 c-4 -9 -1 -42 7 -73 22 -91 18 -213 -11 -311 l-24 -83 23
-19 c31 -25 46 -19 46 18 0 16 5 41 12 54 72 150 84 181 79 195 -6 16 -8 16
-24 0 -10 -9 -21 -16 -23 -16 -2 0 -4 37 -4 83 0 64 -5 91 -21 122 -23 43 -50
57 -60 30z"/>
<path d="M974 1739 c-10 -17 13 -36 27 -22 12 12 4 33 -11 33 -5 0 -12 -5 -16
-11z"/>
<path d="M305 1370 c-8 -13 115 -192 129 -187 27 9 -9 121 -50 159 -26 23 -72
39 -79 28z"/>
</g>
</svg>
