<?xml version="1.0" standalone="no"?>
<!DOCTYPE svg PUBLIC "-//W3C//DTD SVG 20010904//EN"
 "http://www.w3.org/TR/2001/REC-SVG-20010904/DTD/svg10.dtd">
<svg version="1.0" xmlns="http://www.w3.org/2000/svg"
 width="257.000000pt" height="325.000000pt" viewBox="0 0 257.000000 325.000000"
 preserveAspectRatio="xMidYMid meet">
<metadata>
Created by potrace 1.16, written by Peter Selinger 2001-2019
</metadata>
<g transform="translate(0.000000,325.000000) scale(0.100000,-0.100000)"
fill="#000000" stroke="none">
<path d="M1135 2350 c-4 -6 -30 -25 -58 -44 -80 -51 -202 -164 -251 -232 -53
-73 -106 -190 -106 -234 0 -24 9 -41 35 -66 19 -18 44 -36 55 -39 29 -9 25
-32 -13 -79 -79 -97 -148 -243 -206 -429 -15 -49 -34 -93 -42 -98 -35 -22
-202 2 -307 44 l-62 26 0 -44 0 -44 68 -19 c113 -33 174 -43 237 -40 l60 3 8
-105 c5 -69 4 -120 -3 -148 -13 -51 -4 -67 47 -89 55 -22 134 -16 259 22 64
20 137 35 164 35 27 0 82 6 122 14 99 20 230 34 368 41 251 13 340 23 340 39
0 37 -353 40 -640 6 -246 -30 -249 -30 -335 -52 -148 -36 -163 -39 -202 -36
-35 3 -38 5 -36 31 2 31 91 135 168 197 208 167 301 240 342 268 26 18 64 43
83 57 19 13 45 29 58 34 12 6 22 14 22 19 0 5 26 26 58 46 31 20 84 57 117 82
33 24 74 54 92 65 66 42 48 95 -29 92 -24 -1 -74 -10 -111 -19 -75 -18 -141
-66 -195 -140 -72 -99 -131 -133 -255 -149 -48 -6 -70 -26 -50 -46 5 -5 36
-12 70 -15 53 -6 64 -4 91 16 16 12 36 20 43 18 7 -2 -22 -28 -66 -58 -180
-120 -351 -252 -409 -317 -58 -65 -70 -59 -62 32 4 42 9 82 12 90 5 12 38 36
107 79 28 17 36 36 14 36 -7 0 -29 -9 -50 -19 -20 -10 -39 -15 -42 -11 -3 4 4
34 15 66 11 33 20 65 20 73 0 26 98 218 146 288 62 91 94 123 118 123 67 1
185 64 271 145 39 37 85 78 103 93 41 31 111 134 119 174 10 50 -51 90 -85 56
-10 -10 -8 -16 10 -30 23 -17 23 -17 4 -51 -25 -48 -175 -177 -311 -267 -30
-20 -75 -27 -75 -12 0 4 7 18 16 30 32 46 2 35 -46 -17 -43 -47 -52 -53 -77
-47 -15 4 -39 15 -53 25 -38 29 -32 73 24 166 67 109 184 223 286 277 48 25
86 70 76 87 -9 14 -63 14 -71 1z m345 -738 c0 -23 -275 -252 -302 -252 -6 0 6
18 26 40 20 22 36 45 36 51 0 21 86 112 125 132 62 31 115 45 115 29z"/>
<path d="M182 1610 c0 -90 1 -92 10 -43 6 33 6 68 0 95 -9 38 -10 32 -10 -52z"/>
<path d="M2290 496 c-30 -13 -134 -62 -231 -109 -96 -47 -189 -89 -205 -92
-72 -16 -96 -28 -104 -51 -5 -13 -16 -24 -25 -24 -28 0 -15 -19 19 -29 26 -7
46 -5 78 6 38 13 43 13 54 -1 6 -9 25 -16 42 -16 27 0 31 4 34 32 2 25 11 36
49 57 26 14 82 46 125 71 127 71 184 98 225 105 36 6 39 9 39 41 0 29 -4 34
-22 34 -13 0 -48 -11 -78 -24z"/>
<path d="M846 381 c-36 -37 -38 -42 -43 -120 l-6 -81 41 0 40 0 7 72 c4 40 14
82 22 95 18 27 14 67 -7 71 -9 1 -33 -15 -54 -37z"/>
<path d="M2107 213 c-16 -15 -6 -33 18 -33 27 0 32 9 13 28 -14 14 -22 15 -31
5z"/>
</g>
</svg>
