<?xml version="1.0" standalone="no"?>
<!DOCTYPE svg PUBLIC "-//W3C//DTD SVG 20010904//EN"
 "http://www.w3.org/TR/2001/REC-SVG-20010904/DTD/svg10.dtd">
<svg version="1.0" xmlns="http://www.w3.org/2000/svg"
 width="292.000000pt" height="407.000000pt" viewBox="0 0 292.000000 407.000000"
 preserveAspectRatio="xMidYMid meet">
<metadata>
Created by potrace 1.16, written by Peter Selinger 2001-2019
</metadata>
<g transform="translate(0.000000,407.000000) scale(0.100000,-0.100000)"
fill="#000000" stroke="none">
<path d="M2633 3292 c-54 -47 -61 -69 -134 -457 -45 -242 -133 -509 -274 -835
-20 -47 -40 -96 -45 -110 -4 -14 -40 -92 -79 -173 -66 -137 -84 -197 -62 -197
5 0 14 12 20 28 7 15 29 56 51 92 49 82 127 239 146 293 8 23 21 51 28 62 32
49 131 292 186 453 65 191 111 367 129 502 15 107 28 166 58 259 24 76 29 111
16 111 -5 0 -22 -13 -40 -28z"/>
<path d="M1127 3088 c-44 -34 -87 -194 -96 -358 l-6 -114 -60 -24 c-33 -13
-67 -27 -75 -32 -21 -10 -24 -44 -5 -60 13 -11 19 -10 34 5 13 11 27 14 41 10
14 -5 28 -1 42 11 19 18 20 18 34 -1 8 -10 14 -24 14 -30 0 -16 48 -60 57 -52
3 4 1 18 -5 32 -16 34 -15 70 1 82 12 10 226 53 262 53 21 0 16 -28 -21 -110
-22 -48 -24 -63 -19 -125 5 -55 4 -74 -7 -83 -9 -7 -65 -12 -149 -14 l-134 -3
0 -30 0 -30 140 0 140 0 -3 -75 c-5 -138 -33 -302 -68 -408 -19 -56 -34 -117
-34 -136 0 -37 31 -89 73 -120 42 -31 52 -13 37 69 -7 37 -10 88 -6 115 7 52
53 133 82 144 27 10 92 7 100 -6 18 -29 4 -119 -31 -195 -54 -116 -110 -168
-232 -213 -67 -24 -119 -69 -110 -94 10 -26 36 -19 167 48 209 106 278 156
195 143 -40 -7 -44 2 -15 28 33 30 91 146 97 195 3 25 0 64 -7 88 -10 38 -17
46 -58 64 -41 19 -52 20 -97 9 -82 -19 -80 -19 -79 14 0 17 9 84 18 150 10 66
20 135 22 153 3 18 10 34 17 36 22 6 131 28 187 37 63 11 138 55 122 71 -7 7
-30 6 -74 -5 -95 -24 -220 -39 -231 -28 -11 11 15 106 38 138 8 12 25 23 38
25 29 4 21 21 -17 33 -44 14 -43 40 2 105 34 49 43 56 83 62 24 3 66 16 93 27
38 17 47 24 38 33 -9 9 -23 9 -57 0 -90 -24 -111 -11 -72 46 37 54 70 143 58
155 -21 21 -79 -40 -120 -128 -37 -79 -43 -87 -86 -105 -59 -25 -97 -25 -120
0 -22 24 -16 99 15 200 23 75 26 134 8 128 -7 -3 -29 -36 -50 -75 -43 -83 -57
-167 -39 -228 20 -69 21 -68 -44 -81 -33 -7 -64 -10 -69 -7 -11 7 -1 125 18
215 25 117 46 168 87 208 21 20 36 40 32 44 -11 11 -79 6 -96 -6z"/>
<path d="M423 2998 c-11 -13 -35 -52 -54 -88 -46 -90 -136 -248 -165 -291 -19
-28 -24 -47 -22 -79 l3 -43 47 59 c26 33 59 82 73 109 15 28 35 59 46 71 10
11 19 24 19 28 0 9 77 113 90 121 5 3 17 21 26 40 13 29 14 38 2 62 -17 36
-39 39 -65 11z"/>
<path d="M1595 2831 c-3 -5 -1 -12 5 -16 5 -3 10 1 10 9 0 18 -6 21 -15 7z"/>
<path d="M525 2499 c-62 -62 -101 -89 -131 -89 -10 0 -38 13 -63 29 -73 46
-82 46 -119 1 -23 -28 -32 -48 -30 -67 l3 -27 33 32 c18 18 38 32 45 32 7 0
30 -12 52 -27 l39 -27 -33 -25 c-71 -55 -86 -70 -78 -77 4 -4 35 7 68 24 34
18 69 32 78 32 10 0 32 11 51 25 19 14 38 25 43 25 25 0 157 142 157 169 0 10
-31 31 -47 31 -5 0 -35 -27 -68 -61z"/>
<path d="M550 2241 c-55 -18 -180 -55 -300 -90 -61 -17 -65 -21 -68 -49 l-3
-31 48 14 c26 9 59 18 73 21 37 10 202 63 225 73 11 5 35 12 53 15 27 5 32 3
32 -15 0 -24 -63 -136 -113 -202 -36 -47 -48 -87 -27 -87 13 0 120 145 171
232 45 76 48 101 17 122 -28 20 -39 19 -108 -3z"/>
<path d="M289 1902 c-20 -10 -52 -30 -72 -45 l-37 -28 0 -102 c0 -95 1 -103
22 -112 31 -14 32 -29 3 -63 -14 -16 -25 -42 -25 -56 0 -24 2 -26 23 -15 12 6
41 32 64 57 l41 47 54 -27 c29 -14 107 -43 173 -64 97 -30 137 -37 205 -38 95
-1 122 15 45 27 -139 22 -188 38 -350 112 -27 12 -58 25 -67 28 -22 8 -23 45
-3 71 19 25 68 173 61 185 -8 12 -71 41 -88 40 -7 0 -29 -8 -49 -17z m54 -86
c-2 -26 -42 -115 -65 -143 -8 -10 -17 -9 -40 5 -17 9 -32 22 -35 29 -8 19 24
69 69 107 50 42 74 43 71 2z"/>
</g>
</svg>
