<?xml version="1.0" standalone="no"?>
<!DOCTYPE svg PUBLIC "-//W3C//DTD SVG 20010904//EN"
 "http://www.w3.org/TR/2001/REC-SVG-20010904/DTD/svg10.dtd">
<svg version="1.0" xmlns="http://www.w3.org/2000/svg"
 width="260.000000pt" height="396.000000pt" viewBox="0 0 260.000000 396.000000"
 preserveAspectRatio="xMidYMid meet">
<metadata>
Created by potrace 1.16, written by Peter Selinger 2001-2019
</metadata>
<g transform="translate(0.000000,396.000000) scale(0.100000,-0.100000)"
fill="#000000" stroke="none">
<path d="M1930 2770 c-122 -8 -174 -17 -213 -37 -39 -20 -29 -38 21 -38 23 1
186 2 362 3 l320 2 0 40 0 40 -192 -2 c-106 0 -240 -4 -298 -8z"/>
<path d="M1327 2763 c-3 -7 2 -296 15 -739 3 -98 16 -127 52 -122 33 5 42 70
27 197 -7 58 -16 212 -21 341 -9 242 -22 322 -52 328 -9 2 -18 -1 -21 -5z"/>
<path d="M360 2683 c-30 -2 -83 -5 -117 -9 -57 -5 -63 -8 -63 -29 l0 -23 248
-5 c320 -6 385 -23 491 -131 l54 -55 -18 -63 c-39 -141 -25 -334 30 -399 31
-38 31 -63 1 -181 -14 -51 -28 -115 -32 -143 -3 -27 -11 -56 -16 -62 -15 -18
-2 -43 21 -43 78 0 111 288 61 528 -14 70 -8 288 9 305 5 5 20 1 38 -12 49
-36 79 -37 111 -4 34 34 77 152 67 185 -15 47 -80 98 -126 98 -21 0 -76 -51
-110 -101 l-16 -23 -36 29 c-98 81 -131 98 -242 121 -66 14 -233 22 -355 17z
m791 -160 c13 -34 1 -92 -23 -107 -13 -8 -23 -5 -43 14 -31 29 -32 52 -3 90
27 38 55 39 69 3z"/>
<path d="M2144 2625 c-7 -48 2 -223 16 -315 5 -35 4 -81 -3 -125 l-12 -70 -51
-16 c-83 -27 -154 -78 -154 -111 0 -24 7 -23 97 16 108 47 119 48 116 12 -3
-43 -23 -57 -92 -65 -71 -8 -91 -22 -71 -46 11 -13 30 -16 99 -14 l86 3 3 -54
c6 -123 5 -257 -2 -295 -7 -35 -5 -43 18 -64 27 -25 52 -23 63 6 3 10 17 31
30 46 13 16 23 41 23 57 0 49 29 170 71 298 33 100 39 134 37 185 l-3 62 -14
-43 c-8 -23 -20 -47 -28 -53 -7 -6 -13 -19 -13 -28 0 -9 -6 -23 -12 -29 -10
-10 -16 -8 -29 10 -15 19 -19 20 -33 8 -23 -18 -39 -1 -34 36 3 25 8 30 43 34
52 7 65 16 65 44 0 37 -23 49 -80 41 l-50 -7 0 66 c0 36 -11 136 -25 223 -14
87 -28 175 -31 196 -8 50 -21 47 -30 -8z m166 -733 c0 -21 -43 -132 -51 -132
-5 0 -9 32 -9 70 l0 70 30 0 c17 0 30 -4 30 -8z"/>
<path d="M449 2358 c0 -2 -2 -14 -4 -28 -2 -14 -15 -65 -29 -115 -34 -118 -34
-152 -1 -167 21 -9 29 -8 48 9 32 30 160 103 179 103 26 0 30 -17 12 -52 -22
-43 -80 -127 -105 -152 -31 -31 -99 -123 -99 -132 0 -5 -23 -29 -51 -53 -56
-48 -59 -70 -14 -83 43 -12 349 -33 368 -25 10 4 17 15 17 25 0 39 -24 45
-181 45 -84 0 -152 4 -155 9 -7 12 55 78 72 78 7 0 25 17 41 38 15 20 50 64
78 97 65 76 115 159 122 200 4 26 0 36 -23 54 -36 28 -72 23 -167 -23 -37 -18
-70 -30 -72 -25 -3 4 0 40 6 80 12 77 3 119 -26 119 -8 0 -15 -1 -16 -2z"/>
<path d="M1192 2217 c-34 -41 -61 -305 -41 -413 11 -60 62 -114 108 -114 37 0
143 70 159 105 15 31 67 55 122 55 51 0 84 17 133 68 35 36 37 42 26 60 -12
19 -10 24 11 47 l23 25 -23 25 c-43 46 -150 28 -217 -37 -31 -30 -33 -37 -33
-98 0 -57 -3 -70 -23 -88 -13 -12 -33 -22 -45 -22 -11 0 -23 -4 -26 -9 -3 -5
-18 -12 -33 -16 -16 -3 -38 -16 -51 -28 -21 -20 -23 -20 -40 -4 -15 16 -17 38
-16 180 2 183 10 223 42 220 16 -2 22 3 22 17 0 34 -75 56 -98 27z m463 -206
c0 -15 -13 -34 -35 -52 -36 -29 -100 -42 -107 -23 -6 17 41 69 79 88 43 21 63
17 63 -13z"/>
<path d="M1690 1750 c-14 -5 -50 -15 -80 -23 -30 -9 -91 -25 -135 -38 -146
-40 -297 -131 -268 -160 8 -8 34 -2 95 24 109 47 148 59 303 97 147 36 165 44
165 68 0 37 -29 49 -80 32z"/>
<path d="M1728 1628 c-19 -29 -46 -71 -60 -93 -58 -91 -151 -185 -184 -185 -6
0 -14 9 -17 20 -3 10 -22 27 -43 36 -65 28 -217 103 -256 127 -29 17 -40 19
-49 10 -9 -9 -2 -25 35 -67 53 -62 124 -101 239 -131 37 -10 67 -20 67 -23 0
-3 -7 -13 -16 -23 -14 -15 -12 -19 22 -39 l36 -23 44 21 c24 12 44 27 44 33 0
7 14 30 30 53 112 152 162 240 164 290 2 57 -17 55 -56 -6z"/>
<path d="M385 1472 c-65 -4 -76 -16 -34 -37 32 -17 112 -34 259 -56 41 -6 82
-15 92 -20 28 -15 60 7 56 39 -2 22 -10 28 -38 34 -19 4 -64 14 -100 22 -74
16 -161 23 -235 18z"/>
<path d="M180 455 c0 -19 1 -35 3 -35 1 0 67 -5 147 -10 80 -5 273 -18 430
-29 448 -32 903 -59 1180 -70 140 -6 306 -14 368 -17 l112 -5 0 35 0 36 -67 2
c-38 0 -74 1 -81 1 -92 -4 -1256 61 -1310 73 -23 5 -192 16 -497 34 -93 5
-196 12 -227 15 l-58 6 0 -36z"/>
</g>
</svg>
