<?xml version="1.0" standalone="no"?>
<!DOCTYPE svg PUBLIC "-//W3C//DTD SVG 20010904//EN"
 "http://www.w3.org/TR/2001/REC-SVG-20010904/DTD/svg10.dtd">
<svg version="1.0" xmlns="http://www.w3.org/2000/svg"
 width="281.000000pt" height="292.000000pt" viewBox="0 0 281.000000 292.000000"
 preserveAspectRatio="xMidYMid meet">
<metadata>
Created by potrace 1.16, written by Peter Selinger 2001-2019
</metadata>
<g transform="translate(0.000000,292.000000) scale(0.100000,-0.100000)"
fill="#000000" stroke="none">
<path d="M1726 1718 c-6 -19 -25 -319 -26 -417 -1 -46 4 -127 10 -180 l12 -95
-29 -23 c-15 -13 -34 -23 -40 -23 -7 0 -28 30 -45 67 -28 57 -38 69 -66 77
-25 7 -36 5 -50 -8 -10 -9 -22 -16 -26 -16 -10 0 1 63 26 160 30 115 49 250
37 272 -10 18 -30 24 -42 11 -4 -3 -2 -12 4 -20 15 -17 5 -69 -60 -317 -17
-66 -31 -129 -31 -140 0 -46 -49 -146 -70 -146 -5 0 -16 16 -24 35 -8 19 -19
35 -24 35 -14 0 -42 -35 -42 -52 0 -18 52 -66 87 -79 26 -10 30 -35 9 -58 -21
-25 -30 -105 -13 -120 28 -23 55 17 73 109 9 47 24 94 34 105 10 11 34 52 54
92 19 39 40 74 45 77 11 7 24 -10 41 -54 20 -53 39 -70 77 -70 27 0 35 5 43
26 15 39 34 24 43 -35 6 -38 15 -56 33 -67 31 -21 30 -27 -5 -77 -15 -23 -35
-54 -45 -69 -9 -15 -41 -46 -71 -68 -30 -22 -55 -47 -55 -55 0 -19 34 -20 49
-1 6 7 39 26 74 42 50 23 81 29 162 34 93 5 100 6 103 27 6 42 -60 52 -165 26
-31 -7 -29 5 14 84 50 91 79 159 114 273 16 52 38 118 49 145 11 28 24 68 30
91 5 23 26 62 45 87 43 56 46 93 9 108 -30 11 -70 -9 -81 -39 -3 -9 -14 -26
-23 -37 -10 -11 -46 -74 -80 -140 -75 -145 -99 -180 -112 -167 -6 6 -13 132
-17 303 -4 220 -9 293 -18 297 -7 2 -15 -2 -17 -10z m244 -418 c0 -11 -7 -20
-15 -20 -15 0 -21 21 -8 33 12 13 23 7 23 -13z m-52 -132 c-13 -45 -18 -53
-39 -53 -20 0 -24 -6 -31 -44 -8 -48 -34 -95 -47 -86 -5 2 -12 21 -16 41 -5
30 -2 41 17 63 33 36 78 98 78 107 0 4 8 16 17 26 28 31 38 6 21 -54z m-78
-232 c0 -20 -26 -40 -35 -26 -10 16 2 40 20 40 8 0 15 -6 15 -14z"/>
<path d="M1159 1681 c-56 -18 -255 -184 -243 -202 7 -13 41 7 95 55 88 78 164
114 214 102 32 -8 96 -105 121 -179 18 -56 53 -102 66 -89 13 13 -10 109 -42
177 -44 93 -86 134 -140 140 -25 2 -57 0 -71 -4z"/>
<path d="M225 1520 c-3 -5 -15 -10 -26 -10 -14 0 -19 -7 -19 -30 l0 -29 30 17
c50 29 55 14 58 -194 2 -162 5 -191 22 -224 11 -22 20 -46 20 -55 0 -28 55
-75 89 -75 16 0 32 -3 34 -8 3 -4 -46 -54 -109 -111 -63 -57 -114 -110 -114
-117 0 -7 10 -18 21 -25 30 -15 62 3 103 60 18 25 57 73 87 106 133 146 144
191 39 164 -45 -11 -51 -11 -70 6 -39 35 -57 129 -64 347 -5 118 -9 142 -34
171 -16 19 -57 23 -67 7z"/>
<path d="M181 1300 c0 -33 1 -34 11 -12 8 17 8 26 0 34 -9 9 -12 4 -11 -22z"/>
</g>
</svg>
