<?xml version="1.0" standalone="no"?>
<!DOCTYPE svg PUBLIC "-//W3C//DTD SVG 20010904//EN"
 "http://www.w3.org/TR/2001/REC-SVG-20010904/DTD/svg10.dtd">
<svg version="1.0" xmlns="http://www.w3.org/2000/svg"
 width="433.000000pt" height="372.000000pt" viewBox="0 0 433.000000 372.000000"
 preserveAspectRatio="xMidYMid meet">
<metadata>
Created by potrace 1.16, written by Peter Selinger 2001-2019
</metadata>
<g transform="translate(0.000000,372.000000) scale(0.100000,-0.100000)"
fill="#000000" stroke="none">
<path d="M2517 2759 c-33 -25 -52 -60 -78 -142 -30 -97 -26 -91 -54 -73 -13 9
-33 16 -44 16 -29 0 -86 -36 -114 -73 -62 -81 -83 -160 -92 -342 -5 -101 -3
-112 15 -134 11 -13 24 -21 28 -17 4 4 8 71 8 149 2 197 33 288 117 351 95 70
85 -123 -23 -459 -39 -119 -70 -233 -70 -254 0 -6 9 -20 20 -31 38 -38 119
-18 179 44 35 37 55 44 66 26 3 -6 17 -49 31 -96 27 -94 27 -124 -3 -284 -22
-121 -27 -132 -60 -128 -36 4 -41 -19 -13 -55 13 -17 31 -27 47 -27 14 0 53
-7 86 -16 71 -18 164 -12 135 10 -9 6 -49 22 -89 35 -100 32 -108 40 -85 87
25 54 66 236 66 296 0 66 -29 163 -64 214 -30 44 -33 66 -11 84 8 7 12 17 8
23 -4 6 -11 3 -19 -8 -22 -29 -40 -11 -70 72 -24 64 -29 92 -28 159 2 84 24
200 49 262 8 19 15 46 15 61 0 29 22 108 41 143 6 13 25 35 41 51 53 49 21
101 -35 56z m-137 -764 c13 -38 30 -81 39 -94 14 -22 13 -25 -20 -52 -48 -41
-88 -62 -106 -54 -26 9 -11 104 43 274 7 22 18 3 44 -74z"/>
<path d="M1072 2673 c-4 -10 -19 -39 -35 -64 -17 -28 -30 -69 -35 -105 l-7
-59 -105 -53 c-58 -29 -107 -57 -108 -63 -7 -18 20 -39 49 -39 18 0 47 14 75
35 61 47 77 43 85 -20 8 -66 16 -83 50 -101 22 -11 28 -20 25 -37 -13 -64 -16
-97 -8 -97 17 0 100 248 118 355 8 51 19 64 69 86 44 19 194 42 240 37 24 -2
30 1 30 17 0 15 -9 21 -38 26 -44 7 -204 -13 -235 -30 -31 -16 -42 -6 -35 32
3 23 0 37 -11 46 -23 19 -32 7 -45 -59 -12 -62 -28 -80 -71 -80 -21 0 -21 16
0 80 22 66 15 148 -8 93z m46 -252 c4 -26 -26 -161 -39 -175 -5 -5 -15 -3 -25
5 -26 21 -15 141 17 175 27 28 43 27 47 -5z"/>
<path d="M2030 2606 c-27 -73 -102 -241 -175 -396 -74 -156 -119 -267 -155
-383 -9 -29 -9 -41 0 -52 16 -19 30 -10 30 18 0 12 7 40 14 63 14 38 230 480
262 534 9 14 24 45 35 70 11 25 30 66 41 92 17 39 19 50 8 63 -19 23 -49 18
-60 -9z"/>
<path d="M3100 2321 l-75 -17 -3 -37 c-4 -43 9 -47 56 -20 60 35 92 -6 92
-119 0 -47 -48 -181 -110 -303 -50 -100 -49 -135 1 -74 30 37 126 208 153 274
17 41 24 164 12 203 -12 38 4 46 35 16 41 -39 53 -85 53 -204 0 -120 -14 -178
-75 -307 -40 -84 -45 -103 -31 -103 10 0 82 108 112 168 53 107 75 291 48 400
-21 87 -86 144 -160 141 -18 -1 -67 -9 -108 -18z"/>
<path d="M183 2105 c2 -93 11 -249 20 -345 9 -96 21 -272 27 -390 8 -162 14
-218 25 -229 12 -13 15 -12 21 3 6 16 -3 584 -11 716 -8 127 -60 388 -81 410
-3 3 -4 -71 -1 -165z"/>
<path d="M1327 2180 c-42 -37 -89 -123 -117 -218 -18 -58 -21 -90 -18 -149 3
-42 1 -91 -5 -110 -8 -27 -8 -37 5 -49 13 -13 24 -13 81 -3 46 9 67 17 67 27
0 10 -6 12 -17 7 -42 -17 -52 -16 -63 5 -15 29 -6 36 58 44 l52 7 0 -56 c0
-30 -8 -81 -19 -112 -45 -140 -74 -261 -79 -330 -3 -53 -1 -64 14 -70 22 -8
43 20 51 69 3 21 9 38 12 38 4 0 13 -21 20 -47 14 -56 45 -93 76 -93 49 0 187
275 188 377 1 61 -20 97 -75 128 -31 17 -40 17 -61 6 -36 -19 -61 -11 -65 22
-4 36 25 83 84 131 45 38 46 40 40 84 -12 89 -45 95 -84 15 -15 -32 -32 -56
-37 -53 -6 3 -9 37 -7 78 2 59 0 74 -13 79 -28 10 -39 -15 -45 -99 l-5 -81
-54 -14 c-77 -19 -84 -14 -76 50 11 89 53 191 97 237 22 23 47 40 56 38 9 -2
28 -23 41 -47 l24 -44 28 34 c16 19 29 38 29 43 0 4 -17 26 -39 47 -50 50 -94
53 -144 9z m230 -596 c23 -23 25 -31 21 -92 -4 -63 -20 -111 -81 -232 -18 -36
-54 -38 -67 -4 -9 22 -5 44 16 111 20 63 24 87 15 96 -8 8 -20 2 -46 -23 -28
-27 -36 -30 -40 -18 -8 21 30 94 55 108 11 6 20 19 20 30 0 18 40 47 68 49 7
1 24 -11 39 -25z"/>
<path d="M944 1868 c-13 -25 -15 -47 -10 -101 8 -83 25 -127 61 -155 33 -26
52 -19 32 11 -20 33 -37 125 -35 193 2 89 -18 111 -48 52z"/>
<path d="M1900 1750 c0 -5 5 -10 10 -10 6 0 10 5 10 10 0 6 -4 10 -10 10 -5 0
-10 -4 -10 -10z"/>
<path d="M1910 1653 c0 -73 31 -214 55 -248 48 -68 49 -69 84 -51 36 19 36 39
0 44 -37 6 -45 17 -58 79 -7 32 -17 74 -22 94 -5 20 -9 46 -9 57 0 26 -30 92
-42 92 -4 0 -8 -30 -8 -67z"/>
<path d="M3689 1383 c-1 -4 0 -51 1 -103 1 -52 -4 -117 -10 -143 -7 -26 -9
-51 -5 -55 9 -9 45 35 45 55 0 8 11 37 24 63 22 43 24 57 18 117 -7 68 -7 68
-39 71 -18 2 -34 0 -34 -5z"/>
<path d="M992 1261 c-12 -62 -12 -72 4 -96 9 -14 26 -31 37 -37 18 -9 25 -6
49 22 39 47 62 100 50 112 -7 7 -19 -3 -37 -32 -38 -61 -53 -48 -70 63 -3 20
-9 37 -13 37 -4 0 -13 -31 -20 -69z"/>
<path d="M4125 256 c-19 -14 -19 -16 -3 -32 21 -22 31 -14 26 21 -3 24 -4 25
-23 11z"/>
</g>
</svg>
