<?xml version="1.0" standalone="no"?>
<!DOCTYPE svg PUBLIC "-//W3C//DTD SVG 20010904//EN"
 "http://www.w3.org/TR/2001/REC-SVG-20010904/DTD/svg10.dtd">
<svg version="1.0" xmlns="http://www.w3.org/2000/svg"
 width="275.000000pt" height="319.000000pt" viewBox="0 0 275.000000 319.000000"
 preserveAspectRatio="xMidYMid meet">
<metadata>
Created by potrace 1.16, written by Peter Selinger 2001-2019
</metadata>
<g transform="translate(0.000000,319.000000) scale(0.100000,-0.100000)"
fill="#000000" stroke="none">
<path d="M250 2971 c0 -72 67 -120 148 -106 61 10 141 61 158 100 18 45 19 45
-14 45 -21 0 -32 -7 -40 -24 -8 -19 -22 -26 -58 -32 -53 -8 -77 2 -82 35 -3
18 -10 21 -58 21 l-54 0 0 -39z"/>
<path d="M946 2553 c-3 -3 -6 -23 -6 -44 0 -54 67 -250 90 -264 5 -3 10 -17
10 -30 0 -25 -25 -45 -56 -45 -21 0 -135 -54 -183 -87 -19 -13 -42 -23 -51
-23 -25 0 -70 -38 -70 -59 0 -9 13 -30 29 -45 l30 -28 38 38 c38 38 178 124
202 124 6 0 30 9 53 21 22 11 44 17 49 12 4 -4 9 -28 11 -53 2 -25 8 -45 13
-45 6 0 20 24 31 54 20 49 26 55 80 78 87 36 94 38 94 19 0 -9 -16 -47 -35
-85 -30 -61 -43 -75 -112 -122 -43 -29 -118 -74 -168 -99 -83 -42 -90 -48 -90
-76 0 -22 5 -30 23 -32 22 -3 31 -35 12 -47 -12 -7 -45 -116 -67 -222 -9 -46
-21 -83 -25 -83 -10 0 -27 33 -43 88 -17 55 -4 127 26 143 21 11 26 49 6 49
-39 0 -102 -103 -157 -255 -14 -38 -24 -51 -42 -53 -12 -2 -36 -16 -53 -32
-16 -15 -43 -32 -60 -37 -20 -6 -30 -16 -30 -29 0 -46 132 -16 200 46 11 10
32 22 48 25 26 7 27 6 27 -36 0 -24 -9 -87 -21 -139 -33 -158 -50 -282 -43
-326 4 -27 2 -44 -5 -49 -7 -4 -57 24 -115 63 -104 71 -184 113 -311 163 l-70
28 2 48 c2 26 4 107 5 178 3 111 0 134 -15 155 -17 24 -17 17 -15 -210 l3
-235 96 -41 c52 -22 134 -65 183 -95 48 -30 102 -63 119 -73 18 -10 60 -37 94
-58 34 -22 85 -48 115 -59 29 -11 71 -28 93 -38 79 -36 215 -63 215 -42 0 5
-29 30 -65 56 -58 41 -66 51 -79 98 -9 31 -17 128 -21 237 -4 102 -8 222 -10
267 -4 92 16 262 40 337 8 27 27 69 41 93 26 45 25 83 -2 83 -27 0 -14 17 36
44 27 15 52 31 55 36 3 5 38 28 78 51 40 23 86 54 102 70 17 15 50 41 75 58
35 23 48 27 56 18 7 -7 24 -61 39 -122 15 -60 32 -129 38 -152 13 -52 1 -82
-39 -103 -38 -19 -204 -142 -228 -169 -10 -11 -16 -27 -12 -36 11 -31 67 -2
199 105 88 70 91 70 121 -8 26 -69 22 -85 -35 -128 -30 -23 -60 -58 -74 -84
-23 -45 -64 -91 -66 -74 -1 5 0 21 1 37 3 50 -18 28 -70 -75 -89 -177 -143
-317 -143 -373 0 -83 50 -161 121 -189 41 -16 44 -15 85 6 23 12 53 27 67 34
28 13 138 163 176 242 38 75 43 72 64 -43 25 -143 103 -321 159 -364 28 -21
44 -26 85 -24 56 1 78 21 115 98 27 59 49 219 31 230 -15 10 -28 -21 -48 -122
-45 -227 -126 -217 -220 27 -42 110 -50 137 -61 220 -6 41 -16 93 -24 115 -8
22 -22 95 -32 162 l-17 121 28 64 c15 34 39 74 54 88 15 14 34 37 44 53 23 38
40 34 73 -15 35 -52 73 -64 73 -23 0 31 -40 113 -66 136 -43 38 -63 34 -112
-19 -46 -50 -72 -90 -91 -144 -17 -46 -27 -32 -38 50 -15 101 -56 292 -87 400
-46 162 -46 161 43 183 49 12 54 12 67 -6 8 -11 14 -44 14 -82 0 -48 3 -63 14
-63 8 0 17 8 20 18 10 35 28 271 22 287 -3 10 -15 15 -28 13 -20 -3 -23 -9
-23 -50 0 -52 -8 -66 -29 -49 -18 15 -60 5 -106 -26 -19 -12 -40 -23 -46 -23
-12 0 -54 63 -54 79 0 5 25 21 56 37 62 31 71 41 55 57 -13 13 -75 -4 -143
-39 -85 -43 -181 -75 -192 -64 -11 11 -3 45 34 143 28 75 16 89 -32 39 -28
-28 -40 -52 -50 -97 -9 -38 -18 -60 -27 -60 -15 0 -90 183 -91 220 0 37 -56
95 -74 78z m608 -1195 c-7 -42 -10 -50 -87 -248 -99 -254 -112 -299 -94 -317
13 -14 17 -13 28 8 13 23 44 99 69 169 33 93 86 213 98 223 36 29 43 -72 12
-164 -12 -34 -43 -94 -70 -133 -49 -72 -139 -166 -159 -166 -21 0 -30 36 -19
76 5 21 13 62 17 89 4 28 14 61 23 75 9 14 21 51 27 83 6 32 17 78 26 104 14
41 14 47 0 63 -8 9 -15 26 -15 38 0 24 32 62 53 62 6 0 25 16 40 35 36 46 59
47 51 3z m-703 -108 c4 -212 25 -466 45 -532 12 -40 -92 2 -123 49 -29 43 -23
173 15 323 17 69 34 151 38 183 4 31 11 57 15 57 5 0 10 -36 10 -80z m449
-263 c0 -1 -7 -34 -15 -72 -8 -39 -15 -91 -15 -117 0 -57 -10 -65 -41 -32 -18
19 -24 39 -27 89 -5 68 6 95 37 95 9 0 22 9 29 20 10 16 32 28 32 17z"/>
</g>
</svg>
