<?xml version="1.0" standalone="no"?>
<!DOCTYPE svg PUBLIC "-//W3C//DTD SVG 20010904//EN"
 "http://www.w3.org/TR/2001/REC-SVG-20010904/DTD/svg10.dtd">
<svg version="1.0" xmlns="http://www.w3.org/2000/svg"
 width="276.000000pt" height="377.000000pt" viewBox="0 0 276.000000 377.000000"
 preserveAspectRatio="xMidYMid meet">
<metadata>
Created by potrace 1.16, written by Peter Selinger 2001-2019
</metadata>
<g transform="translate(0.000000,377.000000) scale(0.100000,-0.100000)"
fill="#000000" stroke="none">
<path d="M1360 2914 c-170 -56 -333 -94 -442 -103 -59 -5 -112 -12 -117 -16
-19 -11 -12 -44 11 -56 27 -15 175 -5 247 17 28 8 56 12 61 9 16 -10 12 -138
-4 -161 -12 -15 -17 -17 -27 -6 -10 9 -11 19 -2 42 6 17 7 32 2 35 -18 12 -45
-15 -62 -64 -20 -57 -61 -91 -135 -110 -59 -16 -105 -57 -97 -88 4 -16 1 -25
-10 -29 -8 -4 -15 -13 -15 -21 0 -11 5 -13 18 -8 9 4 26 10 37 12 11 3 31 16
45 28 35 32 111 68 120 58 14 -14 40 -117 33 -124 -5 -5 -39 -9 -77 -11 -52
-2 -72 -7 -80 -20 -8 -14 -7 -22 7 -35 15 -15 34 -18 122 -16 63 1 122 8 150
17 25 9 57 16 70 16 13 0 47 14 76 31 31 18 55 27 61 21 6 -6 -5 -35 -27 -75
-35 -64 -38 -87 -11 -87 18 0 114 123 137 178 15 33 19 61 16 95 -8 89 -60
131 -184 150 l-78 12 1 84 c1 75 4 87 24 103 12 10 28 18 36 18 8 0 38 12 67
26 28 15 68 29 87 33 26 5 35 11 35 26 0 16 -7 20 -40 22 -22 1 -47 0 -55 -3z
m-10 -412 c33 -24 56 -70 42 -84 -22 -22 -209 -81 -229 -73 -24 8 -15 94 13
143 l26 45 62 -7 c35 -3 72 -14 86 -24z m-259 -92 c-8 -110 -27 -106 -22 5 3
83 8 103 21 88 4 -4 4 -46 1 -93z"/>
<path d="M350 2726 c-19 -7 -65 -19 -102 -26 l-68 -12 0 -39 c0 -22 3 -39 8
-39 24 0 195 52 223 68 44 24 46 56 4 59 -16 1 -46 -4 -65 -11z"/>
<path d="M2264 2685 c-7 -16 -2 -60 16 -177 7 -42 10 -82 8 -90 -3 -7 -30 -21
-59 -32 -54 -18 -109 -59 -109 -82 0 -6 6 -17 14 -24 16 -13 65 5 119 44 17
12 31 16 37 10 5 -5 14 -43 20 -84 6 -41 12 -87 15 -102 4 -23 -10 -44 -85
-130 -60 -69 -105 -134 -139 -198 -48 -93 -49 -96 -38 -140 16 -63 38 -92 101
-140 43 -32 68 -43 113 -50 81 -11 104 1 125 68 20 62 28 243 16 347 -4 39
-10 99 -14 134 l-6 63 91 91 c63 63 91 98 91 114 0 23 -3 22 -62 -23 -35 -26
-75 -58 -90 -72 -14 -13 -31 -21 -37 -18 -15 10 -14 135 2 165 7 15 32 32 67
45 87 34 120 55 120 76 0 26 -3 26 -115 -14 -52 -19 -97 -30 -100 -26 -3 5 -8
60 -11 122 -5 85 -10 116 -22 126 -22 17 -61 15 -68 -3z m81 -707 c3 -13 4
-111 3 -218 l-3 -195 -27 -3 c-36 -4 -117 40 -152 84 -24 31 -28 42 -23 79 4
23 22 66 41 96 40 63 136 179 148 179 4 0 10 -10 13 -22z"/>
<path d="M1226 2142 c-9 -17 -29 -40 -46 -52 -35 -25 -60 -68 -60 -103 0 -30
-38 -64 -170 -157 -177 -124 -196 -150 -140 -190 35 -25 45 -21 53 20 4 19 16
34 32 42 13 6 32 22 40 35 21 31 132 113 155 113 13 0 19 -11 24 -42 8 -46 73
-172 118 -228 15 -19 28 -38 28 -42 0 -15 -82 -49 -141 -60 -37 -6 -58 -15
-56 -22 7 -20 115 -19 183 3 35 12 68 21 73 21 5 0 43 -26 83 -57 65 -52 124
-91 210 -142 20 -12 30 -13 38 -5 18 18 -3 48 -68 96 -123 90 -182 142 -182
161 0 11 11 39 25 63 20 34 23 48 15 68 -5 14 -14 26 -20 26 -18 0 -80 -51
-80 -66 0 -24 -25 -16 -57 19 -61 62 -117 223 -96 270 12 24 80 62 190 104 40
15 74 33 75 38 6 21 -51 15 -124 -14 -100 -41 -124 -43 -121 -13 3 24 26 77
45 104 9 13 10 20 1 29 -8 8 -15 4 -27 -19z"/>
<path d="M180 2007 c0 -74 3 -86 23 -105 44 -41 98 -20 58 22 -11 12 -24 37
-27 56 -7 35 -40 110 -49 110 -3 0 -5 -37 -5 -83z"/>
<path d="M2566 1794 c-8 -61 -6 -231 4 -269 4 -18 8 41 9 143 0 94 -1 172 -3
172 -2 0 -6 -21 -10 -46z"/>
</g>
</svg>
