<?xml version="1.0" standalone="no"?>
<!DOCTYPE svg PUBLIC "-//W3C//DTD SVG 20010904//EN"
 "http://www.w3.org/TR/2001/REC-SVG-20010904/DTD/svg10.dtd">
<svg version="1.0" xmlns="http://www.w3.org/2000/svg"
 width="215.000000pt" height="265.000000pt" viewBox="0 0 215.000000 265.000000"
 preserveAspectRatio="xMidYMid meet">
<metadata>
Created by potrace 1.16, written by Peter Selinger 2001-2019
</metadata>
<g transform="translate(0.000000,265.000000) scale(0.100000,-0.100000)"
fill="#000000" stroke="none">
<path d="M1229 2314 l-34 -35 -2 -201 c-1 -119 -6 -205 -12 -211 -14 -14 -102
-45 -205 -72 -70 -19 -95 -30 -112 -52 -30 -36 -30 -51 1 -63 19 -7 38 -3 87
20 35 17 71 30 80 30 10 0 41 9 69 20 65 26 75 18 60 -50 -6 -28 -11 -68 -11
-89 0 -42 -10 -55 -53 -65 -53 -13 -90 -124 -52 -156 16 -13 35 -6 35 14 0 16
24 37 77 66 41 23 43 23 63 5 15 -14 20 -31 20 -72 0 -64 -25 -183 -45 -209
-13 -18 -16 -17 -52 17 -70 66 -108 89 -147 89 l-38 0 7 42 c4 23 8 99 8 170
2 144 -8 170 -41 116 -16 -26 -23 -63 -32 -178 -6 -80 -13 -151 -15 -157 -5
-16 -47 -16 -100 -2 -56 15 -76 36 -68 68 9 40 22 51 59 51 45 0 50 15 19 55
-60 79 -155 14 -155 -105 0 -81 97 -145 200 -133 l50 6 0 -205 c0 -173 2 -208
15 -218 11 -9 19 -10 26 -3 14 14 28 173 29 321 0 113 1 122 19 122 20 0 145
-127 163 -164 8 -18 6 -32 -10 -62 -10 -21 -25 -57 -32 -79 -7 -22 -21 -52
-31 -66 -10 -14 -19 -38 -21 -55 -2 -23 1 -29 16 -29 13 0 29 19 51 60 75 141
86 151 109 110 26 -45 144 -195 200 -256 63 -66 173 -149 199 -149 33 0 21 19
-73 117 -97 100 -153 170 -254 320 -55 81 -55 77 -7 215 22 64 31 109 33 170
3 105 -10 135 -74 167 -56 27 -58 35 -23 127 14 36 25 79 25 94 0 15 6 32 13
38 24 19 149 34 217 25 l65 -8 3 -38 c4 -46 -22 -128 -47 -151 -30 -27 -56
-95 -43 -108 9 -9 22 -2 56 31 48 47 88 120 108 193 10 42 10 51 -8 83 -36 68
-115 87 -252 61 -90 -17 -106 -15 -97 15 7 21 10 428 3 434 -2 3 -20 -11 -39
-31z"/>
<path d="M776 2282 c-3 -4 0 -28 6 -53 5 -25 7 -75 3 -114 -12 -125 -11 -150
5 -150 26 0 69 121 70 197 0 57 -4 71 -26 97 -25 30 -48 39 -58 23z"/>
<path d="M1945 2098 c-2 -7 -6 -64 -8 -126 -5 -121 5 -251 22 -280 7 -12 10
48 11 201 0 142 -4 217 -10 217 -6 0 -12 -6 -15 -12z"/>
<path d="M513 1850 c-30 -12 -29 -23 5 -61 24 -27 37 -33 86 -37 31 -2 59 -8
62 -13 12 -19 -120 -189 -269 -345 -86 -91 -110 -122 -102 -134 11 -17 23 -11
70 34 25 24 76 70 112 102 37 33 96 90 132 127 71 73 184 241 179 266 -5 26
-50 41 -123 41 -41 1 -80 7 -95 15 -29 17 -28 17 -57 5z"/>
<path d="M496 1342 c-28 -46 -22 -510 8 -540 20 -20 31 -10 45 40 17 62 9 433
-10 473 -15 30 -33 42 -43 27z"/>
<path d="M1886 1205 c-72 -25 -74 -56 -6 -76 61 -18 90 -2 90 51 0 35 -3 40
-22 40 -13 -1 -40 -7 -62 -15z"/>
<path d="M1937 563 c-9 -8 -9 -68 -1 -76 16 -15 34 8 34 44 0 37 -15 51 -33
32z"/>
</g>
</svg>
