<?xml version="1.0" standalone="no"?>
<!DOCTYPE svg PUBLIC "-//W3C//DTD SVG 20010904//EN"
 "http://www.w3.org/TR/2001/REC-SVG-20010904/DTD/svg10.dtd">
<svg version="1.0" xmlns="http://www.w3.org/2000/svg"
 width="249.000000pt" height="375.000000pt" viewBox="0 0 249.000000 375.000000"
 preserveAspectRatio="xMidYMid meet">
<metadata>
Created by potrace 1.16, written by Peter Selinger 2001-2019
</metadata>
<g transform="translate(0.000000,375.000000) scale(0.100000,-0.100000)"
fill="#000000" stroke="none">
<path d="M180 3377 c0 -35 1 -36 43 -41 23 -3 101 -8 172 -11 72 -3 162 -10
200 -15 39 -5 113 -12 165 -15 81 -4 226 -17 335 -30 17 -2 89 -7 160 -10 72
-4 140 -11 153 -16 13 -5 54 -9 91 -9 37 0 72 -5 77 -10 8 -8 19 -8 38 0 15 5
32 8 37 4 5 -3 49 -7 97 -10 48 -2 150 -11 227 -19 77 -8 184 -16 238 -18 l97
-3 0 33 c0 21 -5 33 -13 33 -35 0 -415 41 -437 47 -14 4 -61 8 -105 9 -143 5
-280 14 -295 21 -8 3 -44 7 -80 9 -36 2 -130 8 -210 14 -80 6 -244 17 -365 25
-121 8 -282 19 -357 24 -76 5 -167 13 -203 16 l-65 7 0 -35z"/>
<path d="M2043 2758 c-28 -36 -52 -186 -54 -336 -2 -148 0 -145 -97 -159 -107
-15 -158 -39 -154 -73 5 -45 24 -54 68 -31 21 11 64 23 95 27 49 6 58 4 67
-12 9 -17 2 -230 -13 -414 -2 -30 -7 -163 -10 -295 -6 -238 -6 -240 17 -285
26 -50 56 -62 49 -20 -9 56 -5 333 6 460 7 74 17 230 23 345 7 116 15 217 20
225 6 12 25 14 91 12 94 -4 142 8 137 36 -3 14 -24 20 -113 32 l-110 16 -3 79
c-2 44 1 109 7 145 6 36 13 86 16 112 4 30 16 59 31 77 l25 30 -23 14 c-36 23
-64 29 -75 15z"/>
<path d="M180 2382 c0 -39 1 -40 42 -47 60 -11 229 -8 241 4 6 6 -2 15 -24 26
-28 15 -72 25 -221 51 l-38 7 0 -41z"/>
<path d="M1055 2236 c-34 -15 -133 -156 -209 -297 -35 -66 -46 -96 -46 -131 0
-41 -4 -49 -50 -91 -27 -25 -50 -52 -50 -60 0 -29 41 -67 71 -67 36 0 38 13 4
28 -14 6 -25 18 -25 25 0 8 57 57 128 110 130 98 242 205 242 232 0 21 -13 19
-35 -5 -9 -10 -34 -25 -54 -31 -21 -7 -60 -37 -93 -71 -49 -50 -78 -70 -78
-54 0 17 44 102 74 142 20 27 51 69 68 94 18 25 55 68 81 97 68 72 53 115 -28
79z"/>
<path d="M180 2102 l0 -32 68 -2 c94 -2 100 -3 108 -11 9 -9 -55 -77 -72 -77
-7 0 -33 -27 -58 -60 -40 -52 -46 -67 -46 -108 1 -43 2 -45 14 -27 8 11 26 34
40 50 45 50 106 132 106 141 0 5 23 29 51 53 81 69 61 86 -113 98 l-98 6 0
-31z"/>
<path d="M1349 2115 c-3 -2 -43 -9 -88 -14 -103 -11 -118 -23 -96 -74 17 -40
29 -45 59 -22 11 8 26 15 34 15 15 0 111 46 126 60 5 6 4 15 -4 25 -13 15 -23
19 -31 10z"/>
<path d="M1450 1932 c-8 -3 -33 -17 -55 -31 -52 -35 -132 -59 -225 -67 -105
-9 -130 -32 -65 -60 50 -21 113 -17 196 11 81 27 146 69 169 108 16 29 6 48
-20 39z"/>
<path d="M2075 1839 c-4 -5 11 -27 34 -48 23 -21 41 -43 41 -49 0 -18 67 -42
116 -42 42 0 44 1 44 31 0 28 -2 30 -28 24 -22 -4 -33 0 -52 21 -55 59 -137
92 -155 63z"/>
<path d="M331 1746 c-7 -8 -43 -33 -82 -56 -61 -36 -69 -45 -69 -70 0 -17 2
-30 5 -30 3 0 30 13 60 29 30 16 57 26 60 21 3 -5 0 -41 -6 -81 -8 -53 -8 -78
0 -96 14 -31 43 -27 47 7 1 14 14 66 28 115 31 110 33 151 7 165 -26 13 -36
13 -50 -4z"/>
<path d="M1365 1730 c-3 -11 -22 -43 -42 -71 l-36 -52 4 -161 4 -161 -30 0
c-40 0 -44 -27 -9 -60 34 -31 58 -32 89 -1 35 35 39 66 26 200 -15 159 -14
232 3 259 24 38 29 67 12 67 -8 0 -17 -9 -21 -20z"/>
<path d="M1780 1648 c-50 -25 -72 -66 -54 -96 18 -27 37 -25 90 11 27 19 61
37 77 41 28 7 38 26 13 26 -7 0 -25 9 -39 20 -31 25 -33 25 -87 -2z"/>
<path d="M835 1601 c-3 -6 -1 -28 4 -48 6 -21 11 -104 11 -184 0 -196 26 -279
86 -279 35 0 38 17 10 51 -17 20 -26 43 -27 67 0 20 0 98 0 173 0 108 -4 144
-17 169 -20 39 -57 67 -67 51z"/>
<path d="M397 1183 l-218 -3 3 -33 3 -32 155 2 c158 2 337 19 355 35 14 13 -5
26 -45 30 -19 2 -133 3 -253 1z"/>
</g>
</svg>
