<?xml version="1.0" standalone="no"?>
<!DOCTYPE svg PUBLIC "-//W3C//DTD SVG 20010904//EN"
 "http://www.w3.org/TR/2001/REC-SVG-20010904/DTD/svg10.dtd">
<svg version="1.0" xmlns="http://www.w3.org/2000/svg"
 width="204.000000pt" height="275.000000pt" viewBox="0 0 204.000000 275.000000"
 preserveAspectRatio="xMidYMid meet">
<metadata>
Created by potrace 1.16, written by Peter Selinger 2001-2019
</metadata>
<g transform="translate(0.000000,275.000000) scale(0.100000,-0.100000)"
fill="#000000" stroke="none">
<path d="M180 2548 c0 -20 1 -20 18 -5 28 25 52 22 52 -7 0 -17 -12 -34 -35
-52 -31 -23 -35 -32 -35 -72 l0 -45 51 53 c27 29 61 74 74 101 l23 49 -74 0
c-69 0 -74 -1 -74 -22z"/>
<path d="M913 2503 c4 -37 7 -85 7 -105 0 -29 8 -47 36 -78 20 -22 43 -40 51
-40 36 0 82 42 111 103 35 72 62 136 62 148 0 25 -23 0 -78 -86 -34 -52 -68
-95 -77 -95 -24 0 -38 41 -44 130 l-6 85 -34 3 -34 3 6 -68z"/>
<path d="M1242 2420 c4 -141 5 -151 28 -175 33 -35 55 -34 45 3 -4 15 -10 93
-12 175 l-4 147 -31 0 -30 0 4 -150z"/>
<path d="M1520 2545 c0 -48 39 -117 138 -245 20 -25 20 -25 57 -7 20 10 61 41
91 69 l54 51 0 78 0 79 -30 0 c-34 0 -39 -19 -18 -66 11 -24 10 -29 -18 -53
-16 -14 -38 -38 -47 -53 -11 -17 -26 -28 -40 -28 -25 0 -87 57 -87 80 0 8 -6
38 -12 67 -12 52 -13 53 -50 53 -34 0 -38 -3 -38 -25z"/>
<path d="M364 2412 c-50 -32 -113 -113 -131 -169 -15 -48 -15 -54 -1 -70 9
-10 19 -33 23 -50 9 -46 -17 -44 -50 4 l-25 38 0 -51 c0 -45 4 -54 38 -86 54
-53 75 -59 154 -39 71 17 107 43 132 95 8 18 29 49 46 70 33 43 39 97 17 170
-25 83 -135 130 -203 88z m117 -78 c19 -17 21 -27 17 -106 -4 -81 -7 -90 -34
-119 -36 -39 -70 -56 -114 -61 -35 -3 -35 -3 -34 37 1 22 11 73 22 114 12 41
18 87 15 102 -10 51 1 62 57 57 30 -3 59 -13 71 -24z"/>
<path d="M1798 1938 c-31 -62 -62 -130 -68 -150 -12 -39 -81 -139 -118 -172
-24 -21 -30 -88 -11 -116 9 -13 12 -13 22 3 35 54 35 54 58 25 11 -16 25 -28
31 -28 5 0 29 16 54 36 32 27 51 35 69 32 23 -5 25 -2 25 33 0 37 -2 39 -30
39 -19 0 -42 -11 -64 -31 -20 -17 -40 -27 -47 -24 -13 9 -4 48 19 84 10 14 22
33 27 43 6 9 29 44 53 78 l42 62 0 99 c0 55 -1 99 -3 99 -2 0 -28 -51 -59
-112z"/>
<path d="M787 1873 c-28 -27 -77 -197 -77 -263 0 -58 43 -65 88 -14 37 41 65
42 70 2 4 -36 -42 -143 -90 -205 -97 -127 -146 -294 -163 -564 -8 -113 -2
-139 36 -159 29 -16 46 1 54 53 3 23 13 62 20 87 9 29 15 113 17 230 l4 185
39 64 c37 60 96 111 128 111 7 0 28 -15 46 -34 l34 -35 -23 -88 c-12 -48 -30
-104 -40 -123 -10 -20 -21 -53 -25 -73 -8 -40 -21 -55 -36 -40 -5 5 -2 29 7
58 9 30 13 66 9 88 -4 29 -1 44 15 64 24 31 26 66 4 83 -12 11 -17 11 -29 -1
-23 -24 -45 -107 -56 -209 -6 -61 -21 -132 -40 -187 -33 -95 -53 -188 -44
-204 20 -31 73 9 101 76 28 70 29 70 106 4 38 -33 75 -58 81 -56 7 2 11 20 9
42 -2 20 4 65 12 99 8 33 18 96 22 138 6 77 7 79 71 158 35 44 69 78 74 75 5
-4 6 -47 3 -103 -7 -95 -6 -99 19 -127 21 -25 29 -28 44 -19 25 15 28 42 7 65
-14 16 -16 32 -10 116 4 59 16 128 31 173 49 152 50 159 32 177 -13 13 -19 14
-31 3 -9 -7 -16 -18 -16 -25 0 -24 -70 -166 -79 -161 -12 8 35 195 55 218 13
13 14 22 7 29 -19 19 -50 0 -108 -66 -59 -68 -67 -98 -27 -103 12 -2 22 -9 22
-17 0 -24 -62 -146 -73 -142 -18 6 -39 80 -34 120 3 20 14 61 25 90 31 81 62
180 62 197 0 20 100 140 117 140 7 0 15 -12 19 -27 16 -74 41 -148 49 -148 15
0 18 154 4 187 -13 33 -45 58 -72 58 -25 0 -93 -75 -126 -140 -44 -85 -89
-201 -96 -247 -10 -61 -22 -66 -84 -37 l-53 26 6 41 c16 111 18 168 6 182 -18
21 -64 19 -85 -5 -23 -26 -45 -26 -45 0 0 36 32 115 53 132 18 14 20 21 11 35
-12 19 -45 29 -57 16z m238 -682 c5 -17 -1 -88 -21 -241 -4 -30 -11 -63 -16
-73 -9 -18 -11 -18 -29 -1 -10 9 -21 31 -24 48 -6 32 26 168 51 218 8 15 14
36 14 48 0 25 17 26 25 1z"/>
<path d="M368 1753 c-93 -151 -125 -206 -157 -272 -28 -59 -29 -65 -17 -96 8
-18 19 -36 25 -39 18 -12 13 -45 -14 -84 -20 -29 -25 -49 -25 -99 0 -35 4 -63
10 -63 5 0 19 18 30 40 11 22 27 40 35 40 19 0 19 -19 1 -39 -11 -13 -46 -147
-63 -242 -11 -59 72 -143 117 -119 12 6 25 22 30 36 6 16 17 24 33 24 33 0 78
52 126 145 33 63 42 95 47 152 7 79 -2 110 -54 171 -26 31 -30 33 -55 21 -22
-10 -30 -10 -40 0 -9 10 -7 17 14 34 15 12 29 33 32 47 4 14 22 44 42 67 38
45 43 64 20 83 -12 10 -21 8 -48 -9 -35 -22 -107 -94 -143 -145 -26 -36 -54
-30 -54 11 0 41 40 131 86 193 36 49 71 114 87 163 4 9 13 17 22 17 18 0 20
21 3 38 -23 23 -36 12 -90 -75z m110 -495 c18 -18 14 -50 -12 -82 -20 -24 -29
-28 -54 -23 -16 3 -34 1 -40 -5 -6 -6 -18 -8 -27 -4 -15 5 -14 9 4 35 12 16
21 36 21 44 0 36 81 62 108 35z m-172 -46 c-8 -9 -19 -13 -22 -9 -10 9 16 38
28 31 6 -4 4 -13 -6 -22z m143 -189 c-13 -32 -33 -69 -45 -83 -12 -14 -29 -39
-38 -57 -19 -38 -47 -49 -83 -31 -25 12 -29 20 -36 83 -8 79 -5 95 20 95 10 0
35 11 55 25 35 24 36 24 53 5 24 -26 37 -25 65 5 13 14 25 23 28 20 2 -2 -6
-30 -19 -62z"/>
<path d="M1525 1730 c-19 -21 -34 -143 -21 -176 12 -32 35 6 51 84 11 53 12
78 5 92 -13 24 -13 24 -35 0z"/>
<path d="M1830 1492 c-13 -20 -41 -58 -62 -83 -21 -26 -38 -51 -38 -56 0 -5
-14 -22 -31 -39 -17 -16 -48 -60 -70 -99 -90 -162 -104 -156 -90 45 7 101 15
150 27 167 15 24 15 26 -12 54 -15 16 -31 26 -35 22 -4 -5 -2 -31 4 -59 9 -46
8 -54 -10 -77 -15 -20 -22 -50 -29 -119 -9 -108 -8 -139 8 -191 10 -33 9 -43
-12 -84 -17 -34 -20 -50 -13 -62 28 -44 107 1 119 67 4 20 13 45 21 54 10 12
12 22 5 35 -7 13 -3 31 14 68 13 28 23 55 24 62 0 7 28 41 63 75 89 89 149
181 145 224 l-3 34 -25 -38z"/>
<path d="M1757 1142 c-24 -27 -79 -162 -80 -198 -1 -50 27 -84 69 -84 50 0 56
26 14 60 -32 26 -32 27 -20 66 7 21 21 56 31 76 31 62 21 119 -14 80z"/>
<path d="M1840 572 c-24 -11 -123 -87 -148 -114 -13 -14 -26 -38 -31 -54 -4
-16 -15 -31 -25 -32 -25 -5 -56 27 -56 58 0 31 -16 50 -43 50 -10 0 -40 -23
-67 -52 -54 -59 -80 -60 -80 -5 0 18 5 38 11 44 15 15 1 37 -14 25 -7 -5 -32
-12 -57 -16 -24 -4 -52 -14 -62 -23 -20 -18 -25 -11 -30 42 -2 22 -9 31 -25
33 -32 5 -53 -33 -53 -98 0 -31 -6 -62 -12 -68 -10 -10 -10 -17 0 -32 6 -11
12 -49 12 -85 l0 -65 75 0 c41 0 75 2 75 5 0 3 -13 24 -30 47 -39 53 -40 104
-2 66 9 -9 16 -8 30 5 15 13 25 15 55 6 37 -10 37 -9 102 56 36 36 67 65 70
65 3 0 5 -8 5 -17 0 -32 -44 -108 -98 -170 l-54 -63 35 0 c28 0 42 8 70 39 20
22 43 53 51 69 27 52 40 57 90 32 53 -25 66 -21 66 25 0 40 60 122 120 163 26
18 39 35 40 50 0 12 -1 22 -2 21 -2 0 -10 -3 -18 -7z"/>
<path d="M1004 483 c18 -156 18 -169 2 -217 -9 -27 -21 -57 -27 -67 -9 -17 -6
-19 32 -19 40 0 78 27 79 56 0 6 10 23 21 38 22 28 19 41 -9 41 -13 0 -19 14
-24 60 -9 72 -46 165 -66 165 -12 0 -14 -11 -8 -57z"/>
<path d="M1775 392 c-45 -28 -54 -43 -61 -106 -6 -51 -4 -59 16 -81 31 -33 75
-33 106 1 13 14 24 36 24 49 l0 25 -36 -21 c-50 -27 -68 -19 -61 28 8 48 24
64 41 41 7 -10 16 -18 20 -18 11 0 2 93 -9 97 -5 1 -23 -5 -40 -15z"/>
<path d="M410 382 c0 -11 8 -26 18 -35 27 -25 64 -104 60 -129 -3 -20 -8 -23
-48 -21 -25 2 -61 5 -81 8 -23 3 -43 -1 -55 -10 -17 -13 19 -14 297 -13 355 1
324 -6 354 80 27 78 16 108 -41 108 -23 0 -47 -13 -86 -45 -44 -36 -64 -46
-103 -50 -34 -3 -56 -12 -75 -30 -34 -33 -60 -29 -80 10 -32 61 -69 112 -94
128 -34 23 -66 22 -66 -1z m498 -108 c1 -10 -7 -34 -18 -52 -17 -28 -23 -32
-35 -22 -21 18 -18 50 7 77 25 26 42 25 46 -3z"/>
</g>
</svg>
