<?xml version="1.0" standalone="no"?>
<!DOCTYPE svg PUBLIC "-//W3C//DTD SVG 20010904//EN"
 "http://www.w3.org/TR/2001/REC-SVG-20010904/DTD/svg10.dtd">
<svg version="1.0" xmlns="http://www.w3.org/2000/svg"
 width="210.000000pt" height="365.000000pt" viewBox="0 0 210.000000 365.000000"
 preserveAspectRatio="xMidYMid meet">
<metadata>
Created by potrace 1.16, written by Peter Selinger 2001-2019
</metadata>
<g transform="translate(0.000000,365.000000) scale(0.100000,-0.100000)"
fill="#000000" stroke="none">
<path d="M1313 2973 c-39 -7 -131 -102 -184 -187 -79 -129 -144 -377 -125
-480 9 -49 79 -127 97 -109 9 9 8 25 -5 71 -49 175 21 462 145 591 51 53 76
63 124 50 51 -14 69 -60 62 -154 -5 -67 -27 -135 -92 -293 -15 -35 -24 -66
-21 -69 7 -7 53 45 75 87 48 90 101 235 107 294 6 56 4 68 -25 124 -39 78 -70
92 -158 75z"/>
<path d="M180 2565 c0 -24 5 -35 15 -35 19 0 19 -24 -1 -55 -9 -13 -14 -39
-12 -59 l3 -35 52 64 c62 75 77 108 63 136 -9 15 -22 19 -65 19 l-55 0 0 -35z"/>
<path d="M845 2476 c-22 -7 -58 -22 -80 -33 -57 -30 -177 -139 -194 -176 -8
-18 -21 -45 -28 -62 l-14 -30 85 -83 c47 -46 86 -90 86 -99 0 -45 -193 -293
-228 -293 -20 0 -10 -34 11 -38 27 -5 100 60 190 170 45 54 85 98 89 98 5 0
30 -22 56 -49 26 -27 62 -56 80 -65 17 -9 32 -22 32 -29 0 -6 -11 -39 -25 -72
-13 -33 -29 -89 -36 -125 -10 -55 -9 -71 4 -103 9 -20 21 -37 27 -37 17 0 24
31 12 51 -9 13 -8 30 4 71 25 85 121 271 170 328 25 29 52 69 60 88 13 32 13
37 -1 51 -14 14 -21 9 -71 -44 -31 -33 -65 -77 -75 -98 -11 -21 -27 -41 -35
-44 -9 -3 -43 21 -90 62 -88 79 -87 74 -18 197 64 112 124 245 124 273 0 41
-18 73 -49 90 -35 18 -34 18 -86 1z m71 -71 c7 -18 -131 -297 -159 -322 -19
-17 -21 -16 -73 42 -73 82 -72 94 19 182 76 73 103 92 152 104 46 11 55 10 61
-6z"/>
<path d="M181 1908 l0 -123 15 50 c25 85 27 118 10 158 -9 20 -18 37 -21 37
-3 0 -5 -55 -4 -122z"/>
<path d="M1472 1558 c-7 -7 -12 -22 -12 -33 0 -34 -55 -102 -102 -126 -28 -15
-63 -22 -101 -23 -54 -1 -61 2 -83 29 -13 17 -27 47 -30 68 -11 64 -24 41 -24
-42 0 -74 2 -81 26 -100 81 -64 211 -45 288 40 50 56 93 164 74 186 -13 16
-21 16 -36 1z"/>
</g>
</svg>
