<?xml version="1.0" standalone="no"?>
<!DOCTYPE svg PUBLIC "-//W3C//DTD SVG 20010904//EN"
 "http://www.w3.org/TR/2001/REC-SVG-20010904/DTD/svg10.dtd">
<svg version="1.0" xmlns="http://www.w3.org/2000/svg"
 width="188.000000pt" height="269.000000pt" viewBox="0 0 188.000000 269.000000"
 preserveAspectRatio="xMidYMid meet">
<metadata>
Created by potrace 1.16, written by Peter Selinger 2001-2019
</metadata>
<g transform="translate(0.000000,269.000000) scale(0.100000,-0.100000)"
fill="#000000" stroke="none">
<path d="M995 2430 c-33 -4 -94 -11 -135 -15 -46 -5 -84 -15 -98 -26 -17 -13
-51 -19 -142 -24 -135 -8 -154 -17 -125 -61 17 -27 18 -27 104 -20 47 3 95 7
106 8 19 3 20 -2 18 -86 -1 -96 -11 -116 -57 -116 -33 -1 -106 -37 -106 -53 0
-8 8 -25 18 -38 l19 -22 47 22 c25 13 53 21 61 18 7 -3 17 -23 21 -44 4 -21
15 -55 25 -75 10 -20 15 -39 10 -42 -5 -3 -40 -5 -79 -4 -70 2 -102 -9 -102
-37 0 -26 35 -40 114 -45 63 -4 80 -8 78 -19 -14 -64 -12 -216 3 -296 28 -147
39 -130 -110 -189 -147 -58 -162 -67 -205 -120 -36 -46 -50 -92 -50 -164 0
-49 3 -56 45 -99 50 -50 63 -51 46 -2 -17 50 -13 148 8 195 10 23 34 53 52 66
30 22 161 78 182 78 4 0 21 10 36 21 16 12 33 19 39 15 11 -7 62 -147 62 -171
0 -10 -15 -34 -32 -55 -18 -20 -62 -71 -97 -113 -35 -43 -69 -77 -76 -77 -6 0
-24 -14 -40 -30 -33 -35 -64 -38 -90 -10 -21 23 -35 26 -35 6 0 -20 58 -66 83
-66 40 0 135 74 244 189 84 89 93 89 133 -5 63 -148 128 -234 217 -285 46 -27
60 -30 86 -22 52 14 39 44 -25 58 -56 11 -129 101 -201 245 -37 74 -67 141
-67 148 0 7 31 43 70 80 43 41 70 75 70 88 0 20 -3 21 -41 10 -29 -7 -54 -25
-80 -55 -31 -35 -42 -41 -53 -32 -13 11 -46 97 -46 119 0 5 43 31 95 57 137
70 187 131 71 86 -31 -11 -81 -30 -111 -42 -75 -28 -88 -24 -101 36 -18 76
-17 233 2 287 21 62 42 79 122 94 103 20 113 19 110 -13 -2 -22 1 -28 17 -28
12 0 25 11 33 28 7 15 21 27 32 27 27 0 34 17 39 95 8 142 6 179 -14 220 -24
47 -89 85 -147 85 -33 0 -38 3 -38 24 0 13 -7 29 -15 36 -15 13 -14 14 -42
-58 -6 -17 -27 -29 -78 -47 -39 -13 -74 -20 -79 -15 -10 10 3 168 14 175 5 3
34 9 67 15 174 28 238 49 238 75 0 23 -27 27 -120 15z m132 -325 c15 -17 23
-39 23 -63 0 -36 -17 -152 -22 -157 -2 -1 -42 -6 -90 -10 -88 -7 -88 -7 -88
17 0 12 11 46 23 73 13 28 27 74 31 104 4 30 10 59 13 64 11 18 87 -1 110 -28z
m-189 -42 c-5 -48 -23 -128 -39 -170 -7 -19 -16 -23 -49 -23 -50 0 -60 20 -60
115 0 78 6 95 34 96 11 0 37 7 56 14 59 23 62 20 58 -32z m-124 -241 c5 -1 3
-9 -4 -17 -9 -11 -23 -13 -54 -9 -47 8 -50 9 -43 21 5 7 69 10 101 5z m-144
-12 c0 -5 -7 -10 -15 -10 -8 0 -15 5 -15 10 0 6 7 10 15 10 8 0 15 -4 15 -10z
m202 -32 c-15 -15 -26 -4 -18 18 5 13 9 15 18 6 9 -9 9 -15 0 -24z"/>
<path d="M472 2033 c-15 -30 -23 -117 -16 -179 5 -42 14 -65 31 -82 13 -13 27
-21 31 -18 9 5 7 113 -4 234 -6 64 -23 82 -42 45z"/>
<path d="M1649 1793 c-24 -43 -53 -93 -65 -111 -14 -19 -25 -56 -29 -90 -3
-31 -15 -130 -26 -220 -12 -94 -21 -228 -21 -315 -1 -137 1 -157 22 -205 27
-62 54 -82 78 -58 14 14 14 19 -5 53 -38 69 -39 228 -3 493 5 36 12 120 16
188 7 122 16 146 35 95 9 -25 11 -25 27 -10 13 14 17 41 20 137 1 66 1 120 -2
120 -2 0 -24 -35 -47 -77z"/>
<path d="M1649 1354 c-11 -13 -11 -20 2 -42 8 -15 22 -28 32 -30 14 -3 17 4
17 42 0 38 -3 46 -19 46 -10 0 -25 -7 -32 -16z"/>
<path d="M1535 564 c-22 -8 -46 -17 -54 -19 -47 -18 123 -51 192 -38 23 5 27
10 27 39 l0 34 -62 -1 c-35 0 -81 -7 -103 -15z"/>
</g>
</svg>
