<?xml version="1.0" standalone="no"?>
<!DOCTYPE svg PUBLIC "-//W3C//DTD SVG 20010904//EN"
 "http://www.w3.org/TR/2001/REC-SVG-20010904/DTD/svg10.dtd">
<svg version="1.0" xmlns="http://www.w3.org/2000/svg"
 width="249.000000pt" height="372.000000pt" viewBox="0 0 249.000000 372.000000"
 preserveAspectRatio="xMidYMid meet">
<metadata>
Created by potrace 1.16, written by Peter Selinger 2001-2019
</metadata>
<g transform="translate(0.000000,372.000000) scale(0.100000,-0.100000)"
fill="#000000" stroke="none">
<path d="M2238 2682 c-37 -40 -77 -91 -89 -114 -12 -24 -30 -55 -40 -70 -11
-14 -19 -36 -19 -48 0 -12 -5 -30 -10 -41 -10 -18 -12 -18 -35 -3 -23 15 -25
15 -32 -2 -12 -28 -8 -704 3 -739 7 -20 18 -31 33 -33 21 -3 22 -1 17 25 -17
77 -14 293 8 528 10 108 33 139 63 85 10 -17 39 -61 66 -97 26 -36 47 -71 47
-77 0 -14 -46 -52 -99 -81 -37 -21 -40 -40 -6 -40 14 0 21 -8 23 -27 2 -16 6
-28 9 -28 3 0 34 29 69 64 63 63 64 66 64 118 0 46 -3 55 -22 63 -27 12 -88
127 -88 167 0 22 -8 32 -40 48 -45 23 -46 19 13 135 20 39 59 96 87 127 39 44
51 64 48 84 -3 26 -6 24 -70 -44z"/>
<path d="M1260 2621 c-36 -10 -63 -57 -90 -155 -23 -87 -32 -102 -50 -91 -6 4
-2 25 9 55 18 47 18 100 0 100 -5 0 -16 -11 -25 -25 -23 -36 -35 -31 -32 12 3
32 0 38 -24 47 -23 8 -32 6 -53 -14 -29 -27 -32 -56 -9 -88 13 -19 24 -23 53
-20 36 3 36 3 33 -32 -2 -19 -7 -38 -10 -42 -4 -4 -39 -14 -77 -22 -91 -19
-209 -67 -254 -104 -27 -21 -37 -38 -39 -63 -3 -35 28 -99 48 -99 14 0 30 44
30 79 0 15 8 35 19 45 18 17 158 68 219 81 29 6 32 4 32 -18 0 -13 -5 -38 -11
-56 -6 -17 -8 -39 -4 -49 5 -15 8 -14 25 8 11 14 27 49 35 78 23 77 42 69 47
-20 3 -40 2 -77 -2 -81 -10 -12 -214 -46 -273 -47 -78 0 -115 -34 -66 -60 22
-12 126 -6 189 10 19 5 63 16 98 25 97 25 103 13 37 -90 -76 -119 -202 -381
-219 -455 -22 -94 -21 -127 4 -140 33 -18 56 -4 165 100 108 103 139 122 160
99 15 -17 55 -178 55 -222 0 -37 24 -77 46 -77 8 0 14 1 14 3 0 12 -31 222
-40 266 -14 77 -39 115 -75 119 -26 2 -46 -12 -135 -94 -58 -52 -113 -100
-123 -105 -23 -13 -34 13 -18 47 6 14 11 33 11 42 0 17 74 169 124 257 13 22
39 67 58 100 18 33 40 60 46 60 7 0 25 -22 40 -49 30 -54 73 -93 92 -81 8 5 4
15 -13 34 -23 24 -61 110 -74 169 -4 16 2 32 22 52 17 18 25 36 23 51 -3 21
-9 24 -43 24 l-40 0 -3 58 c-3 54 -1 58 23 67 15 6 50 10 80 10 30 0 65 4 79
10 24 9 58 66 49 83 -8 14 -38 7 -50 -12 -11 -17 -23 -20 -85 -18 l-73 2 2 35
c1 23 9 40 22 49 14 9 21 24 21 44 0 20 10 41 26 58 16 17 24 34 21 43 -7 17
-9 18 -47 7z"/>
<path d="M2246 2362 c-10 -16 17 -29 44 -21 21 6 22 7 5 8 -12 1 -26 6 -32 12
-7 7 -13 7 -17 1z"/>
<path d="M1799 495 c-63 -34 -146 -172 -158 -262 -7 -50 -7 -53 15 -53 17 0
21 4 17 20 -3 11 -1 26 4 33 6 6 18 35 27 64 15 44 27 59 78 98 71 53 106 58
137 19 12 -15 21 -37 21 -49 0 -23 -28 -113 -40 -130 -4 -5 -11 -20 -14 -32
-6 -20 -4 -23 17 -23 17 0 28 8 36 28 18 43 41 140 41 171 0 38 -38 92 -80
113 -43 21 -67 22 -101 3z"/>
<path d="M779 443 c-35 -5 -120 -94 -161 -167 -18 -33 -38 -61 -44 -63 -6 -2
-28 10 -49 27 -43 34 -53 36 -81 15 -18 -14 -18 -16 16 -45 30 -26 43 -29 96
-30 59 0 61 1 82 38 32 57 127 145 169 157 82 23 59 81 -28 68z"/>
<path d="M1771 199 l-23 -19 31 0 c20 0 31 5 31 14 0 24 -14 25 -39 5z"/>
</g>
</svg>
