<?xml version="1.0" standalone="no"?>
<!DOCTYPE svg PUBLIC "-//W3C//DTD SVG 20010904//EN"
 "http://www.w3.org/TR/2001/REC-SVG-20010904/DTD/svg10.dtd">
<svg version="1.0" xmlns="http://www.w3.org/2000/svg"
 width="320.000000pt" height="404.000000pt" viewBox="0 0 320.000000 404.000000"
 preserveAspectRatio="xMidYMid meet">
<metadata>
Created by potrace 1.16, written by Peter Selinger 2001-2019
</metadata>
<g transform="translate(0.000000,404.000000) scale(0.100000,-0.100000)"
fill="#000000" stroke="none">
<path d="M2577 3118 c-25 -34 -47 -106 -47 -152 0 -14 -8 -34 -19 -45 -17 -17
-41 -26 -181 -68 -30 -10 -64 -25 -75 -36 -20 -18 -20 -18 13 -48 18 -16 41
-29 51 -29 14 0 21 -10 25 -35 9 -46 39 -49 34 -3 -4 42 10 43 56 4 l39 -33
-44 -48 c-24 -26 -75 -69 -114 -95 -119 -81 -139 -117 -79 -140 22 -9 31 -7
48 9 25 22 108 61 131 61 11 0 15 -6 11 -17 -23 -84 -67 -358 -62 -387 6 -30
36 -66 56 -66 3 0 6 44 7 98 1 57 8 115 17 141 9 24 16 58 16 75 0 28 47 176
65 206 4 6 26 20 50 30 23 10 61 30 84 44 22 14 45 26 50 26 11 0 47 -109 57
-170 6 -36 5 -37 -47 -63 -57 -28 -69 -27 -69 4 0 28 -26 75 -46 83 -30 12
-36 -4 -29 -79 l7 -74 -41 -40 c-57 -56 -53 -87 16 -106 37 -10 38 -12 58 -90
47 -184 110 -294 140 -245 3 5 -15 71 -40 146 -43 131 -52 174 -39 186 3 4 24
-2 47 -13 78 -35 173 -19 232 38 65 63 60 133 -14 203 -60 56 -71 78 -71 132
0 58 12 73 57 73 32 0 39 4 41 23 2 13 -4 32 -14 43 -19 21 -17 28 35 109 27
41 30 54 30 133 1 87 1 87 -24 87 -37 0 -86 -23 -114 -54 -21 -22 -23 -29 -13
-51 7 -14 12 -34 12 -45 0 -35 18 -30 43 13 14 23 34 51 46 61 19 17 21 17 27
2 14 -36 -74 -189 -129 -225 -22 -15 -41 -37 -48 -58 -21 -65 -43 -26 -57 101
-7 72 -23 95 -56 83 -19 -7 -22 -71 -6 -126 11 -39 0 -61 -30 -61 -10 0 -39
-9 -65 -20 -41 -18 -46 -18 -52 -3 -11 27 12 48 57 53 50 6 63 26 26 40 -32
12 -32 15 -1 52 14 16 25 40 25 52 0 13 9 35 20 49 11 14 20 29 20 35 0 17
-35 40 -65 44 -29 3 -30 4 -33 65 -3 54 0 63 18 73 22 12 27 49 8 68 -18 18
-25 15 -51 -20z m49 -260 c4 -6 -3 -19 -16 -30 -28 -23 -40 -23 -40 0 0 34 40
56 56 30z m-134 -63 c-5 -43 -15 -48 -45 -25 -33 26 -34 38 -4 50 37 15 52 8
49 -25z m398 -474 c53 -51 51 -72 -7 -110 -65 -43 -111 -42 -162 4 -42 38 -56
69 -37 84 18 14 129 60 148 61 10 0 36 -17 58 -39z"/>
<path d="M1462 2767 c-13 -14 -31 -61 -47 -127 -14 -58 -30 -118 -35 -135 -10
-31 2 -58 19 -40 15 18 83 160 95 202 4 11 13 27 21 33 21 17 19 54 -3 73 -24
22 -24 21 -50 -6z"/>
<path d="M1081 2601 c-7 -11 -15 -51 -20 -88 -5 -38 -16 -95 -24 -128 -23 -86
-26 -150 -7 -150 16 0 41 62 76 190 13 50 32 107 41 128 18 41 13 52 -29 62
-20 5 -29 2 -37 -14z"/>
<path d="M1444 2456 c-72 -49 -127 -103 -119 -117 5 -7 21 -9 42 -6 46 8 51
-10 20 -66 -14 -24 -33 -69 -42 -99 -16 -48 -16 -58 -3 -84 11 -24 19 -29 45
-27 18 2 34 -1 37 -6 3 -5 -1 -50 -10 -101 -16 -94 -15 -106 9 -97 13 5 35 69
93 267 9 29 34 89 55 131 45 88 47 104 18 119 -28 15 -39 5 -94 -91 -25 -43
-50 -79 -55 -79 -6 0 -10 1 -10 3 0 11 42 114 55 133 8 13 15 30 15 39 0 9 9
29 21 44 25 34 22 65 -6 69 -11 1 -43 -13 -71 -32z"/>
<path d="M193 2433 c-17 -6 -16 -43 1 -43 18 0 39 27 31 40 -7 11 -13 11 -32
3z"/>
<path d="M955 2146 c-36 -16 -51 -33 -60 -68 -5 -20 -2 -29 13 -37 28 -15 27
-15 67 20 20 18 41 29 50 25 32 -12 37 -60 39 -346 1 -263 3 -288 21 -325 11
-22 32 -46 47 -54 23 -13 30 -13 54 -1 48 26 113 155 89 178 -8 8 -53 -42 -78
-87 -9 -18 -23 -31 -30 -29 -30 10 -39 83 -45 380 l-7 297 -29 30 c-33 35 -78
40 -131 17z"/>
<path d="M1570 2068 c-8 -20 -67 -246 -107 -412 -16 -67 -14 -101 6 -101 28 0
151 387 151 474 0 56 -32 81 -50 39z"/>
<path d="M182 1875 c0 -16 2 -22 5 -12 2 9 2 23 0 30 -3 6 -5 -1 -5 -18z"/>
<path d="M1614 1855 c-4 -9 6 -33 22 -56 42 -58 116 -182 164 -274 45 -86 106
-168 120 -160 15 9 -23 110 -91 243 -89 171 -109 202 -152 235 -41 31 -55 33
-63 12z"/>
<path d="M180 1481 c0 -28 1 -29 43 -24 93 12 103 46 14 51 l-57 3 0 -30z"/>
<path d="M2687 363 c-21 -50 -47 -143 -47 -173 0 -6 17 -10 38 -10 l37 0 24
75 c13 41 29 80 37 86 21 17 17 46 -8 63 -39 27 -54 20 -81 -41z"/>
<path d="M2849 403 c-1 -4 0 -20 1 -34 0 -14 -6 -31 -14 -39 -12 -9 -16 -31
-16 -81 l0 -69 45 0 c45 0 45 0 38 28 -4 15 -7 52 -6 82 3 73 -3 97 -27 110
-11 6 -20 7 -21 3z"/>
</g>
</svg>
