<?xml version="1.0" standalone="no"?>
<!DOCTYPE svg PUBLIC "-//W3C//DTD SVG 20010904//EN"
 "http://www.w3.org/TR/2001/REC-SVG-20010904/DTD/svg10.dtd">
<svg version="1.0" xmlns="http://www.w3.org/2000/svg"
 width="226.000000pt" height="315.000000pt" viewBox="0 0 226.000000 315.000000"
 preserveAspectRatio="xMidYMid meet">
<metadata>
Created by potrace 1.16, written by Peter Selinger 2001-2019
</metadata>
<g transform="translate(0.000000,315.000000) scale(0.100000,-0.100000)"
fill="#000000" stroke="none">
<path d="M1011 2313 c-17 -21 -38 -58 -46 -84 -9 -25 -47 -89 -85 -140 -67
-91 -81 -121 -60 -134 17 -11 48 14 84 68 19 29 46 63 61 77 19 18 25 33 25
66 0 31 7 51 26 73 30 37 48 31 39 -11 -4 -17 -4 -64 0 -105 6 -67 11 -79 42
-114 44 -48 60 -53 109 -33 54 22 80 49 109 110 29 61 31 74 10 74 -8 0 -15
-4 -15 -9 0 -5 -23 -35 -51 -65 -42 -46 -57 -56 -84 -56 -53 0 -65 30 -69 165
-3 94 -7 120 -21 135 -26 28 -39 25 -74 -17z"/>
<path d="M542 2027 c-32 -38 -49 -569 -22 -698 13 -64 33 -99 55 -99 22 0 75
66 105 132 16 37 30 73 30 79 0 26 -28 -2 -60 -62 -65 -118 -75 -99 -86 161
-9 200 9 403 37 443 16 22 18 31 9 43 -15 18 -54 18 -68 1z"/>
<path d="M1087 1873 c-15 -14 -6 -40 23 -65 25 -22 30 -32 24 -55 -13 -59 -55
-181 -69 -199 -14 -18 -16 -18 -36 9 -12 15 -39 64 -60 107 -21 44 -43 80 -49
80 -6 0 -15 -12 -20 -26 -9 -22 -5 -39 22 -98 18 -39 45 -90 61 -113 l28 -43
-35 -43 c-19 -24 -47 -50 -62 -57 -24 -13 -27 -12 -43 8 -9 13 -20 20 -24 16
-26 -26 26 -91 63 -79 12 4 51 31 85 61 l64 53 58 -27 c45 -21 77 -27 144 -30
83 -4 136 8 125 27 -3 4 -41 11 -85 14 -61 5 -95 14 -140 36 -69 36 -78 46
-58 69 27 31 65 107 82 166 23 79 16 143 -20 173 -25 22 -64 30 -78 16z"/>
<path d="M2005 1692 c-53 -15 -60 -20 -60 -42 0 -24 2 -25 60 -21 33 1 63 5
68 8 4 2 7 20 7 39 0 19 -3 34 -7 33 -5 0 -35 -8 -68 -17z"/>
</g>
</svg>
