<?xml version="1.0" standalone="no"?>
<!DOCTYPE svg PUBLIC "-//W3C//DTD SVG 20010904//EN"
 "http://www.w3.org/TR/2001/REC-SVG-20010904/DTD/svg10.dtd">
<svg version="1.0" xmlns="http://www.w3.org/2000/svg"
 width="266.000000pt" height="341.000000pt" viewBox="0 0 266.000000 341.000000"
 preserveAspectRatio="xMidYMid meet">
<metadata>
Created by potrace 1.16, written by Peter Selinger 2001-2019
</metadata>
<g transform="translate(0.000000,341.000000) scale(0.100000,-0.100000)"
fill="#000000" stroke="none">
<path d="M1360 2322 c-127 -78 -121 -73 -118 -105 4 -43 21 -44 68 -1 22 20
43 34 46 32 2 -3 -2 -23 -9 -44 -55 -149 -87 -234 -101 -266 -9 -21 -16 -55
-16 -77 0 -30 -8 -50 -35 -83 -65 -81 -107 -147 -102 -161 3 -7 31 -19 63 -27
84 -19 90 -27 97 -120 3 -43 15 -113 27 -154 19 -62 33 -87 75 -133 39 -44 55
-55 70 -49 17 6 15 10 -17 44 -61 63 -83 127 -98 276 -9 87 -8 102 7 118 9 10
26 18 38 18 27 0 247 62 298 84 21 9 36 22 34 29 -5 14 -10 14 -107 -8 -116
-26 -254 -54 -269 -55 -10 0 -12 18 -10 83 l4 84 108 104 c107 103 128 139 91
153 -24 9 -69 -19 -109 -69 -21 -25 -41 -45 -45 -45 -4 0 -10 19 -12 43 -4 33
4 63 34 137 21 52 38 100 38 105 0 6 9 28 21 49 37 69 7 85 -71 38z m-125
-632 c8 -37 -8 -60 -41 -60 -30 0 -32 27 -3 64 27 34 36 33 44 -4z"/>
<path d="M180 2253 c0 -73 -6 -72 98 -5 45 28 52 36 41 47 -8 7 -42 15 -76 17
l-63 4 0 -63z"/>
<path d="M665 2280 c-7 -11 11 -50 23 -50 4 0 31 -21 60 -46 l52 -46 0 -79 c0
-43 4 -79 9 -79 15 0 31 60 31 118 0 71 -25 111 -98 157 -61 38 -68 40 -77 25z"/>
<path d="M2235 2226 c-16 -8 -50 -38 -75 -67 -42 -50 -120 -163 -120 -175 0
-3 -13 -25 -30 -48 -36 -54 -109 -234 -117 -291 -7 -57 4 -115 22 -115 11 0
15 12 15 46 0 63 87 265 158 369 75 109 167 218 203 239 63 37 15 74 -56 42z"/>
<path d="M747 1913 c-28 -20 -41 -38 -52 -76 -19 -64 -19 -76 1 -84 18 -7 34
12 34 43 0 25 36 74 54 74 9 0 15 -22 20 -67 27 -298 61 -441 117 -488 39 -32
52 -32 83 6 65 77 67 129 2 58 -20 -22 -42 -39 -49 -37 -26 9 -68 160 -83 303
-20 202 -32 257 -56 278 -25 21 -25 21 -71 -10z"/>
<path d="M2384 1916 c-35 -16 -104 -95 -104 -120 0 -23 53 -53 111 -60 27 -4
49 -11 49 -15 0 -5 -16 -28 -35 -51 l-35 -42 0 -121 c0 -149 24 -246 76 -305
l33 -37 1 35 c0 20 -6 45 -14 56 -8 11 -22 62 -31 113 -21 114 -15 203 20 280
15 32 25 72 25 100 l0 47 -65 -4 c-83 -6 -85 9 -10 73 30 26 55 51 55 56 0 13
-40 10 -76 -5z"/>
<path d="M180 1784 c0 -16 11 -47 25 -69 38 -62 55 -102 55 -131 0 -36 -29
-146 -43 -164 -26 -33 -37 -61 -37 -95 0 -20 4 -34 9 -31 16 11 67 110 91 178
21 60 22 73 13 130 -11 62 -63 169 -98 198 -13 11 -15 9 -15 -16z"/>
<path d="M1981 1592 c-24 -46 -3 -189 44 -302 42 -101 144 -217 169 -193 3 3
-12 26 -33 52 -52 63 -86 131 -110 224 -28 102 -28 173 -1 189 25 16 26 38 3
38 -10 0 -28 3 -40 6 -15 4 -24 0 -32 -14z"/>
<path d="M2170 1525 c0 -8 5 -15 10 -15 6 0 10 7 10 15 0 8 -4 15 -10 15 -5 0
-10 -7 -10 -15z"/>
<path d="M2152 1455 c-22 -34 -52 -131 -52 -167 0 -24 21 -23 64 3 34 20 41
47 10 35 -25 -9 -27 22 -5 59 20 35 29 105 14 105 -5 0 -18 -16 -31 -35z"/>
</g>
</svg>
