<?xml version="1.0" standalone="no"?>
<!DOCTYPE svg PUBLIC "-//W3C//DTD SVG 20010904//EN"
 "http://www.w3.org/TR/2001/REC-SVG-20010904/DTD/svg10.dtd">
<svg version="1.0" xmlns="http://www.w3.org/2000/svg"
 width="322.000000pt" height="409.000000pt" viewBox="0 0 322.000000 409.000000"
 preserveAspectRatio="xMidYMid meet">
<metadata>
Created by potrace 1.16, written by Peter Selinger 2001-2019
</metadata>
<g transform="translate(0.000000,409.000000) scale(0.100000,-0.100000)"
fill="#000000" stroke="none">
<path d="M867 3831 c-31 -89 -31 -91 -16 -91 5 0 22 26 36 58 14 31 35 69 45
85 l19 27 -29 0 c-27 0 -30 -5 -55 -79z"/>
<path d="M197 2982 c-14 -16 -17 -40 -16 -153 l0 -134 19 68 c10 38 30 96 45
128 14 33 25 69 23 82 -4 29 -48 35 -71 9z"/>
<path d="M1562 2758 c-14 -17 -23 -867 -10 -948 21 -132 54 -227 73 -208 4 3
-1 54 -10 113 -13 88 -15 187 -13 566 3 407 1 460 -13 474 -13 13 -18 14 -27
3z"/>
<path d="M3022 2550 c-27 -60 -70 -227 -81 -315 -7 -49 -16 -95 -22 -101 -8
-10 -56 -33 -233 -114 -38 -17 -76 -28 -84 -25 -21 8 -7 52 29 92 16 19 29 39
29 46 0 17 66 108 98 135 l27 22 -29 24 c-37 31 -30 51 44 127 47 48 55 61 42
65 -9 3 -25 10 -36 15 -38 21 -90 -56 -141 -210 -15 -47 -46 -111 -71 -148
-52 -76 -74 -126 -77 -178 -3 -45 -23 -57 -36 -22 -6 14 -19 28 -31 32 -40 13
-68 -38 -35 -65 23 -19 19 -25 -42 -59 -174 -96 -190 -108 -222 -168 -13 -26
1 -73 22 -73 8 0 28 23 46 50 18 28 43 57 54 64 65 39 261 146 267 146 8 0 16
-14 75 -124 l29 -56 -54 -56 c-30 -31 -94 -85 -142 -122 -84 -62 -102 -82 -77
-82 17 0 180 107 241 158 58 47 74 51 83 22 10 -32 120 -192 153 -223 43 -41
81 -35 99 17 15 44 10 56 -15 38 -33 -24 -42 -24 -62 -1 -29 35 -150 235 -150
248 0 6 46 56 101 110 57 56 98 104 95 110 -4 6 -20 11 -35 11 -21 0 -41 -14
-82 -57 -30 -32 -65 -73 -78 -90 -27 -40 -38 -41 -53 -5 -7 15 -20 38 -29 52
-45 68 -32 95 59 130 31 13 92 40 134 61 74 38 77 39 87 20 6 -11 15 -48 20
-83 28 -180 52 -275 86 -335 15 -27 15 -23 11 72 -2 58 -13 131 -25 175 -12
44 -21 105 -21 147 0 66 2 74 25 89 32 21 37 71 6 54 -11 -5 -23 -10 -27 -10
-11 0 6 120 27 191 15 48 19 88 17 148 -3 78 -4 80 -16 51z"/>
<path d="M1125 2534 c-39 -39 -69 -174 -60 -267 4 -38 11 -65 15 -60 4 4 19
62 34 128 20 92 32 125 52 146 14 15 24 35 22 46 -4 24 -41 28 -63 7z"/>
<path d="M1013 2104 c-24 -14 -43 -32 -43 -40 0 -22 29 -29 64 -16 16 7 33 8
37 4 4 -4 12 -93 18 -198 6 -120 16 -203 25 -225 18 -43 52 -75 89 -85 24 -5
34 -1 62 26 35 34 60 86 46 94 -4 3 -22 -15 -40 -40 -41 -59 -66 -57 -100 9
-22 44 -25 64 -32 250 l-9 202 -27 22 c-35 28 -38 28 -90 -3z"/>
<path d="M1761 1956 c-78 -34 -98 -52 -88 -80 9 -24 52 -20 100 11 55 35 108
84 101 95 -9 14 -36 8 -113 -26z"/>
<path d="M1552 1389 c-120 -20 -124 -54 -6 -53 153 2 379 19 379 29 0 30 -243
45 -373 24z"/>
<path d="M435 417 c-14 -22 -85 -213 -85 -229 0 -5 18 -8 41 -8 38 0 41 2 58
43 10 23 27 74 36 114 15 59 16 74 6 87 -19 22 -38 20 -56 -7z"/>
</g>
</svg>
