<?xml version="1.0" standalone="no"?>
<!DOCTYPE svg PUBLIC "-//W3C//DTD SVG 20010904//EN"
 "http://www.w3.org/TR/2001/REC-SVG-20010904/DTD/svg10.dtd">
<svg version="1.0" xmlns="http://www.w3.org/2000/svg"
 width="249.000000pt" height="346.000000pt" viewBox="0 0 249.000000 346.000000"
 preserveAspectRatio="xMidYMid meet">
<metadata>
Created by potrace 1.16, written by Peter Selinger 2001-2019
</metadata>
<g transform="translate(0.000000,346.000000) scale(0.100000,-0.100000)"
fill="#000000" stroke="none">
<path d="M1073 2370 c-55 -14 -113 -34 -127 -43 -29 -20 -34 -48 -11 -67 13
-11 27 -8 78 14 34 14 85 30 112 35 28 5 63 14 78 20 22 9 29 8 33 -4 7 -18
-11 -76 -42 -135 -23 -44 -32 -90 -16 -90 10 1 96 137 116 184 22 52 20 69 -7
94 -31 29 -83 27 -214 -8z"/>
<path d="M654 2369 c-8 -14 11 -33 25 -25 6 4 11 14 11 22 0 16 -26 19 -36 3z"/>
<path d="M674 2261 c-17 -4 -36 -11 -42 -15 -21 -13 -39 -99 -34 -162 2 -35
-1 -78 -8 -99 -11 -33 -10 -39 8 -58 26 -26 31 -22 116 92 62 82 105 160 106
188 0 16 -74 63 -97 62 -10 -1 -32 -4 -49 -8z m64 -92 c3 -24 -61 -139 -78
-139 -16 0 -40 50 -40 83 0 44 18 67 60 77 47 11 54 8 58 -21z"/>
<path d="M996 2179 c-15 -17 -33 -47 -41 -65 -16 -38 -23 -41 -40 -17 -11 15
-16 11 -39 -35 -36 -71 -82 -258 -105 -422 -20 -149 -17 -179 27 -244 26 -37
26 -39 9 -68 -9 -16 -17 -35 -17 -42 0 -28 43 -98 67 -109 23 -10 28 -8 52 20
14 17 35 46 46 65 23 38 13 36 330 57 279 18 373 29 421 50 52 23 69 56 59
116 -3 22 -7 57 -8 77 -1 20 -8 43 -14 49 -7 7 -13 19 -13 26 0 28 -20 11 -31
-27 -10 -31 -10 -52 -1 -91 15 -63 6 -83 -50 -102 -63 -22 -265 -38 -498 -40
-239 -1 -270 4 -306 46 -25 30 -26 36 -21 107 15 192 49 380 68 380 4 0 9 -17
11 -37 3 -34 6 -38 34 -41 25 -2 41 6 82 43 47 42 112 148 99 161 -3 3 -37
-27 -76 -66 -40 -39 -77 -70 -84 -67 -20 6 -19 61 3 120 24 64 93 157 121 164
33 9 20 23 -20 23 -32 0 -44 -6 -65 -31z m-106 -903 c0 -8 -4 -17 -9 -21 -12
-7 -24 12 -16 25 9 15 25 12 25 -4z"/>
</g>
</svg>
