<?xml version="1.0" standalone="no"?>
<!DOCTYPE svg PUBLIC "-//W3C//DTD SVG 20010904//EN"
 "http://www.w3.org/TR/2001/REC-SVG-20010904/DTD/svg10.dtd">
<svg version="1.0" xmlns="http://www.w3.org/2000/svg"
 width="379.000000pt" height="379.000000pt" viewBox="0 0 379.000000 379.000000"
 preserveAspectRatio="xMidYMid meet">
<metadata>
Created by potrace 1.16, written by Peter Selinger 2001-2019
</metadata>
<g transform="translate(0.000000,379.000000) scale(0.100000,-0.100000)"
fill="#000000" stroke="none">
<path d="M1675 3057 c-67 -17 -145 -110 -199 -236 -60 -141 -86 -217 -86 -246
0 -13 -9 -44 -20 -70 -23 -53 -25 -100 -7 -132 21 -38 77 -73 117 -73 20 0 40
-3 43 -6 4 -4 -7 -22 -23 -41 -24 -27 -30 -43 -30 -78 0 -58 17 -58 54 -1 47
74 138 122 185 96 23 -12 28 -43 9 -57 -7 -5 -46 -22 -85 -37 -59 -22 -82 -38
-120 -81 -27 -29 -61 -59 -77 -66 -26 -12 -30 -11 -47 10 -26 32 -34 70 -20
93 18 30 2 37 -20 9 -59 -72 -25 -155 69 -170 58 -9 96 -36 89 -63 -3 -10 -1
-18 4 -18 17 0 102 92 153 165 27 39 69 91 93 117 44 49 53 80 32 120 -13 25
-68 48 -114 48 -47 0 -45 16 8 72 46 48 117 156 117 179 0 8 7 27 15 42 27 52
36 107 36 216 0 123 -13 159 -71 199 -36 24 -46 25 -105 9z m95 -72 c41 -44
37 -148 -13 -325 -37 -129 -160 -300 -217 -300 -15 0 -39 10 -54 21 -27 21
-27 23 -20 98 7 73 9 78 62 141 30 36 68 71 84 78 34 15 33 36 -3 40 -16 2
-39 -8 -63 -27 -68 -54 -69 -21 -4 111 43 87 98 154 143 174 43 19 59 17 85
-11z"/>
<path d="M824 2896 c-3 -8 0 -24 6 -36 6 -11 8 -30 5 -41 -4 -12 0 -37 9 -58
16 -37 22 -61 82 -356 43 -209 55 -316 84 -744 11 -169 20 -207 47 -196 9 3
26 -3 39 -16 12 -11 39 -25 61 -29 51 -12 142 -2 173 19 14 10 39 25 56 34 17
9 48 42 69 73 42 64 35 62 180 29 39 -9 102 -20 140 -24 39 -4 80 -13 91 -19
22 -11 204 -52 374 -82 150 -27 560 -50 560 -32 0 18 -146 51 -320 71 -146 18
-288 41 -365 62 -38 10 -104 27 -145 38 -41 11 -144 31 -227 46 -212 35 -226
41 -234 88 -3 21 -16 48 -27 60 -20 20 -25 20 -79 9 -69 -14 -82 -25 -65 -53
18 -28 5 -42 -30 -35 -46 9 -173 -48 -199 -90 -22 -36 -36 -43 -44 -21 -3 6
-7 118 -10 247 -4 256 -16 374 -55 540 -6 25 -14 74 -19 110 -5 36 -14 77 -19
92 -6 14 -18 61 -27 105 -9 43 -23 102 -32 132 -21 72 -64 115 -79 77z m616
-1171 c13 -16 6 -35 -15 -35 -18 0 -28 17 -21 35 7 19 20 19 36 0z m-31 -110
c11 -11 6 -21 -30 -60 -56 -61 -86 -75 -155 -75 -66 0 -94 18 -94 61 0 31 35
56 110 78 25 7 50 15 55 17 20 6 100 -9 114 -21z"/>
<path d="M180 2788 c0 -30 1 -31 16 -16 9 9 14 24 11 32 -11 27 -27 17 -27
-16z"/>
<path d="M203 2383 c-16 -3 -23 -11 -23 -28 0 -23 1 -24 70 -18 59 5 73 3 90
-12 26 -24 48 -8 31 23 -18 34 -92 50 -168 35z"/>
<path d="M764 2235 c-4 -9 -2 -28 4 -43 23 -60 23 -116 1 -210 -16 -66 -19
-96 -12 -103 6 -6 16 -8 22 -4 14 8 51 80 51 98 0 8 7 28 15 43 19 37 19 134
1 179 -20 48 -70 72 -82 40z"/>
<path d="M1160 2167 c0 -7 20 -23 44 -37 38 -20 47 -22 61 -10 24 20 14 32
-41 46 -62 17 -64 17 -64 1z"/>
<path d="M180 1550 c0 -16 5 -30 10 -30 6 0 32 -22 58 -49 30 -31 62 -53 87
-60 51 -14 57 -5 20 26 -16 14 -53 47 -81 73 -28 26 -61 53 -73 59 -19 11 -21
9 -21 -19z"/>
<path d="M3202 1385 c-30 -25 -67 -109 -56 -127 14 -22 72 -38 99 -28 61 23
136 105 120 130 -9 15 -31 12 -45 -5 -21 -25 -44 -14 -45 20 0 40 -32 45 -73
10z"/>
</g>
</svg>
