<?xml version="1.0" standalone="no"?>
<!DOCTYPE svg PUBLIC "-//W3C//DTD SVG 20010904//EN"
 "http://www.w3.org/TR/2001/REC-SVG-20010904/DTD/svg10.dtd">
<svg version="1.0" xmlns="http://www.w3.org/2000/svg"
 width="291.000000pt" height="386.000000pt" viewBox="0 0 291.000000 386.000000"
 preserveAspectRatio="xMidYMid meet">
<metadata>
Created by potrace 1.16, written by Peter Selinger 2001-2019
</metadata>
<g transform="translate(0.000000,386.000000) scale(0.100000,-0.100000)"
fill="#000000" stroke="none">
<path d="M180 3670 c0 -6 16 -8 43 -4 58 9 59 14 4 14 -26 0 -47 -5 -47 -10z"/>
<path d="M764 2545 c-4 -9 8 -58 25 -110 29 -87 31 -103 32 -242 0 -159 7
-224 25 -230 14 -5 28 172 28 343 -1 114 -2 124 -32 187 -24 51 -36 67 -52 67
-11 0 -23 -7 -26 -15z"/>
<path d="M2708 2300 c-9 -41 -20 -97 -25 -125 -8 -48 -9 -50 -52 -62 -51 -15
-71 -5 -71 33 0 29 -11 31 -33 6 -45 -50 -7 -81 106 -85 l86 -4 6 41 c3 23 5
93 3 156 l-3 115 -17 -75z"/>
<path d="M1436 2323 c-8 -16 -31 -80 -51 -143 -28 -84 -47 -125 -71 -153 -34
-38 -46 -89 -23 -103 6 -3 32 14 58 40 26 25 56 46 66 46 11 0 42 7 69 15 71
22 84 7 43 -49 -12 -17 -29 -44 -37 -59 -28 -55 -76 -94 -142 -114 -56 -16
-63 -21 -66 -47 -3 -26 20 -66 39 -66 5 0 24 14 42 30 38 33 57 38 57 15 0
-26 -50 -97 -121 -172 -38 -40 -71 -84 -75 -97 -16 -65 24 -88 56 -33 18 31
47 53 56 45 1 -2 -4 -30 -11 -63 -18 -76 -22 -286 -6 -343 7 -25 22 -49 37
-59 31 -20 101 -20 140 0 16 7 68 26 117 41 85 26 112 46 61 46 -14 0 -71 -11
-126 -26 -183 -46 -191 -38 -185 176 5 184 33 281 108 379 48 64 49 65 30 85
-10 12 -21 40 -25 63 -6 38 -3 45 33 87 43 50 91 137 91 165 0 37 -35 54 -97
48 -32 -3 -66 -8 -75 -12 -31 -12 -32 23 -2 93 15 37 37 73 47 81 29 21 51 79
36 97 -20 24 -57 17 -73 -13z"/>
<path d="M1095 2201 c-11 -5 -34 -37 -51 -72 -109 -222 -110 -223 -134 -229
-23 -5 -25 -11 -25 -57 0 -52 -23 -93 -51 -93 -7 0 -22 -14 -34 -30 -30 -42
-50 -25 -50 40 0 72 -18 153 -38 168 -26 20 -63 6 -104 -40 -67 -72 -37 -125
32 -57 18 19 35 28 40 23 5 -5 11 -77 14 -159 8 -248 33 -403 72 -446 10 -12
30 -19 51 -19 30 0 37 6 71 60 20 32 41 58 47 56 5 -1 18 -25 28 -52 22 -58
31 -71 70 -91 22 -11 32 -12 41 -3 8 8 2 17 -21 36 -40 31 -52 70 -60 194 -5
79 -3 101 11 128 30 59 60 166 57 207 -3 44 -22 65 -58 65 -32 0 -40 26 -16
58 11 15 30 50 43 77 13 28 40 68 60 90 45 50 69 117 50 140 -14 17 -17 17
-45 6z m-77 -449 c4 -26 -42 -132 -57 -132 -16 0 -14 133 1 148 20 20 53 10
56 -16z m-118 -99 c0 -21 5 -56 10 -77 12 -54 -1 -76 -46 -76 -40 0 -94 44
-94 77 0 34 25 68 65 90 57 31 65 29 65 -14z m17 -210 c4 -13 -81 -156 -94
-160 -7 -3 -17 6 -22 19 -16 41 -34 135 -27 146 7 12 139 8 143 -5z"/>
<path d="M2590 2190 c0 -5 11 -10 25 -10 14 0 25 5 25 10 0 6 -11 10 -25 10
-14 0 -25 -4 -25 -10z"/>
<path d="M2645 1975 c-163 -62 -218 -103 -179 -132 47 -34 146 -4 233 69 26
23 32 34 29 60 l-3 33 -80 -30z"/>
<path d="M180 1818 c0 -21 6 -38 14 -41 7 -3 27 -30 44 -60 17 -30 38 -57 46
-60 22 -9 20 -27 -2 -27 -33 0 -102 -52 -102 -77 0 -30 4 -29 61 12 27 19 52
35 55 35 13 0 -5 -111 -23 -147 -13 -26 -28 -40 -52 -48 -40 -13 -50 -31 -27
-48 14 -11 14 -15 1 -41 -8 -15 -15 -46 -15 -68 l0 -39 35 28 c22 17 51 59 76
108 22 44 45 86 51 92 6 8 9 52 6 111 -3 91 -6 103 -38 155 -19 31 -56 78 -82
104 l-48 47 0 -36z"/>
<path d="M2640 1563 c0 -23 24 -48 63 -62 27 -10 27 -10 27 29 0 35 -3 40 -22
40 -13 0 -33 3 -45 6 -18 5 -23 2 -23 -13z"/>
</g>
</svg>
