<?xml version="1.0" standalone="no"?>
<!DOCTYPE svg PUBLIC "-//W3C//DTD SVG 20010904//EN"
 "http://www.w3.org/TR/2001/REC-SVG-20010904/DTD/svg10.dtd">
<svg version="1.0" xmlns="http://www.w3.org/2000/svg"
 width="318.000000pt" height="349.000000pt" viewBox="0 0 318.000000 349.000000"
 preserveAspectRatio="xMidYMid meet">
<metadata>
Created by potrace 1.16, written by Peter Selinger 2001-2019
</metadata>
<g transform="translate(0.000000,349.000000) scale(0.100000,-0.100000)"
fill="#000000" stroke="none">
<path d="M1623 2798 c-32 -37 -55 -97 -66 -173 -8 -58 -7 -87 7 -160 10 -50
21 -111 26 -136 22 -121 73 -223 152 -306 88 -91 126 -106 273 -107 100 -1
127 2 160 18 22 11 44 22 49 24 15 8 -4 -51 -29 -88 -12 -19 -40 -66 -60 -105
-49 -92 -48 -91 -124 -130 -73 -37 -219 -177 -309 -297 -63 -84 -85 -161 -58
-203 33 -51 50 -51 321 4 309 62 413 95 438 139 16 27 17 37 5 91 -6 34 -17
60 -22 58 -6 -2 -19 -22 -31 -44 -37 -75 -32 -72 -265 -141 -139 -42 -350 -80
-370 -67 -16 10 -6 67 18 102 10 15 34 51 52 78 64 95 182 213 214 215 26 1
-73 -185 -118 -222 -16 -13 -18 -20 -9 -29 9 -9 19 -7 45 9 62 39 89 74 158
204 33 63 59 82 131 92 48 7 97 45 84 65 -3 6 -10 9 -15 6 -5 -3 -18 0 -29 7
-16 10 -23 10 -33 0 -15 -15 -38 -16 -38 -1 0 6 15 37 34 69 19 33 46 85 59
117 14 32 50 119 82 193 63 150 73 184 55 195 -17 10 -39 -20 -95 -126 -54
-104 -94 -142 -178 -168 -52 -16 -76 -18 -144 -11 -123 13 -173 46 -252 165
-76 116 -100 245 -44 245 30 0 83 34 182 118 65 55 73 38 30 -68 -32 -82 -82
-254 -83 -288 -1 -23 5 -38 17 -46 30 -19 50 19 97 186 23 84 55 185 70 224
52 131 59 239 15 239 -12 0 -21 -9 -25 -25 -4 -15 -13 -24 -21 -22 -8 2 -18 4
-23 5 -5 1 -20 -16 -32 -38 -29 -50 -149 -172 -177 -181 -12 -3 -36 -17 -53
-30 -28 -20 -34 -21 -44 -9 -8 9 -10 28 -6 51 6 28 3 39 -10 49 -16 11 -17 19
-6 79 17 93 28 115 59 127 21 8 37 6 71 -7 55 -20 74 -8 48 31 -21 32 -54 45
-115 45 -37 0 -52 -5 -68 -22z"/>
<path d="M667 2723 c-14 -13 -6 -42 15 -57 29 -21 35 -20 48 5 9 16 8 25 -6
40 -17 19 -45 25 -57 12z"/>
<path d="M1185 2650 c-8 -13 13 -60 27 -60 14 0 9 47 -6 59 -11 9 -16 9 -21 1z"/>
<path d="M180 2396 c0 -43 0 -44 79 -95 66 -44 85 -52 118 -49 33 3 38 7 41
29 3 30 -15 45 -91 73 -27 10 -68 33 -93 52 -24 19 -46 34 -49 34 -3 0 -5 -20
-5 -44z"/>
<path d="M1347 2173 c-47 -5 -59 -29 -28 -55 17 -13 40 -18 86 -18 47 0 66 -4
78 -18 22 -24 21 -35 -4 -58 -33 -30 -79 -103 -68 -109 5 -4 34 5 63 18 58 27
86 64 86 114 0 34 -31 87 -62 106 -26 17 -95 26 -151 20z"/>
<path d="M2466 1553 c-10 -61 -7 -301 4 -308 5 -3 19 -1 31 6 21 11 22 15 15
133 -8 142 -17 198 -32 203 -6 2 -14 -13 -18 -34z"/>
<path d="M2193 1051 c-43 -32 -105 -84 -138 -115 -33 -31 -63 -56 -67 -56 -12
0 -58 -73 -58 -92 0 -31 35 -40 98 -27 70 14 97 28 184 92 64 49 106 105 93
127 -7 12 -61 -19 -151 -87 -39 -29 -76 -53 -82 -53 -46 0 47 107 171 197 45
33 58 55 38 68 -5 3 -45 -21 -88 -54z"/>
<path d="M2452 1048 c-5 -7 -19 -31 -30 -54 -11 -22 -36 -59 -54 -81 -18 -23
-48 -66 -67 -97 -18 -30 -62 -94 -97 -142 -35 -48 -64 -95 -64 -106 0 -21 41
-44 64 -35 9 4 16 15 16 26 0 11 4 22 9 26 14 8 86 120 170 262 49 83 73 136
77 167 7 46 -3 59 -24 34z"/>
<path d="M2365 1010 c-3 -6 1 -7 9 -4 18 7 21 14 7 14 -6 0 -13 -4 -16 -10z"/>
</g>
</svg>
