<?xml version="1.0" standalone="no"?>
<!DOCTYPE svg PUBLIC "-//W3C//DTD SVG 20010904//EN"
 "http://www.w3.org/TR/2001/REC-SVG-20010904/DTD/svg10.dtd">
<svg version="1.0" xmlns="http://www.w3.org/2000/svg"
 width="298.000000pt" height="377.000000pt" viewBox="0 0 298.000000 377.000000"
 preserveAspectRatio="xMidYMid meet">
<metadata>
Created by potrace 1.16, written by Peter Selinger 2001-2019
</metadata>
<g transform="translate(0.000000,377.000000) scale(0.100000,-0.100000)"
fill="#000000" stroke="none">
<path d="M690 2559 c-69 -28 -146 -60 -172 -70 -26 -10 -58 -19 -73 -19 -14 0
-42 -8 -63 -19 -20 -10 -62 -26 -92 -35 -110 -35 -110 -35 -110 -77 0 -22 2
-39 3 -39 2 0 103 33 225 74 121 40 223 71 226 69 3 -3 -17 -33 -43 -67 -27
-33 -58 -79 -69 -101 -29 -58 -72 -95 -118 -101 -58 -8 -155 -44 -191 -71 -31
-23 -33 -27 -33 -86 l1 -62 19 36 c37 71 151 149 217 149 29 0 28 -7 -23 -121
-19 -42 -34 -80 -34 -85 0 -11 -54 -144 -80 -200 -11 -22 -20 -45 -20 -50 0
-6 -14 -31 -30 -57 -52 -82 -60 -177 -16 -177 16 0 51 58 91 150 42 95 110
184 192 248 39 32 96 77 128 101 49 39 56 49 53 75 -3 30 -7 34 -114 112 l-29
22 24 48 c51 101 181 254 269 315 42 30 52 55 30 77 -18 18 -33 15 -168 -39z
m-149 -488 l23 -18 -36 -44 c-19 -24 -43 -58 -51 -75 -18 -35 -44 -60 -54 -50
-12 12 69 206 86 206 5 0 19 -8 32 -19z"/>
<path d="M1313 2440 c-48 -19 -32 -26 202 -86 50 -13 109 -24 133 -24 24 0 52
-5 63 -10 23 -13 25 -38 3 -47 -8 -3 -49 -38 -90 -78 -41 -40 -98 -87 -127
-103 -69 -39 -84 -57 -66 -78 14 -17 20 -17 151 17 83 21 118 21 118 0 0 -6
-13 -17 -29 -26 -16 -8 -39 -28 -50 -44 -12 -16 -49 -51 -84 -76 -69 -52 -109
-85 -196 -162 -33 -28 -73 -59 -89 -67 -39 -20 -43 -36 -34 -115 7 -64 8 -65
42 -74 50 -13 106 -4 170 26 31 15 79 32 108 38 28 7 52 16 52 21 0 17 -20 48
-31 48 -24 0 -119 51 -119 64 0 21 21 34 60 38 44 4 45 18 3 38 -18 8 -33 20
-33 25 0 6 48 46 108 90 132 98 202 162 202 185 0 9 -12 30 -26 45 -24 26 -29
27 -85 21 -33 -3 -59 -2 -59 3 0 5 33 34 74 65 73 55 116 107 116 140 0 18
-37 36 -75 36 -13 0 -59 14 -102 31 -70 28 -235 70 -273 68 -8 0 -25 -4 -37
-9z m100 -847 c4 -3 0 -15 -10 -25 -17 -19 -77 -25 -88 -9 -14 23 78 55 98 34z"/>
<path d="M1943 2283 c-26 -37 -34 -108 -47 -433 l-7 -165 -35 -32 c-35 -31
-95 -50 -140 -45 -15 2 -23 -5 -28 -20 -3 -13 -7 -25 -8 -27 -2 -3 9 -8 24
-12 42 -11 135 14 168 46 16 15 30 22 34 17 3 -6 7 -82 9 -169 3 -193 -1 -201
-94 -227 -59 -17 -63 -17 -95 0 -27 15 -37 16 -59 6 l-26 -12 27 -36 c27 -34
30 -35 78 -31 28 3 78 12 111 21 34 9 63 12 69 6 4 -4 12 -44 17 -87 12 -116
25 -173 43 -191 28 -29 38 -3 26 74 -5 38 -10 108 -10 155 0 70 3 89 18 101
18 15 67 38 82 38 9 0 24 -36 25 -60 0 -10 10 -15 30 -15 44 0 44 28 1 55 -20
12 -36 26 -36 30 0 5 11 26 25 46 45 66 8 73 -78 14 -32 -22 -62 -38 -66 -36
-13 9 -31 145 -34 256 l-2 105 63 6 c49 5 71 12 100 36 20 16 60 46 87 67 98
74 125 124 85 161 -18 17 -21 17 -45 1 -27 -18 -32 -35 -13 -54 17 -17 -1 -33
-107 -87 -57 -30 -104 -47 -130 -48 l-40 -2 1 210 c1 130 6 227 14 255 7 25
13 58 14 75 2 40 -26 45 -51 8z"/>
<path d="M476 1619 c-31 -36 -26 -52 10 -39 14 6 30 7 36 4 14 -9 5 -85 -21
-171 -21 -72 -23 -73 -90 -117 -38 -24 -72 -49 -75 -55 -13 -21 -26 0 -26 43
0 48 -18 71 -65 81 -16 4 -38 9 -47 12 -17 4 -18 -7 -17 -139 0 -132 1 -140
14 -106 7 20 17 63 20 95 8 59 20 87 36 77 26 -16 -8 -197 -52 -267 -12 -21
-19 -50 -19 -84 0 -49 2 -53 26 -59 20 -5 31 -2 43 14 17 22 50 36 171 73 103
31 260 96 282 116 27 24 22 58 -13 88 -36 30 -53 28 -57 -6 -2 -13 -11 -32
-20 -42 -22 -25 -170 -98 -177 -88 -3 5 10 28 29 50 19 23 42 63 51 91 18 53
55 90 133 129 34 17 43 27 40 44 -3 19 -8 21 -38 19 -83 -9 -95 -7 -91 8 11
36 12 219 2 239 -17 31 -55 27 -85 -10z m-11 -379 c9 -15 -32 -95 -67 -130
-16 -16 -26 -35 -23 -41 10 -15 -22 -47 -62 -60 -60 -19 -61 -8 -10 134 10 27
72 78 119 97 31 12 36 12 43 0z"/>
<path d="M2790 1498 c0 -6 -9 -22 -21 -34 -11 -12 -22 -30 -23 -40 -4 -27 -30
-24 -34 4 -4 27 -13 28 -43 2 -20 -16 -21 -19 -6 -20 18 0 24 -25 7 -35 -7 -4
-7 -12 0 -25 13 -24 48 -15 62 16 6 13 15 24 19 24 4 0 14 3 22 6 11 4 17 -2
20 -18 2 -13 5 12 6 55 0 42 -1 77 -4 77 -3 0 -5 -5 -5 -12z"/>
<path d="M1382 1417 c-12 -13 -22 -33 -22 -44 0 -12 -12 -31 -27 -43 -16 -11
-45 -34 -66 -50 -37 -28 -37 -29 -17 -40 18 -10 19 -13 6 -32 -8 -11 -25 -26
-38 -32 -13 -6 -23 -20 -23 -31 0 -10 -6 -20 -13 -23 -7 -2 -12 6 -12 23 0 35
-19 28 -43 -16 -10 -19 -30 -43 -45 -55 -34 -28 -24 -59 16 -51 68 14 67 14
64 -18 -2 -16 -8 -36 -14 -43 -22 -26 2 -23 43 4 25 17 46 41 52 59 14 43 40
69 110 106 34 18 74 41 89 52 14 11 31 17 36 13 15 -9 7 -148 -11 -182 -8 -16
-17 -42 -21 -58 -4 -17 -16 -42 -27 -57 -10 -15 -19 -40 -19 -57 0 -36 -31
-78 -65 -86 -46 -12 -28 -29 25 -24 87 9 100 31 155 271 14 60 25 130 24 155
0 63 -45 156 -77 160 -27 4 -52 -14 -52 -37 0 -16 -58 -81 -73 -81 -17 0 -4
42 38 123 44 85 54 117 37 117 -5 0 -18 -10 -30 -23z"/>
<path d="M2542 1345 c-25 -18 -30 -45 -7 -45 15 0 38 35 33 51 -2 5 -13 2 -26
-6z"/>
</g>
</svg>
