<?xml version="1.0" standalone="no"?>
<!DOCTYPE svg PUBLIC "-//W3C//DTD SVG 20010904//EN"
 "http://www.w3.org/TR/2001/REC-SVG-20010904/DTD/svg10.dtd">
<svg version="1.0" xmlns="http://www.w3.org/2000/svg"
 width="212.000000pt" height="272.000000pt" viewBox="0 0 212.000000 272.000000"
 preserveAspectRatio="xMidYMid meet">
<metadata>
Created by potrace 1.16, written by Peter Selinger 2001-2019
</metadata>
<g transform="translate(0.000000,272.000000) scale(0.100000,-0.100000)"
fill="#000000" stroke="none">
<path d="M699 2463 c-15 -17 -18 -133 -9 -293 l5 -85 -40 1 c-22 0 -60 2 -85
5 -43 4 -45 3 -45 -21 0 -20 8 -27 40 -38 22 -8 63 -17 90 -20 44 -6 50 -10
52 -32 2 -14 8 -69 15 -123 8 -66 8 -101 1 -108 -5 -5 -50 -12 -99 -15 -99 -5
-128 -20 -103 -50 12 -14 27 -16 110 -10 77 5 98 4 108 -7 6 -8 23 -106 36
-218 36 -294 40 -314 58 -343 19 -28 37 -34 37 -13 0 8 -7 58 -16 113 -18 118
-33 288 -33 402 -1 70 2 83 17 88 99 32 166 73 148 91 -3 4 -28 -1 -54 -10
-26 -9 -68 -19 -93 -23 l-47 -6 -7 104 c-10 151 -10 152 48 156 73 5 63 18
-44 60 -26 10 -26 12 -34 144 -4 73 -9 158 -10 188 -2 78 -17 98 -46 63z"/>
<path d="M1905 1948 c-11 -7 -38 -12 -60 -13 -54 -1 -61 -29 -12 -50 57 -24
107 -2 107 46 0 32 -5 34 -35 17z"/>
<path d="M1285 1846 c-72 -24 -85 -37 -65 -61 18 -22 62 -18 118 10 52 26 92
32 92 15 0 -20 -77 -115 -162 -201 -83 -83 -87 -89 -93 -142 -11 -89 2 -154
46 -218 45 -66 74 -87 131 -95 55 -8 75 13 118 120 34 84 41 118 26 126 -14 7
-84 -98 -96 -142 -15 -54 -41 -65 -85 -35 -70 47 -93 101 -94 216 0 71 -6 62
117 171 81 71 162 172 162 201 0 61 -92 76 -215 35z"/>
<path d="M1897 1773 c-4 -3 -7 -19 -7 -34 0 -21 -11 -36 -42 -61 -75 -59 -158
-152 -156 -173 4 -29 58 -41 111 -25 147 44 137 38 137 76 0 32 -2 35 -22 28
-13 -4 -36 -11 -53 -15 -16 -4 -40 -11 -52 -14 -17 -5 -23 -3 -23 7 0 15 97
88 133 101 19 7 24 61 7 72 -5 3 -10 15 -10 26 0 19 -11 25 -23 12z"/>
<path d="M557 1373 c-90 -37 -242 -354 -187 -388 17 -11 39 14 38 43 -1 62 34
124 124 218 64 67 88 100 88 118 0 30 -10 31 -63 9z"/>
<path d="M971 1360 c-73 -18 -80 -63 -11 -74 51 -8 103 22 98 58 -3 24 -32 29
-87 16z"/>
<path d="M1888 1244 c-27 -40 -48 -79 -48 -88 0 -25 32 -33 44 -11 6 10 21 30
34 46 18 22 22 38 20 76 l-3 48 -47 -71z"/>
<path d="M566 1132 c-11 -18 85 -85 170 -120 60 -25 154 -52 300 -87 88 -20
138 -26 235 -26 118 -1 128 1 205 33 80 33 175 100 162 114 -4 4 -18 0 -30 -8
-37 -23 -207 -76 -280 -86 -88 -13 -202 2 -302 40 -43 16 -119 38 -169 49 -49
11 -102 26 -118 34 -15 8 -40 15 -55 15 -15 0 -46 11 -70 25 -24 14 -45 21
-48 17z"/>
</g>
</svg>
