<?xml version="1.0" standalone="no"?>
<!DOCTYPE svg PUBLIC "-//W3C//DTD SVG 20010904//EN"
 "http://www.w3.org/TR/2001/REC-SVG-20010904/DTD/svg10.dtd">
<svg version="1.0" xmlns="http://www.w3.org/2000/svg"
 width="301.000000pt" height="401.000000pt" viewBox="0 0 301.000000 401.000000"
 preserveAspectRatio="xMidYMid meet">
<metadata>
Created by potrace 1.16, written by Peter Selinger 2001-2019
</metadata>
<g transform="translate(0.000000,401.000000) scale(0.100000,-0.100000)"
fill="#000000" stroke="none">
<path d="M930 2875 c-6 -7 -6 -24 0 -46 6 -19 13 -87 17 -151 6 -110 5 -118
-13 -124 -57 -18 -75 -28 -89 -51 -22 -33 -8 -47 33 -32 43 15 65 0 77 -53 13
-51 36 -60 71 -27 18 17 23 30 19 44 -6 17 -23 268 -28 400 -2 38 -4 40 -40
46 -23 4 -41 2 -47 -6z"/>
<path d="M1552 2866 c-14 -18 -21 -48 -25 -113 -16 -215 -45 -343 -177 -778
-48 -160 -60 -240 -35 -240 5 0 36 77 67 170 31 94 66 193 76 220 61 157 105
331 127 498 9 67 23 146 31 175 14 50 14 55 -2 73 -23 25 -39 24 -62 -5z"/>
<path d="M2543 2657 c-21 -25 -71 -184 -77 -242 -4 -39 -2 -84 8 -130 16 -72
19 -200 7 -245 -6 -21 -16 -27 -69 -36 -84 -15 -123 -47 -166 -137 -47 -98
-53 -144 -27 -201 12 -28 30 -51 46 -58 23 -10 29 -8 56 18 51 47 108 130 146
210 28 59 40 74 57 74 24 0 114 -28 131 -40 6 -4 36 -22 68 -39 33 -18 70 -39
83 -48 l24 -15 0 44 c0 42 -2 45 -52 76 -49 29 -131 65 -203 88 -29 9 -30 12
-30 71 0 46 -5 66 -19 82 -28 31 -18 215 18 326 36 111 35 249 -1 202z m-110
-713 c4 -4 -16 -50 -43 -104 -48 -92 -93 -151 -106 -137 -10 10 24 147 46 182
11 18 35 40 53 49 36 18 41 19 50 10z"/>
<path d="M1678 2623 c-21 -24 -47 -131 -59 -244 -14 -123 2 -248 43 -348 43
-102 74 -131 142 -130 62 1 101 14 158 55 39 27 48 42 77 120 42 116 42 112
31 119 -8 5 -49 -43 -121 -142 -29 -40 -100 -82 -140 -83 -80 -1 -135 209
-110 420 7 58 18 122 24 143 8 29 8 44 -1 57 -6 11 -9 26 -6 35 8 21 -19 19
-38 -2z"/>
<path d="M1954 2608 c-69 -54 -115 -135 -114 -202 1 -35 34 -90 63 -106 28
-15 29 -14 63 24 19 22 34 45 34 53 0 16 -32 17 -47 2 -18 -18 -33 0 -33 41 0
44 26 81 89 125 45 31 50 44 23 68 -25 23 -44 21 -78 -5z"/>
<path d="M2804 2425 c-6 -15 -4 -31 14 -110 9 -36 10 -32 11 43 1 50 -3 82 -9
82 -6 0 -13 -7 -16 -15z"/>
<path d="M1304 2408 c-5 -7 -9 -17 -10 -23 0 -5 -2 -15 -2 -22 -3 -15 -218
-152 -312 -197 l-75 -36 -40 20 c-21 11 -44 20 -51 20 -18 0 -115 48 -153 75
-41 30 -53 31 -76 5 -18 -20 -18 -21 6 -44 27 -25 110 -63 178 -80 25 -6 46
-16 48 -23 3 -7 -30 -29 -76 -53 -82 -40 -97 -60 -69 -88 18 -18 49 -15 87 9
42 25 51 17 27 -24 -11 -18 -35 -61 -55 -97 -22 -42 -65 -95 -121 -150 -68
-67 -90 -96 -104 -135 -16 -48 -16 -51 2 -75 11 -14 28 -25 39 -25 20 0 114
105 183 205 73 106 158 170 225 170 11 0 44 -11 72 -25 60 -30 92 -74 133
-183 45 -121 66 -156 120 -205 115 -104 205 -142 324 -139 72 1 142 27 214 80
58 42 122 206 85 219 -6 2 -25 -25 -42 -61 -52 -107 -128 -155 -253 -159 -108
-3 -177 26 -267 113 -39 38 -79 88 -90 112 -11 24 -36 79 -56 123 -39 87 -61
115 -116 150 -64 41 -109 49 -170 32 -30 -9 -58 -12 -62 -8 -14 14 71 158 111
189 20 16 57 39 82 52 25 12 59 32 75 45 17 12 41 25 54 30 13 4 41 23 63 43
55 49 69 31 25 -34 -19 -27 -46 -71 -61 -99 -16 -27 -37 -60 -47 -74 -32 -41
-20 -91 23 -91 20 0 46 46 73 128 9 30 30 68 45 85 34 39 110 188 110 215 0
25 -5 28 -51 37 -26 5 -39 3 -45 -7z"/>
<path d="M2821 2234 c0 -11 3 -14 6 -6 3 7 2 16 -1 19 -3 4 -6 -2 -5 -13z"/>
</g>
</svg>
