<?xml version="1.0" standalone="no"?>
<!DOCTYPE svg PUBLIC "-//W3C//DTD SVG 20010904//EN"
 "http://www.w3.org/TR/2001/REC-SVG-20010904/DTD/svg10.dtd">
<svg version="1.0" xmlns="http://www.w3.org/2000/svg"
 width="429.000000pt" height="362.000000pt" viewBox="0 0 429.000000 362.000000"
 preserveAspectRatio="xMidYMid meet">
<metadata>
Created by potrace 1.16, written by Peter Selinger 2001-2019
</metadata>
<g transform="translate(0.000000,362.000000) scale(0.100000,-0.100000)"
fill="#000000" stroke="none">
<path d="M3860 2911 c-45 -24 -59 -41 -106 -126 -109 -199 -189 -409 -195
-515 -5 -87 0 -108 36 -146 33 -35 37 -36 82 -30 67 9 121 45 234 154 54 54
121 115 148 137 44 35 50 45 51 79 l0 39 -22 -19 c-13 -10 -84 -73 -158 -139
-166 -148 -216 -185 -252 -185 -63 0 -66 107 -8 272 64 181 145 333 212 400
84 84 72 128 -22 79z"/>
<path d="M1964 2690 c-129 -26 -246 -134 -333 -307 -17 -35 -33 -63 -36 -63
-2 0 -32 18 -66 40 -73 47 -104 54 -210 48 -66 -4 -83 -9 -104 -28 -26 -24
-26 -51 -1 -78 10 -10 23 -8 67 13 30 13 70 25 89 25 67 0 200 -54 200 -82 0
-6 -11 -42 -25 -80 -44 -122 -28 -178 51 -178 40 0 134 70 134 100 0 24 -17
26 -40 5 -9 -8 -31 -18 -49 -21 l-32 -7 6 64 c5 41 13 69 24 77 9 7 16 23 17
35 0 12 1 36 2 53 2 37 65 136 131 209 48 52 113 86 201 106 40 8 53 7 102
-15 30 -13 58 -31 61 -40 13 -33 -40 -229 -82 -305 l-13 -24 -22 28 c-19 24
-28 27 -55 22 -45 -9 -139 -74 -156 -108 -20 -39 -19 -52 9 -78 22 -20 33 -23
93 -20 l68 4 9 -85 c5 -47 9 -229 10 -405 1 -294 3 -324 21 -374 11 -30 26
-57 34 -59 11 -4 12 24 7 164 -4 93 -3 237 2 319 11 178 2 271 -32 354 -14 33
-26 69 -26 80 0 11 20 43 46 72 40 45 94 144 94 171 0 6 6 24 13 41 48 115 60
208 31 252 -23 35 -71 62 -128 70 -27 3 -54 8 -60 10 -6 1 -30 -1 -52 -5z m76
-467 c0 -18 -76 -83 -97 -83 -33 0 -29 33 8 64 28 24 89 37 89 19z"/>
<path d="M1680 2190 c0 -5 5 -10 11 -10 5 0 7 5 4 10 -3 6 -8 10 -11 10 -2 0
-4 -4 -4 -10z"/>
<path d="M3955 2020 c-4 -6 -2 -17 4 -24 7 -9 9 -34 5 -68 -14 -116 31 -268
84 -289 15 -6 35 -15 45 -20 15 -8 17 -4 17 30 0 31 -7 46 -31 70 -26 27 -30
37 -26 69 6 48 32 115 46 120 6 2 11 17 11 33 0 21 -5 29 -17 29 -10 0 -42 14
-72 30 -62 34 -58 33 -66 20z"/>
<path d="M2358 1750 c-56 -35 -81 -69 -101 -137 -14 -47 -14 -53 0 -65 14 -11
21 -7 52 32 20 25 60 69 90 98 54 53 59 72 24 91 -15 7 -29 3 -65 -19z"/>
<path d="M1638 1633 c-40 -43 -46 -62 -65 -194 -25 -174 -24 -281 4 -340 52
-111 89 -118 613 -121 361 -2 446 9 551 70 104 62 125 121 24 70 -58 -29 -80
-36 -190 -60 -62 -13 -620 -11 -765 2 -129 12 -149 24 -169 103 -13 47 -13 76
-2 199 8 78 20 161 29 183 18 48 21 107 7 112 -6 2 -23 -9 -37 -24z"/>
</g>
</svg>
