<?xml version="1.0" standalone="no"?>
<!DOCTYPE svg PUBLIC "-//W3C//DTD SVG 20010904//EN"
 "http://www.w3.org/TR/2001/REC-SVG-20010904/DTD/svg10.dtd">
<svg version="1.0" xmlns="http://www.w3.org/2000/svg"
 width="251.000000pt" height="376.000000pt" viewBox="0 0 251.000000 376.000000"
 preserveAspectRatio="xMidYMid meet">
<metadata>
Created by potrace 1.16, written by Peter Selinger 2001-2019
</metadata>
<g transform="translate(0.000000,376.000000) scale(0.100000,-0.100000)"
fill="#000000" stroke="none">
<path d="M1260 3009 c-29 -53 -43 -113 -49 -209 l-6 -105 -39 -20 c-21 -11
-37 -24 -35 -30 4 -11 10 -10 47 1 28 8 28 -4 3 -82 -11 -32 -18 -60 -15 -63
10 -10 46 37 73 94 27 56 33 63 67 69 51 10 61 -5 29 -42 -14 -17 -27 -44 -28
-59 -2 -26 1 -28 31 -27 17 1 32 -1 32 -5 0 -3 -23 -26 -50 -51 -62 -56 -77
-104 -38 -119 15 -5 41 -6 61 -1 20 4 39 5 42 2 3 -4 -19 -30 -49 -58 -60 -55
-71 -88 -33 -98 55 -15 153 -1 191 27 13 9 16 20 11 40 -9 33 -22 35 -27 5 -2
-19 -11 -24 -51 -29 -27 -3 -50 -2 -52 2 -10 16 38 59 73 65 20 4 45 13 54 22
13 11 30 13 63 9 39 -6 45 -4 45 12 0 22 -24 45 -70 63 -38 16 -129 10 -183
-11 -31 -12 -47 -7 -47 13 0 13 66 59 136 94 76 39 62 89 -22 76 -67 -10 -65
10 9 81 64 61 89 103 57 97 -8 -2 -51 -16 -95 -33 -44 -16 -91 -30 -105 -32
-24 -2 -24 -1 -22 73 2 41 12 108 23 149 11 41 18 80 15 88 -8 20 -34 16 -46
-8z"/>
<path d="M326 2822 c-3 -5 -5 -26 -4 -48 2 -88 -23 -322 -66 -629 -19 -135
-24 -152 -52 -174 -28 -22 -31 -58 -7 -76 16 -12 16 -19 4 -86 -7 -41 -15
-141 -17 -224 -4 -134 -3 -147 10 -125 24 43 55 180 67 303 14 142 14 142 144
153 54 4 104 14 125 25 19 10 48 23 63 28 42 16 23 31 -20 16 -24 -8 -83 -12
-158 -11 -113 1 -120 2 -118 21 1 11 9 65 17 120 31 208 46 375 46 520 0 83
-3 160 -6 173 -6 22 -19 29 -28 14z"/>
<path d="M502 2396 c-107 -35 -94 -44 45 -31 85 8 108 13 108 25 0 20 -95 24
-153 6z"/>
<path d="M180 2276 c0 -17 47 -49 54 -37 3 4 -8 18 -24 30 -22 16 -30 18 -30
7z"/>
<path d="M1627 2061 c-26 -16 -58 -37 -70 -48 -49 -46 -230 -120 -317 -130
-49 -6 -50 -5 -50 21 0 15 5 36 11 48 6 11 8 22 5 26 -9 9 -34 -29 -48 -72
-11 -36 -10 -40 11 -57 28 -23 92 -25 151 -4 99 35 93 13 -26 -105 -93 -92
-130 -141 -117 -154 4 -3 18 -6 33 -6 28 0 66 35 89 82 7 14 57 75 110 135 92
103 100 109 176 139 183 73 239 112 199 141 -31 22 -104 15 -157 -16z"/>
<path d="M1530 1840 c0 -19 -22 -41 -65 -63 -37 -20 -135 -111 -135 -126 0
-14 63 23 123 72 68 56 76 43 47 -75 -21 -88 -74 -240 -93 -265 -17 -24 12
-22 42 3 24 20 38 49 65 132 19 59 39 143 45 187 6 44 15 83 19 86 4 4 25 12
46 18 46 12 66 2 66 -35 0 -29 11 -31 33 -6 45 50 7 81 -106 85 -76 3 -87 2
-87 -13z"/>
<path d="M1610 1730 c0 -5 11 -10 25 -10 14 0 25 5 25 10 0 6 -11 10 -25 10
-14 0 -25 -4 -25 -10z"/>
</g>
</svg>
