<?xml version="1.0" standalone="no"?>
<!DOCTYPE svg PUBLIC "-//W3C//DTD SVG 20010904//EN"
 "http://www.w3.org/TR/2001/REC-SVG-20010904/DTD/svg10.dtd">
<svg version="1.0" xmlns="http://www.w3.org/2000/svg"
 width="239.000000pt" height="272.000000pt" viewBox="0 0 239.000000 272.000000"
 preserveAspectRatio="xMidYMid meet">
<metadata>
Created by potrace 1.16, written by Peter Selinger 2001-2019
</metadata>
<g transform="translate(0.000000,272.000000) scale(0.100000,-0.100000)"
fill="#000000" stroke="none">
<path d="M852 2012 c-17 -21 -34 -51 -38 -67 -4 -16 -20 -57 -34 -90 -15 -33
-31 -74 -34 -91 -4 -18 -16 -40 -27 -50 -10 -9 -19 -23 -19 -30 0 -7 -9 -18
-21 -25 -24 -13 -16 -25 24 -34 23 -6 27 -4 27 13 0 30 53 64 92 60 42 -4 44
-16 54 -280 6 -187 5 -208 -9 -208 -9 0 -73 -31 -143 -70 -69 -38 -132 -70
-140 -70 -15 0 -29 -18 -20 -27 8 -9 95 16 153 43 85 39 91 31 42 -56 -17 -30
-40 -77 -52 -105 -11 -27 -43 -83 -69 -124 -46 -69 -54 -92 -29 -76 22 13 119
152 160 230 24 44 49 87 57 96 8 8 14 22 14 30 0 9 6 24 14 35 27 36 36 3 40
-164 2 -90 6 -165 9 -168 3 -3 13 8 22 26 18 35 22 161 11 370 -3 63 -8 174
-11 245 -8 225 -15 276 -41 302 -13 13 -37 26 -54 29 -16 4 -30 12 -30 19 0
25 63 151 90 180 39 42 46 71 21 84 -27 15 -26 16 -59 -27z"/>
<path d="M1298 1993 c-1 -4 -2 -64 -2 -133 -1 -118 -2 -125 -22 -128 -26 -4
-74 34 -74 59 0 23 -13 25 -30 4 -10 -12 -10 -21 0 -45 16 -38 46 -60 82 -60
22 0 31 -7 39 -27 13 -35 0 -64 -40 -94 -37 -27 -42 -54 -8 -43 68 21 224 181
278 285 32 61 11 71 -35 17 -43 -50 -70 -67 -108 -68 l-27 0 -3 118 c-3 113
-4 117 -25 120 -13 2 -24 0 -25 -5z m85 -314 c-30 -31 -53 -32 -53 -3 0 20 62
56 74 44 7 -7 0 -21 -21 -41z"/>
<path d="M2172 1970 c-29 -12 -37 -33 -22 -60 7 -14 19 -20 33 -18 18 2 23 11
25 46 3 44 1 46 -36 32z"/>
<path d="M634 1566 c-8 -20 4 -201 19 -301 10 -64 16 -81 31 -83 17 -4 18 1
11 60 -4 34 -8 68 -9 73 -2 16 37 5 60 -16 26 -24 56 -24 78 0 19 21 9 35 -14
20 -25 -15 -43 -10 -84 25 -38 32 -39 35 -50 131 -11 93 -27 129 -42 91z"/>
<path d="M1384 1525 c-10 -7 -56 -24 -101 -36 -84 -22 -93 -31 -70 -62 10 -14
18 -15 47 -7 42 12 60 13 60 2 0 -4 -20 -36 -45 -70 -51 -69 -55 -95 -22 -116
52 -35 163 46 188 136 5 22 13 46 16 53 3 9 -5 19 -21 26 -38 18 -33 39 8 39
19 0 38 -5 42 -11 18 -30 29 -199 24 -384 -6 -213 -1 -243 38 -219 15 10 17
36 17 275 0 232 -2 270 -18 312 -10 26 -28 54 -40 62 -27 19 -97 19 -123 0z
m-6 -168 c-13 -41 -41 -72 -57 -62 -19 11 -12 35 21 76 37 46 52 40 36 -14z"/>
<path d="M762 1515 c-41 -18 -37 -39 7 -43 37 -4 61 12 61 39 0 23 -22 24 -68
4z"/>
<path d="M1140 1366 c0 -18 -6 -49 -14 -67 -19 -45 -36 -224 -36 -371 0 -103
2 -119 16 -116 11 2 16 18 19 63 1 33 8 112 13 175 20 222 25 350 13 350 -6 0
-11 -15 -11 -34z"/>
</g>
</svg>
