<?xml version="1.0" standalone="no"?>
<!DOCTYPE svg PUBLIC "-//W3C//DTD SVG 20010904//EN"
 "http://www.w3.org/TR/2001/REC-SVG-20010904/DTD/svg10.dtd">
<svg version="1.0" xmlns="http://www.w3.org/2000/svg"
 width="276.000000pt" height="325.000000pt" viewBox="0 0 276.000000 325.000000"
 preserveAspectRatio="xMidYMid meet">
<metadata>
Created by potrace 1.16, written by Peter Selinger 2001-2019
</metadata>
<g transform="translate(0.000000,325.000000) scale(0.100000,-0.100000)"
fill="#000000" stroke="none">
<path d="M1459 2517 c-46 -41 -237 -260 -331 -379 -74 -93 -47 -96 52 -7 77
68 230 221 230 229 0 4 43 45 95 90 89 77 114 110 81 110 -7 0 -19 -7 -26 -15
-12 -14 -15 -14 -30 0 -9 8 -18 15 -21 15 -2 0 -25 -19 -50 -43z"/>
<path d="M2573 2275 c0 -33 2 -45 4 -27 2 18 2 45 0 60 -2 15 -4 0 -4 -33z"/>
<path d="M1285 2092 c-112 -63 -134 -80 -139 -114 -11 -66 -11 -103 0 -103 6
0 39 32 73 71 66 76 107 98 171 92 30 -3 39 -10 67 -58 18 -30 39 -82 47 -115
20 -79 38 -328 27 -359 -6 -13 -34 -37 -66 -55 -32 -18 -94 -57 -139 -87 -142
-97 -335 -178 -380 -161 -26 10 -19 25 26 53 24 15 56 41 73 57 60 59 131 107
180 123 61 21 89 37 138 83 38 35 67 79 67 101 0 32 -94 -9 -124 -55 -25 -38
-46 -32 -46 12 0 48 34 87 62 72 14 -8 27 -6 50 8 38 22 53 45 44 68 -6 15
-15 17 -72 11 -36 -4 -89 -18 -119 -31 -52 -23 -55 -26 -55 -60 0 -47 14 -71
50 -90 34 -17 38 -33 13 -41 -59 -18 -104 -46 -114 -71 -13 -34 -85 -114 -118
-132 -49 -25 -191 -123 -191 -130 0 -18 39 -41 87 -52 47 -11 58 -10 152 21
55 17 113 42 128 53 15 12 47 31 73 43 25 12 94 56 155 97 60 41 113 73 118
70 16 -10 -21 -49 -159 -168 -155 -134 -489 -455 -489 -470 0 -41 64 6 322
235 65 58 134 117 153 130 19 14 61 47 92 73 71 60 80 49 49 -56 -11 -40 -21
-80 -21 -89 0 -21 18 -34 31 -21 16 16 68 174 75 226 4 29 11 60 15 69 5 9 46
47 91 83 95 76 378 335 378 345 0 4 -9 15 -20 25 -19 17 -22 17 -62 1 -24 -9
-65 -33 -93 -53 -27 -21 -77 -56 -110 -78 -33 -22 -77 -54 -98 -72 -20 -18
-43 -33 -51 -33 -17 0 -26 44 -26 129 -1 220 -71 376 -187 415 -62 21 -70 20
-128 -12z m391 -578 c-26 -26 -50 -43 -54 -39 -8 8 74 85 91 85 6 0 -11 -21
-37 -46z"/>
<path d="M2310 1953 c-78 -65 -307 -486 -298 -548 5 -37 23 -21 68 67 25 47
53 95 63 105 9 11 17 25 17 31 0 6 13 26 29 44 16 18 46 66 66 106 21 40 54
89 75 110 44 44 64 78 56 98 -8 22 -41 17 -76 -13z"/>
<path d="M1016 1842 c-3 -5 2 -40 11 -78 9 -39 17 -127 18 -202 3 -148 14
-181 40 -118 25 60 30 180 11 261 -9 39 -19 81 -22 95 -9 42 -43 66 -58 42z"/>
<path d="M2515 1731 c-39 -14 -54 -25 -67 -52 -29 -58 -18 -98 16 -60 10 11
29 22 43 26 49 12 73 35 73 71 0 39 2 38 -65 15z"/>
<path d="M2184 1528 c11 -95 17 -200 25 -438 7 -232 16 -287 44 -277 7 2 11
13 10 23 -1 10 2 98 8 194 13 239 -5 434 -45 503 -37 62 -49 60 -42 -5z"/>
<path d="M2524 1393 c-94 -97 -175 -203 -181 -237 -4 -26 -2 -36 7 -36 17 0
103 79 113 103 5 15 13 18 33 13 85 -22 84 -22 84 21 0 21 -5 44 -12 51 -9 9
-9 15 0 24 14 14 16 98 2 98 -5 0 -26 -17 -46 -37z"/>
<path d="M1354 779 c-3 -6 -17 -8 -29 -5 -19 5 -30 -3 -58 -42 -49 -65 -88
-158 -81 -188 6 -24 24 -34 24 -13 0 7 19 35 43 63 23 28 51 65 62 81 10 17
32 42 48 58 17 16 27 33 23 42 -6 18 -22 20 -32 4z"/>
<path d="M335 641 c-16 -10 -57 -41 -90 -68 -55 -44 -60 -53 -63 -92 l-3 -43
58 49 c130 111 163 119 163 38 0 -22 16 -42 25 -33 3 2 7 36 10 76 5 71 5 73
-21 82 -35 14 -45 13 -79 -9z"/>
<path d="M2401 606 c-10 -12 -10 -24 3 -58 9 -25 17 -82 18 -138 l3 -95 -85
-20 c-78 -19 -85 -23 -88 -47 -6 -47 19 -50 179 -17 79 16 145 29 147 29 1 0
2 15 2 34 0 34 0 34 -32 26 -53 -16 -57 -4 -55 140 1 76 -2 133 -8 138 -20 19
-71 24 -84 8z"/>
<path d="M1500 456 c-42 -22 -136 -70 -209 -106 -104 -50 -144 -65 -180 -65
-44 0 -45 -1 -54 -38 -11 -45 4 -71 37 -61 39 12 264 125 297 150 33 24 107
50 116 40 3 -2 -37 -48 -87 -100 l-93 -96 99 0 c91 1 97 2 74 15 -14 8 -33 14
-42 15 -10 0 -18 4 -18 9 0 10 67 71 79 71 13 0 131 151 131 169 0 25 -20 41
-49 40 -15 -1 -60 -20 -101 -43z"/>
<path d="M282 443 c-11 -10 -28 -43 -37 -73 -10 -30 -28 -75 -41 -99 -13 -24
-24 -55 -24 -68 l0 -24 83 7 c115 9 193 52 158 87 -9 9 -16 9 -31 -1 -33 -20
-99 -27 -105 -10 -3 8 10 49 30 93 20 43 34 84 31 92 -7 18 -40 16 -64 -4z"/>
</g>
</svg>
