<?xml version="1.0" standalone="no"?>
<!DOCTYPE svg PUBLIC "-//W3C//DTD SVG 20010904//EN"
 "http://www.w3.org/TR/2001/REC-SVG-20010904/DTD/svg10.dtd">
<svg version="1.0" xmlns="http://www.w3.org/2000/svg"
 width="260.000000pt" height="396.000000pt" viewBox="0 0 260.000000 396.000000"
 preserveAspectRatio="xMidYMid meet">
<metadata>
Created by potrace 1.16, written by Peter Selinger 2001-2019
</metadata>
<g transform="translate(0.000000,396.000000) scale(0.100000,-0.100000)"
fill="#000000" stroke="none">
<path d="M2207 2823 c-3 -7 2 -296 15 -739 3 -98 16 -127 52 -122 33 5 42 70
27 197 -7 58 -16 212 -21 341 -9 242 -22 322 -52 328 -9 2 -18 -1 -21 -5z"/>
<path d="M705 2760 c-4 -6 5 -24 19 -41 17 -20 26 -43 27 -67 0 -20 0 -95 0
-167 0 -145 9 -185 46 -215 35 -27 48 -13 34 36 -6 22 -11 105 -11 185 0 152
-13 223 -46 260 -18 20 -59 26 -69 9z"/>
<path d="M1240 2743 c-88 -4 -254 -25 -265 -34 -26 -24 24 -30 296 -33 298 -3
334 -8 431 -55 24 -11 67 -45 97 -75 l54 -55 -18 -63 c-39 -141 -25 -334 30
-399 31 -38 31 -63 1 -181 -14 -51 -28 -115 -32 -143 -3 -27 -11 -56 -16 -62
-15 -18 -2 -43 21 -43 78 0 111 288 61 528 -14 70 -8 288 9 305 5 5 20 1 38
-12 49 -36 79 -37 111 -4 34 34 77 152 67 185 -15 47 -80 98 -126 98 -21 0
-76 -51 -110 -101 l-16 -23 -36 29 c-98 81 -131 98 -242 121 -66 14 -230 22
-355 17z m791 -160 c13 -34 1 -92 -23 -107 -13 -8 -23 -5 -43 14 -31 29 -32
52 -3 90 27 38 55 39 69 3z"/>
<path d="M325 2636 c-35 -35 -39 -66 -26 -200 15 -159 14 -232 -3 -259 -24
-38 -29 -67 -12 -67 8 0 17 9 21 20 3 11 22 43 42 71 l36 52 -4 161 -4 161 30
0 c40 0 44 27 9 60 -34 31 -58 32 -89 1z"/>
<path d="M1329 2418 c0 -2 -2 -14 -4 -28 -2 -14 -15 -65 -29 -115 -34 -118
-34 -152 -1 -167 21 -9 29 -8 48 9 32 30 160 103 179 103 26 0 30 -17 12 -52
-22 -43 -80 -127 -105 -152 -31 -31 -99 -123 -99 -132 0 -5 -23 -29 -51 -53
-56 -48 -59 -70 -14 -83 43 -12 349 -33 368 -25 10 4 17 15 17 25 0 39 -24 45
-181 45 -84 0 -152 4 -155 9 -7 12 55 78 72 78 7 0 25 17 41 38 15 20 50 64
78 97 65 76 115 159 122 200 4 26 0 36 -23 54 -36 28 -72 23 -167 -23 -37 -18
-70 -30 -72 -25 -3 4 0 40 6 80 12 77 3 119 -26 119 -8 0 -15 -1 -16 -2z"/>
<path d="M2072 2277 c-34 -41 -61 -305 -41 -413 11 -60 62 -114 108 -114 37 0
143 70 159 105 12 27 65 55 102 55 16 0 20 7 20 31 0 18 -7 37 -17 44 -16 12
-16 14 0 38 17 27 24 107 9 107 -4 0 -22 -15 -40 -33 -29 -30 -32 -38 -32 -98
0 -56 -4 -69 -23 -87 -13 -12 -33 -22 -45 -22 -11 0 -23 -4 -26 -9 -3 -5 -18
-12 -33 -16 -16 -3 -38 -16 -51 -28 -21 -20 -23 -20 -40 -4 -15 16 -17 38 -16
180 2 183 10 223 42 220 16 -2 22 3 22 17 0 34 -75 56 -98 27z"/>
<path d="M870 2262 c0 -5 11 -14 25 -20 14 -6 25 -18 25 -25 0 -8 -57 -57
-127 -110 -131 -98 -243 -205 -243 -232 0 -21 13 -19 35 5 9 10 34 25 54 31
21 7 60 37 93 71 49 50 78 70 78 54 0 -17 -44 -102 -74 -142 -20 -27 -51 -69
-68 -94 -18 -25 -55 -68 -81 -97 -68 -72 -55 -113 25 -80 24 10 50 40 99 113
106 158 159 263 159 316 0 41 4 49 50 91 28 25 50 52 50 60 0 29 -41 67 -71
67 -16 0 -29 -4 -29 -8z"/>
<path d="M367 2075 c-108 -37 -188 -102 -173 -140 6 -18 25 -12 81 25 53 34
133 58 225 66 105 9 130 32 65 60 -49 20 -119 17 -198 -11z"/>
<path d="M456 1861 c-3 -5 -28 -16 -55 -25 -55 -18 -121 -54 -121 -66 0 -13
28 -32 38 -26 5 3 47 10 92 15 102 11 117 23 95 74 -14 35 -37 48 -49 28z"/>
<path d="M2335 1746 c-144 -47 -275 -130 -248 -157 8 -8 34 -2 95 25 89 38
201 76 224 76 10 0 14 13 14 40 0 22 -3 40 -7 39 -5 -1 -39 -11 -78 -23z"/>
<path d="M1995 1600 c-4 -6 14 -35 40 -65 51 -61 124 -100 238 -130 37 -10 67
-20 67 -23 0 -3 -7 -13 -16 -23 -14 -15 -12 -19 20 -39 22 -13 43 -19 56 -15
17 5 20 15 20 71 l0 65 -22 -15 c-30 -21 -45 -20 -51 4 -3 10 -22 27 -43 36
-114 50 -203 94 -238 117 -42 29 -61 33 -71 17z"/>
<path d="M1265 1532 c-65 -4 -76 -16 -34 -37 32 -17 112 -34 259 -56 41 -6 82
-15 92 -20 28 -15 60 7 56 39 -2 22 -10 28 -38 34 -19 4 -64 14 -100 22 -74
16 -161 23 -235 18z"/>
<path d="M180 591 c0 -46 11 -52 110 -57 36 -1 130 -8 210 -14 80 -6 244 -17
365 -25 241 -16 413 -28 635 -44 229 -17 883 -61 903 -61 13 0 17 8 17 33 l0
34 -212 12 c-117 7 -256 17 -308 22 -113 11 -308 25 -555 39 -99 5 -218 14
-265 20 -47 6 -125 12 -175 15 -77 4 -225 18 -330 30 -16 2 -88 7 -160 10 -71
4 -140 11 -153 16 -13 5 -37 9 -53 9 -27 0 -29 -3 -29 -39z"/>
</g>
</svg>
