<?xml version="1.0" standalone="no"?>
<!DOCTYPE svg PUBLIC "-//W3C//DTD SVG 20010904//EN"
 "http://www.w3.org/TR/2001/REC-SVG-20010904/DTD/svg10.dtd">
<svg version="1.0" xmlns="http://www.w3.org/2000/svg"
 width="330.000000pt" height="276.000000pt" viewBox="0 0 330.000000 276.000000"
 preserveAspectRatio="xMidYMid meet">
<metadata>
Created by potrace 1.16, written by Peter Selinger 2001-2019
</metadata>
<g transform="translate(0.000000,276.000000) scale(0.100000,-0.100000)"
fill="#000000" stroke="none">
<path d="M1430 1961 c-15 -29 -13 -34 32 -90 43 -52 66 -62 88 -36 7 8 22 15
34 15 12 0 35 14 51 30 24 25 27 34 19 48 -13 20 -68 34 -106 26 -17 -3 -36 1
-50 10 -30 21 -55 20 -68 -3z"/>
<path d="M3037 1946 c-12 -13 -31 -47 -41 -75 -15 -43 -16 -56 -6 -81 9 -21
10 -53 5 -107 -11 -105 -7 -227 7 -287 13 -52 32 -70 85 -81 l33 -7 -1 321
c-1 301 -2 322 -19 331 -28 15 -39 12 -63 -14z m43 -353 c0 -38 -10 -73 -21
-73 -10 0 -12 44 -3 78 9 31 24 28 24 -5z"/>
<path d="M1865 1713 c-16 -2 -61 -13 -100 -23 -85 -23 -248 -43 -323 -38 -43
2 -57 -1 -66 -14 -15 -24 2 -50 40 -60 16 -4 63 -3 104 2 41 6 108 15 149 20
41 6 89 15 106 22 133 47 43 -103 -260 -434 -129 -142 -206 -239 -203 -257 5
-25 69 -36 122 -21 54 15 60 30 12 30 -75 0 -62 23 130 231 189 205 215 235
245 280 13 19 45 67 71 106 26 39 53 82 60 98 11 24 10 29 -12 46 -14 10 -29
18 -35 17 -5 0 -23 -3 -40 -5z"/>
<path d="M762 1548 c-18 -18 -15 -46 9 -85 34 -55 59 -168 66 -300 l6 -123
-36 -15 c-41 -17 -56 -50 -37 -84 11 -22 39 -28 56 -11 8 8 15 6 23 -4 20 -24
-13 -230 -45 -278 -24 -37 -31 -41 -106 -53 -44 -7 -148 -97 -168 -144 -24
-58 21 -91 71 -53 13 10 68 46 121 81 l98 63 47 -12 c27 -6 62 -18 78 -25 92
-41 127 -60 196 -104 122 -78 210 -108 331 -116 136 -8 336 14 423 48 78 30
158 68 189 90 17 13 44 29 60 37 15 8 58 45 95 82 113 113 127 169 19 76 -102
-87 -144 -118 -211 -150 -195 -95 -386 -125 -634 -98 -107 11 -117 14 -200 62
-49 27 -95 56 -104 64 -8 8 -18 14 -22 14 -3 0 -23 11 -43 25 -20 14 -62 32
-93 42 -90 27 -94 33 -63 106 33 81 44 265 18 315 -13 25 -16 66 -16 224 l0
193 -30 63 c-20 43 -37 65 -55 72 -32 12 -29 12 -43 -2z"/>
<path d="M3045 1169 c-87 -14 -109 -24 -119 -52 -13 -35 2 -51 35 -38 14 5 55
12 92 16 l67 7 0 39 c0 25 -4 39 -12 38 -7 -1 -35 -5 -63 -10z"/>
<path d="M1605 1120 c-3 -5 -1 -29 6 -52 18 -67 6 -230 -21 -273 -23 -37 -20
-55 9 -55 19 0 31 -35 31 -93 0 -74 46 -155 72 -129 10 10 10 17 0 32 -20 32
-14 62 20 97 36 37 36 17 -7 193 -9 36 -17 112 -18 169 -3 93 -5 105 -22 112
-29 11 -63 11 -70 -1z"/>
<path d="M1867 1083 c-11 -11 -8 -58 5 -71 7 -7 30 -12 53 -12 34 0 47 -6 75
-35 37 -38 86 -60 96 -43 4 6 -1 15 -10 20 -9 5 -16 14 -16 21 -1 7 -20 33
-43 58 -32 35 -54 49 -89 58 -54 13 -62 13 -71 4z"/>
<path d="M3019 894 c-29 -20 -48 -50 -94 -147 -32 -66 -66 -145 -75 -173 -18
-51 -17 -94 1 -94 12 0 36 39 44 70 7 28 71 120 83 120 5 0 38 -23 73 -52 l64
-51 3 37 c5 53 -1 62 -58 97 -37 23 -50 37 -50 54 0 13 5 27 10 30 9 5 70 120
70 131 0 12 -40 0 -71 -22z"/>
<path d="M180 321 c0 -30 2 -31 43 -31 46 0 95 24 67 34 -8 2 -28 6 -45 9 -16
2 -38 8 -47 12 -15 6 -18 2 -18 -24z"/>
</g>
</svg>
