<?xml version="1.0" standalone="no"?>
<!DOCTYPE svg PUBLIC "-//W3C//DTD SVG 20010904//EN"
 "http://www.w3.org/TR/2001/REC-SVG-20010904/DTD/svg10.dtd">
<svg version="1.0" xmlns="http://www.w3.org/2000/svg"
 width="313.000000pt" height="377.000000pt" viewBox="0 0 313.000000 377.000000"
 preserveAspectRatio="xMidYMid meet">
<metadata>
Created by potrace 1.16, written by Peter Selinger 2001-2019
</metadata>
<g transform="translate(0.000000,377.000000) scale(0.100000,-0.100000)"
fill="#000000" stroke="none">
<path d="M2280 3580 c0 -12 41 -30 53 -23 19 12 5 33 -23 33 -16 0 -30 -5 -30
-10z"/>
<path d="M1525 2822 c-37 -12 -65 -32 -110 -79 -39 -40 -69 -63 -83 -63 -40 0
-23 -20 43 -52 67 -32 156 -116 219 -207 25 -36 27 -45 18 -67 -17 -36 -15
-55 9 -80 20 -22 21 -26 9 -126 -7 -57 -15 -148 -19 -203 l-6 -100 -51 -25
c-27 -14 -61 -29 -74 -35 -42 -17 -36 -41 14 -60 54 -21 80 -16 131 25 43 34
61 34 58 -1 -14 -149 -14 -165 1 -200 17 -41 112 -119 144 -119 42 0 36 23
-21 75 -31 28 -61 64 -67 79 -5 15 -10 67 -10 116 0 86 1 88 29 107 15 10 63
59 105 110 56 67 84 93 103 95 39 4 38 19 -4 60 -165 158 -213 217 -213 260 0
41 40 102 81 123 16 9 27 20 24 25 -11 18 -57 10 -87 -15 -17 -14 -36 -24 -42
-22 -6 2 -16 37 -21 78 -10 69 -12 74 -35 74 -23 0 -25 -4 -28 -50 -2 -27 -7
-54 -11 -58 -5 -4 -32 19 -60 52 -29 33 -79 77 -112 96 -32 20 -59 41 -59 45
0 17 101 89 141 101 61 19 160 0 234 -44 67 -39 186 -153 244 -231 21 -28 64
-78 95 -111 53 -54 57 -62 51 -93 -8 -42 10 -99 43 -134 23 -25 24 -31 14 -65
-25 -83 -32 -121 -32 -179 0 -78 33 -188 63 -209 41 -29 84 -11 54 23 -41 47
-69 156 -68 272 l0 85 38 32 38 33 -47 44 c-40 37 -48 50 -48 80 0 31 4 38 34
50 57 24 82 93 102 276 5 48 -16 105 -48 124 -20 12 -58 -17 -58 -44 0 -10 -9
-38 -20 -63 -11 -25 -25 -72 -31 -104 -12 -62 -24 -93 -39 -93 -4 0 -42 42
-83 93 -148 184 -283 289 -393 307 -76 13 -98 12 -159 -8z m780 -209 c3 -15 3
-60 -1 -101 -5 -62 -11 -80 -35 -106 -23 -26 -29 -28 -34 -14 -6 15 29 221 41
240 10 16 22 8 29 -19z m-435 -551 c8 -20 6 -29 -15 -54 -14 -17 -35 -48 -45
-68 -19 -38 -44 -55 -61 -44 -8 5 -7 188 1 304 0 11 111 -116 120 -138z"/>
<path d="M395 2818 c-32 -89 -68 -367 -66 -506 1 -46 -4 -92 -9 -103 -8 -14
-7 -33 5 -71 23 -78 20 -131 -10 -166 -35 -42 -89 -66 -116 -52 -19 11 -20 9
-17 -22 3 -32 4 -33 48 -32 45 0 58 7 168 85 34 25 42 36 42 62 0 18 4 47 9
65 7 23 6 41 -1 58 -11 24 -28 33 -28 14 0 -5 -7 -10 -16 -10 -14 0 -15 23
-10 203 5 188 16 346 32 445 5 35 4 42 -10 42 -9 0 -19 -6 -21 -12z"/>
<path d="M430 2210 c0 -5 5 -10 10 -10 6 0 10 5 10 10 0 6 -4 10 -10 10 -5 0
-10 -4 -10 -10z"/>
<path d="M1653 648 c-5 -7 -20 -44 -32 -82 -37 -111 -51 -140 -63 -128 -7 7
-6 21 2 46 18 55 1 70 -68 63 -40 -4 -69 -16 -120 -50 -37 -24 -89 -57 -117
-72 -27 -16 -70 -48 -95 -72 -48 -45 -176 -117 -185 -104 -2 5 11 25 30 45 40
42 44 70 15 86 l-21 11 20 33 c19 31 19 46 0 46 -19 0 -79 -64 -89 -95 -7 -23
-40 -58 -102 -112 l-91 -78 38 -3 c21 -2 51 2 67 9 22 9 32 9 41 0 21 -21 92
-12 152 19 74 39 89 39 83 0 -5 -31 -5 -31 39 -28 48 3 56 13 116 142 14 31
37 60 64 79 l42 30 31 -31 30 -31 -32 -34 c-18 -19 -54 -62 -80 -96 -45 -57
-46 -61 -24 -61 24 0 57 37 146 163 44 62 61 69 84 35 20 -28 20 -47 2 -67 -7
-9 -18 -34 -23 -56 -6 -22 -14 -48 -18 -58 -6 -14 -2 -17 23 -17 27 0 32 5 41
38 6 20 11 43 11 50 0 26 26 9 55 -36 22 -34 37 -48 57 -50 l27 -3 -18 48
c-10 26 -30 66 -44 87 -31 45 -32 56 -11 133 44 161 53 213 35 213 -5 0 -13
-6 -18 -12z m-176 -194 c7 -19 -23 -52 -36 -39 -11 12 4 55 19 55 6 0 13 -7
17 -16z"/>
<path d="M655 606 c-36 -15 -98 -83 -90 -97 9 -14 18 -11 66 21 62 41 112 46
169 18 25 -13 49 -33 55 -45 15 -35 25 -28 25 17 0 37 -4 43 -47 70 -53 34
-124 40 -178 16z"/>
<path d="M1854 495 c-9 -13 -26 -68 -38 -122 -22 -96 -53 -168 -78 -185 -7 -4
17 -8 57 -8 70 0 71 0 89 35 11 19 61 77 113 129 109 109 114 125 39 143 -27
7 -54 17 -60 23 -5 5 -31 10 -58 10 -40 0 -50 -4 -64 -25z m66 -52 c0 -18 -58
-103 -70 -103 -13 0 -13 9 6 66 22 64 33 78 50 63 8 -6 14 -18 14 -26z"/>
</g>
</svg>
