<?xml version="1.0" standalone="no"?>
<!DOCTYPE svg PUBLIC "-//W3C//DTD SVG 20010904//EN"
 "http://www.w3.org/TR/2001/REC-SVG-20010904/DTD/svg10.dtd">
<svg version="1.0" xmlns="http://www.w3.org/2000/svg"
 width="271.000000pt" height="385.000000pt" viewBox="0 0 271.000000 385.000000"
 preserveAspectRatio="xMidYMid meet">
<metadata>
Created by potrace 1.16, written by Peter Selinger 2001-2019
</metadata>
<g transform="translate(0.000000,385.000000) scale(0.100000,-0.100000)"
fill="#000000" stroke="none">
<path d="M1470 2803 c-23 -8 -89 -73 -122 -121 -16 -23 -40 -73 -54 -110 -23
-65 -24 -68 -6 -91 10 -13 42 -37 72 -53 53 -27 57 -28 112 -16 76 16 84 9 68
-68 -28 -146 -63 -264 -78 -264 -4 0 -33 30 -63 67 -91 112 -96 116 -119 88
-10 -12 -9 -20 6 -42 22 -36 68 -94 117 -149 l39 -43 -42 -93 c-53 -120 -87
-185 -118 -226 -16 -22 -21 -37 -15 -43 20 -20 104 92 185 249 12 23 27 42 32
42 6 0 25 -23 41 -51 17 -29 58 -77 93 -107 46 -42 62 -62 62 -82 0 -15 10
-36 25 -50 22 -21 31 -22 85 -17 33 4 89 16 123 27 100 33 140 36 179 12 21
-13 43 -19 56 -15 30 7 140 -59 272 -165 l105 -84 3 30 c3 25 -5 38 -44 74
-74 69 -141 116 -241 170 -51 27 -93 56 -93 63 0 19 69 162 84 174 9 8 32 5
80 -10 79 -25 160 -20 154 9 -2 13 -19 19 -68 24 -36 4 -83 11 -105 15 -35 8
-40 13 -37 34 7 57 7 64 -3 68 -5 3 -12 -4 -14 -14 -2 -10 -20 -43 -41 -74
-46 -68 -66 -115 -75 -176 -4 -25 -12 -48 -19 -52 -6 -4 -36 -6 -68 -4 -58 3
-86 -6 -181 -54 -76 -40 -131 -30 -109 20 7 14 12 33 12 41 0 24 70 104 91
104 31 0 119 61 119 83 0 15 -4 18 -22 12 -13 -3 -39 -10 -58 -14 -52 -11 -72
-25 -128 -86 -28 -30 -54 -55 -59 -55 -28 0 -193 211 -193 247 0 9 8 30 19 47
21 36 68 189 81 267 10 63 -4 125 -32 140 -12 6 -39 6 -81 -2 -70 -13 -128 -7
-147 16 -9 11 -9 23 1 52 27 77 68 127 153 186 50 34 22 90 -34 70z"/>
<path d="M987 2723 c-3 -5 -8 -30 -12 -58 -4 -27 -20 -81 -36 -119 -28 -67
-39 -146 -19 -146 6 0 10 5 10 11 0 6 20 52 44 102 50 102 64 163 47 196 -12
21 -26 27 -34 14z"/>
<path d="M2120 2687 c-45 -15 -140 -106 -140 -135 0 -15 12 -28 39 -42 50 -25
116 -18 168 17 36 24 63 25 63 1 -1 -7 -5 -44 -10 -83 -8 -64 -7 -72 12 -92
29 -31 13 -48 -72 -73 -86 -26 -141 -26 -171 -1 l-24 20 23 41 c26 47 22 60
-17 60 -77 0 -105 -96 -44 -151 38 -33 104 -53 147 -45 101 20 190 60 230 104
17 19 17 29 8 106 -5 49 -18 102 -30 125 -11 21 -26 57 -31 79 -6 21 -19 46
-30 56 -24 22 -77 28 -121 13z m90 -52 c17 -20 5 -34 -54 -61 -60 -28 -84 -30
-93 -7 -8 19 38 63 67 63 10 0 22 5 25 10 9 15 41 12 55 -5z"/>
<path d="M435 2680 c-7 -12 11 -84 32 -123 19 -38 77 -63 111 -48 20 10 22 14
12 26 -7 8 -18 15 -24 15 -18 0 -63 51 -71 80 -8 27 -33 60 -46 60 -4 0 -11
-4 -14 -10z"/>
<path d="M910 2257 c-19 -7 -35 -19 -35 -27 0 -16 22 -18 68 -7 23 6 29 4 37
-19 19 -48 -40 -295 -97 -408 -35 -70 -62 -92 -125 -105 -64 -14 -98 -42 -82
-69 16 -25 47 -26 93 -3 22 12 58 21 80 21 59 0 231 -70 325 -133 181 -120
387 -179 550 -157 108 15 171 41 222 91 56 55 47 68 -15 24 -78 -56 -120 -67
-261 -67 -177 -1 -245 21 -439 145 -112 71 -216 121 -291 141 -58 15 -63 25
-30 61 50 56 111 251 126 402 11 115 -24 145 -126 110z"/>
<path d="M266 2159 c-32 -11 -65 -18 -72 -15 -11 4 -14 -16 -14 -104 0 -60 5
-130 12 -155 10 -36 10 -50 0 -65 -7 -11 -12 -31 -12 -45 0 -26 14 -33 25 -15
9 14 35 -7 35 -26 0 -27 54 -150 101 -230 46 -78 91 -121 145 -138 39 -12 104
92 104 166 0 54 -24 24 -60 -75 -18 -50 -39 -46 -96 17 -35 38 -59 76 -70 110
-9 28 -20 56 -24 61 -4 6 -20 39 -35 74 -31 75 -26 99 27 123 18 9 60 28 93
44 33 16 77 28 98 28 23 0 37 5 37 13 0 24 -39 53 -71 53 -31 0 -124 -47 -188
-95 -19 -14 -38 -25 -41 -25 -3 0 -12 24 -19 53 -6 28 -19 75 -28 103 -20 62
-13 84 24 84 41 1 138 43 138 60 0 23 -43 22 -109 -1z"/>
<path d="M2205 2153 c-11 -2 -96 -22 -190 -44 -170 -40 -211 -57 -187 -81 9
-9 41 -6 139 11 71 13 153 30 183 38 30 8 91 20 135 27 68 10 80 15 80 32 0
17 -8 19 -70 21 -38 0 -79 -1 -90 -4z"/>
<path d="M193 423 c-10 -3 -13 -38 -13 -124 l0 -119 1175 0 1175 0 0 94 c0 52
-3 97 -7 99 -5 3 -105 8 -223 11 -118 4 -276 9 -350 12 -236 8 -484 13 -890
19 -217 3 -498 7 -625 9 -126 3 -236 2 -242 -1z"/>
</g>
</svg>
