<?xml version="1.0" standalone="no"?>
<!DOCTYPE svg PUBLIC "-//W3C//DTD SVG 20010904//EN"
 "http://www.w3.org/TR/2001/REC-SVG-20010904/DTD/svg10.dtd">
<svg version="1.0" xmlns="http://www.w3.org/2000/svg"
 width="240.000000pt" height="391.000000pt" viewBox="0 0 240.000000 391.000000"
 preserveAspectRatio="xMidYMid meet">
<metadata>
Created by potrace 1.16, written by Peter Selinger 2001-2019
</metadata>
<g transform="translate(0.000000,391.000000) scale(0.100000,-0.100000)"
fill="#000000" stroke="none">
<path d="M1254 2918 c-43 -45 -93 -126 -165 -269 -51 -99 -62 -131 -67 -184
-5 -70 10 -108 48 -120 22 -7 47 8 151 92 36 29 81 59 101 67 41 18 121 92
115 109 -2 7 -11 13 -20 15 -17 4 -144 -76 -242 -152 -92 -72 -118 -51 -67 57
108 228 128 262 194 329 39 40 48 55 41 67 -18 29 -56 24 -89 -11z"/>
<path d="M300 2681 c-30 -9 -65 -23 -77 -30 -33 -17 -29 -47 8 -60 26 -9 41
-6 97 17 77 33 97 56 68 78 -24 17 -28 17 -96 -5z"/>
<path d="M651 2623 c-17 -15 -22 -35 -29 -108 -4 -49 -7 -130 -7 -180 1 -49
-2 -169 -8 -265 -12 -220 0 -355 33 -382 15 -12 31 -16 49 -12 27 7 71 41 71
56 0 4 16 32 35 63 20 30 38 63 42 73 3 9 12 24 19 32 16 19 22 83 9 90 -10 4
-62 -72 -109 -160 -13 -25 -33 -53 -44 -63 -20 -18 -21 -18 -33 5 -15 26 -14
206 1 353 5 50 10 142 10 206 0 133 13 214 38 242 16 18 16 20 -13 43 -36 29
-37 29 -64 7z"/>
<path d="M1259 2393 c-6 -15 -17 -41 -23 -58 -7 -16 -21 -66 -31 -110 -21 -92
-28 -104 -50 -85 -12 10 -15 27 -13 59 4 67 -20 60 -45 -12 l-21 -57 37 -38
c20 -21 37 -44 37 -51 0 -39 -88 -321 -107 -343 -8 -9 -29 -20 -47 -24 -65
-13 -101 -80 -55 -105 17 -9 32 -6 78 14 71 31 168 41 418 42 137 0 195 4 204
12 10 10 6 15 -16 23 -61 23 -241 41 -375 38 -125 -3 -135 -2 -138 16 -4 17
13 71 43 141 20 47 43 116 54 160 6 22 29 62 52 90 76 92 83 122 49 236 -24
79 -36 91 -51 52z m31 -167 c0 -8 -4 -17 -9 -21 -12 -7 -24 12 -16 25 9 15 25
12 25 -4z"/>
<path d="M267 2393 c-4 -3 -24 -9 -44 -12 -37 -6 -38 -7 -41 -54 -4 -55 6 -59
52 -19 17 15 42 34 55 43 17 10 22 21 18 32 -6 17 -28 23 -40 10z"/>
<path d="M272 2112 c-3 -8 -24 -22 -48 -33 -38 -16 -44 -22 -44 -49 0 -33 6
-36 34 -15 11 8 28 15 38 15 9 0 22 8 27 19 6 10 26 28 46 40 19 11 35 24 35
29 0 15 -82 9 -88 -6z"/>
<path d="M241 1968 c-39 -104 -61 -223 -61 -332 0 -80 3 -95 20 -111 41 -37
69 3 52 74 -9 33 -9 70 -2 131 20 162 24 260 11 260 -6 0 -15 -10 -20 -22z"/>
<path d="M2114 1335 c-90 -92 -122 -139 -165 -247 -33 -79 -38 -151 -13 -186
20 -29 30 -28 64 10 22 24 33 29 41 21 6 -6 16 -72 23 -147 12 -134 12 -136
46 -171 38 -39 55 -43 88 -19 17 11 22 25 22 56 l0 40 -18 -23 c-38 -46 -72 9
-72 118 0 91 -29 198 -62 230 -25 24 -31 26 -50 14 -34 -21 -47 2 -24 42 11
18 28 49 39 69 10 21 57 76 103 122 73 75 84 90 84 121 0 20 -5 35 -12 35 -6
0 -49 -38 -94 -85z m-130 -362 c8 -19 -8 -38 -23 -29 -16 10 -13 46 3 46 8 0
17 -8 20 -17z"/>
<path d="M1056 1268 c-37 -13 -101 -51 -288 -170 -84 -53 -180 -110 -213 -126
-33 -17 -76 -47 -95 -67 -34 -35 -34 -37 -16 -51 29 -21 41 -18 109 27 34 23
87 56 117 72 69 39 228 143 257 170 13 11 26 18 29 14 15 -15 -54 -96 -278
-326 -169 -173 -191 -206 -138 -206 17 0 35 14 62 50 21 28 47 54 58 59 47 21
56 -21 68 -302 7 -163 7 -164 35 -188 53 -46 96 -24 53 27 -25 29 -26 36 -26
155 0 136 -19 253 -51 317 l-20 38 36 40 c20 22 66 70 104 107 134 133 271
302 271 336 0 13 -30 38 -42 35 -2 0 -16 -5 -32 -11z"/>
<path d="M1356 1207 c-103 -108 -126 -137 -160 -204 -45 -89 -46 -120 -6 -158
26 -25 30 -35 28 -75 -2 -42 -5 -46 -23 -42 -11 2 -34 17 -50 33 -48 45 -88
55 -127 32 -41 -23 -94 -101 -108 -156 -6 -23 -15 -50 -20 -59 -6 -10 -10 -19
-10 -20 0 -2 36 -3 80 -3 55 0 80 4 80 12 0 6 -12 13 -27 15 -24 3 -28 8 -31
39 -3 31 2 41 33 68 47 41 77 40 134 -6 2 -1 -4 -12 -15 -24 -15 -16 -19 -36
-19 -87 l0 -66 -60 -11 c-45 -7 -61 -15 -63 -28 -6 -28 17 -47 58 -47 21 0 43
-7 50 -15 7 -8 23 -15 36 -15 20 0 26 8 35 44 6 25 20 52 30 62 10 9 19 30 19
46 0 18 5 28 15 28 11 0 15 -11 15 -41 0 -78 18 -115 91 -179 87 -78 99 -82
181 -61 71 17 107 43 132 95 8 18 29 49 46 70 33 43 38 84 19 162 -19 75 -103
127 -176 109 -46 -11 -139 -117 -159 -180 -16 -50 -16 -56 -2 -72 9 -10 19
-33 23 -51 10 -48 -17 -42 -55 13 -23 34 -33 63 -42 124 l-11 79 70 69 c38 38
75 85 83 104 7 19 24 47 37 62 21 27 30 66 17 79 -3 3 -26 -1 -51 -8 -66 -20
-75 -6 -35 51 18 25 32 48 32 51 0 3 11 22 25 42 25 37 33 76 17 86 -13 8 -66
-52 -106 -119 -95 -159 -137 -201 -144 -145 -9 59 45 148 170 277 25 27 29 35
18 48 -19 23 -29 19 -74 -28z m44 -371 c0 -17 -12 -34 -37 -52 -21 -16 -46
-37 -55 -48 -12 -15 -20 -18 -28 -10 -8 8 -5 18 10 36 11 15 20 30 20 34 0 4
12 21 27 36 34 36 63 37 63 4z m231 -202 c19 -17 21 -27 17 -106 -4 -81 -7
-90 -34 -119 -36 -39 -70 -56 -114 -61 -35 -3 -35 -3 -34 37 1 22 11 73 22
114 12 41 18 87 15 102 -10 51 1 62 57 57 30 -3 59 -13 71 -24z"/>
<path d="M2198 973 c-22 -24 -23 -47 -3 -63 22 -18 27 -9 23 40 -3 41 -3 42
-20 23z"/>
<path d="M852 383 c2 -10 8 -18 13 -18 5 0 11 8 13 18 2 10 -3 17 -13 17 -10
0 -15 -7 -13 -17z"/>
</g>
</svg>
