<?xml version="1.0" standalone="no"?>
<!DOCTYPE svg PUBLIC "-//W3C//DTD SVG 20010904//EN"
 "http://www.w3.org/TR/2001/REC-SVG-20010904/DTD/svg10.dtd">
<svg version="1.0" xmlns="http://www.w3.org/2000/svg"
 width="284.000000pt" height="376.000000pt" viewBox="0 0 284.000000 376.000000"
 preserveAspectRatio="xMidYMid meet">
<metadata>
Created by potrace 1.16, written by Peter Selinger 2001-2019
</metadata>
<g transform="translate(0.000000,376.000000) scale(0.100000,-0.100000)"
fill="#000000" stroke="none">
<path d="M2635 3032 c-86 -70 -259 -304 -290 -392 -31 -87 -8 -164 55 -184 24
-7 35 -17 35 -30 0 -33 -27 -41 -90 -27 -61 14 -80 35 -50 57 30 22 10 27 -51
12 -73 -17 -87 -37 -54 -74 30 -32 100 -64 140 -64 16 0 31 -4 34 -9 3 -5 -29
-78 -72 -163 -122 -245 -145 -296 -146 -334 -1 -43 22 -59 31 -23 9 32 108
223 142 275 16 22 31 53 35 69 4 16 25 57 47 91 41 63 74 85 146 99 18 4 50
15 73 26 35 17 40 24 40 53 l0 34 -57 -24 c-62 -25 -93 -30 -93 -15 0 15 66
62 107 76 34 12 38 17 41 50 2 24 0 35 -7 30 -19 -11 -23 22 -7 54 9 16 16 52
16 78 l-1 48 -25 -30 c-14 -16 -49 -66 -78 -110 -44 -66 -58 -81 -82 -83 -40
-4 -67 19 -67 55 0 66 100 232 204 339 46 46 50 55 47 92 -3 39 -4 40 -23 24z"/>
<path d="M1372 2928 l-34 -21 6 -81 c3 -45 8 -116 12 -158 l6 -78 -28 -11
c-16 -6 -45 -13 -64 -16 -47 -8 -90 -39 -90 -66 0 -11 12 -33 26 -48 l26 -27
-28 -14 c-65 -32 -53 -86 28 -126 46 -23 48 -23 103 -7 62 18 75 14 75 -19 0
-19 -12 -29 -55 -50 -55 -28 -200 -169 -252 -248 -33 -49 -29 -103 7 -103 21
0 26 6 30 37 4 29 19 53 69 104 89 91 159 146 185 142 15 -2 23 -13 28 -43 9
-50 25 -224 33 -370 9 -163 23 -275 36 -292 18 -21 55 -13 51 12 -17 139 -23
213 -33 405 -6 124 -17 247 -24 275 -9 33 -10 54 -3 62 6 8 6 18 -1 32 -6 11
-11 46 -11 79 0 47 5 66 25 93 38 52 47 79 34 95 -6 8 -19 14 -29 14 -25 0
-44 25 -28 37 22 17 51 26 103 32 59 7 71 30 30 57 -24 16 -30 16 -85 0 -33
-9 -66 -16 -74 -16 -19 0 -28 39 -32 135 -2 44 -7 92 -12 105 -8 20 -6 30 10
47 19 20 19 53 1 53 -4 0 -23 -10 -41 -22z m-30 -440 c-6 -6 -15 -8 -19 -4 -4
4 -1 11 7 16 19 12 27 3 12 -12z m35 -95 c7 -17 -29 -53 -53 -53 -19 0 -18 29
3 52 20 22 42 23 50 1z"/>
<path d="M181 2465 c-1 -159 0 -160 18 -136 53 69 54 210 1 273 -19 23 -19 23
-19 -137z"/>
<path d="M855 2549 c-34 -30 -35 -33 -35 -103 1 -100 23 -239 39 -244 24 -8
31 22 31 144 0 83 5 135 15 165 26 73 7 88 -50 38z"/>
<path d="M2640 2114 c-27 -32 -62 -119 -58 -145 5 -35 38 -31 60 8 14 24 18
47 16 93 -3 58 -4 61 -18 44z"/>
<path d="M802 2098 c-19 -19 -14 -36 16 -52 45 -24 79 -68 87 -113 13 -79 -49
-359 -97 -443 -12 -19 -32 -45 -46 -57 -21 -17 -26 -31 -26 -70 -1 -43 1 -48
22 -51 31 -5 56 19 81 79 21 48 23 49 64 49 23 0 56 -8 72 -19 69 -41 343
-112 490 -126 131 -12 509 41 561 80 19 13 19 14 0 21 -10 4 -53 2 -95 -5
-111 -17 -404 -32 -491 -26 -117 9 -278 55 -465 133 -80 34 -79 30 -39 142 24
66 27 90 28 210 1 117 -2 140 -19 175 -29 57 -115 101 -143 73z"/>
<path d="M1560 2100 c0 -5 5 -10 11 -10 5 0 7 5 4 10 -3 6 -8 10 -11 10 -2 0
-4 -4 -4 -10z"/>
<path d="M1590 2054 c0 -36 62 -114 112 -140 47 -24 118 -14 118 18 0 4 -17
12 -39 18 -21 5 -69 35 -106 65 -70 58 -85 65 -85 39z"/>
<path d="M2395 1990 c3 -5 8 -10 11 -10 2 0 4 5 4 10 0 6 -5 10 -11 10 -5 0
-7 -4 -4 -10z"/>
<path d="M180 1960 c0 -26 6 -33 47 -53 52 -24 64 -48 38 -77 -32 -36 10 -55
53 -24 38 26 30 75 -19 119 -35 31 -94 65 -114 65 -3 0 -5 -14 -5 -30z"/>
<path d="M2417 1918 c-2 -7 -1 -58 4 -113 4 -55 8 -134 9 -175 1 -93 25 -156
66 -166 15 -4 56 -29 93 -57 l66 -50 3 36 c3 30 -2 41 -30 66 l-33 30 33 63
c28 54 33 73 32 134 0 69 -1 72 -27 82 -55 21 -74 24 -88 12 -21 -17 -19 -40
7 -67 20 -21 21 -27 9 -59 -10 -28 -10 -38 0 -50 10 -12 8 -19 -10 -37 -22
-22 -22 -22 -37 -3 -9 14 -14 46 -14 100 0 80 -22 212 -41 247 -11 22 -35 25
-42 7z"/>
<path d="M180 1448 l0 -187 104 -55 c71 -39 114 -56 140 -56 49 0 48 26 -1 39
-20 6 -53 23 -72 39 -20 16 -59 41 -87 55 -72 36 -82 51 -60 88 27 46 27 173
-1 224 l-22 40 -1 -187z"/>
<path d="M1720 268 c-11 -18 -20 -38 -20 -45 0 -6 -3 -18 -6 -27 -5 -13 1 -16
29 -16 28 0 36 4 41 24 7 28 -2 84 -15 92 -5 3 -18 -10 -29 -28z"/>
</g>
</svg>
