<?xml version="1.0" standalone="no"?>
<!DOCTYPE svg PUBLIC "-//W3C//DTD SVG 20010904//EN"
 "http://www.w3.org/TR/2001/REC-SVG-20010904/DTD/svg10.dtd">
<svg version="1.0" xmlns="http://www.w3.org/2000/svg"
 width="288.000000pt" height="378.000000pt" viewBox="0 0 288.000000 378.000000"
 preserveAspectRatio="xMidYMid meet">
<metadata>
Created by potrace 1.16, written by Peter Selinger 2001-2019
</metadata>
<g transform="translate(0.000000,378.000000) scale(0.100000,-0.100000)"
fill="#000000" stroke="none">
<path d="M1665 2759 c-38 -5 -148 -11 -243 -15 -95 -4 -174 -10 -177 -14 -6
-9 19 -78 34 -93 9 -9 17 -8 34 2 13 9 67 17 132 21 110 7 125 6 125 -9 0 -11
-92 -150 -116 -176 -51 -55 -168 -221 -214 -302 -21 -39 -22 -73 -1 -73 5 0
23 24 39 53 28 49 108 147 226 278 28 31 62 73 76 94 29 44 79 93 112 109 13
6 24 21 26 34 2 12 19 35 39 51 19 16 32 34 29 40 -8 12 -16 12 -121 0z"/>
<path d="M2435 2725 c-77 -18 -134 -42 -141 -60 -8 -21 13 -53 48 -71 31 -16
32 -16 51 10 28 39 88 66 147 66 69 0 105 -21 134 -78 l25 -47 1 55 c0 52 -3
59 -40 95 -37 36 -45 39 -102 41 -35 1 -90 -4 -123 -11z"/>
<path d="M2277 2552 c-13 -14 -18 -51 -23 -164 l-7 -147 29 -12 c46 -18 160
-23 235 -10 76 14 89 24 65 50 -14 16 -30 17 -140 13 -71 -3 -126 -1 -129 5
-3 5 -1 27 4 49 18 76 29 207 17 221 -15 18 -32 16 -51 -5z"/>
<path d="M993 2525 c-11 -8 -24 -31 -28 -52 -3 -21 -24 -99 -45 -173 -43 -150
-52 -211 -32 -217 8 -3 26 24 47 72 19 42 35 80 35 84 0 9 41 97 64 137 21 39
37 53 63 56 32 4 42 25 16 35 -10 3 -32 21 -49 40 -36 37 -41 39 -71 18z"/>
<path d="M2387 2473 c-37 -36 144 -82 216 -54 32 12 35 36 8 51 -21 11 -214
14 -224 3z"/>
<path d="M2667 2270 c-30 -99 -25 -130 12 -80 19 26 21 41 19 101 l-3 71 -28
-92z"/>
<path d="M1565 2270 c-16 -26 88 -166 146 -195 37 -20 78 -19 86 1 4 12 -7 28
-38 53 -24 19 -70 62 -101 93 -56 56 -80 69 -93 48z"/>
<path d="M1415 2079 c-4 -6 0 -18 9 -27 15 -15 16 -15 16 5 0 25 -15 38 -25
22z"/>
<path d="M2605 2033 c-149 -53 -432 -133 -470 -133 -23 0 -45 -4 -51 -9 -5 -5
-22 -11 -39 -13 -18 -2 -30 -9 -30 -18 0 -18 39 -27 120 -29 57 -1 238 39 309
68 17 7 41 11 55 9 23 -3 26 -7 24 -38 -15 -225 -15 -300 -1 -300 20 0 34 52
53 187 25 173 33 194 83 217 37 17 42 23 42 53 0 39 -3 39 -95 6z"/>
<path d="M1430 1949 c-8 -14 -12 -68 -12 -148 0 -174 29 -261 89 -261 26 0 31
21 9 39 -21 18 -33 83 -44 235 -11 143 -21 176 -42 135z"/>
<path d="M750 1825 c-22 -27 -6 -49 63 -84 43 -21 72 -43 81 -60 16 -31 26
-104 17 -118 -3 -6 -33 -13 -65 -17 -72 -8 -129 -32 -218 -92 -76 -52 -92 -86
-63 -130 58 -89 258 -64 323 41 34 56 73 95 93 95 10 0 33 -9 51 -21 396 -247
424 -258 588 -238 114 13 251 64 327 121 84 62 53 66 -68 9 -122 -58 -205 -75
-323 -69 -77 4 -91 9 -194 60 -61 31 -127 69 -147 85 -21 15 -78 48 -128 73
l-92 45 -11 80 c-6 44 -16 92 -22 106 -13 31 -70 78 -133 107 -54 26 -63 27
-79 7z m120 -352 c0 -27 -77 -111 -121 -133 -87 -45 -171 -1 -106 57 77 69
227 119 227 76z"/>
<path d="M2334 1734 c-9 -14 -29 -31 -44 -39 -21 -11 -48 -54 -107 -172 -86
-169 -114 -253 -96 -281 16 -26 27 -19 43 25 8 22 20 46 26 54 6 8 16 27 21
43 15 48 37 55 70 24 32 -31 328 -181 388 -197 60 -16 65 -15 65 24 0 27 -4
35 -18 35 -19 0 -227 100 -309 148 -27 16 -65 35 -85 41 -61 20 -64 33 -20 91
44 58 112 188 112 213 0 26 -27 20 -46 -9z"/>
<path d="M2668 1732 c-16 -9 -28 -20 -28 -23 0 -7 53 -20 58 -14 2 2 2 15 0
29 -3 25 -3 25 -30 8z"/>
</g>
</svg>
