<?xml version="1.0" standalone="no"?>
<!DOCTYPE svg PUBLIC "-//W3C//DTD SVG 20010904//EN"
 "http://www.w3.org/TR/2001/REC-SVG-20010904/DTD/svg10.dtd">
<svg version="1.0" xmlns="http://www.w3.org/2000/svg"
 width="274.000000pt" height="345.000000pt" viewBox="0 0 274.000000 345.000000"
 preserveAspectRatio="xMidYMid meet">
<metadata>
Created by potrace 1.16, written by Peter Selinger 2001-2019
</metadata>
<g transform="translate(0.000000,345.000000) scale(0.100000,-0.100000)"
fill="#000000" stroke="none">
<path d="M1193 2614 c-5 -14 -2 -135 10 -449 l2 -40 -45 -5 c-40 -4 -45 -8
-45 -30 0 -23 5 -25 50 -30 l50 -5 7 -50 c12 -82 27 -318 22 -327 -3 -5 -23
-17 -45 -28 -21 -11 -39 -27 -39 -34 0 -21 24 -36 48 -29 34 9 49 -12 56 -80
11 -102 37 -205 58 -233 25 -31 43 -19 29 18 -13 34 -33 243 -29 302 3 48 4
49 46 61 23 7 49 18 57 25 21 18 32 6 45 -52 21 -90 67 -123 57 -40 -21 165
-23 146 18 171 52 30 145 112 145 127 0 7 -4 16 -10 19 -10 6 -87 -42 -132
-83 -14 -13 -32 -22 -40 -20 -8 3 -18 49 -29 139 -19 157 -17 165 57 191 68
24 159 80 159 98 0 23 -43 16 -122 -18 -37 -17 -80 -33 -94 -37 -26 -6 -26 -6
-32 62 -11 137 -37 325 -48 344 -6 11 -16 18 -22 16 -17 -5 -15 -237 3 -350
16 -102 10 -114 -55 -119 -39 -3 -39 -2 -46 37 -15 80 -22 324 -11 338 11 13
10 96 -2 116 -11 17 -66 13 -73 -5z m201 -552 c6 -10 32 -164 41 -243 l7 -56
-48 -27 c-26 -15 -55 -25 -63 -24 -20 4 -31 77 -32 218 0 96 2 106 22 122 22
19 64 24 73 10z"/>
<path d="M2368 2351 c-18 -16 -46 -53 -62 -82 -15 -30 -55 -101 -87 -159 -32
-58 -65 -125 -74 -149 -17 -49 -21 -211 -5 -211 6 0 10 15 10 33 0 57 36 161
86 248 68 119 180 268 209 279 14 5 25 13 25 18 0 8 -54 52 -64 52 -3 0 -20
-13 -38 -29z"/>
<path d="M238 2282 c-50 -23 -58 -30 -58 -54 0 -16 4 -28 9 -28 31 0 137 83
127 99 -9 14 -10 14 -78 -17z"/>
<path d="M841 2211 c-32 -59 -40 -341 -11 -376 21 -25 30 -6 30 65 0 38 4 91
9 117 33 170 35 182 21 197 -17 21 -37 20 -49 -3z"/>
<path d="M180 1940 c0 -10 9 -24 20 -30 11 -6 20 -17 20 -24 0 -7 -9 -21 -20
-31 -18 -16 -20 -31 -20 -155 0 -123 2 -139 19 -151 15 -11 20 -32 25 -97 6
-81 6 -82 -19 -94 -19 -9 -25 -19 -25 -45 0 -25 4 -33 18 -33 17 0 19 -13 25
-142 9 -194 40 -315 83 -332 30 -12 36 9 15 50 -26 49 -43 251 -34 389 l6 97
53 24 c29 13 73 41 98 62 25 20 55 44 67 53 27 18 20 49 -11 49 -11 0 -51 -22
-88 -49 -98 -69 -111 -76 -119 -56 -12 34 6 147 34 203 21 44 29 75 31 133 4
77 4 77 -34 119 -60 66 -144 102 -144 60z m106 -101 c22 -43 22 -103 0 -171
-23 -71 -40 -88 -64 -64 -23 23 -23 151 0 198 9 18 19 41 22 51 8 26 24 21 42
-14z"/>
<path d="M2253 1890 c-15 -6 -23 -18 -23 -33 0 -22 5 -25 55 -29 33 -3 62 -12
74 -22 33 -30 72 -125 86 -215 21 -126 37 -403 24 -416 -5 -5 -48 -10 -94 -10
-69 0 -88 4 -112 21 -28 21 -28 22 -34 160 -4 76 -11 161 -17 189 -12 60 -8
71 24 51 30 -20 94 -21 94 -2 0 17 -16 29 -60 46 -19 7 -43 20 -52 28 -9 8
-21 11 -27 8 -5 -4 -15 3 -21 14 -22 42 -32 21 -26 -57 3 -43 9 -203 14 -355
4 -152 11 -280 15 -284 18 -18 32 19 29 76 -4 73 8 81 77 56 55 -19 102 -20
156 -1 29 10 43 11 52 3 10 -8 17 -8 26 1 15 15 11 417 -4 506 -12 69 -48 161
-79 205 -40 56 -120 83 -177 60z"/>
<path d="M790 1590 c-9 -18 -7 -25 18 -48 24 -23 31 -39 36 -87 7 -72 -4 -135
-24 -145 -52 -24 -72 -39 -99 -74 -43 -53 -41 -88 4 -116 32 -20 39 -21 67 -9
21 9 37 26 50 56 10 24 26 43 34 43 9 0 37 -18 62 -41 26 -23 67 -53 92 -67
25 -14 86 -57 135 -94 172 -130 306 -163 428 -106 73 34 67 54 -8 27 -30 -10
-68 -19 -85 -19 -46 0 -193 73 -277 137 -42 32 -103 78 -137 102 -33 24 -84
62 -112 85 -28 23 -59 46 -68 51 -15 9 -16 18 -7 75 6 36 11 87 11 114 0 46
-3 53 -46 93 -26 24 -50 43 -55 43 -5 0 -13 -9 -19 -20z m5 -391 c-9 -16 -20
-27 -25 -24 -15 9 -12 26 6 46 24 27 36 12 19 -22z"/>
</g>
</svg>
