<?xml version="1.0" standalone="no"?>
<!DOCTYPE svg PUBLIC "-//W3C//DTD SVG 20010904//EN"
 "http://www.w3.org/TR/2001/REC-SVG-20010904/DTD/svg10.dtd">
<svg version="1.0" xmlns="http://www.w3.org/2000/svg"
 width="226.000000pt" height="385.000000pt" viewBox="0 0 226.000000 385.000000"
 preserveAspectRatio="xMidYMid meet">
<metadata>
Created by potrace 1.16, written by Peter Selinger 2001-2019
</metadata>
<g transform="translate(0.000000,385.000000) scale(0.100000,-0.100000)"
fill="#000000" stroke="none">
<path d="M1159 2813 c-17 -20 -16 -146 1 -230 14 -67 10 -72 -77 -98 -51 -15
-71 -16 -115 -7 -62 12 -78 3 -55 -32 20 -29 85 -50 127 -41 37 8 44 -6 25
-51 -8 -20 -15 -43 -15 -50 0 -20 18 -17 25 4 3 9 26 40 51 67 42 47 46 49 59
32 16 -22 30 -154 20 -186 -8 -25 -96 -119 -137 -145 -25 -17 -29 -17 -63 0
-36 17 -37 17 -62 -8 -14 -14 -22 -31 -19 -37 4 -6 36 -11 75 -11 59 0 73 4
108 29 22 16 57 50 78 75 42 51 62 55 56 10 -2 -20 -30 -59 -88 -122 -55 -59
-83 -98 -79 -107 9 -26 23 -17 95 58 48 49 73 69 80 62 6 -6 12 -49 13 -95 l3
-85 -74 -7 c-76 -6 -109 -24 -98 -52 5 -12 26 -16 99 -18 l92 -3 8 -37 c4 -21
4 -55 0 -75 -6 -33 -15 -42 -57 -63 -109 -55 -272 -89 -290 -60 -10 16 -41 12
-66 -9 -22 -18 -23 -21 -8 -36 9 -9 45 -21 81 -27 60 -11 71 -9 152 16 48 16
108 39 133 53 25 13 50 20 54 16 4 -4 4 -91 -1 -193 -7 -140 -14 -201 -30
-252 -23 -74 -73 -138 -109 -138 -12 0 -21 -6 -21 -15 0 -18 25 -19 69 -4 39
14 101 103 119 171 18 73 32 213 33 349 l2 124 70 66 c46 43 68 70 63 78 -6 9
-15 6 -35 -12 -14 -13 -41 -34 -59 -46 -39 -27 -45 -19 -40 60 l3 54 80 13
c69 12 123 25 244 60 14 4 23 12 20 17 -4 10 -66 13 -133 5 l-39 -5 -22 75
c-47 158 -82 200 -165 200 -45 0 -48 1 -54 31 -8 40 -4 44 49 68 55 24 77 57
73 108 -2 30 -7 38 -23 38 -16 0 -20 -7 -20 -39 -1 -28 -7 -43 -24 -58 -34
-26 -46 -10 -46 62 0 51 -4 63 -29 89 -32 34 -29 44 23 71 42 21 123 94 115
103 -8 8 -31 -2 -103 -46 -47 -28 -67 -35 -75 -27 -7 7 -11 57 -11 133 -1 67
-4 128 -8 135 -11 17 -32 15 -48 -5z m230 -740 c22 -19 81 -153 81 -184 0 -24
-6 -26 -76 -34 l-61 -7 -12 111 c-7 60 -10 115 -6 121 10 16 51 12 74 -7z"/>
<path d="M1906 2703 c-4 -5 -14 -21 -22 -38 -21 -44 -39 -73 -57 -93 -10 -10
-17 -22 -17 -26 0 -7 -34 -82 -95 -211 -41 -86 -53 -135 -32 -135 8 0 33 36
56 83 107 210 134 257 152 257 5 0 48 -36 96 -80 l88 -80 3 38 c3 33 -1 41
-42 79 -26 23 -63 47 -84 53 -56 19 -59 26 -26 62 54 59 58 66 44 83 -13 16
-51 20 -64 8z"/>
<path d="M506 2226 c-74 -79 -96 -113 -105 -160 -5 -25 -14 -52 -20 -60 -7 -8
-8 -17 -3 -20 6 -3 18 7 28 22 28 42 167 202 176 202 18 0 20 -35 9 -118 -18
-128 -93 -426 -111 -437 -4 -3 -34 23 -67 58 -65 69 -136 122 -152 112 -19
-11 13 -56 103 -145 47 -46 86 -93 86 -103 0 -10 -9 -30 -20 -44 -21 -27 -26
-53 -10 -53 5 0 22 16 37 35 15 19 32 35 36 35 4 0 29 -19 55 -43 67 -61 122
-102 162 -121 19 -9 46 -23 60 -31 27 -16 74 -20 68 -6 -1 5 -34 30 -73 56
-82 56 -129 93 -197 155 -55 49 -55 47 -20 155 22 67 53 174 72 250 7 28 19
73 27 100 7 28 14 74 15 102 2 67 -26 103 -80 103 -28 0 -42 -8 -76 -44z"/>
<path d="M2015 2114 c-69 -37 -199 -67 -265 -62 -45 3 -45 3 -44 41 1 20 0 37
-3 37 -2 0 -22 -11 -44 -26 -52 -33 -52 -70 1 -97 64 -33 242 -7 357 51 48 25
66 45 61 69 -3 17 -8 16 -63 -13z"/>
<path d="M1844 1948 c-22 -24 -65 -66 -97 -95 -57 -52 -72 -88 -42 -99 19 -8
134 56 196 108 26 22 52 37 57 34 5 -3 -20 -64 -55 -136 -35 -73 -63 -141 -61
-153 2 -16 23 -32 71 -57 59 -30 73 -43 100 -90 18 -31 40 -67 50 -80 l17 -24
0 42 c0 29 -11 65 -35 112 -37 73 -35 71 -125 83 -28 4 -21 36 39 164 34 71
61 138 61 149 0 40 -45 59 -70 29 -24 -29 -42 -18 -34 20 5 30 4 35 -13 35
-11 0 -38 -19 -59 -42z"/>
</g>
</svg>
