<?xml version="1.0" standalone="no"?>
<!DOCTYPE svg PUBLIC "-//W3C//DTD SVG 20010904//EN"
 "http://www.w3.org/TR/2001/REC-SVG-20010904/DTD/svg10.dtd">
<svg version="1.0" xmlns="http://www.w3.org/2000/svg"
 width="259.000000pt" height="315.000000pt" viewBox="0 0 259.000000 315.000000"
 preserveAspectRatio="xMidYMid meet">
<metadata>
Created by potrace 1.16, written by Peter Selinger 2001-2019
</metadata>
<g transform="translate(0.000000,315.000000) scale(0.100000,-0.100000)"
fill="#000000" stroke="none">
<path d="M1068 2579 c-23 -13 -37 -66 -44 -169 -8 -108 13 -194 51 -212 29
-13 32 -34 9 -66 -22 -32 -39 -27 -74 23 -32 47 -50 55 -70 30 -29 -35 17
-101 94 -136 20 -10 30 -9 51 5 14 9 25 23 25 30 0 8 11 28 25 44 14 17 25 35
25 42 0 7 15 38 34 69 39 65 56 118 56 180 0 38 -5 49 -43 85 -34 33 -77 63
-117 83 -3 1 -13 -2 -22 -8z m116 -98 c35 -36 38 -43 33 -81 -7 -51 -66 -154
-92 -159 -34 -6 -45 26 -45 138 0 83 3 108 17 123 24 27 45 22 87 -21z"/>
<path d="M2387 2336 c-58 -68 -107 -141 -107 -156 0 -10 18 -34 41 -53 l41
-35 4 -434 c5 -441 13 -591 33 -611 8 -8 11 145 11 578 l0 590 -20 -32 c-18
-30 -40 -44 -40 -25 0 10 35 79 50 97 6 7 10 33 8 58 -3 44 -3 44 -21 23z"/>
<path d="M661 2117 c-60 -30 -79 -248 -41 -461 10 -60 22 -141 25 -180 9 -105
40 -202 71 -222 23 -16 26 -16 48 5 13 13 26 32 29 44 3 12 16 52 30 89 28 75
19 101 -12 39 -12 -22 -25 -42 -31 -46 -5 -3 -10 -15 -10 -26 0 -27 -30 -37
-46 -14 -7 10 -15 36 -18 59 -3 22 -13 106 -23 186 -10 80 -18 210 -18 290 0
132 2 148 22 175 41 59 28 90 -26 62z"/>
<path d="M193 2094 c-7 -3 -13 -17 -13 -30 0 -18 5 -24 23 -24 12 0 32 -3 44
-6 28 -8 43 21 22 41 -16 16 -58 26 -76 19z"/>
<path d="M196 1891 c-10 -11 -16 -31 -14 -47 l3 -28 38 33 c20 18 37 39 37 47
0 21 -44 17 -64 -5z"/>
<path d="M1089 1790 c-42 -44 -58 -85 -40 -103 6 -6 11 -39 11 -74 0 -57 2
-64 24 -74 20 -10 30 -8 54 10 39 27 42 27 42 -7 0 -34 -39 -91 -103 -149 -67
-62 -84 -58 -91 19 -3 23 -7 51 -11 60 -4 9 0 32 9 50 18 41 37 160 26 171 -4
5 -23 -22 -41 -60 -36 -71 -37 -81 -26 -278 2 -39 0 -41 -46 -63 -52 -25 -66
-44 -47 -67 18 -21 51 -19 116 10 31 14 66 25 78 25 11 0 41 8 66 16 55 20
121 20 218 -1 84 -17 92 -18 92 -7 0 4 -25 20 -56 35 l-56 28 8 37 c5 20 9
105 9 187 0 145 -1 151 -27 196 -20 34 -38 51 -68 63 -67 27 -98 21 -141 -24z
m146 -45 c20 -25 29 -54 37 -107 13 -96 11 -267 -3 -284 -8 -10 -32 -13 -93
-9 -44 2 -81 7 -81 9 0 3 23 24 50 47 60 49 61 51 80 112 18 59 8 89 -37 117
-45 27 -57 25 -55 -7 2 -22 -2 -28 -18 -28 -14 0 -21 9 -27 35 -11 54 7 108
45 130 47 29 72 25 102 -15z"/>
<path d="M197 1632 c-10 -10 -17 -32 -17 -48 l0 -29 25 30 c38 47 30 90 -8 47z"/>
<path d="M1934 974 c-3 -10 -11 -32 -16 -47 -20 -53 29 -65 60 -15 16 27 16
29 -10 55 -26 25 -28 26 -34 7z"/>
</g>
</svg>
