<?xml version="1.0" standalone="no"?>
<!DOCTYPE svg PUBLIC "-//W3C//DTD SVG 20010904//EN"
 "http://www.w3.org/TR/2001/REC-SVG-20010904/DTD/svg10.dtd">
<svg version="1.0" xmlns="http://www.w3.org/2000/svg"
 width="311.000000pt" height="372.000000pt" viewBox="0 0 311.000000 372.000000"
 preserveAspectRatio="xMidYMid meet">
<metadata>
Created by potrace 1.16, written by Peter Selinger 2001-2019
</metadata>
<g transform="translate(0.000000,372.000000) scale(0.100000,-0.100000)"
fill="#000000" stroke="none">
<path d="M1187 3451 c-103 -104 -107 -120 -33 -138 27 -7 54 -17 60 -23 5 -5
31 -10 58 -10 60 0 73 18 99 137 11 49 22 96 25 106 5 15 -2 17 -58 17 l-63
-1 -88 -88z m163 1 c0 -15 -33 -107 -43 -120 -7 -9 -13 -9 -23 -1 -21 17 -17
36 16 85 28 40 50 56 50 36z"/>
<path d="M1524 3518 c47 -66 51 -83 32 -155 -34 -127 -50 -212 -43 -219 13
-13 33 19 56 90 37 111 51 140 63 128 7 -7 6 -21 -2 -46 -18 -55 -1 -70 68
-63 40 4 69 16 120 50 37 24 90 57 117 72 28 16 70 49 95 72 25 24 68 54 95
68 l50 24 -115 1 -116 0 -19 -51 c-18 -46 -53 -84 -103 -113 -7 -4 -24 5 -43
23 l-30 31 29 27 c16 16 37 41 47 56 l19 29 -24 -4 c-14 -2 -37 -20 -55 -44
-16 -22 -40 -54 -51 -70 -18 -24 -25 -27 -40 -18 -30 18 -41 60 -21 82 25 28
22 52 -8 52 -14 0 -25 -4 -25 -10 0 -5 -7 -10 -15 -10 -8 0 -15 5 -15 10 0 6
-19 10 -41 10 -41 0 -41 0 -25 -22z m229 -135 c7 -12 -11 -53 -23 -53 -17 0
-23 29 -10 45 14 16 26 19 33 8z"/>
<path d="M2183 3504 c-38 -41 -42 -69 -13 -84 l21 -11 -21 -34 c-22 -36 -14
-53 19 -36 27 15 71 70 71 89 0 9 23 37 52 64 l52 48 -74 0 c-73 -1 -76 -1
-107 -36z"/>
<path d="M2310 3280 c0 -37 4 -43 47 -70 53 -34 120 -40 176 -16 55 22 116
106 78 106 -4 0 -28 -13 -52 -30 -62 -41 -112 -46 -169 -18 -25 13 -49 33 -55
46 -15 34 -25 27 -25 -18z"/>
<path d="M1334 2358 c-5 -7 14 -31 49 -63 31 -28 61 -64 67 -79 5 -15 10 -67
10 -116 0 -86 -1 -88 -29 -107 -15 -10 -63 -59 -105 -110 -56 -67 -84 -93
-103 -95 -39 -4 -38 -19 4 -60 165 -158 213 -217 213 -260 0 -41 -40 -102 -81
-123 -16 -9 -27 -20 -24 -25 11 -18 57 -10 87 15 17 14 36 24 42 22 6 -2 16
-37 21 -78 10 -69 12 -74 35 -74 23 0 25 4 28 50 2 28 7 54 11 58 5 4 32 -19
60 -52 29 -33 79 -77 112 -96 32 -20 59 -41 59 -45 0 -17 -101 -89 -141 -101
-61 -19 -160 0 -234 44 -67 39 -186 153 -244 231 -21 28 -64 78 -95 111 -53
54 -57 62 -51 93 8 42 -10 99 -43 134 -23 25 -24 31 -14 65 25 83 32 121 32
179 0 78 -33 188 -63 209 -41 29 -84 11 -54 -23 41 -47 69 -156 68 -272 l0
-85 -38 -32 -38 -33 48 -44 c39 -37 47 -50 47 -80 0 -31 -4 -38 -34 -50 -57
-24 -82 -93 -102 -276 -5 -48 16 -105 48 -124 20 -12 58 17 58 44 0 10 9 38
20 63 11 25 25 72 31 104 12 62 24 93 39 93 4 0 42 -42 83 -92 91 -114 205
-222 279 -266 81 -48 178 -61 261 -36 52 15 71 28 122 81 39 40 69 63 83 63
40 0 23 20 -43 52 -67 32 -156 116 -219 207 -25 36 -27 45 -18 67 17 36 15 55
-9 80 -20 22 -21 26 -9 126 7 57 15 148 19 203 l6 100 51 25 c27 14 61 30 74
35 42 17 36 41 -14 60 -54 21 -80 16 -131 -25 -43 -34 -61 -34 -58 1 19 195
14 212 -70 277 -54 42 -89 52 -103 30z m111 -602 c0 -81 -2 -149 -6 -151 -7
-5 -113 115 -122 138 -4 12 5 32 28 63 19 25 35 50 35 55 0 15 40 51 53 46 9
-3 12 -46 12 -151z m-504 -467 c-23 -117 -27 -129 -41 -129 -15 0 -21 54 -14
128 5 58 12 80 32 103 42 50 48 24 23 -102z"/>
<path d="M2865 1900 c-22 -16 -57 -41 -77 -55 -31 -20 -38 -31 -38 -58 0 -18
-4 -47 -9 -65 -7 -23 -6 -41 1 -58 11 -24 28 -33 28 -14 0 6 7 10 16 10 14 0
15 -23 10 -202 -5 -190 -16 -347 -32 -447 -6 -39 -5 -43 12 -39 15 2 23 23 40
102 26 117 47 311 45 419 -1 42 3 86 9 97 8 15 7 34 -5 72 -8 28 -15 72 -15
96 0 40 5 50 40 83 26 25 40 47 40 64 0 32 -16 31 -65 -5z"/>
<path d="M2740 1590 c0 -5 5 -10 10 -10 6 0 10 5 10 10 0 6 -4 10 -10 10 -5 0
-10 -4 -10 -10z"/>
<path d="M856 243 c-3 -4 -6 -19 -6 -35 0 -25 4 -28 31 -28 27 0 30 3 27 26
-3 26 -38 50 -52 37z"/>
</g>
</svg>
