<?xml version="1.0" standalone="no"?>
<!DOCTYPE svg PUBLIC "-//W3C//DTD SVG 20010904//EN"
 "http://www.w3.org/TR/2001/REC-SVG-20010904/DTD/svg10.dtd">
<svg version="1.0" xmlns="http://www.w3.org/2000/svg"
 width="271.000000pt" height="385.000000pt" viewBox="0 0 271.000000 385.000000"
 preserveAspectRatio="xMidYMid meet">
<metadata>
Created by potrace 1.16, written by Peter Selinger 2001-2019
</metadata>
<g transform="translate(0.000000,385.000000) scale(0.100000,-0.100000)"
fill="#000000" stroke="none">
<path d="M2304 2900 c-39 -16 -65 -79 -94 -232 -6 -32 -17 -61 -23 -65 -7 -5
-50 -15 -97 -23 -74 -13 -85 -18 -88 -37 -4 -27 17 -38 88 -46 56 -7 90 -31
90 -65 0 -15 -114 -131 -183 -185 -25 -19 -38 -40 -43 -63 -6 -31 -2 -40 24
-67 36 -37 35 -66 -4 -92 -13 -8 -24 -20 -24 -26 0 -19 -50 -72 -97 -102 -58
-36 -203 -168 -203 -184 0 -19 -56 -53 -89 -53 -21 0 -34 7 -42 22 -16 30 -31
338 -17 355 8 10 21 7 63 -17 29 -16 62 -30 74 -30 61 0 141 75 141 132 0 48
-30 125 -70 178 -22 29 -40 65 -40 78 0 14 9 64 21 113 11 48 19 99 17 111 -4
32 -39 35 -99 8 -27 -11 -73 -22 -102 -23 l-52 -2 -6 85 c-8 116 -30 155 -108
195 -81 41 -249 -13 -359 -116 -53 -49 -54 -50 -38 -74 22 -33 62 -59 81 -51
10 3 15 19 15 45 0 35 6 45 44 77 42 34 120 71 176 81 38 7 91 -34 112 -87 16
-38 17 -65 12 -175 -3 -71 -9 -154 -12 -184 l-7 -55 -70 -12 c-38 -6 -78 -15
-87 -19 -15 -6 -18 -2 -18 28 0 25 11 48 39 84 40 49 62 103 43 103 -21 0
-116 -124 -187 -244 -5 -10 -19 -18 -30 -19 -19 -2 -20 4 -20 80 0 72 3 84 24
106 28 30 21 47 -19 47 -42 0 -56 -29 -69 -145 -17 -141 -30 -163 -114 -196
-37 -14 -80 -35 -95 -46 -26 -20 -26 -22 -10 -39 16 -16 22 -17 55 -5 21 8 60
24 87 37 27 13 51 23 52 21 2 -2 0 -36 -3 -76 -6 -72 -7 -74 -40 -88 -40 -16
-39 -30 3 -54 18 -10 28 -23 26 -35 -1 -10 -5 -120 -9 -244 -4 -167 -3 -232 6
-248 22 -40 31 -13 31 91 0 56 7 147 16 202 8 55 18 139 23 188 8 86 26 127
56 127 7 0 18 7 25 15 7 8 22 15 34 15 24 0 86 35 86 49 0 5 -12 11 -27 13
-20 2 -29 9 -31 26 -2 12 -9 22 -16 22 -8 0 -19 7 -26 15 -10 12 -8 21 9 49
25 40 88 78 160 97 76 19 85 7 77 -101 -3 -47 -10 -101 -16 -120 -6 -19 -17
-80 -25 -135 -9 -63 -25 -128 -45 -175 -55 -129 -64 -156 -57 -173 7 -20 40
-22 54 -4 29 36 95 251 118 382 25 140 26 145 35 145 20 0 25 -33 31 -200 6
-141 11 -187 28 -235 24 -67 21 -99 -12 -116 -12 -7 -66 -50 -119 -96 -70 -61
-98 -91 -100 -111 -2 -21 -10 -28 -35 -33 -21 -4 -50 -25 -80 -56 -27 -28 -62
-57 -80 -66 -18 -10 -38 -29 -45 -44 -7 -15 -23 -32 -34 -38 -41 -20 -55 -38
-50 -61 6 -24 -7 -38 -44 -47 -36 -9 -182 -136 -330 -286 -146 -148 -169 -166
-235 -180 -28 -5 -66 -14 -85 -18 l-35 -9 -3 -157 -3 -157 1176 0 1175 0 0
370 c0 204 -3 371 -7 371 -5 1 -28 3 -53 4 -25 2 -79 15 -120 30 -41 15 -142
45 -224 66 -82 22 -155 44 -163 50 -7 6 -22 9 -33 6 -11 -3 -20 -1 -20 4 0 4
-17 13 -39 19 -41 11 -91 45 -91 62 0 10 43 48 65 58 21 9 85 87 85 103 0 9
27 37 60 62 33 25 60 49 60 53 0 4 27 36 60 72 32 36 59 71 60 79 0 21 60 92
86 101 12 5 46 37 75 72 29 35 66 73 83 86 17 12 50 43 74 68 l42 46 0 83 0
84 -31 -9 c-18 -5 -32 -11 -33 -12 0 -2 -7 -13 -14 -26 -7 -13 -10 -27 -7 -32
4 -6 -9 -10 -29 -10 -27 0 -39 -6 -55 -29 -12 -16 -21 -34 -21 -39 0 -6 -6
-12 -12 -15 -8 -3 -3 -12 15 -26 15 -13 25 -26 23 -30 -8 -13 -66 0 -66 15 0
17 -5 17 -31 4 -24 -13 -25 -30 -2 -30 14 0 14 -3 5 -12 -10 -10 -14 -10 -21
0 -6 10 -15 9 -45 -3 -27 -12 -38 -23 -43 -45 -3 -19 -17 -37 -38 -50 -18 -11
-41 -33 -51 -48 -9 -15 -42 -49 -72 -77 -98 -90 -272 -277 -324 -350 -20 -28
-59 -68 -86 -90 -28 -22 -56 -51 -64 -65 -7 -14 -26 -41 -43 -60 -17 -20 -41
-57 -54 -82 -12 -25 -28 -49 -36 -52 -8 -3 -15 -17 -15 -31 0 -26 -7 -39 -49
-79 -22 -22 -26 -23 -75 -11 -74 17 -115 37 -166 80 -47 39 -63 76 -29 68 13
-4 25 5 40 31 12 21 29 36 40 36 11 0 19 7 19 16 0 11 6 13 19 9 30 -9 54 48
41 95 -6 19 -10 36 -10 36 0 1 10 4 23 8 25 6 107 77 107 93 0 12 43 53 56 53
6 0 26 15 45 34 19 18 63 57 99 86 36 29 72 61 81 70 9 10 51 48 95 85 43 37
87 79 96 94 21 33 87 87 123 101 14 5 31 22 37 37 12 29 122 143 138 143 5 0
16 10 24 22 9 12 42 43 74 68 84 65 122 111 122 149 0 18 4 30 9 27 4 -3 18 6
31 19 13 13 26 22 31 20 4 -3 26 11 50 30 23 20 49 40 59 45 13 7 17 27 19
100 1 62 -1 90 -8 85 -6 -3 -11 -15 -11 -25 0 -10 -13 -30 -30 -43 -16 -14
-30 -30 -30 -35 0 -5 -11 -19 -25 -32 -20 -19 -28 -21 -37 -12 -10 10 -10 17
0 32 19 30 15 84 -8 105 -25 23 -19 31 46 60 30 13 57 32 60 42 3 10 10 26 15
35 23 44 -37 18 -141 -60 -34 -26 -89 -36 -96 -18 -9 23 23 135 57 203 37 74
33 93 -17 73z m18 -362 c-6 -24 -9 -54 -5 -67 3 -12 0 -33 -8 -47 -11 -21 -10
-29 5 -55 19 -33 14 -71 -6 -51 -18 18 -26 15 -30 -10 -2 -18 -11 -24 -35 -26
-32 -3 -33 -3 -33 38 0 45 11 72 43 108 18 19 19 26 9 42 -21 33 -14 70 19
102 40 41 56 27 41 -34z m-687 2 c3 -5 -19 -41 -49 -79 -31 -39 -56 -74 -56
-78 0 -10 67 -78 133 -136 46 -40 49 -46 54 -102 5 -55 3 -62 -20 -84 -21 -19
-33 -22 -64 -17 -21 3 -58 9 -82 12 -40 6 -45 11 -63 51 -16 36 -19 63 -17
133 2 72 0 93 -14 108 -34 37 -13 132 30 132 7 0 35 16 61 35 48 35 76 43 87
25z m515 -248 c0 -26 -27 -114 -43 -139 -9 -15 -41 -6 -63 18 -22 25 -8 79 25
95 12 6 29 21 37 33 22 30 44 27 44 -7z m-1110 -170 c0 -13 -12 -22 -22 -16
-10 6 -1 24 13 24 5 0 9 -4 9 -8z m128 -1000 c2 -7 -7 -12 -23 -12 -24 0 -26
2 -15 15 14 17 31 16 38 -3z m-4 -673 c-8 -13 -24 -1 -24 18 0 13 3 13 15 3 8
-7 12 -16 9 -21z m-227 -105 c-9 -9 -28 6 -21 18 4 6 10 6 17 -1 6 -6 8 -13 4
-17z m12 -38 c9 -10 9 -16 1 -21 -12 -7 -40 11 -40 26 0 14 26 10 39 -5z
m-489 -26 c0 -5 -7 -10 -16 -10 -8 0 -12 5 -9 10 3 6 10 10 16 10 5 0 9 -4 9
-10z m440 -4 c0 -2 -7 -9 -15 -16 -12 -10 -15 -10 -15 4 0 9 7 16 15 16 8 0
15 -2 15 -4z"/>
<path d="M288 2492 c-40 -44 -62 -79 -81 -131 -27 -72 -27 -74 -27 -352 l0
-280 33 -42 c64 -82 107 -107 187 -107 63 0 116 21 125 50 11 34 -12 50 -33
24 -25 -31 -50 -36 -105 -22 -63 16 -128 85 -152 161 -19 63 -38 258 -30 307
12 66 40 104 97 132 32 16 57 23 62 17 6 -5 -1 -53 -19 -125 -25 -106 -26
-117 -12 -131 12 -13 19 -14 30 -5 12 11 38 92 50 162 11 60 40 157 54 179 20
30 34 16 58 -57 14 -45 25 -59 61 -82 61 -38 110 -47 136 -23 31 27 58 92 58
139 0 121 -87 181 -204 139 -49 -17 -56 -13 -56 31 0 47 -25 56 -56 21 -13
-15 -31 -54 -40 -87 -18 -64 -56 -106 -132 -144 -28 -15 -33 -15 -38 -2 -9 24
37 132 84 194 23 31 41 64 40 72 -6 32 -37 19 -90 -38z m401 -98 c12 -15 21
-38 21 -52 0 -38 -22 -103 -37 -109 -27 -10 -76 21 -104 66 -40 62 -38 78 14
101 58 26 82 24 106 -6z"/>
</g>
</svg>
