<?xml version="1.0" standalone="no"?>
<!DOCTYPE svg PUBLIC "-//W3C//DTD SVG 20010904//EN"
 "http://www.w3.org/TR/2001/REC-SVG-20010904/DTD/svg10.dtd">
<svg version="1.0" xmlns="http://www.w3.org/2000/svg"
 width="338.000000pt" height="391.000000pt" viewBox="0 0 338.000000 391.000000"
 preserveAspectRatio="xMidYMid meet">
<metadata>
Created by potrace 1.16, written by Peter Selinger 2001-2019
</metadata>
<g transform="translate(0.000000,391.000000) scale(0.100000,-0.100000)"
fill="#000000" stroke="none">
<path d="M1545 2720 c-49 -7 -151 -56 -189 -89 -28 -25 -76 -127 -79 -168 -3
-58 19 -49 52 21 52 107 128 155 253 159 108 3 177 -26 267 -113 39 -38 79
-88 90 -112 11 -24 36 -79 56 -123 39 -87 61 -115 116 -150 64 -41 109 -49
170 -32 30 9 58 12 62 8 14 -14 -71 -158 -111 -189 -20 -16 -57 -39 -82 -52
-25 -12 -58 -32 -75 -45 -16 -12 -41 -25 -54 -30 -13 -4 -41 -23 -63 -43 -55
-49 -69 -31 -25 34 19 27 46 71 61 99 16 27 37 60 47 74 32 41 20 91 -23 91
-20 0 -46 -46 -73 -128 -9 -30 -30 -68 -45 -85 -39 -44 -112 -193 -108 -220 4
-27 70 -46 93 -27 8 7 13 16 10 20 -3 5 -2 15 1 24 8 20 217 153 314 200 l75
36 40 -20 c21 -11 44 -20 51 -20 18 0 115 -48 153 -75 41 -30 53 -31 76 -5 18
20 18 21 -6 44 -27 25 -110 63 -178 80 -25 6 -46 16 -48 23 -3 7 30 29 76 53
82 40 97 60 69 88 -18 18 -49 15 -87 -9 -42 -25 -51 -17 -27 24 11 18 35 61
55 97 22 42 65 95 121 150 68 67 90 96 104 135 16 48 16 51 -2 75 -11 14 -28
25 -39 25 -20 0 -114 -105 -183 -205 -73 -106 -158 -170 -225 -170 -11 0 -44
11 -72 25 -60 30 -92 74 -133 183 -45 121 -66 156 -120 205 -126 113 -241 157
-365 137z"/>
<path d="M854 2368 c-60 -64 -91 -110 -131 -193 -28 -60 -40 -75 -57 -75 -34
0 -116 30 -167 62 -25 15 -49 28 -52 28 -4 0 -37 20 -75 44 -56 37 -173 96
-188 96 -2 0 -4 -18 -4 -40 0 -40 0 -40 79 -80 44 -22 107 -57 141 -79 33 -22
93 -52 133 -66 40 -15 81 -31 92 -35 17 -6 20 -16 20 -67 0 -46 5 -66 19 -82
28 -31 18 -215 -18 -326 -36 -111 -35 -249 1 -202 21 25 71 184 77 242 4 39 2
84 -8 130 -16 72 -19 200 -7 245 6 21 16 27 69 36 84 15 123 47 166 137 46 98
53 144 28 200 -18 41 -45 67 -69 67 -5 0 -27 -19 -49 -42z m56 -70 c-1 -34
-33 -145 -50 -174 -21 -33 -83 -70 -100 -59 -12 7 68 169 105 213 28 33 45 41
45 20z"/>
<path d="M1866 2272 c-3 -5 -28 -78 -57 -163 -28 -85 -61 -181 -74 -214 -66
-175 -108 -337 -130 -508 -9 -67 -23 -146 -31 -175 -14 -50 -14 -55 2 -73 44
-48 79 -1 87 118 16 215 45 342 176 777 28 93 51 184 51 202 0 32 -14 53 -24
36z"/>
<path d="M1303 2097 c-17 -7 -51 -26 -75 -43 -39 -27 -48 -42 -77 -120 -42
-116 -42 -112 -31 -119 8 -5 49 43 121 142 29 40 100 82 140 83 80 1 135 -209
110 -420 -7 -58 -18 -122 -24 -143 -8 -29 -8 -44 1 -57 6 -11 9 -26 6 -35 -8
-21 19 -19 38 3 21 23 47 130 59 243 14 123 -2 248 -43 348 -43 102 -74 131
-142 130 -28 0 -65 -6 -83 -12z"/>
<path d="M347 1783 c-4 -3 -7 -18 -7 -33 0 -14 -7 -35 -15 -46 -19 -25 -20
-108 -1 -124 8 -6 25 -10 38 -8 28 4 36 45 18 89 -7 16 -13 51 -13 79 -1 48
-6 58 -20 43z"/>
<path d="M1221 1683 c-17 -21 -31 -43 -31 -50 0 -16 32 -17 47 -2 18 18 33 0
33 -41 0 -44 -26 -81 -89 -125 -46 -31 -50 -44 -21 -70 27 -25 59 -14 114 41
43 44 76 114 76 165 0 48 -51 119 -86 119 -7 0 -26 -17 -43 -37z"/>
<path d="M2161 1616 c-16 -17 -21 -30 -16 -43 6 -15 23 -240 28 -398 2 -38 4
-40 40 -46 48 -8 60 6 47 52 -6 19 -13 87 -17 151 -6 110 -5 118 13 124 57 18
75 28 89 51 22 33 8 47 -33 32 -43 -15 -65 0 -77 53 -13 52 -39 61 -74 24z"/>
<path d="M295 1434 c-11 -9 -41 -27 -67 -40 -44 -22 -48 -28 -48 -59 l0 -36
58 37 c74 47 102 73 102 96 0 22 -18 23 -45 2z"/>
<path d="M180 1065 c0 -41 3 -75 7 -75 3 0 21 11 40 26 46 35 46 76 1 104 -18
11 -36 20 -40 20 -5 0 -8 -34 -8 -75z"/>
</g>
</svg>
