<?xml version="1.0" standalone="no"?>
<!DOCTYPE svg PUBLIC "-//W3C//DTD SVG 20010904//EN"
 "http://www.w3.org/TR/2001/REC-SVG-20010904/DTD/svg10.dtd">
<svg version="1.0" xmlns="http://www.w3.org/2000/svg"
 width="347.000000pt" height="341.000000pt" viewBox="0 0 347.000000 341.000000"
 preserveAspectRatio="xMidYMid meet">
<metadata>
Created by potrace 1.16, written by Peter Selinger 2001-2019
</metadata>
<g transform="translate(0.000000,341.000000) scale(0.100000,-0.100000)"
fill="#000000" stroke="none">
<path d="M3168 3029 c-19 -11 -24 -54 -8 -64 19 -12 90 -171 90 -203 0 -18 4
-32 8 -32 38 0 45 128 11 206 -27 61 -57 104 -72 104 -7 0 -20 -5 -29 -11z"/>
<path d="M2395 2731 c-58 -36 -77 -65 -73 -112 3 -37 7 -45 31 -53 19 -7 41
-6 70 2 66 20 70 19 77 -13 11 -55 -5 -207 -28 -251 -26 -52 -121 -164 -138
-164 -8 0 -41 34 -75 75 -61 74 -83 87 -107 63 -23 -23 -12 -47 49 -113 64
-68 71 -95 24 -95 -68 0 -126 -50 -105 -90 15 -28 63 -26 125 5 28 14 55 25
62 25 7 0 34 14 60 30 28 18 54 28 65 24 13 -4 30 6 54 30 33 33 35 38 29 79
-5 33 -2 52 13 83 31 60 45 153 40 262 -4 84 -9 105 -32 145 -30 51 -69 87
-95 87 -9 0 -29 -8 -46 -19z"/>
<path d="M3129 2666 c-70 -21 -87 -53 -44 -82 28 -18 110 -15 173 7 28 10 32
15 32 47 l0 37 -63 1 c-34 0 -78 -5 -98 -10z"/>
<path d="M3277 2423 c-11 -10 -8 -61 3 -68 6 -4 10 10 10 34 0 42 -2 46 -13
34z"/>
<path d="M865 2298 c-15 -13 -34 -46 -44 -73 -13 -40 -27 -58 -68 -89 -29 -21
-53 -45 -53 -53 0 -30 21 -53 48 -53 16 0 33 -5 40 -12 15 -15 15 -97 1 -169
-13 -63 2 -139 26 -139 8 0 15 8 15 18 0 10 20 34 44 55 49 40 56 43 56 25 0
-16 -85 -193 -109 -227 -10 -14 -42 -69 -71 -121 -29 -52 -73 -126 -97 -163
-35 -53 -43 -71 -34 -80 10 -9 20 -3 44 25 46 53 95 124 120 172 11 22 31 55
42 71 12 17 29 44 37 60 18 36 57 107 108 195 154 268 152 266 145 321 -5 38
-12 52 -29 59 -11 5 -30 12 -41 16 -11 5 -43 8 -71 9 -28 0 -58 6 -68 14 -19
16 -21 64 -5 110 16 46 -1 59 -36 29z m75 -263 c28 -30 61 -32 85 -5 18 20 45
27 45 11 0 -13 -148 -150 -176 -163 -37 -17 -48 0 -40 64 7 52 37 118 54 118
5 0 19 -11 32 -25z"/>
<path d="M3176 2128 c-72 -253 -78 -514 -12 -526 28 -6 34 6 56 113 11 55 31
121 45 148 19 37 25 64 25 110 l0 62 -24 -30 c-14 -16 -35 -51 -47 -77 -22
-47 -33 -57 -43 -39 -3 4 5 50 17 102 22 90 25 189 7 189 -5 0 -15 -24 -24
-52z"/>
<path d="M1486 2045 c-110 -106 -119 -116 -108 -137 6 -13 13 -72 15 -133 3
-60 12 -155 20 -210 19 -124 33 -259 47 -435 24 -313 45 -447 76 -486 14 -18
14 -18 30 1 9 12 13 30 10 45 -25 120 -65 695 -49 711 4 4 19 2 33 -6 45 -25
50 -27 63 -22 19 7 29 203 17 327 -14 141 -12 288 5 335 25 67 14 125 -23 125
-9 0 -71 -52 -136 -115z m88 -22 c-10 -32 -10 -59 1 -328 7 -173 6 -202 -7
-213 -13 -10 -19 -4 -42 40 -48 92 -57 130 -65 258 -4 69 -11 133 -15 143 -6
12 -4 17 7 17 9 0 37 25 63 55 53 61 71 69 58 28z"/>
<path d="M2371 1915 c-69 -91 -96 -159 -93 -232 2 -70 16 -113 35 -113 16 0
64 49 69 70 2 11 -6 15 -27 15 -27 0 -30 3 -27 30 2 17 16 57 32 90 32 65 64
169 58 186 -2 6 -23 -14 -47 -46z"/>
<path d="M2525 1941 c-11 -19 15 -52 38 -49 16 2 22 10 22 28 0 20 -6 26 -27
28 -14 2 -29 -2 -33 -7z"/>
<path d="M180 1868 c0 -19 5 -39 11 -45 9 -9 9 -19 0 -41 -7 -16 -11 -63 -9
-113 l3 -84 25 69 c27 74 44 91 54 54 16 -60 -16 -399 -59 -625 -15 -78 -25
-149 -22 -158 9 -22 34 -18 52 9 47 71 113 556 101 738 -9 145 -43 209 -118
223 -38 7 -38 7 -38 -27z"/>
<path d="M985 1629 c-56 -32 -127 -129 -140 -190 -4 -19 -16 -55 -26 -80 -11
-29 -20 -89 -25 -156 -6 -97 -4 -114 14 -155 23 -54 64 -78 129 -78 59 0 94
20 135 77 45 62 104 177 117 228 31 115 -6 257 -84 320 -47 39 -90 51 -120 34z
m82 -101 c100 -113 100 -218 -2 -373 -54 -81 -97 -125 -125 -125 -26 0 -90 57
-90 81 0 10 18 42 40 71 22 29 40 56 40 60 0 4 -14 5 -31 1 l-32 -6 7 49 c16
109 79 234 130 254 33 13 41 12 63 -12z"/>
<path d="M2156 1564 c-9 -24 -7 -28 9 -14 17 14 20 30 6 30 -5 0 -12 -7 -15
-16z"/>
<path d="M2090 1483 c-80 -55 -71 -133 19 -172 130 -55 303 -32 398 53 26 24
45 47 41 51 -4 5 -13 3 -20 -2 -7 -6 -52 -22 -99 -37 -107 -32 -204 -35 -266
-6 -47 21 -48 25 -31 82 15 51 2 61 -42 31z"/>
<path d="M774 790 c-48 -19 -87 -92 -152 -285 -44 -128 -83 -230 -102 -267
-27 -53 -26 -58 18 -58 l38 0 44 98 c23 53 60 147 81 207 53 157 70 196 102
237 42 55 27 91 -29 68z"/>
</g>
</svg>
