<?xml version="1.0" standalone="no"?>
<!DOCTYPE svg PUBLIC "-//W3C//DTD SVG 20010904//EN"
 "http://www.w3.org/TR/2001/REC-SVG-20010904/DTD/svg10.dtd">
<svg version="1.0" xmlns="http://www.w3.org/2000/svg"
 width="294.000000pt" height="373.000000pt" viewBox="0 0 294.000000 373.000000"
 preserveAspectRatio="xMidYMid meet">
<metadata>
Created by potrace 1.16, written by Peter Selinger 2001-2019
</metadata>
<g transform="translate(0.000000,373.000000) scale(0.100000,-0.100000)"
fill="#000000" stroke="none">
<path d="M1255 2837 c-8 -13 -26 -93 -40 -177 -14 -85 -30 -174 -36 -196 -14
-53 5 -85 60 -104 34 -11 43 -10 84 8 35 15 49 18 54 9 12 -20 3 -131 -13
-148 -8 -8 -14 -20 -14 -26 0 -17 59 -40 138 -54 40 -7 76 -17 79 -22 8 -13
-33 -47 -56 -47 -10 0 -47 -33 -84 -74 -43 -47 -76 -75 -94 -79 -77 -15 -145
-129 -93 -157 20 -11 27 -7 74 42 28 30 64 63 80 73 l28 19 52 -56 c28 -31 61
-61 73 -67 27 -13 100 -14 108 -2 3 5 19 12 35 16 49 11 81 78 44 92 -9 3 -41
-6 -70 -20 -30 -15 -61 -27 -69 -27 -8 0 -36 14 -62 30 -26 17 -52 30 -59 30
-6 0 -17 7 -25 16 -11 13 -7 21 28 52 23 20 64 66 93 102 28 36 64 72 78 81
49 29 34 43 -48 46 -41 1 -95 9 -120 16 l-45 14 0 61 c0 72 19 98 101 138 66
32 93 59 75 77 -9 9 -25 7 -73 -11 -34 -12 -64 -20 -67 -17 -3 3 3 52 13 108
29 161 31 191 12 206 -25 21 -66 -10 -66 -52 0 -17 -9 -70 -20 -117 -11 -47
-20 -102 -20 -123 0 -21 -5 -39 -12 -41 -7 -2 -39 -10 -71 -17 -71 -15 -84 -7
-65 42 8 19 20 61 27 94 7 33 24 95 37 137 29 93 30 110 6 131 -25 23 -39 21
-57 -6z"/>
<path d="M2446 2818 c-2 -7 -13 -43 -25 -81 -13 -42 -21 -94 -21 -138 l0 -70
-47 -21 c-27 -12 -82 -33 -123 -47 -56 -20 -78 -33 -90 -53 -13 -25 -13 -29 2
-45 16 -16 19 -16 36 0 10 9 25 17 33 17 8 0 47 16 88 35 40 19 79 35 87 35
11 0 14 -25 14 -135 0 -149 -2 -158 -75 -265 -55 -81 -133 -245 -141 -295 -8
-54 11 -135 39 -171 35 -45 106 -84 152 -84 93 0 128 97 124 345 -1 82 -5 185
-9 229 l-8 79 65 126 c35 69 78 146 96 171 18 25 51 72 75 104 34 48 42 67 42
103 l0 44 -34 -35 c-18 -20 -43 -36 -54 -36 -12 0 -36 -6 -54 -14 -86 -37
-138 -54 -142 -47 -3 5 -7 63 -8 130 -3 110 -11 156 -22 119z m194 -266 c0 -5
-17 -28 -37 -52 -21 -24 -54 -70 -73 -103 -51 -87 -60 -85 -60 12 l0 81 68 34
c67 34 102 43 102 28z m-160 -334 c0 -19 -18 -43 -25 -36 -4 3 -2 16 5 27 12
24 20 27 20 9z m-59 -250 c0 -29 3 -93 5 -143 5 -106 -11 -216 -35 -246 -15
-19 -20 -20 -42 -9 -53 27 -67 50 -74 115 -6 51 -3 75 16 131 12 38 34 87 49
109 14 22 31 52 38 68 20 47 42 34 43 -25z"/>
<path d="M908 2615 c-8 -18 -8 -32 2 -55 9 -21 11 -77 9 -193 -5 -218 7 -222
62 -20 21 80 25 202 8 236 -12 23 -48 56 -62 57 -4 0 -12 -11 -19 -25z"/>
<path d="M182 2275 c-1 -49 1 -56 10 -38 7 15 7 33 0 60 -10 38 -10 37 -10
-22z"/>
<path d="M775 2036 c-28 -20 -12 -43 49 -70 30 -13 60 -34 67 -47 19 -36 13
-147 -11 -230 -27 -90 -34 -99 -76 -99 -59 0 -110 -28 -159 -87 -57 -69 -62
-90 -37 -145 19 -43 22 -45 80 -58 54 -11 64 -11 86 4 26 17 92 120 102 161 3
13 12 29 20 36 14 11 21 8 202 -87 136 -71 366 -138 517 -152 44 -4 155 -7
247 -6 157 1 170 2 215 25 44 23 67 58 34 51 -140 -30 -296 -30 -515 3 -92 13
-204 34 -249 46 -101 27 -427 182 -427 202 0 8 9 34 19 58 11 24 25 83 31 130
10 73 9 94 -5 142 -28 97 -132 165 -190 123z m35 -524 c0 -23 -52 -112 -80
-137 -20 -18 -23 -18 -48 -4 -22 12 -27 22 -25 49 2 38 20 59 87 94 52 26 66
26 66 -2z"/>
<path d="M233 1366 c-46 -18 -53 -25 -53 -49 l0 -27 43 21 c61 31 98 59 92 70
-8 12 -21 10 -82 -15z"/>
</g>
</svg>
