<?xml version="1.0" standalone="no"?>
<!DOCTYPE svg PUBLIC "-//W3C//DTD SVG 20010904//EN"
 "http://www.w3.org/TR/2001/REC-SVG-20010904/DTD/svg10.dtd">
<svg version="1.0" xmlns="http://www.w3.org/2000/svg"
 width="295.000000pt" height="381.000000pt" viewBox="0 0 295.000000 381.000000"
 preserveAspectRatio="xMidYMid meet">
<metadata>
Created by potrace 1.16, written by Peter Selinger 2001-2019
</metadata>
<g transform="translate(0.000000,381.000000) scale(0.100000,-0.100000)"
fill="#000000" stroke="none">
<path d="M2537 3558 c10 -226 34 -710 43 -883 14 -269 29 -640 35 -865 3 -102
8 -206 11 -231 7 -58 -2 -64 -91 -73 -68 -7 -330 -50 -490 -81 -110 -21 -305
-71 -390 -100 -38 -13 -126 -40 -195 -61 -69 -21 -236 -75 -372 -120 -136 -45
-249 -80 -252 -77 -2 3 17 33 43 67 27 33 58 79 69 101 32 63 71 94 133 105
129 22 207 72 247 159 23 49 27 75 33 211 9 192 19 262 69 470 22 91 47 199
55 241 10 47 29 98 49 132 20 33 36 74 39 103 3 27 13 83 21 124 14 66 14 76
1 90 -19 18 -44 5 -62 -31 -13 -28 -93 -355 -93 -382 0 -59 -95 -237 -126
-237 -32 0 -6 113 42 182 16 23 24 46 22 65 -3 24 -7 28 -33 28 -28 0 -31 -4
-57 -75 -14 -41 -29 -102 -33 -135 -4 -33 -12 -66 -17 -72 -33 -41 -38 58 -8
157 28 95 66 157 111 186 42 26 48 44 24 64 -12 10 -21 10 -41 1 -15 -6 -41
-9 -59 -5 -27 5 -35 2 -44 -14 -10 -20 -43 -34 -171 -73 -104 -32 -260 -96
-282 -116 -27 -24 -22 -58 13 -88 36 -30 53 -28 57 6 2 13 11 32 20 42 22 25
170 98 177 88 3 -5 -10 -28 -29 -50 -19 -23 -42 -63 -51 -91 -18 -53 -55 -90
-133 -129 -34 -17 -43 -27 -40 -44 3 -19 8 -21 38 -19 83 9 95 7 91 -8 -11
-36 -12 -219 -2 -239 17 -31 55 -27 85 10 31 36 26 52 -10 39 -14 -6 -30 -7
-36 -4 -14 9 -5 85 21 171 21 72 23 73 90 117 38 24 72 49 75 55 13 21 26 0
26 -43 0 -54 18 -72 89 -87 42 -9 58 -8 77 2 13 7 26 10 29 7 3 -2 -2 -43 -11
-89 -26 -137 -36 -220 -36 -289 1 -93 -17 -209 -38 -251 -36 -70 -150 -149
-217 -149 -29 0 -28 7 23 121 19 42 34 80 34 85 0 11 54 144 80 200 11 22 20
45 20 50 0 6 14 31 30 57 52 82 60 177 16 177 -16 0 -51 -58 -91 -150 -42 -95
-110 -184 -192 -248 -39 -32 -96 -77 -128 -101 -49 -39 -56 -49 -53 -75 3 -30
7 -34 114 -112 l29 -22 -24 -48 c-51 -102 -181 -255 -269 -316 -46 -32 -53
-61 -20 -82 16 -10 67 8 330 115 26 10 58 19 73 19 14 0 40 7 57 16 36 19 235
88 318 111 30 8 93 27 140 43 264 88 428 129 825 206 72 14 156 37 188 52 42
19 60 23 68 15 8 -8 14 -115 20 -310 5 -164 13 -370 19 -458 5 -88 10 -210 10
-271 0 -61 3 -145 6 -187 l7 -77 37 0 c31 0 38 4 42 23 4 24 -26 885 -36 1007
-3 41 -10 190 -16 330 -23 546 -63 1340 -90 1770 -6 91 -10 200 -10 243 l0 77
-38 0 -39 0 4 -72z m-1333 -1057 c5 -8 -4 -42 -37 -134 -16 -45 -138 -120
-160 -98 -13 13 27 93 65 131 16 16 26 35 23 40 -9 15 14 40 50 56 36 16 52
17 59 5z m-155 -888 c0 -25 -74 -186 -86 -190 -5 -2 -20 5 -33 15 l-23 19 41
52 c23 29 42 56 42 61 0 12 40 60 51 60 5 0 9 -8 8 -17z"/>
<path d="M276 2542 c-22 -15 -44 -40 -49 -57 -5 -16 -18 -39 -28 -51 -16 -17
-19 -37 -19 -123 l0 -103 29 24 c28 22 28 24 10 38 -16 13 -16 17 -4 34 8 10
25 24 37 30 13 7 23 20 23 31 0 10 6 20 13 23 7 2 12 -6 12 -23 0 -35 19 -28
43 16 10 19 30 43 45 55 34 28 24 59 -16 51 -68 -14 -67 -14 -64 18 2 17 8 34
13 40 11 11 12 25 2 25 -5 -1 -26 -13 -47 -28z"/>
<path d="M180 1941 l0 -110 34 20 c43 25 47 35 39 114 -6 71 -5 69 -45 79
l-28 6 0 -109z"/>
</g>
</svg>
