<?xml version="1.0" standalone="no"?>
<!DOCTYPE svg PUBLIC "-//W3C//DTD SVG 20010904//EN"
 "http://www.w3.org/TR/2001/REC-SVG-20010904/DTD/svg10.dtd">
<svg version="1.0" xmlns="http://www.w3.org/2000/svg"
 width="402.000000pt" height="401.000000pt" viewBox="0 0 402.000000 401.000000"
 preserveAspectRatio="xMidYMid meet">
<metadata>
Created by potrace 1.16, written by Peter Selinger 2001-2019
</metadata>
<g transform="translate(0.000000,401.000000) scale(0.100000,-0.100000)"
fill="#000000" stroke="none">
<path d="M2358 3517 c-16 -13 -35 -46 -47 -84 -26 -79 -49 -127 -82 -178 -40
-62 -71 -133 -73 -166 -1 -25 -8 -33 -44 -49 -43 -19 -52 -36 -30 -58 15 -15
54 -16 63 -2 3 6 14 10 24 10 9 0 41 12 70 26 28 15 55 24 58 21 3 -3 -39 -55
-94 -114 -167 -183 -192 -233 -117 -241 16 -2 33 -7 37 -11 4 -4 -25 -34 -65
-66 -40 -33 -81 -68 -90 -80 -24 -27 -22 -62 2 -75 18 -9 32 -4 88 31 37 23
75 48 85 57 9 8 20 12 23 9 10 -10 -35 -75 -56 -82 -10 -3 -29 -23 -41 -43
-12 -20 -80 -94 -150 -164 -71 -69 -129 -131 -129 -136 0 -5 8 -16 18 -26 15
-13 24 -14 49 -5 17 5 55 9 84 7 l54 -3 -3 -35 c-10 -108 -55 -357 -66 -368
-40 -40 -282 -36 -451 8 -82 21 -271 112 -377 180 -32 21 -91 51 -131 65 -40
15 -81 31 -92 35 -17 6 -20 16 -20 67 0 46 -5 66 -19 82 -28 31 -18 215 18
326 36 111 35 249 -1 202 -21 -25 -71 -184 -77 -242 -4 -39 -2 -84 8 -130 16
-72 19 -200 7 -245 -6 -21 -16 -27 -69 -36 -84 -15 -123 -47 -166 -137 -47
-98 -53 -144 -27 -201 12 -28 30 -51 46 -58 23 -10 29 -8 56 18 51 47 108 130
146 210 28 59 40 74 57 74 34 0 116 -30 167 -62 25 -15 49 -28 52 -28 4 0 37
-20 74 -43 89 -57 210 -115 303 -144 96 -31 312 -49 385 -32 28 6 61 9 75 8
24 -4 25 -6 28 -96 2 -72 6 -93 17 -93 9 0 16 16 20 48 3 26 8 67 11 92 9 65
17 75 86 101 111 41 238 125 223 149 -4 6 -27 -1 -58 -17 -89 -45 -208 -93
-217 -88 -5 3 -4 20 1 38 19 65 50 234 56 305 7 80 18 96 80 108 42 8 58 28
73 92 16 69 1 90 -29 41 -12 -19 -21 -37 -21 -41 0 -3 -16 -15 -35 -27 -45
-26 -52 -13 -35 61 18 75 35 104 107 183 99 107 114 154 58 175 -14 5 -25 13
-25 18 0 4 27 34 60 67 51 50 60 65 58 90 -4 42 -26 42 -91 1 -54 -35 -87 -45
-87 -27 0 5 22 36 49 70 27 34 59 82 71 106 12 25 48 74 81 110 32 36 59 72
59 81 0 29 -31 26 -88 -9 -77 -47 -143 -78 -153 -71 -12 7 13 54 46 84 71 66
161 246 167 334 4 47 -8 53 -44 23z m-344 -1304 c-10 -30 -39 -42 -57 -24 -8
8 -3 19 18 41 34 36 55 27 39 -17z m-1271 -269 c4 -4 -16 -50 -43 -104 -48
-92 -93 -151 -106 -137 -10 10 24 147 46 182 11 18 35 40 53 49 36 18 41 19
50 10z"/>
<path d="M1605 3140 c-125 -26 -188 -51 -281 -112 -73 -49 -79 -55 -79 -87 0
-29 6 -38 33 -54 41 -24 62 -16 62 22 0 23 10 38 43 64 48 40 133 81 147 72 6
-3 10 -24 10 -45 0 -43 13 -58 35 -40 11 9 15 9 15 1 0 -24 -212 -210 -321
-282 -83 -54 -109 -78 -109 -101 0 -23 15 -23 48 1 15 10 59 34 98 54 39 20
91 51 117 71 84 64 119 77 230 82 67 3 110 10 125 20 25 16 84 135 104 208 12
44 11 47 -17 76 -16 16 -33 30 -39 30 -5 0 -17 7 -26 15 -26 24 -98 26 -195 5z
m205 -115 c0 -19 -55 -133 -76 -156 -17 -19 -92 -28 -107 -13 -8 8 165 194
175 188 5 -3 8 -11 8 -19z"/>
<path d="M264 2608 c-16 -12 -41 -36 -57 -53 -26 -29 -27 -33 -25 -135 3 -103
3 -104 31 -120 28 -15 29 -14 63 24 19 22 34 45 34 53 0 16 -32 17 -47 2 -18
-18 -33 0 -33 41 0 44 26 81 89 125 45 31 50 44 23 68 -25 23 -44 21 -78 -5z"/>
<path d="M1345 2484 c14 -174 40 -234 102 -234 17 0 35 -9 48 -26 27 -33 47
-28 115 30 96 82 128 190 72 245 -31 31 -112 48 -153 32 -50 -18 -62 -45 -55
-112 6 -48 4 -66 -9 -86 -9 -14 -20 -21 -25 -17 -4 5 -15 45 -24 88 -9 44 -23
87 -30 95 -8 9 -16 25 -17 35 -2 11 -10 21 -17 24 -10 3 -12 -12 -7 -74z m300
-25 c24 -38 -59 -161 -117 -175 -27 -6 -28 -5 -28 37 0 52 34 118 70 136 31
16 67 17 75 2z"/>
<path d="M1117 2433 c-11 -10 -8 -62 4 -84 6 -12 11 -45 12 -75 1 -62 19 -68
28 -10 3 20 11 42 18 49 15 15 14 100 -1 115 -13 13 -50 16 -61 5z"/>
<path d="M328 2145 c-24 -31 -55 -72 -69 -92 -14 -20 -38 -42 -52 -50 -23 -11
-27 -20 -27 -54 0 -37 2 -40 23 -33 12 3 42 21 67 38 38 27 49 44 76 112 17
43 33 89 36 101 11 43 -11 33 -54 -22z"/>
<path d="M3693 1604 c-10 -15 -39 -49 -65 -76 -27 -27 -48 -56 -48 -64 0 -23
19 -54 33 -54 31 0 125 130 134 186 5 30 3 34 -15 34 -12 0 -29 -12 -39 -26z"/>
<path d="M191 1571 c-6 -11 -11 -46 -11 -78 l1 -58 20 38 c23 43 30 108 12
114 -6 2 -16 -5 -22 -16z"/>
<path d="M3301 1265 c-60 -62 -70 -84 -43 -93 20 -6 146 122 139 142 -11 28
-32 18 -96 -49z"/>
<path d="M3349 1197 c-26 -12 -113 -103 -144 -151 -32 -48 -9 -48 50 0 32 27
79 60 104 74 39 21 46 30 46 55 0 34 -17 41 -56 22z"/>
<path d="M3766 642 c-3 -6 1 -15 8 -21 8 -7 17 -8 20 -3 3 6 -1 15 -8 21 -8 7
-17 8 -20 3z"/>
</g>
</svg>
