<?xml version="1.0" standalone="no"?>
<!DOCTYPE svg PUBLIC "-//W3C//DTD SVG 20010904//EN"
 "http://www.w3.org/TR/2001/REC-SVG-20010904/DTD/svg10.dtd">
<svg version="1.0" xmlns="http://www.w3.org/2000/svg"
 width="260.000000pt" height="373.000000pt" viewBox="0 0 260.000000 373.000000"
 preserveAspectRatio="xMidYMid meet">
<metadata>
Created by potrace 1.16, written by Peter Selinger 2001-2019
</metadata>
<g transform="translate(0.000000,373.000000) scale(0.100000,-0.100000)"
fill="#000000" stroke="none">
<path d="M1269 2853 c-113 -117 -171 -186 -229 -273 -24 -36 -58 -82 -76 -102
-42 -47 -69 -107 -97 -211 -19 -73 -21 -108 -22 -322 0 -203 3 -251 19 -310
26 -100 50 -141 94 -164 20 -10 53 -27 72 -37 48 -25 140 -23 210 5 88 34 167
97 148 117 -4 4 -40 -7 -80 -25 -136 -57 -231 -59 -311 -4 -39 27 -44 39 -69
163 -17 83 -16 575 1 637 7 27 31 64 64 100 29 32 74 86 100 120 44 57 113
128 265 270 63 60 77 94 50 121 -24 24 -46 10 -139 -85z"/>
<path d="M1820 2864 c-30 -8 -82 -19 -115 -24 -33 -5 -87 -21 -120 -34 -56
-23 -60 -27 -60 -58 0 -43 25 -47 103 -18 31 12 82 26 112 31 30 5 78 13 105
19 158 33 245 31 245 -6 0 -10 -14 -46 -30 -81 -34 -72 -169 -220 -274 -301
-55 -43 -60 -45 -70 -27 -20 35 -55 65 -75 65 -12 0 -35 -13 -53 -29 -29 -26
-31 -31 -21 -54 7 -15 31 -34 59 -46 53 -24 52 0 15 -211 -26 -151 -36 -368
-21 -450 18 -101 51 -163 105 -200 l48 -33 229 -10 c199 -9 237 -8 291 6 34 9
77 19 95 22 30 6 32 9 32 47 0 45 -75 198 -97 198 -19 0 -16 -53 7 -112 11
-29 16 -56 12 -60 -23 -23 -441 -38 -542 -19 -70 14 -94 49 -109 157 -15 103
-2 351 27 543 l18 113 70 54 c94 70 293 278 325 340 39 73 42 97 17 129 -36
46 -91 65 -188 64 -47 0 -110 -7 -140 -15z m-145 -504 c0 -22 -39 -19 -43 3
-3 15 1 18 20 15 12 -2 23 -10 23 -18z"/>
<path d="M1155 2485 c-67 -29 -125 -128 -125 -212 0 -48 -4 -58 -31 -84 -36
-33 -35 -59 4 -77 23 -11 32 -11 55 1 15 8 50 24 77 37 28 12 68 34 90 49 22
15 48 30 58 34 20 8 23 35 3 43 -14 6 -75 -11 -158 -42 -30 -12 -51 -15 -57
-9 -12 13 51 145 89 185 15 16 38 30 50 30 35 0 94 -67 113 -130 31 -100 77
-396 92 -592 4 -55 12 -91 21 -99 17 -14 20 -7 33 91 23 176 -45 587 -114 692
-14 21 -44 52 -67 68 -45 33 -83 37 -133 15z"/>
<path d="M193 2173 c-8 -3 -13 -23 -13 -50 l0 -45 33 21 c36 22 45 45 27 66
-13 15 -25 17 -47 8z"/>
<path d="M1037 1955 c-66 -32 27 -86 110 -64 23 6 58 8 78 5 45 -9 58 14 26
48 -19 21 -31 23 -107 22 -47 0 -96 -5 -107 -11z"/>
<path d="M282 1687 c-5 -6 -19 -31 -31 -55 -12 -23 -33 -48 -46 -54 -19 -9
-25 -19 -25 -45 0 -22 5 -33 14 -33 16 0 70 58 89 98 29 57 28 125 -1 89z"/>
</g>
</svg>
