<?xml version="1.0" standalone="no"?>
<!DOCTYPE svg PUBLIC "-//W3C//DTD SVG 20010904//EN"
 "http://www.w3.org/TR/2001/REC-SVG-20010904/DTD/svg10.dtd">
<svg version="1.0" xmlns="http://www.w3.org/2000/svg"
 width="281.000000pt" height="398.000000pt" viewBox="0 0 281.000000 398.000000"
 preserveAspectRatio="xMidYMid meet">
<metadata>
Created by potrace 1.16, written by Peter Selinger 2001-2019
</metadata>
<g transform="translate(0.000000,398.000000) scale(0.100000,-0.100000)"
fill="#000000" stroke="none">
<path d="M831 2727 c-47 -58 -341 -774 -341 -833 0 -44 38 22 135 236 26 58
72 156 101 218 30 62 54 115 54 117 0 3 19 45 41 93 70 147 71 152 58 168 -14
18 -33 18 -48 1z"/>
<path d="M1638 2643 c-44 -51 -49 -89 -51 -407 l-2 -239 -37 -13 c-70 -24
-263 -123 -300 -154 -43 -36 -49 -71 -19 -107 27 -32 38 -29 60 15 11 21 37
50 58 64 70 48 236 129 245 120 5 -5 7 -69 6 -142 l-3 -134 -40 -9 c-169 -37
-216 -66 -196 -121 9 -21 17 -26 45 -26 37 0 163 36 183 52 18 15 20 3 32
-162 16 -209 49 -358 124 -555 17 -46 41 -65 57 -49 8 8 3 35 -19 96 -16 47
-42 143 -57 214 -23 109 -27 155 -28 296 -1 152 1 169 19 194 23 31 95 63 143
63 36 1 115 49 126 76 9 24 7 45 -4 45 -5 0 -26 -11 -46 -25 -74 -50 -126 -43
-81 11 45 56 117 185 127 230 9 40 8 49 -10 74 -11 16 -30 32 -41 35 -30 10
-102 -3 -182 -32 -39 -14 -73 -21 -78 -16 -5 5 -9 105 -10 223 0 161 4 234 15
288 9 40 16 82 16 93 0 24 -31 25 -52 2z m270 -646 c12 -61 -190 -365 -227
-343 -12 8 -16 243 -5 283 9 33 68 67 104 59 17 -3 44 1 62 9 41 18 62 15 66
-8z"/>
<path d="M918 2087 c-32 -12 -64 -29 -72 -37 -17 -18 -10 -70 9 -70 16 0 165
77 188 98 9 8 17 19 17 24 0 16 -85 7 -142 -15z"/>
<path d="M844 1825 c-4 -10 3 -26 20 -44 21 -22 36 -28 72 -29 63 0 74 -13 49
-60 -17 -30 -33 -42 -93 -67 -126 -52 -175 -108 -137 -159 13 -18 15 -18 42 2
15 11 44 36 62 56 19 20 40 36 47 36 7 0 22 12 34 28 12 15 24 27 28 27 3 0 7
-54 8 -119 4 -123 27 -383 45 -494 12 -78 49 -162 95 -219 39 -47 71 -61 103
-43 24 12 19 30 -8 30 -25 0 -66 48 -89 105 -44 105 -77 390 -77 651 0 147 1
151 26 185 61 81 61 110 -1 78 l-40 -21 -63 30 c-87 42 -115 48 -123 27z"/>
</g>
</svg>
