<?xml version="1.0" standalone="no"?>
<!DOCTYPE svg PUBLIC "-//W3C//DTD SVG 20010904//EN"
 "http://www.w3.org/TR/2001/REC-SVG-20010904/DTD/svg10.dtd">
<svg version="1.0" xmlns="http://www.w3.org/2000/svg"
 width="194.000000pt" height="310.000000pt" viewBox="0 0 194.000000 310.000000"
 preserveAspectRatio="xMidYMid meet">
<metadata>
Created by potrace 1.16, written by Peter Selinger 2001-2019
</metadata>
<g transform="translate(0.000000,310.000000) scale(0.100000,-0.100000)"
fill="#000000" stroke="none">
<path d="M777 2269 c-25 -15 -53 -76 -71 -153 -21 -87 -20 -143 2 -186 21 -42
56 -47 80 -12 15 23 14 23 -11 17 -23 -6 -28 -3 -38 21 -21 55 19 232 64 281
28 32 11 54 -26 32z"/>
<path d="M900 2056 c-60 -10 -65 -13 -74 -44 -5 -18 -6 -35 -3 -38 3 -3 26 2
51 10 85 29 155 17 214 -37 39 -36 62 -105 77 -232 13 -116 20 -450 8 -468 -3
-4 -16 2 -29 14 -18 17 -27 20 -36 11 -30 -30 54 -159 98 -150 15 2 21 16 26
58 23 166 8 545 -27 673 -31 117 -80 174 -173 200 -34 9 -63 16 -64 16 -2 -1
-32 -7 -68 -13z"/>
<path d="M892 1904 c-25 -17 -72 -107 -72 -137 0 -10 5 -27 11 -38 15 -29 35
-9 43 42 10 63 22 79 59 79 34 0 72 -31 95 -76 18 -35 40 -187 33 -229 l-6
-40 -58 -3 c-69 -4 -80 10 -47 63 23 37 21 69 -3 59 -21 -7 -36 17 -30 49 7
35 21 34 34 -3 14 -38 20 -37 42 1 22 40 22 71 -2 100 -16 20 -23 22 -47 14
-24 -9 -30 -17 -32 -47 -3 -32 -8 -38 -44 -53 -31 -12 -38 -19 -29 -28 19 -19
14 -68 -8 -74 -24 -6 -60 -55 -67 -93 -5 -25 -2 -31 21 -42 19 -9 31 -9 43 -1
17 11 18 16 6 66 -9 38 12 35 32 -5 20 -41 62 -77 89 -78 11 0 31 7 44 17 19
13 27 14 43 4 23 -14 41 -3 64 40 35 69 6 275 -51 361 -40 61 -116 85 -163 52z
m83 -194 c-5 -8 -11 -8 -17 -2 -6 6 -7 16 -3 22 5 8 11 8 17 2 6 -6 7 -16 3
-22z m-60 -140 c-5 -8 -11 -8 -17 -2 -6 6 -7 16 -3 22 5 8 11 8 17 2 6 -6 7
-16 3 -22z"/>
<path d="M547 1713 c-2 -5 -2 -41 -1 -80 1 -40 2 -152 3 -249 1 -161 2 -175
19 -172 10 2 18 13 19 28 31 383 26 480 -23 480 -7 0 -15 -3 -17 -7z"/>
</g>
</svg>
