<?xml version="1.0" standalone="no"?>
<!DOCTYPE svg PUBLIC "-//W3C//DTD SVG 20010904//EN"
 "http://www.w3.org/TR/2001/REC-SVG-20010904/DTD/svg10.dtd">
<svg version="1.0" xmlns="http://www.w3.org/2000/svg"
 width="354.000000pt" height="354.000000pt" viewBox="0 0 354.000000 354.000000"
 preserveAspectRatio="xMidYMid meet">
<metadata>
Created by potrace 1.16, written by Peter Selinger 2001-2019
</metadata>
<g transform="translate(0.000000,354.000000) scale(0.100000,-0.100000)"
fill="#000000" stroke="none">
<path d="M3278 2350 c-72 -56 -98 -182 -79 -389 18 -190 44 -270 117 -349 l43
-47 1 42 c0 23 -5 45 -10 48 -22 13 -53 93 -71 179 -25 120 -25 320 -1 391 15
45 20 50 50 53 32 3 33 4 30 45 -3 37 -6 42 -29 45 -14 2 -36 -6 -51 -18z"/>
<path d="M1280 2225 c-25 -7 -61 -16 -80 -19 -19 -4 -69 -25 -110 -49 -78 -44
-89 -61 -76 -113 9 -35 36 -31 36 6 0 27 7 33 78 69 67 33 183 71 220 71 28 0
96 -55 137 -111 57 -77 74 -135 84 -290 8 -109 11 -125 31 -141 12 -10 25 -18
29 -18 3 0 24 18 46 39 94 92 134 170 44 86 -49 -46 -53 -47 -65 -30 -8 10
-14 42 -14 69 0 81 -18 172 -46 230 -31 67 -109 164 -150 188 -42 24 -109 30
-164 13z"/>
<path d="M1973 2172 c-21 -28 -28 -43 -96 -197 -52 -120 -67 -174 -76 -277
-13 -154 -3 -139 80 117 34 105 77 230 96 279 35 92 34 129 -4 78z"/>
<path d="M2302 2175 c-28 -23 -51 -79 -39 -91 3 -3 16 6 30 20 15 14 33 26 41
26 30 0 49 -61 54 -170 5 -122 -15 -436 -30 -465 -6 -11 -33 -43 -59 -72 -27
-28 -49 -56 -49 -62 0 -25 25 -21 56 10 29 28 34 30 40 15 4 -10 3 -56 -2
-104 -12 -121 -11 -169 4 -184 10 -10 15 -9 28 4 17 17 43 188 44 286 0 29 5
62 11 73 13 25 125 77 197 91 58 12 74 30 49 55 -14 14 -23 15 -69 5 -29 -7
-77 -24 -107 -37 -30 -14 -56 -24 -58 -22 -2 2 1 66 7 143 5 76 10 189 10 249
0 95 -3 117 -24 161 -23 50 -66 94 -92 94 -7 0 -26 -11 -42 -25z"/>
<path d="M261 2156 c-8 -10 -6 -26 13 -67 13 -30 31 -75 40 -100 20 -55 51
-88 67 -72 22 22 -27 190 -68 235 -19 21 -36 23 -52 4z"/>
<path d="M467 1388 c-58 -83 -67 -101 -67 -139 0 -44 65 -109 108 -109 42 0
48 16 15 36 -63 39 -67 70 -23 167 17 37 30 73 30 81 0 34 -21 22 -63 -36z"/>
<path d="M1774 1415 c-50 -16 -171 -76 -219 -108 -33 -22 -86 -83 -106 -119
-20 -37 13 -26 65 21 33 30 95 69 153 98 81 39 108 47 155 48 46 0 62 -4 79
-21 25 -25 19 -42 -35 -102 -50 -56 -127 -172 -121 -183 10 -15 48 -10 71 9
12 9 34 44 49 77 15 33 43 78 62 100 49 57 51 77 13 125 -34 43 -77 71 -107
69 -10 -1 -37 -7 -59 -14z"/>
</g>
</svg>
