<?xml version="1.0" standalone="no"?>
<!DOCTYPE svg PUBLIC "-//W3C//DTD SVG 20010904//EN"
 "http://www.w3.org/TR/2001/REC-SVG-20010904/DTD/svg10.dtd">
<svg version="1.0" xmlns="http://www.w3.org/2000/svg"
 width="194.000000pt" height="311.000000pt" viewBox="0 0 194.000000 311.000000"
 preserveAspectRatio="xMidYMid meet">
<metadata>
Created by potrace 1.16, written by Peter Selinger 2001-2019
</metadata>
<g transform="translate(0.000000,311.000000) scale(0.100000,-0.100000)"
fill="#000000" stroke="none">
<path d="M815 1918 c-9 -27 -22 -247 -20 -333 11 -404 62 -546 211 -587 50
-14 70 -14 129 -4 66 11 70 13 79 44 5 18 6 35 3 38 -3 3 -26 -2 -51 -10 -85
-29 -155 -17 -214 37 -39 36 -62 105 -77 232 -13 116 -20 450 -8 468 3 4 16
-2 29 -14 31 -29 49 -15 39 31 -14 63 -106 138 -120 98z"/>
<path d="M207 1892 c-25 -26 -27 -35 -27 -109 0 -66 3 -82 17 -87 28 -11 39
10 25 48 -13 36 0 82 39 137 33 47 -11 56 -54 11z"/>
<path d="M1459 1838 c-9 -17 -26 -290 -25 -385 1 -71 6 -97 18 -109 32 -33 44
-12 42 72 -1 44 -2 157 -3 252 -1 146 -3 172 -16 172 -8 0 -16 -1 -16 -2z"/>
<path d="M1041 1603 c-19 -13 -27 -14 -43 -4 -67 42 -103 -137 -58 -293 25
-87 61 -143 105 -162 72 -30 112 -11 150 69 27 56 30 78 14 108 -15 29 -35 9
-43 -42 -10 -63 -22 -79 -59 -79 -34 0 -72 31 -95 76 -18 35 -40 187 -33 229
l6 40 58 3 c69 4 80 -10 47 -63 -23 -37 -21 -69 3 -59 21 7 36 -17 30 -48 -7
-36 -21 -35 -34 2 -14 38 -20 37 -41 -1 -23 -40 -23 -71 1 -100 16 -20 23 -22
47 -14 24 9 30 17 32 47 3 32 8 38 44 53 31 12 38 19 29 28 -19 19 -14 68 8
74 24 6 60 55 67 93 5 25 2 31 -21 42 -19 9 -31 9 -43 1 -17 -11 -18 -16 -6
-65 9 -39 -12 -36 -32 5 -20 40 -62 76 -89 77 -11 0 -31 -7 -44 -17z m104
-143 c-5 -8 -11 -8 -17 -2 -6 6 -7 16 -3 22 5 8 11 8 17 2 6 -6 7 -16 3 -22z
m-60 -140 c-5 -8 -11 -8 -17 -2 -6 6 -7 16 -3 22 5 8 11 8 17 2 6 -6 7 -16 3
-22z"/>
<path d="M1263 1148 c-25 -33 -25 -39 1 -32 40 10 51 -30 36 -126 -14 -88 -35
-146 -63 -178 -26 -28 -11 -50 22 -33 41 23 91 166 91 264 0 78 -56 145 -87
105z"/>
</g>
</svg>
