<?xml version="1.0" standalone="no"?>
<!DOCTYPE svg PUBLIC "-//W3C//DTD SVG 20010904//EN"
 "http://www.w3.org/TR/2001/REC-SVG-20010904/DTD/svg10.dtd">
<svg version="1.0" xmlns="http://www.w3.org/2000/svg"
 width="168.000000pt" height="315.000000pt" viewBox="0 0 168.000000 315.000000"
 preserveAspectRatio="xMidYMid meet">
<metadata>
Created by potrace 1.16, written by Peter Selinger 2001-2019
</metadata>
<g transform="translate(0.000000,315.000000) scale(0.100000,-0.100000)"
fill="#000000" stroke="none">
<path d="M890 2456 c-72 -52 -150 -203 -150 -290 0 -26 6 -40 24 -51 35 -23
72 -3 102 57 35 68 82 120 108 116 17 -2 22 -11 24 -43 4 -47 -24 -153 -47
-177 -9 -9 -54 -30 -101 -46 -88 -30 -114 -52 -92 -74 9 -9 22 -8 62 6 27 10
54 15 60 11 12 -8 -56 -109 -99 -147 -30 -25 -43 -68 -21 -68 13 0 33 21 119
124 60 72 87 94 75 61 -3 -8 -9 -47 -13 -86 l-6 -70 -55 -22 c-63 -25 -77 -54
-37 -76 21 -11 28 -11 50 4 26 16 47 14 47 -6 0 -6 -20 -36 -44 -67 -46 -59
-96 -154 -96 -184 0 -21 37 -48 65 -48 12 0 30 7 41 15 32 24 51 18 57 -17 19
-133 44 -195 68 -171 7 7 8 17 1 29 -14 26 -31 182 -25 222 3 18 17 42 32 55
58 50 112 137 84 137 -4 0 -28 -21 -54 -46 -34 -33 -52 -45 -65 -40 -15 6 -16
16 -10 88 4 44 10 87 14 93 4 7 40 40 80 75 39 34 72 68 72 76 0 28 -43 13
-92 -31 -28 -25 -55 -45 -60 -45 -7 0 -9 33 -6 90 5 115 13 125 106 125 52 1
67 4 70 16 5 27 -27 43 -87 44 -63 0 -63 0 -41 85 6 25 9 62 7 82 -6 45 -42
98 -66 98 -30 0 -108 -69 -129 -114 -23 -48 -46 -71 -62 -61 -26 16 11 105 70
169 20 22 47 59 59 81 35 66 28 70 -39 21z m58 -919 c4 -32 -36 -77 -68 -77
-26 0 -26 22 0 45 11 10 20 23 20 30 0 15 22 36 35 32 5 -2 11 -15 13 -30z"/>
<path d="M625 2384 c-27 -20 -68 -53 -90 -73 -22 -21 -53 -45 -69 -52 -46 -22
-55 -44 -28 -71 l22 -23 83 81 c93 91 138 124 165 124 23 0 46 25 37 40 -13
21 -70 9 -120 -26z"/>
<path d="M690 2340 c0 -5 5 -10 10 -10 6 0 10 5 10 10 0 6 -4 10 -10 10 -5 0
-10 -4 -10 -10z"/>
<path d="M626 2267 c-22 -16 -36 -115 -24 -176 5 -25 18 -73 28 -106 10 -33
20 -84 23 -113 3 -45 2 -52 -12 -50 -9 2 -21 19 -27 38 -6 19 -25 43 -41 54
-17 12 -42 36 -57 54 -15 17 -31 32 -36 32 -4 0 -17 -17 -28 -38 -16 -32 -18
-46 -11 -97 5 -33 11 -109 14 -170 9 -232 25 -441 34 -474 12 -39 38 -71 58
-71 16 0 16 0 -4 40 -12 25 -17 68 -20 169 -1 75 -7 217 -13 315 -5 99 -7 183
-4 188 10 16 23 7 47 -34 26 -45 76 -88 101 -88 9 0 25 18 36 40 18 36 19 47
10 107 -6 38 -19 100 -30 138 -30 111 -34 166 -17 207 20 47 9 61 -27 35z"/>
</g>
</svg>
