<?xml version="1.0" standalone="no"?>
<!DOCTYPE svg PUBLIC "-//W3C//DTD SVG 20010904//EN"
 "http://www.w3.org/TR/2001/REC-SVG-20010904/DTD/svg10.dtd">
<svg version="1.0" xmlns="http://www.w3.org/2000/svg"
 width="226.000000pt" height="315.000000pt" viewBox="0 0 226.000000 315.000000"
 preserveAspectRatio="xMidYMid meet">
<metadata>
Created by potrace 1.16, written by Peter Selinger 2001-2019
</metadata>
<g transform="translate(0.000000,315.000000) scale(0.100000,-0.100000)"
fill="#000000" stroke="none">
<path d="M1298 2445 c-3 -3 -68 -17 -144 -30 -77 -14 -161 -30 -189 -35 -27
-6 -89 -11 -137 -11 -91 0 -113 -10 -106 -46 6 -35 54 -47 127 -34 174 32 228
43 265 56 68 24 64 0 -5 -36 -84 -42 -186 -110 -227 -151 -120 -119 -201 -271
-227 -426 -24 -144 -19 -482 7 -509 10 -9 20 -14 23 -12 3 3 7 84 9 180 5 191
14 346 21 368 4 11 8 11 21 0 13 -11 18 -10 32 9 30 39 133 65 262 66 141 1
170 -9 208 -73 26 -45 27 -49 26 -206 -1 -134 -14 -273 -36 -365 -1 -8 4 -15
12 -15 18 0 66 148 80 245 20 142 13 315 -16 371 -21 41 -90 95 -139 109 -66
19 -233 8 -328 -20 -58 -17 -81 -20 -89 -12 -9 9 -7 16 5 30 9 10 17 22 17 26
0 22 97 150 152 201 49 47 100 79 228 144 91 46 179 94 195 106 17 13 39 25
50 27 12 2 20 11 20 23 0 17 -8 20 -55 23 -31 2 -58 0 -62 -3z"/>
<path d="M2019 2012 c-152 -236 -196 -313 -220 -385 -20 -63 -21 -68 -5 -92 9
-14 21 -25 26 -25 16 0 21 19 10 37 -9 14 -8 28 2 59 15 42 108 204 117 204 3
0 6 -127 7 -283 0 -237 3 -291 17 -338 20 -62 60 -110 78 -92 8 8 6 19 -8 40
-16 22 -22 52 -27 133 -7 110 -8 286 -2 428 3 72 1 84 -15 93 -35 18 -20 63
54 167 24 33 28 48 25 90 l-3 51 -56 -87z"/>
<path d="M980 1779 c0 -5 5 -7 10 -4 6 3 10 8 10 11 0 2 -4 4 -10 4 -5 0 -10
-5 -10 -11z"/>
<path d="M1040 1755 c-6 -15 -15 -70 -20 -122 -6 -52 -13 -99 -16 -104 -3 -5
-20 -9 -39 -9 -25 0 -40 -8 -58 -30 -38 -44 -44 -86 -18 -121 12 -15 21 -33
21 -38 0 -14 -38 -33 -44 -23 -32 53 -3 233 57 349 35 68 40 84 29 95 -11 11
-19 7 -43 -22 -43 -50 -67 -106 -85 -201 -22 -115 -16 -231 12 -260 26 -26 53
-15 81 31 17 30 37 38 48 20 7 -11 -102 -120 -197 -197 -38 -29 -68 -61 -68
-69 0 -17 39 -34 79 -34 27 0 244 76 301 105 35 18 39 35 8 35 -23 0 -118 -27
-219 -61 -31 -10 -59 -19 -63 -19 -16 0 -4 27 18 40 52 32 154 130 170 165 22
46 45 133 57 214 5 36 13 69 17 75 14 19 9 199 -5 203 -7 3 -17 -8 -23 -22z
m-55 -351 c0 -35 -3 -39 -27 -42 -24 -3 -28 0 -28 20 0 29 28 70 43 65 7 -2
12 -21 12 -43z"/>
</g>
</svg>
