<?xml version="1.0" standalone="no"?>
<!DOCTYPE svg PUBLIC "-//W3C//DTD SVG 20010904//EN"
 "http://www.w3.org/TR/2001/REC-SVG-20010904/DTD/svg10.dtd">
<svg version="1.0" xmlns="http://www.w3.org/2000/svg"
 width="345.000000pt" height="376.000000pt" viewBox="0 0 345.000000 376.000000"
 preserveAspectRatio="xMidYMid meet">
<metadata>
Created by potrace 1.16, written by Peter Selinger 2001-2019
</metadata>
<g transform="translate(0.000000,376.000000) scale(0.100000,-0.100000)"
fill="#000000" stroke="none">
<path d="M2559 2638 c-39 -54 -53 -88 -40 -101 6 -6 19 6 36 33 38 61 53 48
70 -62 3 -21 9 -38 13 -38 4 0 13 31 20 69 12 62 12 72 -4 96 -15 23 -43 45
-58 45 -3 0 -20 -19 -37 -42z"/>
<path d="M2144 2597 c-21 -34 -47 -78 -56 -97 -97 -200 -96 -290 4 -345 31
-17 40 -17 61 -6 36 19 61 11 65 -22 4 -36 -25 -83 -84 -131 -45 -38 -46 -40
-40 -84 12 -89 45 -95 84 -14 15 31 32 55 37 52 6 -3 9 -37 7 -78 -2 -59 0
-74 13 -79 28 -10 39 15 45 99 l5 81 54 14 c77 19 84 14 76 -50 -11 -89 -53
-191 -97 -237 -22 -23 -47 -40 -56 -38 -9 2 -28 23 -41 47 l-24 44 -28 -34
c-16 -19 -29 -38 -29 -43 0 -4 17 -26 39 -47 71 -71 144 -44 209 78 51 98 75
193 70 280 -3 42 -1 91 5 110 8 27 8 37 -5 49 -13 13 -24 13 -81 3 -46 -9 -67
-17 -67 -27 0 -10 6 -12 18 -7 41 17 51 16 62 -5 15 -29 6 -36 -57 -44 l-53
-7 0 56 c0 30 8 81 19 112 45 140 74 261 79 330 3 53 1 64 -14 70 -22 8 -43
-20 -51 -69 -3 -21 -9 -38 -12 -38 -4 0 -13 21 -20 48 -14 55 -45 92 -76 92
-16 0 -32 -17 -61 -63z m77 -54 c8 -21 4 -44 -17 -110 -20 -63 -24 -87 -15
-96 8 -8 20 -2 46 23 28 27 36 30 40 18 8 -21 -30 -94 -55 -108 -11 -6 -20
-19 -20 -30 0 -12 -13 -25 -35 -36 -32 -15 -37 -15 -60 0 -14 9 -28 28 -31 42
-10 39 2 138 19 165 9 13 25 49 37 79 12 30 26 61 32 67 18 22 48 15 59 -14z"/>
<path d="M960 2591 c-24 -7 -24 -8 -5 -18 11 -6 52 -21 90 -33 96 -31 104 -40
81 -86 -25 -54 -66 -236 -66 -296 0 -66 29 -163 64 -214 30 -44 33 -66 11 -84
-8 -7 -12 -17 -8 -23 4 -6 11 -3 19 8 22 29 40 11 70 -72 24 -64 29 -92 28
-159 -2 -84 -24 -200 -49 -262 -8 -19 -15 -46 -15 -61 0 -29 -22 -108 -41
-143 -6 -13 -24 -35 -40 -50 -50 -47 -28 -99 27 -64 34 23 60 68 85 151 28 90
27 89 55 71 13 -9 32 -16 43 -16 29 0 86 36 114 73 62 81 83 160 92 342 5 101
3 112 -15 134 -11 13 -24 21 -28 17 -4 -4 -8 -71 -8 -149 -2 -197 -33 -288
-117 -351 -95 -70 -85 123 23 459 39 119 70 233 70 254 0 6 -9 20 -20 31 -38
38 -119 18 -179 -44 -35 -37 -55 -44 -66 -26 -3 6 -17 49 -31 96 -27 94 -27
124 3 284 22 121 27 132 60 128 36 -4 41 19 13 55 -14 17 -31 27 -48 27 -15 0
-52 7 -82 15 -59 16 -90 17 -130 6z m408 -617 c5 -48 -49 -252 -64 -244 -5 3
-19 34 -31 70 -13 36 -30 78 -39 94 -17 29 -17 30 12 54 83 68 117 76 122 26z"/>
<path d="M1597 2444 c-33 -18 -31 -37 4 -42 37 -6 45 -17 58 -79 7 -32 17 -74
22 -94 5 -20 9 -46 9 -57 0 -26 30 -92 42 -92 23 0 0 200 -32 285 -10 27 -61
95 -70 95 -3 -1 -18 -8 -33 -16z"/>
<path d="M2617 2203 c-4 -3 -1 -16 6 -27 21 -32 37 -124 35 -194 -2 -72 14
-100 38 -67 8 11 18 31 21 45 10 38 -13 169 -34 198 -23 31 -57 54 -66 45z"/>
<path d="M393 2108 c-86 -132 -123 -246 -123 -379 0 -114 17 -173 61 -219 50
-51 86 -57 202 -33 l92 19 3 37 c4 43 -9 47 -56 20 -60 -35 -92 6 -92 119 0
47 48 181 110 303 50 100 49 135 -1 74 -30 -37 -126 -208 -153 -274 -17 -41
-24 -164 -12 -203 12 -38 -4 -46 -35 -16 -41 39 -53 85 -53 204 0 120 14 178
75 307 21 45 39 87 39 93 0 23 -19 6 -57 -52z"/>
<path d="M1730 2050 c0 -5 5 -10 10 -10 6 0 10 5 10 10 0 6 -4 10 -10 10 -5 0
-10 -4 -10 -10z"/>
<path d="M1927 2034 c-4 -4 -7 -17 -7 -28 0 -12 -7 -39 -14 -62 -14 -38 -230
-480 -262 -534 -9 -14 -24 -45 -35 -70 -11 -25 -30 -66 -41 -92 -18 -40 -19
-50 -8 -63 30 -36 50 -14 104 115 29 69 89 202 133 295 72 152 117 262 153
379 10 31 10 41 -2 52 -8 8 -17 11 -21 8z"/>
<path d="M2552 1648 c-33 -90 -67 -210 -78 -273 -8 -51 -19 -64 -69 -86 -44
-19 -194 -42 -240 -37 -24 2 -30 -1 -30 -17 0 -15 9 -21 38 -26 44 -7 204 13
235 30 31 16 42 6 35 -32 -3 -23 0 -37 11 -46 23 -19 32 -7 45 59 12 62 28 80
71 80 21 0 21 -16 0 -80 -22 -66 -15 -148 8 -92 4 9 19 38 35 63 17 28 30 69
35 105 l7 59 105 53 c58 29 107 57 108 63 7 18 -20 39 -49 39 -18 0 -47 -14
-75 -35 -61 -47 -77 -43 -85 20 -8 66 -16 83 -50 101 -22 11 -28 20 -25 37 25
122 11 129 -32 15z m48 -103 c9 -11 11 -36 7 -81 -4 -53 -10 -71 -30 -91 -47
-47 -59 -8 -32 101 25 97 29 102 55 71z"/>
</g>
</svg>
