<?xml version="1.0" standalone="no"?>
<!DOCTYPE svg PUBLIC "-//W3C//DTD SVG 20010904//EN"
 "http://www.w3.org/TR/2001/REC-SVG-20010904/DTD/svg10.dtd">
<svg version="1.0" xmlns="http://www.w3.org/2000/svg"
 width="373.000000pt" height="408.000000pt" viewBox="0 0 373.000000 408.000000"
 preserveAspectRatio="xMidYMid meet">
<metadata>
Created by potrace 1.16, written by Peter Selinger 2001-2019
</metadata>
<g transform="translate(0.000000,408.000000) scale(0.100000,-0.100000)"
fill="#000000" stroke="none">
<path d="M3390 3014 c-204 -31 -234 -38 -259 -60 -43 -38 -19 -43 119 -26 69
8 143 15 165 16 l40 1 -2 -40 c-1 -23 -11 -68 -23 -100 -12 -33 -34 -94 -49
-135 -25 -71 -97 -214 -146 -290 -39 -59 -155 -404 -155 -459 0 -66 30 -18 86
139 19 52 38 104 43 115 5 11 19 47 32 80 13 33 58 122 101 197 137 240 209
479 161 535 -18 22 -68 34 -113 27z"/>
<path d="M672 2728 c-14 -18 -53 -168 -47 -179 12 -19 31 -7 58 35 15 24 27
48 27 54 0 6 14 27 30 46 30 34 30 35 11 45 -27 15 -66 14 -79 -1z"/>
<path d="M572 2458 c-20 -20 -14 -45 19 -82 85 -98 307 -110 485 -26 90 42
103 55 82 76 -12 13 -24 10 -89 -17 -63 -27 -89 -33 -179 -37 -88 -3 -114 -1
-164 17 -32 11 -68 27 -80 36 -11 8 -30 22 -42 30 -15 11 -23 12 -32 3z"/>
<path d="M790 2247 c-39 -20 -31 -41 19 -53 35 -8 56 -23 98 -69 65 -71 69
-99 18 -121 -53 -22 -122 -29 -140 -14 -21 17 -30 77 -16 107 19 41 2 45 -35
7 -60 -60 -53 -143 16 -179 36 -18 131 -19 182 -1 44 16 118 73 118 91 0 7
-11 36 -25 63 -14 28 -25 54 -25 60 0 16 -89 93 -125 108 -42 17 -53 17 -85 1z"/>
<path d="M753 1761 c-86 -14 -143 -67 -143 -132 0 -44 8 -54 30 -34 40 37 221
41 335 9 59 -17 125 -59 125 -79 0 -20 -76 -102 -109 -120 -15 -7 -45 -16 -67
-19 -38 -7 -43 -5 -67 25 -31 39 -57 34 -57 -11 0 -45 41 -80 94 -80 62 0 113
18 153 53 44 38 103 128 103 156 0 26 13 33 33 18 22 -17 83 -143 97 -199 14
-56 5 -137 -16 -145 -26 -10 -16 -35 13 -31 47 6 67 47 68 141 0 92 -21 157
-77 242 -40 60 -165 164 -226 188 -54 22 -207 31 -289 18z m280 -85 c44 -19
50 -41 10 -33 -131 26 -148 35 -107 52 16 6 36 9 44 5 8 -4 32 -15 53 -24z"/>
<path d="M449 1738 c0 -2 -2 -39 -5 -83 -4 -74 0 -91 41 -221 25 -78 45 -146
45 -151 0 -20 42 -63 61 -63 23 0 27 45 5 69 -12 14 -28 67 -68 226 -6 22 -12
60 -14 85 -8 102 -18 135 -41 138 -13 2 -23 2 -24 0z"/>
<path d="M3382 1278 c-18 -18 -15 -36 8 -48 28 -15 62 4 58 33 -3 25 -46 35
-66 15z"/>
<path d="M303 1113 l-123 -4 0 -36 0 -36 88 7 c60 5 103 15 139 32 28 13 57
24 62 24 6 0 11 5 11 10 0 6 -12 9 -27 8 -16 -1 -83 -4 -150 -5z"/>
</g>
</svg>
