<?xml version="1.0" standalone="no"?>
<!DOCTYPE svg PUBLIC "-//W3C//DTD SVG 20010904//EN"
 "http://www.w3.org/TR/2001/REC-SVG-20010904/DTD/svg10.dtd">
<svg version="1.0" xmlns="http://www.w3.org/2000/svg"
 width="264.000000pt" height="369.000000pt" viewBox="0 0 264.000000 369.000000"
 preserveAspectRatio="xMidYMid meet">
<metadata>
Created by potrace 1.16, written by Peter Selinger 2001-2019
</metadata>
<g transform="translate(0.000000,369.000000) scale(0.100000,-0.100000)"
fill="#000000" stroke="none">
<path d="M1330 2887 c-20 -17 -51 -54 -70 -82 -18 -27 -51 -71 -72 -96 -21
-26 -72 -98 -114 -160 -42 -63 -88 -129 -102 -147 -20 -26 -22 -35 -12 -47 17
-21 42 -19 72 5 33 26 79 43 89 33 4 -4 11 -51 15 -104 l7 -96 -55 -31 c-65
-37 -82 -65 -81 -135 1 -111 20 -140 90 -135 46 4 58 -20 14 -28 -34 -7 -56
-28 -46 -44 3 -5 26 -10 50 -10 24 0 47 -5 50 -10 3 -6 10 -52 16 -103 5 -50
12 -106 15 -123 l6 -31 -79 4 c-43 2 -129 8 -192 13 -117 10 -141 5 -141 -27
0 -29 68 -44 253 -53 100 -5 234 -16 297 -24 93 -12 124 -13 162 -3 27 7 49
17 50 22 2 6 -26 13 -62 18 -36 4 -110 18 -165 30 -87 20 -100 26 -98 42 2 11
4 73 6 137 1 64 5 120 8 123 3 2 36 6 73 7 69 2 92 16 67 41 -16 16 -14 41 8
79 47 80 35 221 -24 278 -30 29 -38 32 -72 26 -85 -14 -87 -14 -97 24 -6 24
-4 51 6 85 l14 50 131 6 c98 5 139 10 157 23 30 19 44 62 27 79 -10 9 -17 6
-33 -15 -20 -28 -20 -28 -138 -28 -128 0 -146 7 -111 44 12 12 21 25 21 29 0
12 -95 8 -108 -5 -7 -7 -12 -24 -12 -40 0 -29 -35 -57 -51 -41 -12 12 86 151
174 244 42 45 80 93 83 108 2 14 11 39 19 54 14 27 13 47 -3 47 -4 0 -23 -15
-42 -33z m-7 -715 c9 -10 19 -32 22 -48 6 -25 -1 -36 -54 -88 l-60 -60 -11 29
c-6 16 -10 40 -8 54 3 24 7 26 48 26 38 0 45 3 45 20 0 11 -11 25 -23 31 -33
16 -45 30 -38 43 11 17 61 13 79 -7z m-189 -109 c22 -44 29 -90 15 -99 -7 -4
-17 0 -23 8 -6 9 -20 17 -31 19 -14 3 -21 14 -23 37 -6 60 36 84 62 35z m206
-83 c0 -12 -7 -34 -15 -50 -13 -24 -22 -30 -50 -30 -40 0 -57 19 -30 34 10 6
32 23 49 38 37 33 46 34 46 8z"/>
<path d="M238 2726 c-35 -41 -36 -44 -27 -92 11 -59 2 -134 -17 -141 -19 -7
-18 -58 2 -89 13 -19 15 -39 11 -85 -3 -34 -10 -66 -16 -72 -16 -16 -14 -87 2
-87 38 1 139 30 183 53 49 25 74 57 74 97 0 31 -14 31 -51 1 -35 -30 -144 -70
-155 -58 -9 9 12 77 42 138 21 42 29 49 76 63 29 9 71 17 93 18 44 3 58 26 34
54 -14 17 -81 14 -147 -7 -19 -7 -38 -7 -43 -2 -4 4 -9 61 -11 126 -1 65 -5
120 -8 122 -4 2 -23 -15 -42 -39z"/>
<path d="M2354 2555 c-33 -7 -144 -16 -247 -20 -162 -7 -200 -5 -278 11 -100
20 -124 15 -124 -27 0 -21 8 -26 70 -41 39 -9 102 -17 142 -17 39 -1 74 -5 77
-9 3 -5 -1 -26 -9 -48 -7 -22 -17 -78 -22 -125 l-8 -84 -60 -8 c-120 -16 -149
-22 -153 -35 -7 -22 66 -44 132 -40 l61 3 -1 -55 c0 -30 -4 -131 -8 -225 -6
-149 -5 -176 11 -220 11 -30 24 -50 33 -50 9 0 14 7 12 20 -8 42 -4 181 7 283
6 59 15 141 19 182 l7 75 78 9 c57 6 82 5 90 -3 8 -8 14 -94 18 -274 7 -268
16 -346 46 -379 26 -29 34 -8 22 57 -6 39 -7 159 -2 344 l8 285 75 17 c106 24
110 26 110 64 l0 33 -52 -13 c-29 -8 -73 -15 -98 -17 l-45 -3 -3 80 c-3 111
-7 125 -37 125 -37 0 -48 -38 -40 -137 7 -97 5 -99 -95 -105 -73 -3 -68 -12
-51 88 12 66 64 160 94 168 12 3 47 6 77 6 64 0 183 22 223 40 18 9 27 21 27
37 0 27 -14 28 -106 8z"/>
<path d="M355 2146 c-31 -27 -55 -37 -107 -46 l-68 -12 0 -35 0 -36 48 8 c99
16 97 17 100 -48 3 -55 0 -62 -43 -128 -68 -103 -105 -179 -105 -215 0 -27 7
-37 37 -55 51 -32 104 -31 138 1 52 49 58 73 57 226 -1 114 1 144 13 154 19
16 19 30 -1 44 -33 24 12 66 71 66 32 0 90 52 82 73 -5 14 -11 14 -53 1 -70
-21 -93 -18 -104 11 -5 14 -13 25 -17 25 -5 0 -26 -16 -48 -34z m-7 -406 c-4
-106 -18 -140 -53 -126 -15 5 -17 17 -13 69 5 65 39 157 59 157 8 0 10 -29 7
-100z"/>
</g>
</svg>
