<?xml version="1.0" standalone="no"?>
<!DOCTYPE svg PUBLIC "-//W3C//DTD SVG 20010904//EN"
 "http://www.w3.org/TR/2001/REC-SVG-20010904/DTD/svg10.dtd">
<svg version="1.0" xmlns="http://www.w3.org/2000/svg"
 width="130.000000pt" height="88.000000pt" viewBox="0 0 130.000000 88.000000"
 preserveAspectRatio="xMidYMid meet">
<metadata>
Created by potrace 1.16, written by Peter Selinger 2001-2019
</metadata>
<g transform="translate(0.000000,88.000000) scale(0.100000,-0.100000)"
fill="#000000" stroke="none">
<path d="M520 693 c-15 -5 -210 -97 -240 -112 -18 -9 -26 -89 -11 -104 6 -6
25 4 56 31 75 66 255 156 364 181 28 7 15 9 -59 9 -52 0 -102 -2 -110 -5z"/>
<path d="M953 679 c15 -11 31 -38 38 -61 9 -35 7 -51 -10 -104 -20 -62 -104
-213 -161 -291 l-31 -43 29 0 c23 0 35 9 57 43 16 23 37 56 49 72 11 17 44 77
73 134 61 119 69 180 33 239 -17 28 -25 32 -61 32 l-42 0 26 -21z"/>
</g>
</svg>
