<?xml version="1.0" standalone="no"?>
<!DOCTYPE svg PUBLIC "-//W3C//DTD SVG 20010904//EN"
 "http://www.w3.org/TR/2001/REC-SVG-20010904/DTD/svg10.dtd">
<svg version="1.0" xmlns="http://www.w3.org/2000/svg"
 width="239.000000pt" height="346.000000pt" viewBox="0 0 239.000000 346.000000"
 preserveAspectRatio="xMidYMid meet">
<metadata>
Created by potrace 1.16, written by Peter Selinger 2001-2019
</metadata>
<g transform="translate(0.000000,346.000000) scale(0.100000,-0.100000)"
fill="#000000" stroke="none">
<path d="M1025 2270 c-3 -5 7 -17 22 -26 63 -40 67 -67 22 -171 -19 -43 -29
-78 -25 -89 9 -22 17 -14 80 79 60 89 62 124 7 178 -38 39 -91 53 -106 29z"/>
<path d="M1185 1500 c-10 -17 23 -150 48 -194 29 -52 52 -66 73 -45 14 15 14
20 -4 55 -10 22 -27 62 -36 91 -25 77 -64 121 -81 93z"/>
<path d="M520 1370 c0 -27 -7 -33 -77 -69 -100 -49 -217 -79 -245 -62 -18 11
-19 9 -16 -21 3 -31 5 -33 38 -32 74 2 186 36 260 77 78 44 89 60 76 113 -9
35 -36 31 -36 -6z"/>
</g>
</svg>
