<?xml version="1.0" standalone="no"?>
<!DOCTYPE svg PUBLIC "-//W3C//DTD SVG 20010904//EN"
 "http://www.w3.org/TR/2001/REC-SVG-20010904/DTD/svg10.dtd">
<svg version="1.0" xmlns="http://www.w3.org/2000/svg"
 width="288.000000pt" height="334.000000pt" viewBox="0 0 288.000000 334.000000"
 preserveAspectRatio="xMidYMid meet">
<metadata>
Created by potrace 1.16, written by Peter Selinger 2001-2019
</metadata>
<g transform="translate(0.000000,334.000000) scale(0.100000,-0.100000)"
fill="#000000" stroke="none">
<path d="M1751 3136 c-20 -51 -41 -133 -61 -236 -23 -122 -67 -277 -173 -620
-122 -395 -145 -477 -178 -658 -30 -163 -32 -219 -8 -195 6 6 24 69 40 140 16
70 49 190 74 266 25 76 50 159 55 185 6 26 26 88 45 137 19 50 39 110 46 135
20 79 81 263 105 319 13 29 24 67 24 85 0 26 17 80 51 161 12 28 65 194 73
226 7 33 -17 65 -56 75 -23 5 -29 2 -37 -20z"/>
<path d="M2683 2405 c-11 -41 -75 -249 -120 -390 -13 -44 -40 -136 -58 -205
-19 -69 -48 -170 -65 -225 -52 -170 -65 -224 -56 -232 4 -4 14 1 22 11 12 18
128 367 204 616 17 58 45 146 61 196 26 78 29 104 27 180 -3 86 -3 88 -15 49z"/>
<path d="M1153 934 c-10 -15 -39 -49 -65 -76 -27 -27 -48 -56 -48 -64 0 -23
19 -54 33 -54 31 0 125 130 134 186 5 30 3 34 -15 34 -12 0 -29 -12 -39 -26z"/>
<path d="M2278 804 c-67 -53 -77 -87 -31 -105 42 -16 54 -8 89 56 59 106 37
125 -58 49z"/>
<path d="M761 595 c-60 -62 -70 -84 -43 -93 20 -6 146 122 139 142 -11 28 -32
18 -96 -49z"/>
<path d="M809 527 c-26 -12 -113 -103 -144 -151 -32 -48 -9 -48 50 0 32 27 79
60 104 74 39 21 46 30 46 55 0 34 -17 41 -56 22z"/>
</g>
</svg>
