<?xml version="1.0" standalone="no"?>
<!DOCTYPE svg PUBLIC "-//W3C//DTD SVG 20010904//EN"
 "http://www.w3.org/TR/2001/REC-SVG-20010904/DTD/svg10.dtd">
<svg version="1.0" xmlns="http://www.w3.org/2000/svg"
 width="168.000000pt" height="315.000000pt" viewBox="0 0 168.000000 315.000000"
 preserveAspectRatio="xMidYMid meet">
<metadata>
Created by potrace 1.16, written by Peter Selinger 2001-2019
</metadata>
<g transform="translate(0.000000,315.000000) scale(0.100000,-0.100000)"
fill="#000000" stroke="none">
<path d="M648 2359 c-22 -12 -23 -29 -3 -29 29 0 66 -33 194 -171 121 -131
129 -142 165 -232 51 -129 63 -220 41 -312 -18 -75 -77 -199 -134 -280 -19
-27 -48 -70 -65 -95 -46 -69 -151 -202 -185 -234 -51 -49 -31 -65 27 -23 36
27 163 165 198 217 13 19 51 73 84 119 72 103 134 226 156 312 18 72 18 75 6
144 -13 71 -37 141 -76 226 -29 63 -53 94 -167 211 -74 75 -144 141 -156 147
-27 14 -62 14 -85 0z"/>
<path d="M1080 1086 c-18 -29 -28 -36 -54 -36 -40 0 -56 -16 -56 -56 0 -37 20
-60 38 -42 21 21 42 -13 53 -83 11 -68 7 -124 -18 -282 -11 -68 -12 -102 -5
-109 17 -17 31 0 37 50 4 26 13 83 22 127 18 90 24 153 23 238 -1 51 2 62 29
93 51 58 35 99 -22 54 -14 -11 -28 -20 -31 -20 -11 0 -6 24 9 54 24 46 1 57
-25 12z"/>
<path d="M987 923 c-13 -12 -7 -33 8 -33 8 0 15 9 15 20 0 20 -11 26 -23 13z"/>
<path d="M1366 742 c-3 -3 -6 -16 -6 -29 0 -26 38 -50 64 -40 19 8 21 41 4 54
-17 13 -55 22 -62 15z"/>
</g>
</svg>
