<?xml version="1.0" standalone="no"?>
<!DOCTYPE svg PUBLIC "-//W3C//DTD SVG 20010904//EN"
 "http://www.w3.org/TR/2001/REC-SVG-20010904/DTD/svg10.dtd">
<svg version="1.0" xmlns="http://www.w3.org/2000/svg"
 width="130.000000pt" height="251.000000pt" viewBox="0 0 130.000000 251.000000"
 preserveAspectRatio="xMidYMid meet">
<metadata>
Created by potrace 1.16, written by Peter Selinger 2001-2019
</metadata>
<g transform="translate(0.000000,251.000000) scale(0.100000,-0.100000)"
fill="#000000" stroke="none">
<path d="M1112 710 c0 -14 2 -19 5 -12 2 6 2 18 0 25 -3 6 -5 1 -5 -13z"/>
<path d="M429 539 c-9 -17 -7 -25 11 -44 18 -19 21 -30 15 -56 -8 -36 -21 -63
-44 -92 -11 -13 -12 -20 -3 -29 14 -14 61 26 98 84 31 48 30 67 -3 117 -29 45
-56 52 -74 20z"/>
</g>
</svg>
