<?xml version="1.0" standalone="no"?>
<!DOCTYPE svg PUBLIC "-//W3C//DTD SVG 20010904//EN"
 "http://www.w3.org/TR/2001/REC-SVG-20010904/DTD/svg10.dtd">
<svg version="1.0" xmlns="http://www.w3.org/2000/svg"
 width="411.000000pt" height="387.000000pt" viewBox="0 0 411.000000 387.000000"
 preserveAspectRatio="xMidYMid meet">
<metadata>
Created by potrace 1.16, written by Peter Selinger 2001-2019
</metadata>
<g transform="translate(0.000000,387.000000) scale(0.100000,-0.100000)"
fill="#000000" stroke="none">
<path d="M1102 3683 c-13 -3 -60 -18 -105 -35 -176 -65 -458 -150 -582 -175
-204 -40 -235 -51 -235 -76 0 -25 28 -28 95 -10 22 6 76 20 120 32 99 25 373
97 440 116 28 8 142 46 255 84 l205 69 -85 0 c-47 0 -95 -3 -108 -5z"/>
<path d="M181 2743 c1 -49 4 -77 6 -63 2 14 11 44 19 67 12 32 13 47 4 62 -21
41 -30 21 -29 -66z"/>
<path d="M3675 2498 c-2 -7 -5 -22 -7 -33 -2 -10 -13 -22 -25 -25 -31 -7 -76
-64 -178 -219 -48 -74 -102 -150 -119 -170 -129 -149 -162 -227 -118 -281 16
-20 22 -21 53 -12 19 6 76 21 127 33 118 28 130 20 69 -49 -111 -125 -133
-188 -72 -205 17 -5 65 -23 107 -39 43 -17 84 -28 92 -25 25 10 30 90 12 180
-19 98 -20 148 -3 168 12 15 112 40 171 43 24 1 33 -6 52 -39 13 -22 23 -51
24 -65 0 -26 -6 -36 -92 -150 -27 -34 -48 -66 -48 -71 0 -5 10 -9 22 -9 15 0
45 24 89 71 47 50 72 70 83 66 14 -5 16 4 16 63 0 57 -4 74 -20 90 -11 11 -20
29 -20 40 0 11 9 25 20 32 16 10 20 24 20 64 0 33 -5 56 -15 64 -21 18 -38 3
-24 -22 13 -24 0 -42 -27 -36 -22 4 -62 129 -94 293 -11 55 -24 121 -29 147
-6 27 -8 55 -5 63 4 8 1 22 -6 30 -15 18 -49 20 -55 3z m9 -170 c4 -29 13 -73
20 -98 7 -25 19 -70 26 -100 6 -30 20 -79 31 -108 10 -29 19 -59 19 -66 0 -18
-131 -58 -173 -54 -28 3 -32 7 -35 38 -2 19 2 61 9 92 13 64 4 88 -33 88 -32
0 -51 -63 -45 -148 5 -63 3 -73 -13 -82 -28 -15 -190 -51 -201 -45 -15 10 -10
31 11 50 11 10 20 25 20 33 0 7 29 44 63 80 35 37 86 99 112 137 27 39 61 88
77 110 16 22 43 62 59 88 16 26 33 46 38 43 5 -3 11 -29 15 -58z m-135 -662
c14 -55 14 -103 1 -111 -14 -8 -70 23 -70 39 0 30 34 116 45 116 7 0 18 -20
24 -44z"/>
<path d="M290 2423 c-14 -2 -44 -13 -67 -25 -39 -19 -43 -24 -43 -60 0 -46 9
-48 82 -11 59 30 153 42 186 24 26 -14 57 -108 77 -235 8 -50 21 -127 29 -171
9 -44 22 -118 31 -165 8 -47 22 -114 30 -150 18 -78 55 -303 62 -382 5 -49 3
-58 -11 -58 -9 0 -16 4 -16 9 0 17 -82 151 -92 151 -12 0 -5 -46 18 -129 19
-65 62 -111 105 -111 22 0 32 6 39 26 12 32 13 143 1 215 -5 30 -14 95 -21
144 -7 50 -25 155 -40 235 -16 80 -40 213 -55 295 -31 177 -66 298 -97 345
-33 49 -117 70 -218 53z"/>
<path d="M2295 2290 c-3 -5 6 -25 20 -44 15 -20 36 -65 46 -101 28 -91 49 -84
49 16 0 60 -30 124 -62 133 -33 8 -46 7 -53 -4z"/>
<path d="M281 1973 c-38 -31 -81 -242 -57 -281 4 -7 16 -12 27 -12 27 0 24
-15 -8 -38 -23 -17 -26 -23 -15 -34 15 -15 67 9 147 70 71 54 105 106 112 175
7 66 0 77 -60 105 -67 31 -119 37 -146 15z m129 -81 c20 -16 21 -22 11 -56
-11 -40 -56 -96 -77 -96 -38 0 -57 115 -25 154 18 21 63 20 91 -2z"/>
<path d="M2313 1563 c-26 -56 -10 -109 73 -238 85 -133 172 -174 102 -48 -61
109 -148 286 -148 300 0 22 -14 15 -27 -14z"/>
</g>
</svg>
