<?xml version="1.0" standalone="no"?>
<!DOCTYPE svg PUBLIC "-//W3C//DTD SVG 20010904//EN"
 "http://www.w3.org/TR/2001/REC-SVG-20010904/DTD/svg10.dtd">
<svg version="1.0" xmlns="http://www.w3.org/2000/svg"
 width="177.000000pt" height="340.000000pt" viewBox="0 0 177.000000 340.000000"
 preserveAspectRatio="xMidYMid meet">
<metadata>
Created by potrace 1.16, written by Peter Selinger 2001-2019
</metadata>
<g transform="translate(0.000000,340.000000) scale(0.100000,-0.100000)"
fill="#000000" stroke="none">
<path d="M197 2852 c-13 -14 -17 -37 -16 -93 l1 -74 14 55 c9 40 21 62 45 81
19 15 29 31 25 37 -11 18 -51 14 -69 -6z"/>
<path d="M180 1577 c0 -41 19 -85 45 -107 28 -23 28 -3 -1 62 -36 82 -44 90
-44 45z"/>
<path d="M767 1553 c-4 -3 -7 -10 -7 -14 0 -14 66 -46 132 -64 89 -23 158 -68
158 -102 0 -32 -67 -191 -127 -301 -40 -75 -66 -116 -184 -296 -38 -57 -48
-86 -30 -86 17 0 187 225 253 335 99 163 163 348 137 396 -16 31 -132 106
-188 123 -56 16 -132 21 -144 9z"/>
<path d="M270 1417 c0 -25 57 -94 117 -140 32 -25 74 -59 93 -75 57 -48 184
-112 209 -105 33 8 20 25 -30 39 -44 14 -159 105 -296 235 -59 57 -93 73 -93
46z"/>
</g>
</svg>
